<?xml version="1.0" standalone="no"?>
<!DOCTYPE svg PUBLIC "-//W3C//DTD SVG 20010904//EN"
 "http://www.w3.org/TR/2001/REC-SVG-20010904/DTD/svg10.dtd">
<svg version="1.0" xmlns="http://www.w3.org/2000/svg"
 width="800" height="1200" viewBox="0 0 696 1000"
 preserveAspectRatio="xMidYMid meet">

<g transform="translate(0.000000,1000.000000) scale(0.100000,-0.100000)"
fill="#000000" stroke="none">
<path d="M0 5000 l0 -5000 3480 0 3480 0 0 5000 0 5000 -3480 0 -3480 0 0
-5000z m276 4879 c17 -7 17 -8 -3 -8 -14 -1 -23 -7 -23 -17 0 -22 -23 -12 -26
11 -2 10 2 28 8 39 11 20 11 20 18 2 3 -11 15 -23 26 -27z m-71 1 c3 -5 1 -10
-4 -10 -6 0 -11 5 -11 10 0 6 2 10 4 10 3 0 8 -4 11 -10z m2505 -392 c0 7 5
10 10 7 6 -4 8 -10 5 -15 -3 -5 1 -14 8 -22 7 -7 13 -24 14 -37 1 -13 14 -48
28 -77 28 -57 26 -89 -4 -57 -10 10 -17 28 -15 41 1 15 -4 25 -14 28 -9 3 -26
10 -36 16 -16 8 -18 7 -13 -7 4 -9 3 -14 -2 -11 -5 3 -12 -1 -15 -10 -3 -8
-10 -12 -16 -9 -6 4 -7 -1 -3 -12 3 -10 2 -15 -2 -10 -13 11 -34 -45 -23 -60
5 -7 7 -17 3 -23 -3 -5 -2 -10 3 -10 5 0 12 9 15 20 4 14 14 20 34 21 15 0 22
3 16 6 -7 2 -13 9 -13 15 0 6 8 4 18 -5 10 -10 22 -14 27 -10 4 5 5 2 1 -5 -4
-7 -12 -10 -17 -7 -5 4 -7 -4 -5 -17 3 -13 5 -29 5 -35 1 -7 7 -13 15 -13 9 0
13 -9 11 -25 -1 -14 2 -28 8 -32 6 -3 7 -1 3 5 -3 6 -1 14 5 18 7 4 9 3 5 -4
-3 -6 2 -16 11 -22 17 -10 17 -10 -1 -8 -10 2 -21 -3 -24 -11 -3 -10 0 -12 12
-8 10 4 16 1 16 -9 0 -8 6 -17 14 -20 11 -4 13 -12 6 -28 -7 -20 -5 -23 13
-21 12 0 32 -7 44 -18 l22 -19 -21 41 c-11 23 -24 41 -29 41 -5 0 -9 8 -9 18
0 10 -8 34 -19 54 -13 26 -15 39 -7 43 6 3 1 3 -11 1 -26 -5 -31 11 -8 20 19
8 19 23 -1 45 -15 17 -15 18 4 16 23 -1 31 -15 61 -94 17 -48 18 -53 3 -53
-12 0 -9 -5 8 -13 14 -7 25 -20 25 -28 0 -9 7 -24 15 -33 11 -14 11 -19 1 -25
-10 -6 -9 -10 3 -14 9 -4 16 -13 16 -20 0 -8 6 -20 14 -26 8 -7 17 -24 21 -39
11 -44 77 -176 97 -193 9 -9 14 -20 10 -24 -4 -5 1 -5 11 -2 22 8 57 -12 57
-32 0 -11 -3 -11 -13 3 -8 11 -19 15 -30 10 -12 -4 -15 -10 -7 -19 5 -6 6 -16
2 -20 -4 -5 -1 -5 6 -1 21 12 62 17 62 7 0 -5 -6 -14 -14 -20 -20 -17 -272 -3
-287 15 -14 17 -4 33 28 45 16 6 23 15 20 27 -26 92 -48 160 -59 173 -10 13
-40 18 -144 23 l-131 7 -18 -47 c-10 -26 -30 -58 -43 -71 -15 -13 -19 -21 -9
-18 14 6 14 3 4 -19 -9 -19 -17 -24 -32 -20 l-20 5 20 -13 c11 -7 20 -19 21
-25 4 -44 3 -44 26 -32 18 9 20 9 15 -4 -4 -11 0 -14 18 -12 21 2 23 0 14 -18
-8 -14 -8 -18 0 -13 6 4 11 3 11 -2 0 -15 -39 -22 -119 -21 -44 1 -76 6 -84
13 -9 11 -14 10 -25 -1 -7 -7 -19 -13 -27 -13 -14 0 -29 45 -20 60 7 12 35 13
35 2 0 -4 10 -8 23 -9 22 -2 22 -2 2 13 -19 14 -19 15 3 21 15 4 32 26 54 72
18 36 49 101 70 145 21 43 38 86 38 95 0 9 4 21 8 27 5 5 14 28 21 52 7 27 18
42 28 42 13 0 13 -3 3 -16 -11 -12 -10 -18 3 -30 9 -8 13 -9 8 -3 -10 13 -4
39 10 39 4 0 6 -8 3 -17 -4 -14 -2 -13 7 2 8 11 14 22 15 25 0 3 4 13 7 23 16
40 16 50 3 68 -13 20 -14 20 -19 0 -3 -11 -2 -20 2 -19 23 3 21 -6 -8 -33 -35
-32 -49 -33 -33 -2 15 27 72 187 72 201 0 7 5 12 11 12 6 0 9 -7 6 -14 -4 -10
-1 -13 8 -10 15 6 13 40 -3 37 -12 -3 5 75 21 95 8 11 12 11 18 0 7 -11 9 -11
9 0z m-825 -8 c4 -6 12 -7 18 -4 7 4 9 4 5 -1 -4 -4 -3 -16 3 -26 9 -17 7 -18
-18 -9 -26 9 -27 9 -9 -5 11 -8 16 -18 12 -22 -11 -11 -36 27 -36 54 0 24 14
31 25 13z m58 -9 c5 -22 -1 -33 -14 -25 -12 7 -12 44 0 44 5 0 11 -9 14 -19z
m92 9 c3 -5 -4 -11 -17 -11 -21 -1 -20 -2 4 -8 l28 -6 -27 -12 c-14 -7 -23
-10 -19 -6 7 8 -13 33 -26 33 -6 0 -8 -6 -5 -14 3 -8 0 -17 -7 -19 -8 -3 -12
3 -12 17 1 14 9 23 26 27 39 10 48 10 55 -1z m125 -20 c0 -5 -4 -11 -10 -15
-5 -3 -7 -12 -4 -20 4 -10 -3 -18 -20 -25 -23 -8 -26 -15 -26 -55 0 -42 -2
-45 -19 -36 -10 6 -22 7 -27 3 -5 -4 -3 0 4 9 10 13 10 19 -1 28 -8 6 -18 7
-23 3 -4 -4 -3 0 4 9 6 9 8 20 4 25 -4 5 -4 7 0 4 3 -3 7 -9 7 -13 0 -4 7 -15
16 -23 8 -9 12 -21 8 -27 -3 -7 -2 -8 3 -4 5 5 9 27 10 49 0 22 6 43 13 48 10
5 7 12 -10 25 -20 15 -21 16 -4 11 13 -5 16 -4 10 2 -5 6 -19 12 -30 15 -11 3
-5 4 13 4 27 -1 32 -5 29 -19 -4 -13 1 -18 16 -18 16 0 18 3 9 12 -7 7 -12 18
-12 25 0 11 5 11 20 3 11 -6 20 -15 20 -20z m1178 20 c134 9 316 4 320 -9 2
-6 10 -18 18 -25 8 -8 14 -20 14 -26 0 -6 5 -8 11 -5 7 5 2 16 -12 31 -12 13
-20 26 -17 29 2 3 13 -4 23 -15 10 -11 29 -20 42 -20 13 0 22 -4 19 -9 -3 -5
8 -23 24 -41 17 -18 30 -38 30 -46 0 -7 7 -17 15 -22 11 -6 17 -27 19 -65 1
-31 -1 -57 -4 -57 -4 0 -5 -12 -2 -27 5 -26 4 -27 -13 -13 -17 14 -17 14 -4
-7 11 -19 11 -25 0 -35 -11 -10 -14 -10 -18 0 -3 6 -9 9 -14 6 -6 -3 -2 -12 8
-20 17 -13 17 -13 -2 -14 -15 0 -17 -2 -6 -9 9 -6 -7 -18 -57 -43 -50 -24 -74
-32 -82 -24 -7 7 -10 6 -10 -2 0 -17 33 -29 38 -13 5 15 42 -15 42 -34 0 -7 9
-20 20 -30 11 -10 20 -23 20 -29 0 -6 13 -25 30 -42 16 -18 27 -34 24 -37 -6
-6 129 -147 142 -147 5 0 20 -9 33 -19 14 -10 30 -17 37 -14 7 2 17 -4 23 -16
9 -15 7 -23 -6 -36 -66 -66 -303 112 -426 319 -10 17 -35 48 -55 69 -22 23
-31 37 -22 37 12 1 11 4 -2 14 -22 17 -23 25 -2 22 19 -3 41 -36 24 -36 -6 0
-3 -11 7 -25 21 -28 30 -31 30 -10 0 8 -4 12 -9 9 -4 -3 -8 -2 -9 3 0 4 -2 22
-4 38 -6 40 1 48 57 69 51 19 56 24 86 78 21 36 21 38 3 103 -20 70 -31 84
-98 111 -24 10 -43 22 -43 27 0 4 6 5 13 1 6 -4 9 -4 5 1 -10 11 -68 12 -61 2
3 -5 -19 -6 -48 -4 l-54 5 -3 -158 c-3 -108 0 -160 7 -164 6 -4 8 -18 5 -32
-5 -17 -2 -24 9 -24 28 0 46 11 40 26 -3 8 -1 14 5 14 13 0 20 -20 14 -42 -3
-13 -14 -18 -39 -18 l-34 0 5 -139 c4 -137 15 -184 39 -179 7 2 27 -7 44 -20
23 -16 32 -30 29 -45 -4 -29 -32 -33 -196 -27 -109 4 -135 8 -137 20 -4 21 12
43 34 45 54 6 67 38 63 160 -5 147 -4 151 16 131 8 -9 19 -14 24 -11 5 3 11 1
15 -5 4 -6 11 -7 17 -4 6 4 8 2 5 -4 -4 -5 -16 -8 -27 -5 -11 3 -20 0 -20 -6
0 -5 7 -8 15 -4 13 4 15 0 11 -21 -3 -15 -1 -24 5 -21 5 4 7 11 4 16 -3 5 1 6
9 3 9 -3 16 -1 16 5 0 6 -6 11 -12 11 -7 0 -4 7 7 16 20 15 20 15 -1 20 -14 4
-20 12 -18 27 1 12 3 23 4 25 3 3 7 19 9 33 0 5 6 7 11 4 6 -3 10 -2 10 3 0 5
-12 15 -27 22 -23 11 -25 14 -10 18 12 2 16 10 12 21 -3 10 1 23 8 29 18 15
10 75 -9 68 -8 -3 -14 -1 -14 4 0 6 4 10 9 10 5 0 8 20 6 45 -2 25 0 45 6 45
5 0 9 12 9 26 0 22 -4 25 -22 21 -33 -8 -62 16 -55 45 6 22 5 22 -8 4 -13 -17
-13 -22 0 -36 19 -21 19 -30 1 -30 -8 0 -17 11 -20 25 -4 14 -10 24 -14 23
-17 -4 -72 15 -72 25 0 7 -3 23 -7 36 -5 20 -3 23 10 18 9 -3 20 -1 24 5 4 7
8 8 10 2 2 -6 34 -8 81 -4z m878 0 c21 -1 86 1 144 5 125 7 236 -2 254 -21 8
-7 16 -10 20 -7 3 3 15 -2 26 -12 11 -10 20 -15 20 -12 0 4 9 -1 20 -10 11
-10 20 -26 20 -36 0 -9 7 -20 15 -23 8 -4 15 -17 15 -29 0 -13 5 -27 11 -31 8
-4 10 -35 7 -89 -4 -77 -7 -85 -42 -128 -31 -38 -61 -57 -98 -61 -12 -2 -21
-16 -10 -16 7 0 12 -8 12 -17 0 -10 12 -29 26 -42 14 -13 23 -30 20 -37 -3 -7
2 -15 10 -18 8 -3 20 -18 26 -33 14 -32 197 -212 216 -213 6 0 21 -9 33 -21
16 -16 18 -23 8 -35 -12 -15 -74 -19 -83 -5 -3 4 -19 11 -36 15 -29 5 -96 48
-112 70 -4 6 -4 14 -1 20 3 5 2 6 -4 3 -15 -9 -131 115 -186 198 -70 106 -79
115 -115 118 -24 1 -32 7 -33 22 -1 17 -2 17 -6 3 -2 -10 -10 -18 -17 -18 -9
0 -11 -26 -9 -102 6 -187 4 -181 43 -200 58 -29 70 -41 70 -70 0 -32 14 -30
-179 -30 -107 1 -137 4 -149 16 -14 14 -14 17 3 36 10 11 26 20 35 20 9 0 25
9 36 21 16 17 18 35 17 101 -2 74 -1 79 15 67 16 -13 15 -12 0 7 -10 11 -18
29 -18 39 0 15 2 16 18 4 13 -11 13 -9 -2 9 -15 17 -17 25 -8 34 9 9 16 7 30
-5 17 -15 21 -16 31 -3 8 9 8 16 2 20 -5 4 -13 1 -17 -5 -4 -8 -11 -4 -20 12
-8 15 -13 18 -14 9 0 -13 -2 -13 -9 0 -12 18 -4 33 12 23 7 -4 6 1 -2 10 -18
22 -22 140 -4 126 6 -6 10 -16 8 -22 -3 -7 8 -21 23 -31 l27 -19 -24 26 c-14
15 -21 27 -16 27 5 0 -1 10 -12 23 -20 21 -21 31 -27 177 -1 31 -6 37 -48 58
-37 17 -48 28 -48 45 0 24 18 49 30 42 3 -2 24 -5 46 -5z m936 -20 c21 -26 12
-44 -27 -54 -24 -6 -36 -36 -15 -36 6 0 10 -6 10 -14 0 -8 11 -28 25 -44 13
-16 21 -33 17 -37 -4 -5 -2 -5 5 -2 7 4 21 -8 34 -30 13 -21 29 -42 36 -46 7
-4 13 -13 13 -19 0 -5 11 -19 25 -30 13 -10 24 -24 22 -30 -1 -6 3 -12 9 -15
10 -3 71 85 85 122 9 24 81 145 90 151 17 10 9 24 -15 24 -27 0 -58 40 -46 59
9 16 145 28 226 21 l59 -5 0 -35 c0 -33 -3 -36 -47 -51 -33 -11 -63 -32 -100
-71 -46 -49 -143 -188 -177 -256 -7 -12 -16 -20 -21 -17 -6 3 -7 0 -4 -8 3 -8
1 -18 -5 -21 -6 -4 -7 -16 -2 -29 4 -12 5 -35 2 -52 -5 -24 6 -215 12 -222 1
0 16 -4 32 -7 45 -8 75 -18 76 -25 6 -29 5 -52 -3 -57 -5 -4 -63 -6 -127 -5
-65 1 -139 -3 -165 -10 -43 -11 -49 -10 -67 9 -10 12 -19 26 -19 31 0 19 32
41 60 41 15 0 38 8 49 18 20 16 22 28 26 155 5 149 -2 177 -57 237 -13 14 -34
41 -48 61 -43 61 -73 98 -144 175 -53 57 -75 74 -96 74 -22 0 -29 6 -34 26 -4
15 -3 30 1 35 10 10 90 15 203 12 74 -1 87 -4 102 -23z m-3863 10 c-8 -5 -6
-11 7 -18 10 -6 15 -14 11 -18 -5 -5 -12 -2 -17 6 -5 8 -15 16 -22 16 -7 1
-19 2 -25 3 -29 3 -10 18 22 18 20 0 31 -4 24 -7z m52 3 c-11 -5 -11 -7 0 -14
7 -4 11 -10 8 -14 -3 -3 -13 3 -22 13 -15 17 -15 18 6 19 12 0 16 -1 8 -4z
m109 -3 c0 -5 -2 -10 -4 -10 -3 0 -8 5 -11 10 -3 6 -1 10 4 10 6 0 11 -4 11
-10z m25 0 c3 -5 1 -10 -4 -10 -6 0 -11 5 -11 10 0 6 2 10 4 10 3 0 8 -4 11
-10z m93 -36 c1 -1 -5 -7 -15 -15 -9 -8 -14 -9 -10 -3 3 6 -3 20 -13 32 -30
31 -24 39 8 11 15 -13 28 -24 30 -25z m-295 -3 c-2 -6 2 -11 7 -11 16 0 11
-17 -6 -24 -19 -7 -54 19 -54 40 0 8 10 11 28 9 15 -1 26 -8 25 -14z m257 -21
c0 -5 -7 -10 -16 -10 -8 0 -12 5 -9 10 3 6 10 10 16 10 5 0 9 -4 9 -10z m-40
-10 c0 -5 -5 -10 -11 -10 -5 0 -7 5 -4 10 3 6 8 10 11 10 2 0 4 -4 4 -10z
m-27 -41 c-9 -9 -12 -7 -10 9 1 14 5 18 11 12 7 -7 6 -14 -1 -21z m1880 -59
c3 -10 -1 -21 -9 -24 -8 -3 -11 -12 -7 -23 3 -10 2 -15 -2 -10 -5 4 -10 28
-11 53 -3 37 -1 44 10 34 8 -6 16 -19 19 -30z m-669 -16 c5 -14 4 -15 -9 -4
-17 14 -19 20 -6 20 5 0 12 -7 15 -16z m-669 -4 c3 -5 1 -10 -4 -10 -6 0 -11
5 -11 10 0 6 2 10 4 10 3 0 8 -4 11 -10z m81 -39 c-9 -10 -13 -21 -9 -24 3 -4
1 -7 -5 -7 -15 0 -15 2 -2 35 6 15 15 23 21 20 7 -5 5 -13 -5 -24z m1284 9 c0
-5 -4 -10 -9 -10 -6 0 -13 5 -16 10 -3 6 1 10 9 10 9 0 16 -4 16 -10z m-33
-32 c11 -19 13 -39 2 -32 -10 6 -7 -25 4 -43 5 -7 4 -13 -1 -13 -6 0 -8 -9 -5
-20 3 -11 0 -20 -6 -20 -7 0 -11 21 -12 53 0 28 -2 60 -4 70 -4 20 10 23 22 5z
m-1320 -32 c0 -8 -6 -12 -15 -9 -11 5 -11 7 0 14 7 5 13 9 14 9 0 0 1 -6 1
-14z m1383 -17 c0 -6 -4 -7 -10 -4 -5 3 -10 11 -10 16 0 6 5 7 10 4 6 -3 10
-11 10 -16z m-1350 1 c0 -5 -2 -10 -4 -10 -3 0 -8 5 -11 10 -3 6 -1 10 4 10 6
0 11 -4 11 -10z m50 0 c0 -5 -10 -15 -22 -21 l-23 -12 20 21 c23 24 25 25 25
12z m-96 -29 c9 -10 19 -28 21 -41 3 -18 2 -20 -10 -10 -8 7 -12 17 -8 23 3 5
-5 18 -18 28 -13 10 -19 19 -13 19 6 0 18 -8 28 -19z m41 1 c-3 -3 -11 0 -18
7 -9 10 -8 11 6 5 10 -3 15 -9 12 -12z m555 -2 c0 -5 -5 -10 -11 -10 -5 0 -7
5 -4 10 3 6 8 10 11 10 2 0 4 -4 4 -10z m-499 -112 c2 -137 1 -140 -17 -154
-8 -6 -14 -15 -14 -19 0 -4 7 -2 15 5 9 7 18 11 20 8 8 -8 -6 -38 -15 -33 -7
4 -6 -19 1 -35 1 -3 3 -9 4 -15 1 -5 7 -23 13 -38 14 -34 15 -40 3 -32 -5 3
-12 1 -16 -5 -3 -5 -11 -10 -16 -10 -6 0 -7 5 -3 11 3 6 -5 3 -20 -6 -30 -20
-30 -21 -14 -31 7 -4 8 -3 4 4 -4 7 -3 12 3 12 5 0 14 -7 19 -16 6 -11 11 -13
16 -5 4 6 1 11 -6 11 -11 0 -10 2 0 9 21 13 57 8 57 -8 0 -8 -6 -16 -14 -19
-9 -3 -11 0 -5 9 7 12 5 12 -9 0 -9 -7 -17 -16 -17 -19 0 -3 3 -2 6 1 4 3 15
2 25 -4 11 -5 19 -6 18 -2 -3 12 12 43 21 43 17 0 50 -39 50 -59 0 -20 -4 -21
-67 -17 -38 2 -102 5 -143 6 -41 1 -67 4 -57 7 25 7 21 20 -5 18 -15 -1 -22
-8 -20 -19 2 -9 -4 -16 -11 -16 -19 0 -42 28 -32 38 4 4 10 1 12 -6 3 -6 9 -9
14 -6 6 3 5 11 -2 20 -15 18 -11 21 26 28 28 5 29 4 11 -9 -10 -8 -23 -12 -29
-8 -6 3 -7 1 -4 -5 7 -10 13 -10 55 3 17 6 20 10 11 21 -7 9 -9 46 -5 111 3
54 5 112 6 130 0 25 3 31 16 26 11 -4 12 -8 4 -13 -9 -6 -9 -9 0 -15 9 -6 9
-10 -1 -17 -11 -8 -10 -8 4 -4 12 4 20 -1 26 -17 12 -30 5 -34 -18 -13 -19 17
-19 17 -17 -1 2 -12 11 -18 29 -18 33 -1 43 -11 29 -28 -9 -10 -8 -14 2 -14 7
0 12 9 11 21 -1 12 -3 21 -4 21 -2 0 -4 9 -6 19 -2 10 -9 22 -15 26 -8 5 -7 9
5 13 9 4 13 3 10 -2 -3 -5 0 -13 6 -17 7 -4 9 -3 5 4 -3 6 -2 13 4 17 6 4 8
11 4 16 -3 5 0 16 6 24 10 12 8 13 -8 10 -12 -2 -26 3 -33 11 -6 8 -8 14 -4
14 4 0 1 8 -6 17 -10 11 -10 14 -1 9 7 -4 12 -2 12 4 0 6 5 8 10 5 6 -3 10 -1
10 5 0 6 5 8 12 4 7 -4 8 -3 4 4 -5 9 -13 9 -27 2 -17 -10 -23 -6 -20 12 0 4
-7 4 -16 1 -12 -5 -14 -3 -8 8 6 11 5 12 -5 2 -21 -19 -20 -40 1 -59 24 -22
24 -29 0 -31 -13 -1 -23 8 -30 27 -8 23 -14 28 -33 24 -19 -4 -132 -5 -293 -2
-11 0 -37 -3 -57 -7 -27 -5 -38 -4 -38 4 0 8 -8 10 -20 6 -23 -7 -28 10 -5 19
19 7 47 -3 39 -15 -6 -10 41 -2 61 10 6 3 19 7 30 8 17 3 18 1 5 -8 -12 -9
-11 -10 5 -4 11 4 31 10 45 12 20 4 22 2 10 -6 -24 -17 -2 -13 25 5 23 15 25
15 31 0 6 -15 8 -15 21 4 15 21 35 27 30 9 -1 -6 6 -13 16 -14 17 -3 17 -2 3
14 -18 20 -21 36 -6 26 6 -3 10 -2 10 2 0 5 9 9 20 9 24 0 26 -11 4 -20 -8 -3
-12 -11 -8 -17 4 -7 13 -1 23 15 16 24 18 25 35 8 14 -14 16 -14 11 -1 -4 10
0 16 10 16 9 0 14 -6 11 -12 -2 -6 2 -12 10 -12 8 0 14 9 14 19 0 10 5 18 11
18 6 0 9 -6 6 -12 -2 -7 9 -21 25 -30 34 -21 42 -22 32 -5 -5 8 -2 8 9 -2 9
-7 17 -10 17 -5 0 5 4 3 9 -4 5 -9 8 -3 9 17 0 17 -4 31 -9 31 -6 0 -8 -4 -4
-9 3 -5 1 -12 -5 -16 -5 -3 -10 0 -11 7 0 7 -2 21 -4 31 -4 20 6 22 24 5 10
-11 11 -10 6 5 -4 10 -2 17 4 17 7 0 11 -38 12 -112z m-431 72 c0 -5 -4 -10
-10 -10 -5 0 -10 5 -10 10 0 6 5 10 10 10 6 0 10 -4 10 -10z m-75 -30 c-5 -16
-3 -17 18 -7 14 6 24 16 22 22 -1 5 0 7 2 3 3 -5 11 -8 19 -8 9 0 12 -5 9 -10
-4 -6 -11 -8 -16 -5 -5 4 -9 1 -9 -6 0 -7 -3 -9 -6 -6 -4 3 -16 2 -26 -4 -15
-8 -23 -8 -32 1 -8 9 -8 14 1 17 7 2 9 11 6 20 -4 11 -3 14 6 9 6 -4 9 -16 6
-26z m105 20 c0 -5 -4 -10 -10 -10 -5 0 -10 5 -10 10 0 6 5 10 10 10 6 0 10
-4 10 -10z m24 -13 c-3 -7 2 -3 10 7 12 15 16 16 16 5 0 -12 2 -12 11 1 7 11
12 12 15 3 3 -7 12 -9 21 -6 12 5 12 2 -3 -15 -21 -25 -25 -27 -21 -10 3 17
-26 16 -39 -1 -8 -10 -13 -11 -18 -2 -5 8 -13 8 -29 0 -21 -10 -21 -10 -3 5
11 9 24 16 29 16 4 0 5 5 1 12 -4 7 -3 8 5 4 6 -4 9 -13 5 -19z m1756 4 c0 -5
-7 -11 -14 -14 -10 -4 -13 -1 -9 9 6 15 23 19 23 5z m60 -1 c0 -5 -2 -10 -4
-10 -3 0 -8 5 -11 10 -3 6 -1 10 4 10 6 0 11 -4 11 -10z m30 0 c0 -5 -4 -10
-10 -10 -5 0 -10 5 -10 10 0 6 5 10 10 10 6 0 10 -4 10 -10z m-2207 -25 c-7
-21 -13 -19 -13 6 0 11 4 18 10 14 5 -3 7 -12 3 -20z m1980 7 c-1 -5 4 -13 12
-16 9 -3 12 0 8 10 -3 8 1 14 9 14 8 0 14 -10 14 -26 0 -23 -3 -25 -30 -20
l-31 5 29 -15 c19 -11 25 -19 18 -26 -7 -7 -18 -5 -34 6 -20 13 -23 22 -20 51
3 21 9 34 16 32 6 -3 10 -9 9 -15z m-1849 -26 c-7 -17 -24 -22 -24 -6 0 5 -8
7 -17 3 -13 -4 -15 -3 -8 5 9 9 46 21 53 17 1 -1 0 -10 -4 -19z m513 -10 c-3
-7 0 -20 6 -27 7 -7 2 -5 -11 6 -17 14 -19 21 -10 27 18 11 21 10 15 -6z
m-550 -139 c1 -72 2 -140 2 -149 1 -9 8 -23 16 -31 12 -13 10 -14 -20 -13 -43
1 -54 12 -29 31 12 9 14 14 6 15 -7 0 -11 3 -9 8 3 4 -6 8 -19 8 -45 3 -21
-60 30 -79 10 -4 16 -13 13 -20 -3 -8 1 -14 9 -14 7 0 11 4 8 9 -6 10 10 11
20 1 4 -5 12 -9 17 -9 5 -1 10 -2 12 -4 9 -7 44 -7 58 0 13 8 17 6 15 -8 -2
-12 -14 -18 -39 -20 -21 -2 -37 1 -37 7 0 9 -12 9 -40 -2 -8 -3 -63 -8 -121
-11 l-107 -6 -6 26 c-4 15 -2 32 5 40 10 12 14 10 25 -12 17 -33 17 -35 -1
-28 -8 4 -15 1 -15 -6 0 -6 8 -10 18 -8 11 2 17 12 16 30 -1 20 3 25 14 20 10
-3 13 -1 8 6 -4 7 -1 12 9 12 14 0 14 -3 -1 -25 -9 -14 -14 -28 -10 -32 3 -3
6 -1 6 6 0 8 6 11 16 7 12 -4 15 -2 10 9 -3 9 0 15 9 15 7 0 17 4 20 10 4 6
-1 7 -11 3 -12 -4 -15 -3 -10 5 4 7 3 12 -3 12 -7 0 -7 8 -2 23 5 12 6 36 4
53 -4 23 0 33 11 37 12 5 16 2 14 -10 -2 -10 5 -19 16 -21 11 -3 16 0 11 7 -3
6 -12 8 -18 5 -9 -5 -9 -4 -2 4 6 7 22 13 36 14 21 2 25 6 21 23 -3 11 -9 26
-15 33 -5 6 -6 12 -1 12 5 0 9 14 10 30 1 24 -3 30 -20 31 -17 1 -18 2 -3 6 9
2 17 11 17 19 0 8 5 14 11 14 6 0 8 7 5 17 -4 9 -1 20 6 25 7 4 13 8 13 8 0 0
1 -60 2 -133z m-106 100 c-10 -9 -11 -8 -5 6 3 10 9 15 12 12 3 -3 0 -11 -7
-18z m14 -27 c-4 -13 -2 -20 7 -20 8 0 9 -3 3 -8 -6 -4 -11 -19 -10 -34 0 -19
3 -24 12 -16 18 14 28 4 31 -32 1 -18 -2 -29 -7 -26 -5 4 -11 1 -13 -5 -6 -18
-48 8 -48 29 0 9 4 33 9 53 5 22 4 43 -2 54 -7 13 -6 16 2 11 6 -4 11 -2 11 3
0 6 3 11 6 11 3 0 2 -9 -1 -20z m680 -2 c6 -1 11 -9 11 -19 0 -11 -7 -16 -18
-14 -10 2 -18 -1 -18 -6 0 -6 -5 -7 -11 -4 -6 4 -8 13 -5 20 2 7 -1 18 -7 24
-8 8 -4 9 14 5 13 -3 29 -6 34 -6z m-625 -222 c0 -11 -19 -15 -25 -6 -3 5 1
10 9 10 9 0 16 -2 16 -4z m89 -53 c10 9 11 8 6 -5 -8 -19 9 -25 20 -8 3 6 13
10 21 10 19 0 15 -31 -5 -38 -9 -3 -11 0 -5 9 6 11 5 12 -8 2 -8 -7 -18 -9
-22 -5 -4 4 -11 7 -14 8 -18 2 -42 17 -42 25 0 6 8 6 18 0 13 -7 23 -6 31 2z
m1591 -7 c0 -3 -4 -8 -10 -11 -5 -3 -10 -1 -10 4 0 6 5 11 10 11 6 0 10 -2 10
-4z m-930 -237 c0 8 2 12 5 9 10 -10 -7 -37 -20 -32 -7 3 -15 2 -18 -3 -3 -5
11 -8 31 -8 21 1 45 -3 54 -7 10 -5 20 -4 24 4 4 7 3 8 -4 4 -8 -5 -10 -1 -6
9 6 14 8 13 21 -5 8 -11 22 -20 32 -20 19 0 65 -43 55 -52 -3 -3 -1 -9 5 -13
21 -12 11 27 -11 46 -13 10 -18 18 -12 19 6 0 21 -11 34 -25 13 -14 31 -25 41
-25 10 0 20 -9 24 -20 3 -10 20 -31 36 -44 17 -14 28 -30 25 -35 -3 -5 1 -11
9 -15 8 -3 15 -12 15 -20 0 -7 7 -27 15 -42 8 -16 12 -37 9 -47 -3 -10 -2 -16
3 -15 4 2 10 -1 12 -7 3 -5 -8 -13 -25 -16 -16 -4 -24 -7 -19 -8 6 -1 3 -6 -5
-11 -25 -16 -32 -11 -12 10 28 30 17 88 -14 76 -15 -6 -20 9 -6 18 14 9 6 51
-9 48 -7 -2 -18 3 -24 11 -16 22 -43 16 -55 -13 l-11 -27 -72 71 c-81 80 -131
102 -206 90 -23 -4 -50 -8 -59 -9 -34 -3 -69 -24 -114 -68 -25 -25 -43 -48
-41 -51 3 -3 -5 -20 -18 -38 -31 -42 -47 -78 -43 -100 1 -10 -2 -18 -8 -18 -7
0 -7 -4 -1 -12 5 -7 10 -35 11 -61 1 -27 6 -55 12 -62 9 -11 7 -17 -9 -27 -12
-7 -21 -17 -21 -22 0 -5 8 -2 18 7 10 10 22 14 25 10 9 -9 9 -23 0 -21 -15 3
-43 -14 -37 -23 6 -11 25 -12 22 -1 -2 4 1 9 5 12 5 3 20 -16 35 -42 21 -37
24 -50 15 -59 -9 -9 -15 -9 -27 0 -18 15 -33 -4 -17 -23 8 -9 7 -13 -4 -13 -8
0 -13 3 -10 5 3 3 -3 14 -12 24 -16 18 -16 19 3 13 19 -7 19 -6 0 9 -10 8 -23
13 -28 9 -6 -3 -5 4 1 16 7 11 14 21 17 21 3 0 3 -4 0 -9 -3 -4 3 -16 13 -25
18 -17 20 -16 26 3 8 26 -1 41 -25 41 -10 0 -21 7 -24 16 -3 9 -11 12 -18 8
-9 -5 -9 -3 1 9 11 13 11 20 1 32 -10 12 -8 14 9 10 14 -2 21 1 21 11 0 8 -5
12 -11 9 -6 -4 -17 1 -24 11 -20 26 -18 34 4 34 11 0 22 4 25 8 3 5 -19 7 -48
5 -47 -3 -54 -1 -52 14 0 10 6 21 11 25 6 5 6 8 -2 8 -6 0 -11 9 -10 20 1 11
4 20 8 20 3 0 4 11 2 24 -3 13 0 27 6 30 5 4 8 13 4 21 -4 11 -1 13 11 9 12
-5 15 -2 10 11 -5 13 -3 16 7 13 8 -3 14 -16 14 -30 -1 -19 3 -24 17 -20 14 3
17 0 11 -14 -6 -18 -6 -18 10 -2 18 18 23 33 8 24 -5 -3 -12 1 -15 10 -3 8
-12 12 -18 9 -7 -4 -4 0 6 9 19 16 41 12 31 -5 -4 -5 -1 -9 5 -9 7 0 10 6 7
13 -2 6 3 18 12 25 14 11 14 11 -3 5 -14 -4 -17 -2 -14 8 3 8 10 13 14 12 5
-1 19 13 31 31 15 24 17 33 7 33 -7 0 -11 -3 -9 -7 7 -12 -36 -51 -48 -44 -7
4 -9 4 -5 -1 4 -4 3 -16 -3 -26 -11 -21 -50 -20 -57 1 -3 8 0 10 8 5 9 -5 11
-4 6 4 -4 6 2 25 14 41 16 23 25 28 35 20 9 -8 12 -4 10 14 -2 17 1 23 10 20
7 -3 16 0 20 5 9 15 27 3 19 -12 -4 -7 -3 -8 1 -4 17 15 13 36 -6 32 -23 -5
-25 8 -4 25 10 9 15 9 15 1 0 -6 4 -11 10 -11 5 0 7 7 4 15 -5 11 -2 13 10 9
11 -4 16 -2 14 6 -2 7 5 14 14 15 9 2 15 -2 14 -8 -2 -7 -1 -8 2 -4 2 5 12 1
21 -7 15 -14 18 -14 18 -2 0 8 -5 14 -10 13 -5 -1 -12 5 -15 13 -2 8 -1 12 3
8 4 -4 14 0 21 10 12 15 15 15 23 2 9 -12 11 -12 17 3 3 9 10 14 15 11 5 -3 6
-10 3 -16 -4 -7 -2 -8 4 -4 7 4 12 14 12 22 0 8 5 14 11 14 6 0 8 -8 5 -17 -6
-17 -5 -17 7 -1 8 10 23 16 35 13 12 -2 24 1 28 7 4 6 10 5 15 -3 7 -12 9 -12
9 0z m50 -14 c7 -9 8 -15 2 -15 -5 0 -12 7 -16 15 -3 8 -4 15 -2 15 2 0 9 -7
16 -15z m1197 2 c13 5 15 0 10 -28 -14 -86 -29 -145 -41 -157 -18 -18 -46 -4
-46 23 0 29 -13 39 -72 55 -27 7 -48 16 -48 20 0 4 -17 4 -37 1 -28 -5 -42 -3
-51 9 -10 10 -11 11 -6 1 5 -11 3 -13 -10 -8 -10 4 -24 -1 -36 -13 -20 -20
-23 -34 -22 -95 0 -47 2 -218 2 -237 0 -165 -1 -220 -1 -230 -1 -7 2 -34 6
-60 6 -37 5 -48 -6 -48 -8 0 -6 -5 6 -14 11 -8 25 -12 31 -9 7 2 15 0 18 -6 4
-6 14 -7 22 -4 10 4 15 1 14 -8 -1 -8 -2 -21 -1 -29 1 -13 2 -13 11 0 9 13 11
13 21 0 8 -11 12 -12 15 -3 4 10 8 10 18 1 14 -13 10 -48 -6 -48 -5 0 -7 10
-4 23 l6 22 -11 -22 c-11 -20 -20 -23 -76 -23 -44 0 -62 3 -57 11 4 8 0 7 -15
-1 -13 -6 -55 -10 -97 -9 -41 1 -77 -1 -80 -4 -8 -8 -57 11 -66 26 -11 17 -10
37 1 37 5 0 13 -9 16 -20 4 -11 11 -18 16 -14 6 3 16 0 24 -6 11 -10 15 -10
15 -1 0 7 6 9 13 5 9 -5 9 -4 0 6 -10 11 -9 16 4 25 14 11 14 12 0 12 -9 0
-19 -7 -22 -15 -4 -11 -8 -12 -20 -2 -12 10 -15 10 -15 -1 0 -11 -2 -11 -10 1
-12 18 -13 33 -2 26 16 -10 96 21 110 42 8 12 11 22 6 22 -11 0 -12 141 -1
158 5 7 4 12 -2 12 -20 0 -11 18 10 23 12 3 31 -1 44 -9 27 -18 38 -8 23 20
-6 11 -11 21 -11 21 0 0 5 11 12 24 7 13 8 21 3 17 -21 -13 -21 12 -1 38 22
28 19 47 -4 28 -7 -6 -25 -9 -40 -6 -16 2 -27 0 -27 -6 0 -6 4 -9 9 -5 5 3 12
1 16 -4 3 -6 13 -7 23 -4 16 6 15 5 -1 -11 -14 -15 -15 -21 -5 -35 10 -13 10
-14 -2 -3 -23 20 -35 14 -15 -8 10 -11 15 -20 10 -20 -4 0 -1 -8 6 -17 11 -15
11 -16 -1 -6 -9 8 -19 9 -31 3 -26 -15 -28 0 -31 243 -1 163 -5 217 -14 217
-7 0 -14 -6 -17 -12 -3 -10 -9 -10 -25 -1 -17 10 -20 10 -16 -1 4 -10 -12 -14
-76 -15 -44 -1 -87 -4 -96 -8 -8 -3 -24 -23 -35 -44 -19 -38 -40 -48 -66 -31
-9 5 -7 26 8 81 11 41 26 82 32 92 12 17 14 17 25 -2 9 -14 9 -19 0 -19 -6 0
-8 -3 -5 -6 4 -4 13 -2 20 4 8 7 17 9 21 5 4 -4 4 0 0 10 -10 26 30 22 50 -5
12 -16 16 -18 12 -5 -3 9 -1 17 4 17 9 0 14 -14 11 -32 -2 -12 14 -9 27 4 9 9
13 7 18 -5 3 -9 11 -17 17 -17 5 0 3 8 -6 18 -23 25 -22 27 13 28 29 2 37 -5
23 -19 -3 -4 -13 -1 -22 6 -14 11 -14 10 -2 -5 7 -10 17 -15 22 -12 5 3 9 0 9
-6 0 -8 6 -7 21 1 12 6 19 7 16 2 -4 -6 10 -10 29 -11 34 -1 36 0 30 23 -4 14
-2 25 4 25 5 0 10 -7 10 -15 0 -8 4 -15 10 -15 5 0 7 8 4 18 -5 16 -5 16 9 0
8 -10 17 -18 20 -18 4 0 4 8 0 18 -5 14 -3 13 10 -3 8 -11 13 -23 11 -27 -3
-5 0 -8 5 -8 14 0 14 6 1 31 -9 16 -7 19 9 19 11 0 23 -5 27 -11 4 -8 9 -7 15
2 7 11 9 11 9 -1 0 -13 1 -13 10 0 9 13 10 13 10 0 0 -13 1 -13 11 0 9 12 12
13 16 1 5 -11 7 -11 14 0 8 11 11 11 20 -4 10 -17 12 -17 29 -2 16 14 18 14
23 0 4 -8 12 -15 19 -14 10 0 10 2 1 6 -25 10 -12 18 32 20 27 2 45 -2 45 -9
0 -6 6 -5 17 3 15 12 16 12 10 -3 -4 -12 -2 -15 9 -11 7 3 15 9 15 14 1 9 4
20 9 37 1 4 4 2 6 -5 3 -7 12 -9 21 -6z m905 -9 c3 -20 -1 -47 -17 -108 -2 -8
-4 -16 -5 -17 -4 -5 -7 -22 -9 -43 -2 -35 -45 -26 -59 13 -8 23 -23 38 -49 50
-45 19 -141 32 -177 23 -55 -14 -55 -14 -50 -293 3 -142 4 -286 4 -320 -1 -57
2 -64 27 -80 15 -10 35 -16 46 -15 10 2 25 -5 34 -15 8 -10 12 -12 8 -5 -3 7
0 12 8 12 17 0 27 -21 27 -56 l0 -24 -194 0 c-157 0 -196 3 -206 15 -24 29 6
65 60 70 28 2 59 25 59 43 0 88 -1 347 -3 474 -2 201 2 196 -134 187 -111 -8
-144 -22 -161 -70 -10 -30 -18 -34 -45 -23 -22 8 -20 37 7 114 l23 65 57 1
c41 0 57 -3 57 -13 0 -17 17 -17 23 0 3 8 10 6 21 -8 12 -15 15 -16 10 -3 -5
15 4 17 93 16 75 -2 101 -5 111 -17 10 -14 11 -14 7 -1 -4 11 3 15 25 15 22 0
29 -4 25 -14 -4 -10 1 -9 15 4 13 12 20 14 20 5 0 -9 3 -10 14 -1 15 13 86 12
86 -1 0 -4 11 -4 23 1 13 5 52 8 86 7 34 -2 64 1 67 6 6 9 41 26 56 27 4 1 8
-9 10 -21z m723 -13 c19 -11 21 -22 19 -105 -1 -50 -5 -95 -10 -100 -16 -16
-57 14 -68 50 -25 81 -62 98 -202 95 -126 -3 -144 -12 -145 -68 -4 -193 -4
-239 2 -243 8 -4 105 -5 201 -1 64 3 69 4 102 42 34 38 36 39 48 20 7 -11 14
-42 14 -70 1 -27 4 -75 7 -104 9 -93 -23 -120 -64 -53 -33 52 -34 56 -13 48
15 -6 16 -5 7 5 -14 14 -16 15 -97 29 -33 6 -93 9 -135 8 l-75 -3 2 -145 c3
-186 1 -183 141 -182 155 0 270 48 283 117 4 24 47 33 59 13 9 -14 6 -33 -18
-123 -9 -33 -25 -70 -36 -82 -20 -23 -5 -22 -584 -11 -24 0 -48 7 -54 14 -15
18 -7 59 11 59 8 0 21 6 28 12 7 7 19 16 27 20 23 13 27 108 25 558 -1 46 -20
112 -39 128 -9 8 -28 17 -43 21 -29 7 -39 38 -17 51 6 4 66 8 134 9 69 1 128
5 132 10 13 12 336 -4 358 -19z m-3790 -20 c11 -19 15 -22 12 -10 -2 11 3 27
11 34 12 12 13 11 8 -6 -5 -14 -1 -23 10 -27 12 -4 15 -2 10 9 -4 10 1 14 17
12 30 -3 49 -20 33 -29 -7 -5 -4 -8 7 -8 10 0 16 -4 12 -9 -9 -15 15 -25 28
-12 9 9 8 11 -4 6 -9 -3 -16 -1 -16 7 0 7 -3 24 -6 38 -4 14 -4 19 -1 13 3 -7
10 -13 15 -13 6 0 7 5 4 10 -3 6 -1 10 4 10 13 0 15 -27 2 -32 -5 -1 1 -11 14
-20 23 -17 24 -17 22 1 -1 12 -6 17 -17 13 -12 -4 -12 -2 -3 8 7 7 17 9 25 4
7 -5 19 -9 27 -9 22 0 25 -23 4 -29 -13 -3 -12 -4 4 -3 24 2 103 -67 103 -91
0 -7 -5 -10 -12 -6 -7 4 -8 3 -4 -4 4 -6 13 -9 20 -6 18 7 30 -52 28 -141 -2
-79 -23 -161 -40 -157 -7 1 -11 -3 -10 -10 2 -6 -7 -17 -19 -23 -13 -7 -20
-15 -16 -18 3 -4 2 -7 -4 -7 -6 0 -28 -7 -49 -17 -41 -17 -129 -25 -177 -16
-22 4 -27 9 -22 24 5 13 2 19 -10 19 -9 0 -13 -5 -10 -10 4 -6 -9 -17 -28 -25
-34 -14 -35 -16 -33 -66 1 -28 -2 -53 -6 -56 -5 -2 -5 -10 -1 -16 4 -6 6 -24
5 -39 -1 -14 2 -30 8 -33 6 -4 8 -11 4 -16 -3 -5 -10 -7 -15 -3 -5 3 -16 1
-24 -6 -8 -6 -16 -7 -19 -2 -3 6 4 12 15 15 17 4 19 10 13 29 -4 13 -8 34 -9
48 -3 39 -5 44 -12 36 -11 -11 -10 -60 2 -69 5 -5 0 -6 -12 -2 -18 5 -21 3
-18 -14 5 -25 -2 -26 -26 -5 -16 15 -17 14 -12 -5 3 -11 10 -19 17 -18 6 1 10
-3 9 -10 -2 -8 4 -10 14 -6 12 5 15 2 10 -10 -4 -12 -1 -15 15 -12 12 3 24 8
27 13 9 12 65 6 57 -6 -2 -4 4 -8 14 -8 10 0 18 3 18 6 -2 21 6 18 32 -15 23
-28 27 -41 18 -46 -7 -4 -18 -3 -24 2 -8 7 -14 6 -19 -1 -7 -11 -256 -7 -288
6 -19 7 -24 34 -6 34 19 0 101 89 93 102 -7 11 -8 26 -5 88 1 11 6 20 11 20 6
0 9 -5 8 -12 -2 -7 2 -12 9 -13 17 0 28 -15 12 -16 -8 -1 -17 -1 -20 -1 -12 2
-3 -58 10 -70 11 -10 12 -10 7 0 -5 8 0 12 16 12 18 0 20 2 8 9 -8 6 -17 8
-21 5 -14 -8 -21 18 -9 29 9 9 11 9 7 1 -8 -14 20 -27 28 -14 4 6 0 10 -7 11
-11 0 -11 2 0 6 10 4 9 9 -4 24 -16 17 -7 28 10 12 10 -11 37 -12 30 -2 -3 5
-10 6 -16 3 -7 -4 -8 -2 -4 5 4 6 11 9 16 6 5 -3 11 -1 15 5 3 5 -1 10 -9 10
-9 0 -16 5 -16 12 0 6 -9 2 -21 -10 -11 -12 -25 -19 -31 -16 -6 4 -1 12 13 21
13 8 17 12 8 10 -9 -3 -16 1 -16 8 0 10 5 11 19 4 17 -9 22 -5 19 14 -1 5 3 6
9 2 17 -10 33 5 20 20 -6 7 -10 17 -9 21 3 22 -14 52 -27 47 -8 -3 -14 0 -14
7 0 6 -5 8 -12 4 -8 -5 -7 0 2 11 12 15 12 17 1 10 -10 -6 -12 -4 -6 6 5 8 6
12 2 9 -3 -3 -5 -7 -4 -10 0 -3 -5 -14 -10 -25 -9 -16 -8 -26 6 -44 12 -16 21
-20 25 -12 4 6 2 11 -5 11 -10 0 -10 3 -1 12 8 8 15 8 27 -2 15 -12 14 -15
-11 -28 -21 -11 -24 -16 -13 -24 11 -8 11 -9 -3 -5 -9 3 -19 -1 -22 -9 -8 -20
-22 -17 -22 5 0 12 6 17 16 14 10 -3 9 1 -4 11 -13 10 -15 16 -7 16 9 0 10 4
3 13 -5 6 -9 44 -8 82 1 39 0 75 -3 80 -3 6 -6 55 -7 111 -1 56 -4 106 -8 113
-4 6 -27 20 -51 31 -37 17 -44 24 -43 49 1 23 5 29 26 29 13 0 20 -3 15 -7 -8
-5 -9 -14 -4 -38 1 -5 5 -2 9 5 10 15 64 23 82 12 10 -6 6 -15 -16 -35 -16
-15 -22 -22 -12 -16 12 9 18 9 23 0 4 -6 2 -15 -5 -19 -9 -6 -10 -9 0 -15 7
-4 16 -2 20 6 7 10 11 10 23 0 10 -8 17 -9 22 -1 3 5 -1 10 -10 10 -10 0 -13
5 -9 12 4 6 3 8 -3 5 -6 -4 -19 0 -29 8 -18 15 -18 15 6 10 21 -5 26 -2 26 14
0 11 -4 18 -7 15 -4 -2 -10 -1 -12 3 -10 16 19 29 68 32 28 1 52 7 54 12 4 13
6 11 26 -26z m1415 25 c0 -5 -2 -10 -4 -10 -3 0 -8 5 -11 10 -3 6 -1 10 4 10
6 0 11 -4 11 -10z m2923 -5 c20 -3 37 -10 37 -15 0 -5 7 -7 15 -3 9 3 22 -2
29 -12 7 -10 19 -16 26 -13 14 4 70 -51 74 -74 2 -7 8 -26 15 -42 15 -38 17
-121 2 -172 -15 -56 -45 -92 -92 -111 -33 -13 -39 -19 -33 -37 4 -11 11 -24
17 -27 5 -4 6 -12 3 -18 -5 -7 -2 -10 6 -9 7 2 14 -4 14 -12 1 -8 3 -19 4 -25
1 -5 2 -13 1 -17 0 -4 6 -5 13 -2 13 5 33 -30 28 -48 -1 -4 9 -15 23 -24 14
-9 25 -23 25 -30 0 -8 6 -14 14 -14 8 0 26 -15 41 -32 15 -18 44 -47 66 -64
21 -17 36 -33 34 -36 -3 -2 5 -4 16 -4 12 1 26 -6 32 -16 23 -35 -35 -63 -81
-39 -9 5 -33 15 -52 22 -42 16 -197 170 -249 249 -20 30 -40 61 -46 67 -5 7
-23 30 -40 52 -38 50 -82 69 -112 47 -14 -9 -18 -157 -7 -240 6 -43 10 -48 56
-73 44 -24 49 -30 46 -57 l-3 -31 -151 -3 c-126 -2 -153 0 -164 13 -9 11 -10
18 -1 28 6 8 8 17 4 20 -3 4 7 7 24 7 17 0 38 8 48 20 10 11 15 20 11 20 -4 0
-4 5 0 11 6 10 6 384 0 565 -3 91 -14 112 -64 116 -25 2 -29 6 -30 36 l-1 33
54 -3 c32 -2 57 -8 60 -15 2 -7 10 -13 17 -12 10 0 10 2 1 6 -33 13 -5 21 74
22 47 1 89 3 91 6 5 5 17 4 105 -10z m-4532 -12 c13 -16 12 -17 -3 -4 -17 13
-22 21 -14 21 2 0 10 -8 17 -17z m1236 11 c-3 -3 -12 -4 -19 -1 -8 3 -5 6 6 6
11 1 17 -2 13 -5z m493 -4 c0 -5 -2 -10 -4 -10 -3 0 -8 5 -11 10 -3 6 -1 10 4
10 6 0 11 -4 11 -10z m100 0 c0 -5 -5 -10 -11 -10 -5 0 -7 5 -4 10 3 6 8 10
11 10 2 0 4 -4 4 -10z m30 0 c0 -5 -5 -10 -11 -10 -5 0 -7 5 -4 10 3 6 8 10
11 10 2 0 4 -4 4 -10z m24 -6 c3 -8 2 -12 -4 -9 -6 3 -10 10 -10 16 0 14 7 11
14 -7z m-1839 -4 c-3 -5 -11 -10 -16 -10 -6 0 -7 5 -4 10 3 6 11 10 16 10 6 0
7 -4 4 -10z m1352 -187 c5 3 9 -3 9 -13 0 -10 -4 -16 -10 -13 -5 3 -7 -5 -4
-20 4 -18 1 -24 -9 -20 -15 6 -14 33 2 46 6 5 3 7 -7 3 -10 -3 -20 -1 -23 4
-4 6 -1 10 5 10 6 0 8 5 4 11 -9 14 -25 -11 -17 -26 4 -5 2 -6 -3 -2 -5 5 -9
14 -9 20 -1 21 19 26 37 11 9 -9 21 -14 25 -11z m-27 -32 c3 -1 -2 -5 -10 -11
-9 -5 -19 -5 -27 2 -24 20 -13 2 14 -23 14 -13 23 -18 18 -11 -6 11 -3 12 12
3 14 -7 23 -7 31 1 9 9 15 9 25 -1 10 -11 9 -13 -4 -8 -9 3 -16 -1 -17 -9 -1
-8 -3 -21 -4 -29 -1 -8 -5 -12 -9 -9 -4 2 -10 0 -14 -6 -12 -19 -35 -10 -41
17 -4 15 -13 38 -20 52 -16 30 -10 42 19 37 12 -3 24 -5 27 -5z m1288 -49
c-10 -2 -18 -10 -18 -18 0 -8 -4 -14 -10 -14 -10 0 -14 62 -4 72 3 3 15 -4 27
-16 20 -19 20 -21 5 -24z m-58 8 c0 -5 -4 -10 -10 -10 -5 0 -10 5 -10 10 0 6
5 10 10 10 6 0 10 -4 10 -10z m-1165 -30 c3 -5 1 -10 -4 -10 -6 0 -11 5 -11
10 0 6 2 10 4 10 3 0 8 -4 11 -10z m70 -62 c4 -18 9 -69 11 -113 2 -62 -1 -84
-13 -97 -9 -10 -13 -18 -9 -18 4 0 -2 -13 -13 -29 -12 -16 -21 -33 -21 -39 0
-5 -6 -15 -14 -21 -10 -8 -16 -8 -25 3 -9 11 -8 15 5 20 9 4 14 9 10 13 -3 3
2 15 11 25 26 29 24 45 -3 42 -13 -1 -26 2 -30 7 -5 8 29 14 67 11 9 -1 16 6
16 14 0 10 -7 14 -20 10 -13 -3 -31 7 -55 30 -19 19 -33 37 -30 40 3 3 12 -1
20 -9 7 -8 25 -12 38 -11 21 3 22 2 8 -6 -17 -11 -14 -40 4 -40 6 0 8 7 4 15
-3 8 -2 14 2 14 19 -3 23 2 12 16 -9 11 -10 18 -1 29 17 20 23 58 8 49 -6 -4
-24 -7 -39 -8 -21 -1 -25 1 -17 11 6 7 16 11 23 8 8 -3 16 2 20 11 3 9 11 13
17 9 8 -4 9 -3 5 5 -4 6 -11 9 -16 6 -5 -3 -12 0 -16 6 -6 10 11 28 27 29 4 0
10 -15 14 -32z m-107 10 c-2 -8 5 -12 17 -10 16 2 17 1 5 -7 -8 -6 -10 -11 -5
-11 6 0 2 -5 -8 -11 -14 -8 -16 -14 -7 -24 7 -8 9 -19 5 -25 -4 -7 3 -9 20 -6
22 4 25 3 15 -9 -9 -10 -17 -12 -30 -5 -9 5 -20 7 -23 3 -9 -8 -38 17 -32 28
8 13 36 -1 28 -15 -3 -6 0 -5 8 2 12 11 11 15 -5 27 -18 13 -14 41 5 30 5 -4
9 -2 9 4 0 17 -18 22 -24 6 -8 -22 -21 -18 -23 6 -1 14 3 19 12 15 8 -3 17 -1
20 4 9 14 15 12 13 -2z m-728 -98 c0 -5 -4 -12 -10 -15 -5 -3 -10 -4 -10 -1 0
2 -3 12 -6 20 -5 12 -2 15 10 10 9 -3 16 -10 16 -14z m810 10 c0 -5 -4 -10
-10 -10 -5 0 -10 5 -10 10 0 6 5 10 10 10 6 0 10 -4 10 -10z m-85 -61 c-3 -4
1 -10 7 -12 10 -4 9 -8 -2 -16 -8 -6 -19 -10 -25 -10 -5 0 -4 3 3 6 6 2 9 9 6
15 -11 18 -23 -15 -13 -34 8 -14 6 -18 -8 -18 -15 0 -15 -2 -3 -9 8 -6 18 -7
22 -5 5 3 7 0 6 -8 -2 -7 5 -12 15 -12 9 1 17 -3 17 -10 0 -6 5 -4 10 4 6 9
10 10 10 3 0 -6 -5 -15 -10 -18 -6 -4 -7 -11 -4 -17 4 -7 2 -8 -5 -4 -6 4 -9
12 -6 17 6 9 -10 13 -51 11 -19 -1 -21 5 -21 46 0 26 4 55 9 66 8 14 7 17 -3
11 -9 -6 -11 -3 -6 9 4 10 7 23 7 29 0 6 11 0 25 -13 13 -12 22 -26 20 -31z
m-707 3 c-6 -7 -17 -11 -24 -8 -8 3 -11 0 -8 -9 3 -8 13 -12 22 -9 15 5 16 4
1 -7 -15 -11 -14 -14 3 -31 16 -16 22 -17 36 -7 9 7 4 0 -11 -15 -27 -27 -28
-29 -11 -47 14 -15 19 -17 26 -7 7 10 8 9 6 -2 -2 -8 2 -17 7 -19 6 -2 16 -12
23 -23 11 -15 17 -16 28 -7 7 6 11 16 7 21 -3 6 0 8 8 6 8 -3 13 -11 11 -18
-3 -11 0 -11 13 0 13 11 13 15 3 21 -7 5 -11 9 -8 10 3 0 12 2 20 4 11 2 17
-6 18 -22 1 -14 -2 -21 -8 -18 -13 8 0 -28 14 -37 16 -11 36 -10 36 2 0 5 -7
7 -15 4 -11 -4 -15 1 -15 17 0 21 3 20 40 -16 22 -22 39 -44 37 -50 -3 -6 16
-11 46 -11 28 -1 53 -7 55 -13 6 -17 42 -13 49 5 5 13 7 13 14 2 7 -11 11 -10
19 2 9 13 11 13 20 0 5 -8 10 -10 10 -4 0 7 9 14 21 17 16 4 19 2 14 -11 -3
-8 13 5 35 31 23 26 48 47 56 47 7 0 11 6 8 14 -3 8 2 28 11 45 18 35 30 41
20 10 -6 -18 -4 -19 12 -10 23 11 49 9 64 -6 7 -7 6 -12 -5 -16 -8 -3 -17 1
-20 9 -3 8 -11 14 -18 14 -9 0 -9 -3 2 -10 13 -9 13 -12 -1 -23 -14 -11 -15
-16 -4 -36 l12 -24 16 23 c9 13 14 27 11 32 -8 12 10 10 24 -4 17 -17 15 -41
-3 -35 -8 4 -17 1 -21 -5 -4 -7 -3 -8 4 -4 15 9 15 1 2 -25 -6 -10 -18 -19
-26 -19 -8 0 -13 4 -10 8 6 10 -3 22 -28 42 -16 12 -18 12 -11 1 6 -11 4 -13
-9 -8 -11 4 -15 3 -11 -4 4 -6 13 -8 20 -5 7 2 18 -7 24 -20 10 -23 8 -28 -21
-52 -53 -45 -110 -62 -225 -66 -58 -3 -113 0 -122 4 -9 5 -34 18 -56 28 -143
69 -167 83 -161 98 3 8 2 13 -3 10 -14 -9 -32 20 -24 39 5 14 3 16 -7 10 -9
-6 -11 -4 -5 5 6 10 4 12 -9 7 -13 -5 -17 -3 -13 7 3 8 -3 22 -13 31 -23 21
-33 56 -14 48 19 -7 18 2 -3 23 -10 9 -18 22 -20 28 -1 6 -4 21 -7 33 -4 17
-1 21 15 18 13 -3 19 2 19 13 0 14 2 15 10 2 6 -9 5 -19 -2 -28z m-628 22 c0
-8 -19 -13 -24 -6 -3 5 1 9 9 9 8 0 15 -2 15 -3z m40 -59 c11 -13 10 -14 -4
-9 -9 3 -16 10 -16 15 0 13 6 11 20 -6z m-66 -50 c-7 -16 -24 -21 -24 -6 0 8
7 13 27 20 1 1 0 -6 -3 -14z m1349 -110 c-12 -32 -23 -14 -14 23 1 2 5 1 11
-3 5 -3 7 -12 3 -20z m-1283 -60 c0 -2 -6 -5 -13 -8 -8 -3 -14 1 -14 8 0 7 6
11 14 8 7 -3 13 -6 13 -8z m2024 -24 c3 -5 -3 -11 -15 -14 -16 -4 -18 -3 -8 9
13 16 16 17 23 5z m232 -352 c4 -7 -9 -27 -30 -46 -44 -42 -48 -68 -8 -59 l27
7 -23 -16 c-44 -32 -65 0 -41 62 20 53 58 79 75 52z m192 -1 c32 -32 -1 -128
-43 -128 -49 0 -58 77 -15 120 23 23 41 25 58 8z m2309 -22 c4 -3 4 -8 1 -11
-2 -3 -189 -5 -414 -5 -1092 -1 -1264 0 -1264 10 0 15 1662 21 1677 6z m-3072
-16 c4 -6 -250 -11 -732 -12 -828 -3 -1088 0 -1058 12 29 12 1782 12 1790 0z
m-708 -299 c47 -22 68 -52 65 -96 -4 -52 -64 -95 -132 -95 -31 0 -31 0 -28
-47 3 -41 6 -48 28 -54 18 -4 8 -7 -33 -10 -33 -2 -61 -1 -64 4 -2 4 3 7 11 7
14 0 16 20 16 145 0 122 -2 145 -15 145 -8 0 -15 5 -15 10 0 18 122 11 167 -9z
m273 -3 c18 -13 36 -32 40 -43 10 -28 -15 -85 -40 -92 -11 -3 -20 -8 -20 -12
0 -19 105 -142 126 -147 13 -3 22 -10 19 -14 -7 -11 -45 0 -77 22 -15 11 -48
46 -73 79 -34 43 -53 59 -71 59 -22 0 -24 -4 -24 -47 0 -63 9 -91 29 -96 9 -3
-10 -5 -41 -6 l-58 -1 20 20 c18 18 20 33 20 135 0 101 -2 117 -19 134 -20 20
-20 20 22 24 98 9 114 7 147 -15z m248 11 c40 -1 50 -3 32 -8 -25 -7 -25 -7
-28 -144 -3 -135 -2 -138 20 -147 17 -6 5 -9 -47 -9 -38 1 -63 3 -55 6 34 12
40 36 40 160 0 122 0 123 -25 129 -14 3 -25 11 -25 16 0 6 7 7 16 4 9 -3 41
-6 72 -7z m234 5 c30 -5 37 -11 40 -36 3 -16 1 -31 -4 -34 -4 -3 -8 0 -8 5 0
6 -9 20 -20 31 -39 39 -120 16 -120 -34 0 -32 11 -43 70 -69 67 -30 91 -55 92
-98 1 -24 -6 -39 -26 -56 -25 -21 -37 -23 -102 -22 -61 1 -74 5 -74 18 0 9 -3
27 -7 41 -6 24 -5 24 23 -6 50 -53 133 -54 149 -3 11 33 -14 67 -62 85 -66 25
-93 50 -93 85 0 40 15 65 48 83 31 17 42 18 94 10z m198 -3 c0 -5 -9 -11 -20
-14 -19 -5 -20 -14 -20 -140 0 -129 1 -134 23 -145 18 -9 9 -11 -48 -11 -38 1
-63 3 -55 6 34 12 40 36 40 149 0 128 -4 143 -34 146 -11 1 8 4 44 8 36 4 66
7 68 8 1 1 2 -2 2 -7z m294 -5 c167 -70 116 -308 -65 -308 -63 0 -111 30 -138
86 -27 54 -27 102 0 146 48 78 127 108 203 76z m284 -110 c62 -61 117 -112
122 -114 11 -4 14 158 4 196 -4 13 -14 22 -25 22 -11 0 -19 5 -19 10 0 6 23
10 50 10 51 0 61 -8 35 -30 -12 -10 -15 -41 -15 -159 l0 -146 -39 45 c-21 25
-82 85 -135 134 l-96 88 0 -111 c0 -110 0 -110 28 -125 26 -15 26 -15 -33 -15
-33 0 -53 3 -45 6 27 10 30 26 30 146 0 104 -2 119 -20 137 -27 27 -25 31 13
23 23 -4 63 -36 145 -117z m448 108 c-3 -9 -6 -24 -6 -35 0 -10 -4 -19 -10
-19 -5 0 -10 8 -10 19 0 20 -26 31 -77 31 -57 0 -63 -7 -63 -71 l0 -59 60 0
c46 0 61 4 69 18 8 13 10 6 10 -33 0 -27 -3 -43 -6 -35 -9 24 -25 30 -80 30
l-53 0 0 -65 0 -65 65 0 c57 0 69 3 92 26 14 14 26 24 28 22 1 -2 -2 -18 -7
-35 l-9 -33 -122 0 c-88 1 -117 3 -104 11 15 9 17 27 17 145 0 119 -2 135 -17
142 -10 4 32 9 92 13 61 3 116 6 124 7 8 1 11 -4 7 -14z m161 2 c4 -3 -3 -6
-14 -6 -30 0 -33 -16 -33 -156 0 -120 1 -125 23 -134 16 -6 4 -9 -48 -9 -51 0
-64 3 -48 9 30 12 34 35 31 170 -3 111 -4 115 -26 118 -12 2 -20 6 -18 10 5 9
125 7 133 -2z m228 0 c62 -26 74 -88 25 -129 -16 -14 -30 -29 -30 -32 0 -19
97 -129 123 -140 37 -15 23 -25 -19 -14 -34 10 -91 62 -131 122 -18 25 -33 37
-49 37 -22 0 -24 -4 -24 -57 0 -61 6 -76 30 -86 8 -3 -12 -6 -45 -6 -45 0 -56
2 -42 10 15 9 17 27 17 145 0 119 -2 135 -17 142 -13 5 -5 9 27 13 77 10 100
9 135 -5z m396 -9 c58 -31 84 -76 83 -144 -2 -90 -69 -155 -163 -156 -61 -1
-105 24 -136 76 -45 77 -27 163 43 210 66 44 108 48 173 14z m-4061 -47 c0 -5
-5 -10 -11 -10 -5 0 -7 5 -4 10 3 6 8 10 11 10 2 0 4 -4 4 -10z m6074 -77 c-3
-58 -4 -59 -15 -40 -11 19 -3 80 10 73 4 -3 6 -17 5 -33z m-4635 -440 c-32
-158 -35 -183 -17 -165 20 20 32 13 13 -8 -23 -26 -45 -26 -52 0 -5 20 -5 20
-30 0 -51 -40 -70 -21 -53 50 13 56 57 110 88 110 16 0 23 10 31 50 15 71 14
93 -4 86 -8 -3 -15 -1 -15 4 0 6 15 10 33 10 l34 0 -28 -137z m937 114 l31 -2
-112 -140 c-62 -77 -111 -142 -109 -144 3 -3 50 -4 127 -2 36 1 54 7 72 26 28
27 33 14 13 -30 -7 -16 -17 -24 -26 -20 -7 3 -70 5 -139 5 l-126 0 44 48 c50
53 98 113 153 190 l38 52 -91 0 c-79 0 -94 -3 -112 -21 -26 -26 -32 -21 -19
17 l10 29 108 -3 c59 -1 121 -4 138 -5z m164 -5 c-24 -8 -30 -24 -30 -87 l0
-59 60 59 c60 60 71 79 48 88 -7 3 12 5 42 6 41 0 50 -2 33 -9 -12 -5 -51 -37
-88 -72 l-66 -63 62 -50 c33 -27 79 -65 101 -82 l41 -33 -54 0 c-30 0 -49 4
-42 8 14 9 -15 39 -94 100 l-43 33 0 -53 c0 -60 6 -74 35 -81 11 -2 -9 -5 -44
-6 -58 -1 -63 0 -46 13 17 12 20 28 21 131 2 132 -2 154 -25 157 -9 0 7 4 34
7 49 6 83 2 55 -7z m430 -123 c22 -58 40 -110 40 -116 0 -6 12 -22 26 -37 l27
-26 -53 0 c-46 0 -51 2 -40 15 11 13 10 23 0 55 l-13 40 -57 0 -57 0 -13 -41
c-13 -38 -12 -43 5 -55 17 -13 14 -14 -30 -14 l-48 0 21 23 c11 12 33 51 47
87 59 141 73 176 80 195 l7 20 9 -20 c4 -11 26 -68 49 -126z m298 108 c31 -28
29 -70 -4 -96 -15 -12 -22 -21 -16 -21 6 0 24 -12 41 -26 47 -39 42 -102 -10
-129 -37 -20 -202 -22 -176 -2 15 10 18 32 20 140 2 115 0 130 -17 142 -16 12
-12 14 40 17 74 5 93 1 122 -25z m231 -10 c23 -76 83 -224 102 -249 l20 -28
-53 0 c-45 0 -49 2 -34 13 17 12 17 15 1 55 l-17 42 -54 0 c-47 0 -56 -3 -63
-22 -22 -59 -22 -65 1 -76 20 -9 15 -11 -32 -11 -54 -1 -55 0 -33 17 13 9 34
46 49 82 14 36 34 83 44 105 10 22 23 57 31 77 14 42 24 41 38 -5z m478 33
c35 0 35 0 14 -17 -19 -17 -21 -30 -23 -161 l-3 -142 -34 42 c-33 41 -203 200
-219 206 -10 3 -15 -190 -5 -203 5 -6 19 -16 33 -22 22 -10 18 -12 -35 -12
-52 0 -58 1 -42 13 15 11 17 31 17 139 0 119 -1 127 -22 141 -22 16 -22 16 12
16 31 0 48 -13 150 -115 63 -63 119 -114 123 -115 4 0 6 46 5 102 -3 95 -5
103 -25 114 -24 11 -19 29 5 19 7 -3 30 -5 49 -5z m-2027 -14 c0 -14 35 -108
82 -221 11 -27 28 -55 37 -62 13 -10 7 -12 -39 -12 -41 0 -51 2 -38 9 15 9 15
14 1 55 l-15 45 -54 0 c-49 0 -55 -2 -69 -30 -21 -40 -19 -55 8 -68 19 -9 14
-11 -33 -11 -54 -1 -54 0 -34 17 17 14 76 141 125 270 9 24 29 30 29 8z m-357
-129 c6 -16 -19 -49 -55 -72 -33 -20 -39 -65 -10 -65 10 0 23 5 30 12 9 9 12
9 12 1 0 -17 -41 -43 -67 -43 -20 0 -23 5 -23 35 0 40 22 100 47 127 19 21 59
24 66 5z m1322 -396 c3 -5 1 -12 -4 -15 -5 -3 -11 1 -15 9 -6 16 9 21 19 6z
m50 -1 c3 -5 1 -10 -4 -10 -6 0 -11 5 -11 10 0 6 2 10 4 10 3 0 8 -4 11 -10z
m-80 -20 c3 -5 1 -10 -4 -10 -6 0 -11 5 -11 10 0 6 2 10 4 10 3 0 8 -4 11 -10z
m210 -35 c0 -19 -5 -35 -11 -34 -5 0 -8 7 -6 16 2 11 -1 14 -12 10 -12 -5 -16
0 -15 16 0 12 3 16 6 10 8 -20 23 -15 23 8 0 11 4 18 9 15 4 -3 7 -21 6 -41z
m-305 25 c0 -5 -2 -10 -4 -10 -3 0 -8 5 -11 10 -3 6 -1 10 4 10 6 0 11 -4 11
-10z m237 -22 c-3 -8 -6 -5 -6 6 -1 11 2 17 5 13 3 -3 4 -12 1 -19z m-447 -4
c0 -8 -5 -12 -10 -9 -6 4 -8 11 -5 16 9 14 15 11 15 -7z m-41 -45 c-11 -7 -11
-9 3 -9 9 0 19 -6 21 -12 3 -7 6 1 7 17 1 29 1 29 15 11 8 -11 15 -14 15 -8 0
7 15 12 38 11 30 0 33 -2 17 -9 -17 -7 -17 -9 -2 -9 9 -1 17 -8 17 -17 0 -8 5
-12 10 -9 6 4 8 10 5 15 -3 4 3 10 13 12 10 3 19 13 19 22 0 19 -13 21 -20 4
-3 -7 -6 -3 -6 10 -1 16 5 22 20 22 16 0 20 -6 19 -27 -1 -16 -2 -35 -1 -43 1
-13 2 -13 11 0 9 13 11 13 20 0 7 -11 10 -12 10 -2 0 8 6 12 12 10 7 -3 24 1
38 9 21 11 25 11 28 -2 6 -25 22 -17 22 10 l0 25 30 -32 29 -33 1 28 0 28 24
-25 c25 -28 45 -33 64 -14 9 9 12 9 12 0 0 -7 7 -12 15 -12 8 0 15 -7 15 -16
0 -8 5 -12 10 -9 6 4 8 11 5 16 -6 8 23 14 53 10 6 -1 12 3 12 8 0 7 8 7 25 1
14 -5 32 -7 41 -3 12 5 15 2 11 -13 -3 -10 -2 -37 3 -59 4 -22 8 -33 9 -25 1
20 51 23 51 3 0 -13 3 -13 15 -3 13 10 15 9 16 -11 l2 -24 4 23 c3 16 9 22 20
18 8 -3 19 -6 24 -6 5 0 9 -8 9 -17 0 -15 2 -16 10 -3 5 8 5 19 0 25 -6 7 -2
17 10 28 25 21 47 22 26 1 -20 -20 -20 -34 -1 -34 8 0 15 -6 16 -12 1 -7 5 -2
9 12 7 23 8 23 9 -9 1 -26 4 -32 17 -27 9 3 20 6 25 6 5 0 9 8 9 19 0 14 6 17
25 13 14 -2 25 -11 25 -19 0 -8 5 -11 11 -7 6 3 8 17 5 30 -4 14 -2 24 4 24 5
0 10 -7 10 -15 0 -9 7 -18 15 -21 10 -4 13 -15 10 -34 -3 -16 -1 -32 5 -35 6
-4 10 7 10 26 0 26 3 30 12 21 16 -16 33 -15 20 1 -7 8 -7 18 -2 27 5 9 5 19
-2 27 -8 10 -7 13 4 13 12 0 38 -51 38 -76 0 -5 -14 -18 -30 -28 -17 -9 -28
-22 -24 -27 4 -6 13 -4 24 6 22 20 40 12 33 -14 -3 -11 0 -28 6 -38 10 -17 10
-16 11 5 0 22 15 31 22 12 2 -6 15 -4 32 5 16 9 32 13 35 9 10 -10 -43 -44
-61 -38 -24 7 -23 1 4 -29 l23 -25 12 26 c10 24 11 25 12 5 1 -16 6 -20 21
-16 23 6 27 23 5 23 -8 0 -15 5 -15 10 0 14 11 12 33 -4 10 -8 17 -20 16 -28
-3 -27 1 -38 16 -38 8 0 15 -7 15 -15 0 -8 8 -16 18 -16 9 -1 24 -2 32 -3 8 0
14 -9 14 -18 -1 -9 4 -14 11 -12 7 3 15 -5 18 -18 7 -27 93 -102 101 -89 4 5
-14 22 -39 38 -25 15 -45 34 -45 41 0 8 13 4 37 -12 20 -14 40 -23 44 -20 5 3
11 -7 15 -21 7 -29 20 -33 27 -7 3 9 5 2 6 -16 1 -19 9 -39 21 -49 14 -12 16
-19 8 -24 -17 -11 19 -49 46 -49 21 -1 21 -1 1 -12 -11 -7 -28 -21 -37 -33
l-17 -21 -89 22 c-58 15 -100 20 -118 15 -27 -7 -27 -7 17 -23 70 -25 209 -68
220 -68 5 0 9 7 9 16 0 20 80 95 93 87 6 -3 7 -1 3 5 -3 6 -2 13 4 17 6 4 10
-11 10 -39 0 -43 2 -46 27 -46 14 0 24 -3 20 -6 -3 -4 0 -13 8 -20 7 -8 11
-22 9 -31 -5 -21 3 -34 31 -49 11 -7 19 -19 17 -28 -2 -9 2 -16 8 -16 26 0 5
-21 -42 -43 -50 -23 -75 -32 -173 -56 -32 -8 -22 -9 50 -5 74 5 99 11 141 35
l51 28 22 -23 c11 -12 21 -28 21 -34 0 -7 5 -12 10 -12 6 0 10 -6 10 -14 0 -8
7 -16 15 -20 8 -3 15 -13 15 -23 0 -10 14 -32 30 -50 17 -18 35 -42 40 -55 16
-37 33 -61 68 -97 19 -18 30 -36 25 -40 -5 -3 0 -22 10 -41 l18 -35 -4 58 c-5
64 1 75 26 46 19 -21 22 -33 7 -24 -17 10 -17 -129 0 -150 7 -9 14 -68 11
-102 -1 -7 -8 -10 -16 -7 -8 4 -15 1 -15 -5 0 -6 7 -11 15 -11 8 0 15 -7 15
-16 0 -10 -6 -14 -15 -10 -9 3 -15 0 -15 -9 0 -8 5 -15 11 -15 5 0 8 -4 4 -9
-3 -5 -1 -12 4 -15 5 -4 8 -18 6 -32 -1 -14 5 -32 14 -41 12 -12 13 -17 3 -21
-6 -2 -12 -8 -12 -13 0 -6 5 -7 10 -4 6 3 10 -1 10 -10 0 -8 7 -18 15 -21 8
-4 15 -15 15 -25 0 -24 -20 -25 -21 -1 -1 16 -2 16 -6 0 -2 -10 -9 -18 -14
-18 -5 0 -9 -4 -9 -10 0 -5 7 -7 16 -3 9 3 20 0 25 -8 13 -20 11 -35 -2 -22
-14 14 -39 6 -39 -12 0 -8 9 -10 25 -7 18 3 25 0 25 -12 0 -9 5 -16 10 -16 6
0 10 10 10 22 0 12 3 18 7 15 3 -4 12 -2 18 3 10 8 14 3 17 -20 5 -36 -6 -48
-21 -23 -9 16 -10 14 -11 -9 0 -18 5 -28 15 -28 8 0 15 -5 15 -11 0 -18 -35
-5 -45 18 -11 25 -45 38 -45 17 0 -8 4 -14 9 -14 10 0 24 -30 17 -37 -2 -3
-14 0 -25 7 -12 6 -21 7 -21 2 0 -6 10 -13 23 -17 l22 -8 -22 -4 c-24 -5 -32
-23 -10 -23 9 0 9 -2 0 -8 -7 -4 -12 -24 -11 -45 1 -20 5 -34 9 -32 4 3 9 -2
13 -10 3 -8 12 -15 21 -15 8 0 15 -4 15 -10 0 -5 -9 -10 -19 -10 -11 0 -22 -6
-24 -12 -3 -7 -6 0 -6 16 -2 51 -10 24 -16 -54 -7 -80 -11 -94 -26 -85 -14 9
-11 -5 6 -22 8 -8 13 -19 10 -24 -6 -9 14 -14 48 -11 11 1 17 -3 14 -10 -2 -7
-9 -12 -15 -11 -13 3 -24 -25 -12 -32 5 -3 18 5 29 17 18 19 21 19 21 4 0 -10
5 -14 11 -11 6 4 8 13 5 21 -3 8 -1 14 4 14 5 0 13 -18 16 -40 4 -22 10 -38
14 -35 4 2 5 16 2 30 -3 20 -1 24 12 19 9 -3 16 -1 16 5 0 6 -5 11 -11 11 -5
0 -7 5 -4 10 10 16 33 12 38 -7 3 -11 5 -7 6 10 1 24 21 41 21 17 0 -17 18
-11 23 8 3 9 5 1 6 -17 1 -26 4 -32 12 -24 8 8 16 6 31 -9 11 -11 26 -17 34
-14 8 3 14 2 14 -3 0 -14 -44 -21 -52 -8 -5 8 -8 8 -8 1 0 -6 10 -18 22 -26
13 -9 18 -19 14 -27 -6 -9 -11 -9 -22 0 -12 10 -14 4 -14 -37 0 -31 3 -44 9
-35 5 7 6 22 4 32 -3 10 -1 19 5 19 6 0 12 -15 14 -32 l4 -33 11 25 c8 16 12
19 12 9 1 -9 10 -19 22 -22 16 -4 19 -11 14 -26 -4 -12 -2 -21 4 -21 6 0 11
16 11 35 0 30 2 34 14 23 8 -7 11 -17 8 -23 -4 -5 -6 -19 -7 -30 0 -15 -8 -21
-32 -23 -25 -2 -33 -8 -33 -23 0 -10 5 -19 10 -19 6 0 10 7 10 16 0 8 5 12 10
9 6 -4 8 -11 4 -16 -3 -5 0 -8 7 -7 8 2 13 -9 15 -29 1 -18 -2 -31 -6 -28 -4
2 -19 -1 -33 -8 -21 -9 -26 -18 -25 -41 1 -15 8 -31 15 -33 7 -3 13 -12 13
-20 0 -13 -3 -13 -15 -3 -9 7 -18 10 -22 6 -3 -3 -1 -6 6 -6 7 0 9 -5 6 -10
-3 -6 1 -13 9 -16 9 -3 16 -13 16 -22 0 -13 -6 -10 -25 10 -14 15 -25 33 -25
41 0 17 -49 63 -75 71 -11 3 -34 7 -52 10 -22 2 -45 18 -75 50 -26 27 -53 46
-66 46 -12 0 -22 5 -22 10 0 6 -7 10 -15 10 -9 0 -18 7 -22 16 -5 13 -7 13
-14 2 -7 -10 -9 -10 -9 0 0 7 -6 12 -12 11 -18 -3 -49 12 -72 33 -20 18 -32
21 -71 19 -11 0 -14 2 -8 5 9 4 4 13 -15 29 -15 13 -38 48 -52 77 -21 46 -32
58 -68 73 -46 19 -129 83 -198 153 -33 33 -49 42 -76 42 -25 0 -57 15 -118 56
-47 31 -91 61 -98 67 -8 6 -41 10 -74 9 -42 -1 -71 4 -99 18 -21 11 -49 20
-61 20 -24 0 -126 -33 -161 -52 -10 -5 -40 -7 -65 -3 -43 6 -48 10 -64 46 -13
30 -24 41 -47 45 -17 4 -31 12 -31 18 0 7 -25 34 -55 61 -41 37 -53 54 -49 69
3 12 -2 30 -10 41 -14 19 -15 19 -29 -14 l-14 -33 -6 31 c-5 25 -12 31 -32 31
-21 0 -25 -5 -26 -32 l-1 -33 -10 33 c-6 17 -15 32 -19 32 -5 0 -9 11 -9 24 0
17 -14 36 -43 60 -42 34 -67 84 -72 141 -1 11 -5 44 -9 73 l-8 53 -37 -3 c-29
-2 -36 -7 -36 -25 0 -36 -15 -39 -27 -5 -10 27 -18 32 -44 32 -18 0 -34 4 -36
8 -2 6 -78 68 -97 79 -2 1 7 11 20 22 l24 20 -32 33 c-18 19 -33 41 -33 51 0
9 -12 23 -27 31 -32 16 -87 80 -97 114 -4 12 -13 22 -21 22 -7 0 -25 15 -40
33 -32 38 -234 246 -257 265 -13 11 -20 5 -48 -38 -18 -28 -48 -63 -66 -77
-19 -14 -34 -30 -34 -37 0 -6 -21 -34 -48 -62 -26 -27 -54 -60 -62 -72 -9 -14
-25 -22 -42 -22 -25 0 -28 -4 -28 -32 -1 -35 -45 -95 -87 -117 -13 -6 -23 -18
-23 -25 0 -7 -14 -30 -30 -51 l-30 -38 49 -36 49 -36 1 -102 c2 -133 -16 -285
-35 -299 -9 -7 -14 -31 -14 -70 0 -32 -3 -82 -6 -110 l-6 -51 -82 32 c-44 18
-105 36 -134 40 l-53 7 7 90 c6 86 6 90 -12 80 -11 -6 -32 -25 -47 -41 -16
-17 -40 -34 -53 -37 -13 -3 -24 -11 -24 -16 0 -6 11 -7 25 -4 29 7 32 1 10
-21 -9 -8 -23 -12 -31 -9 -37 14 -158 35 -168 29 -6 -4 -30 -22 -54 -41 -42
-35 -43 -36 -37 -86 3 -28 14 -67 24 -87 11 -20 16 -41 12 -48 -4 -6 -4 -37 0
-69 5 -31 7 -85 4 -119 -2 -36 0 -63 5 -63 6 0 10 -7 10 -16 0 -23 42 -94 55
-94 7 0 20 -9 30 -20 10 -11 23 -20 29 -20 6 0 22 -10 36 -23 14 -13 39 -31
57 -42 22 -13 35 -31 44 -62 7 -26 28 -60 53 -86 22 -23 55 -68 71 -100 17
-31 40 -68 52 -81 21 -23 22 -33 19 -116 -2 -51 -9 -97 -16 -105 -7 -8 -28
-15 -47 -15 -27 0 -34 -3 -29 -15 3 -8 1 -15 -4 -15 -6 0 -10 7 -10 15 0 8 -9
15 -21 15 -11 0 -18 3 -16 8 3 4 1 16 -4 27 -6 17 -8 17 -8 3 -1 -10 -8 -18
-16 -18 -8 0 -15 -6 -15 -14 0 -10 -10 -14 -32 -13 -29 2 -33 -1 -33 -24 0
-20 -4 -25 -17 -21 -13 3 -17 -2 -16 -27 1 -38 18 -53 18 -16 0 46 17 17 18
-30 1 -38 -2 -45 -18 -45 -10 0 -25 -6 -32 -12 -7 -7 -24 -14 -38 -15 -14 -1
-18 0 -7 3 9 3 17 12 17 20 0 8 8 14 18 15 9 0 2 5 -17 10 -41 12 -46 8 -44
-41 1 -22 -2 -40 -8 -40 -5 0 -9 4 -9 9 0 5 -18 0 -40 -11 -43 -21 -89 -18
-111 8 -6 8 -20 14 -30 14 -18 0 -23 10 -20 38 1 6 -3 12 -9 12 -6 0 -8 -4 -5
-10 3 -5 -1 -10 -9 -10 -10 0 -14 9 -13 27 2 22 -3 29 -20 31 -16 2 -23 -2
-24 -15 -1 -17 -2 -17 -6 0 -6 21 -23 23 -23 2 0 -11 -7 -14 -25 -9 -30 8 -34
-12 -4 -21 12 -4 30 -16 41 -27 20 -20 20 -20 -4 -13 -12 4 -38 16 -57 27 -21
12 -43 17 -58 13 -19 -4 -23 -1 -24 17 -1 13 -1 27 0 31 1 5 -3 6 -9 2 -6 -4
-8 -15 -5 -26 8 -26 4 -24 -36 11 -32 28 -33 30 -11 30 15 0 21 -4 16 -12 -4
-7 -3 -8 4 -4 6 4 9 13 5 21 -7 20 4 19 38 -6 24 -17 29 -18 29 -5 0 9 -7 16
-15 16 -8 0 -15 7 -15 15 0 21 16 19 40 -7 11 -12 20 -16 20 -9 0 7 -15 25
-32 42 -24 22 -28 29 -15 29 18 0 57 -34 57 -50 0 -15 16 -12 34 5 18 19 26
19 26 1 0 -8 -7 -16 -15 -20 -17 -6 -21 -46 -4 -46 6 0 8 7 5 16 -4 12 -1 14
14 9 15 -5 18 -3 14 9 -4 9 -1 16 6 16 7 0 19 8 26 18 8 10 13 12 14 5 0 -7 5
-13 10 -13 17 0 -23 48 -44 54 -10 2 -15 10 -11 15 3 6 11 9 16 6 5 -4 9 -1 9
4 0 6 -4 11 -10 11 -5 0 -10 7 -10 16 0 8 5 12 10 9 6 -3 10 -3 10 0 0 10 -28
35 -39 35 -6 0 -11 7 -11 15 0 8 -4 15 -10 15 -16 0 -12 -15 10 -40 22 -26 27
-64 8 -57 -7 2 -12 12 -12 21 2 18 -5 20 -26 6 -10 -6 -11 -10 -2 -10 6 0 12
-7 12 -15 0 -8 7 -15 15 -15 8 0 15 -7 15 -15 0 -9 -6 -12 -15 -9 -9 4 -15 0
-15 -10 0 -17 -15 -22 -24 -7 -4 5 0 11 6 14 10 4 10 8 0 23 -7 11 -15 27 -18
37 -4 9 -10 17 -15 17 -5 0 -9 7 -9 16 0 13 3 14 14 4 11 -8 20 -9 33 -1 16 9
16 10 2 11 -17 0 -36 30 -20 30 5 0 12 -6 14 -12 5 -12 7 3 11 64 2 31 16 31
16 0 0 -31 27 -75 41 -67 4 3 12 -2 19 -10 15 -18 40 -20 40 -4 0 6 -7 9 -15
5 -9 -3 -15 0 -15 9 0 8 -6 15 -14 15 -8 0 -16 7 -20 15 -3 8 -1 15 4 15 6 0
10 -4 10 -10 0 -5 9 -10 21 -10 18 0 16 4 -13 27 -18 15 -35 29 -38 31 -3 3 1
7 8 9 20 8 13 25 -8 18 -23 -7 -43 2 -34 16 4 6 11 6 20 -2 24 -20 15 5 -11
30 l-25 23 0 -71 c0 -45 -4 -71 -11 -71 -6 0 -8 7 -5 16 8 20 -2 56 -14 49 -9
-6 -21 20 -13 29 4 3 12 1 20 -5 10 -9 12 -5 9 22 -2 19 -4 40 -5 47 0 7 -6
10 -11 7 -6 -4 -10 6 -10 23 0 18 -6 32 -16 36 -10 4 -13 13 -9 26 3 11 2 20
-4 20 -6 0 -7 14 -4 35 3 22 1 41 -8 51 -10 13 -10 17 1 24 12 7 11 10 -3 16
-12 4 -17 17 -17 44 0 21 -6 41 -12 44 -10 5 -10 7 1 12 10 5 10 8 2 14 -7 4
-13 17 -14 28 -1 12 -5 22 -9 22 -4 0 -8 7 -8 15 0 8 -5 15 -10 15 -6 0 -8 11
-6 25 3 14 0 25 -5 25 -5 0 -9 18 -9 40 0 22 5 40 10 40 16 0 12 27 -6 34 -8
3 -12 11 -8 17 3 6 0 15 -7 20 -10 6 -11 9 -1 9 17 0 15 27 -3 34 -8 3 -15 13
-15 21 0 9 5 13 11 9 6 -3 15 0 20 7 6 10 9 6 9 -13 0 -16 5 -28 10 -28 6 0
10 7 10 15 0 8 6 15 13 16 9 0 9 2 0 6 -7 2 -13 11 -13 18 0 8 -9 19 -21 25
-16 9 -19 18 -15 36 5 17 2 23 -6 22 -8 -2 -14 11 -16 35 -2 20 -7 37 -13 37
-5 0 -9 8 -8 18 0 10 3 12 6 5 2 -7 9 -13 14 -13 14 0 11 28 -3 33 -8 3 -5 6
6 6 12 1 16 6 12 17 -3 9 -6 21 -6 27 0 6 -7 2 -16 -9 -14 -17 -15 -17 -10 -1
3 10 6 23 6 28 0 5 10 9 22 9 l22 0 -22 16 c-27 19 -29 38 -2 31 22 -6 28 8 8
16 -10 4 -10 8 1 15 10 7 10 14 2 30 -8 15 -8 28 0 49 7 15 13 46 14 68 4 56
3 55 21 55 12 0 15 6 11 20 -4 17 -2 20 14 15 23 -8 24 2 2 27 -15 17 -15 18
7 18 19 0 21 3 12 12 -27 27 -9 37 22 13 15 -11 16 -17 8 -28 -11 -13 -7 -27
8 -27 14 0 8 61 -6 67 -9 3 -14 13 -11 24 3 10 -2 20 -12 24 -14 6 -14 7 2 16
9 6 15 14 12 20 -4 5 -2 9 4 9 5 0 12 -6 15 -12 4 -7 4 2 1 20 -3 25 -1 32 11
32 10 0 14 -6 11 -15 -4 -8 -2 -17 3 -20 6 -4 10 5 10 19 0 14 -6 26 -12 26
-10 0 -10 2 0 9 7 4 12 12 11 17 -4 21 2 34 16 34 9 0 15 9 15 25 0 14 6 28
14 31 8 3 17 25 21 50 4 31 11 44 23 45 15 1 15 2 1 6 -11 2 -18 17 -21 39 -5
39 9 46 18 9 7 -27 34 -35 34 -9 0 8 -4 13 -9 9 -5 -3 -11 5 -13 17 -2 14 -9
22 -18 20 -12 -3 -13 -1 -2 10 11 11 16 10 29 -7 15 -19 15 -19 11 8 -3 15 -1
27 3 27 5 0 9 9 9 19 0 23 48 79 147 174 60 58 71 73 67 95 -3 20 -2 23 5 12
5 -8 7 -18 5 -22 -3 -4 -1 -8 4 -8 17 0 21 28 6 40 -8 7 -14 16 -14 21 0 11
33 -1 42 -15 4 -6 10 -7 14 -4 4 4 -7 20 -25 35 -17 15 -31 31 -31 35 0 13 20
9 36 -7 19 -19 34 -19 34 0 0 8 9 19 20 25 22 12 28 42 8 39 -27 -3 -38 2 -38
17 0 12 3 14 13 6 14 -12 31 -4 40 18 4 12 6 11 6 -2 1 -21 17 -24 24 -5 4 9
8 8 16 -3 9 -12 11 -10 11 10 1 24 1 24 15 6 8 -11 15 -14 15 -8 0 19 -37 51
-47 41 -5 -5 -10 5 -11 24 -1 26 0 29 9 15 5 -10 17 -18 24 -18 8 0 15 -4 15
-10 0 -5 8 -10 18 -10 14 0 14 2 3 9 -8 5 -11 16 -7 26 6 16 8 17 25 1 21 -19
31 -12 31 22 0 19 3 22 13 13 8 -6 17 -8 20 -4 4 3 14 0 23 -8 13 -11 15 -11
14 2 -5 33 0 48 15 43 9 -4 15 0 15 10 0 10 -6 13 -15 10 -11 -5 -15 0 -14 17
0 13 3 18 6 11 4 -10 8 -9 17 3 7 10 28 18 51 18 33 2 40 6 46 27 l7 25 2 -25
1 -25 10 25 c8 20 12 22 19 10 5 -8 10 -10 10 -4 0 5 -5 15 -12 22 -15 15 -3
16 23 1 14 -7 18 -16 14 -30 -4 -11 -2 -19 4 -19 6 0 11 5 11 10 0 6 7 10 16
10 8 0 12 -4 9 -10 -3 -5 3 -10 13 -10 11 0 22 7 26 15 3 8 12 12 21 9 8 -3
15 -1 15 5 0 6 -9 11 -19 11 -11 0 -22 6 -24 13 -3 6 -6 -1 -7 -18 -1 -29 -1
-29 -15 -11 -11 14 -12 22 -4 27 6 4 8 12 5 18 -9 14 -4 14 28 1 17 -6 26 -6
26 0 0 6 7 10 15 10 11 0 15 11 15 40 0 23 5 40 11 40 6 0 9 -9 6 -20 -3 -13
0 -20 10 -20 8 0 11 5 8 10 -3 6 3 10 14 10 12 0 21 -7 21 -15 0 -8 7 -15 15
-15 7 0 19 -8 24 -17 9 -16 10 -16 11 4 0 12 -8 27 -17 33 -14 8 -11 9 16 5
30 -5 32 -4 17 10 -9 9 -16 21 -16 26 0 13 18 11 22 -2 2 -6 15 0 28 15 25 26
50 34 50 16 0 -5 7 -10 15 -10 8 0 15 -5 15 -11 0 -5 5 -7 10 -4 8 5 8 11 0
20 -8 10 -4 14 20 17 27 4 30 2 30 -24 0 -17 4 -27 10 -23 6 3 10 17 10 31 0
40 20 17 22 -24 1 -37 1 -37 8 8 5 31 7 36 8 17 2 -31 22 -28 22 4 0 30 20 22
21 -8 0 -27 1 -27 14 7 l13 35 3 -35 c2 -31 2 -32 6 -7 4 27 23 39 23 15 1 -7
7 -2 15 12 8 14 14 19 15 13 0 -19 38 -16 49 5 7 11 13 13 18 6 11 -14 73 -26
73 -14 0 6 -5 10 -11 10 -5 0 -7 5 -4 10 11 18 25 10 25 -15 0 -14 5 -25 10
-25 6 0 9 3 9 8 -1 4 -1 16 0 27 2 18 3 18 12 -3 5 -13 7 -28 3 -33 -3 -5 0
-9 5 -9 6 0 11 16 11 35 l0 35 21 -21 c17 -17 19 -23 8 -30z m68 29 c-3 -8 -6
-5 -6 6 -1 11 2 17 5 13 3 -3 4 -12 1 -19z m53 18 c0 -3 -4 -8 -10 -11 -5 -3
-10 -1 -10 4 0 6 5 11 10 11 6 0 10 -2 10 -4z m130 -18 c0 -18 -2 -20 -9 -8
-6 8 -7 18 -5 22 9 14 14 9 14 -14z m338 -3 c0 -14 -4 -25 -9 -25 -10 0 -11
12 -3 34 9 22 12 20 12 -9z m-981 -7 c-3 -8 -6 -5 -6 6 -1 11 2 17 5 13 3 -3
4 -12 1 -19z m68 12 c3 -5 1 -10 -4 -10 -6 0 -11 5 -11 10 0 6 2 10 4 10 3 0
8 -4 11 -10z m787 -15 c3 -13 1 -22 -3 -19 -9 5 -13 44 -5 44 2 0 6 -11 8 -25z
m-912 5 c0 -5 -2 -10 -4 -10 -3 0 -8 5 -11 10 -3 6 -1 10 4 10 6 0 11 -4 11
-10z m-260 -4 c0 -3 -4 -8 -10 -11 -5 -3 -10 -1 -10 4 0 6 5 11 10 11 6 0 10
-2 10 -4z m1227 -28 c-3 -7 -5 -2 -5 12 0 14 2 19 5 13 2 -7 2 -19 0 -25z
m703 2 c0 -5 -4 -10 -10 -10 -5 0 -10 5 -10 10 0 6 5 10 10 10 6 0 10 -4 10
-10z m-3606 -56 c-6 -25 -8 -26 -20 -10 -10 14 -10 24 -2 42 10 21 13 22 20
10 5 -8 6 -27 2 -42z m1796 46 c0 -5 -2 -10 -4 -10 -3 0 -8 5 -11 10 -3 6 -1
10 4 10 6 0 11 -4 11 -10z m1420 0 c0 -5 -5 -10 -11 -10 -5 0 -7 5 -4 10 3 6
8 10 11 10 2 0 4 -4 4 -10z m60 0 c0 -5 -6 -10 -14 -10 -8 0 -18 5 -21 10 -3
6 3 10 14 10 12 0 21 -4 21 -10z m-140 -10 c0 -5 -4 -10 -10 -10 -5 0 -10 5
-10 10 0 6 5 10 10 10 6 0 10 -4 10 -10z m461 -10 c6 0 7 -5 4 -10 -5 -8 -11
-8 -19 -1 -7 6 -16 8 -19 4 -4 -3 -7 -1 -7 6 0 8 6 11 16 7 9 -3 20 -6 25 -6z
m-1994 -42 c-3 -8 -6 -5 -6 6 -1 11 2 17 5 13 3 -3 4 -12 1 -19z m1528 -6 c-3
-3 -11 0 -18 7 -9 10 -8 11 6 5 10 -3 15 -9 12 -12z m55 8 c0 -5 -2 -10 -4
-10 -3 0 -8 5 -11 10 -3 6 -1 10 4 10 6 0 11 -4 11 -10z m133 -5 c-3 -9 -8
-14 -10 -11 -3 3 -2 9 2 15 9 16 15 13 8 -4z m144 -7 c1 -11 8 -25 15 -31 9
-6 8 -7 -5 -3 -10 3 -21 6 -23 6 -2 0 -4 11 -4 25 0 31 15 34 17 3z m134 12
c5 0 9 -7 9 -15 0 -20 -6 -19 -32 7 -17 17 -18 20 -4 15 10 -4 22 -7 27 -7z
m-201 -10 c0 -5 -4 -10 -10 -10 -5 0 -10 5 -10 10 0 6 5 10 10 10 6 0 10 -4
10 -10z m-1754 -23 c4 -4 -5 -7 -19 -7 -15 0 -27 4 -27 10 0 11 35 8 46 -3z
m1924 -7 c0 -5 -7 -10 -15 -10 -8 0 -15 5 -15 10 0 6 7 10 15 10 8 0 15 -4 15
-10z m40 -85 c0 -8 -4 -15 -10 -15 -5 0 -10 7 -10 15 0 8 5 15 10 15 6 0 10
-7 10 -15z m-2298 -107 c-15 -15 -26 -4 -18 18 5 13 9 15 18 6 9 -9 9 -15 0
-24z m2430 -3 c7 0 14 -8 16 -17 2 -10 -1 -18 -7 -18 -6 0 -11 5 -11 10 0 6
-7 10 -15 10 -9 0 -15 9 -15 23 0 18 2 19 10 7 5 -8 15 -15 22 -15z m1848 1
c0 -8 10 -17 23 -19 l22 -4 -22 -8 c-13 -4 -23 -14 -23 -21 0 -19 -19 -18 -27
2 -3 9 -15 20 -27 24 -21 9 -21 9 2 9 12 1 25 8 28 16 8 19 24 20 24 1z
m-1770 -41 c-7 -9 -15 -13 -17 -11 -7 7 7 26 19 26 6 0 6 -6 -2 -15z m-2694
-38 c4 -4 -2 -7 -14 -7 -12 0 -22 4 -22 9 0 10 26 9 36 -2z m-176 -147 c0 -11
-4 -20 -9 -20 -5 0 -7 9 -4 20 3 11 7 20 9 20 2 0 4 -9 4 -20z m3080 -6 c0 -8
-5 -12 -10 -9 -6 4 -8 11 -5 16 9 14 15 11 15 -7z m-3053 -26 c-3 -8 -6 -5 -6
6 -1 11 2 17 5 13 3 -3 4 -12 1 -19z m3077 -8 c-6 -6 -10 -3 -10 10 0 13 4 16
10 10 7 -7 7 -13 0 -20z m-3117 -36 c-3 -3 -12 -4 -19 -1 -8 3 -5 6 6 6 11 1
17 -2 13 -5z m33 -24 c0 -5 -7 -7 -15 -4 -8 4 -15 8 -15 10 0 2 7 4 15 4 8 0
15 -4 15 -10z m-27 -49 c-6 -24 -50 -46 -50 -25 0 8 9 14 19 14 12 0 18 7 18
21 0 11 4 18 9 15 5 -3 7 -14 4 -25z m3512 -281 c3 -5 -1 -10 -10 -10 -9 0
-13 5 -10 10 3 6 8 10 10 10 2 0 7 -4 10 -10z m135 -170 c0 -5 -4 -10 -10 -10
-5 0 -10 5 -10 10 0 6 5 10 10 10 6 0 10 -4 10 -10z m2 -68 c-16 -4 -34 17
-25 31 3 4 13 0 23 -10 14 -15 15 -19 2 -21z m-68 12 c4 -10 1 -14 -6 -12 -15
5 -23 28 -10 28 5 0 13 -7 16 -16z m146 -64 c0 -5 -2 -10 -4 -10 -3 0 -8 5
-11 10 -3 6 -1 10 4 10 6 0 11 -4 11 -10z m-2623 -37 c-3 -10 -5 -4 -5 12 0
17 2 24 5 18 2 -7 2 -21 0 -30z m2573 7 c0 -5 -5 -10 -11 -10 -5 0 -7 5 -4 10
3 6 8 10 11 10 2 0 4 -4 4 -10z m55 -40 c11 -17 -5 -32 -21 -19 -8 6 -14 15
-14 20 0 12 27 11 35 -1z m-55 -15 c0 -8 4 -15 9 -15 15 0 101 -60 101 -70 0
-4 -9 -6 -20 -3 -11 3 -20 9 -20 13 0 5 -10 10 -22 12 -13 2 -23 9 -23 17 0 8
-6 16 -12 19 -21 6 -15 -14 12 -39 25 -25 33 -49 15 -49 -5 0 -10 7 -10 15 0
8 -6 15 -13 15 -20 0 -40 39 -27 55 8 9 8 15 0 20 -13 8 -13 25 0 25 6 0 10
-7 10 -15z m-2020 -45 c0 -5 -5 -10 -11 -10 -5 0 -7 5 -4 10 3 6 8 10 11 10 2
0 4 -4 4 -10z m2190 -6 c0 -8 -5 -12 -10 -9 -6 4 -8 11 -5 16 9 14 15 11 15
-7z m30 -4 c0 -5 -2 -10 -4 -10 -3 0 -8 5 -11 10 -3 6 -1 10 4 10 6 0 11 -4
11 -10z m-101 -100 c6 0 11 -4 11 -10 0 -23 -33 -4 -43 25 -7 19 -6 19 7 3 7
-10 18 -18 25 -18z m-79 -40 c0 -5 -2 -10 -4 -10 -3 0 -8 5 -11 10 -3 6 -1 10
4 10 6 0 11 -4 11 -10z m55 -30 c-3 -6 4 -14 17 -19 23 -10 23 -10 1 -10 -24
-1 -38 13 -28 29 3 6 8 10 11 10 3 0 2 -5 -1 -10z m-38 -26 c-3 -3 -12 -4 -19
-1 -8 3 -5 6 6 6 11 1 17 -2 13 -5z m83 -55 c0 -5 -4 -9 -10 -9 -5 0 -10 7
-10 16 0 8 5 12 10 9 6 -3 10 -10 10 -16z m0 -39 c9 -16 8 -20 -5 -20 -8 0
-15 9 -15 20 0 11 2 20 5 20 2 0 9 -9 15 -20z m-2043 -32 c-3 -7 -5 -2 -5 12
0 14 2 19 5 13 2 -7 2 -19 0 -25z m1963 22 c0 -5 -2 -10 -4 -10 -3 0 -8 5 -11
10 -3 6 -1 10 4 10 6 0 11 -4 11 -10z m-2113 -42 c-3 -8 -6 -5 -6 6 -1 11 2
17 5 13 3 -3 4 -12 1 -19z m2203 6 c0 -2 -9 -4 -21 -4 -11 0 -18 4 -14 10 5 8
35 3 35 -6z m-28 -25 c3 -9 10 -8 24 1 18 11 24 10 43 -9 16 -16 17 -21 6 -21
-9 0 -15 -9 -15 -22 0 -19 -2 -20 -10 -8 -8 13 -10 12 -10 -2 0 -10 -5 -18
-11 -18 -6 0 -9 9 -6 20 3 13 0 20 -9 20 -8 0 -14 -4 -14 -10 0 -5 -4 -10 -9
-10 -4 0 -6 11 -3 25 2 15 0 25 -7 25 -6 0 -11 -8 -12 -17 0 -11 -2 -13 -6 -5
-7 19 4 42 21 42 8 0 16 -5 18 -11z m113 1 c3 -6 -1 -7 -9 -4 -18 7 -21 14 -7
14 6 0 13 -4 16 -10z m-148 -72 c-3 -8 -6 -5 -6 6 -1 11 2 17 5 13 3 -3 4 -12
1 -19z m563 8 c0 -8 10 -17 23 -19 l22 -4 -22 -8 c-14 -4 -23 -15 -23 -27 0
-17 -3 -18 -15 -8 -16 13 -19 38 -9 64 8 20 24 21 24 2z m-430 -6 c0 -5 -4
-10 -10 -10 -5 0 -10 5 -10 10 0 6 5 10 10 10 6 0 10 -4 10 -10z m-43 -32 c-3
-8 -6 -5 -6 6 -1 11 2 17 5 13 3 -3 4 -12 1 -19z m430 16 c-3 -3 -12 -4 -19
-1 -8 3 -5 6 6 6 11 1 17 -2 13 -5z m-447 -26 c0 -7 -5 -20 -10 -28 -8 -12
-10 -9 -10 13 0 15 5 27 10 27 6 0 10 -6 10 -12z m60 2 c0 -5 -4 -10 -10 -10
-5 0 -10 5 -10 10 0 6 5 10 10 10 6 0 10 -4 10 -10z m-4774 -50 c8 0 12 -5 9
-10 -5 -8 -11 -7 -21 1 -14 12 -18 7 -15 -23 3 -25 -8 -22 -18 4 -10 29 9 66
22 43 4 -8 15 -15 23 -15z m4714 -10 c0 -5 -4 -10 -10 -10 -5 0 -10 5 -10 10
0 6 5 10 10 10 6 0 10 -4 10 -10z m-2765 -40 c3 -5 1 -10 -4 -10 -6 0 -11 5
-11 10 0 6 2 10 4 10 3 0 8 -4 11 -10z m2695 0 c0 -5 -4 -10 -10 -10 -5 0 -10
5 -10 10 0 6 5 10 10 10 6 0 10 -4 10 -10z m70 2 c0 -13 -12 -22 -22 -16 -10
6 -1 24 13 24 5 0 9 -4 9 -8z m-13 -64 c-3 -7 -5 -2 -5 12 0 14 2 19 5 13 2
-7 2 -19 0 -25z m27 -263 c3 -8 1 -15 -4 -15 -6 0 -10 7 -10 15 0 8 2 15 4 15
2 0 6 -7 10 -15z m-90 -16 c-3 -5 -10 -7 -15 -3 -5 3 -7 10 -3 15 3 5 10 7 15
3 5 -3 7 -10 3 -15z m186 11 c0 -5 -5 -10 -11 -10 -5 0 -7 5 -4 10 3 6 8 10
11 10 2 0 4 -4 4 -10z m-1339 -27 c19 -14 45 -39 57 -55 l24 -28 -75 4 c-42 2
-80 7 -86 11 -17 10 -13 55 4 55 8 0 14 3 14 8 -7 40 16 42 62 5z m1434 7 c3
-5 1 -10 -4 -10 -6 0 -11 5 -11 10 0 6 2 10 4 10 3 0 8 -4 11 -10z m-65 -15
c0 -8 -2 -15 -4 -15 -2 0 -6 7 -10 15 -3 8 -1 15 4 15 6 0 10 -7 10 -15z m65
-35 c3 -5 1 -10 -4 -10 -6 0 -11 5 -11 10 0 6 2 10 4 10 3 0 8 -4 11 -10z m5
-50 c0 -5 -4 -10 -10 -10 -5 0 -10 5 -10 10 0 6 5 10 10 10 6 0 10 -4 10 -10z
m-32 -29 c3 -8 -1 -12 -9 -9 -7 2 -15 10 -17 17 -3 8 1 12 9 9 7 -2 15 -10 17
-17z m13 -268 c-8 -15 -10 -15 -11 -2 0 17 10 32 18 25 2 -3 -1 -13 -7 -23z
m-4325 -93 c8 0 14 -9 13 -22 -1 -18 -2 -19 -6 -5 -3 13 -10 16 -25 11 -17 -5
-20 -3 -15 11 4 9 8 29 9 43 1 23 2 22 5 -5 3 -20 10 -33 19 -33z m4359 -10
c-2 -31 -15 -37 -15 -7 0 15 4 27 8 27 5 0 8 -9 7 -20z m195 -111 c0 -6 -4 -7
-10 -4 -5 3 -10 11 -10 16 0 6 5 7 10 4 6 -3 10 -11 10 -16z m-4543 -11 c-3
-8 -6 -5 -6 6 -1 11 2 17 5 13 3 -3 4 -12 1 -19z m-137 -69 c0 -5 -4 -9 -10
-9 -5 0 -10 7 -10 16 0 8 5 12 10 9 6 -3 10 -10 10 -16z m120 -23 c0 -3 -4 -8
-10 -11 -5 -3 -10 -1 -10 4 0 6 5 11 10 11 6 0 10 -2 10 -4z m-115 -86 c3 -5
-1 -10 -9 -10 -9 0 -16 5 -16 10 0 6 4 10 9 10 6 0 13 -4 16 -10z m75 -22 c0
-5 -4 -8 -10 -8 -5 0 -10 5 -10 11 0 5 -4 7 -10 4 -5 -3 -10 1 -10 9 0 14 3
14 20 4 11 -7 20 -16 20 -20z m-290 2 c0 -5 -2 -10 -4 -10 -3 0 -8 5 -11 10
-3 6 -1 10 4 10 6 0 11 -4 11 -10z m470 0 c0 -5 -7 -10 -15 -10 -8 0 -15 5
-15 10 0 6 7 10 15 10 8 0 15 -4 15 -10z m-220 -14 c0 -3 -4 -8 -10 -11 -5 -3
-10 -1 -10 4 0 6 5 11 10 11 6 0 10 -2 10 -4z m-45 -15 c3 -5 1 -12 -5 -16 -5
-3 -10 1 -10 9 0 18 6 21 15 7z m-9 -35 c10 -8 15 -18 11 -23 -5 -4 -13 0 -18
10 -6 9 -14 15 -20 12 -5 -4 -9 -1 -9 4 0 15 13 14 36 -3z m-323 -42 c-4 -10
-9 -12 -15 -6 -12 12 -1 35 12 27 5 -3 6 -13 3 -21z m67 16 c0 -5 -4 -10 -10
-10 -5 0 -10 5 -10 10 0 6 5 10 10 10 6 0 10 -4 10 -10z m552 -5 c0 -5 -5 -11
-11 -13 -6 -2 -11 4 -11 13 0 9 5 15 11 13 6 -2 11 -8 11 -13z m-772 -25 c0
-5 -4 -10 -10 -10 -5 0 -10 5 -10 10 0 6 5 10 10 10 6 0 10 -4 10 -10z m60 0
c0 -5 -4 -10 -10 -10 -5 0 -10 5 -10 10 0 6 5 10 10 10 6 0 10 -4 10 -10z
m137 4 c-3 -3 -12 -4 -19 -1 -8 3 -5 6 6 6 11 1 17 -2 13 -5z m543 -4 c0 -5
-4 -10 -10 -10 -5 0 -10 5 -10 10 0 6 5 10 10 10 6 0 10 -4 10 -10z m-649 -12
c0 -10 2 -10 6 0 2 6 9 10 14 6 16 -9 10 -22 -14 -26 -17 -3 -23 0 -23 14 0
20 16 25 17 6z m-65 -24 c2 -20 -2 -25 -19 -22 -11 2 -23 9 -25 17 -3 10 0 12
12 8 10 -4 16 -1 16 8 0 26 15 16 16 -11z m783 -6 c12 -19 8 -21 -26 -12 -13
4 -23 12 -23 20 0 19 36 13 49 -8z m-749 -4 c0 -8 -4 -12 -10 -9 -5 3 -10 10
-10 16 0 5 5 9 10 9 6 0 10 -7 10 -16z m-124 -10 c-3 -9 -6 -20 -6 -25 0 -6
-5 -7 -10 -4 -6 4 -7 11 -4 17 4 6 0 14 -7 19 -10 6 -8 9 10 9 17 0 22 -4 17
-16z m1169 6 c3 -5 -1 -10 -10 -10 -9 0 -13 5 -10 10 3 6 8 10 10 10 2 0 7 -4
10 -10z m70 0 c-3 -5 -12 -7 -20 -3 -21 7 -19 13 6 13 11 0 18 -4 14 -10z
m-1211 -21 c-3 -5 -10 -7 -15 -3 -5 3 -7 10 -3 15 3 5 10 7 15 3 5 -3 7 -10 3
-15z m31 -9 c3 -5 1 -10 -4 -10 -6 0 -11 5 -11 10 0 6 2 10 4 10 3 0 8 -4 11
-10z m1135 6 c0 -3 -4 -8 -10 -11 -5 -3 -10 -1 -10 4 0 6 5 11 10 11 6 0 10
-2 10 -4z m-1260 -16 c0 -5 -2 -10 -4 -10 -3 0 -8 5 -11 10 -3 6 -1 10 4 10 6
0 11 -4 11 -10z m155 -10 c3 -5 1 -10 -4 -10 -6 0 -11 5 -11 10 0 6 2 10 4 10
3 0 8 -4 11 -10z m2303 -1304 c38 -20 67 -55 83 -98 26 -74 -25 -150 -112
-169 -53 -12 -120 16 -149 63 -48 79 -5 187 82 208 50 12 67 11 96 -4z m1610
1 c23 1 41 -35 27 -56 -9 -16 -25 -13 -25 3 0 28 -88 38 -130 16 -32 -17 -53
-74 -45 -122 9 -53 64 -91 126 -86 37 3 44 7 47 27 7 43 -6 71 -33 71 -14 0
-25 5 -25 10 0 6 24 10 54 10 30 0 58 -4 61 -10 3 -5 1 -10 -5 -10 -7 0 -11
-18 -9 -51 4 -63 -7 -71 -101 -73 -76 -1 -109 15 -141 70 -56 94 31 226 136
208 22 -4 50 -7 63 -7z m-2838 -12 c0 -8 -9 -15 -20 -15 -19 0 -20 -7 -20
-135 l0 -134 -31 -36 c-33 -37 -73 -48 -67 -17 2 9 11 17 21 17 31 0 37 26 37
163 l0 133 -30 10 c-50 18 -34 29 40 29 56 0 70 -3 70 -15z m260 6 c0 -5 -7
-11 -15 -15 -17 -6 -22 -86 -6 -86 14 0 81 85 71 88 -26 9 -5 22 35 22 48 0
59 -15 23 -29 -34 -14 -114 -99 -103 -110 39 -36 141 -111 152 -111 7 0 13 -6
13 -13 0 -9 -13 -12 -42 -11 -62 3 -61 3 -54 19 3 8 2 15 -3 15 -4 0 -26 16
-48 35 -23 19 -44 35 -47 35 -14 0 -5 -71 9 -76 31 -12 13 -24 -35 -24 -47 0
-66 12 -37 23 10 4 16 33 21 91 7 96 1 136 -20 136 -8 0 -14 5 -14 10 0 6 23
10 50 10 28 0 50 -4 50 -9z m654 -12 c34 -27 35 -72 2 -102 -20 -19 -22 -26
-13 -43 27 -46 62 -83 88 -95 35 -14 27 -33 -10 -24 -30 7 -84 56 -112 103
-12 18 -29 32 -40 32 -16 0 -19 -7 -19 -49 0 -40 3 -50 20 -54 11 -3 20 -10
20 -15 0 -14 -103 -9 -108 6 -2 6 3 12 12 12 23 0 24 218 1 226 -35 14 -10 24
59 24 59 0 78 -4 100 -21z m526 12 c0 -5 -5 -11 -12 -13 -9 -3 -2 -30 21 -91
19 -48 35 -86 36 -85 2 2 14 30 28 64 22 55 23 63 10 87 -7 15 -20 27 -28 27
-8 0 -15 5 -15 10 0 6 25 10 55 10 52 0 72 -11 41 -23 -12 -5 -9 -21 15 -88
34 -95 36 -99 45 -73 3 10 17 47 30 82 28 73 29 82 9 82 -8 0 -15 5 -15 10 0
6 20 10 45 10 33 0 45 -4 45 -15 0 -8 -6 -15 -12 -15 -14 0 -45 -63 -85 -173
-31 -86 -29 -83 -47 -68 -12 10 -26 49 -46 131 -6 23 -9 20 -32 -30 -13 -30
-28 -68 -32 -83 -9 -38 -26 -30 -43 19 -42 123 -70 182 -96 207 l-29 27 56 0
c31 0 56 -4 56 -9z m470 -1 c0 -5 -8 -13 -17 -18 -14 -8 -17 -27 -17 -113 l-1
-104 59 2 c55 2 68 8 79 38 9 22 17 -4 11 -33 l-6 -32 -109 0 c-66 0 -109 4
-109 10 0 6 7 10 15 10 20 0 28 53 21 141 -4 48 -11 78 -21 85 -8 6 -12 14 -8
17 10 11 103 8 103 -3z m290 1 c0 -5 -9 -11 -20 -14 -22 -6 -22 -10 -23 -137
0 -67 2 -76 22 -85 47 -22 15 -36 -60 -26 -54 7 -54 8 -26 21 27 13 27 14 27
116 0 94 -2 103 -20 109 -39 12 -19 25 40 25 33 0 60 -4 60 -9z m170 -37 c25
-25 70 -68 100 -94 l55 -48 -3 80 c-3 69 -6 81 -23 85 -38 10 -18 23 36 23 55
0 73 -13 35 -25 -19 -6 -20 -15 -20 -126 0 -68 -4 -119 -9 -119 -6 0 -34 25
-63 56 -29 31 -74 74 -100 96 l-48 40 0 -85 c0 -76 2 -85 20 -90 11 -3 20 -10
20 -16 0 -8 -16 -10 -52 -5 -65 8 -68 10 -40 30 20 14 22 24 22 105 0 76 -3
92 -20 109 -27 27 -25 30 13 30 25 0 42 -10 77 -46z m-2280 -203 c0 -3 -8 -11
-18 -17 -14 -9 -22 -9 -36 1 -17 13 -17 14 0 34 17 19 19 19 36 4 10 -9 18
-19 18 -22z m458 16 c7 -8 6 -18 -4 -31 -13 -19 -14 -19 -34 -1 -15 14 -17 21
-9 32 14 16 33 17 47 0z m723 -397 c11 -6 19 -21 19 -36 0 -20 -9 -29 -47 -46
-27 -11 -50 -22 -52 -24 -7 -6 23 -103 31 -98 4 3 8 23 8 45 0 38 26 79 50 79
15 0 12 -9 -10 -37 -23 -30 -26 -75 -6 -92 38 -31 90 51 61 95 -20 30 -19 40
1 23 13 -11 17 -10 25 4 6 9 19 17 31 17 15 0 19 -5 15 -20 -3 -11 -2 -22 3
-25 4 -3 11 6 14 20 4 14 13 25 21 25 19 0 31 -48 16 -63 -8 -8 -11 -5 -11 14
0 19 -2 21 -10 9 -13 -20 -13 -77 1 -86 17 -10 31 11 34 50 4 69 48 89 129 57
22 -9 34 -8 59 4 34 17 47 19 47 7 0 -9 -59 -32 -83 -32 -12 0 -17 -8 -17 -25
0 -63 -63 -108 -108 -79 -18 12 -27 13 -30 6 -6 -18 -33 -14 -48 6 -12 16 -13
16 -19 0 -9 -22 -28 -23 -45 -3 -11 14 -14 13 -27 -5 -16 -22 -53 -26 -71 -8
-10 10 -15 10 -22 -2 -6 -10 -12 -11 -19 -5 -17 18 -52 118 -44 126 5 5 26 15
48 22 45 16 66 40 48 58 -7 7 -37 8 -92 4 l-81 -8 0 -104 c0 -109 -13 -130
-24 -41 -4 29 -10 70 -13 91 -3 20 -2 48 1 62 6 24 8 25 102 25 52 0 104 -5
115 -10z"/>
<path d="M2680 9456 c0 -2 8 -10 17 -17 11 -10 14 -10 9 -1 -4 6 -2 12 3 12 6
0 11 -4 11 -10 0 -12 -35 -31 -44 -23 -3 3 -6 1 -6 -6 0 -8 6 -11 16 -7 8 3
12 2 9 -3 -6 -10 11 -24 33 -27 13 -2 16 9 5 20 -11 11 -12 36 -1 36 6 0 5 6
-2 15 -11 13 -50 22 -50 11z"/>
<path d="M2664 9208 c-3 -12 -13 -37 -22 -57 -9 -20 -16 -38 -17 -41 -12 -53
-45 -121 -56 -115 -5 4 -7 10 -4 15 10 16 -12 19 -31 4 -10 -9 -14 -13 -8 -10
15 7 55 -23 48 -37 -3 -7 1 -4 9 5 14 18 87 23 87 6 0 -4 -4 -8 -10 -8 -5 0
-10 -5 -10 -12 0 -6 7 -4 18 5 22 20 36 22 27 5 -4 -7 0 -5 8 5 18 22 27 22
27 0 0 -13 3 -14 12 -5 14 14 32 16 23 2 -4 -6 1 -7 11 -3 11 4 15 3 10 -5 -3
-6 -1 -14 5 -18 7 -4 9 -3 6 3 -4 6 0 14 9 17 21 8 69 8 61 -1 -4 -3 -1 -13 6
-21 10 -13 9 -15 -4 -10 -9 4 -16 1 -16 -6 0 -7 6 -13 14 -13 7 0 13 4 13 9 0
5 6 6 13 2 9 -6 9 -4 -1 8 -10 13 -10 17 0 21 8 3 -1 11 -20 19 -18 8 -29 17
-25 21 3 4 -3 7 -15 7 -11 0 -23 -6 -25 -12 -8 -20 -27 12 -27 45 0 16 -4 26
-10 22 -12 -7 -33 43 -26 61 3 7 -2 15 -10 18 -8 3 -14 14 -14 25 0 11 -5 23
-11 26 -6 4 -8 13 -5 20 2 7 -2 16 -10 19 -22 8 -22 8 -30 -16z"/>
<path d="M2550 9056 c0 -15 24 -28 34 -19 7 7 -13 33 -25 33 -5 0 -9 -6 -9
-14z"/>
<path d="M2493 8916 c0 -8 6 -12 14 -9 7 3 10 9 7 14 -8 14 -21 11 -21 -5z"/>
<path d="M2506 8883 c-6 -14 -5 -15 5 -6 7 7 10 15 7 18 -3 3 -9 -2 -12 -12z"/>
<path d="M2866 8892 c-3 -5 6 -12 19 -15 14 -2 28 0 31 4 3 5 1 9 -5 9 -5 0
-16 3 -24 6 -8 3 -18 1 -21 -4z"/>
<path d="M2466 8873 c-6 -14 -5 -15 5 -6 7 7 10 15 7 18 -3 3 -9 -2 -12 -12z"/>
<path d="M2460 8846 c0 -2 8 -10 18 -17 15 -13 16 -12 3 4 -13 16 -21 21 -21
13z"/>
<path d="M2891 8841 c-8 -5 -9 -11 -3 -15 5 -3 12 1 16 9 6 17 6 18 -13 6z"/>
<path d="M2897 8793 c6 -16 15 -16 36 0 15 11 14 12 -12 12 -19 1 -27 -3 -24
-12z"/>
<path d="M2439 8787 c6 -8 7 -18 3 -22 -4 -5 -1 -5 6 -1 10 6 10 11 1 22 -6 8
-14 14 -16 14 -3 0 0 -6 6 -13z"/>
<path d="M2411 8761 c-8 -14 -5 -23 13 -40 12 -11 26 -21 32 -21 5 0 -4 11
-21 25 -16 13 -25 24 -19 25 6 0 11 7 11 15 0 20 -4 19 -16 -4z"/>
<path d="M2953 8770 c2 -8 12 -16 23 -17 13 -2 15 -1 4 4 -8 3 -19 11 -23 17
-6 7 -7 6 -4 -4z"/>
<path d="M2921 8751 c-8 -6 -9 -11 -3 -15 6 -3 14 -1 17 5 9 14 2 20 -14 10z"/>
<path d="M2958 8733 c10 -4 10 -8 -3 -17 -13 -9 -11 -11 14 -11 29 -1 29 0 14
17 -9 10 -21 18 -27 17 -6 0 -5 -3 2 -6z"/>
<path d="M2416 8678 c3 -5 10 -6 15 -3 13 9 11 12 -6 12 -8 0 -12 -4 -9 -9z"/>
<path d="M2405 8651 c-3 -5 -2 -12 3 -15 5 -3 9 1 9 9 0 17 -3 19 -12 6z"/>
<path d="M3020 8650 c0 -5 5 -10 11 -10 5 0 7 5 4 10 -3 6 -8 10 -11 10 -2 0
-4 -4 -4 -10z"/>
<path d="M1870 9466 c0 -2 7 -7 16 -10 8 -3 12 -2 9 4 -6 10 -25 14 -25 6z"/>
<path d="M3235 9460 c-2 -4 1 -12 8 -18 13 -11 31 -4 34 13 2 13 -34 17 -42 5z"/>
<path d="M3550 9466 c0 -7 50 -13 55 -7 2 4 -10 8 -26 9 -16 1 -29 1 -29 -2z"/>
<path d="M3397 9419 c7 -7 15 -10 18 -7 3 3 -2 9 -12 12 -14 6 -15 5 -6 -5z"/>
<path d="M3357 9406 c-16 -13 -16 -14 0 -27 9 -8 14 -9 10 -2 -4 6 -2 13 4 15
7 2 10 9 8 15 -3 8 -9 8 -22 -1z"/>
<path d="M3655 9410 c3 -5 11 -10 16 -10 6 0 7 5 4 10 -3 6 -11 10 -16 10 -6
0 -7 -4 -4 -10z"/>
<path d="M3731 9343 c8 -13 19 -23 26 -23 16 0 17 26 1 36 -7 4 -8 3 -4 -4 10
-16 -7 -15 -23 1 -11 9 -10 7 0 -10z"/>
<path d="M3744 9296 c1 -8 10 -24 20 -34 13 -16 14 -21 4 -25 -7 -3 -8 -6 -2
-6 5 -1 19 6 30 15 10 8 13 13 7 9 -19 -9 -36 4 -24 19 6 7 6 17 1 26 -8 12
-10 10 -10 -8 0 -13 -4 -20 -10 -17 -6 4 -8 10 -5 15 3 5 1 11 -4 14 -5 4 -8
0 -7 -8z"/>
<path d="M3760 9204 c0 -8 -4 -13 -9 -10 -4 3 -8 -5 -7 -17 1 -16 7 -21 21
-19 25 5 33 12 13 12 -11 0 -14 7 -10 25 2 14 2 25 -2 25 -3 0 -6 -7 -6 -16z"/>
<path d="M3784 9205 c4 -24 14 -28 24 -8 9 15 7 19 -8 20 -10 1 -17 -4 -16
-12z"/>
<path d="M3770 9140 c-9 -6 -10 -10 -3 -10 6 0 15 5 18 10 8 12 4 12 -15 0z"/>
<path d="M3699 9122 c-8 -9 -15 -21 -16 -27 -1 -5 -10 -12 -20 -16 -16 -7 -16
-8 -1 -8 10 -1 22 8 28 19 6 11 16 17 22 14 6 -4 8 -3 4 4 -3 5 -1 12 6 14 8
3 8 7 2 11 -6 3 -17 -2 -25 -11z"/>
<path d="M3746 9105 c4 -8 9 -15 13 -15 4 0 8 7 8 15 0 8 -6 15 -13 15 -8 0
-11 -6 -8 -15z"/>
<path d="M3625 9080 c-3 -5 -1 -10 4 -10 6 0 11 5 11 10 0 6 -2 10 -4 10 -3 0
-8 -4 -11 -10z"/>
<path d="M3585 9059 c-4 -6 -5 -13 -2 -16 7 -7 27 6 27 18 0 12 -17 12 -25 -2z"/>
<path d="M3650 8920 c0 -5 4 -10 9 -10 6 0 13 5 16 10 3 6 -1 10 -9 10 -9 0
-16 -4 -16 -10z"/>
<path d="M3390 8890 c0 -5 5 -10 10 -10 6 0 10 5 10 10 0 6 -4 10 -10 10 -5 0
-10 -4 -10 -10z"/>
<path d="M3693 8854 c16 -18 24 -34 19 -38 -6 -3 -13 0 -15 6 -4 9 -6 10 -6 1
-2 -22 16 -23 35 0 10 12 15 19 10 14 -5 -4 -23 5 -40 20 l-31 28 28 -31z"/>
<path d="M3380 8840 c14 -9 7 -14 -13 -11 -5 1 -6 -3 -3 -8 3 -5 14 -8 24 -6
9 2 21 4 25 4 13 1 -20 31 -35 31 -10 0 -9 -3 2 -10z"/>
<path d="M3357 8792 c-3 -4 6 -21 19 -37 13 -17 24 -25 24 -18 0 6 -5 15 -10
18 -6 4 -8 11 -4 16 3 5 0 8 -8 7 -7 -2 -12 3 -10 10 2 13 -4 16 -11 4z"/>
<path d="M3411 8754 c6 -7 16 -11 21 -8 11 7 3 17 -18 20 -12 2 -13 -1 -3 -12z"/>
<path d="M3346 8707 c3 -10 9 -15 12 -12 3 3 0 11 -7 18 -10 9 -11 8 -5 -6z"/>
<path d="M3395 8690 c-3 -6 1 -7 9 -4 18 7 21 14 7 14 -6 0 -13 -4 -16 -10z"/>
<path d="M3256 8642 c-3 -5 1 -9 9 -9 8 0 12 4 9 9 -3 4 -7 8 -9 8 -2 0 -6 -4
-9 -8z"/>
<path d="M4168 9433 c7 -3 16 -2 19 1 4 3 -2 6 -13 5 -11 0 -14 -3 -6 -6z"/>
<path d="M4382 9422 c-17 -11 -30 -139 -24 -239 l5 -83 36 -7 c119 -23 199 3
238 77 29 55 23 128 -14 178 -32 43 -67 59 -138 65 -33 3 -67 8 -75 11 -8 3
-21 2 -28 -2z"/>
<path d="M4280 9386 c0 -2 7 -7 16 -10 8 -3 12 -2 9 4 -6 10 -25 14 -25 6z"/>
<path d="M4289 9357 c0 -1 -2 -10 -4 -20 -3 -15 -1 -16 13 -5 9 7 18 13 20 14
2 1 -4 4 -13 7 -8 4 -15 5 -16 4z"/>
<path d="M4305 9301 c-3 -5 -2 -12 3 -15 5 -3 9 1 9 9 0 17 -3 19 -12 6z"/>
<path d="M4284 9262 c18 -21 29 -23 27 -5 -1 4 -4 8 -8 8 -5 0 -15 4 -23 9 -9
6 -7 1 4 -12z"/>
<path d="M4276 9231 c-3 -5 1 -14 9 -21 8 -7 12 -17 8 -23 -4 -6 -1 -7 6 -3 9
6 9 12 -3 25 -9 10 -13 21 -9 24 3 4 4 7 0 7 -3 0 -8 -4 -11 -9z"/>
<path d="M4694 9228 c1 -7 5 -18 9 -25 4 -6 4 -13 0 -16 -5 -2 -1 -2 7 1 8 2
21 5 28 5 18 1 3 12 -16 12 -9 0 -17 5 -17 12 0 6 -3 14 -7 18 -3 4 -6 1 -4
-7z"/>
<path d="M4250 9216 c0 -2 8 -10 18 -17 15 -13 16 -12 3 4 -13 16 -21 21 -21
13z"/>
<path d="M4295 9159 c-10 -15 3 -25 16 -12 7 7 7 13 1 17 -6 3 -14 1 -17 -5z"/>
<path d="M4677 9140 c7 -26 39 -54 48 -41 3 6 -1 11 -10 11 -13 0 -14 4 -5 21
7 11 9 23 6 27 -3 3 -6 0 -6 -7 0 -8 -5 -9 -19 -2 -16 9 -18 8 -14 -9z"/>
<path d="M4263 9090 c-1 -11 2 -20 7 -20 4 0 7 7 6 15 -3 23 -12 26 -13 5z"/>
<path d="M4566 9078 c3 -5 10 -6 15 -3 13 9 11 12 -6 12 -8 0 -12 -4 -9 -9z"/>
<path d="M4296 9065 c-4 -11 -12 -15 -24 -11 -14 5 -14 3 2 -9 11 -8 24 -15
29 -15 4 0 5 -5 2 -10 -4 -6 -11 -7 -17 -4 -7 4 -8 2 -4 -4 10 -17 46 7 38 26
-3 9 -1 13 5 9 5 -3 10 0 10 8 0 8 -5 11 -10 8 -5 -3 -13 0 -17 7 -5 8 -9 7
-14 -5z"/>
<path d="M4530 9065 c0 -8 4 -15 10 -15 5 0 7 7 4 15 -4 8 -8 15 -10 15 -2 0
-4 -7 -4 -15z"/>
<path d="M4480 9050 c20 -13 33 -13 25 0 -3 6 -14 10 -23 10 -15 0 -15 -2 -2
-10z"/>
<path d="M4560 9056 c0 -2 7 -9 15 -16 13 -11 14 -10 9 4 -5 14 -24 23 -24 12z"/>
<path d="M4308 8933 c7 -3 16 -2 19 1 4 3 -2 6 -13 5 -11 0 -14 -3 -6 -6z"/>
<path d="M4280 8887 c0 -2 6 -10 14 -16 11 -9 16 -9 22 1 4 7 4 10 -1 6 -4 -4
-14 -3 -22 3 -7 6 -13 9 -13 6z"/>
<path d="M4620 8886 c0 -2 8 -10 18 -17 15 -13 16 -12 3 4 -13 16 -21 21 -21
13z"/>
<path d="M4276 8832 c-3 -5 1 -9 9 -9 8 0 12 4 9 9 -3 4 -7 8 -9 8 -2 0 -6 -4
-9 -8z"/>
<path d="M4303 8782 c-10 -9 -13 -13 -6 -9 6 5 17 6 22 3 5 -4 12 -2 15 3 12
18 -12 21 -31 3z"/>
<path d="M4286 8728 c3 -5 10 -6 15 -3 13 9 11 12 -6 12 -8 0 -12 -4 -9 -9z"/>
<path d="M4840 8690 c6 -11 13 -20 16 -20 2 0 0 9 -6 20 -6 11 -13 20 -16 20
-2 0 0 -9 6 -20z"/>
<path d="M4205 8670 c-16 -7 -17 -9 -3 -9 9 -1 20 4 23 9 7 11 7 11 -20 0z"/>
<path d="M5086 9275 c-3 -8 -1 -15 4 -15 6 0 10 7 10 15 0 8 -2 15 -4 15 -2 0
-6 -7 -10 -15z"/>
<path d="M5120 9209 c-13 -9 -13 -10 1 -6 9 3 23 0 30 -6 11 -10 11 -9 0 6 -7
9 -14 17 -15 17 0 0 -8 -5 -16 -11z"/>
<path d="M5187 9109 c7 -7 15 -10 18 -7 3 3 -2 9 -12 12 -14 6 -15 5 -6 -5z"/>
<path d="M5257 9046 c-3 -8 0 -17 7 -19 10 -4 12 1 9 14 -6 23 -9 24 -16 5z"/>
<path d="M5272 9001 c2 -7 7 -12 11 -12 12 1 9 15 -3 20 -7 2 -11 -2 -8 -8z"/>
<path d="M5276 8952 c-3 -5 1 -9 9 -9 8 0 12 4 9 9 -3 4 -7 8 -9 8 -2 0 -6 -4
-9 -8z"/>
<path d="M5286 8898 c3 -4 11 -5 19 -1 21 7 19 12 -4 10 -11 0 -18 -5 -15 -9z"/>
<path d="M5264 8808 c-12 -14 -13 -18 -3 -10 9 6 18 10 21 7 2 -3 5 2 5 10 0
19 0 19 -23 -7z"/>
<path d="M5260 8722 c0 -6 5 -14 10 -17 6 -4 7 -11 4 -17 -4 -7 -2 -8 5 -4 9
6 9 12 -1 24 -7 10 -14 19 -15 21 -2 2 -3 -1 -3 -7z"/>
<path d="M5305 8691 c-3 -5 -2 -12 3 -15 5 -3 9 1 9 9 0 17 -3 19 -12 6z"/>
<path d="M5370 8680 c0 -5 3 -9 8 -8 4 0 15 -2 25 -7 16 -7 36 0 26 9 -12 10
-59 15 -59 6z"/>
<path d="M1252 9431 c-10 -6 -10 -10 2 -20 12 -10 15 -9 13 8 -1 12 -1 21 -2
21 0 0 -6 -4 -13 -9z"/>
<path d="M1885 9061 c-3 -7 0 -8 10 -5 11 5 14 2 9 -9 -4 -11 0 -15 14 -14 12
0 18 5 16 9 -3 4 0 8 5 8 6 0 11 -4 11 -10 0 -5 4 -10 8 -10 5 0 9 7 9 15 0 9
-10 15 -23 15 -12 0 -29 3 -37 6 -8 3 -18 1 -22 -5z"/>
<path d="M2045 9012 c-22 -16 -15 -32 11 -28 32 6 38 11 29 26 -5 8 -11 7 -23
-2 -12 -10 -14 -10 -8 0 8 14 6 15 -9 4z"/>
<path d="M2077 8913 c-10 -9 -9 -33 1 -33 4 0 8 9 8 20 0 23 0 22 -9 13z"/>
<path d="M1993 8833 c-7 -2 -13 -9 -13 -15 0 -7 5 -7 13 1 8 6 17 8 20 4 4 -3
7 -1 7 5 0 13 -7 14 -27 5z"/>
<path d="M1984 8760 c0 -16 2 -28 5 -28 16 3 40 -16 34 -26 -3 -6 3 -3 15 8
23 20 20 45 -4 25 -11 -9 -17 -9 -29 1 -20 17 -19 31 3 23 18 -6 17 -5 -9 15
-13 10 -15 7 -15 -18z"/>
<path d="M1993 8689 c9 -6 15 -15 11 -20 -3 -5 0 -8 8 -7 7 2 12 -2 11 -8 -1
-6 5 -11 13 -11 10 0 6 9 -13 29 -15 15 -32 28 -37 28 -6 0 -3 -5 7 -11z"/>
<path d="M2163 8652 c1 -14 5 -18 11 -12 7 7 6 14 -1 21 -9 9 -12 7 -10 -9z"/>
<path d="M1980 8656 c0 -2 8 -10 18 -17 15 -13 16 -12 3 4 -13 16 -21 21 -21
13z"/>
<path d="M1415 8780 c-3 -6 1 -7 9 -4 18 7 21 14 7 14 -6 0 -13 -4 -16 -10z"/>
<path d="M1385 8690 c-3 -5 -1 -10 4 -10 6 0 11 5 11 10 0 6 -2 10 -4 10 -3 0
-8 -4 -11 -10z"/>
<path d="M1393 8657 c0 -8 6 -14 14 -14 9 0 10 4 2 14 -6 7 -12 13 -14 13 -1
0 -2 -6 -2 -13z"/>
<path d="M1375 8860 c-19 -21 -13 -42 7 -22 10 10 21 42 14 42 -2 0 -11 -9
-21 -20z"/>
<path d="M2025 8940 c3 -5 8 -10 11 -10 2 0 4 5 4 10 0 6 -5 10 -11 10 -5 0
-7 -4 -4 -10z"/>
<path d="M2377 8316 c-3 -8 0 -20 8 -26 12 -10 13 -8 10 10 -6 29 -11 34 -18
16z"/>
<path d="M2295 8311 c-3 -5 -2 -12 3 -15 5 -3 9 1 9 9 0 17 -3 19 -12 6z"/>
<path d="M2335 8301 c-3 -5 -2 -12 3 -15 5 -3 9 1 9 9 0 17 -3 19 -12 6z"/>
<path d="M2365 8271 c-3 -5 -2 -12 3 -15 5 -3 9 1 9 9 0 17 -3 19 -12 6z"/>
<path d="M2326 8262 c-3 -5 1 -9 9 -9 8 0 12 4 9 9 -3 4 -7 8 -9 8 -2 0 -6 -4
-9 -8z"/>
<path d="M2340 8236 c0 -2 8 -10 17 -17 9 -8 14 -9 10 -2 -4 6 -1 14 5 16 7 3
3 6 -9 6 -13 1 -23 -1 -23 -3z"/>
<path d="M1751 8091 c-6 -10 -7 -21 -4 -25 3 -3 -2 -6 -13 -6 -15 0 -13 -4 11
-19 19 -12 34 -15 42 -9 12 10 12 33 -1 45 -4 4 -7 4 -6 -2 5 -25 0 -39 -11
-28 -8 8 -8 17 0 31 14 25 14 32 1 32 -5 0 -14 -8 -19 -19z"/>
<path d="M1733 8012 c-9 -15 -5 -17 28 -16 39 0 56 18 20 20 -10 1 -22 4 -28
7 -5 3 -14 -2 -20 -11z"/>
<path d="M1855 7780 c3 -5 8 -10 11 -10 2 0 4 5 4 10 0 6 -5 10 -11 10 -5 0
-7 -4 -4 -10z"/>
<path d="M2700 8390 c0 -5 5 -10 11 -10 5 0 7 5 4 10 -3 6 -8 10 -11 10 -2 0
-4 -4 -4 -10z"/>
<path d="M2701 8356 c-9 -11 -9 -16 1 -22 7 -4 10 -4 6 1 -4 4 -3 14 3 22 6 7
9 13 6 13 -2 0 -10 -6 -16 -14z"/>
<path d="M2972 8349 c-8 -12 -10 -19 -5 -16 11 7 34 -19 25 -29 -4 -4 -1 -4 7
1 9 5 12 4 7 -3 -9 -15 -9 -15 -36 8 -13 11 -26 18 -29 14 -3 -3 1 -9 10 -14
19 -11 21 -142 1 -162 -12 -12 -17 -38 -6 -38 22 0 44 23 39 41 -8 25 1 24 28
-2 17 -17 18 -20 5 -16 -10 3 -20 1 -24 -5 -5 -7 -2 -8 6 -3 9 5 11 4 6 -4 -4
-6 -11 -9 -16 -6 -9 6 -21 -20 -13 -29 4 -3 12 -1 19 5 7 6 17 8 22 5 14 -8 7
-49 -9 -54 -10 -2 -11 -1 -2 5 15 10 4 30 -17 30 -8 0 -21 2 -29 4 -10 3 -15
-5 -16 -27 -1 -29 2 -31 31 -29 33 2 68 22 71 41 1 7 -7 20 -17 29 -19 17 -19
19 -2 31 16 12 16 14 -2 27 -18 13 -18 14 0 21 16 6 16 9 4 16 -8 5 -22 7 -32
4 -9 -2 -20 1 -24 7 -5 8 -2 10 8 6 10 -3 24 4 37 20 l22 25 -23 -2 c-13 -1
-30 -2 -38 -1 -13 1 -13 3 -1 10 8 5 24 7 37 5 22 -4 22 -3 8 25 -8 16 -21 34
-29 41 -7 6 -11 18 -8 26 8 21 0 17 -15 -7z m33 -121 c5 4 5 2 1 -5 -8 -14
-36 -6 -36 9 0 7 5 6 13 -1 8 -6 18 -7 22 -3z m-35 -92 c0 -3 -4 -8 -10 -11
-5 -3 -10 -1 -10 4 0 6 5 11 10 11 6 0 10 -2 10 -4z m24 -93 c8 -19 2 -16 -25
13 -23 25 -23 26 -2 13 13 -7 25 -19 27 -26z"/>
<path d="M2647 8354 c-8 -8 3 -34 15 -34 7 0 6 5 -1 13 -6 8 -8 17 -4 20 3 4
4 7 1 7 -2 0 -7 -3 -11 -6z"/>
<path d="M2796 8338 c3 -5 10 -6 15 -3 13 9 11 12 -6 12 -8 0 -12 -4 -9 -9z"/>
<path d="M2597 8283 c-4 -3 -7 -13 -7 -22 1 -13 3 -13 11 2 11 19 8 33 -4 20z"/>
<path d="M2960 7970 c0 -5 5 -10 10 -10 6 0 10 5 10 10 0 6 -4 10 -10 10 -5 0
-10 -4 -10 -10z"/>
<path d="M2950 7915 c7 -8 17 -12 22 -9 6 4 5 10 -3 15 -22 14 -33 10 -19 -6z"/>
<path d="M3030 7920 c-9 -6 -10 -10 -3 -10 6 0 15 5 18 10 8 12 4 12 -15 0z"/>
<path d="M3027 7889 c7 -7 15 -10 18 -7 3 3 -2 9 -12 12 -14 6 -15 5 -6 -5z"/>
<path d="M2966 7863 c-3 -3 -2 -11 1 -19 3 -8 -1 -14 -8 -14 -11 0 -11 -2 1
-10 9 -5 19 -5 27 2 9 7 13 7 13 -1 0 -6 -4 -12 -10 -12 -5 -1 -15 -2 -22 -3
-16 -2 -21 -23 -7 -32 8 -4 9 -3 5 4 -4 7 -2 12 4 12 7 0 10 -6 7 -12 -2 -7 3
-22 12 -33 16 -20 16 -20 -6 -2 -14 12 -23 15 -28 8 -3 -6 -2 -11 4 -11 5 0 8
-9 6 -20 -2 -11 -1 -19 3 -17 4 1 18 -6 32 -16 l24 -17 -27 0 c-16 0 -26 4
-22 10 3 6 4 10 0 10 -3 0 -9 -10 -14 -22 -6 -16 -4 -27 8 -36 9 -7 11 -11 4
-8 -6 4 -14 2 -17 -3 -4 -5 1 -8 9 -7 9 1 16 6 17 12 2 14 25 34 40 34 7 0 13
11 13 24 0 19 -4 23 -22 20 -12 -2 -25 1 -28 7 -4 6 -1 10 6 8 35 -4 42 0 28
18 -10 11 -10 14 -1 9 13 -8 13 19 -1 42 -5 7 -3 12 3 12 7 0 10 6 7 14 -3 8
-2 16 2 18 5 2 -7 10 -25 19 -18 9 -36 14 -38 12z"/>
<path d="M3014 7642 c-15 -10 -11 -37 5 -37 8 0 15 8 17 17 3 21 -8 30 -22 20z"/>
<path d="M3885 8260 c3 -5 1 -10 -6 -10 -7 0 -10 -2 -7 -5 8 -9 38 6 32 16 -3
5 -10 9 -15 9 -6 0 -7 -4 -4 -10z"/>
<path d="M3710 7570 c0 -5 5 -10 11 -10 5 0 7 5 4 10 -3 6 -8 10 -11 10 -2 0
-4 -4 -4 -10z"/>
<path d="M4978 7913 c7 -3 16 -2 19 1 4 3 -2 6 -13 5 -11 0 -14 -3 -6 -6z"/>
<path d="M4960 7870 c0 -14 15 -19 29 -11 9 6 7 10 -8 14 -12 3 -21 1 -21 -3z"/>
<path d="M4440 7569 c0 -5 11 -9 25 -9 14 0 25 2 25 4 0 2 -11 6 -25 8 -14 3
-25 1 -25 -3z"/>
<path d="M1201 8376 c-9 -10 -8 -15 2 -19 8 -3 13 3 13 14 0 23 0 23 -15 5z"/>
<path d="M975 8369 c-7 -11 29 -42 53 -45 9 -2 10 1 3 10 -6 7 -7 17 -3 22 4
4 0 3 -9 -4 -13 -10 -19 -10 -28 1 -6 8 -8 17 -4 20 3 4 4 7 0 7 -3 0 -9 -5
-12 -11z"/>
<path d="M1330 8360 c6 -11 13 -20 16 -20 2 0 0 9 -6 20 -6 11 -13 20 -16 20
-2 0 0 -9 6 -20z"/>
<path d="M1147 8353 c-13 -13 -7 -43 7 -37 8 3 13 12 12 19 -3 19 -11 27 -19
18z"/>
<path d="M1211 8319 c-11 -18 -17 -38 -14 -45 3 -8 -5 -23 -18 -34 -15 -12
-18 -19 -9 -18 9 2 14 -4 14 -14 -1 -10 1 -18 5 -18 4 0 7 -13 6 -30 0 -16 -3
-30 -7 -30 -4 0 -5 -6 -2 -13 4 -11 -6 -14 -40 -12 -25 1 -51 -3 -58 -8 -9 -5
-4 -7 14 -4 15 2 25 0 22 -4 -3 -5 4 -9 15 -9 11 0 22 4 26 10 10 16 36 -1 30
-20 -11 -35 -14 -60 -6 -60 4 0 5 -16 3 -35 -2 -19 -9 -35 -16 -35 -6 0 -5 -4
3 -9 8 -5 21 -7 29 -3 10 3 13 1 8 -6 -5 -8 5 -12 31 -13 21 -1 41 -1 46 0 4
0 7 -5 7 -11 0 -7 5 -5 11 5 6 9 14 15 19 12 4 -3 21 2 36 10 29 15 40 14 30
-4 -4 -6 -12 -9 -19 -7 -7 1 -9 1 -4 -1 4 -3 5 -9 1 -14 -3 -5 0 -9 5 -9 6 0
11 5 11 11 0 5 5 7 10 4 6 -4 7 -11 4 -17 -5 -7 -2 -8 7 -2 8 4 24 7 36 6 11
-2 24 2 28 8 5 7 -2 9 -22 5 -22 -5 -25 -4 -13 5 12 9 11 10 -7 5 -29 -8 -31
15 -5 38 23 21 29 21 48 3 9 -9 10 -17 4 -21 -5 -3 -10 -1 -10 4 0 15 -27 14
-36 -1 -5 -7 -2 -9 8 -5 9 3 21 0 27 -6 6 -6 11 -7 11 -3 0 5 7 2 17 -5 13
-11 17 -11 20 -1 3 6 10 9 15 6 7 -4 8 -2 4 4 -4 6 -14 8 -24 5 -9 -4 -2 6 16
21 26 22 30 31 21 42 -9 11 -7 14 9 14 12 0 24 5 27 10 3 6 -4 10 -16 10 -21
0 -22 1 -4 20 10 11 15 20 11 20 -12 0 -56 -37 -51 -42 3 -3 -2 -5 -10 -5 -11
0 -13 6 -8 21 18 53 -17 189 -59 231 -34 33 -86 57 -121 55 -18 -1 -35 -1 -39
0 -5 1 -12 3 -17 4 -5 0 -13 4 -17 9 -13 13 -24 7 -43 -24z m312 -322 c4 3 7
1 7 -6 0 -7 5 -9 12 -5 7 4 8 3 4 -4 -4 -6 -13 -9 -21 -5 -8 3 -15 0 -15 -6 0
-6 -5 -11 -11 -11 -8 0 -8 4 0 14 8 9 8 16 2 20 -5 4 -12 2 -16 -4 -3 -5 -12
-10 -18 -10 -7 0 -3 7 7 15 13 10 23 11 31 5 7 -5 15 -7 18 -3z m-219 -76 c3
-4 -6 -6 -19 -3 -14 2 -25 6 -25 8 0 8 39 4 44 -5z"/>
<path d="M1466 8311 c-3 -4 9 -8 27 -9 34 -3 33 6 -1 13 -12 2 -24 0 -26 -4z"/>
<path d="M1475 8281 c4 -3 14 -6 22 -6 9 0 18 -6 20 -13 3 -7 -1 -10 -10 -6
-8 3 -18 1 -21 -4 -8 -13 56 -4 69 10 7 8 5 9 -7 5 -11 -4 -17 -2 -15 5 1 7
-12 12 -31 13 -18 1 -30 -1 -27 -4z"/>
<path d="M1100 8265 c-10 -12 -10 -15 1 -15 9 -1 6 -7 -8 -19 l-22 -18 23 -22
c12 -11 28 -21 36 -21 14 0 5 14 -11 16 -5 1 -11 2 -14 3 -3 0 -1 10 5 22 7
11 17 18 24 16 7 -3 13 1 13 9 0 9 -6 13 -14 10 -8 -3 -12 -2 -9 2 2 4 1 14
-3 20 -6 10 -11 9 -21 -3z m3 -50 c-3 -9 -8 -14 -10 -11 -3 3 -2 9 2 15 9 16
15 13 8 -4z"/>
<path d="M1140 8265 c0 -7 30 -13 34 -7 3 4 -4 9 -15 9 -10 1 -19 0 -19 -2z"/>
<path d="M1505 8219 c-4 -6 -5 -12 -2 -15 2 -3 7 2 10 11 7 17 1 20 -8 4z"/>
<path d="M1121 8207 c2 -2 12 -9 22 -16 14 -11 17 -11 17 1 0 7 -10 14 -21 15
-12 1 -20 1 -18 0z"/>
<path d="M1524 8189 c-1 -3 2 -6 9 -7 7 0 22 -3 34 -6 15 -3 20 -1 17 9 -5 12
-52 16 -60 4z"/>
<path d="M1546 8151 c-12 -5 -15 -10 -9 -14 6 -4 16 0 23 8 14 17 13 17 -14 6z"/>
<path d="M1101 8129 c17 -11 46 -12 52 -1 3 4 -11 8 -30 8 -23 1 -30 -1 -22
-7z"/>
<path d="M1565 8129 c-4 -6 -13 -8 -21 -5 -22 8 -29 -16 -9 -31 13 -8 14 -13
5 -13 -7 0 -11 -2 -8 -5 3 -3 17 -1 32 5 22 8 25 13 17 29 -6 10 -7 21 -4 25
3 3 4 6 0 6 -3 0 -9 -5 -12 -11z m11 -32 c11 -11 -19 -8 -36 3 -12 8 -10 9 7
7 12 -2 26 -6 29 -10z"/>
<path d="M1092 8063 c8 -9 7 -13 -2 -13 -9 0 -7 -7 5 -20 17 -18 14 -25 -8
-21 -5 1 -7 -4 -5 -11 3 -7 9 -13 14 -13 17 0 34 -16 28 -27 -4 -6 1 -8 11 -6
27 5 29 25 4 31 -22 6 -22 6 -3 24 11 10 15 15 10 11 -15 -11 -28 -10 -21 2 4
6 1 9 -6 8 -6 -2 -14 4 -17 12 -2 8 -1 12 3 8 5 -4 14 -3 22 3 9 8 17 8 26 0
10 -8 14 -7 14 3 0 9 -9 13 -24 11 -12 -1 -23 1 -23 6 0 4 -9 7 -19 6 -15 -1
-17 -4 -9 -14z"/>
<path d="M1336 7889 c3 -5 0 -9 -5 -9 -21 0 -10 -18 13 -22 33 -7 40 15 10 29
-13 6 -22 7 -18 2z"/>
<path d="M1185 7870 c3 -5 8 -10 11 -10 2 0 4 5 4 10 0 6 -5 10 -11 10 -5 0
-7 -4 -4 -10z"/>
<path d="M1405 7870 c-19 -8 -19 -9 2 -9 12 -1 25 4 28 9 7 12 -2 12 -30 0z"/>
<path d="M1295 7860 c3 -5 8 -10 11 -10 2 0 4 5 4 10 0 6 -5 10 -11 10 -5 0
-7 -4 -4 -10z"/>
<path d="M1158 7823 c7 -3 16 -2 19 1 4 3 -2 6 -13 5 -11 0 -14 -3 -6 -6z"/>
<path d="M1028 7598 c-21 -23 -36 -44 -33 -46 3 -3 14 7 26 22 11 14 25 23 31
20 7 -4 8 -2 4 4 -5 8 1 12 15 12 18 0 20 -2 9 -15 -16 -19 -2 -37 31 -42 19
-3 19 -2 5 13 -9 8 -21 12 -27 8 -7 -4 -10 -1 -7 7 3 8 11 13 18 11 11 -3 11
0 0 12 -7 9 -19 16 -27 16 -8 0 -11 5 -8 10 12 20 -1 9 -37 -32z"/>
<path d="M1037 7573 c-13 -12 -7 -22 12 -20 15 1 17 4 9 14 -12 15 -13 15 -21
6z"/>
<path d="M1214 7569 c-3 -5 -2 -9 3 -8 4 1 10 0 13 -1 18 -7 72 -5 77 3 3 6 1
7 -5 3 -5 -3 -13 0 -15 6 -4 10 -6 10 -6 0 -1 -7 -5 -10 -11 -7 -19 11 -50 14
-56 4z"/>
<path d="M5345 8380 c3 -5 14 -10 23 -10 15 0 15 2 2 10 -20 13 -33 13 -25 0z"/>
<path d="M5420 8351 c-12 -8 -15 -40 -17 -165 -1 -176 -11 -160 98 -171 44 -4
69 -3 74 4 3 6 14 11 24 11 26 0 87 63 94 97 15 75 -32 174 -97 208 -34 18
-157 29 -176 16z"/>
<path d="M5705 8330 c3 -5 8 -10 11 -10 2 0 4 5 4 10 0 6 -5 10 -11 10 -5 0
-7 -4 -4 -10z"/>
<path d="M5343 7837 c0 -8 6 -14 14 -14 9 0 10 4 2 14 -6 7 -12 13 -14 13 -1
0 -2 -6 -2 -13z"/>
<path d="M2417 8095 c-9 -21 13 -30 29 -11 8 9 9 11 2 6 -19 -15 -32 -12 -18
5 7 9 8 15 2 15 -5 0 -12 -7 -15 -15z"/>
<path d="M2360 7730 c0 -5 7 -10 16 -10 8 0 12 5 9 10 -3 6 -10 10 -16 10 -5
0 -9 -4 -9 -10z"/>
<path d="M1805 7690 c3 -5 11 -10 16 -10 6 0 7 5 4 10 -3 6 -11 10 -16 10 -6
0 -7 -4 -4 -10z"/>
<path d="M1848 7688 c-9 -5 -6 -7 9 -5 12 2 25 6 28 8 8 9 -23 6 -37 -3z"/>
<path d="M2430 7661 c0 -6 5 -13 10 -16 6 -3 10 1 10 9 0 9 -4 16 -10 16 -5 0
-10 -4 -10 -9z"/>
<path d="M2351 7636 c-6 -7 -8 -16 -4 -19 3 -4 0 -13 -7 -22 -17 -20 -3 -19
17 1 13 12 13 18 4 24 -9 5 -10 10 -2 14 14 9 33 -2 26 -15 -4 -5 -2 -9 4 -9
5 0 9 8 8 18 -1 21 -31 26 -46 8z"/>
<path d="M1945 7629 c-4 -6 -5 -12 -2 -15 2 -3 7 2 10 11 7 17 1 20 -8 4z"/>
<path d="M2230 7601 c0 -6 5 -11 12 -11 6 0 8 -3 5 -7 -4 -3 -2 -12 3 -19 14
-15 47 -7 55 14 3 9 3 13 -1 9 -4 -4 -14 -1 -23 6 -14 10 -14 10 -4 -3 10 -13
9 -16 -7 -16 -10 0 -17 3 -14 7 2 4 -3 12 -11 19 -10 9 -15 9 -15 1z"/>
<path d="M1970 7590 c-13 -8 -12 -10 3 -10 9 0 17 5 17 10 0 12 -1 12 -20 0z"/>
<path d="M2154 7589 c-3 -6 -21 -9 -39 -7 -22 2 -31 0 -28 -8 7 -18 50 -14 69
7 9 11 14 19 11 19 -3 0 -9 -5 -13 -11z"/>
<path d="M2210 7576 c0 -2 8 -10 18 -17 15 -13 16 -12 3 4 -13 16 -21 21 -21
13z"/>
<path d="M2050 7549 c0 -5 11 -9 25 -9 14 0 25 2 25 4 0 2 -11 6 -25 8 -14 3
-25 1 -25 -3z"/>
<path d="M2136 7550 c-19 -6 -19 -7 2 -12 12 -4 24 -2 27 2 8 13 -8 18 -29 10z"/>
<path d="M2189 7543 c-13 -16 -12 -17 4 -4 9 7 17 15 17 17 0 8 -8 3 -21 -13z"/>
<path d="M3372 7248 c-19 -19 -14 -29 8 -16 20 13 27 28 12 28 -4 0 -13 -5
-20 -12z"/>
<path d="M3550 7241 c-13 -25 -13 -47 0 -71 14 -26 38 -15 49 24 14 54 -25 92
-49 47z"/>
<path d="M2040 6844 l0 -87 47 6 c55 6 73 25 73 79 0 52 -35 88 -85 88 l-35 0
0 -86z"/>
<path d="M2295 6875 c-9 -67 -3 -85 29 -85 67 0 103 37 85 89 -13 36 -35 51
-78 51 -28 0 -30 -2 -36 -55z"/>
<path d="M3254 6911 c-117 -73 -23 -296 110 -260 98 27 112 166 25 246 -35 32
-96 39 -135 14z"/>
<path d="M4404 6916 c-3 -7 -4 -38 -2 -67 l3 -54 44 1 c69 2 93 53 50 108 -15
19 -30 26 -55 26 -20 0 -37 -6 -40 -14z"/>
<path d="M4790 6924 c-63 -22 -90 -57 -90 -119 0 -124 129 -201 212 -126 31
27 33 33 32 91 -1 44 -6 68 -21 87 -37 50 -95 80 -133 67z"/>
<path d="M2193 6308 c-22 -24 -37 -94 -23 -103 18 -11 60 40 66 83 8 49 -9 57
-43 20z"/>
<path d="M3727 6380 c-33 -79 -33 -80 12 -80 47 0 48 5 21 70 l-18 45 -15 -35z"/>
<path d="M4007 6463 c-4 -3 -7 -30 -7 -60 0 -51 1 -53 28 -53 41 0 56 15 56
55 0 25 -6 42 -19 51 -20 15 -47 18 -58 7z"/>
<path d="M4000 6261 c0 -76 7 -85 61 -74 91 18 64 143 -31 143 l-30 0 0 -69z"/>
<path d="M4283 6359 l-20 -54 39 -3 c22 -2 42 -1 44 1 3 2 -6 28 -19 58 l-23
53 -21 -55z"/>
<path d="M2747 6378 c-33 -79 -33 -78 17 -78 l46 0 -21 53 c-11 28 -22 54 -24
56 -2 2 -10 -12 -18 -31z"/>
<path d="M2370 6311 c-18 -35 -11 -45 15 -21 13 12 22 27 19 31 -9 15 -23 10
-34 -10z"/>
<path d="M3150 5810 c0 -11 5 -20 10 -20 6 0 10 9 10 20 0 11 -4 20 -10 20 -5
0 -10 -9 -10 -20z"/>
<path d="M2933 5785 c0 -22 2 -30 4 -17 2 12 2 30 0 40 -3 9 -5 -1 -4 -23z"/>
<path d="M3656 5805 c4 -8 10 -12 15 -9 11 6 2 24 -11 24 -5 0 -7 -7 -4 -15z"/>
<path d="M3300 5799 c0 -5 5 -7 10 -4 6 3 10 8 10 11 0 2 -4 4 -10 4 -5 0 -10
-5 -10 -11z"/>
<path d="M3790 5791 c0 -10 30 -24 37 -17 3 3 2 9 -2 15 -8 13 -35 15 -35 2z"/>
<path d="M3877 5793 c-4 -3 -7 -13 -7 -22 1 -13 3 -13 11 2 11 19 8 33 -4 20z"/>
<path d="M3935 5790 c-2 -3 1 -12 6 -20 7 -12 11 -12 17 -2 13 19 62 11 62
-10 0 -10 4 -18 8 -18 12 0 12 39 0 46 -14 9 -88 12 -93 4z"/>
<path d="M3390 5780 c0 -5 5 -10 10 -10 6 0 10 5 10 10 0 6 -4 10 -10 10 -5 0
-10 -4 -10 -10z"/>
<path d="M3845 5760 c-3 -5 -1 -10 4 -10 6 0 11 5 11 10 0 6 -2 10 -4 10 -3 0
-8 -4 -11 -10z"/>
<path d="M2901 5744 c0 -11 3 -14 6 -6 3 7 2 16 -1 19 -3 4 -6 -2 -5 -13z"/>
<path d="M2670 5709 c0 -5 5 -7 10 -4 6 3 10 8 10 11 0 2 -4 4 -10 4 -5 0 -10
-5 -10 -11z"/>
<path d="M2717 5709 c7 -7 15 -10 18 -7 3 3 -2 9 -12 12 -14 6 -15 5 -6 -5z"/>
<path d="M4245 5690 c3 -5 11 -10 16 -10 6 0 7 5 4 10 -3 6 -11 10 -16 10 -6
0 -7 -4 -4 -10z"/>
<path d="M2745 5680 c3 -5 10 -10 16 -10 5 0 9 5 9 10 0 6 -7 10 -16 10 -8 0
-12 -4 -9 -10z"/>
<path d="M4417 5670 c-6 -24 -7 -24 -21 -5 -9 11 -16 15 -16 9 0 -6 7 -17 15
-24 20 -16 39 -1 33 26 -3 16 -5 15 -11 -6z"/>
<path d="M2636 5665 c4 -8 11 -15 16 -15 6 0 5 6 -2 15 -7 8 -14 15 -16 15 -2
0 -1 -7 2 -15z"/>
<path d="M4325 5650 c-3 -5 -1 -10 4 -10 6 0 11 5 11 10 0 6 -2 10 -4 10 -3 0
-8 -4 -11 -10z"/>
<path d="M2545 5600 c-4 -6 -10 -8 -15 -5 -8 5 -24 -25 -16 -32 8 -9 46 18 46
32 0 17 -6 19 -15 5z"/>
<path d="M2360 5581 c0 -11 5 -23 10 -26 6 -4 10 5 10 19 0 14 -4 26 -10 26
-5 0 -10 -9 -10 -19z"/>
<path d="M2414 5585 c8 -8 19 -15 25 -15 6 0 11 -5 11 -11 0 -5 4 -8 9 -5 5 3
7 15 4 27 -4 16 -8 17 -14 7 -7 -10 -9 -10 -9 0 0 6 -9 12 -21 12 -18 0 -19
-2 -5 -15z"/>
<path d="M2483 5570 c1 -16 5 -30 10 -30 4 0 6 14 5 30 -1 17 -6 30 -10 30 -4
0 -6 -13 -5 -30z"/>
<path d="M2578 5593 c7 -3 16 -2 19 1 4 3 -2 6 -13 5 -11 0 -14 -3 -6 -6z"/>
<path d="M2405 5550 c10 -11 22 -17 27 -14 12 8 -11 34 -30 34 -13 0 -12 -3 3
-20z"/>
<path d="M2341 5513 c0 -13 2 -14 6 -4 4 11 7 11 14 0 4 -7 11 -10 14 -7 10
10 -4 28 -21 28 -8 0 -14 -8 -13 -17z"/>
<path d="M2393 5504 c-13 -29 -9 -30 18 -5 15 14 17 20 7 24 -8 2 -19 -6 -25
-19z"/>
<path d="M2335 5480 c3 -5 8 -10 11 -10 2 0 4 5 4 10 0 6 -5 10 -11 10 -5 0
-7 -4 -4 -10z"/>
<path d="M2300 5461 c0 -12 5 -21 10 -21 6 0 10 6 10 14 0 8 -4 18 -10 21 -5
3 -10 -3 -10 -14z"/>
<path d="M2267 5453 c-12 -20 5 -44 23 -33 9 6 10 10 3 10 -6 0 -13 8 -15 18
-3 12 -6 14 -11 5z"/>
<path d="M2234 5406 c0 -13 6 -22 12 -19 7 2 10 13 7 24 -7 27 -21 24 -19 -5z"/>
<path d="M2200 5390 c0 -5 5 -10 10 -10 6 0 10 5 10 10 0 6 -4 10 -10 10 -5 0
-10 -4 -10 -10z"/>
<path d="M2110 5346 c0 -8 5 -18 10 -21 6 -3 10 1 10 9 0 8 -4 18 -10 21 -5 3
-10 -1 -10 -9z"/>
<path d="M4930 5310 c0 -5 5 -10 10 -10 6 0 10 5 10 10 0 6 -4 10 -10 10 -5 0
-10 -4 -10 -10z"/>
<path d="M5085 5169 c-6 -9 20 -30 28 -22 12 12 7 30 -8 30 -9 0 -18 -4 -20
-8z"/>
<path d="M5140 5101 c0 -5 7 -12 16 -15 24 -9 28 -7 14 9 -14 17 -30 20 -30 6z"/>
<path d="M1780 4922 c0 -4 10 -13 23 -21 22 -14 22 -14 3 8 -20 22 -26 25 -26
13z"/>
<path d="M4825 4735 c-39 -35 -64 -64 -57 -65 6 0 12 5 12 10 0 6 3 9 8 8 4
-2 28 14 53 35 25 20 50 37 56 37 5 0 24 -20 42 -45 18 -25 36 -45 40 -45 21
0 16 17 -20 62 -21 27 -39 54 -39 59 0 22 -31 4 -95 -56z"/>
<path d="M4536 4774 c-11 -7 -18 -16 -15 -18 2 -2 13 2 23 10 11 7 18 16 15
18 -2 2 -13 -2 -23 -10z"/>
<path d="M1685 4670 c-3 -5 1 -10 10 -10 9 0 13 5 10 10 -3 6 -8 10 -10 10 -2
0 -7 -4 -10 -10z"/>
<path d="M4556 4452 c-3 -4 4 -9 15 -9 23 -2 25 3 4 10 -8 4 -16 3 -19 -1z"/>
<path d="M4592 4419 c2 -7 10 -15 17 -17 8 -3 12 1 9 9 -2 7 -10 15 -17 17 -8
3 -12 -1 -9 -9z"/>
<path d="M1540 4309 c0 -5 9 -9 20 -9 11 0 20 2 20 4 0 2 -9 6 -20 9 -11 3
-20 1 -20 -4z"/>
<path d="M1510 4283 c0 -14 3 -23 7 -19 10 10 11 46 1 46 -4 0 -8 -12 -8 -27z"/>
<path d="M1510 4210 c0 -5 5 -10 11 -10 5 0 7 5 4 10 -3 6 -8 10 -11 10 -2 0
-4 -4 -4 -10z"/>
<path d="M1511 4164 c0 -11 3 -14 6 -6 3 7 2 16 -1 19 -3 4 -6 -2 -5 -13z"/>
<path d="M1512 4110 c0 -14 2 -19 5 -12 2 6 2 18 0 25 -3 6 -5 1 -5 -13z"/>
<path d="M5601 4074 c0 -11 3 -14 6 -6 3 7 2 16 -1 19 -3 4 -6 -2 -5 -13z"/>
<path d="M1504 3814 c3 -9 6 -18 6 -20 0 -2 8 -4 18 -3 10 0 12 3 5 6 -7 2
-13 11 -13 19 0 8 -5 14 -11 14 -6 0 -8 -7 -5 -16z"/>
<path d="M5584 3499 c-3 -6 -1 -16 5 -22 8 -8 11 -5 11 11 0 24 -5 28 -16 11z"/>
<path d="M5800 3484 c0 -8 5 -12 10 -9 6 3 10 10 10 16 0 5 -4 9 -10 9 -5 0
-10 -7 -10 -16z"/>
<path d="M5833 3459 c-2 -23 3 -25 10 -4 4 8 3 16 -1 19 -4 3 -9 -4 -9 -15z"/>
<path d="M5750 3450 c-12 -7 -10 -9 8 -7 12 0 22 5 22 9 0 11 -12 10 -30 -2z"/>
<path d="M5580 3442 c0 -5 7 -17 16 -28 14 -17 15 -17 10 -1 -3 10 -6 23 -6
28 0 5 -4 9 -10 9 -5 0 -10 -4 -10 -8z"/>
<path d="M5830 3414 c0 -8 5 -12 10 -9 6 4 8 11 5 16 -9 14 -15 11 -15 -7z"/>
<path d="M5780 3416 c0 -2 7 -6 15 -10 8 -3 15 -1 15 4 0 6 -7 10 -15 10 -8 0
-15 -2 -15 -4z"/>
<path d="M5831 3374 c0 -11 3 -14 6 -6 3 7 2 16 -1 19 -3 4 -6 -2 -5 -13z"/>
<path d="M5590 3363 c0 -9 3 -13 7 -10 3 4 12 2 20 -4 7 -6 13 -7 13 -3 0 5
-9 15 -20 22 -17 10 -20 10 -20 -5z"/>
<path d="M5801 3354 c0 -11 3 -14 6 -6 3 7 2 16 -1 19 -3 4 -6 -2 -5 -13z"/>
<path d="M5735 3350 c3 -5 8 -10 11 -10 2 0 4 5 4 10 0 6 -5 10 -11 10 -5 0
-7 -4 -4 -10z"/>
<path d="M5617 3315 c-4 -8 -2 -17 3 -20 6 -4 10 3 10 14 0 25 -6 27 -13 6z"/>
<path d="M5802 3300 c0 -14 2 -19 5 -12 2 6 2 18 0 25 -3 6 -5 1 -5 -13z"/>
<path d="M5860 3301 c0 -25 6 -27 13 -6 4 8 2 17 -3 20 -6 4 -10 -3 -10 -14z"/>
<path d="M5920 3305 c0 -8 5 -15 10 -15 6 0 10 7 10 15 0 8 -4 15 -10 15 -5 0
-10 -7 -10 -15z"/>
<path d="M5672 3290 c0 -14 2 -19 5 -12 2 6 2 18 0 25 -3 6 -5 1 -5 -13z"/>
<path d="M5885 3260 c-3 -5 -1 -10 4 -10 6 0 11 5 11 10 0 6 -2 10 -4 10 -3 0
-8 -4 -11 -10z"/>
<path d="M5861 3244 c0 -11 3 -14 6 -6 3 7 2 16 -1 19 -3 4 -6 -2 -5 -13z"/>
<path d="M1630 3110 c0 -5 5 -10 11 -10 5 0 7 5 4 10 -3 6 -8 10 -11 10 -2 0
-4 -4 -4 -10z"/>
<path d="M1770 2790 c0 -5 7 -10 15 -10 8 0 15 -4 15 -10 0 -5 4 -10 9 -10 5
0 7 9 4 20 -5 20 -43 29 -43 10z"/>
<path d="M2070 2734 c0 -7 27 -34 34 -34 3 0 3 6 0 14 -5 14 -34 31 -34 20z"/>
<path d="M1860 2719 c0 -5 5 -7 10 -4 6 3 10 8 10 11 0 2 -4 4 -10 4 -5 0 -10
-5 -10 -11z"/>
<path d="M1862 2660 c0 -14 2 -19 5 -12 2 6 2 18 0 25 -3 6 -5 1 -5 -13z"/>
<path d="M2050 2658 c0 -7 4 -19 9 -27 7 -10 9 -7 8 12 -2 26 -17 39 -17 15z"/>
<path d="M1770 2649 c0 -5 5 -7 10 -4 6 3 10 8 10 11 0 2 -4 4 -10 4 -5 0 -10
-5 -10 -11z"/>
<path d="M1800 2630 c0 -5 5 -10 10 -10 6 0 10 5 10 10 0 6 -4 10 -10 10 -5 0
-10 -4 -10 -10z"/>
<path d="M1935 2630 c-3 -6 1 -7 9 -4 18 7 21 14 7 14 -6 0 -13 -4 -16 -10z"/>
<path d="M2010 2629 c0 -6 -7 -9 -15 -5 -10 3 -15 -1 -15 -13 0 -10 9 -21 20
-24 17 -4 20 0 20 24 0 16 -2 29 -5 29 -3 0 -5 -5 -5 -11z"/>
<path d="M1933 2593 c9 -9 20 -13 24 -9 4 4 1 11 -7 16 -25 16 -35 11 -17 -7z"/>
<path d="M1855 2590 c3 -5 8 -10 11 -10 2 0 4 5 4 10 0 6 -5 10 -11 10 -5 0
-7 -4 -4 -10z"/>
<path d="M4451 3464 c0 -11 3 -14 6 -6 3 7 2 16 -1 19 -3 4 -6 -2 -5 -13z"/>
<path d="M4531 3464 c0 -11 3 -14 6 -6 3 7 2 16 -1 19 -3 4 -6 -2 -5 -13z"/>
<path d="M3213 1135 c-32 -22 -47 -77 -33 -119 26 -80 117 -110 166 -53 41 47
26 149 -25 177 -28 15 -83 12 -108 -5z"/>
<path d="M2919 1120 c-1 -22 -2 -46 -3 -52 -1 -15 52 -12 72 4 18 15 15 59 -5
74 -10 7 -28 14 -40 14 -20 0 -23 -6 -24 -40z"/>
<path d="M3624 460 c-30 -11 -48 -59 -35 -93 13 -33 27 -33 63 -4 39 32 46 70
16 89 -15 10 -31 12 -44 8z"/>
<path d="M3466 452 c-8 -14 -11 -91 -3 -98 10 -10 37 16 37 36 0 25 -27 73
-34 62z"/>
</g>
</svg>
