<?xml version="1.0" standalone="no"?>
<!DOCTYPE svg PUBLIC "-//W3C//DTD SVG 20010904//EN"
 "http://www.w3.org/TR/2001/REC-SVG-20010904/DTD/svg10.dtd">
<svg version="1.0" xmlns="http://www.w3.org/2000/svg"
 width="800" height="1200"  viewBox="0 0 696 1000"
 preserveAspectRatio="xMidYMid meet">

<g transform="translate(0.000000,1000.000000) scale(0.100000,-0.100000)"
fill="#000000" stroke="none">
<path d="M60 5000 c0 -2750 3 -5000 6 -5000 10 0 34 28 34 40 0 6 11 15 25 20
31 12 75 -3 75 -25 0 -17 -11 -20 -26 -5 -8 8 -19 7 -37 -1 -44 -20 -31 -29
44 -29 45 0 68 4 64 10 -4 6 -11 8 -16 5 -5 -4 -9 -1 -9 5 0 6 7 13 15 16 8 4
15 16 15 28 0 16 -2 18 -9 7 -11 -17 -32 -5 -24 15 6 16 42 10 55 -9 7 -12 5
-48 -4 -62 -4 -6 50 -11 140 -12 92 -2 141 1 132 7 -8 5 -11 13 -6 17 4 4 13
0 20 -10 17 -22 35 -22 52 1 13 16 15 16 29 -2 12 -16 17 -17 30 -6 10 8 15 9
15 1 0 -8 622 -11 2305 -11 1464 0 2305 3 2305 9 0 9 -7 29 -31 86 -4 11 -16
38 -25 60 -11 28 -17 78 -20 165 -3 146 -9 178 -34 205 -10 11 -28 45 -41 75
-12 30 -27 62 -34 70 -6 8 -17 33 -24 55 -7 22 -19 47 -25 55 -7 8 -18 34 -26
58 -11 35 -17 42 -40 42 -28 0 -50 16 -50 37 0 10 5 11 19 3 31 -16 38 -11 14
9 -30 25 -40 55 -54 158 -11 90 -12 137 -3 208 8 67 13 153 18 305 3 98 10
160 21 191 14 42 20 47 53 52 26 5 41 2 54 -10 17 -15 18 -14 19 18 1 20 3 26
6 14 10 -47 13 -49 29 -27 8 12 22 22 30 22 8 0 14 4 14 10 0 5 7 7 15 4 10
-4 15 0 15 15 0 14 -5 19 -15 15 -9 -4 -15 0 -15 10 0 9 6 13 14 10 14 -5 39
27 34 43 -2 4 7 18 18 29 16 16 25 19 33 11 7 -7 19 0 41 23 26 28 38 33 78
34 34 1 46 5 44 15 -3 17 17 43 29 35 15 -9 10 19 -8 38 -9 10 -11 18 -5 18 6
0 13 -4 16 -9 3 -5 15 -7 27 -4 16 5 19 11 15 30 -4 13 -1 33 5 45 10 18 9 20
-5 15 -17 -7 -21 3 -7 19 5 5 11 18 13 29 4 26 25 48 38 40 5 -3 17 -21 26
-40 13 -29 14 -38 4 -50 -7 -9 -11 -17 -9 -20 11 -10 93 18 111 38 13 15 21
18 24 9 9 -20 24 -3 25 26 l0 27 10 -25 c15 -36 29 -8 29 60 1 54 1 55 16 28
17 -33 29 -35 44 -8 8 14 21 20 45 20 36 0 47 -16 20 -26 -8 -4 -15 -17 -15
-30 0 -13 -5 -24 -11 -24 -5 0 -8 -4 -4 -10 3 -5 12 -7 20 -3 8 3 15 0 15 -6
0 -6 5 -11 10 -11 7 0 7 7 -1 21 -9 17 -8 25 5 37 15 15 16 14 16 -6 0 -12 5
-22 10 -22 6 0 10 -6 10 -14 0 -8 10 -18 22 -22 20 -6 20 -8 5 -19 -21 -15
-24 -105 -4 -105 8 0 11 12 9 38 -2 23 3 45 12 57 15 19 15 19 16 -7 0 -28 22
-39 35 -18 12 19 35 10 35 -14 0 -31 25 -53 44 -37 10 9 16 8 26 -4 10 -12 10
-15 -3 -15 -11 0 -14 -6 -10 -15 3 -9 10 -14 17 -12 14 5 36 -17 36 -37 0 -9
8 -16 20 -16 21 0 39 -24 35 -49 -1 -9 0 -10 2 -4 3 7 11 13 18 13 8 0 20 9
27 19 21 30 81 33 76 4 -2 -11 5 -19 17 -21 11 -3 24 -9 28 -16 4 -6 5 1 1 16
-7 33 11 38 20 6 4 -17 8 -20 17 -11 7 7 8 17 3 25 -5 7 -7 21 -5 31 1 12 -5
20 -18 24 -17 4 -19 9 -10 19 6 7 9 26 8 41 -4 38 6 51 35 46 13 -3 27 0 30 6
10 15 47 14 45 -1 -4 -21 20 -70 31 -63 6 4 7 -6 4 -25 -7 -33 9 -42 24 -14
14 24 79 27 85 4 3 -13 11 -16 31 -13 22 5 28 1 33 -16 3 -11 9 -21 14 -21 5
0 9 -10 9 -22 0 -37 -23 -138 -32 -138 -4 0 -8 -7 -8 -15 0 -8 -5 -15 -11 -15
-6 0 -8 9 -4 20 4 11 2 20 -4 20 -17 0 -30 -34 -29 -79 0 -34 5 -45 19 -48 10
-3 21 -14 24 -24 4 -10 11 -19 16 -19 6 0 7 -5 3 -11 -4 -8 -9 -8 -17 0 -15
15 -27 14 -21 -3 3 -8 18 -20 34 -26 16 -7 31 -19 33 -28 3 -10 5 1856 6 4146
l1 4162 -3355 0 -3355 0 0 -5000z m2872 4503 c52 -47 62 -227 17 -319 -40 -84
-128 -97 -176 -26 -41 61 -42 200 -3 289 33 75 111 102 162 56z m2916 21 c18
-5 22 -13 22 -45 0 -48 -12 -50 -29 -4 -16 45 -40 45 -79 1 -37 -42 -57 -127
-49 -206 10 -87 44 -139 95 -140 21 0 22 4 22 75 0 69 -2 75 -21 75 -11 0 -17
5 -14 10 8 13 105 13 105 1 0 -5 -5 -11 -12 -13 -8 -3 -14 -33 -16 -81 l-4
-76 -34 -7 c-103 -19 -173 54 -174 181 0 33 4 76 10 95 12 45 65 109 104 126
36 15 43 16 74 8z m-4746 -16 c-8 -8 -12 -57 -12 -155 0 -156 -7 -183 -56
-222 -15 -12 -41 -21 -60 -21 -30 0 -34 3 -40 35 -9 47 1 54 21 16 19 -37 48
-40 70 -7 13 19 15 53 13 187 -2 117 -6 164 -15 164 -6 0 -15 3 -19 8 -4 4 19
7 51 7 46 0 56 -3 47 -12z m324 -4 c-12 -11 -16 -36 -16 -92 0 -42 4 -72 8
-66 5 5 30 40 56 78 37 54 44 71 35 82 -9 12 -4 14 30 14 39 0 55 -12 28 -23
-7 -2 -39 -39 -71 -81 l-58 -76 34 -42 c19 -24 45 -61 58 -83 13 -22 35 -52
48 -67 l26 -28 -43 0 c-35 0 -42 3 -37 16 6 15 -95 154 -112 154 -4 0 -6 -32
-5 -72 1 -56 5 -75 19 -85 15 -11 11 -13 -36 -13 -42 0 -51 3 -42 12 8 8 12
64 12 188 0 124 -4 180 -12 188 -9 9 0 12 41 12 48 0 51 -1 37 -16z m890 4
c68 -24 82 -112 28 -169 -26 -27 -26 -29 -11 -61 8 -18 23 -53 33 -78 9 -25
24 -53 32 -62 14 -17 12 -18 -28 -18 -33 0 -41 3 -33 11 14 14 -33 115 -68
150 -29 29 -39 11 -39 -70 0 -49 4 -67 18 -77 15 -12 10 -13 -36 -14 -49 0
-52 1 -38 16 14 13 16 42 14 186 -1 130 -5 171 -15 175 -57 22 83 33 143 11z
m1080 -3 c-18 -13 -18 -21 -6 -147 21 -224 21 -224 59 -53 42 191 44 199 64
203 19 4 19 5 52 -193 14 -82 27 -151 29 -153 5 -4 12 39 32 197 13 101 15
136 6 139 -27 9 -9 22 28 22 40 0 48 -7 31 -25 -9 -10 -26 -86 -56 -245 -25
-139 -22 -132 -53 -128 -26 3 -28 6 -52 131 -14 70 -28 127 -31 127 -3 0 -11
-24 -18 -52 -6 -29 -21 -88 -32 -130 -20 -73 -23 -78 -48 -78 -27 0 -28 2 -44
98 -9 53 -22 138 -27 187 -6 50 -15 92 -21 93 -5 2 -9 8 -9 13 0 5 26 9 58 9
51 -1 55 -2 38 -15z m746 -3 c-22 -17 -22 -21 -20 -192 3 -160 5 -175 21 -174
9 1 28 2 42 3 17 1 30 11 40 32 20 38 28 32 20 -15 l-7 -36 -102 0 c-86 1 -98
3 -83 14 15 12 17 33 17 181 0 143 -3 171 -17 187 -15 17 -13 18 48 18 63 0
64 -1 41 -18z m542 -9 c-10 -21 -14 -68 -14 -187 0 -140 2 -160 18 -172 15
-12 10 -13 -37 -14 -43 0 -52 3 -43 12 15 15 17 368 2 368 -5 0 -10 5 -10 10
0 6 22 10 49 10 l50 0 -15 -27z m463 -5 c6 -18 32 -91 57 -163 l45 -130 1 153
c0 129 -2 152 -15 152 -8 0 -15 5 -15 10 0 6 18 10 40 10 22 0 40 -4 40 -10 0
-5 -4 -10 -9 -10 -4 0 -11 -87 -15 -192 -4 -106 -9 -194 -10 -196 -14 -13 -39
28 -83 136 -91 224 -81 218 -82 45 -1 -130 1 -153 14 -153 27 0 15 -17 -16
-24 -47 -9 -59 -7 -59 9 0 8 6 15 14 15 19 0 22 26 18 208 -2 125 -6 152 -17
152 -8 0 -15 5 -15 10 0 6 22 10 48 10 46 0 49 -2 59 -32z m-160 -113 c-3 -19
-1 -37 4 -40 5 -4 9 -16 9 -28 0 -18 2 -19 10 -7 8 13 10 12 10 -2 0 -10 -7
-18 -15 -18 -22 0 -18 -33 7 -66 13 -15 17 -25 10 -20 -8 5 -12 -1 -12 -18 0
-25 15 -36 22 -16 2 5 4 -16 4 -46 2 -60 14 -78 49 -68 17 4 18 3 5 -6 -11 -9
-12 -13 -2 -17 17 -7 15 -38 -3 -53 -13 -10 -13 -15 -3 -21 7 -4 18 -3 24 2 9
7 12 1 12 -24 0 -35 27 -77 48 -77 22 0 76 -62 71 -81 -3 -10 1 -23 8 -29 7
-6 10 -20 7 -32 -4 -15 -2 -19 7 -14 13 9 61 -40 61 -62 0 -8 8 -12 18 -10 15
3 52 -29 52 -46 0 -11 52 -56 65 -56 8 0 20 -9 27 -19 6 -11 18 -17 26 -13 10
3 13 1 8 -6 -7 -12 42 -42 69 -42 8 0 15 -5 15 -11 0 -22 -121 16 -200 62 -8
5 -28 16 -45 25 -81 45 -186 144 -252 239 -114 164 -169 413 -131 597 13 63
24 80 15 23z m-3790 -216 c16 -16 5 -39 -18 -39 -12 0 -19 7 -19 18 0 31 17
41 37 21z m501 -12 c4 -22 -27 -35 -38 -16 -10 15 7 42 24 36 6 -2 12 -11 14
-20z m3982 -737 c0 -5 -8 -10 -17 -10 -15 0 -16 2 -3 10 19 12 20 12 20 0z
m-2042 -237 l114 -6 -4 -49 c-4 -58 1 -59 96 -23 37 14 68 25 69 25 22 0 208
-229 233 -286 14 -32 6 -199 -16 -353 -6 -41 -7 -78 -3 -82 5 -4 20 -11 35
-14 21 -5 29 -2 38 17 7 12 24 36 39 51 32 35 220 127 259 127 31 0 126 -70
166 -123 43 -56 59 -155 57 -349 0 -92 -6 -189 -11 -214 -19 -84 -67 -129
-183 -172 -92 -35 -115 -31 -199 36 -91 73 -128 110 -139 140 -5 13 -9 113 -9
222 l0 199 -31 16 c-29 15 -32 15 -78 -13 -26 -16 -82 -41 -124 -56 -94 -32
-105 -28 -146 52 -60 116 -58 120 -67 -129 l-9 -224 -35 68 c-19 37 -37 67
-41 67 -3 0 -7 -73 -7 -162 -1 -90 -1 -184 -2 -210 0 -59 -16 -62 -38 -8 -9
22 -20 40 -24 40 -4 0 -9 -86 -10 -192 -2 -121 -7 -193 -13 -195 -7 -2 -23 83
-43 219 -18 123 -40 273 -49 335 -10 62 -14 116 -10 119 4 4 21 -8 37 -27 20
-23 29 -29 30 -18 0 31 -67 345 -92 426 -12 42 -4 57 25 41 12 -6 27 -18 34
-27 6 -9 14 -14 17 -11 2 3 -2 68 -9 145 -8 77 -22 210 -30 295 -9 85 -20 184
-25 220 -5 36 -10 71 -10 78 0 14 40 15 208 5z m-2209 -173 c3 0 -5 -10 -17
-22 -11 -13 -26 -36 -32 -53 -15 -37 -36 -493 -24 -505 5 -4 36 -4 69 0 85 12
233 12 240 1 3 -5 -15 -27 -41 -48 l-46 -38 7 -65 c6 -62 48 -237 60 -248 3
-3 13 2 22 11 12 12 20 42 25 95 9 98 9 444 0 499 l-7 41 -60 -27 c-79 -36
-95 -53 -95 -103 0 -58 -18 -45 -67 48 -56 105 -55 116 10 158 60 39 155 86
172 86 20 0 199 -192 220 -235 18 -37 20 -61 19 -278 l-1 -238 29 -6 c24 -5
41 -23 20 -23 -4 0 -42 -34 -85 -75 -57 -55 -84 -75 -104 -75 -31 0 -63 26
-63 52 0 24 -6 23 -49 -11 -20 -15 -47 -34 -59 -40 -35 -19 -76 2 -95 47 -29
66 -77 251 -77 294 0 36 6 47 47 86 l46 45 -39 -7 c-53 -9 -92 -25 -98 -41 -2
-7 -6 -172 -7 -366 -2 -387 1 -416 52 -473 16 -19 26 -37 21 -40 -5 -3 -49 2
-98 10 -49 8 -138 14 -199 13 -126 -2 -135 4 -82 59 42 45 53 78 67 204 12
111 14 472 3 466 -5 -2 -42 -20 -83 -41 -41 -20 -89 -40 -107 -43 l-33 -6 0
-235 0 -235 37 -34 c20 -19 34 -37 30 -40 -4 -4 -46 -1 -94 6 -49 7 -144 14
-213 16 -98 3 -126 7 -128 18 -2 8 10 22 26 30 39 20 70 59 82 105 12 45 16
333 5 350 -4 8 -40 28 -79 47 -78 36 -119 73 -161 147 -32 57 -29 62 46 82
106 29 133 12 50 -30 -27 -13 -52 -29 -55 -33 -9 -15 163 -122 196 -122 14 0
4 644 -11 683 -6 15 -22 32 -36 39 -14 6 -25 17 -25 25 0 10 38 13 190 13 203
0 210 -2 168 -48 -23 -23 -23 -27 -26 -348 -2 -261 0 -324 10 -324 7 0 59 27
116 60 l102 60 0 291 c0 240 -3 295 -15 319 -9 17 -20 30 -25 30 -6 0 -10 6
-10 14 0 13 90 15 359 6z m1214 -62 c-1 -40 3 -68 9 -68 6 0 34 14 63 30 29
17 59 28 66 25 18 -7 110 -211 103 -227 -5 -13 -54 -46 -142 -96 -33 -18 -46
-22 -55 -13 -8 8 -6 16 10 32 18 18 19 27 11 61 -14 63 -36 110 -50 106 -10
-4 -15 -85 -20 -349 -6 -329 -6 -345 13 -371 10 -15 19 -28 19 -30 0 -9 -314
2 -324 12 -8 8 -1 19 26 43 23 20 41 47 48 72 9 34 17 179 33 573 3 80 3 82
-20 82 -34 0 -29 12 25 60 26 23 68 63 95 87 32 29 55 43 69 41 20 -3 21 -9
21 -70z m-492 -8 c15 -9 19 -22 19 -65 0 -30 4 -55 9 -55 5 0 29 12 55 26 71
39 82 33 127 -71 21 -49 39 -106 39 -126 0 -35 -4 -39 -81 -88 -88 -57 -125
-62 -90 -14 20 28 20 28 -2 113 -17 64 -27 86 -41 88 -17 4 -18 -2 -12 -85 3
-48 11 -196 16 -328 12 -265 16 -304 36 -312 8 -3 14 -11 14 -19 0 -11 -30
-14 -160 -14 -88 0 -160 4 -160 8 0 5 15 23 34 40 l34 30 6 299 c3 164 3 323
-1 353 l-8 55 -58 -3 c-43 -3 -57 -1 -56 10 0 14 225 167 247 167 7 1 22 -4
33 -9z m2867 -113 c3 -129 2 -128 77 -124 29 2 30 0 33 -45 l3 -48 -58 0 -59
0 -2 -213 c-1 -117 -7 -271 -12 -342 -6 -72 -13 -190 -17 -264 l-6 -135 46
-40 c33 -29 44 -45 38 -54 -6 -11 -30 -3 -107 37 -54 27 -112 61 -129 74 -29
24 -30 28 -30 109 0 45 6 193 13 328 7 135 12 304 10 375 l-3 130 -77 3 c-70
3 -78 5 -78 22 0 11 5 20 11 20 14 0 156 105 207 154 24 22 59 63 79 89 19 26
40 46 47 44 7 -2 12 -45 14 -120z m332 -105 l5 -147 45 3 c67 5 100 -11 100
-48 0 -33 -1 -33 -92 -30 -44 1 -48 -1 -49 -22 0 -13 -2 -215 -4 -450 -3 -481
-11 -432 82 -484 l51 -28 41 27 c23 15 41 31 41 36 0 4 -26 13 -57 20 -84 18
-93 21 -93 33 0 16 246 6 262 -10 11 -11 -1 -27 -65 -89 -71 -68 -82 -75 -110
-70 -39 6 -293 115 -327 140 l-25 18 3 439 4 440 -45 0 c-25 0 -48 4 -52 9 -3
6 28 47 69 92 41 45 103 127 137 181 34 54 64 96 68 93 3 -4 8 -73 11 -153z
m855 -33 c4 -6 7 -27 7 -47 0 -20 2 -40 4 -44 2 -4 34 11 70 33 36 22 72 38
80 35 22 -8 126 -228 118 -249 -6 -17 -172 -153 -198 -163 -26 -10 -27 16 -2
48 l24 33 -24 85 c-14 47 -28 88 -33 93 -5 5 -16 1 -25 -9 -16 -15 -17 -47
-10 -393 4 -245 10 -385 18 -400 14 -32 63 -60 129 -75 35 -8 53 -17 55 -29 3
-15 -6 -17 -80 -17 -66 0 -112 8 -209 35 -68 19 -148 38 -176 41 -57 7 -72 29
-28 40 39 10 74 64 85 130 6 33 10 191 10 352 l0 292 -30 0 c-36 0 -37 7 -7
40 35 40 197 180 207 180 5 0 12 -5 15 -11z m-368 -116 c65 -37 69 -42 96
-108 15 -39 34 -84 42 -102 8 -17 15 -39 15 -49 0 -28 -62 -124 -80 -124 -9 0
-49 11 -88 24 -40 14 -92 28 -117 32 l-45 6 0 -176 c0 -187 7 -223 48 -260 12
-10 27 -16 35 -13 13 5 77 182 77 212 0 27 19 16 40 -22 11 -21 26 -46 32 -55
10 -14 7 -24 -20 -60 -18 -24 -49 -64 -68 -90 -35 -47 -37 -48 -91 -48 -63 0
-93 18 -166 98 -23 25 -53 57 -67 72 l-25 26 9 239 c4 132 12 250 17 262 4 12
52 59 106 103 94 78 100 82 140 77 23 -2 71 -22 110 -44z m-2549 2 c18 -18
-359 -666 -494 -849 l-49 -66 -58 0 c-111 0 -384 69 -470 120 l-37 22 18 31
c9 17 34 48 55 70 l39 39 61 -7 c34 -4 73 -12 87 -17 24 -10 24 -11 5 -18 -11
-5 -41 -12 -68 -15 -41 -6 -49 -10 -61 -38 -9 -23 -10 -34 -2 -38 17 -11 142
-27 257 -35 l107 -7 72 108 c86 129 86 99 2 400 -49 173 -63 212 -80 220 -12
5 -22 15 -22 22 0 9 39 13 143 15 161 3 186 -1 138 -27 -30 -15 -32 -19 -26
-53 14 -80 51 -214 59 -215 12 -2 71 96 127 207 37 77 48 116 31 116 -5 0 -17
7 -28 16 -17 14 -11 15 85 10 57 -3 106 -8 109 -11z m-10 -1398 c14 -14 23
-39 25 -63 2 -39 2 -39 -38 -41 -35 -2 -37 -1 -16 7 20 9 23 15 18 47 -8 44
-22 62 -38 46 -16 -16 -22 -143 -9 -177 9 -26 14 -28 45 -23 35 6 48 -6 19
-17 -30 -11 -71 -6 -86 12 -40 45 -34 153 12 202 34 36 40 37 68 7z m341 8
c32 -16 41 -39 41 -111 0 -99 -76 -159 -130 -102 -19 20 -21 32 -18 97 3 68 6
75 36 102 38 34 35 33 71 14z m-415 -615 c-7 -219 -6 -231 12 -245 18 -14 16
-15 -21 -13 l-40 3 3 53 c3 61 -10 68 -26 14 -12 -40 -33 -64 -65 -75 -30 -11
-77 43 -78 90 -5 115 11 185 51 225 30 30 76 38 98 16 17 -17 18 -11 14 66 -3
57 -7 69 -23 73 -33 9 -10 23 37 23 l45 0 -7 -230z m1386 192 c0 -13 -52 -84
-57 -78 -10 10 29 86 44 86 7 0 13 -3 13 -8z m-3660 -11 c0 -5 3 -23 6 -40 8
-40 -11 -41 -25 -1 -9 27 -14 30 -55 30 l-46 0 -1 -62 c0 -35 -3 -75 -5 -90
-4 -26 -3 -27 47 -30 75 -4 78 -28 5 -28 l-56 0 0 -100 0 -100 55 0 c49 0 57
3 65 24 5 13 14 27 19 31 14 8 14 -30 1 -56 -10 -17 -22 -19 -115 -19 -63 0
-105 4 -105 10 0 6 7 10 15 10 13 0 15 29 15 205 0 176 -2 205 -15 205 -8 0
-15 5 -15 10 0 6 42 10 105 10 58 0 105 -4 105 -9z m3090 -6 c41 -21 60 -53
60 -103 0 -78 -46 -135 -120 -147 l-40 -7 0 -79 c0 -72 2 -79 20 -79 11 0 20
-4 20 -10 0 -6 -27 -10 -60 -10 -33 0 -60 4 -60 10 0 6 7 10 16 10 13 0 15 25
13 201 -2 187 -3 202 -20 206 -11 3 -19 9 -19 14 0 16 158 10 190 -6z m-2520
-10 c16 -19 -3 -45 -32 -45 -24 0 -34 26 -18 45 16 19 34 19 50 0z m3940 0
c10 -12 10 -18 0 -30 -7 -8 -18 -15 -25 -15 -7 0 -18 7 -25 15 -10 12 -10 18
0 30 7 8 18 15 25 15 7 0 18 -7 25 -15z m-5310 -59 c0 -3 -4 -8 -10 -11 -5 -3
-10 -1 -10 4 0 6 5 11 10 11 6 0 10 -2 10 -4z m3392 -54 c10 -10 23 -43 30
-74 22 -106 -28 -227 -100 -241 -73 -14 -122 51 -122 161 1 109 73 201 142
181 18 -5 40 -17 50 -27z m-2392 -44 l1 -73 19 49 c24 60 56 96 87 96 40 0 53
-50 53 -195 0 -77 4 -125 10 -125 6 0 10 -4 10 -10 0 -5 -20 -10 -45 -10 -42
0 -61 13 -33 22 8 3 11 37 10 113 -1 107 -15 169 -36 162 -29 -9 -66 -115 -81
-229 -5 -40 -3 -48 9 -48 9 0 16 -4 16 -10 0 -5 -22 -10 -50 -10 -27 0 -50 5
-50 10 0 6 7 10 15 10 13 0 15 22 15 140 0 137 -1 141 -22 149 -24 9 -18 14
27 24 44 10 45 9 45 -65z m371 -86 c-2 -139 -1 -155 16 -167 16 -13 12 -14
-34 -15 -29 0 -53 5 -53 10 0 6 5 10 10 10 6 0 10 54 10 141 0 132 -1 141 -20
146 -30 8 -24 21 13 26 64 8 61 16 58 -151z m369 148 c0 -5 -8 -10 -18 -10
-17 0 -19 -7 -14 -72 4 -68 3 -75 -22 -99 -14 -15 -46 -34 -71 -43 -55 -22
-58 -43 -7 -51 113 -18 163 -65 132 -123 -24 -43 -95 -74 -157 -69 -117 8
-141 82 -47 144 27 17 31 33 9 33 -29 0 -29 31 -1 54 l28 22 -25 13 c-57 30
-47 152 15 195 26 18 178 23 178 6z m177 -62 l-5 -73 24 55 c31 68 51 90 80
90 27 0 42 -24 53 -83 l8 -42 18 43 c19 46 57 82 86 82 10 0 27 -12 36 -27 15
-23 18 -50 18 -158 0 -104 3 -132 15 -142 12 -10 5 -12 -40 -12 -50 0 -53 1
-36 14 17 13 18 26 14 135 -3 89 -8 124 -19 135 -13 14 -17 13 -36 -7 -27 -31
-52 -109 -60 -186 -5 -54 -3 -65 13 -77 17 -13 14 -14 -33 -15 -51 0 -70 12
-39 23 12 5 14 27 9 124 -3 65 -10 126 -15 136 -9 18 -11 18 -28 2 -24 -22
-56 -122 -64 -199 -5 -49 -4 -61 11 -72 16 -12 11 -13 -37 -13 -49 0 -53 1
-37 13 16 13 17 26 11 155 -6 118 -10 141 -22 141 -21 0 -4 16 23 23 58 14 58
13 52 -65z m619 51 c16 -18 19 -40 22 -157 3 -113 6 -138 20 -149 15 -11 11
-12 -25 -13 -42 0 -43 1 -44 33 0 29 -1 30 -10 11 -6 -11 -24 -28 -40 -38 -28
-16 -32 -17 -55 -1 -59 38 -59 128 -1 193 21 23 71 30 82 12 16 -25 27 -8 21
32 -12 75 -39 87 -87 39 -35 -35 -48 -25 -17 14 37 48 102 59 134 24z m1605
-41 l0 -63 15 40 c17 47 51 85 76 85 23 0 30 -18 26 -62 l-4 -33 -14 28 c-8
16 -20 26 -29 25 -43 -8 -99 -278 -58 -278 9 0 19 -4 22 -10 4 -6 -17 -10 -57
-10 -55 1 -61 2 -45 14 15 11 17 31 17 150 0 132 -1 137 -22 145 -24 9 -18 14
27 24 44 10 45 9 46 -55z m292 -98 c-6 -145 -4 -160 10 -160 10 0 17 -4 17
-10 0 -5 -25 -10 -55 -10 -30 0 -55 5 -55 10 0 6 7 10 15 10 13 0 15 22 15
140 0 116 -3 142 -15 146 -24 9 -18 22 13 27 66 10 61 23 55 -153z m216 95
c-1 -36 1 -68 4 -72 4 -3 7 1 7 11 0 24 34 87 58 109 11 10 30 17 43 15 35 -5
47 -57 48 -195 1 -75 5 -123 11 -123 6 0 10 -4 10 -10 0 -5 -20 -10 -45 -10
-25 0 -45 5 -45 10 0 6 5 10 10 10 15 0 13 219 -3 249 -6 13 -16 24 -21 25
-17 2 -49 -65 -68 -143 -22 -94 -23 -131 -3 -131 8 0 15 -4 15 -10 0 -5 -22
-10 -50 -10 -48 0 -66 12 -35 24 13 4 15 29 14 141 0 130 -1 137 -22 145 -17
6 -18 9 -7 13 80 28 82 27 79 -48z m469 23 c4 -46 -9 -49 -25 -7 -15 40 -40
36 -67 -11 -17 -28 -21 -52 -21 -120 0 -128 27 -160 108 -125 27 12 20 -11 -8
-23 -40 -18 -98 -15 -122 8 -68 62 -48 235 34 300 19 14 38 20 62 18 34 -3 36
-5 39 -40z m195 -118 c-5 -144 -4 -160 11 -160 9 0 16 -4 16 -10 0 -13 -97
-13 -105 -1 -3 5 2 11 11 13 14 3 16 21 15 138 -1 106 -5 137 -16 146 -21 16
-19 22 13 27 65 10 61 23 55 -153z m209 95 l-3 -60 25 50 c29 56 49 75 83 75
69 0 83 -198 20 -292 -32 -46 -71 -67 -97 -50 -11 6 -22 12 -25 12 -3 0 -5
-27 -5 -60 0 -46 4 -61 18 -69 13 -8 4 -10 -37 -11 -43 0 -52 3 -43 12 9 9 12
72 12 220 0 178 -2 208 -15 208 -26 0 -16 18 13 23 55 9 57 6 54 -58z m432 40
c24 -26 36 -65 36 -115 0 -24 -5 -28 -37 -34 -21 -3 -53 -6 -70 -6 -30 0 -33
-3 -33 -30 0 -44 25 -97 49 -105 11 -3 33 1 50 9 35 19 41 19 41 6 0 -27 -100
-51 -145 -34 -30 12 -48 65 -47 139 0 151 87 245 156 170z m-3084 -372 c43
-28 81 -67 107 -107 14 -21 38 -43 54 -49 16 -6 29 -14 29 -18 0 -4 12 -10 28
-14 l27 -8 -25 -6 c-41 -11 -69 -1 -101 40 -17 22 -36 36 -43 33 -8 -3 -17 -1
-21 5 -3 6 -11 11 -17 11 -6 0 -3 -9 7 -20 10 -11 22 -20 26 -20 12 0 59 -41
59 -51 0 -4 -16 -5 -35 -2 -30 5 -34 3 -29 -11 6 -15 -5 -21 -29 -17 -4 1 -16
-3 -26 -9 -14 -7 -31 -4 -66 11 -26 11 -62 22 -81 24 -36 2 -109 47 -118 72
-3 8 16 -2 44 -22 27 -20 50 -32 50 -27 0 5 -7 15 -15 22 -8 7 -15 17 -15 22
0 6 18 -6 40 -26 39 -35 69 -48 54 -23 -6 9 -4 9 7 1 36 -27 51 -21 17 7 -21
17 -38 39 -38 49 0 11 -8 24 -17 29 -16 9 -16 10 5 11 12 0 22 -3 23 -7 3 -33
11 -49 31 -65 19 -14 24 -15 26 -2 3 11 10 9 34 -11 16 -14 34 -25 41 -25 6 0
-8 16 -31 36 -23 19 -42 40 -42 46 0 7 5 7 13 -1 17 -14 30 -2 16 15 -8 9 -2
11 25 9 20 -2 45 -7 57 -10 l22 -7 -22 31 c-12 17 -42 45 -67 61 -24 17 -44
33 -44 35 0 9 16 5 40 -12z m337 -52 c34 -17 38 -13 9 10 -15 12 -25 24 -22
26 3 3 17 -4 32 -16 32 -25 52 -28 33 -4 -13 17 -13 17 13 0 15 -9 39 -17 54
-17 27 0 27 0 8 22 -19 22 -19 23 1 8 31 -23 62 -54 95 -95 26 -33 30 -46 30
-104 1 -39 9 -89 20 -121 11 -30 19 -74 20 -98 0 -24 6 -55 14 -70 7 -15 17
-47 21 -71 4 -24 22 -76 41 -115 42 -89 67 -177 94 -337 12 -68 25 -128 30
-133 5 -5 29 1 55 14 53 26 134 116 164 184 10 25 29 51 40 58 12 7 21 23 21
36 0 26 41 72 64 72 8 0 21 7 30 15 13 14 16 13 25 -4 9 -16 7 -18 -15 -18
-34 0 -78 -34 -84 -65 -3 -14 -15 -38 -28 -54 -12 -16 -42 -63 -67 -104 -54
-92 -87 -125 -151 -150 l-49 -18 3 -44 c2 -23 12 -83 22 -133 22 -97 24 -118
11 -95 -11 18 -75 341 -92 455 -18 129 -59 263 -103 339 -13 23 -26 64 -28 94
-3 29 -11 59 -18 65 -10 9 -11 9 -6 -1 10 -17 -4 -103 -16 -96 -5 3 -6 31 -2
64 5 50 3 63 -15 88 -11 17 -21 39 -21 50 0 11 -6 23 -12 26 -10 3 -9 8 3 18
20 16 13 38 -12 38 -11 0 -19 7 -19 16 0 11 6 13 19 9 18 -5 19 -1 19 52 0 81
-12 107 -62 133 -36 18 -49 20 -79 12 -20 -6 -46 -8 -57 -5 -11 3 -20 1 -20
-5 0 -5 -14 -12 -31 -16 -16 -3 -37 -13 -45 -21 -20 -20 -74 -20 -74 0 0 8 -7
15 -17 15 -9 0 -13 3 -10 7 11 10 -24 43 -47 43 -19 1 -19 2 -4 11 12 7 25 6
40 -2 22 -11 22 -11 8 6 -8 10 -28 24 -45 31 -29 13 -29 13 -5 13 15 1 43 -15
70 -39 25 -22 53 -40 63 -40 24 0 21 13 -5 25 -12 6 -24 16 -26 24 -4 11 1 10
19 -2 39 -28 56 -21 26 11 -35 36 -35 53 0 21 20 -18 25 -20 20 -6 -19 48 -18
51 5 26 13 -15 33 -32 45 -38z m-302 -11 c3 -5 2 -10 -4 -10 -5 0 -13 5 -16
10 -3 6 -2 10 4 10 5 0 13 -4 16 -10z m-154 -97 c13 -16 12 -17 -3 -4 -10 7
-18 15 -18 17 0 8 8 3 21 -13z m-1601 -33 c0 -5 -2 -10 -4 -10 -3 0 -8 5 -11
10 -3 6 -1 10 4 10 6 0 11 -4 11 -10z m1465 -10 c3 -6 -1 -7 -9 -4 -18 7 -21
14 -7 14 6 0 13 -4 16 -10z m719 -9 c11 -4 15 -10 9 -14 -5 -3 -19 0 -29 8
-20 15 -11 18 20 6z m71 -11 c-3 -5 -11 -10 -16 -10 -6 0 -7 5 -4 10 3 6 11
10 16 10 6 0 7 -4 4 -10z m-738 -6 c-3 -3 -12 -4 -19 -1 -8 3 -5 6 6 6 11 1
17 -2 13 -5z m63 -9 c7 -8 20 -15 29 -15 10 0 26 -7 37 -16 18 -15 18 -15 -10
-9 l-30 6 25 -20 c13 -11 19 -20 13 -21 -12 0 -54 37 -54 48 0 4 -12 15 -27
24 -19 12 -23 18 -12 18 9 0 22 -7 29 -15z m0 -34 c0 -5 6 -16 13 -23 6 -8 18
-24 25 -36 10 -18 10 -22 -3 -22 -8 0 -15 4 -15 9 0 5 -13 14 -30 20 -36 12
-40 24 -5 15 20 -5 24 -3 19 10 -3 9 -10 16 -15 16 -5 0 -9 5 -9 10 0 6 5 10
10 10 6 0 10 -4 10 -9z m675 -11 c3 -5 2 -10 -4 -10 -5 0 -13 5 -16 10 -3 6
-2 10 4 10 5 0 13 -4 16 -10z m-25 -20 c13 -9 13 -10 0 -9 -8 0 -24 4 -35 9
l-20 9 20 0 c11 0 27 -4 35 -9z m-110 -30 c-8 -5 -17 -7 -19 -4 -3 3 1 9 9 14
8 5 17 7 19 4 3 -3 -1 -9 -9 -14z m-577 -21 c5 -18 11 -20 36 -14 20 4 31 3
31 -4 0 -6 -10 -11 -22 -11 -12 0 -34 -11 -49 -26 l-26 -25 -17 34 c-18 40
-21 61 -6 52 6 -3 10 -15 10 -25 0 -23 18 -36 31 -23 6 6 6 20 0 36 -6 15 -7
27 -2 27 5 0 11 -9 14 -21z m65 -81 c7 -9 5 -19 -8 -35 -22 -27 -42 -29 -61
-6 -13 15 -12 15 7 5 18 -9 25 -8 40 9 16 17 16 22 4 29 -8 6 -10 10 -4 10 6
0 16 -6 22 -12z m-655 -35 c-7 -2 -21 -2 -30 0 -10 3 -4 5 12 5 17 0 24 -2 18
-5z m-128 -18 c-44 -7 -95 -18 -114 -24 -25 -8 -32 -8 -24 0 17 17 111 37 168
37 45 0 42 -1 -30 -13z m845 5 c0 -5 -5 -10 -11 -10 -5 0 -7 5 -4 10 3 6 8 10
11 10 2 0 4 -4 4 -10z m7 -38 c-10 -2 -24 2 -32 8 -26 22 -16 29 18 12 25 -13
28 -17 14 -20z m80 -5 c8 0 9 -6 2 -18 -13 -25 -11 -39 5 -39 12 0 12 -4 0
-30 -9 -16 -19 -30 -24 -30 -5 0 -11 -8 -14 -18 -15 -45 -184 -175 -366 -282
-24 -14 -78 -48 -121 -76 -79 -52 -217 -112 -323 -139 -71 -19 -125 -46 -171
-86 -20 -18 -38 -29 -41 -27 -12 12 102 98 155 116 31 11 104 37 164 57 97 34
175 74 307 156 25 16 50 33 56 38 6 5 26 16 44 26 49 25 170 112 213 154 21
20 52 56 68 79 24 36 28 50 23 78 -3 19 -10 34 -15 34 -5 0 -9 5 -9 11 0 7 7
8 18 4 9 -4 22 -8 29 -8z m-1137 -5 c0 -5 -17 -14 -38 -20 -21 -6 -60 -23 -87
-36 -27 -14 -51 -24 -53 -21 -5 5 29 23 103 56 68 30 75 32 75 21z m37 2 c-3
-3 -12 -4 -19 -1 -8 3 -5 6 6 6 11 1 17 -2 13 -5z m1036 -25 c-8 -8 -16 -8
-30 0 -16 9 -14 10 12 11 21 0 26 -3 18 -11z m1330 4 c-7 -2 -19 -2 -25 0 -7
3 -2 5 12 5 14 0 19 -2 13 -5z m104 -35 c27 -44 48 -158 25 -144 -6 3 -8 21
-5 40 6 41 -15 85 -59 120 -30 24 -31 26 -11 26 16 0 31 -13 50 -42z m-172 22
c-3 -5 -12 -10 -18 -10 -7 0 -6 4 3 10 19 12 23 12 15 0z m-2355 -13 c0 -2
-10 -12 -22 -23 l-23 -19 19 23 c18 21 26 27 26 19z m575 -7 c13 -6 15 -9 5
-9 -8 0 -22 4 -30 9 -18 12 -2 12 25 0z m545 -9 c0 -15 -42 -21 -150 -19
l-105 1 113 8 c63 4 116 10 119 13 9 9 23 7 23 -3z m-372 -18 c-21 -2 -55 -2
-75 0 -21 2 -4 4 37 4 41 0 58 -2 38 -4z m78 -8 c-10 -8 -23 -12 -29 -8 -11 7
12 23 33 23 12 -1 11 -4 -4 -15z m389 5 c-3 -5 -11 -10 -16 -10 -6 0 -7 5 -4
10 3 6 11 10 16 10 6 0 7 -4 4 -10z m1095 0 c0 -5 -2 -10 -4 -10 -3 0 -8 5
-11 10 -3 6 -1 10 4 10 6 0 11 -4 11 -10z m-2525 -35 c-16 -14 -34 -25 -39
-25 -6 0 5 11 24 25 43 32 54 32 15 0z m1795 -106 c21 -70 26 -124 12 -133 -8
-5 -32 100 -32 141 0 11 -13 37 -30 59 -39 52 -39 80 1 34 16 -19 38 -65 49
-101z m-1530 96 c-7 -9 -27 -25 -44 -37 -31 -21 -31 -20 4 14 35 35 64 52 40
23z m2270 -66 c0 -6 -4 -7 -10 -4 -5 3 -10 11 -10 16 0 6 5 7 10 4 6 -3 10
-11 10 -16z m90 -10 c0 -6 -4 -7 -10 -4 -5 3 -10 11 -10 16 0 6 5 7 10 4 6 -3
10 -11 10 -16z m40 12 c0 -6 -4 -13 -10 -16 -5 -3 -10 1 -10 9 0 9 5 16 10 16
6 0 10 -4 10 -9z m-1895 -51 c10 -11 16 -22 13 -25 -2 -3 -14 6 -26 20 -26 30
-13 34 13 5z m812 14 c-3 -3 -12 -4 -19 -1 -8 3 -5 6 6 6 11 1 17 -2 13 -5z
m128 -64 c21 -22 24 -29 10 -22 -22 12 -75 60 -75 68 0 10 36 -16 65 -46z
m1027 2 c-8 -24 -7 -31 9 -40 10 -6 21 -27 25 -46 3 -20 13 -41 21 -47 43 -37
61 -112 89 -374 12 -121 45 -302 57 -310 1 -1 12 -7 24 -14 23 -12 40 0 28 19
-11 17 32 11 46 -7 13 -15 12 -16 -9 -10 -13 3 -22 3 -19 0 3 -2 -3 -13 -14
-24 -18 -18 -21 -18 -43 -4 -13 9 -29 28 -35 43 -17 43 -39 151 -46 227 -3 39
-10 97 -15 130 -6 33 -12 78 -14 100 -11 112 -35 185 -70 214 -9 8 -16 23 -16
35 0 32 -24 61 -44 53 -20 -8 -21 7 -1 26 7 8 17 27 21 41 3 15 9 25 11 22 3
-3 1 -18 -5 -34z m-1804 -37 c34 -10 62 -22 62 -27 0 -10 4 -10 -50 6 -63 19
-100 37 -100 49 0 6 5 6 13 0 6 -5 40 -18 75 -28z m-2298 -40 c0 -8 -4 -15
-10 -15 -5 0 -10 7 -10 15 0 8 5 15 10 15 6 0 10 -7 10 -15z m2885 -14 c17 -4
29 -13 27 -20 -1 -6 4 -19 13 -27 36 -37 44 -144 10 -144 -8 0 -15 -6 -15 -13
0 -7 -16 -32 -36 -55 -36 -42 -36 -42 -64 -25 -27 16 -29 15 -61 -11 -23 -20
-35 -24 -43 -16 -8 8 -6 15 8 26 19 13 19 14 0 35 -19 22 -19 22 4 10 13 -7
26 -10 30 -7 8 8 1 13 -29 21 -27 7 -56 -19 -172 -150 -19 -22 -38 -38 -40
-35 -10 10 159 197 197 217 14 8 17 16 11 29 -8 17 -9 17 -13 -4 -6 -39 -32
-6 -32 41 0 28 8 51 26 75 42 54 99 71 179 53z m1195 -1 c0 -5 -2 -10 -4 -10
-3 0 -8 5 -11 10 -3 6 -1 10 4 10 6 0 11 -4 11 -10z m-1085 -80 c-3 -5 -10
-10 -16 -10 -5 0 -9 5 -9 10 0 6 7 10 16 10 8 0 12 -4 9 -10z m79 -25 c-4 -8
-10 -15 -15 -15 -4 0 -6 7 -3 15 4 8 10 15 15 15 4 0 6 -7 3 -15z m96 -20 c4
-34 0 -46 -10 -40 -5 3 -10 23 -10 43 0 37 16 35 20 -3z m-2885 -5 c3 -5 -1
-10 -10 -10 -9 0 -13 5 -10 10 3 6 8 10 10 10 2 0 7 -4 10 -10z m2750 0 c3 -5
1 -10 -4 -10 -6 0 -11 5 -11 10 0 6 2 10 4 10 3 0 8 -4 11 -10z m-5 -35 c5 16
7 16 13 3 3 -9 -3 -25 -14 -37 -11 -12 -25 -36 -31 -54 -6 -17 -22 -49 -35
-69 -13 -21 -23 -42 -23 -48 0 -12 -20 -13 -38 -1 -11 6 -6 23 21 77 20 38 45
75 56 82 13 7 21 23 21 40 1 25 1 25 12 7 11 -19 11 -19 18 0z m-360 -15 c0
-5 -5 -10 -11 -10 -5 0 -7 5 -4 10 3 6 8 10 11 10 2 0 4 -4 4 -10z m474 -91
c-14 -41 -34 -94 -43 -119 -12 -34 -17 -40 -19 -23 -2 12 4 42 12 67 9 25 13
52 10 60 -3 7 10 35 28 60 18 26 34 43 36 38 2 -6 -9 -43 -24 -83z m-3129 71
c-3 -5 -13 -10 -21 -10 -8 0 -12 5 -9 10 3 6 13 10 21 10 8 0 12 -4 9 -10z
m2619 -11 c-3 -5 -10 -7 -15 -3 -5 3 -7 10 -3 15 3 5 10 7 15 3 5 -3 7 -10 3
-15z m-2354 -96 c0 -7 -4 -13 -10 -13 -5 0 -10 12 -10 28 0 21 2 24 10 12 5
-8 10 -21 10 -27z m2560 -17 c0 -2 -7 -6 -15 -10 -8 -3 -15 -1 -15 4 0 6 7 10
15 10 8 0 15 -2 15 -4z m-2706 -21 c-4 -8 -8 -15 -10 -15 -2 0 -4 7 -4 15 0 8
4 15 10 15 5 0 7 -7 4 -15z m216 -41 c9 -26 9 -39 1 -47 -6 -6 -11 -22 -11
-36 0 -18 3 -22 9 -13 11 18 28 -4 30 -40 1 -16 2 -34 3 -40 1 -8 19 -14 50
-15 26 0 46 3 43 7 -6 10 39 40 59 40 17 0 39 34 29 44 -3 3 -2 6 4 6 13 0 23
-23 23 -51 0 -10 5 -19 10 -19 6 0 10 11 10 25 0 31 14 32 34 3 10 -14 16 -17
16 -8 0 11 3 11 12 2 8 -8 8 -15 -2 -27 -8 -10 -16 -12 -19 -6 -4 6 -12 6 -20
2 -10 -7 -8 -11 10 -16 13 -5 29 -15 36 -24 7 -9 13 -12 13 -8 0 4 10 3 21 -4
17 -9 24 -8 31 2 8 11 9 10 5 -2 -6 -18 40 -69 61 -69 7 0 12 -5 12 -10 0 -6
-5 -9 -11 -8 -6 2 -14 -3 -16 -10 -3 -8 1 -12 12 -10 18 3 26 -7 45 -58 6 -17
22 -37 35 -44 14 -7 22 -17 18 -23 -3 -5 3 -7 16 -3 61 18 64 16 24 -11 -39
-27 -41 -30 -23 -41 11 -7 27 -12 35 -12 9 0 13 -4 10 -10 -3 -5 -15 -10 -26
-10 -11 0 -19 -7 -19 -16 0 -11 8 -14 33 -12 29 3 32 6 32 36 0 20 5 32 13 32
9 0 12 -6 8 -15 -3 -8 -3 -29 1 -45 4 -24 10 -29 24 -25 14 5 19 1 19 -13 0
-11 -4 -22 -10 -24 -6 -2 -6 -8 0 -18 8 -13 10 -12 10 3 0 9 5 17 11 17 6 0 9
-9 6 -20 -3 -10 1 -24 9 -31 11 -9 14 -8 14 4 0 11 6 14 15 11 11 -5 12 -10 6
-18 -14 -16 -2 -86 14 -86 17 0 26 -25 13 -38 -5 -5 -7 -19 -3 -31 10 -32 95
-42 95 -11 0 4 -9 6 -20 3 -11 -3 -31 -2 -45 1 l-25 6 20 22 c18 20 21 20 38
5 10 -10 21 -14 24 -11 3 3 14 -8 24 -25 10 -17 26 -34 36 -37 10 -3 16 -10
13 -15 -4 -5 0 -9 7 -9 16 0 39 -47 31 -66 -5 -14 11 -19 50 -16 12 1 17 -5
17 -22 0 -19 -4 -23 -20 -19 -21 5 -28 -11 -10 -22 6 -3 10 -15 10 -26 0 -11
7 -19 16 -19 10 0 14 6 11 14 -4 11 7 9 46 -7 44 -18 48 -22 28 -27 -21 -5
-22 -7 -9 -18 9 -7 23 -9 33 -6 15 6 16 4 6 -14 -6 -11 -11 -24 -11 -29 0 -13
46 -63 59 -63 6 0 11 -7 11 -16 0 -21 24 -12 29 11 6 32 28 47 50 35 11 -5 28
-10 38 -9 16 0 16 1 -1 8 -13 5 -16 10 -8 15 15 9 79 -21 96 -46 9 -13 16 -16
21 -8 5 8 11 8 21 -1 11 -9 18 -8 30 2 14 11 18 11 28 -3 8 -11 17 -14 27 -7
21 13 26 11 32 -13 4 -12 9 -19 13 -15 4 4 13 2 21 -4 10 -9 13 -8 13 1 0 7 7
10 15 6 9 -3 24 3 36 15 11 11 24 17 28 14 5 -2 14 2 21 10 16 19 33 9 25 -16
-5 -14 -3 -17 9 -13 22 8 20 -13 -1 -25 -16 -9 -16 -10 5 -11 15 0 22 -6 22
-19 0 -15 6 -18 33 -16 44 4 43 3 23 18 -15 11 -16 15 -4 25 12 9 19 7 37 -9
25 -23 53 -18 49 8 -2 13 3 17 17 16 10 -1 27 3 37 8 13 7 18 6 18 -2 0 -8 4
-8 15 1 12 10 15 10 15 -3 0 -10 -15 -20 -40 -27 -21 -6 -42 -16 -46 -22 -5
-8 -1 -9 12 -4 10 4 30 10 44 12 14 3 33 12 44 19 18 14 18 15 -9 47 -19 23
-23 34 -14 37 7 2 15 -1 16 -6 2 -6 9 -18 16 -27 12 -16 14 -16 36 3 27 23 71
27 100 9 30 -18 47 -4 71 64 12 34 28 77 35 93 7 17 16 47 19 68 4 20 10 37
15 37 9 0 -9 -101 -34 -184 -14 -48 -15 -60 -4 -67 11 -7 10 -11 -6 -23 -11
-9 -16 -16 -11 -16 5 0 -3 -9 -18 -21 -14 -11 -26 -24 -26 -29 0 -5 -11 -21
-25 -36 -14 -15 -25 -33 -25 -41 0 -12 -11 -14 -50 -11 -28 1 -51 -1 -53 -6
-2 -5 -35 -12 -75 -15 -39 -4 -77 -12 -84 -19 -7 -7 -38 -12 -71 -12 -36 0
-56 -4 -52 -10 3 -5 21 -10 38 -10 18 0 39 -5 47 -10 13 -9 12 -12 -4 -25 -10
-8 -23 -12 -27 -9 -5 3 -18 -1 -30 -9 -11 -8 -28 -13 -38 -10 -11 3 -21 -2
-24 -11 -5 -11 -20 -16 -52 -16 -25 0 -45 -4 -45 -9 0 -11 -89 -11 -96 1 -10
15 -24 8 -36 -18 -11 -23 -13 -24 -24 -9 -7 9 -18 15 -25 13 -21 -7 20 -38 51
-38 16 0 32 -5 35 -10 4 -6 14 -8 23 -6 22 7 47 -9 37 -24 -5 -7 -20 -9 -46
-5 -25 4 -39 3 -39 -4 0 -6 -7 -11 -15 -11 -8 0 -15 3 -15 8 0 4 -17 7 -37 6
-21 -1 -40 1 -43 4 -3 4 -20 17 -38 30 -26 18 -36 21 -47 12 -8 -7 -18 -9 -23
-6 -5 3 -36 0 -68 -6 -32 -6 -75 -10 -94 -9 -25 1 -39 -5 -52 -21 l-17 -23 6
23 c4 18 2 21 -11 16 -23 -9 -21 -13 24 -54 30 -27 38 -41 33 -58 -3 -13 -1
-22 6 -22 7 0 22 -9 33 -20 13 -12 26 -16 31 -11 10 10 47 3 47 -10 0 -5 6 -6
14 -3 12 5 126 -71 126 -84 0 -2 -11 -1 -25 2 -18 5 -25 2 -25 -9 0 -19 -5
-19 -35 1 -14 9 -32 14 -40 10 -11 -4 -15 2 -16 22 0 27 0 27 -10 4 -10 -27
-29 -20 -29 11 0 19 -1 19 -12 4 -12 -15 -18 -13 -68 17 -30 18 -80 48 -110
65 -30 18 -47 30 -38 27 12 -3 21 4 30 24 9 22 15 26 25 18 9 -7 13 -7 13 0 0
15 -40 44 -89 66 -22 11 -41 23 -41 28 0 4 -4 8 -9 8 -5 0 -32 16 -61 35 -59
40 -88 44 -113 15 -21 -25 -38 -18 -33 13 2 14 9 21 20 19 9 -2 16 4 16 13 0
8 7 15 15 15 8 0 15 3 15 8 -1 17 -20 37 -37 37 -10 0 -18 7 -18 18 0 9 -13
33 -28 52 -15 18 -27 39 -27 46 0 7 -3 9 -7 6 -10 -11 -63 44 -63 65 0 10 -4
18 -8 18 -5 0 -17 18 -27 40 -10 22 -22 40 -27 40 -4 0 -8 9 -8 20 0 23 -10
25 -29 8 -11 -11 -13 -10 -8 4 4 12 -1 23 -18 34 -15 10 -26 29 -30 55 -5 29
-14 43 -31 51 -13 6 -24 14 -24 17 0 3 -19 7 -43 8 -23 2 -52 8 -64 14 -17 9
-26 9 -37 0 -8 -7 -20 -10 -26 -6 -16 10 -12 35 6 35 8 0 12 5 9 11 -4 6 -14
8 -23 4 -15 -5 -62 37 -62 56 0 15 -52 64 -68 64 -8 0 -17 6 -20 13 -2 6 4 12
13 12 9 0 15 6 13 13 -5 12 -9 13 -48 16 -12 1 -20 8 -19 19 0 10 3 12 6 5 2
-7 13 -13 24 -13 17 0 16 4 -11 42 -40 54 -66 73 -74 53 -3 -9 0 -15 9 -15 9
0 15 -9 15 -21 0 -31 -34 -20 -40 14 -3 15 -17 40 -32 56 -16 17 -30 45 -34
70 -4 24 -12 41 -20 41 -7 0 -14 14 -16 33 -2 26 -7 31 -24 29 -22 -3 -40 23
-24 33 6 4 10 1 10 -4 0 -6 6 -11 14 -11 11 0 12 8 4 40 -6 22 -14 40 -19 40
-5 0 -9 6 -9 13 0 7 -7 23 -17 36 -9 13 -17 36 -19 50 -4 44 -16 85 -29 101
-12 14 -19 52 -16 89 1 11 5 10 16 -5 8 -11 15 -14 15 -6 0 14 30 17 30 2 0
-5 7 -10 15 -10 8 0 15 7 15 15 0 9 9 15 23 16 62 2 107 28 107 61 0 12 8 18
24 18 19 0 27 -8 36 -36z m2450 33 c0 -2 -10 -12 -21 -23 -22 -19 -22 -19 -8
4 12 19 29 30 29 19z m-2563 -49 c-3 -8 -6 -5 -6 6 -1 11 2 17 5 13 3 -3 4
-12 1 -19z m263 6 c0 -9 -5 -14 -12 -12 -18 6 -21 28 -4 28 9 0 16 -7 16 -16z
m-545 -4 c3 -5 -1 -10 -9 -10 -9 0 -16 5 -16 10 0 6 4 10 9 10 6 0 13 -4 16
-10z m189 -15 c-4 -8 -11 -15 -16 -15 -6 0 -5 6 2 15 7 8 14 15 16 15 2 0 1
-7 -2 -15z m2486 11 c0 -3 -4 -8 -10 -11 -5 -3 -10 -1 -10 4 0 6 5 11 10 11 6
0 10 -2 10 -4z m-2203 -28 c-3 -8 -6 -5 -6 6 -1 11 2 17 5 13 3 -3 4 -12 1
-19z m1467 -7 c-5 -21 0 -41 16 -66 21 -34 22 -37 5 -55 -15 -17 -32 -20 -107
-20 -48 0 -88 4 -88 9 0 5 10 9 23 10 64 3 157 17 157 23 0 5 -8 24 -17 43
-13 28 -14 39 -5 60 16 34 23 32 16 -4z m2256 -106 c1 -88 23 -216 55 -325 40
-136 55 -207 67 -321 12 -112 14 -122 36 -130 36 -14 45 -11 39 14 -4 12 -2
29 3 37 8 13 10 13 10 -1 0 -9 10 -19 22 -22 30 -8 47 4 20 14 -17 6 -22 17
-22 44 0 23 5 35 14 35 9 0 12 -8 8 -25 -4 -22 -1 -25 22 -25 14 0 35 9 46 20
13 13 20 15 21 8 1 -7 2 -24 2 -38 2 -30 50 -52 70 -31 10 11 8 12 -11 6 -22
-6 -23 -5 -13 14 8 14 8 21 1 21 -5 0 -10 -4 -10 -10 0 -5 -4 -10 -10 -10 -5
0 -10 7 -10 15 0 8 6 15 14 15 8 0 16 5 18 11 2 5 11 7 20 4 9 -4 14 -13 12
-20 -12 -30 9 -41 55 -30 l45 11 -23 23 c-12 12 -26 19 -31 16 -6 -4 -17 0
-25 9 -19 19 -6 27 39 24 37 -3 46 -12 24 -22 -7 -3 -3 -3 8 -1 14 4 24 0 28
-10 3 -9 0 -15 -10 -15 -8 0 -12 -4 -9 -10 7 -11 59 -3 97 16 15 8 34 14 42
14 8 0 27 5 43 12 36 15 63 18 63 7 0 -5 -5 -9 -12 -9 -6 0 -9 -3 -5 -6 12
-12 47 8 47 27 0 11 7 19 16 19 11 0 15 6 11 19 -3 14 -1 18 9 14 17 -6 19
-30 3 -35 -6 -2 -9 -14 -7 -26 3 -21 4 -21 32 -7 44 23 162 37 241 29 39 -4
76 -7 83 -5 6 1 12 -5 12 -14 0 -8 9 -15 20 -15 11 0 18 6 16 13 -1 6 -1 9 1
5 3 -5 13 -8 22 -8 10 0 26 -9 36 -20 10 -11 13 -20 7 -20 -6 0 -15 7 -20 16
-7 13 -20 10 -97 -25 -48 -23 -94 -41 -101 -41 -8 0 -14 -4 -14 -10 0 -5 -7
-10 -15 -10 -14 0 -54 -19 -65 -30 -16 -18 -77 -51 -163 -89 -87 -39 -102 -43
-150 -37 -46 5 -49 5 -29 -7 22 -13 22 -13 -15 -31 -34 -17 -36 -19 -18 -27
14 -5 16 -8 5 -9 -8 -2 -19 -2 -23 -1 -12 2 -77 -22 -77 -29 0 -3 -20 -4 -45
-2 -39 4 -46 1 -53 -19 -6 -15 -11 -18 -16 -11 -10 16 -27 5 -20 -12 3 -8 1
-17 -5 -21 -7 -4 -12 5 -12 22 -2 23 -2 24 -6 6 -4 -23 -17 -28 -60 -24 -31 2
-36 -13 -11 -35 15 -14 22 -16 25 -6 7 20 33 14 33 -8 0 -17 -5 -19 -25 -14
-15 4 -25 2 -25 -5 0 -6 7 -11 15 -11 24 0 17 -16 -12 -29 -23 -11 -29 -10
-39 4 -9 12 -13 13 -17 3 -5 -11 -7 -11 -15 0 -5 7 -13 12 -18 11 -16 -4 -70
23 -56 28 6 3 12 13 12 24 0 10 5 19 10 19 6 0 10 7 10 15 0 8 -6 12 -14 9 -8
-3 -17 -1 -20 5 -4 6 5 13 19 17 14 3 25 10 25 16 0 5 -4 7 -9 4 -4 -3 -16 0
-26 8 -13 10 -15 17 -8 32 6 10 8 25 6 32 -3 7 5 12 21 12 14 0 26 3 26 7 0
12 -43 53 -56 53 -24 0 -58 90 -55 146 2 44 -1 53 -21 66 -50 32 -85 38 -144
22 -31 -8 -59 -12 -62 -10 -2 3 11 52 30 108 32 95 36 103 59 100 33 -4 59
-38 59 -76 0 -20 3 -27 9 -18 6 10 11 5 21 -17 7 -17 16 -31 20 -31 4 0 12
-15 18 -32 9 -28 10 -23 5 32 -7 84 -32 196 -76 340 -28 91 -36 139 -41 228
-3 62 -2 128 1 145 7 31 7 32 14 7 4 -14 8 -65 9 -115z m-3675 115 c7 -12 -5
-60 -15 -60 -10 0 -22 48 -15 60 4 6 10 10 15 10 5 0 11 -4 15 -10z m44 -42
c1 -12 -6 -18 -20 -18 -18 0 -19 3 -9 15 7 8 10 21 7 29 -3 8 -3 17 1 21 7 7
20 -21 21 -47z m2119 15 c0 -10 3 -27 7 -37 8 -18 6 -18 -24 3 -30 22 -31 24
-14 37 24 18 32 17 31 -3z m454 -23 c-11 -12 -25 -41 -31 -65 -11 -45 -43 -77
-66 -68 -8 2 -20 -8 -29 -24 -13 -25 -15 -26 -16 -7 0 23 22 47 47 50 20 3 43
24 43 41 0 7 12 37 26 65 18 35 29 47 36 40 7 -7 4 -17 -10 -32z m-394 -4 c2
-16 -1 -33 -7 -39 -8 -8 -11 -5 -11 9 0 10 -3 30 -7 43 -4 18 -2 23 8 19 8 -2
15 -17 17 -32z m-2218 -26 c0 -5 -6 -10 -14 -10 -8 0 -21 -3 -30 -6 -9 -3 -16
-1 -16 4 0 10 19 18 48 21 6 0 12 -3 12 -9z m-500 -90 c0 -11 -4 -20 -10 -20
-5 0 -10 9 -10 20 0 11 5 20 10 20 6 0 10 -9 10 -20z m4684 -26 c20 -15 25
-28 25 -59 0 -41 -17 -75 -38 -75 -6 0 -11 -7 -11 -15 0 -16 -15 -20 -24 -7
-2 4 -19 9 -38 10 -44 4 -63 23 -49 50 8 16 7 21 -5 26 -13 5 -12 10 7 38 12
18 28 38 35 44 19 15 69 9 98 -12z m-3836 -4 c7 -11 10 -20 7 -20 -3 0 -15 9
-27 20 -16 14 -18 20 -7 20 8 0 20 -9 27 -20z m-988 -120 c0 -5 -7 -10 -16
-10 -8 0 -12 5 -9 10 3 6 10 10 16 10 5 0 9 -4 9 -10z m1090 -50 c0 -5 -4 -10
-9 -10 -6 0 -13 5 -16 10 -3 6 1 10 9 10 9 0 16 -4 16 -10z m3420 1 c0 -12
-20 -25 -27 -18 -7 7 6 27 18 27 5 0 9 -4 9 -9z m-4556 -44 c7 -6 6 -7 -4 -4
-8 2 -16 12 -17 23 -2 13 -1 15 4 4 3 -8 11 -19 17 -23z m2334 26 c-23 -47
-33 -71 -63 -153 -19 -52 -32 -79 -29 -60 13 74 70 220 86 220 5 0 8 -3 6 -7z
m9 -45 c-3 -8 -6 -5 -6 6 -1 11 2 17 5 13 3 -3 4 -12 1 -19z m2003 -3 c0 -14
-4 -25 -9 -25 -4 0 -6 11 -3 25 2 14 6 25 8 25 2 0 4 -11 4 -25z m-550 -18
c-1 -12 -7 -35 -16 -52 -12 -26 -14 -27 -9 -5 2 14 5 40 5 58 0 20 4 31 10 27
6 -3 10 -16 10 -28z m-3760 3 c0 -5 -4 -10 -10 -10 -5 0 -10 5 -10 10 0 6 5
10 10 10 6 0 10 -4 10 -10z m39 -42 c-2 -52 -2 -53 -8 -13 -4 22 -5 46 -3 53
8 25 12 11 11 -40z m1078 36 c-3 -3 -12 -4 -19 -1 -8 3 -5 6 6 6 11 1 17 -2
13 -5z m88 -24 c3 -5 1 -10 -4 -10 -6 0 -11 5 -11 10 0 6 2 10 4 10 3 0 8 -4
11 -10z m-1190 -10 c3 -5 2 -10 -4 -10 -5 0 -13 5 -16 10 -3 6 -2 10 4 10 5 0
13 -4 16 -10z m5651 -17 c-7 -7 -26 7 -26 19 0 6 6 6 15 -2 9 -7 13 -15 11
-17z m-5336 7 c0 -5 -7 -10 -15 -10 -8 0 -15 5 -15 10 0 6 7 10 15 10 8 0 15
-4 15 -10z m4017 -32 c-3 -8 -6 -5 -6 6 -1 11 2 17 5 13 3 -3 4 -12 1 -19z
m-4327 8 c0 -3 -4 -8 -10 -11 -5 -3 -10 -1 -10 4 0 6 5 11 10 11 6 0 10 -2 10
-4z m4280 -6 c0 -5 -5 -10 -11 -10 -5 0 -7 5 -4 10 3 6 8 10 11 10 2 0 4 -4 4
-10z m-4325 -10 c-3 -5 1 -10 9 -10 9 0 16 -7 16 -15 0 -8 -8 -15 -19 -15 -13
0 -18 7 -18 25 0 14 4 25 9 25 5 0 6 -4 3 -10z m3739 -75 c-8 -39 -17 -88 -20
-110 -3 -22 -7 -41 -9 -43 -2 -2 5 -12 16 -23 23 -23 81 -27 73 -4 -4 8 -1 15
6 15 6 0 14 -9 17 -20 3 -11 12 -20 19 -20 8 0 17 -8 21 -17 3 -10 13 -26 21
-35 8 -10 15 -29 15 -43 0 -14 3 -28 8 -31 5 -3 6 3 2 12 -4 12 -2 15 8 12 20
-7 21 -76 2 -118 -18 -37 -88 -80 -134 -80 -23 -1 -22 -2 6 -15 17 -7 26 -14
22 -14 -4 -1 -3 -9 2 -20 9 -16 6 -21 -17 -30 -18 -8 -28 -20 -30 -36 -1 -20
2 -23 23 -21 14 2 28 6 32 9 3 4 11 7 17 7 6 0 5 -5 -2 -12 -17 -17 -162 -19
-155 -2 2 7 13 14 24 17 11 3 23 14 25 25 3 10 16 23 30 28 18 7 22 12 14 24
-7 11 -12 12 -17 4 -5 -7 -17 -14 -28 -16 -11 -2 -19 -9 -18 -16 2 -6 -11 -21
-28 -32 -24 -18 -32 -20 -45 -9 -12 10 -19 9 -37 -9 -20 -21 -21 -22 -2 -22
19 0 19 0 0 -14 -23 -16 -67 -16 -72 0 -2 6 15 23 37 38 22 14 40 30 40 35 0
4 -9 20 -20 34 -22 28 -25 44 -9 49 6 2 12 37 15 78 5 94 11 120 27 120 7 0
25 5 39 12 23 11 26 18 26 68 -1 48 13 114 53 263 17 62 19 38 3 -38z m-3688
10 c-3 -9 -11 -13 -16 -10 -8 5 -7 11 1 21 14 18 24 11 15 -11z m4344 -25 c4
0 10 -8 13 -17 2 -10 8 -26 12 -35 4 -11 3 -18 -4 -18 -6 0 -11 8 -11 19 0 10
-7 24 -15 31 -8 7 -14 24 -14 39 2 23 2 24 6 4 2 -13 8 -23 13 -23z m420 30
c0 -5 -7 -10 -15 -10 -8 0 -15 5 -15 10 0 6 7 10 15 10 8 0 15 -4 15 -10z
m418 -1 c-2 -6 -8 -10 -13 -10 -5 0 -11 4 -13 10 -2 6 4 11 13 11 9 0 15 -5
13 -11z m-5220 -30 c2 -23 2 -23 -13 -5 -18 24 -20 39 -2 34 6 -3 13 -15 15
-29z m5213 -5 c11 -14 10 -15 -11 -12 -13 1 -25 9 -28 16 -5 17 23 15 39 -4z
m-5128 -21 c-5 -12 -7 -12 -14 -1 -13 20 -11 28 5 22 8 -3 12 -12 9 -21z
m2124 -15 c-3 -7 -5 -2 -5 12 0 14 2 19 5 13 2 -7 2 -19 0 -25z m-610 16 c-3
-3 -12 -4 -19 -1 -8 3 -5 6 6 6 11 1 17 -2 13 -5z m3738 -4 c3 -5 1 -10 -4
-10 -6 0 -11 5 -11 10 0 6 2 10 4 10 3 0 8 -4 11 -10z m-5265 -30 c0 -5 -6
-10 -14 -10 -7 0 -17 -10 -20 -22 -6 -22 -7 -22 -17 -5 -6 10 -9 19 -7 20 1 1
12 7 23 14 25 15 35 16 35 3z m5315 -11 c-4 -5 -13 -9 -21 -9 -12 0 -12 2 -2
14 14 15 32 11 23 -5z m-130 1 c4 -6 -6 -10 -22 -9 -25 0 -26 1 -8 9 11 5 21
9 22 9 1 1 5 -3 8 -9z m-251 -22 c11 -43 6 -53 -13 -23 -18 29 -18 45 -2 45 5
0 11 -10 15 -22z m-105 -14 c-9 -11 -15 -12 -23 -4 -8 8 -7 13 4 20 20 12 33
1 19 -16z m201 5 c0 -5 -4 -9 -10 -9 -5 0 -10 7 -10 16 0 8 5 12 10 9 6 -3 10
-10 10 -16z m427 15 c-3 -3 -12 -4 -19 -1 -8 3 -5 6 6 6 11 1 17 -2 13 -5z
m-194 -11 c-7 -2 -19 -2 -25 0 -7 3 -2 5 12 5 14 0 19 -2 13 -5z m-5333 -27
c0 -13 -6 -26 -14 -29 -11 -5 -12 0 -3 24 14 35 17 36 17 5z m4560 20 c0 -3
-4 -8 -10 -11 -5 -3 -10 -1 -10 4 0 6 5 11 10 11 6 0 10 -2 10 -4z m190 -6 c0
-5 -7 -10 -15 -10 -8 0 -15 5 -15 10 0 6 7 10 15 10 8 0 15 -4 15 -10z m195 0
c3 -5 12 -7 20 -3 10 3 15 -1 15 -15 0 -23 -19 -33 -52 -25 -19 4 -20 3 -8 -7
13 -9 12 -11 -4 -8 -38 6 -29 28 11 29 35 0 36 1 16 11 -13 6 -23 15 -23 20 0
11 17 10 25 -2z m-1220 -30 c3 -5 1 -10 -4 -10 -6 0 -11 5 -11 10 0 6 2 10 4
10 3 0 8 -4 11 -10z m995 1 c0 -5 -7 -11 -15 -15 -15 -5 -20 5 -8 17 9 10 23
9 23 -2z m-4445 -12 c11 -17 -1 -21 -15 -4 -8 9 -8 15 -2 15 6 0 14 -5 17 -11z
m72 5 c-3 -3 -12 -4 -19 -1 -8 3 -5 6 6 6 11 1 17 -2 13 -5z m1203 -4 c0 -5
-4 -10 -10 -10 -5 0 -10 5 -10 10 0 6 5 10 10 10 6 0 10 -4 10 -10z m2205 -10
c3 -5 -1 -10 -10 -10 -9 0 -13 5 -10 10 3 6 8 10 10 10 2 0 7 -4 10 -10z
m-3675 -10 c0 -5 -4 -10 -10 -10 -5 0 -10 5 -10 10 0 6 5 10 10 10 6 0 10 -4
10 -10z m4427 -22 c-3 -7 -5 -2 -5 12 0 14 2 19 5 13 2 -7 2 -19 0 -25z m303
2 c0 -5 -12 -10 -26 -10 -14 0 -23 4 -19 10 3 6 15 10 26 10 10 0 19 -4 19
-10z m-3281 -39 c-15 -5 -22 6 -14 19 6 9 10 9 16 -1 5 -8 4 -15 -2 -18z m102
16 c-1 -12 -15 -9 -19 4 -3 6 1 10 8 8 6 -3 11 -8 11 -12z m2879 -18 c0 -11
-4 -18 -10 -14 -5 3 -7 12 -3 20 7 21 13 19 13 -6z m-4360 -40 c0 -6 -4 -7
-10 -4 -5 3 -10 11 -10 16 0 6 5 7 10 4 6 -3 10 -11 10 -16z m40 -19 c0 -5 -9
-10 -21 -10 -11 0 -17 5 -14 10 3 6 13 10 21 10 8 0 14 -4 14 -10z m74 -6 c4
-10 1 -14 -6 -12 -15 5 -23 28 -10 28 5 0 13 -7 16 -16z m-184 -24 c0 -5 -2
-10 -4 -10 -3 0 -8 5 -11 10 -3 6 -1 10 4 10 6 0 11 -4 11 -10z m4260 -37 c0
-14 -7 -26 -17 -29 -37 -12 -62 -27 -57 -35 2 -5 11 -6 19 -2 8 3 15 1 15 -4
0 -16 -49 -53 -69 -53 -22 0 -36 -16 -22 -24 11 -7 2 -46 -10 -46 -5 0 -6 -7
-3 -15 5 -12 0 -14 -26 -9 -27 6 -31 4 -28 -11 2 -12 -6 -21 -27 -28 -16 -5
-32 -13 -35 -17 -9 -13 -59 -20 -65 -10 -11 18 -35 10 -45 -16 -6 -14 -14 -22
-20 -19 -6 3 0 22 14 44 18 28 22 41 13 50 -14 14 -2 25 19 17 9 -4 14 -12 10
-22 -8 -21 11 -7 25 18 9 17 9 20 -3 15 -12 -4 -15 4 -15 36 0 53 38 117 69
117 12 0 30 8 40 17 12 11 42 18 81 21 34 3 69 10 79 16 29 20 58 15 58 -11z
m-4320 13 c0 -3 -4 -8 -10 -11 -5 -3 -10 -1 -10 4 0 6 5 11 10 11 6 0 10 -2
10 -4z m48 -8 c14 -14 16 -28 2 -28 -5 0 -14 9 -20 20 -12 22 -1 27 18 8z
m892 -34 c0 -22 -16 -17 -17 6 -1 11 2 18 8 15 5 -4 9 -13 9 -21z m660 5 c0
-6 -4 -7 -10 -4 -5 3 -10 11 -10 16 0 6 5 7 10 4 6 -3 10 -11 10 -16z m-1260
-18 c0 -6 -4 -13 -10 -16 -5 -3 -10 1 -10 9 0 9 5 16 10 16 6 0 10 -4 10 -9z
m-47 -47 c-4 -10 -9 -12 -15 -6 -12 12 -1 35 12 27 5 -3 6 -13 3 -21z m-159
-19 c7 -28 6 -29 -7 -10 -8 10 -12 25 -10 33 7 16 9 14 17 -23z m2316 5 c0 -5
-4 -10 -10 -10 -5 0 -10 5 -10 10 0 6 5 10 10 10 6 0 10 -4 10 -10z m-140 -16
c0 -8 -5 -12 -10 -9 -6 4 -8 11 -5 16 9 14 15 11 15 -7z m-1955 -35 c17 -23
35 -51 42 -62 7 -12 18 -22 25 -22 7 0 13 -7 13 -15 0 -8 12 -28 28 -45 15
-16 25 -36 22 -42 -5 -14 -3 -15 36 -18 26 -2 108 -53 109 -67 0 -3 -8 -9 -17
-11 -12 -3 -8 -7 15 -12 41 -10 43 -35 3 -35 -29 0 -61 22 -61 42 0 6 -13 7
-32 3 -22 -4 -28 -3 -19 3 7 5 10 15 6 21 -5 8 1 10 19 5 22 -5 25 -3 20 11
-4 11 -16 15 -34 13 -21 -2 -35 6 -56 30 -16 17 -34 32 -41 32 -7 0 -13 5 -13
11 0 6 -9 23 -21 37 -25 33 -99 149 -99 157 0 18 29 -1 55 -36z m155 31 c0 -5
-5 -10 -11 -10 -5 0 -7 5 -4 10 3 6 8 10 11 10 2 0 4 -4 4 -10z m1646 -47
c-11 -11 -19 6 -11 24 8 17 8 17 12 0 3 -10 2 -21 -1 -24z m564 17 c0 -5 -4
-10 -10 -10 -5 0 -10 5 -10 10 0 6 5 10 10 10 6 0 10 -4 10 -10z m1141 -23
c-10 -9 -11 -8 -5 6 3 10 9 15 12 12 3 -3 0 -11 -7 -18z m-1571 -8 c0 -5 -7
-9 -15 -9 -15 0 -20 12 -9 23 8 8 24 -1 24 -14z m1060 11 c0 -5 -8 -10 -17
-11 -11 0 -13 -3 -5 -6 6 -2 12 -12 12 -21 0 -12 -3 -13 -12 -4 -14 14 -42 16
-34 3 6 -9 -78 -18 -229 -24 -38 -2 -77 -5 -85 -8 -9 -2 -15 2 -15 11 0 8 5
15 10 16 6 0 23 6 39 13 34 14 71 19 216 30 58 4 108 9 113 9 4 1 7 -2 7 -8z
m-1211 -30 c1 13 3 13 10 0 12 -18 7 -27 -16 -25 -21 1 -25 12 -16 40 6 19 7
18 14 -5 4 -14 8 -18 8 -10z m596 10 c-3 -5 -13 -10 -21 -10 -8 0 -12 5 -9 10
3 6 13 10 21 10 8 0 12 -4 9 -10z m-275 -30 c0 -6 -9 -10 -20 -10 -15 0 -20
-7 -20 -25 0 -17 -4 -23 -15 -19 -8 4 -13 10 -10 14 7 11 -32 23 -45 15 -5 -3
-10 1 -10 9 0 20 38 30 56 15 12 -10 16 -9 21 9 4 18 9 20 24 11 10 -5 19 -14
19 -19z m1380 15 c0 -8 -4 -15 -10 -15 -5 0 -10 7 -10 15 0 8 5 15 10 15 6 0
10 -7 10 -15z m-3718 -10 c0 -5 -5 -11 -11 -13 -6 -2 -11 4 -11 13 0 9 5 15
11 13 6 -2 11 -8 11 -13z m3808 5 c0 -5 -2 -10 -4 -10 -3 0 -8 5 -11 10 -3 6
-1 10 4 10 6 0 11 -4 11 -10z m-3755 -40 c3 -5 -1 -10 -10 -10 -9 0 -13 5 -10
10 3 6 8 10 10 10 2 0 7 -4 10 -10z m3715 0 c0 -5 -5 -10 -11 -10 -5 0 -7 5
-4 10 3 6 8 10 11 10 2 0 4 -4 4 -10z m-851 -36 c2 -2 2 -7 -2 -10 -3 -3 -16
2 -29 11 l-23 17 25 -7 c14 -4 27 -9 29 -11z m51 -4 c0 -5 -4 -10 -10 -10 -5
0 -10 5 -10 10 0 6 5 10 10 10 6 0 10 -4 10 -10z m1373 -31 c-17 -17 -37 -1
-22 17 8 10 15 12 23 4 7 -7 7 -13 -1 -21z m-3643 11 c0 -5 -2 -10 -4 -10 -3
0 -8 5 -11 10 -3 6 -1 10 4 10 6 0 11 -4 11 -10z m2801 -31 c-24 -23 -36 -28
-44 -20 -8 8 -6 11 6 11 9 0 17 6 17 14 0 13 15 21 44 25 5 0 -6 -13 -23 -30z
m54 -8 c-3 -6 -16 -11 -28 -11 -21 0 -21 1 3 13 27 15 36 14 25 -2z m-1160
-91 c-3 -5 -10 -10 -16 -10 -5 0 -9 5 -9 10 0 6 7 10 16 10 8 0 12 -4 9 -10z
m1900 0 c-3 -5 -13 -10 -21 -10 -8 0 -14 5 -14 10 0 6 9 10 21 10 11 0 17 -4
14 -10z m-789 -47 c-10 -10 -19 5 -10 18 6 11 8 11 12 0 2 -7 1 -15 -2 -18z
m-261 -3 c3 -5 1 -10 -4 -10 -6 0 -11 5 -11 10 0 6 2 10 4 10 3 0 8 -4 11 -10z
m-2530 -20 c3 -5 1 -10 -4 -10 -6 0 -11 5 -11 10 0 6 2 10 4 10 3 0 8 -4 11
-10z m4475 -65 c10 -12 10 -15 -4 -15 -9 0 -16 7 -16 15 0 8 2 15 4 15 2 0 9
-7 16 -15z m-4450 -5 c0 -5 -4 -10 -10 -10 -5 0 -10 5 -10 10 0 6 5 10 10 10
6 0 10 -4 10 -10z m-320 -20 c0 -5 -4 -10 -10 -10 -5 0 -10 5 -10 10 0 6 5 10
10 10 6 0 10 -4 10 -10z m696 -16 c27 -16 43 -32 40 -40 -3 -8 0 -11 10 -7 9
3 14 -2 14 -15 0 -20 -1 -20 -32 -5 -18 9 -35 19 -38 22 -3 4 -24 15 -47 26
-31 15 -39 23 -31 32 15 19 34 16 84 -13z m4085 -45 l-20 -32 1 31 c1 20 6 32
15 32 7 0 13 6 14 13 0 8 2 8 5 1 3 -7 -4 -27 -15 -45z m669 41 c0 -5 -7 -10
-16 -10 -8 0 -12 5 -9 10 3 6 10 10 16 10 5 0 9 -4 9 -10z m-4890 -26 c0 -8
-5 -12 -10 -9 -6 4 -8 11 -5 16 9 14 15 11 15 -7z m-640 -14 c0 -5 -5 -10 -11
-10 -5 0 -7 5 -4 10 3 6 8 10 11 10 2 0 4 -4 4 -10z m5975 0 c3 -5 1 -10 -4
-10 -6 0 -11 5 -11 10 0 6 2 10 4 10 3 0 8 -4 11 -10z m-5625 -20 c0 -5 -7
-10 -15 -10 -8 0 -15 5 -15 10 0 6 7 10 15 10 8 0 15 -4 15 -10z m1024 -16 c9
-22 8 -24 -9 -24 -8 0 -15 9 -15 20 0 24 15 27 24 4z m4186 1 c0 -8 -4 -15
-10 -15 -5 0 -10 7 -10 15 0 8 5 15 10 15 6 0 10 -7 10 -15z m420 0 c0 -8 -4
-15 -10 -15 -5 0 -10 7 -10 15 0 8 5 15 10 15 6 0 10 -7 10 -15z m-5471 -12
c-11 -13 -11 -17 -1 -20 6 -3 12 -11 12 -19 0 -12 -4 -13 -21 -3 -17 8 -23 8
-30 -2 -6 -10 -13 -10 -31 -2 l-23 11 25 11 c14 7 36 18 50 26 32 19 35 19 19
-2z m1002 -11 c-16 -5 -41 5 -41 17 0 7 10 6 26 -1 15 -7 21 -14 15 -16z
m3989 24 c0 -3 -4 -8 -10 -11 -5 -3 -10 -1 -10 4 0 6 5 11 10 11 6 0 10 -2 10
-4z m-4193 -32 c-3 -3 -12 -4 -19 -1 -8 3 -5 6 6 6 11 1 17 -2 13 -5z m373 -4
c0 -5 -4 -10 -10 -10 -5 0 -10 5 -10 10 0 6 5 10 10 10 6 0 10 -4 10 -10z
m4344 -5 c-4 -8 -8 -15 -10 -15 -2 0 -4 7 -4 15 0 8 4 15 10 15 5 0 7 -7 4
-15z m-5254 -5 c0 -5 -4 -10 -10 -10 -5 0 -10 5 -10 10 0 6 5 10 10 10 6 0 10
-4 10 -10z m-345 -30 c-3 -5 -13 -10 -21 -10 -8 0 -14 5 -14 10 0 6 9 10 21
10 11 0 17 -4 14 -10z m5195 -33 c-1 -21 -1 -21 -15 -3 -8 10 -12 23 -9 28 9
14 24 -2 24 -25z m-834 -17 c8 0 14 -5 14 -11 0 -6 -7 -8 -16 -5 -9 3 -18 6
-20 6 -2 0 -3 10 -3 23 1 16 2 18 6 5 2 -10 11 -18 19 -18z m-133 -25 c4 -8 2
-17 -2 -20 -5 -2 -11 4 -14 15 -6 23 8 27 16 5z m-123 -16 c0 -5 -4 -9 -10 -9
-5 0 -10 7 -10 16 0 8 5 12 10 9 6 -3 10 -10 10 -16z m160 1 c0 -5 -4 -10 -10
-10 -5 0 -10 5 -10 10 0 6 5 10 10 10 6 0 10 -4 10 -10z m-197 -25 c1 -5 -6
-11 -15 -13 -11 -2 -18 3 -18 13 0 17 30 18 33 0z m107 -70 c0 -5 -5 -3 -10 5
-5 8 -10 20 -10 25 0 6 5 3 10 -5 5 -8 10 -19 10 -25z m-160 15 c0 -5 -4 -10
-10 -10 -5 0 -10 5 -10 10 0 6 5 10 10 10 6 0 10 -4 10 -10z m110 -30 c0 -6
-7 -10 -15 -10 -8 0 -15 2 -15 4 0 2 -3 12 -7 21 -5 15 -3 16 15 6 12 -7 22
-16 22 -21z m-90 -44 c0 -24 -17 -28 -23 -6 -3 13 0 20 9 20 8 0 14 -6 14 -14z
m85 -4 c0 -18 -20 -15 -23 4 -3 10 1 15 10 12 7 -3 13 -10 13 -16z m-295 -642
c0 -5 -4 -10 -10 -10 -5 0 -10 5 -10 10 0 6 5 10 10 10 6 0 10 -4 10 -10z
m-50 -130 c0 -5 -4 -10 -10 -10 -5 0 -10 5 -10 10 0 6 5 10 10 10 6 0 10 -4
10 -10z m120 -190 c0 -5 -4 -10 -10 -10 -5 0 -10 5 -10 10 0 6 5 10 10 10 6 0
10 -4 10 -10z m-95 -110 c3 -5 1 -10 -4 -10 -6 0 -11 5 -11 10 0 6 2 10 4 10
3 0 8 -4 11 -10z m-3787 -162 c7 -7 12 -24 12 -39 0 -22 -8 -31 -42 -47 -24
-11 -51 -22 -61 -26 -10 -3 -16 -12 -13 -19 2 -6 10 -31 17 -54 14 -53 29 -46
29 13 0 46 25 84 55 84 19 0 19 -14 2 -32 -38 -38 -37 -118 1 -118 43 0 75 73
48 112 -21 30 -20 41 2 29 14 -8 23 -5 35 10 14 15 21 17 37 9 12 -7 17 -17
13 -28 -3 -11 0 -9 11 6 25 32 56 29 56 -5 l0 -28 23 29 c20 25 28 28 63 23
21 -3 56 -9 76 -15 31 -8 44 -6 73 9 42 23 45 23 45 6 0 -16 -34 -33 -83 -42
-28 -6 -33 -10 -30 -28 6 -30 -36 -89 -71 -102 -21 -7 -34 -6 -55 6 -24 14
-30 14 -47 2 -17 -12 -21 -12 -36 7 l-17 21 -22 -22 -22 -22 -17 20 -16 20
-28 -23 c-32 -28 -49 -30 -71 -7 -13 13 -18 14 -25 3 -4 -7 -14 -11 -22 -8
-18 7 -64 137 -52 147 5 4 29 16 54 25 52 21 70 33 70 51 0 21 -26 25 -120 18
l-90 -6 0 -118 c0 -66 -4 -119 -9 -119 -10 0 -21 35 -21 69 0 14 -5 39 -11 56
-7 20 -9 53 -5 88 l7 57 123 0 c81 0 126 -4 134 -12z m-911 -200 c-3 -8 -6 -5
-6 6 -1 11 2 17 5 13 3 -3 4 -12 1 -19z m133 6 c0 -8 -4 -12 -10 -9 -5 3 -10
10 -10 16 0 5 5 9 10 9 6 0 10 -7 10 -16z m137 10 c-3 -3 -12 -4 -19 -1 -8 3
-5 6 6 6 11 1 17 -2 13 -5z m-230 -61 c-3 -10 -5 -4 -5 12 0 17 2 24 5 18 2
-7 2 -21 0 -30z m3263 -3 c0 -5 -4 -10 -10 -10 -5 0 -10 5 -10 10 0 6 5 10 10
10 6 0 10 -4 10 -10z m-3306 -46 c20 -8 11 -24 -15 -24 -19 0 -25 11 -12 23 8
8 8 8 27 1z m46 -54 c-6 -10 -7 -26 -4 -34 3 -9 1 -16 -5 -16 -7 0 -10 17 -9
44 2 34 6 42 15 34 9 -7 10 -16 3 -28z m69 6 c-9 -8 -49 -17 -49 -11 0 3 5 15
10 26 10 18 12 18 27 4 8 -9 14 -17 12 -19z m3181 20 c0 -3 -4 -8 -10 -11 -5
-3 -10 -1 -10 4 0 6 5 11 10 11 6 0 10 -2 10 -4z m-3110 -36 c0 -5 -9 -10 -20
-10 -11 0 -20 5 -20 10 0 6 9 10 20 10 11 0 20 -4 20 -10z m-192 -51 c-1 -16
-6 -29 -10 -29 -11 0 -21 47 -13 60 11 18 25 0 23 -31z m162 11 c0 -5 -4 -10
-10 -10 -5 0 -10 5 -10 10 0 6 5 10 10 10 6 0 10 -4 10 -10z m140 -4 c0 -8 -7
-16 -15 -20 -12 -4 -13 -2 -2 14 14 24 17 25 17 6z m-213 -34 c0 -28 -4 -38
-16 -38 -9 -1 -23 -3 -31 -6 -8 -3 -12 -3 -7 -1 13 8 7 23 -10 23 -14 0 -14 3
-5 12 10 10 15 10 23 -2 8 -13 11 -12 24 4 8 11 12 22 9 25 -3 3 -8 0 -12 -6
-5 -8 -13 -9 -22 -3 -13 8 -12 10 3 10 9 0 17 5 17 10 0 6 6 10 14 10 9 0 13
-13 13 -38z m128 28 c18 -8 17 -9 -7 -9 -16 -1 -28 4 -28 9 0 12 8 12 35 0z
m3080 -31 c4 -11 4 -23 1 -26 -3 -4 -6 1 -6 10 0 10 -4 17 -10 17 -5 0 -10 5
-10 10 0 18 19 10 25 -11z m-2875 5 c0 -23 -24 -44 -50 -44 -32 0 -40 14 -15
24 8 3 15 1 15 -4 0 -18 22 -10 27 10 5 18 23 29 23 14z m-300 -14 c0 -5 -4
-10 -10 -10 -5 0 -10 5 -10 10 0 6 5 10 10 10 6 0 10 -4 10 -10z m36 -11 c10
-17 -13 -36 -27 -22 -12 12 -4 33 11 33 5 0 12 -5 16 -11z m139 -36 c-7 -17
-8 -17 -15 2 -5 11 -9 27 -9 35 -1 12 2 11 15 -2 11 -11 14 -23 9 -35z m139
-1 c-8 -2 -12 -8 -9 -13 4 -5 -1 -9 -10 -9 -9 0 -14 3 -12 8 2 4 7 15 10 25 6
15 9 16 21 5 12 -11 12 -13 0 -16z m-214 8 c0 -5 -2 -10 -4 -10 -3 0 -8 5 -11
10 -3 6 -1 10 4 10 6 0 11 -4 11 -10z m-216 -16 c8 -21 8 -24 -3 -24 -5 0 -11
9 -14 20 -6 24 8 27 17 4z m72 -38 c-13 -24 -25 -33 -42 -33 -14 0 -24 5 -24
13 0 17 30 19 30 2 1 -24 30 26 30 51 0 20 3 22 12 13 10 -10 8 -20 -6 -46z
m274 24 c0 -5 -4 -10 -10 -10 -5 0 -10 5 -10 10 0 6 5 10 10 10 6 0 10 -4 10
-10z m-75 -18 c-3 -3 -11 0 -18 7 -9 10 -8 11 6 5 10 -3 15 -9 12 -12z m-145
4 c0 -3 -4 -8 -10 -11 -5 -3 -10 -1 -10 4 0 6 5 11 10 11 6 0 10 -2 10 -4z
m258 -7 c-2 -6 -8 -10 -13 -10 -5 0 -11 4 -13 10 -2 6 4 11 13 11 9 0 15 -5
13 -11z m-149 -2 c-2 -1 -15 -11 -28 -22 l-24 -20 12 23 c6 12 19 22 28 22 9
0 14 -1 12 -3z m91 -12 c0 -8 -4 -15 -10 -15 -5 0 -10 7 -10 15 0 8 5 15 10
15 6 0 10 -7 10 -15z m-55 -5 c3 -5 2 -10 -4 -10 -5 0 -13 5 -16 10 -3 6 -2
10 4 10 5 0 13 -4 16 -10z m200 -10 c3 -5 1 -10 -4 -10 -6 0 -11 5 -11 10 0 6
2 10 4 10 3 0 8 -4 11 -10z m-95 -21 c0 -5 -9 -9 -20 -9 -11 0 -20 -7 -20 -15
0 -8 -4 -15 -10 -15 -16 0 -11 32 7 45 18 13 43 10 43 -6z m40 11 c0 -5 -4
-10 -10 -10 -5 0 -10 5 -10 10 0 6 5 10 10 10 6 0 10 -4 10 -10z m-216 -35
c-7 -17 -20 -20 -29 -6 -3 5 3 12 12 14 10 3 19 5 20 6 1 0 0 -6 -3 -14z m66
0 c0 -13 -4 -14 -20 -5 -11 6 -20 13 -20 15 0 3 9 5 20 5 11 0 20 -7 20 -15z
m170 5 c0 -5 -5 -10 -11 -10 -5 0 -7 5 -4 10 3 6 8 10 11 10 2 0 4 -4 4 -10z
m-140 -10 c0 -5 -4 -10 -10 -10 -5 0 -10 5 -10 10 0 6 5 10 10 10 6 0 10 -4
10 -10z m315 -10 c3 -5 -1 -10 -10 -10 -9 0 -13 5 -10 10 3 6 8 10 10 10 2 0
7 -4 10 -10z"/>
<path d="M2838 9493 c-26 -29 -38 -92 -38 -193 0 -113 19 -165 60 -165 44 0
60 51 60 187 0 64 -5 129 -11 145 -17 45 -45 55 -71 26z"/>
<path d="M2247 9503 c-3 -5 -6 -48 -8 -98 -4 -84 -3 -90 16 -93 12 -2 31 8 45
23 20 21 25 37 25 77 0 42 -4 53 -28 74 -29 25 -43 29 -50 17z"/>
<path d="M5020 9028 c0 -9 5 -20 10 -23 13 -8 13 5 0 25 -8 13 -10 13 -10 -2z"/>
<path d="M5140 8792 c0 -12 44 -52 58 -52 19 0 14 17 -10 40 -22 20 -48 27
-48 12z"/>
<path d="M5360 8551 c0 -10 30 -24 37 -17 3 2 -5 9 -16 16 -12 6 -21 7 -21 1z"/>
<path d="M3795 8002 l-50 -17 -3 -258 -2 -258 47 7 c27 4 66 8 88 8 l40 1 2
75 c2 90 -17 392 -26 429 -9 32 -30 35 -96 13z"/>
<path d="M4445 7483 c-70 -48 -85 -63 -85 -85 0 -22 12 -23 57 -2 41 20 86 76
81 102 -3 17 -8 16 -53 -15z"/>
<path d="M3817 7385 c43 -52 56 -55 79 -19 20 30 14 38 -48 53 -70 17 -72 15
-31 -34z"/>
<path d="M4420 7332 c-45 -17 -45 -18 -48 -72 -2 -30 -1 -145 3 -255 7 -193 8
-201 30 -217 21 -16 26 -16 62 -2 l39 15 12 92 c13 95 14 261 3 382 -6 66 -8
70 -31 72 -14 1 -45 -5 -70 -15z"/>
<path d="M5690 7523 c-14 -31 -30 -204 -20 -216 7 -8 140 -23 140 -15 0 24
-90 258 -100 258 -4 0 -13 -12 -20 -27z"/>
<path d="M3560 6144 c-13 -34 -13 -150 0 -175 6 -10 17 -19 25 -19 24 0 35 35
35 110 0 76 -11 110 -36 110 -8 0 -19 -12 -24 -26z"/>
<path d="M3072 5607 c-21 -24 -35 -109 -30 -177 6 -78 20 -105 48 -90 45 24
78 206 46 255 -18 27 -47 33 -64 12z"/>
<path d="M3920 5614 l0 -116 28 7 c58 14 89 76 72 148 -11 50 -36 77 -72 77
l-28 0 0 -116z"/>
<path d="M3413 5593 c-22 -33 -30 -169 -14 -223 24 -80 71 -74 91 11 14 58 8
185 -10 218 -15 29 -46 26 -67 -6z"/>
<path d="M1712 5608 c-6 -8 -14 -36 -17 -64 -11 -81 27 -135 73 -105 20 12 26
120 10 151 -15 28 -49 38 -66 18z"/>
<path d="M1686 5289 c-31 -37 -33 -62 -6 -89 22 -22 70 -26 103 -9 29 16 37
28 37 62 0 23 -7 31 -42 47 -57 26 -62 25 -92 -11z"/>
<path d="M2566 5484 c-16 -16 -22 -105 -10 -138 12 -30 42 -17 63 27 26 54 26
82 1 107 -24 24 -34 25 -54 4z"/>
<path d="M5690 5553 c-27 -57 -45 -151 -36 -184 21 -77 75 -74 95 5 23 93 9
226 -25 226 -6 0 -22 -21 -34 -47z"/>
<path d="M6001 5594 c-6 -15 -14 -46 -18 -70 -5 -41 -4 -44 18 -44 13 0 35 3
47 7 22 5 23 9 17 52 -3 25 -8 54 -11 64 -8 26 -39 21 -53 -9z"/>
<path d="M3001 5111 c-10 -6 -5 -14 18 -30 42 -30 59 -22 24 11 -18 18 -33 24
-42 19z"/>
<path d="M3171 4307 c-15 -19 -2 -29 15 -12 8 7 14 16 14 19 0 11 -17 6 -29
-7z"/>
<path d="M3015 4239 c-10 -42 -2 -45 11 -3 6 19 8 34 3 34 -4 0 -10 -14 -14
-31z"/>
<path d="M3138 4123 c-10 -2 -18 -9 -18 -14 0 -6 10 -5 23 2 37 20 36 23 -5
12z"/>
<path d="M504 3876 c-10 -25 0 -38 13 -17 8 13 9 22 3 26 -6 4 -13 -1 -16 -9z"/>
<path d="M842 3758 c-20 -20 -14 -28 13 -16 13 6 22 15 19 19 -7 12 -18 11
-32 -3z"/>
<path d="M867 3717 c-9 -23 -1 -37 21 -37 11 0 13 3 6 8 -7 4 -13 16 -16 27
-3 19 -4 19 -11 2z"/>
<path d="M900 3726 c0 -9 30 -14 35 -6 4 6 -3 10 -14 10 -12 0 -21 -2 -21 -4z"/>
<path d="M820 3686 c0 -2 9 -6 20 -9 11 -3 18 -1 14 4 -5 9 -34 13 -34 5z"/>
<path d="M1372 2700 c0 -14 2 -19 5 -12 2 6 2 18 0 25 -3 6 -5 1 -5 -13z"/>
<path d="M1542 2688 c-10 -12 -10 -21 -1 -41 6 -14 8 -34 5 -44 -7 -17 -9 -17
-25 4 -17 20 -19 21 -36 5 -13 -13 -19 -14 -22 -4 -3 6 -11 12 -18 12 -8 0
-20 9 -27 19 -13 18 -14 18 -36 1 -18 -15 -19 -19 -6 -24 9 -3 20 -4 25 -1 5
4 6 -1 3 -9 -3 -8 4 -24 15 -35 24 -24 28 -40 6 -21 -8 7 -15 9 -15 4 1 -14
26 -44 38 -44 6 0 14 -9 17 -20 4 -11 11 -18 16 -15 5 4 9 0 9 -7 0 -8 5 -7
17 4 13 14 14 20 4 32 -19 22 4 28 24 6 17 -19 17 -21 -14 -49 l-31 -29 27
-19 c27 -19 29 -19 46 -1 16 17 16 18 -2 18 -14 0 -17 6 -13 25 2 14 8 25 13
25 4 0 9 15 11 33 3 33 21 42 46 24 6 -5 12 -6 12 -2 0 5 8 1 18 -8 26 -24 35
-10 15 23 -13 22 -23 28 -50 27 -44 -1 -60 15 -46 47 7 13 8 27 3 32 -4 5 -10
18 -12 28 -3 17 -4 17 -16 4z m-62 -149 c0 -18 -2 -19 -15 -9 -15 12 -12 30 6
30 5 0 9 -10 9 -21z m70 11 c0 -5 -2 -10 -4 -10 -3 0 -8 5 -11 10 -3 6 -1 10
4 10 6 0 11 -4 11 -10z"/>
<path d="M2765 2675 c-16 -7 -23 -14 -15 -14 25 -1 60 11 60 20 0 12 -9 11
-45 -6z"/>
<path d="M1476 2655 c-3 -8 -1 -17 3 -20 5 -3 11 2 15 10 3 8 1 17 -3 20 -5 3
-11 -2 -15 -10z"/>
<path d="M2345 2640 c4 -13 1 -22 -9 -26 -9 -3 -13 -10 -10 -15 9 -15 18 -10
30 14 11 25 8 47 -8 47 -5 0 -6 -9 -3 -20z"/>
<path d="M2200 2621 c0 -12 5 -21 10 -21 6 0 10 6 10 14 0 8 -4 18 -10 21 -5
3 -10 -3 -10 -14z"/>
<path d="M2344 2545 c-12 -9 -14 -14 -6 -15 7 0 20 7 28 15 20 19 4 20 -22 0z"/>
<path d="M1791 2534 c0 -11 3 -14 6 -6 3 7 2 16 -1 19 -3 4 -6 -2 -5 -13z"/>
<path d="M2231 2540 c-9 -5 -8 -9 5 -14 9 -4 21 -3 26 2 12 12 -15 23 -31 12z"/>
<path d="M1840 2504 c0 -8 5 -12 10 -9 6 4 8 11 5 16 -9 14 -15 11 -15 -7z"/>
<path d="M2080 2510 c0 -5 5 -10 10 -10 6 0 10 5 10 10 0 6 -4 10 -10 10 -5 0
-10 -4 -10 -10z"/>
<path d="M2180 2501 c0 -12 5 -21 10 -21 6 0 10 6 10 14 0 8 -4 18 -10 21 -5
3 -10 -3 -10 -14z"/>
<path d="M2280 2510 c0 -5 5 -10 10 -10 6 0 10 5 10 10 0 6 -4 10 -10 10 -5 0
-10 -4 -10 -10z"/>
<path d="M1592 2493 c1 -10 -1 -23 -5 -30 -4 -6 -3 -22 2 -35 8 -20 10 -21 16
-5 8 19 31 23 37 6 3 -8 14 -7 35 5 18 9 39 16 48 16 8 0 15 7 15 15 0 18 -50
21 -51 3 0 -7 -5 -3 -11 10 -8 15 -17 20 -29 17 -9 -3 -20 -1 -24 5 -10 17
-37 12 -33 -7z m68 -33 c0 -5 -5 -10 -11 -10 -5 0 -7 5 -4 10 3 6 8 10 11 10
2 0 4 -4 4 -10z"/>
<path d="M1891 2489 c9 -17 13 -19 19 -8 11 16 4 29 -16 29 -12 0 -13 -4 -3
-21z"/>
<path d="M2025 2493 c-11 -3 -26 -10 -33 -16 -11 -9 -10 -12 7 -19 12 -4 21
-14 21 -23 0 -8 5 -15 10 -15 6 0 10 7 10 15 0 8 7 15 15 15 8 0 15 4 15 9 0
16 -12 41 -19 40 -3 -1 -15 -4 -26 -6z"/>
<path d="M1765 2470 c-18 -8 -17 -9 7 -9 15 -1 30 -6 33 -11 4 -6 13 -7 23 -1
9 4 23 6 30 4 17 -7 15 14 -3 21 -8 3 -15 1 -15 -4 0 -6 -10 -6 -26 0 -14 6
-26 10 -27 9 -1 0 -11 -4 -22 -9z"/>
<path d="M2100 2476 c0 -2 8 -10 18 -17 15 -13 16 -12 3 4 -13 16 -21 21 -21
13z"/>
<path d="M2155 2460 c3 -5 8 -10 11 -10 2 0 4 5 4 10 0 6 -5 10 -11 10 -5 0
-7 -4 -4 -10z"/>
<path d="M2240 2461 c0 -7 -4 -10 -9 -6 -5 3 -12 1 -16 -5 -3 -5 1 -10 9 -10
17 0 31 18 22 27 -3 4 -6 1 -6 -6z"/>
<path d="M1895 2450 c3 -5 13 -10 21 -10 8 0 12 5 9 10 -3 6 -13 10 -21 10 -8
0 -12 -4 -9 -10z"/>
<path d="M2092 2401 c-23 -10 -39 -20 -36 -24 11 -11 52 -8 59 3 4 6 21 8 39
5 26 -5 32 -3 33 13 2 25 -35 26 -95 3z"/>
<path d="M1707 2179 c7 -7 15 -10 18 -7 3 3 -2 9 -12 12 -14 6 -15 5 -6 -5z"/>
<path d="M1748 2183 c6 -2 18 -2 25 0 6 3 1 5 -13 5 -14 0 -19 -2 -12 -5z"/>
<path d="M1920 2061 c0 -5 7 -11 15 -15 8 -3 15 -1 15 3 0 5 -7 11 -15 15 -8
3 -15 1 -15 -3z"/>
<path d="M4437 3243 c-11 -10 -8 -43 3 -43 6 0 10 11 10 25 0 26 -2 29 -13 18z"/>
<path d="M4436 3171 c-4 -5 3 -7 14 -4 23 6 26 13 6 13 -8 0 -17 -4 -20 -9z"/>
<path d="M4747 3058 c-12 -9 -14 -17 -7 -28 9 -13 11 -13 20 0 9 14 14 40 7
40 -2 0 -11 -6 -20 -12z"/>
<path d="M4780 3030 c0 -5 5 -10 10 -10 6 0 10 5 10 10 0 6 -4 10 -10 10 -5 0
-10 -4 -10 -10z"/>
<path d="M4698 3023 c-10 -2 -18 -9 -18 -14 0 -15 43 -7 48 9 4 12 0 13 -30 5z"/>
<path d="M4920 3706 c0 -2 7 -7 16 -10 8 -3 12 -2 9 4 -6 10 -25 14 -25 6z"/>
<path d="M4910 3580 c-8 -5 -10 -10 -5 -10 6 0 17 5 25 10 8 5 11 10 5 10 -5
0 -17 -5 -25 -10z"/>
<path d="M3810 3084 c0 -8 5 -12 10 -9 6 3 10 10 10 16 0 5 -4 9 -10 9 -5 0
-10 -7 -10 -16z"/>
<path d="M3938 3043 c7 -3 16 -2 19 1 4 3 -2 6 -13 5 -11 0 -14 -3 -6 -6z"/>
<path d="M3780 2709 c0 -5 5 -7 10 -4 6 3 10 8 10 11 0 2 -4 4 -10 4 -5 0 -10
-5 -10 -11z"/>
<path d="M4211 2679 c-27 -16 -36 -18 -42 -7 -5 8 -9 9 -9 2 0 -6 7 -17 15
-24 10 -8 15 -9 15 -1 0 6 11 13 24 17 14 3 27 12 30 20 7 18 7 18 -33 -7z"/>
<path d="M1304 552 c-6 -4 -17 -23 -24 -44 -12 -32 -11 -40 4 -62 14 -22 20
-25 36 -16 11 6 20 15 20 20 0 5 9 12 20 15 23 7 28 63 8 83 -13 13 -47 16
-64 4z"/>
<path d="M1130 490 c0 -33 4 -60 9 -60 13 0 29 22 36 53 6 21 4 27 -9 27 -9 0
-16 8 -16 20 0 11 -4 20 -10 20 -6 0 -10 -27 -10 -60z"/>
<path d="M1208 534 c-12 -12 -9 -92 4 -100 16 -10 36 22 30 51 -2 14 -8 23
-12 20 -5 -3 -10 4 -12 16 -2 11 -6 17 -10 13z"/>
<path d="M5807 2313 c-12 -11 -8 -23 8 -23 8 0 15 7 15 15 0 16 -12 20 -23 8z"/>
<path d="M5990 2170 c0 -15 15 -19 30 -9 8 5 13 9 10 10 -3 0 -13 2 -22 4 -10
2 -18 -1 -18 -5z"/>
<path d="M5483 2135 c-8 -22 6 -33 17 -15 13 20 12 30 0 30 -6 0 -13 -7 -17
-15z"/>
<path d="M6675 2080 c3 -5 10 -10 16 -10 5 0 9 5 9 10 0 6 -7 10 -16 10 -8 0
-12 -4 -9 -10z"/>
<path d="M6316 2064 c-8 -20 0 -32 14 -18 5 5 5 15 1 22 -6 11 -10 10 -15 -4z"/>
<path d="M6720 2065 c0 -8 4 -15 10 -15 5 0 7 7 4 15 -4 8 -8 15 -10 15 -2 0
-4 -7 -4 -15z"/>
<path d="M6617 2055 c-20 -15 -12 -48 11 -43 20 4 35 45 18 51 -6 3 -20 -1
-29 -8z"/>
<path d="M6680 2035 c0 -8 5 -15 10 -15 6 0 10 7 10 15 0 8 -4 15 -10 15 -5 0
-10 -7 -10 -15z"/>
<path d="M5623 2033 c-16 -3 -31 -23 -53 -68 -33 -70 -37 -90 -15 -81 9 3 15
0 15 -8 0 -9 -7 -12 -21 -9 -16 4 -20 2 -17 -8 3 -8 13 -14 23 -14 10 0 19 -6
21 -13 1 -7 0 -8 -3 -2 -10 22 -20 8 -19 -27 1 -37 2 -38 39 -40 33 -1 37 2
37 23 0 39 33 44 99 18 38 -16 59 -20 66 -13 7 7 4 15 -7 23 -22 16 -23 26 -4
26 12 0 25 28 26 55 0 16 -77 93 -97 97 -10 2 -22 13 -28 26 -10 22 -18 24
-62 15z m-26 -236 c10 4 14 2 11 -7 -7 -23 -38 -21 -37 3 0 12 3 17 5 10 3 -7
12 -9 21 -6z"/>
<path d="M6265 1994 c9 -9 19 -13 23 -10 3 4 0 11 -8 16 -24 15 -33 11 -15 -6z"/>
<path d="M6230 1986 c0 -9 5 -16 10 -16 6 0 10 4 10 9 0 6 -4 13 -10 16 -5 3
-10 -1 -10 -9z"/>
<path d="M6231 1934 c0 -11 3 -14 6 -6 3 7 2 16 -1 19 -3 4 -6 -2 -5 -13z"/>
<path d="M5496 1861 c-4 -7 -5 -15 -2 -18 9 -9 19 4 14 18 -4 11 -6 11 -12 0z"/>
<path d="M5520 1829 c0 -6 -7 -9 -15 -5 -9 3 -15 0 -15 -9 0 -8 5 -14 12 -12
7 1 13 -8 14 -20 2 -31 12 -53 24 -53 5 0 10 7 10 15 0 8 -4 15 -10 15 -5 0
-9 18 -7 40 2 22 0 40 -5 40 -4 0 -8 -5 -8 -11z"/>
<path d="M5457 1824 c-3 -3 2 -19 10 -35 10 -21 19 -27 25 -21 7 7 4 19 -9 36
-11 14 -23 23 -26 20z"/>
<path d="M5400 1770 c0 -5 6 -11 13 -14 9 -3 7 -9 -5 -19 -10 -8 -18 -18 -18
-22 0 -4 6 -2 13 4 8 6 16 8 19 5 3 -2 8 6 10 20 4 18 0 26 -14 29 -10 3 -18
1 -18 -3z"/>
<path d="M5341 1738 c-6 -10 -11 -39 -11 -65 1 -42 2 -45 12 -28 7 11 11 32 9
48 -1 17 3 29 12 33 9 3 18 12 21 19 7 20 -30 14 -43 -7z"/>
<path d="M5460 1750 c0 -5 7 -10 16 -10 8 0 12 5 9 10 -3 6 -10 10 -16 10 -5
0 -9 -4 -9 -10z"/>
<path d="M6535 1750 c-3 -5 -1 -10 4 -10 6 0 11 5 11 10 0 6 -2 10 -4 10 -3 0
-8 -4 -11 -10z"/>
<path d="M6433 1449 c9 -5 17 -17 17 -24 0 -8 6 -15 14 -15 14 0 77 -30 86
-41 3 -3 23 -12 45 -20 22 -8 42 -16 45 -20 3 -3 14 -9 24 -12 46 -17 -9 22
-86 63 -46 23 -95 51 -110 61 -14 11 -32 19 -40 19 -8 -1 -7 -4 5 -11z"/>
<path d="M6143 1423 c-28 -5 -30 -29 -3 -43 24 -13 27 -32 3 -23 -11 4 -14 3
-9 -5 4 -7 0 -15 -9 -18 -10 -4 -13 -13 -10 -25 7 -20 -18 -28 -29 -10 -4 5
-19 -3 -36 -17 -23 -20 -27 -29 -18 -40 9 -10 8 -16 -3 -24 -11 -7 -11 -11 -1
-15 6 -2 12 -9 12 -14 0 -5 11 -32 24 -59 13 -27 22 -59 19 -70 -4 -14 0 -20
11 -20 23 0 30 -41 21 -128 -4 -43 -9 -101 -10 -131 -1 -29 -7 -56 -14 -60 -6
-4 -14 -42 -17 -84 -5 -50 -11 -78 -20 -81 -8 -3 -14 -20 -14 -41 0 -38 7 -43
24 -20 10 13 14 13 40 0 15 -8 42 -15 60 -15 24 -1 36 -8 54 -36 12 -20 22
-50 22 -68 0 -36 15 -56 42 -56 10 0 21 -6 24 -14 3 -8 12 -12 20 -9 8 3 14 0
14 -6 0 -15 57 -14 62 1 2 6 9 9 15 5 20 -12 7 -64 -25 -98 -25 -27 -29 -35
-16 -37 8 -2 21 4 28 13 11 15 13 15 25 1 12 -14 10 -16 -8 -16 -14 0 -21 -6
-21 -20 0 -11 6 -20 14 -20 12 0 26 -20 26 -36 0 -15 -39 0 -43 16 -4 16 -14
20 -51 20 -39 0 -46 3 -46 20 0 14 -7 20 -21 20 -16 0 -19 -4 -14 -22 4 -13
14 -30 21 -38 13 -13 7 -16 -53 -26 -39 -7 -69 -8 -71 -3 -2 5 -10 9 -18 9
-10 0 -14 12 -14 40 0 29 -4 40 -15 40 -11 0 -15 -11 -15 -40 0 -29 4 -40 15
-40 11 0 15 -11 15 -40 l0 -40 320 0 320 0 0 491 0 491 -29 -4 c-20 -3 -32 1
-40 14 -6 10 -18 18 -26 18 -8 0 -15 7 -15 15 0 8 -4 15 -10 15 -9 0 -60 47
-60 56 0 3 -12 19 -27 35 -16 17 -38 42 -51 55 -28 32 -46 22 -38 -20 8 -41
-3 -53 -20 -21 -13 25 -16 54 -15 129 1 36 -10 55 -31 56 -5 0 -8 -10 -8 -21
0 -18 -4 -20 -27 -16 -35 7 -54 12 -76 22 -9 4 -26 5 -37 2 -13 -3 -20 0 -20
10 0 8 -18 22 -40 30 -27 11 -40 22 -38 32 4 21 72 24 113 6 22 -10 41 -11 70
-5 52 12 52 12 59 -5 4 -12 0 -14 -19 -9 -14 3 -25 2 -25 -4 0 -13 62 -22 74
-11 6 6 2 15 -10 24 -16 13 -17 16 -4 25 14 9 7 15 -15 10 -77 -15 -102 -17
-115 -11 -19 10 -118 19 -147 14z m17 -17 c0 -3 -4 -8 -10 -11 -5 -3 -10 -1
-10 4 0 6 5 11 10 11 6 0 10 -2 10 -4z m21 -106 c11 0 17 -5 14 -10 -9 -15
-45 7 -44 28 1 16 2 16 6 0 2 -10 13 -18 24 -18z m-91 -36 c0 -8 -7 -14 -15
-14 -8 0 -15 5 -15 10 0 6 5 10 11 10 5 0 7 5 3 12 -4 7 -3 8 4 4 7 -4 12 -14
12 -22z m247 20 c-3 -3 -12 -4 -19 -1 -8 3 -5 6 6 6 11 1 17 -2 13 -5z m-120
-40 c-9 -9 -28 6 -21 18 4 6 10 6 17 -1 6 -6 8 -13 4 -17z m83 1 c0 -8 -4 -15
-10 -15 -5 0 -10 7 -10 15 0 8 5 15 10 15 6 0 10 -7 10 -15z m-234 -42 c-10
-10 -19 5 -10 18 6 11 8 11 12 0 2 -7 1 -15 -2 -18z m54 -13 c0 -5 -4 -10 -10
-10 -5 0 -10 5 -10 10 0 6 5 10 10 10 6 0 10 -4 10 -10z m255 -20 c3 -5 -1
-10 -10 -10 -9 0 -13 5 -10 10 3 6 8 10 10 10 2 0 7 -4 10 -10z m135 -5 c0 -9
-6 -12 -15 -9 -8 4 -12 10 -9 15 8 14 24 10 24 -6z m29 -38 c20 5 22 3 17 -15
-6 -17 3 -32 43 -72 27 -27 55 -50 61 -50 5 0 10 -4 10 -8 0 -5 11 -14 24 -22
13 -7 27 -21 29 -32 5 -19 5 -19 -21 -2 -35 23 -48 34 -84 67 -17 15 -37 26
-44 23 -10 -4 -14 2 -14 19 0 15 -7 26 -20 30 -11 3 -20 15 -20 26 0 12 -7 19
-20 19 -13 0 -18 5 -14 15 5 11 10 12 18 6 7 -6 22 -7 35 -4z"/>
<path d="M6470 1370 c0 -5 5 -10 11 -10 5 0 7 5 4 10 -3 6 -8 10 -11 10 -2 0
-4 -4 -4 -10z"/>
<path d="M6078 1353 c7 -3 16 -2 19 1 4 3 -2 6 -13 5 -11 0 -14 -3 -6 -6z"/>
<path d="M6490 1340 c0 -5 6 -10 14 -10 17 0 108 -49 196 -105 l70 -45 0 30
c0 22 -5 30 -18 30 -22 0 -72 22 -72 33 0 4 -12 7 -26 7 -14 0 -23 4 -19 10 3
6 0 10 -7 10 -7 0 -35 11 -63 25 -54 26 -75 31 -75 15z"/>
<path d="M6690 1306 c0 -3 9 -10 20 -16 11 -6 20 -8 20 -6 0 3 -9 10 -20 16
-11 6 -20 8 -20 6z"/>
<path d="M6530 1270 c14 -10 36 -25 50 -32 31 -16 161 -115 178 -136 10 -14
12 -12 12 11 0 15 -4 27 -8 27 -5 0 -61 34 -125 75 -109 70 -163 98 -107 55z"/>
<path d="M5610 1120 c-21 -7 -21 -8 -5 -9 11 0 27 4 35 9 18 11 5 11 -30 0z"/>
<path d="M5686 1083 c-11 -11 -7 -20 12 -27 9 -3 23 -9 30 -12 6 -3 12 -2 12
3 -1 12 -47 43 -54 36z"/>
<path d="M5700 985 c0 -14 4 -25 9 -25 12 0 23 29 15 41 -10 18 -24 9 -24 -16z"/>
<path d="M5665 990 c-3 -5 -1 -10 4 -10 6 0 11 5 11 10 0 6 -2 10 -4 10 -3 0
-8 -4 -11 -10z"/>
<path d="M6231 278 c1 -41 1 -41 8 -12 4 17 11 36 15 42 4 7 1 12 -8 12 -12 0
-16 -10 -15 -42z"/>
<path d="M5902 118 c-17 -17 -15 -38 3 -38 9 0 15 9 15 25 0 29 -1 30 -18 13z"/>
<path d="M5955 90 c-4 -6 12 -10 40 -10 28 0 44 4 40 10 -3 6 -21 10 -40 10
-19 0 -37 -4 -40 -10z"/>
</g>
</svg>
