<?xml version="1.0" standalone="no"?>
<!DOCTYPE svg PUBLIC "-//W3C//DTD SVG 20010904//EN"
 "http://www.w3.org/TR/2001/REC-SVG-20010904/DTD/svg10.dtd">
<svg version="1.0" xmlns="http://www.w3.org/2000/svg"
 width="181.000000pt" height="279.000000pt" viewBox="0 0 181.000000 279.000000"
 preserveAspectRatio="xMidYMid meet">

<g transform="translate(0.000000,279.000000) scale(0.100000,-0.100000)"
fill="#000000" stroke="none">
<path d="M285 2730 c-3 -11 -13 -20 -21 -20 -17 0 -19 17 -1 23 6 2 -12 4 -40
4 -45 0 -53 -3 -53 -19 0 -15 6 -17 35 -14 19 3 37 0 40 -4 3 -6 16 -5 29 0
13 5 38 6 55 4 26 -4 31 -2 31 15 0 26 -25 28 -39 4 -9 -16 -10 -16 -11 5 0
27 -16 29 -25 2z"/>
<path d="M925 2729 c-8 -23 -8 -23 -16 -4 l-9 20 3 -20 c2 -14 9 -19 22 -17
27 5 28 8 17 28 -9 15 -10 15 -17 -7z"/>
<path d="M130 2720 c0 -11 6 -20 13 -20 7 0 13 9 14 20 1 11 -4 20 -13 20 -8
0 -14 -9 -14 -20z"/>
<path d="M390 2720 c0 -15 7 -20 29 -20 24 0 29 4 28 20 -1 11 -8 20 -15 20
-8 0 -12 -6 -8 -15 3 -9 0 -15 -9 -15 -9 0 -12 6 -9 15 4 8 1 15 -5 15 -6 0
-11 -9 -11 -20z"/>
<path d="M461 2718 c1 -18 2 -19 6 -5 2 9 9 15 14 12 5 -4 9 -1 9 4 0 6 -7 11
-15 11 -9 0 -15 -9 -14 -22z"/>
<path d="M500 2720 c0 -11 4 -20 8 -20 4 0 8 9 8 20 0 11 -4 20 -8 20 -4 0 -8
-9 -8 -20z"/>
<path d="M535 2730 c-8 -13 3 -30 18 -29 9 0 9 2 0 6 -18 7 -16 23 2 23 8 0
15 -6 15 -13 0 -8 12 -13 30 -12 21 0 30 4 28 14 -4 22 -28 25 -29 4 0 -14 -2
-15 -7 -3 -8 18 -48 25 -57 10z"/>
<path d="M641 2723 c-1 -16 5 -23 17 -23 10 0 13 3 6 8 -6 4 -14 14 -17 22 -4
10 -6 8 -6 -7z"/>
<path d="M690 2720 c0 -15 5 -20 18 -18 9 2 17 10 17 18 0 8 -8 16 -17 18 -13
2 -18 -3 -18 -18z m30 0 c0 -5 -4 -10 -10 -10 -5 0 -10 5 -10 10 0 6 5 10 10
10 6 0 10 -4 10 -10z"/>
<path d="M742 2723 c4 -21 33 -25 33 -3 0 8 -8 16 -18 18 -14 3 -18 -1 -15
-15z m28 -3 c0 -5 -4 -10 -10 -10 -5 0 -10 5 -10 10 0 6 5 10 10 10 6 0 10 -4
10 -10z"/>
<path d="M804 2729 c-11 -18 14 -35 29 -20 10 10 9 11 -5 6 -10 -4 -18 -3 -18
3 0 6 8 13 18 15 15 4 15 5 0 6 -9 0 -20 -4 -24 -10z"/>
<path d="M851 2723 c-1 -27 24 -31 33 -7 4 9 4 19 1 22 -2 3 -8 -3 -12 -13 -6
-18 -7 -18 -14 1 -7 17 -8 17 -8 -3z"/>
<path d="M964 2729 c-10 -17 13 -36 27 -22 12 12 4 33 -11 33 -5 0 -12 -5 -16
-11z m26 -9 c0 -5 -4 -10 -10 -10 -5 0 -10 5 -10 10 0 6 5 10 10 10 6 0 10 -4
10 -10z"/>
<path d="M1030 2720 c0 -11 7 -20 15 -20 8 0 15 9 15 20 0 11 -7 20 -15 20 -8
0 -15 -9 -15 -20z"/>
<path d="M1076 2724 c-8 -21 -9 -20 13 -20 12 0 17 6 13 18 -5 22 -18 23 -26
2z"/>
<path d="M1130 2719 c0 -18 2 -19 15 -9 8 7 15 16 15 21 0 5 -7 9 -15 9 -9 0
-15 -9 -15 -21z"/>
<path d="M1170 2720 c0 -13 6 -20 18 -19 11 0 12 2 4 6 -10 4 -10 8 -1 19 9
11 8 14 -5 14 -9 0 -16 -8 -16 -20z"/>
<path d="M1210 2721 c0 -22 16 -36 24 -22 4 5 0 12 -6 14 -10 4 -9 8 2 16 13
9 13 11 -2 11 -11 0 -18 -8 -18 -19z"/>
<path d="M1257 2733 c-13 -13 -7 -29 12 -29 16 0 17 4 10 18 -11 20 -13 21
-22 11z"/>
<path d="M1310 2720 c0 -15 5 -20 18 -18 9 2 17 10 17 18 0 8 -8 16 -17 18
-13 2 -18 -3 -18 -18z m30 0 c0 -5 -4 -10 -10 -10 -5 0 -10 5 -10 10 0 6 5 10
10 10 6 0 10 -4 10 -10z"/>
<path d="M1360 2720 c0 -11 4 -20 8 -20 4 0 8 9 9 20 1 11 -2 20 -8 20 -5 0
-9 -9 -9 -20z"/>
<path d="M1426 2732 c6 -4 14 -14 17 -22 4 -12 6 -11 6 3 1 21 21 23 21 2 0
-21 70 -16 70 5 1 12 3 12 14 -3 13 -17 14 -16 19 2 4 18 0 20 -29 19 -18 -1
-35 -7 -38 -15 -3 -7 -11 -13 -17 -13 -8 0 -8 4 1 15 11 13 6 15 -31 15 -24 0
-39 -4 -33 -8z"/>
<path d="M1590 2720 c0 -24 73 -23 78 2 3 14 -4 17 -37 16 -32 0 -41 -4 -41
-18z m70 6 c0 -3 -4 -8 -10 -11 -5 -3 -10 -1 -10 4 0 6 5 11 10 11 6 0 10 -2
10 -4z"/>
<path d="M0 2565 c0 -52 2 -95 4 -95 12 0 46 71 46 94 0 15 7 29 16 33 13 5
13 7 2 14 -11 7 -10 11 2 19 8 5 24 9 34 7 11 -1 21 3 23 8 2 6 -24 11 -62 13
l-65 2 0 -95z"/>
<path d="M320 2621 c0 -5 9 -11 21 -14 20 -5 20 -11 17 -137 -2 -103 -6 -133
-18 -140 -10 -7 4 -10 45 -9 46 0 55 2 38 9 -21 8 -23 16 -23 80 l0 70 59 0
59 0 4 -62 c3 -38 0 -74 -8 -90 l-12 -28 56 1 c48 0 54 2 35 11 -22 11 -23 16
-23 155 0 89 4 143 10 143 6 0 10 5 10 10 0 6 -22 10 -50 10 -27 0 -50 -4 -50
-10 0 -5 7 -10 15 -10 12 0 15 -13 15 -55 l0 -55 -60 0 -60 0 0 55 c0 42 3 55
15 55 8 0 15 5 15 10 0 6 -25 10 -55 10 -30 0 -55 -4 -55 -9z"/>
<path d="M1422 2593 c1 -10 -13 -42 -32 -71 l-33 -54 -28 46 c-16 25 -29 53
-29 61 0 10 -11 15 -35 15 -19 0 -35 -2 -35 -4 0 -2 15 -19 33 -39 19 -19 41
-51 50 -70 21 -43 23 -163 5 -170 -7 -3 10 -6 37 -6 44 0 48 1 33 13 -14 10
-18 28 -18 71 0 52 5 67 46 132 25 40 52 73 60 73 8 0 14 5 14 10 0 6 -15 10
-34 10 -27 0 -35 -4 -34 -17z"/>
<path d="M666 2483 c-22 -60 -47 -115 -57 -125 -27 -23 -24 -28 17 -28 30 0
35 3 30 17 -4 9 -1 31 5 50 10 31 14 34 46 31 33 -3 37 -7 56 -58 22 -61 31
-70 66 -70 25 0 25 0 5 19 -11 10 -42 75 -69 145 -27 69 -52 126 -55 126 -3 0
-23 -48 -44 -107z m58 -10 c6 -20 4 -23 -18 -23 -30 0 -29 -2 -15 40 12 34 19
30 33 -17z"/>
<path d="M830 2579 c0 -5 5 -9 10 -9 6 0 10 -43 10 -110 0 -67 -4 -110 -10
-110 -5 0 -10 -4 -10 -10 0 -5 18 -10 40 -10 44 0 48 4 24 27 -22 22 -15 77
11 81 14 1 31 -14 60 -54 48 -67 70 -84 110 -84 l30 0 -30 18 c-26 16 -88 83
-109 119 -4 7 0 23 8 35 17 24 21 65 8 85 -4 6 -20 16 -34 22 -33 12 -118 12
-118 0z m114 -31 c9 -12 16 -30 16 -40 0 -27 -35 -57 -59 -51 -18 4 -21 13
-21 52 0 26 3 51 7 54 13 14 42 6 57 -15z"/>
<path d="M1060 2580 c0 -5 5 -10 10 -10 6 0 10 -43 10 -110 0 -67 -4 -110 -10
-110 -5 0 -10 -4 -10 -9 0 -6 18 -9 40 -9 36 0 54 11 31 20 -5 2 -11 21 -13
43 -2 34 0 40 17 43 14 1 29 -11 48 -38 37 -52 68 -72 104 -68 l28 4 -26 11
c-25 11 -99 88 -99 104 0 3 7 12 15 19 16 13 20 67 7 86 -14 22 -51 34 -101
34 -28 0 -51 -4 -51 -10z m110 -30 c37 -37 21 -90 -27 -90 -21 0 -23 4 -23 55
0 61 14 71 50 35z"/>
<path d="M258 2290 c21 -9 22 -13 22 -154 0 -128 -2 -146 -17 -155 -14 -8 -3
-10 42 -10 46 0 55 2 38 9 -22 9 -23 13 -23 155 0 144 0 145 23 145 41 0 67
-27 67 -69 0 -42 -13 -58 -57 -70 -24 -7 -26 -10 -10 -16 48 -20 126 58 113
111 -13 52 -38 64 -133 63 -63 0 -82 -3 -65 -9z"/>
<path d="M684 2255 c-6 -26 -18 -32 -29 -16 -11 19 -90 23 -128 7 -91 -38
-103 -169 -21 -231 10 -8 41 -15 68 -15 59 0 108 27 126 70 17 40 15 105 -4
132 -20 29 -4 48 40 48 l34 0 0 -105 c0 -63 -4 -105 -10 -105 -5 0 -10 -4 -10
-8 0 -10 67 -8 77 2 3 3 1 6 -5 6 -9 0 -12 32 -12 108 l0 109 33 -5 c17 -3 35
-10 39 -16 4 -6 8 0 8 15 l0 25 -100 2 c-98 1 -100 1 -106 -23z m-51 -36 c34
-26 50 -83 36 -132 -23 -85 -131 -93 -165 -12 -23 57 -18 102 15 136 35 35 77
38 114 8z"/>
<path d="M916 2273 c-3 -4 -6 -16 -5 -27 0 -12 3 -15 6 -8 2 7 22 12 44 12
l39 0 0 -119 c0 -86 -3 -121 -12 -124 -7 -3 10 -5 37 -5 28 0 43 2 34 5 -23 6
-29 33 -29 146 0 85 2 97 18 98 33 2 57 -3 64 -15 4 -6 8 1 8 16 l0 28 -99 -1
c-55 0 -102 -3 -105 -6z"/>
<path d="M1143 2269 c14 -8 17 -25 17 -112 0 -67 -4 -107 -12 -115 -9 -9 4
-12 60 -12 72 0 72 0 72 28 -1 23 -2 24 -11 10 -6 -12 -22 -18 -44 -18 l-35 0
0 50 c0 49 1 50 30 50 17 0 30 -5 30 -11 0 -5 5 -7 10 -4 6 3 10 14 10 23 0
14 -7 17 -40 14 l-40 -4 0 46 c0 44 1 46 30 46 17 0 33 -7 39 -17 9 -15 10
-14 11 10 l0 27 -72 0 c-55 -1 -69 -3 -55 -11z"/>
<path d="M1303 2269 c14 -9 17 -26 17 -119 0 -95 -2 -109 -17 -113 -10 -3 5
-5 32 -6 38 0 46 2 33 10 -12 7 -18 22 -18 49 0 35 3 40 23 40 14 0 30 -12 44
-33 50 -73 80 -97 120 -97 l38 1 -30 13 c-26 12 -84 73 -108 113 -4 6 0 27 9
46 21 44 12 84 -22 97 -36 14 -145 13 -121 -1z m106 -23 c7 -8 11 -32 9 -53
-3 -35 -6 -38 -35 -41 l-33 -3 0 55 c0 52 2 56 24 56 13 0 29 -6 35 -14z"/>
<path d="M2 2108 c3 -123 3 -123 28 -126 14 -2 22 -1 18 4 -4 4 -3 13 3 20 6
8 7 23 3 36 -20 61 -20 145 1 168 13 14 11 16 -21 18 l-35 3 3 -123z"/>
<path d="M930 1950 c6 -11 13 -20 16 -20 2 0 0 9 -6 20 -6 11 -13 20 -16 20
-2 0 0 -9 6 -20z"/>
<path d="M1379 1873 c-30 -49 -57 -95 -60 -103 -4 -9 -14 -22 -24 -30 -9 -7
-25 -31 -36 -52 -11 -21 -25 -38 -32 -38 -7 0 -48 -35 -92 -77 -44 -43 -83
-77 -86 -76 -4 1 -16 -8 -27 -20 -15 -16 -18 -27 -12 -37 8 -12 10 -12 10 4 0
11 3 16 7 13 3 -4 2 -17 -4 -30 -31 -66 -35 -114 -9 -104 6 3 12 -4 12 -14 0
-11 -4 -19 -8 -19 -4 0 -8 4 -8 9 0 5 -9 11 -20 14 -11 3 -18 2 -15 -2 2 -4
-11 -8 -30 -9 -20 -1 -35 3 -35 10 0 6 -3 8 -7 5 -3 -4 -12 -2 -19 4 -9 7 -19
7 -33 0 -11 -6 -27 -11 -36 -11 -13 0 -14 4 -5 21 11 20 11 20 -22 3 -18 -9
-36 -21 -39 -26 -3 -5 -9 -3 -12 6 -3 8 -2 18 4 21 5 4 7 10 4 15 -3 5 -1 20
5 35 7 17 7 24 0 20 -6 -3 -10 -12 -10 -20 0 -25 -15 -24 -16 1 -1 13 2 24 7
24 5 0 8 17 8 38 -1 35 -2 36 -8 7 l-6 -29 -17 26 c-10 15 -15 34 -11 44 4 11
3 15 -5 10 -6 -3 -13 3 -17 14 -3 11 -11 20 -16 20 -5 0 -9 5 -9 11 0 5 5 7
12 3 7 -4 8 -3 4 5 -6 8 -11 9 -20 1 -16 -13 -59 28 -87 83 -11 21 -24 35 -29
32 -5 -3 -21 16 -35 42 -14 26 -24 38 -21 26 2 -13 3 -23 1 -23 -4 0 -78 125
-109 185 l-26 50 6 -44 c10 -70 50 -168 83 -207 17 -19 31 -38 31 -42 0 -4
-12 5 -25 21 -13 15 -28 27 -32 26 -4 0 -20 23 -35 53 -16 29 -26 42 -23 28
10 -40 47 -132 67 -165 10 -16 18 -33 18 -37 0 -17 -35 2 -77 43 l-46 44 33
-60 c18 -33 46 -76 61 -95 20 -23 25 -36 17 -41 -7 -5 1 -15 23 -28 45 -28 32
-26 -36 3 -46 21 -53 22 -45 8 20 -35 49 -62 76 -72 19 -8 24 -14 16 -19 -11
-7 -2 -11 83 -36 11 -4 -18 -6 -84 -8 l-43 -1 26 -23 c15 -13 39 -24 54 -24
34 -2 33 -2 57 6 l20 7 -20 -16 c-11 -8 -25 -20 -31 -25 -7 -5 -15 -7 -19 -3
-4 4 -6 1 -3 -7 6 -20 28 -26 28 -8 0 8 11 17 24 19 17 4 23 1 19 -9 -3 -7 0
-13 6 -13 9 0 13 13 10 36 -1 7 22 24 33 24 3 0 4 -12 2 -27 -3 -16 -5 -33 -6
-39 -1 -6 -10 -9 -20 -6 -10 2 -18 -1 -18 -7 0 -7 -5 -9 -12 -5 -7 4 -4 -3 7
-16 11 -13 14 -20 8 -16 -8 4 -13 2 -13 -5 0 -7 -9 -9 -22 -6 -22 6 -22 5 -4
-8 11 -8 15 -19 10 -27 -4 -7 -7 -25 -6 -39 2 -30 -15 -85 -24 -76 -3 3 0 15
6 27 9 16 9 25 1 33 -16 16 -13 38 6 54 11 9 12 12 3 7 -34 -16 -38 -25 -29
-56 4 -17 5 -38 0 -47 -5 -11 -2 -22 10 -33 13 -12 19 -13 23 -5 2 7 2 -4 -1
-23 -3 -19 -9 -39 -14 -44 -11 -12 -39 12 -39 33 1 14 2 14 11 -1 13 -23 31
-23 27 -1 -2 12 -16 18 -53 20 -27 2 -52 7 -55 11 -3 4 -16 7 -30 8 -14 0 -38
4 -55 8 l-30 7 31 -14 c17 -8 51 -18 75 -22 45 -7 99 -47 99 -72 0 -17 17 -17
24 0 3 6 3 1 0 -13 -3 -14 -12 -30 -20 -36 -8 -6 -14 -15 -14 -19 0 -4 7 -2
15 5 21 18 19 -4 -3 -23 -10 -9 -19 -31 -20 -49 l-2 -33 21 33 c14 21 33 35
51 39 23 4 28 10 25 24 -3 11 -1 17 4 13 5 -3 7 -21 5 -40 -3 -19 -1 -34 4
-34 14 0 6 -50 -10 -60 -12 -8 -10 -10 8 -10 14 0 21 4 17 10 -11 18 49 -2 62
-20 15 -21 121 -74 180 -89 33 -9 41 -15 37 -29 -2 -9 1 -7 7 6 7 12 21 23 33
23 20 1 20 2 1 6 -11 3 -25 11 -31 19 -9 11 -18 12 -39 4 -15 -6 -30 -9 -32
-6 -2 2 10 9 28 15 25 9 37 8 59 -6 18 -10 34 -13 46 -8 50 21 92 25 99 7 4
-10 9 -11 18 -4 6 5 23 8 37 5 17 -2 21 0 14 7 -6 6 -24 13 -40 15 -56 9 -64
11 -77 25 -9 10 -9 11 1 6 6 -4 12 -3 12 2 0 5 6 9 13 9 6 0 28 4 47 8 54 12
85 11 85 -2 0 -6 3 -15 8 -19 4 -4 7 -2 7 6 0 10 3 10 15 0 8 -7 13 -16 10
-19 -2 -4 2 -8 10 -8 9 0 8 8 -7 28 -11 15 -21 39 -20 53 0 15 -4 29 -9 32
-26 16 18 63 62 67 12 1 15 5 9 11 -6 6 -3 14 8 23 15 13 14 13 -6 3 -12 -6
-21 -14 -18 -18 2 -4 -8 -7 -23 -7 -24 -1 -27 3 -28 38 -1 31 2 40 18 44 10 3
20 13 20 22 2 17 5 40 8 55 0 5 8 3 16 -4 13 -11 14 -10 9 3 -3 8 -12 18 -20
21 -10 4 -12 2 -8 -6 4 -7 3 -8 -4 -4 -17 10 4 46 26 46 14 1 14 2 -3 12 -11
6 -25 18 -31 26 -11 16 -6 72 7 72 5 0 6 7 2 17 -5 13 -8 12 -16 -8 -6 -13 -9
-31 -8 -41 1 -9 -3 -19 -10 -23 -8 -5 -9 -1 -4 15 6 19 4 22 -9 17 -21 -8 -61
24 -43 35 9 6 9 8 -2 8 -7 0 -24 12 -38 26 -23 25 -23 25 -2 19 18 -6 21 -4
16 9 -5 13 -3 15 11 7 9 -5 35 -5 57 -1 22 4 35 8 28 9 -19 2 -8 33 18 47 13
7 18 13 12 14 -25 0 -12 19 18 25 17 4 28 9 25 13 -3 3 7 13 23 23 15 9 39 31
51 49 22 31 22 32 2 21 -43 -23 -45 -10 -4 32 53 54 54 68 3 28 -21 -17 -42
-31 -45 -31 -6 0 32 59 45 70 10 8 27 43 48 100 11 30 14 46 8 36 -23 -36 -56
-71 -57 -59 0 7 19 49 41 93 45 87 49 122 6 41 -28 -51 -57 -84 -53 -59 1 7
18 45 38 83 35 68 64 153 55 161 -2 2 -28 -35 -58 -83z m-239 -327 c0 -3 -4
-8 -10 -11 -5 -3 -10 -1 -10 4 0 6 5 11 10 11 6 0 10 -2 10 -4z m150 -11 c-7
-8 -18 -15 -24 -15 -6 0 -2 7 8 15 25 19 32 19 16 0z m-692 -51 c5 3 16 -4 25
-15 16 -18 16 -20 1 -26 -9 -3 -19 0 -24 6 -4 7 -11 12 -16 12 -5 -1 -9 3 -9
7 0 5 -13 21 -30 36 l-30 28 37 -27 c20 -15 41 -24 46 -21z m654 -61 c-6 -2
-10 -8 -8 -12 3 -4 0 -13 -6 -21 -8 -12 -9 -12 -4 3 3 9 1 17 -4 17 -6 0 -10
5 -10 10 0 6 10 10 23 9 12 0 16 -3 9 -6z m-602 -33 c0 -5 -4 -10 -9 -10 -6 0
-13 5 -16 10 -3 6 1 10 9 10 9 0 16 -4 16 -10z m415 -29 c3 -5 2 -12 -3 -15
-5 -3 -9 1 -9 9 0 17 3 19 12 6z m-390 -50 c-1 -9 -9 -17 -18 -19 -21 -4 -23
16 -3 24 8 3 12 13 9 22 -4 14 -3 14 5 3 5 -7 9 -21 7 -30z m40 -1 c-3 -6 -10
-10 -16 -10 -10 0 -12 33 -2 44 9 9 26 -22 18 -34z m355 11 c0 -6 -4 -12 -8
-15 -5 -3 -9 1 -9 9 0 8 4 15 9 15 4 0 8 -4 8 -9z m-223 -27 c-3 -3 -12 -4
-19 -1 -8 3 -5 6 6 6 11 1 17 -2 13 -5z m-137 -8 c0 -3 -4 -8 -10 -11 -5 -3
-10 -1 -10 4 0 6 5 11 10 11 6 0 10 -2 10 -4z m135 -36 c-3 -5 3 -10 14 -10
11 0 25 -9 31 -20 8 -14 8 -20 0 -20 -6 0 -13 7 -16 15 -4 10 -13 13 -26 9
-14 -4 -18 -2 -14 5 4 6 1 11 -6 11 -9 0 -9 3 2 10 19 12 23 12 15 0z m82 -16
c-3 -3 -12 -4 -19 -1 -8 3 -5 6 6 6 11 1 17 -2 13 -5z m58 -4 c3 -6 -1 -7 -9
-4 -18 7 -21 14 -7 14 6 0 13 -4 16 -10z m-42 -17 c-4 -10 -2 -14 4 -10 6 4
16 0 23 -8 11 -13 10 -14 -5 -9 -14 6 -16 4 -11 -7 4 -8 -1 -3 -12 11 -15 18
-17 27 -9 32 17 11 17 10 10 -9z m-240 -42 c-6 -23 -53 -70 -53 -52 0 6 7 14
16 18 8 3 13 12 10 20 -3 8 -2 12 3 9 5 -3 11 1 15 9 8 22 15 18 9 -4z m24 -6
c-7 -13 -14 -20 -15 -14 -2 5 2 16 8 24 18 21 20 18 7 -10z m158 15 c3 -6 -1
-7 -9 -4 -18 7 -21 14 -7 14 6 0 13 -4 16 -10z m120 -31 c11 -16 1 -19 -13 -3
-7 8 -8 14 -3 14 5 0 13 -5 16 -11z m-428 -61 c-3 -7 -5 -2 -5 12 0 14 2 19 5
13 2 -7 2 -19 0 -25z m96 -3 c-3 -9 -8 -14 -10 -11 -3 3 -2 9 2 15 9 16 15 13
8 -4z m191 -21 c-6 -3 -9 -16 -6 -29 4 -24 -14 -35 -31 -19 -8 9 23 54 37 53
8 0 8 -2 0 -5z m-208 -36 c4 -6 3 -8 -3 -5 -13 8 -10 -112 3 -121 10 -7 34
-58 34 -70 0 -4 -5 1 -11 10 -5 10 -16 15 -25 11 -13 -5 -15 -2 -9 16 4 12 2
27 -3 34 -15 20 -22 60 -15 100 6 37 16 47 29 25z m510 -60 c10 -12 14 -18 7
-15 -6 4 -13 4 -16 0 -2 -5 -3 -3 -1 3 1 6 -3 17 -9 23 -6 6 -9 11 -6 11 3 0
14 -10 25 -22z m-67 -57 c-6 -33 -19 -66 -27 -73 -14 -11 -15 -10 -7 7 4 11
15 46 24 77 20 73 26 67 10 -11z m-229 42 c-1 -24 -20 -34 -63 -31 -47 3 -47
3 -24 20 22 17 87 25 87 11z m-316 -38 c3 -8 1 -15 -4 -15 -6 0 -10 7 -10 15
0 8 2 15 4 15 2 0 6 -7 10 -15z m140 -31 c3 -8 2 -12 -4 -9 -6 3 -10 10 -10
16 0 14 7 11 14 -7z m161 -45 c4 -11 4 -23 1 -27 -10 -9 -39 25 -32 37 11 17
24 13 31 -10z m132 5 c-3 -3 -12 -4 -19 -1 -8 3 -5 6 6 6 11 1 17 -2 13 -5z
m-438 -25 c-16 -10 -23 -4 -14 10 3 6 11 8 17 5 6 -4 5 -9 -3 -15z m81 -4 c0
-8 -4 -15 -9 -15 -13 0 -22 16 -14 24 11 11 23 6 23 -9z m104 -1 c3 -8 2 -12
-4 -9 -6 3 -10 10 -10 16 0 14 7 11 14 -7z m127 -42 c-13 -2 -27 0 -32 5 -6 6
3 7 23 4 28 -4 29 -6 9 -9z m106 2 c-3 -3 -12 -4 -19 -1 -8 3 -5 6 6 6 11 1
17 -2 13 -5z m-12 -34 c-3 -5 -12 -10 -18 -10 -7 0 -6 4 3 10 19 12 23 12 15
0z m-44 -23 c-10 -9 -11 -8 -5 6 3 10 9 15 12 12 3 -3 0 -11 -7 -18z m-34
-103 c-3 -3 -12 -4 -19 -1 -8 3 -5 6 6 6 11 1 17 -2 13 -5z"/>
<path d="M598 1875 c-9 -21 -8 -28 7 -45 10 -11 30 -20 44 -19 l26 1 -24 7
c-35 9 -49 36 -33 61 7 12 8 20 2 20 -6 0 -16 -11 -22 -25z"/>
<path d="M700 1855 c0 -25 3 -45 8 -45 4 0 7 20 7 45 0 25 -3 45 -7 45 -5 0
-8 -20 -8 -45z"/>
<path d="M736 1869 c2 -45 3 -46 21 -53 16 -6 16 -6 0 11 -9 11 -14 27 -11 40
3 11 2 23 -3 26 -4 3 -7 -8 -7 -24z"/>
<path d="M793 1855 c0 -27 2 -38 4 -22 2 15 2 37 0 50 -2 12 -4 0 -4 -28z"/>
<path d="M855 1890 c-4 -7 -3 -15 3 -19 6 -3 14 -19 17 -34 4 -15 11 -27 16
-27 12 0 12 2 -10 50 -12 27 -21 38 -26 30z"/>
<path d="M921 1854 c1 -43 2 -45 8 -16 l6 34 24 -26 c34 -36 41 -33 39 17 -1
38 -2 39 -5 8 l-4 -34 -35 34 -34 33 1 -50z"/>
<path d="M1028 1876 c-9 -21 -7 -29 16 -56 14 -17 26 -27 26 -21 0 6 8 12 18
12 9 1 4 4 -13 8 -24 5 -31 12 -33 35 -2 16 2 32 10 37 10 7 10 9 0 9 -7 0
-17 -11 -24 -24z"/>
<path d="M1145 1890 c-4 -7 -3 -15 3 -19 6 -3 14 -19 17 -34 4 -15 11 -27 16
-27 12 0 12 2 -10 50 -12 27 -21 38 -26 30z"/>
<path d="M836 1845 c-3 -9 -6 -22 -5 -28 0 -7 5 -1 10 12 5 13 8 26 5 28 -2 2
-6 -3 -10 -12z"/>
<path d="M1126 1845 c-3 -9 -6 -22 -5 -28 0 -7 5 -1 10 12 5 13 8 26 5 28 -2
2 -6 -3 -10 -12z"/>
<path d="M0 1615 c0 -141 4 -215 10 -215 6 0 14 8 17 18 4 9 12 21 20 25 7 4
13 15 13 22 0 8 5 15 10 15 6 0 10 11 10 24 0 13 7 26 15 30 23 8 18 36 -6 36
-16 0 -19 3 -11 13 13 16 18 49 10 63 -4 6 -1 20 7 30 13 18 14 18 15 1 0 -14
5 -16 26 -11 19 5 25 4 20 -5 -4 -6 -2 -11 3 -11 6 0 11 9 11 20 0 13 -5 18
-16 13 -10 -4 -17 1 -21 15 -3 15 -12 21 -27 19 -16 -1 -21 3 -20 21 0 12 -5
22 -11 22 -19 0 -48 37 -36 45 19 11 12 25 -14 25 l-25 0 0 -215z m73 -77 c-2
-4 -10 -2 -17 5 -8 6 -12 15 -9 19 2 4 10 2 17 -5 8 -6 12 -15 9 -19z"/>
<path d="M610 1764 c0 -6 7 -19 16 -30 14 -18 14 -18 3 6 -14 31 -19 36 -19
24z"/>
<path d="M782 1745 c0 -16 2 -22 5 -12 2 9 2 23 0 30 -3 6 -5 -1 -5 -18z"/>
<path d="M822 1745 c0 -16 2 -22 5 -12 2 9 2 23 0 30 -3 6 -5 -1 -5 -18z"/>
<path d="M858 1743 c5 -21 7 -23 10 -9 2 10 0 22 -6 28 -6 6 -7 0 -4 -19z"/>
<path d="M892 1745 c0 -16 2 -22 5 -12 2 9 2 23 0 30 -3 6 -5 -1 -5 -18z"/>
<path d="M913 1754 c-3 -9 2 -23 13 -32 17 -16 17 -16 5 0 -7 10 -11 25 -7 33
3 8 3 15 0 15 -2 0 -7 -7 -11 -16z"/>
<path d="M1010 1761 c0 -6 4 -13 10 -16 6 -3 7 1 4 9 -7 18 -14 21 -14 7z"/>
<path d="M1051 1765 c1 -19 18 -51 18 -35 0 8 -4 22 -9 30 -5 8 -9 11 -9 5z"/>
<path d="M1092 1745 c0 -16 2 -22 5 -12 2 9 2 23 0 30 -3 6 -5 -1 -5 -18z"/>
<path d="M1127 1749 c4 -13 8 -18 11 -10 2 7 -1 18 -6 23 -8 8 -9 4 -5 -13z"/>
<path d="M660 1755 c0 -5 5 -17 10 -25 5 -8 10 -10 10 -5 0 6 -5 17 -10 25 -5
8 -10 11 -10 5z"/>
<path d="M697 1739 c4 -13 8 -18 11 -10 2 7 -1 18 -6 23 -8 8 -9 4 -5 -13z"/>
<path d="M971 1744 c0 -11 3 -14 6 -6 3 7 2 16 -1 19 -3 4 -6 -2 -5 -13z"/>
<path d="M1172 1740 c7 -10 14 -18 15 -16 6 6 -9 36 -18 36 -5 0 -4 -9 3 -20z"/>
<path d="M928 1668 c6 -6 18 -8 28 -6 14 3 12 5 -9 10 -19 3 -25 2 -19 -4z"/>
<path d="M114 1615 c1 -20 6 -25 26 -24 17 1 19 3 8 6 -10 2 -18 9 -18 14 0 5
8 9 18 10 14 0 14 2 -3 9 -31 13 -33 12 -31 -15z"/>
<path d="M670 1607 c0 -8 16 -12 45 -13 27 0 45 4 45 11 0 7 -7 12 -15 12 -8
0 -15 -5 -15 -11 0 -6 -5 -4 -10 4 -9 13 -11 13 -20 0 -6 -10 -10 -11 -10 -2
0 6 -4 12 -10 12 -5 0 -10 -6 -10 -13z"/>
<path d="M770 1605 c0 -8 2 -15 4 -15 2 0 6 7 10 15 3 8 1 15 -4 15 -6 0 -10
-7 -10 -15z"/>
<path d="M800 1605 c0 -8 4 -15 8 -15 5 0 9 7 9 15 0 8 -4 15 -9 15 -4 0 -8
-7 -8 -15z"/>
<path d="M833 1605 c0 -8 4 -15 9 -15 4 0 8 4 8 9 0 6 -4 12 -8 15 -5 3 -9 -1
-9 -9z"/>
<path d="M874 1610 c2 -16 20 -14 24 2 3 10 2 10 -6 -1 -7 -9 -11 -10 -15 -2
-4 7 -5 8 -3 1z"/>
<path d="M910 1604 c0 -8 6 -11 15 -8 8 4 15 9 15 13 0 4 -7 8 -15 8 -8 0 -15
-6 -15 -13z"/>
<path d="M970 1605 c0 -8 4 -15 10 -15 5 0 7 7 4 15 -4 8 -8 15 -10 15 -2 0
-4 -7 -4 -15z"/>
<path d="M1010 1609 c0 -12 10 -16 40 -15 22 0 40 5 40 11 0 6 -13 11 -30 11
-16 0 -30 -4 -30 -10 0 -6 -5 -4 -10 4 -8 13 -10 13 -10 -1z"/>
<path d="M1103 1605 c0 -8 4 -15 9 -15 4 0 8 4 8 9 0 6 -4 12 -8 15 -5 3 -9
-1 -9 -9z"/>
<path d="M800 1492 c0 -5 -9 -18 -21 -30 -11 -13 -19 -27 -17 -31 2 -5 15 9
30 30 15 22 23 39 18 39 -6 0 -10 -4 -10 -8z"/>
<path d="M597 1263 c-4 -3 -7 -11 -7 -17 0 -6 5 -5 12 2 6 6 9 14 7 17 -3 3
-9 2 -12 -2z"/>
<path d="M400 1256 c0 -8 54 -56 79 -70 9 -5 12 -5 6 0 -5 5 -27 25 -47 43
-21 19 -38 32 -38 27z"/>
<path d="M1120 1221 c0 -5 9 -7 20 -4 11 3 20 7 20 9 0 2 -9 4 -20 4 -11 0
-20 -4 -20 -9z"/>
<path d="M1228 1223 c6 -2 18 -2 25 0 6 3 1 5 -13 5 -14 0 -19 -2 -12 -5z"/>
<path d="M1196 923 c-11 -11 -7 -20 9 -20 8 0 15 4 15 8 0 11 -16 20 -24 12z"/>
<path d="M1192 879 c2 -6 8 -10 13 -10 5 0 11 4 13 10 2 6 -4 11 -13 11 -9 0
-15 -5 -13 -11z"/>
<path d="M1186 793 c-6 -14 -5 -15 5 -6 7 7 10 15 7 18 -3 3 -9 -2 -12 -12z"/>
<path d="M471 704 c0 -11 3 -14 6 -6 3 7 2 16 -1 19 -3 4 -6 -2 -5 -13z"/>
<path d="M993 626 c-13 -6 -23 -14 -23 -19 0 -4 -6 -5 -12 -1 -7 4 -9 3 -5 -1
10 -12 38 -15 31 -4 -3 5 4 9 15 9 12 0 21 7 21 15 0 8 -1 14 -2 14 -2 -1 -13
-6 -25 -13z"/>
<path d="M996 585 c-3 -9 -6 -24 -5 -33 0 -9 5 -4 10 12 9 32 6 48 -5 21z"/>
<path d="M390 504 c0 -8 5 -12 10 -9 6 3 10 10 10 16 0 5 -4 9 -10 9 -5 0 -10
-7 -10 -16z"/>
<path d="M425 510 c-3 -5 -1 -10 4 -10 6 0 11 5 11 10 0 6 -2 10 -4 10 -3 0
-8 -4 -11 -10z"/>
<path d="M481 504 c0 -11 3 -14 6 -6 3 7 2 16 -1 19 -3 4 -6 -2 -5 -13z"/>
<path d="M505 510 c-3 -5 -1 -10 4 -10 6 0 11 5 11 10 0 6 -2 10 -4 10 -3 0
-8 -4 -11 -10z"/>
<path d="M534 509 c-3 -5 -4 -9 -2 -10 30 -6 60 -6 49 0 -11 7 -11 9 0 13 8 3
2 5 -14 5 -15 0 -30 -3 -33 -8z"/>
<path d="M610 509 c0 -4 7 -9 15 -13 9 -3 15 0 15 8 0 7 -7 13 -15 13 -8 0
-15 -4 -15 -8z"/>
<path d="M725 510 c-3 -5 -1 -10 4 -10 6 0 11 5 11 10 0 6 -2 10 -4 10 -3 0
-8 -4 -11 -10z"/>
<path d="M760 512 c0 -5 7 -9 15 -9 8 0 12 4 9 9 -3 4 -9 8 -15 8 -5 0 -9 -4
-9 -8z"/>
<path d="M800 511 c0 -15 18 -23 25 -11 4 6 12 7 18 4 7 -4 9 -3 4 1 -11 13
-47 17 -47 6z"/>
<path d="M865 510 c-3 -5 -1 -10 4 -10 6 0 11 5 11 10 0 6 -2 10 -4 10 -3 0
-8 -4 -11 -10z"/>
<path d="M900 508 c0 -4 7 -8 15 -8 8 0 15 4 15 8 0 5 -7 9 -15 9 -8 0 -15 -4
-15 -9z"/>
<path d="M940 509 c0 -5 4 -8 9 -5 5 4 12 0 14 -6 3 -8 6 -6 6 5 1 9 -6 17
-14 17 -8 0 -15 -5 -15 -11z"/>
<path d="M1018 513 c6 -3 10 -8 7 -13 -3 -4 4 -6 15 -3 29 8 24 21 -7 20 -16
0 -22 -2 -15 -4z"/>
<path d="M1090 510 c0 -5 5 -10 11 -10 5 0 7 5 4 10 -3 6 -8 10 -11 10 -2 0
-4 -4 -4 -10z"/>
<path d="M1133 506 c3 -6 11 -10 18 -8 8 2 22 4 31 5 34 2 18 16 -17 15 -21
-1 -34 -6 -32 -12z"/>
<path d="M1216 507 c3 -10 9 -15 12 -12 3 3 0 11 -7 18 -10 9 -11 8 -5 -6z"/>
<path d="M1240 510 c0 -5 9 -10 21 -10 11 0 17 5 14 10 -3 6 -13 10 -21 10 -8
0 -14 -4 -14 -10z"/>
<path d="M1295 510 c-3 -5 -1 -10 4 -10 6 0 11 5 11 10 0 6 -2 10 -4 10 -3 0
-8 -4 -11 -10z"/>
<path d="M1320 511 c0 -6 4 -13 10 -16 6 -3 7 1 4 9 -7 18 -14 21 -14 7z"/>
<path d="M1360 505 c0 -8 2 -15 4 -15 2 0 6 7 10 15 3 8 1 15 -4 15 -6 0 -10
-7 -10 -15z"/>
<path d="M1390 505 c0 -8 4 -15 10 -15 5 0 7 7 4 15 -4 8 -8 15 -10 15 -2 0
-4 -7 -4 -15z"/>
<path d="M420 415 c0 -30 -4 -55 -10 -55 -5 0 -10 -5 -10 -11 0 -6 10 -9 23
-7 19 3 22 10 25 59 2 44 -1 58 -13 62 -12 5 -15 -3 -15 -48z"/>
<path d="M500 415 c0 -33 4 -45 15 -45 9 0 15 9 15 22 l0 22 16 -22 c8 -12 22
-22 30 -22 18 0 18 9 -3 32 -15 17 -15 19 2 38 17 19 17 20 0 20 -10 0 -24 -8
-31 -17 -13 -17 -13 -17 -14 0 0 9 -7 17 -15 17 -11 0 -15 -12 -15 -45z"/>
<path d="M660 416 c0 -34 4 -46 15 -46 9 0 15 9 16 23 l0 22 16 -22 c16 -24
51 -33 36 -11 -4 7 -7 26 -8 43 0 27 -3 30 -37 33 l-38 3 0 -45z m50 13 c0 -5
-4 -9 -10 -9 -5 0 -10 7 -10 16 0 8 5 12 10 9 6 -3 10 -10 10 -16z"/>
<path d="M767 453 c-11 -11 -8 -58 5 -71 7 -7 24 -12 38 -12 31 0 50 17 50 45
0 12 -5 26 -12 33 -13 13 -70 17 -81 5z m66 -25 c7 -21 -4 -38 -23 -38 -10 0
-20 6 -23 13 -7 20 4 37 23 37 10 0 20 -6 23 -12z"/>
<path d="M875 443 c4 -10 12 -30 17 -45 5 -16 16 -28 23 -28 7 0 18 12 23 28
l9 27 13 -28 c17 -36 29 -31 51 21 16 37 16 42 3 42 -9 0 -18 -9 -21 -20 -3
-11 -9 -20 -13 -20 -4 0 -10 9 -13 20 -7 27 -33 25 -41 -2 l-7 -23 -11 23
c-13 27 -44 31 -33 5z"/>
<path d="M1040 415 l0 -45 41 0 c24 0 38 4 34 10 -3 6 -15 10 -26 10 -15 0
-19 7 -19 35 0 24 -5 35 -15 35 -11 0 -15 -12 -15 -45z"/>
<path d="M1130 415 c0 -33 4 -45 15 -45 11 0 15 12 15 45 0 33 -4 45 -15 45
-11 0 -15 -12 -15 -45z"/>
<path d="M1180 415 c0 -33 4 -45 15 -45 10 0 15 10 15 28 l1 27 22 -27 c33
-41 47 -36 47 17 0 25 -4 45 -10 45 -5 0 -10 -9 -10 -20 0 -11 -4 -20 -8 -20
-5 0 -17 9 -27 20 -30 33 -45 25 -45 -25z"/>
<path d="M1310 440 c-15 -28 -3 -59 25 -66 37 -9 60 -1 63 24 3 17 -2 22 -18
22 -16 0 -20 -4 -16 -15 3 -9 0 -15 -10 -15 -20 0 -29 27 -14 45 8 9 21 13 36
9 15 -4 24 -2 24 5 0 6 -17 11 -40 11 -29 0 -42 -5 -50 -20z"/>
<path d="M460 380 c0 -5 5 -10 10 -10 6 0 10 5 10 10 0 6 -4 10 -10 10 -5 0
-10 -4 -10 -10z"/>
<path d="M600 380 c0 -5 5 -10 10 -10 6 0 10 5 10 10 0 6 -4 10 -10 10 -5 0
-10 -4 -10 -10z"/>
<path d="M287 288 c-5 -37 -3 -43 12 -33 13 8 15 65 2 65 -5 0 -11 -15 -14
-32z"/>
<path d="M322 298 c4 -30 43 -33 43 -3 0 13 -8 21 -23 23 -20 3 -23 0 -20 -20z
m28 -4 c0 -8 -5 -12 -10 -9 -6 4 -8 11 -5 16 9 14 15 11 15 -7z"/>
<path d="M380 295 c0 -26 15 -34 23 -12 4 9 8 8 16 -3 9 -12 11 -9 11 15 0 24
-2 27 -11 15 -8 -11 -12 -12 -16 -2 -8 21 -23 13 -23 -13z"/>
<path d="M447 313 c-11 -10 -8 -43 3 -43 6 0 10 5 10 12 0 9 3 9 12 0 19 -19
28 -14 28 13 0 14 -4 25 -10 25 -5 0 -10 -5 -10 -11 0 -8 -4 -9 -13 0 -8 6
-17 8 -20 4z"/>
<path d="M536 312 c7 -4 14 -16 17 -27 4 -19 5 -19 6 2 0 12 7 24 14 26 6 3
-1 6 -18 6 -16 0 -25 -3 -19 -7z"/>
<path d="M588 295 c-3 -14 -1 -25 3 -25 5 0 9 11 9 25 0 14 -2 25 -4 25 -2 0
-6 -11 -8 -25z"/>
<path d="M610 295 c0 -29 6 -31 26 -10 12 12 12 15 2 15 -10 0 -9 3 2 10 12 8
11 10 -7 10 -18 0 -23 -6 -23 -25z"/>
<path d="M660 295 c0 -22 2 -24 14 -13 9 8 10 15 4 19 -6 4 -5 9 3 12 10 4 9
6 -3 6 -13 1 -18 -7 -18 -24z"/>
<path d="M710 311 c0 -5 -2 -15 -5 -23 -4 -9 3 -13 20 -13 29 0 28 0 15 26
-11 20 -30 26 -30 10z"/>
<path d="M760 293 c0 -21 3 -24 9 -14 8 12 12 12 25 2 14 -12 16 -10 16 15 0
20 -3 25 -9 15 -6 -9 -11 -10 -15 -2 -13 20 -26 11 -26 -16z"/>
<path d="M828 306 c5 -6 11 -17 14 -25 2 -8 8 -4 15 12 10 22 9 25 -13 25 -17
0 -22 -4 -16 -12z"/>
<path d="M907 313 c-4 -3 -1 -13 6 -21 9 -13 9 -14 0 -8 -7 4 -13 2 -13 -3 0
-17 37 -13 44 5 3 8 2 12 -4 9 -6 -3 -10 1 -10 9 0 16 -12 21 -23 9z"/>
<path d="M980 290 c0 -16 5 -30 10 -30 6 0 10 14 10 30 0 17 -4 30 -10 30 -5
0 -10 -13 -10 -30z"/>
<path d="M1020 311 c0 -5 -2 -15 -5 -23 -4 -9 3 -13 20 -13 29 0 28 0 15 26
-11 20 -30 26 -30 10z"/>
<path d="M1074 305 c-8 -19 4 -35 24 -34 15 1 15 2 0 6 -10 2 -18 11 -18 18 0
7 8 16 18 18 16 4 16 5 -1 6 -10 0 -20 -6 -23 -14z"/>
<path d="M1120 294 c0 -30 10 -30 32 0 17 23 16 24 -7 24 -20 0 -25 -6 -25
-24z"/>
<path d="M1206 312 c7 -4 14 -16 17 -27 4 -19 5 -19 6 2 0 12 7 24 14 26 6 3
-1 6 -18 6 -16 0 -25 -3 -19 -7z"/>
<path d="M1260 295 c0 -24 2 -27 11 -15 8 11 12 12 16 3 8 -22 23 -14 23 12 0
26 -15 34 -23 13 -4 -10 -8 -9 -16 2 -9 12 -11 9 -11 -15z"/>
<path d="M1324 305 c-4 -9 -2 -21 4 -27 15 -15 44 -1 40 19 -4 23 -36 29 -44
8z m30 -16 c-3 -5 -10 -7 -15 -3 -5 3 -7 10 -3 15 3 5 10 7 15 3 5 -3 7 -10 3
-15z"/>
<path d="M1380 295 c0 -14 5 -25 11 -25 5 0 7 5 4 10 -3 6 -1 10 4 10 6 0 11
-4 11 -10 0 -5 4 -10 9 -10 4 0 6 11 3 25 -3 16 -11 25 -23 25 -14 0 -19 -7
-19 -25z"/>
<path d="M1440 294 c0 -20 3 -25 9 -15 6 9 11 10 15 2 13 -20 26 -11 26 17 0
20 -3 23 -9 13 -8 -12 -12 -12 -25 -2 -14 12 -16 10 -16 -15z"/>
<path d="M1500 295 c0 -19 5 -25 23 -25 18 0 19 2 7 10 -13 9 -13 10 0 10 12
0 13 2 1 9 -11 7 -11 9 0 14 8 3 4 6 -8 6 -18 1 -23 -5 -23 -24z"/>
<path d="M1150 280 c0 -5 5 -10 11 -10 5 0 7 5 4 10 -3 6 -8 10 -11 10 -2 0
-4 -4 -4 -10z"/>
<path d="M420 228 c0 -14 9 -17 50 -16 30 0 48 4 44 10 -3 5 -8 7 -11 4 -3 -2
-16 -1 -29 4 -15 6 -26 6 -30 -1 -4 -8 -9 -7 -15 2 -7 11 -9 10 -9 -3z"/>
<path d="M565 232 c-36 -7 -36 -18 0 -20 19 -2 35 2 35 7 0 14 -12 18 -35 13z"/>
<path d="M640 230 c0 -5 -7 -7 -15 -4 -8 4 -15 2 -15 -3 0 -5 11 -9 24 -9 15
0 22 5 19 13 -6 15 -13 17 -13 3z"/>
<path d="M680 226 c0 -6 9 -12 20 -13 11 -1 20 2 20 6 0 5 -9 11 -20 14 -12 3
-20 0 -20 -7z"/>
<path d="M734 229 c-3 -6 -2 -15 3 -20 5 -5 9 -1 9 11 0 23 -2 24 -12 9z"/>
<path d="M1162 227 c-11 -12 -8 -15 16 -14 16 1 29 7 29 14 0 9 -4 10 -13 2
-8 -7 -13 -6 -16 2 -2 7 -8 6 -16 -4z"/>
<path d="M1266 225 c4 -8 8 -15 10 -15 2 0 4 7 4 15 0 8 -4 15 -10 15 -5 0 -7
-7 -4 -15z"/>
<path d="M1290 225 c0 -6 26 -11 60 -11 33 0 60 4 60 9 0 5 -6 7 -14 4 -8 -3
-17 -3 -20 1 -11 10 -86 8 -86 -3z"/>
<path d="M1421 224 c0 -11 3 -14 6 -6 3 7 2 16 -1 19 -3 4 -6 -2 -5 -13z"/>
<path d="M760 220 c0 -5 5 -10 10 -10 6 0 10 5 10 10 0 6 -4 10 -10 10 -5 0
-10 -4 -10 -10z"/>
<path d="M910 220 c0 -5 5 -10 10 -10 6 0 10 5 10 10 0 6 -4 10 -10 10 -5 0
-10 -4 -10 -10z"/>
<path d="M940 222 c0 -5 7 -9 15 -9 8 0 12 4 9 9 -3 4 -9 8 -15 8 -5 0 -9 -4
-9 -8z"/>
<path d="M1000 220 c0 -5 5 -10 10 -10 6 0 10 5 10 10 0 6 -4 10 -10 10 -5 0
-10 -4 -10 -10z"/>
<path d="M1030 218 c0 -4 4 -8 9 -8 6 0 12 4 15 8 3 5 -1 9 -9 9 -8 0 -15 -4
-15 -9z"/>
<path d="M1070 218 c0 -4 7 -8 15 -8 8 0 15 4 15 8 0 5 -7 9 -15 9 -8 0 -15
-4 -15 -9z"/>
<path d="M1220 219 c0 -5 5 -7 10 -4 6 3 10 8 10 11 0 2 -4 4 -10 4 -5 0 -10
-5 -10 -11z"/>
<path d="M1770 155 c-7 -8 -10 -21 -7 -29 3 -8 1 -16 -5 -18 -20 -7 2 -28 28
-28 21 0 24 5 24 35 0 19 -5 35 -11 35 -5 0 -7 5 -4 10 10 16 -11 12 -25 -5z"/>
<path d="M620 129 c0 -6 7 -8 16 -5 12 4 14 1 9 -14 -4 -11 -2 -20 4 -20 6 0
11 11 11 25 0 18 -5 25 -20 25 -11 0 -20 -5 -20 -11z"/>
<path d="M707 122 c3 -8 0 -18 -8 -24 -12 -8 -12 -9 0 -6 19 5 33 45 16 45 -7
0 -11 -7 -8 -15z"/>
<path d="M1004 132 c3 -6 3 -12 -1 -15 -5 -2 -3 -2 4 -1 6 2 13 -2 16 -9 2 -7
6 -7 10 -1 3 5 -3 16 -15 23 -11 7 -17 8 -14 3z"/>
<path d="M1055 131 c-3 -5 -2 -12 3 -15 5 -3 9 1 9 9 0 17 -3 19 -12 6z"/>
<path d="M1083 125 c-3 -9 -3 -18 -1 -21 3 -3 8 4 11 16 6 23 -1 27 -10 5z"/>
<path d="M741 107 c-13 -21 -12 -21 5 -5 10 10 16 20 13 22 -3 3 -11 -5 -18
-17z"/>
<path d="M771 114 c0 -11 3 -14 6 -6 3 7 2 16 -1 19 -3 4 -6 -2 -5 -13z"/>
<path d="M791 118 c-1 -22 18 -33 32 -19 9 9 8 11 -5 6 -11 -4 -18 0 -21 12
-4 15 -5 16 -6 1z"/>
<path d="M873 114 c0 -7 11 -11 24 -10 30 1 30 21 0 21 -13 0 -24 -5 -24 -11z"/>
<path d="M1121 113 c7 -12 15 -20 18 -17 3 2 -3 12 -13 22 -17 16 -18 16 -5
-5z"/>
<path d="M1731 116 c-7 -8 -10 -19 -7 -25 4 -5 -2 -12 -11 -14 -10 -3 -4 -5
12 -4 24 2 31 -2 33 -21 3 -16 -2 -22 -16 -22 -11 0 -25 -7 -32 -15 -11 -13
-8 -15 19 -15 22 0 31 5 31 16 0 12 7 15 25 12 42 -8 31 26 -15 46 -41 18 -50
31 -27 39 6 2 9 7 6 11 -3 4 -12 0 -18 -8z"/>
<path d="M845 110 c3 -5 8 -10 11 -10 2 0 4 5 4 10 0 6 -5 10 -11 10 -5 0 -7
-4 -4 -10z"/>
</g>
</svg>
