<?xml version="1.0" standalone="no"?>
<!DOCTYPE svg PUBLIC "-//W3C//DTD SVG 20010904//EN"
 "http://www.w3.org/TR/2001/REC-SVG-20010904/DTD/svg10.dtd">
<svg version="1.0" xmlns="http://www.w3.org/2000/svg"
 width="666.000000pt" height="1000.000000pt" viewBox="0 0 666.000000 1000.000000"
 preserveAspectRatio="xMidYMid meet">

<g transform="translate(0.000000,1000.000000) scale(0.100000,-0.100000)"
fill="#000000" stroke="none">
<path d="M3363 9769 c27 -225 37 -310 47 -409 6 -63 16 -155 22 -204 11 -101
5 -117 -36 -85 -15 12 -30 18 -33 15 -4 -3 5 -54 20 -114 37 -153 59 -276 55
-318 l-3 -35 -22 20 c-12 12 -24 17 -26 13 -3 -4 4 -56 14 -117 10 -60 32
-207 50 -325 17 -118 33 -217 35 -219 11 -12 14 20 15 190 0 101 3 188 6 193
3 4 15 -9 27 -30 11 -20 26 -36 31 -35 6 1 9 74 6 206 -3 172 -1 205 11 205 7
0 26 -25 41 -55 15 -30 31 -55 35 -55 5 0 6 85 4 189 -3 104 -2 201 2 216 l7
27 22 -28 c21 -28 46 -67 68 -111 6 -12 19 -23 28 -26 28 -7 123 22 190 59 54
30 70 34 102 29 27 -5 39 -12 39 -23 1 -10 0 -95 0 -189 0 -95 4 -191 10 -212
6 -22 27 -56 47 -76 49 -49 145 -123 175 -134 36 -13 110 4 181 41 111 59 128
93 134 274 4 96 1 163 -12 245 -27 183 -34 196 -151 282 -29 20 -61 37 -72 37
-20 0 -221 -97 -253 -122 -9 -7 -23 -28 -33 -45 -18 -36 -49 -43 -79 -20 -14
11 -15 22 -7 97 6 47 13 137 16 201 8 130 2 149 -64 231 -20 25 -58 74 -85
107 -71 90 -81 95 -148 70 -29 -12 -66 -23 -81 -26 -26 -5 -27 -4 -30 46 l-3
52 -154 6 -154 5 6 -43z m455 -121 c14 -18 32 -241 32 -398 0 -153 0 -153
-113 -148 l-72 3 -3 200 c-2 110 0 228 3 262 6 54 9 62 33 72 59 22 106 26
120 9z m622 -530 c0 -43 -91 -118 -126 -104 -27 10 -13 36 44 81 64 50 82 55
82 23z m-599 -89 c11 -18 -18 -69 -39 -69 -17 0 -82 66 -82 84 0 13 112 -1
121 -15z m621 -89 c4 -19 9 -125 10 -235 3 -227 -4 -270 -51 -298 -38 -22 -54
-22 -76 3 -19 21 -31 150 -37 400 l-3 135 50 17 c74 26 98 21 107 -22z"/>
<path d="M2442 9568 c-42 -40 -85 -79 -94 -87 -24 -20 -23 -31 2 -31 21 0 21
-3 15 -202 -7 -202 -29 -470 -42 -504 -3 -9 -20 -30 -37 -45 -48 -43 -44 -44
156 -41 l127 2 -15 28 c-11 22 -14 90 -14 359 0 182 3 338 6 347 10 25 42 19
58 -12 8 -15 17 -49 21 -75 6 -39 4 -52 -10 -67 -25 -28 -2 -26 44 3 51 32 73
45 99 58 31 17 28 54 -8 131 -16 34 -30 68 -30 74 0 6 -9 19 -20 29 -18 17
-21 16 -70 -14 -69 -43 -80 -41 -80 13 0 56 -10 106 -21 106 -5 0 -44 -32 -87
-72z"/>
<path d="M960 9616 c0 -3 10 -22 22 -43 22 -36 23 -50 28 -332 l5 -294 -30
-22 c-80 -58 -188 -115 -203 -106 -16 10 -27 353 -17 535 6 116 10 141 26 157
10 10 19 24 19 29 0 6 -68 10 -185 10 -102 0 -185 -3 -185 -6 0 -3 14 -23 32
-45 31 -39 33 -45 39 -162 4 -67 8 -220 8 -339 1 -251 6 -241 -95 -187 -71 38
-113 70 -113 86 -1 7 23 26 52 43 l52 30 -36 0 c-42 0 -129 -28 -129 -42 0
-12 48 -97 69 -122 9 -10 57 -39 106 -63 50 -25 93 -50 96 -55 3 -5 4 -85 2
-176 -5 -193 -18 -235 -84 -279 -48 -31 -49 -43 -6 -43 100 -1 237 -11 272
-20 39 -9 135 -14 135 -6 0 2 -13 18 -29 35 -16 17 -30 41 -32 53 -3 13 -4
121 -4 242 l0 219 40 12 c22 7 70 26 106 44 36 17 71 31 77 31 7 0 15 -12 19
-27 9 -37 -13 -506 -27 -562 -7 -27 -25 -58 -50 -85 -22 -22 -40 -46 -40 -52
0 -7 41 -10 123 -10 67 1 163 -3 212 -7 88 -8 89 -8 69 10 -12 10 -30 34 -40
53 -18 32 -19 64 -19 434 l0 399 50 18 c59 21 85 23 85 8 0 -7 -8 -19 -18 -28
-10 -9 -31 -33 -46 -54 l-29 -37 18 -63 c45 -164 78 -263 93 -274 25 -20 64
-15 107 14 22 14 43 31 46 36 11 15 39 0 39 -21 0 -25 20 -42 50 -42 19 0 48
21 108 79 79 77 87 91 50 91 -10 0 -18 7 -18 18 -1 9 0 103 0 208 1 178 -10
281 -29 294 -5 3 -18 23 -30 45 -20 37 -166 195 -181 195 -11 0 -129 -57 -175
-84 -22 -13 -41 -33 -43 -43 -4 -25 31 -114 63 -161 l25 -37 0 29 c0 45 29 81
87 110 85 41 90 39 98 -49 4 -41 6 -181 3 -310 -3 -227 -4 -236 -26 -257 -13
-14 -25 -19 -30 -13 -19 21 -63 186 -69 254 l-6 71 44 39 43 39 -30 4 c-27 3
-236 -8 -265 -14 -29 -6 -35 413 -7 502 6 19 19 47 29 61 10 14 16 29 12 33
-7 7 -333 9 -333 2z"/>
<path d="M4905 9538 c-45 -69 -151 -169 -250 -234 -30 -21 -52 -41 -48 -45 4
-4 39 -9 77 -11 l70 -3 9 -35 c6 -22 4 -172 -4 -400 -17 -450 -17 -471 3 -502
17 -26 236 -140 251 -131 9 5 -50 63 -64 63 -4 0 -12 13 -18 28 -9 21 -7 107
10 377 12 209 19 389 15 448 -9 138 -6 145 57 149 l52 3 0 40 0 40 -52 3 c-32
2 -53 8 -54 15 0 7 0 55 1 107 1 94 -4 130 -20 130 -4 0 -20 -19 -35 -42z"/>
<path d="M1981 9536 c-23 -11 -78 -48 -122 -81 l-81 -60 61 -3 61 -3 0 -360 0
-361 -30 -26 c-16 -15 -30 -30 -30 -34 0 -5 68 -8 152 -8 143 0 150 1 136 18
-9 10 -20 57 -26 117 -14 124 -36 601 -28 620 11 29 36 2 55 -60 33 -106 35
-131 15 -143 -11 -6 -16 -13 -12 -17 7 -8 140 69 159 91 7 9 9 29 5 56 -8 49
-74 188 -93 195 -8 3 -37 -6 -64 -21 -28 -14 -54 -26 -59 -26 -4 0 -11 27 -15
59 -8 71 -23 79 -84 47z"/>
<path d="M5254 9473 c-62 -101 -129 -197 -178 -253 -31 -36 -55 -69 -53 -75 2
-5 21 -12 43 -15 l39 -5 5 -442 c3 -243 7 -443 10 -445 56 -42 324 -158 365
-158 9 0 48 31 88 69 53 51 69 73 61 81 -11 11 -244 27 -244 17 0 -3 32 -13
70 -22 39 -9 72 -21 75 -25 7 -11 -65 -70 -84 -70 -22 0 -116 47 -132 66 -19
23 -25 914 -6 926 7 4 38 8 70 8 l58 0 -3 33 -3 32 -66 3 -66 3 -7 46 c-3 25
-6 92 -6 149 0 109 -7 124 -36 77z"/>
<path d="M6096 9298 c-132 -128 -176 -173 -176 -179 0 -4 12 -9 28 -11 l27 -3
0 -346 c0 -324 -1 -348 -20 -382 -10 -20 -34 -44 -52 -54 -43 -23 -42 -33 3
-33 19 0 97 -15 172 -34 146 -36 286 -54 296 -37 4 6 -13 15 -36 21 -64 16
-114 40 -136 64 -25 27 -30 105 -38 511 -5 284 -5 301 13 317 29 26 43 8 69
-87 23 -88 23 -88 4 -115 -20 -29 -26 -50 -12 -49 4 0 50 35 102 78 77 63 95
82 92 102 -4 47 -78 205 -106 228 -12 10 -21 9 -48 -5 -18 -9 -35 -20 -38 -24
-7 -10 -47 -30 -59 -30 -6 0 -11 14 -11 31 0 34 -16 69 -31 69 -5 0 -25 -15
-43 -32z"/>
<path d="M5614 9222 c-23 -15 -61 -44 -85 -65 -24 -20 -54 -45 -67 -55 -32
-24 -41 -105 -42 -352 l0 -196 83 -86 c86 -90 115 -108 173 -108 37 0 61 20
120 102 61 83 60 81 31 120 -15 19 -27 40 -27 46 0 7 -4 12 -9 12 -4 0 -16
-35 -26 -77 -22 -97 -49 -153 -74 -153 -10 0 -31 18 -47 41 -28 40 -28 42 -32
228 -3 123 -1 191 6 195 13 8 96 -9 180 -36 72 -23 78 -20 117 47 27 45 29 32
-22 185 -28 83 -30 86 -78 110 -28 14 -52 28 -55 31 -6 6 -87 39 -98 39 -4 0
-25 -12 -48 -28z m72 -74 c9 -18 32 -74 50 -126 38 -108 37 -110 -59 -96 l-62
9 4 90 c3 89 20 155 40 155 6 0 18 -14 27 -32z"/>
<path d="M3032 9193 c46 -12 30 -63 -86 -273 -64 -115 -74 -110 -116 57 -27
110 -26 129 8 148 26 15 22 16 -67 11 -52 -4 -122 -6 -155 -7 -52 0 -57 -2
-34 -10 31 -12 40 -37 124 -344 43 -158 49 -215 24 -215 -6 0 -10 -5 -10 -11
0 -6 -26 -48 -57 -95 l-58 -84 -104 0 c-57 0 -143 7 -192 16 -79 15 -89 19
-89 38 1 36 25 56 84 67 31 7 56 15 56 20 0 4 -35 11 -77 15 l-77 7 -36 -40
c-19 -22 -41 -52 -49 -67 -13 -24 -13 -28 5 -41 68 -51 445 -140 515 -122 37
10 234 299 319 467 12 25 37 70 56 100 50 84 90 157 131 240 21 41 41 77 45
78 4 2 8 12 8 21 0 15 -12 19 -61 25 -67 7 -134 6 -107 -1z"/>
<path d="M6328 8443 c6 -2 12 -20 12 -38 0 -19 5 -37 10 -40 6 -4 10 10 10 34
0 29 5 41 18 44 9 3 -1 5 -23 5 -22 0 -34 -2 -27 -5z"/>
<path d="M6407 8443 c-10 -10 -8 -71 2 -77 5 -3 12 2 15 11 6 14 8 14 21 -3
13 -18 14 -18 20 -1 9 21 25 22 25 1 0 -8 4 -13 9 -10 13 8 6 79 -8 84 -7 2
-15 -5 -18 -17 -7 -27 -30 -27 -38 -1 -6 20 -16 25 -28 13z"/>
<path d="M2678 7968 c-18 -22 -46 -55 -63 -71 -16 -17 -29 -34 -27 -39 3 -12
-35 -95 -48 -103 -5 -3 -15 -16 -21 -28 -13 -29 65 57 96 105 37 56 98 79 108
41 3 -10 5 17 6 60 0 42 -3 77 -8 77 -6 0 -25 -19 -43 -42z m42 -22 c0 -16 -7
-27 -21 -31 -31 -10 -35 2 -9 30 29 31 30 31 30 1z"/>
<path d="M2816 7898 c-12 -48 5 -148 26 -148 5 0 6 9 3 21 -4 11 -7 49 -6 85
0 63 -11 85 -23 42z"/>
<path d="M1991 7878 c-8 -22 -23 -108 -36 -210 -3 -27 -3 -48 2 -48 14 0 116
39 124 47 5 5 -14 6 -41 5 -46 -4 -50 -2 -50 18 0 39 46 99 78 100 27 0 10 20
-19 20 -27 0 -30 3 -27 27 3 24 9 29 46 36 59 12 52 27 -13 27 -48 0 -57 -3
-64 -22z"/>
<path d="M1742 7674 c-33 -23 -27 -36 8 -16 16 9 30 20 30 25 0 11 -14 8 -38
-9z"/>
<path d="M3184 7592 c-61 -71 -112 -154 -119 -195 -7 -34 -47 -87 -66 -87 -17
0 -9 -25 12 -39 23 -14 23 -38 3 -256 l-5 -60 16 34 c8 19 13 36 11 39 -3 2
-1 13 5 24 5 10 16 54 24 97 22 126 55 166 146 178 l39 6 0 -87 c0 -51 4 -86
10 -86 6 0 10 1 11 3 0 1 2 34 5 72 3 39 9 87 15 108 5 20 6 43 2 50 -4 6 -10
64 -13 127 -5 114 -5 115 -30 118 -19 2 -35 -9 -66 -46z m64 -145 c2 -41 0
-77 -5 -80 -5 -3 -37 -9 -72 -13 l-64 -7 7 27 c9 36 64 127 90 148 30 24 38
10 44 -75z"/>
<path d="M5800 7629 c0 -5 5 -7 10 -4 6 3 10 8 10 11 0 2 -4 4 -10 4 -5 0 -10
-5 -10 -11z"/>
<path d="M3564 7582 c-43 -43 -64 -68 -64 -76 0 -3 -15 -29 -32 -58 l-33 -53
3 -238 3 -237 -46 -63 c-24 -34 -54 -74 -66 -89 -19 -26 -19 -28 -3 -28 26 0
122 104 146 158 18 41 21 72 25 271 4 193 8 235 25 291 21 64 49 114 78 137 8
6 12 14 9 18 -4 3 -24 -11 -45 -33z"/>
<path d="M1706 7583 c-6 -22 -10 -168 -7 -288 2 -115 14 -96 35 55 9 63 21
131 26 150 6 19 10 50 10 67 0 30 -3 33 -29 33 -20 0 -31 -6 -35 -17z"/>
<path d="M2910 7590 c-12 -7 -16 -47 -21 -202 -4 -106 -12 -213 -18 -237 -7
-24 -10 -46 -7 -48 3 -3 8 8 11 23 4 16 12 47 20 69 15 46 21 73 41 205 28
177 29 200 8 200 -11 0 -26 -5 -34 -10z"/>
<path d="M842 7575 c-34 -8 -81 -13 -104 -12 -35 2 -44 -2 -55 -23 -6 -13 -20
-30 -29 -37 -17 -12 -17 -13 0 -13 17 0 18 -9 13 -117 -3 -65 -10 -153 -16
-195 -12 -82 -43 -168 -61 -168 -5 0 -10 -7 -10 -15 0 -8 7 -15 16 -15 14 0
15 -9 9 -62 -3 -35 -20 -114 -36 -177 -16 -63 -29 -122 -29 -132 0 -20 44 -54
58 -45 5 3 12 52 16 110 8 113 12 160 25 279 10 86 24 106 74 107 16 0 26 4
23 8 -7 12 4 23 57 62 121 88 145 110 164 152 32 68 73 195 73 228 0 34 -33
70 -64 70 -12 0 -30 2 -41 5 -11 2 -48 -2 -83 -10z m98 -35 c12 -22 2 -177
-11 -186 -5 -3 -9 -14 -9 -26 0 -30 -65 -113 -133 -170 -33 -27 -67 -56 -74
-64 -54 -53 -51 25 9 286 32 140 41 156 101 170 62 15 106 11 117 -10z"/>
<path d="M4712 7525 c-9 -10 -10 -21 -3 -33 5 -9 8 -46 6 -82 -1 -36 -1 -50 2
-32 2 17 8 32 14 32 5 0 9 7 9 15 0 8 9 15 20 15 15 0 20 -7 20 -25 0 -14 5
-25 10 -25 6 0 10 6 10 14 0 8 7 17 16 20 15 6 14 8 -4 24 -11 10 -22 28 -24
42 -4 31 -28 38 -35 11 -4 -17 -8 -19 -19 -10 -8 7 -12 20 -9 30 7 23 4 23
-13 4z"/>
<path d="M5665 7520 c3 -5 8 -10 11 -10 2 0 4 5 4 10 0 6 -5 10 -11 10 -5 0
-7 -4 -4 -10z"/>
<path d="M2055 7491 c-6 -5 -35 -16 -66 -25 -43 -12 -70 -29 -112 -68 -81 -78
-97 -153 -53 -250 22 -49 96 -133 96 -109 0 6 7 8 15 5 8 -4 13 -9 10 -14 -2
-4 2 -15 9 -26 11 -15 31 -19 112 -22 76 -2 95 -1 84 8 -12 9 -10 10 12 6 15
-3 30 -2 33 4 3 5 15 10 27 10 16 0 19 5 15 21 -3 12 -3 18 0 15 14 -14 57 72
72 145 15 72 -3 161 -43 214 -44 57 -182 113 -211 86z m67 -43 c60 -18 100
-70 132 -171 l27 -88 -22 -59 c-33 -91 -43 -94 -98 -32 -25 29 -49 52 -53 52
-22 0 -2 -43 37 -79 l44 -41 -30 -15 c-20 -11 -45 -14 -77 -11 -50 6 -132 23
-119 25 4 0 -7 14 -25 30 -24 21 -36 27 -45 19 -10 -8 -13 -6 -13 5 0 8 6 18
13 20 9 4 8 8 -3 16 -11 8 -14 30 -14 95 1 79 4 90 35 142 61 101 110 123 211
92z"/>
<path d="M2753 7468 c3 -18 13 -72 23 -120 18 -88 18 -88 -5 -158 -23 -74 -58
-125 -93 -136 -15 -4 -17 -8 -8 -14 16 -10 50 -1 50 13 0 6 9 21 21 33 40 43
67 147 70 273 2 64 0 122 -4 129 -5 6 -20 12 -34 12 -23 0 -25 -3 -20 -32z"/>
<path d="M1250 7469 c-47 -11 -98 -18 -113 -16 -21 3 -32 -2 -41 -17 -8 -12
-25 -97 -40 -191 -39 -243 -46 -278 -65 -292 -14 -11 -13 -12 11 -13 15 0 39
5 55 11 15 6 75 24 132 40 98 27 147 49 109 49 -9 0 -19 -4 -22 -9 -3 -4 -20
-11 -38 -14 -18 -4 -61 -13 -96 -21 -78 -17 -81 -14 -56 87 33 139 33 138 209
219 73 33 65 35 -42 7 -101 -27 -114 -23 -109 32 4 53 24 75 78 89 52 13 158
51 158 56 0 8 -48 2 -130 -17z"/>
<path d="M2413 7468 c-4 -7 -9 -59 -11 -116 -3 -78 0 -117 13 -158 9 -30 20
-54 23 -54 4 0 13 -14 20 -30 8 -17 17 -28 21 -25 5 2 14 -7 21 -20 16 -29 26
-34 98 -40 l57 -5 -45 16 c-25 9 -62 30 -82 46 -69 54 -93 198 -57 337 5 23 5
39 -3 48 -13 16 -44 17 -55 1z"/>
<path d="M1522 7455 c-12 -9 -20 -20 -18 -24 15 -24 -36 -351 -55 -351 -5 0
-9 -7 -9 -15 0 -8 4 -15 9 -15 12 0 -20 -101 -53 -167 -14 -29 -26 -58 -26
-63 0 -12 63 -4 93 12 10 5 41 16 68 24 29 9 47 19 43 25 -3 6 -13 7 -23 4
-29 -12 -76 -15 -91 -5 -16 10 -10 40 41 207 15 51 35 141 44 200 9 60 18 117
21 128 3 11 -1 28 -8 38 -12 16 -15 16 -36 2z"/>
<path d="M5763 7449 c4 -12 -6 -21 -36 -33 -28 -11 -38 -19 -31 -26 7 -7 29
-2 68 15 31 14 63 25 72 25 8 0 13 4 10 8 -3 5 -19 7 -37 4 -20 -3 -35 0 -41
9 -8 11 -9 11 -5 -2z"/>
<path d="M4750 7380 c0 -11 5 -20 10 -20 6 0 10 9 10 20 0 11 -4 20 -10 20 -5
0 -10 -9 -10 -20z"/>
<path d="M5625 7393 c-11 -3 -31 -10 -45 -15 l-25 -11 28 -8 c44 -12 97 0 97
22 0 19 -14 22 -55 12z"/>
<path d="M4998 7363 c14 -3 22 -12 22 -24 0 -23 27 -36 42 -21 16 16 -27 52
-59 51 -24 -2 -25 -2 -5 -6z"/>
<path d="M4987 7334 c-4 -4 -7 -14 -7 -23 0 -11 3 -12 11 -4 6 6 10 16 7 23
-2 6 -7 8 -11 4z"/>
<path d="M5928 7283 c7 -3 16 -2 19 1 4 3 -2 6 -13 5 -11 0 -14 -3 -6 -6z"/>
<path d="M4791 7266 c-7 -9 -18 -13 -23 -10 -6 4 -5 -3 1 -15 7 -11 17 -21 22
-21 6 0 9 -6 6 -14 -3 -8 3 -22 14 -32 10 -9 19 -30 19 -46 0 -24 2 -27 13
-16 8 7 12 20 10 28 -3 9 3 22 11 29 21 18 20 31 -3 31 -11 0 -21 9 -24 23 -4
12 -12 30 -20 40 -12 17 -14 17 -26 3z"/>
<path d="M5790 7260 c-8 -5 -11 -12 -8 -16 10 -9 38 3 38 16 0 12 -10 13 -30
0z"/>
<path d="M5715 7230 c3 -5 10 -10 16 -10 5 0 9 5 9 10 0 6 -7 10 -16 10 -8 0
-12 -4 -9 -10z"/>
<path d="M5581 7207 c-18 -18 -13 -27 13 -27 32 0 40 13 17 27 -14 9 -21 9
-30 0z"/>
<path d="M1682 7184 c-1 -12 -4 -37 -7 -55 -5 -31 -5 -32 5 -9 6 13 9 38 7 55
-2 18 -4 21 -5 9z"/>
<path d="M5403 7162 c-24 -2 -43 -8 -43 -13 0 -7 -19 -10 -47 -8 -49 4 -114
-17 -112 -36 3 -30 -1 -37 -15 -26 -20 17 -29 -2 -21 -40 6 -24 9 -28 21 -18
8 6 14 8 14 3 0 -5 5 -1 11 9 6 9 7 26 4 37 -4 13 -2 20 7 20 10 0 9 3 -2 10
-12 8 -11 10 8 10 12 0 22 -4 22 -9 0 -11 49 -11 55 0 5 8 121 25 138 21 4 -1
7 2 7 7 0 5 11 12 25 15 34 9 32 27 -2 24 -16 -2 -47 -4 -70 -6z"/>
<path d="M3250 7100 c0 -11 2 -20 4 -20 2 0 6 9 9 20 3 11 1 20 -4 20 -5 0 -9
-9 -9 -20z"/>
<path d="M750 7041 c0 -5 37 -47 83 -93 45 -46 105 -109 133 -139 62 -69 90
-82 100 -44 8 32 20 19 -192 192 -21 17 -54 45 -73 62 -35 31 -51 38 -51 22z"/>
<path d="M5130 7027 c0 -7 -21 -19 -46 -26 -38 -11 -45 -17 -40 -34 7 -28 -19
-87 -40 -87 -12 0 -15 -6 -10 -20 3 -11 9 -28 12 -39 3 -11 0 -20 -10 -24 -10
-4 -16 -1 -16 8 0 24 -18 17 -22 -7 -2 -19 -9 -23 -35 -21 -36 3 -54 -15 -29
-29 29 -16 17 -30 -26 -28 -59 3 -62 2 -49 -13 12 -16 5 -27 -17 -27 -8 0 -25
-10 -36 -22 l-22 -23 31 -27 30 -27 -42 -1 c-24 0 -43 5 -43 11 0 5 -16 17
-36 25 -45 19 -58 9 -59 -42 0 -40 11 -34 -180 -105 -77 -29 -185 -94 -185
-111 0 -4 -11 -18 -25 -30 -16 -14 -25 -32 -25 -52 0 -34 27 -113 46 -136 7
-8 16 -27 19 -43 4 -15 11 -30 16 -33 16 -10 9 -55 -12 -86 -27 -37 -35 -128
-21 -221 10 -63 9 -71 -14 -116 -13 -27 -24 -53 -24 -59 0 -6 -14 -22 -32 -37
-29 -24 -64 -93 -53 -103 7 -7 -25 -62 -35 -62 -6 0 -28 -17 -49 -37 -33 -32
-43 -52 -61 -118 -32 -121 -52 -145 -186 -221 -92 -52 -130 -100 -119 -151 5
-21 4 -25 -4 -13 -10 13 -11 13 -11 0 -1 -17 -76 -100 -91 -100 -6 0 -7 -4 -4
-10 3 -5 2 -10 -2 -10 -5 0 -14 -9 -21 -21 -11 -18 -11 -27 4 -57 10 -21 19
-59 22 -85 5 -47 4 -48 -21 -43 -37 7 -64 -3 -70 -25 -3 -10 -12 -19 -21 -19
-13 0 -15 4 -6 19 16 30 12 44 -10 38 -17 -4 -20 0 -20 24 0 16 -3 29 -7 29
-9 0 -66 -52 -85 -78 -7 -10 -34 -34 -59 -55 -48 -38 -99 -50 -145 -34 -20 7
-24 0 -50 -80 -16 -49 -34 -88 -41 -88 -6 0 -15 -3 -19 -8 -4 -4 -15 -7 -25
-7 -10 0 -24 -6 -32 -14 -8 -8 -29 -16 -48 -18 -27 -2 -33 -7 -31 -23 2 -16 1
-17 -7 -5 -9 12 -12 12 -28 -1 -27 -24 -55 -28 -115 -17 -54 9 -61 11 -138 46
-108 48 -122 53 -144 50 -23 -3 -21 -7 30 -62 33 -36 54 -68 54 -82 0 -17 6
-24 20 -24 17 0 20 -7 20 -40 0 -46 -20 -54 -38 -16 -6 13 -28 48 -49 77 -46
64 -78 114 -97 154 -8 17 -23 39 -33 50 -28 31 -103 191 -103 222 0 10 20 -4
55 -38 98 -95 95 -93 95 -64 0 15 6 25 14 25 7 0 19 7 26 15 10 12 10 15 -2
15 -16 0 -42 55 -40 85 0 11 -2 14 -4 8 -3 -7 -10 -13 -15 -13 -6 0 -7 4 -4
10 9 14 -26 69 -47 76 -20 6 -24 39 -8 49 8 5 8 11 0 20 -8 10 -7 14 2 17 10
4 10 8 -1 21 -11 14 -11 18 4 23 11 5 26 -4 47 -30 37 -45 105 -83 121 -67 8
8 5 11 -10 11 -35 0 -93 62 -93 99 0 17 4 31 9 31 5 0 12 12 16 27 3 15 11 31
16 34 15 9 60 -2 53 -12 -9 -15 36 -10 66 8 27 16 29 15 55 -13 23 -25 26 -35
22 -76 -3 -41 -2 -45 9 -30 7 9 14 34 14 55 0 30 5 39 23 46 12 5 31 18 41 30
l19 21 -54 0 c-44 0 -58 5 -76 24 -28 30 -29 38 -2 54 45 28 -15 45 -158 45
l-72 0 36 66 c26 48 37 81 40 126 3 33 10 66 15 73 7 8 7 16 -1 25 -6 8 -8 16
-5 20 8 8 120 -2 151 -14 23 -9 25 -13 20 -50 -4 -30 -2 -42 10 -46 11 -5 13
-16 8 -49 -3 -24 -2 -44 3 -44 12 0 44 38 73 85 17 29 25 35 27 23 5 -27 22
-21 36 13 l13 31 7 -26 c7 -28 17 -32 46 -16 15 8 22 4 39 -26 27 -45 26 -60
-1 -75 -13 -6 -47 -29 -76 -51 -54 -40 -54 -40 -50 -89 1 -27 -1 -49 -6 -49
-5 0 -3 -7 4 -15 10 -12 10 -18 -1 -32 -12 -15 -12 -16 4 -10 13 5 30 -6 63
-38 24 -25 50 -45 56 -45 6 0 -4 13 -23 29 -29 26 -34 36 -33 72 1 31 8 48 23
60 24 19 55 15 47 -6 -7 -19 27 -25 49 -9 27 20 37 17 63 -19 20 -29 22 -30
22 -9 0 12 -3 22 -7 22 -10 0 -11 86 -1 95 3 4 9 -3 13 -15 4 -12 4 -24 1 -27
-3 -3 1 -18 9 -34 25 -47 19 -96 -14 -130 -25 -24 -38 -29 -83 -30 -51 -1 -52
-1 -18 -10 25 -6 47 -4 78 7 24 9 45 15 46 13 2 -2 15 -38 29 -79 14 -41 27
-70 28 -65 1 6 2 25 4 44 2 18 7 36 12 40 21 13 13 152 -12 216 -4 11 -19 44
-31 73 -28 61 -29 66 -10 59 8 -3 17 -3 20 0 6 6 -21 74 -32 83 -16 11 -42 79
-36 94 3 8 -3 28 -13 43 -11 15 -25 43 -32 61 -8 17 -17 32 -22 32 -5 0 -9 6
-9 14 0 8 -6 16 -12 19 -8 2 -9 8 -4 13 5 5 11 4 13 -3 6 -18 23 -16 23 1 0 8
-9 18 -20 21 -11 3 -20 10 -20 16 0 18 -81 62 -119 64 -22 1 -52 11 -68 22
-15 11 -33 18 -40 16 -6 -2 -18 6 -27 18 -30 44 -166 18 -253 -48 -47 -36 -65
-38 -145 -18 -20 5 -45 -1 -95 -25 -43 -20 -90 -33 -128 -36 -82 -7 -93 -11
-71 -27 16 -12 14 -17 -29 -65 -26 -29 -50 -51 -52 -48 -3 3 0 21 7 41 24 73
-14 55 -63 -29 -21 -35 -49 -75 -63 -90 -14 -14 -23 -29 -20 -34 3 -5 -3 -40
-13 -78 -29 -109 -40 -164 -47 -234 -5 -54 -4 -63 7 -52 28 26 39 14 38 -45
-1 -32 -4 -71 -8 -88 -5 -21 -1 -40 11 -63 11 -19 18 -54 18 -85 0 -63 8 -76
43 -79 37 -3 45 -33 16 -64 l-22 -24 42 0 c46 0 63 -19 42 -51 -7 -12 -7 -19
-1 -19 5 0 10 -7 10 -15 0 -12 7 -11 42 5 23 10 45 17 48 15 4 -2 20 -23 36
-47 36 -53 46 -61 57 -43 9 16 26 12 79 -22 21 -13 47 -23 57 -23 25 0 91 -31
91 -42 0 -4 8 -8 18 -8 28 -1 77 -32 110 -71 35 -40 39 -55 18 -78 -7 -9 -21
-40 -32 -68 -10 -29 -22 -53 -26 -53 -4 0 -8 -35 -8 -79 0 -94 -29 -191 -97
-320 -25 -47 -54 -103 -65 -123 -36 -73 -71 -184 -79 -253 -11 -96 6 -273 43
-430 16 -71 32 -155 35 -185 5 -49 4 -53 -10 -42 -14 12 -17 9 -22 -25 -3 -21
-33 -119 -65 -219 -32 -99 -64 -209 -70 -245 -19 -99 -39 -146 -83 -194 -22
-25 -44 -45 -48 -45 -5 0 -64 -55 -131 -122 -68 -68 -142 -139 -166 -158 -102
-83 -101 -82 -112 -156 -5 -38 -10 -127 -10 -197 0 -140 -10 -174 -66 -230
-38 -39 -144 -99 -160 -93 -24 9 -16 25 44 84 74 74 92 126 92 275 0 65 -4
107 -10 107 -5 0 -10 -4 -10 -8 0 -5 -11 -15 -25 -22 -14 -8 -23 -20 -21 -27
3 -7 -4 -18 -15 -24 -11 -6 -41 -32 -67 -59 -42 -42 -122 -90 -151 -90 -6 0
-11 -9 -11 -20 0 -12 -6 -20 -12 -18 -7 1 -39 -10 -70 -25 -41 -19 -57 -33
-60 -49 -3 -21 -8 -23 -63 -22 -37 1 -90 12 -140 29 -59 21 -98 28 -150 27
-38 0 -76 4 -82 10 -7 6 -23 8 -36 6 -13 -2 -29 2 -36 10 -9 9 -21 11 -35 7
-53 -18 -280 -15 -261 3 3 4 62 9 130 12 120 6 147 12 131 28 -12 11 -313 4
-378 -9 -54 -11 -58 -14 -58 -40 0 -15 6 -29 13 -32 9 -4 9 -7 0 -18 -19 -19
-17 -79 2 -79 8 0 15 -4 15 -10 0 -5 -7 -10 -15 -10 -22 0 -21 -105 1 -114 39
-15 63 -5 134 56 20 18 90 38 90 27 0 -5 -9 -9 -20 -9 -11 0 -20 -4 -20 -9 0
-18 -83 -70 -124 -76 -56 -10 -76 -30 -76 -76 0 -35 3 -40 43 -57 41 -18 42
-18 51 0 5 10 15 18 23 18 8 0 38 11 66 24 88 39 136 50 231 51 71 0 99 -4
126 -19 19 -10 42 -22 50 -26 8 -4 16 -21 18 -39 3 -27 0 -31 -20 -32 -140 -3
-229 -17 -250 -40 -11 -11 -18 -34 -18 -57 0 -36 2 -39 28 -40 57 -1 207 -26
214 -35 3 -6 43 -12 87 -15 64 -4 85 -1 99 10 9 9 31 18 47 21 162 29 233 54
275 98 8 9 35 27 60 40 25 13 60 34 79 47 60 40 89 31 164 -48 37 -38 67 -74
67 -79 0 -6 6 -14 14 -18 8 -4 31 -23 53 -41 48 -41 141 -102 157 -102 6 0 26
-9 44 -20 18 -11 41 -20 52 -20 10 0 22 -4 25 -10 3 -5 25 -18 48 -28 23 -10
70 -46 104 -80 34 -34 66 -62 72 -62 6 0 11 -4 11 -9 0 -5 10 -13 22 -17 13
-4 40 -18 60 -30 46 -29 162 -35 172 -9 3 8 13 15 23 15 35 0 141 52 146 71 3
11 12 19 20 19 9 0 19 9 22 20 3 11 13 20 21 20 8 0 14 6 14 13 0 14 53 67 68
67 5 0 37 29 71 65 33 36 66 65 73 65 15 0 48 35 48 51 0 5 18 27 39 48 24 24
44 55 51 80 6 23 15 41 20 41 6 0 10 11 10 25 0 16 6 25 15 25 8 0 15 -4 15
-10 0 -5 7 -10 15 -10 8 0 15 5 15 10 0 6 -5 10 -11 10 -6 0 -9 5 -7 11 2 6 8
10 13 10 15 0 45 30 45 46 0 7 5 13 10 13 6 0 10 8 10 18 1 22 36 69 46 60 18
-19 21 -101 8 -227 -8 -75 -16 -156 -18 -181 -5 -54 -44 -347 -50 -372 -4 -17
88 -18 1825 -18 l1829 0 0 1260 0 1260 -117 0 c-65 0 -141 0 -168 0 -54 -1
-137 31 -101 38 35 7 64 52 33 52 -7 0 -24 8 -37 18 -28 20 -132 61 -172 69
-15 3 -25 10 -22 15 4 6 -1 8 -14 4 -12 -4 -22 -1 -25 7 -3 8 -18 17 -34 20
-30 6 -117 66 -109 74 3 3 19 0 37 -6 18 -6 44 -11 58 -11 15 0 32 -5 37 -10
6 -6 38 -15 72 -21 34 -6 62 -15 62 -21 0 -5 4 -7 9 -4 5 3 28 -1 51 -9 23 -8
49 -15 58 -15 13 0 13 2 -1 18 -10 10 -14 22 -10 25 3 4 1 8 -5 8 -21 3 -27 4
-62 19 -19 8 -42 22 -52 32 -10 10 -27 18 -38 18 -25 0 -38 28 -19 42 12 8 11
9 -1 5 -9 -2 -27 11 -45 34 -16 21 -40 41 -52 45 -11 3 -24 15 -26 26 -5 19
-7 19 -22 5 -9 -9 -23 -13 -33 -10 -28 10 -103 64 -108 78 -3 7 -18 15 -33 18
-16 3 -52 20 -80 36 -29 17 -60 31 -70 31 -10 0 -24 6 -30 13 -6 8 -30 20 -53
27 -24 8 -50 19 -58 26 -9 7 -42 20 -74 28 -33 9 -61 18 -64 20 -12 13 56 18
101 7 37 -8 53 -8 63 0 18 15 18 37 -2 56 -8 9 -13 22 -10 30 4 10 1 13 -13 8
-24 -7 -51 22 -32 35 8 4 10 13 6 19 -5 9 -10 9 -22 0 -11 -9 -16 -10 -22 -1
-3 6 -18 16 -31 22 -21 8 -18 9 18 4 27 -4 42 -2 42 5 0 6 -5 11 -11 11 -6 0
-45 29 -87 65 -93 80 -85 73 -152 118 -30 20 -59 40 -65 45 -5 4 -66 50 -134
102 -68 52 -130 104 -138 117 -11 16 -14 37 -10 66 5 36 15 51 70 102 36 33
84 76 108 97 24 20 54 45 67 56 12 11 47 35 78 53 199 121 355 298 402 458 12
41 27 78 32 81 6 4 20 24 32 46 16 30 21 54 19 103 -1 42 3 71 13 85 8 13 16
36 19 52 3 16 11 43 18 59 7 17 12 33 11 36 -1 4 19 29 43 55 24 27 50 59 56
72 7 12 52 64 101 113 48 50 88 95 88 100 0 6 14 29 31 52 156 216 227 398
229 588 0 70 30 167 70 225 16 25 30 49 30 54 0 5 9 25 20 45 24 43 25 85 3
128 -20 40 -35 52 -99 82 -41 19 -70 24 -155 26 -273 6 -507 -26 -649 -89 -19
-8 -75 -17 -125 -20 -86 -4 -90 -3 -100 19 -6 14 -23 26 -42 31 -45 12 -66 62
-56 132 4 28 8 56 8 61 0 6 6 16 13 24 9 9 12 25 8 44 -3 16 -6 36 -6 43 0 8
-7 14 -15 14 -8 0 -15 9 -15 20 0 11 -4 20 -10 20 -5 0 -10 -6 -10 -13z m-70
-166 c0 -11 -4 -23 -10 -26 -6 -4 -10 5 -10 19 0 14 5 26 10 26 6 0 10 -9 10
-19z m-2803 -1376 c-20 -41 -23 -43 -29 -22 -3 12 -6 31 -6 42 -1 19 0 19 7 2
6 -17 8 -16 19 8 7 14 16 24 21 20 6 -3 0 -25 -12 -50z m70 13 c-3 -7 -5 -2
-5 12 0 14 2 19 5 13 2 -7 2 -19 0 -25z m-121 -7 c-12 -19 -24 -12 -19 10 4
13 9 17 15 11 6 -6 7 -15 4 -21z m719 19 c3 -5 1 -10 -4 -10 -6 0 -11 5 -11
10 0 6 2 10 4 10 3 0 8 -4 11 -10z m-529 -94 c6 -36 7 -63 2 -60 -4 3 -8 14
-8 25 0 15 -5 19 -19 14 -14 -4 -20 0 -23 20 -5 26 6 35 15 13 3 -7 6 2 6 20
1 20 -3 31 -9 27 -5 -3 -10 1 -10 10 0 12 4 14 18 6 11 -6 21 -31 28 -75z
m-36 -329 c-9 -31 -15 -37 -31 -32 -11 4 -19 2 -19 -4 0 -6 8 -11 18 -11 13 0
14 -2 3 -9 -8 -5 -10 -14 -6 -21 5 -9 4 -11 -3 -6 -7 4 -14 -3 -18 -19 -3 -14
-10 -25 -15 -25 -13 0 -11 17 6 50 11 20 12 30 4 30 -11 0 12 42 38 68 7 8 11
18 8 23 -3 5 0 19 7 31 13 23 13 23 16 -7 2 -16 -1 -47 -8 -68z m524 -22 c-34
-32 -40 -32 -17 0 10 13 24 25 31 25 7 0 1 -11 -14 -25z m56 -75 c0 -5 -4 -10
-10 -10 -5 0 -10 5 -10 10 0 6 5 10 10 10 6 0 10 -4 10 -10z m-500 -19 c0 -6
-16 -27 -35 -48 -19 -21 -35 -41 -35 -45 0 -5 -4 -8 -9 -8 -5 0 -7 9 -4 20 4
14 0 20 -11 20 -32 0 -11 37 31 56 34 15 63 17 63 5z m80 -71 c0 -5 -7 -10
-16 -10 -8 0 -12 5 -9 10 3 6 10 10 16 10 5 0 9 -4 9 -10z m635 -650 c3 -5 1
-10 -4 -10 -6 0 -11 5 -11 10 0 6 2 10 4 10 3 0 8 -4 11 -10z m-91 -169 c-13
-9 -71 -160 -79 -204 -5 -29 -10 -37 -21 -33 -10 4 -20 -5 -30 -30 -16 -39
-41 -54 -55 -33 -7 11 -9 11 -9 -3 0 -22 -28 -24 -36 -4 -3 8 -11 14 -17 12
-7 -1 -9 -1 -4 1 22 13 -12 65 -45 69 -13 1 -27 3 -31 3 -5 1 -5 10 -2 21 4
14 2 20 -8 20 -8 0 -17 7 -21 15 -4 12 0 14 21 9 17 -5 24 -3 20 3 -4 6 0 14
9 17 10 4 13 2 8 -7 -4 -6 4 -2 17 9 17 15 34 21 58 19 19 -2 40 2 47 9 6 6
33 27 59 46 26 19 61 50 78 67 27 28 33 30 40 17 5 -9 6 -19 1 -23z m-420 14
c3 -8 1 -15 -4 -15 -6 0 -10 7 -10 15 0 8 2 15 4 15 2 0 6 -7 10 -15z m-14
-107 c0 -9 4 -8 10 2 8 13 10 13 10 -1 0 -23 -11 -30 -27 -17 -22 18 -26 2 -8
-26 10 -15 13 -26 6 -26 -17 0 -42 45 -35 64 7 19 44 22 44 4z m35 -78 c-3 -5
-10 -10 -16 -10 -5 0 -9 5 -9 10 0 6 7 10 16 10 8 0 12 -4 9 -10z m397 -65
c11 -4 12 -20 5 -78 -11 -89 -22 -112 -59 -128 -24 -10 -31 -9 -47 5 -9 9 -23
16 -29 16 -7 0 -12 5 -12 10 0 6 8 10 18 10 17 0 26 12 56 80 14 32 47 90 51
90 2 0 9 -2 17 -5z m-310 -203 c51 -3 100 0 119 7 41 14 62 -1 28 -20 -30 -16
-162 -21 -209 -8 -19 5 -51 24 -70 41 l-35 31 40 -23 c31 -18 60 -24 127 -28z
m398 -91 c0 -20 7 -39 18 -47 11 -9 12 -13 4 -14 -20 0 -31 -42 -15 -58 33
-34 -10 -262 -50 -262 -5 0 -17 -10 -27 -22 -17 -21 -19 -21 -25 -5 -4 9 -5
26 -2 37 4 15 0 20 -13 20 -10 0 -29 14 -42 31 -13 17 -44 54 -69 82 -41 46
-46 57 -46 99 0 42 3 49 31 63 68 36 91 52 143 105 29 30 56 66 60 80 6 22 8
19 20 -25 7 -27 13 -65 13 -84z m-203 62 c-15 -16 -17 -16 -17 -1 0 9 6 18 13
21 20 7 22 -2 4 -20z m-373 -133 c-6 -5 -24 21 -24 34 0 6 6 1 14 -10 8 -10
12 -21 10 -24z m261 -10 c3 -5 1 -10 -4 -10 -6 0 -11 5 -11 10 0 6 2 10 4 10
3 0 8 -4 11 -10z m2390 -120 c3 -5 22 -10 41 -10 19 0 34 -4 34 -9 0 -5 14
-11 30 -14 17 -4 30 -12 30 -18 0 -14 -61 -4 -71 12 -3 6 -9 10 -13 9 -22 -4
-76 14 -76 26 0 16 16 19 25 4z m-2025 -146 c0 -8 -6 -22 -14 -30 -8 -7 -16
-19 -19 -26 -2 -7 -8 -10 -12 -5 -10 9 21 77 35 77 5 0 10 -7 10 -16z m3090
-684 c12 -8 11 -10 -7 -10 -12 0 -25 5 -28 10 -8 13 15 13 35 0z m-2370 -550
c0 -5 -4 -10 -10 -10 -5 0 -10 5 -10 10 0 6 5 10 10 10 6 0 10 -4 10 -10z
m-640 -488 c0 -4 29 -6 65 -4 76 5 115 -8 150 -50 48 -57 41 -123 -23 -190
l-25 -27 28 -43 c15 -24 59 -73 97 -110 37 -36 68 -72 68 -78 0 -17 -62 -4
-115 22 -42 21 -125 103 -153 151 -17 28 -40 34 -73 17 -15 -8 -19 -21 -19
-60 0 -53 17 -80 51 -80 11 0 30 -5 41 -11 21 -11 21 -12 3 -25 -27 -20 -215
-20 -215 0 0 8 7 16 15 20 13 4 15 35 15 191 l0 185 -41 0 c-32 0 -40 3 -37
17 2 9 21 22 43 30 22 7 49 22 60 33 19 20 65 28 65 12z m1352 -178 c-2 -102
-1 -201 3 -220 5 -30 9 -34 28 -28 34 10 39 10 44 -2 5 -14 -43 -50 -80 -59
-20 -5 -32 -1 -51 19 l-26 25 0 190 c0 187 0 190 -22 193 -12 2 -23 8 -25 15
-6 16 65 52 102 53 l30 0 -3 -186z m-2382 152 c0 -7 -7 -19 -15 -26 -11 -9
-15 -34 -15 -96 0 -46 3 -84 8 -84 4 1 45 36 91 79 82 76 94 101 50 101 -26 0
-24 26 4 34 12 3 66 6 120 6 74 0 97 -3 97 -13 0 -8 -17 -19 -37 -25 -47 -15
-197 -122 -201 -144 -3 -16 116 -166 174 -220 16 -14 47 -34 69 -45 55 -25 53
-47 -4 -51 -92 -7 -139 28 -275 201 -34 43 -47 45 -76 15 -22 -24 -27 -82 -9
-121 12 -26 47 -47 79 -47 10 0 21 -4 24 -8 13 -21 -17 -30 -117 -35 -118 -6
-137 3 -98 42 20 20 21 28 15 199 -7 196 -7 198 -76 208 -21 4 -35 11 -32 16
12 19 51 27 137 27 67 1 87 -2 87 -13z m2588 -38 c17 -17 15 -26 -10 -42 -40
-24 -65 -28 -82 -11 -23 24 -20 34 17 50 40 18 60 18 75 3z m-14 -170 c12 -16
16 -47 16 -110 0 -81 2 -88 20 -88 33 0 23 -30 -15 -46 -45 -18 -51 -18 -75 6
-17 17 -20 33 -20 105 0 69 -3 85 -15 85 -26 0 -16 27 18 49 41 26 52 26 71
-1z m744 -5 c2 -13 -1 -23 -7 -23 -30 0 -64 -18 -56 -29 2 -5 0 -23 -6 -40 -8
-24 -25 -38 -75 -62 -35 -17 -62 -35 -59 -39 2 -4 33 -17 67 -30 70 -25 108
-54 108 -83 0 -34 -33 -75 -82 -102 -81 -44 -173 -32 -203 26 -22 41 -18 64
15 102 21 25 27 40 23 57 -4 16 0 27 12 36 17 13 17 14 -6 23 -60 22 -72 92
-24 137 47 43 81 52 190 51 96 -2 100 -3 103 -24z m-1620 -11 c31 -20 42 -43
42 -87 0 -50 -23 -89 -73 -123 -78 -54 -144 -52 -204 4 -33 31 -35 37 -30 79
5 50 23 76 78 111 71 45 135 50 187 16z m170 -70 c2 -77 6 -93 21 -101 14 -8
24 -4 43 17 53 57 61 96 23 114 -14 6 -25 17 -25 25 0 7 2 13 4 13 2 0 19 7
39 15 32 13 37 13 58 -4 19 -15 24 -31 28 -96 5 -59 10 -81 24 -89 25 -16 49
3 65 50 11 34 11 44 -4 77 -20 43 -12 70 23 75 30 5 58 -34 58 -82 0 -33 -9
-54 -47 -108 -55 -76 -87 -93 -136 -72 -17 7 -40 27 -50 43 l-19 31 -32 -40
c-39 -49 -74 -53 -120 -14 -29 24 -31 30 -31 92 0 58 -3 69 -22 81 -21 13 -21
14 -2 28 26 21 77 43 89 39 6 -1 11 -44 13 -94z m870 72 c13 -26 15 -26 64 8
37 25 71 23 109 -9 l32 -27 -6 -79 c-6 -73 -5 -79 14 -84 43 -12 0 -40 -64
-42 l-28 -1 6 83 c6 84 0 106 -36 119 -8 3 -30 0 -47 -8 l-33 -13 3 -68 c3
-60 5 -68 25 -73 39 -9 10 -31 -50 -37 l-57 -6 0 93 c0 77 -3 95 -17 106 -17
12 -16 15 12 38 38 32 59 32 73 0z m-2128 -188 c0 -7 -9 -25 -21 -40 -17 -22
-28 -26 -70 -26 -57 0 -61 10 -20 51 23 23 39 29 70 29 28 0 41 -4 41 -14z
m-1080 -7 c0 -6 -9 -24 -21 -40 -18 -25 -27 -29 -70 -29 -57 0 -62 11 -22 52
21 22 36 28 70 28 24 0 43 -5 43 -11z m-1650 -49 c11 -7 3 -10 -30 -10 -33 0
-41 3 -30 10 8 5 22 10 30 10 8 0 22 -5 30 -10z m310 -70 c22 -6 40 -12 40
-14 0 -2 -65 -4 -145 -4 -105 -1 -152 -5 -172 -16 -39 -19 -103 -31 -103 -18
0 17 82 55 135 63 64 8 194 3 245 -11z m-82 -110 c-26 -11 -54 -17 -63 -15 -8
3 -22 7 -31 10 -36 11 2 25 69 24 l72 0 -47 -19z m5830 -202 c16 -16 15 -43
-3 -61 -13 -13 -13 -16 1 -21 13 -5 13 -10 -5 -32 -22 -28 -28 -88 -11 -99 19
-12 48 6 60 36 10 24 10 35 -1 57 -7 15 -15 31 -17 35 -3 5 5 4 16 -2 16 -8
21 -7 26 4 6 17 52 20 61 5 5 -8 11 -7 20 0 19 16 35 4 35 -27 0 -26 0 -25 23
8 27 41 66 51 120 30 34 -13 41 -13 73 2 40 19 54 21 54 7 0 -32 -126 -54
-149 -26 -10 12 -16 12 -39 0 -41 -21 -57 -89 -27 -114 13 -11 20 -9 38 9 13
11 29 21 35 21 7 0 12 14 12 30 0 30 13 40 25 20 11 -18 -5 -65 -31 -93 -28
-30 -75 -36 -96 -13 -11 12 -15 12 -30 -1 -16 -14 -20 -14 -40 -1 -17 12 -27
13 -40 4 -13 -8 -23 -8 -37 1 -16 10 -22 8 -37 -8 -20 -22 -54 -25 -72 -7 -10
10 -15 10 -21 -1 -16 -25 -36 -5 -54 51 -27 86 -24 94 33 113 55 18 64 27 56
53 -6 16 -13 17 -74 10 -118 -14 -107 -1 -110 -121 -2 -99 -15 -139 -26 -84
-3 12 -8 36 -11 52 -11 47 -17 144 -11 160 7 20 235 22 254 3z"/>
<path d="M3096 3253 c10 -40 14 -41 14 -5 0 18 -5 32 -10 32 -6 0 -8 -11 -4
-27z"/>
<path d="M3290 1315 c0 -81 2 -95 16 -95 23 0 81 37 99 63 40 58 -6 127 -84
127 l-31 0 0 -95z"/>
<path d="M5332 1218 c-32 -32 5 -108 53 -108 47 0 59 57 20 95 -26 27 -54 32
-73 13z"/>
<path d="M5320 961 c-16 -31 -12 -48 18 -80 37 -40 63 -46 95 -20 46 36 30 72
-46 104 -47 19 -54 19 -67 -4z"/>
<path d="M3772 1180 c-26 -24 -27 -41 -7 -80 31 -61 94 -78 133 -37 32 34 28
64 -14 103 -41 39 -80 44 -112 14z"/>
<path d="M6107 508 c-14 -11 -15 -20 -5 -63 l12 -50 10 50 c6 28 15 56 19 63
5 7 3 12 -5 12 -8 0 -22 -6 -31 -12z"/>
<path d="M6278 504 c-11 -11 -10 -92 1 -99 6 -3 15 3 20 14 13 24 14 61 2 61
-5 0 -11 7 -13 16 -2 9 -6 12 -10 8z"/>
<path d="M6341 453 c-1 -47 13 -63 28 -34 15 28 14 51 -3 51 -8 0 -17 6 -19
13 -3 6 -6 -7 -6 -30z"/>
<path d="M550 6975 c-7 -8 -18 -15 -24 -15 -6 0 -29 -9 -51 -20 -24 -12 -30
-18 -15 -14 50 11 110 39 110 52 0 16 -5 15 -20 -3z"/>
<path d="M2246 6977 c3 -10 9 -15 12 -12 3 3 0 11 -7 18 -10 9 -11 8 -5 -6z"/>
<path d="M2511 6775 c-18 -30 -25 -35 -59 -35 -54 0 -224 -61 -210 -76 3 -2
40 5 84 16 86 21 149 28 160 17 12 -11 -6 -400 -22 -472 -10 -43 6 -24 17 22
27 106 51 226 60 293 12 91 34 163 57 182 9 9 59 30 110 48 51 18 91 34 89 36
-2 2 -35 -5 -73 -16 -92 -27 -140 -26 -147 0 -8 32 -42 24 -66 -15z"/>
<path d="M2188 6643 c7 -3 16 -2 19 1 4 3 -2 6 -13 5 -11 0 -14 -3 -6 -6z"/>
<path d="M2772 6560 c-45 -9 -92 -15 -105 -13 -39 7 -58 -17 -63 -82 -3 -33
-10 -67 -15 -77 -13 -24 -11 -58 4 -58 8 0 8 -3 1 -8 -16 -11 -24 -37 -44
-151 -11 -61 -26 -111 -36 -122 -23 -25 -11 -25 101 6 50 14 114 32 142 39 52
15 97 35 78 36 -5 0 -54 -11 -108 -25 -54 -14 -104 -25 -112 -25 -21 0 -19 48
6 142 24 90 28 94 161 154 97 43 101 53 12 28 -90 -25 -120 -28 -127 -12 -7
20 14 109 27 113 6 2 53 16 104 31 50 15 92 31 92 36 0 11 -21 9 -118 -12z"/>
<path d="M2238 6565 c-3 -3 -32 -7 -64 -8 l-59 -2 -8 -70 c-4 -38 -14 -112
-23 -164 -15 -94 -13 -114 8 -93 7 7 19 12 28 12 9 0 25 10 36 23 l19 22 -22
-19 c-24 -20 -53 -16 -53 8 0 45 56 243 74 263 6 7 38 14 71 15 l60 3 3 -37
c6 -76 -34 -158 -103 -207 -42 -30 -13 -26 36 4 58 37 71 53 102 123 33 77 34
96 5 116 -21 15 -98 22 -110 11z"/>
<path d="M752 6493 c0 -37 -3 -101 -6 -142 -6 -65 -5 -72 9 -61 9 7 13 21 9
34 -5 20 10 138 22 179 7 23 79 24 92 0 13 -22 0 -64 -34 -108 -39 -51 -26
-51 19 0 39 45 54 90 39 114 -5 7 -34 19 -63 26 -30 7 -61 16 -70 19 -14 6
-16 -2 -17 -61z"/>
<path d="M1580 6503 c-8 -10 -30 -48 -48 -84 -19 -36 -43 -78 -55 -92 -12 -15
-38 -52 -57 -82 -34 -53 -52 -66 -65 -45 -6 10 -21 114 -32 228 -8 84 -29 81
-53 -8 -10 -36 -23 -81 -30 -100 -33 -94 -154 -302 -213 -365 -56 -60 -140
-225 -124 -241 5 -6 52 75 62 106 4 11 10 20 14 20 4 0 13 12 20 27 7 15 50
77 96 138 46 61 93 132 104 158 16 37 25 47 44 47 27 0 39 -25 31 -63 -8 -40
-8 -262 0 -284 5 -16 15 -23 32 -23 34 0 41 23 53 163 7 95 13 123 29 140 11
12 27 37 36 55 9 17 21 32 26 32 5 0 16 14 25 30 18 36 50 40 59 8 3 -13 6
-107 6 -209 l0 -187 25 -16 c35 -23 40 -21 54 24 12 41 7 87 -25 244 -16 80
-19 284 -3 339 13 47 8 64 -11 40z"/>
<path d="M1800 6501 c-8 -6 -25 -11 -38 -11 -27 0 -107 -75 -122 -114 -25 -68
4 -153 73 -210 40 -33 49 -36 103 -35 l59 1 -53 9 c-63 11 -94 32 -116 77 -20
41 -21 144 -2 180 17 33 58 70 93 83 35 13 99 -8 128 -43 28 -33 55 -115 55
-167 0 -41 -42 -111 -65 -111 -8 0 -15 -4 -15 -10 0 -38 87 42 101 93 13 48 6
166 -11 194 -32 51 -151 91 -190 64z"/>
<path d="M1017 6467 c-71 -91 -102 -134 -104 -150 -2 -10 -10 -32 -19 -48 -29
-56 -7 -40 33 24 31 49 47 66 69 70 16 3 33 1 39 -4 17 -17 25 -9 25 23 0 30
-1 31 -20 13 -21 -19 -50 -14 -50 8 0 8 9 22 20 32 16 15 22 15 35 5 13 -11
15 -8 15 19 0 37 -18 40 -43 8z"/>
<path d="M2164 6222 c4 -7 53 -50 109 -97 98 -82 136 -103 123 -69 -3 9 -6 17
-6 20 0 2 -39 30 -86 61 -127 85 -148 98 -140 85z"/>
<path d="M2031 6068 c-26 -102 -29 -124 -18 -136 23 -22 33 4 46 113 6 55 14
110 17 123 4 12 2 22 -3 22 -6 0 -24 -55 -42 -122z"/>
<path d="M2446 6164 c-4 -14 -5 -28 -3 -31 3 -2 8 8 11 23 4 14 5 28 3 31 -3
2 -8 -8 -11 -23z"/>
<path d="M3030 5391 c0 -11 4 -22 9 -25 4 -3 6 6 3 19 -5 30 -12 33 -12 6z"/>
<path d="M2721 4734 c0 -11 3 -14 6 -6 3 7 2 16 -1 19 -3 4 -6 -2 -5 -13z"/>
<path d="M2711 4676 c-7 -8 -13 -27 -14 -42 -2 -22 4 -30 24 -37 33 -12 75 -2
83 19 9 25 2 27 -38 13 -44 -16 -57 -6 -25 20 17 14 28 16 36 9 14 -11 50 -2
39 10 -4 4 -17 7 -29 8 -12 0 -31 4 -43 7 -14 5 -26 2 -33 -7z"/>
<path d="M3505 4660 c-3 -5 -1 -18 4 -27 9 -16 10 -14 11 10 0 28 -5 34 -15
17z"/>
<path d="M2890 4645 c-11 -13 -10 -14 4 -9 9 3 16 10 16 15 0 13 -6 11 -20 -6z"/>
<path d="M3120 4618 c0 -19 2 -20 10 -8 13 19 13 30 0 30 -5 0 -10 -10 -10
-22z"/>
<path d="M3530 4570 c0 -5 5 -10 10 -10 6 0 10 5 10 10 0 6 -4 10 -10 10 -5 0
-10 -4 -10 -10z"/>
<path d="M2878 4518 c6 -6 18 -8 28 -6 14 3 12 5 -9 10 -19 3 -25 2 -19 -4z"/>
<path d="M2880 4484 c-25 -8 -54 -16 -65 -18 -11 -2 -31 -9 -45 -14 -14 -6
-34 -13 -44 -17 -18 -5 -18 -7 -3 -22 17 -17 49 -14 173 18 36 10 64 38 64 64
0 8 -33 3 -80 -11z"/>
<path d="M2760 4480 c-9 -6 -10 -10 -3 -10 6 0 15 5 18 10 8 12 4 12 -15 0z"/>
<path d="M2792 4177 c18 -19 38 -22 38 -7 0 6 -4 10 -9 10 -5 0 -18 3 -28 7
-17 6 -17 6 -1 -10z"/>
<path d="M6620 3951 c0 -6 5 -13 10 -16 6 -3 10 -33 10 -65 0 -32 5 -62 10
-65 6 -4 10 23 10 74 0 74 -2 81 -20 81 -11 0 -20 -4 -20 -9z"/>
<path d="M6595 3889 c-10 -15 3 -25 16 -12 7 7 7 13 1 17 -6 3 -14 1 -17 -5z"/>
<path d="M6640 3755 c0 -14 5 -25 10 -25 6 0 10 11 10 25 0 14 -4 25 -10 25
-5 0 -10 -11 -10 -25z"/>
<path d="M6165 3450 c4 -6 -8 -10 -27 -11 -33 -1 -32 -1 7 -9 22 -4 41 -7 43
-5 6 5 -11 35 -20 35 -5 0 -6 -4 -3 -10z"/>
<path d="M6305 3350 c3 -5 8 -10 11 -10 2 0 4 5 4 10 0 6 -5 10 -11 10 -5 0
-7 -4 -4 -10z"/>
<path d="M26 103 c-11 -11 -6 -23 9 -23 8 0 15 4 15 9 0 13 -16 22 -24 14z"/>
<path d="M125 90 c-3 -5 3 -10 14 -10 12 0 21 5 21 10 0 6 -6 10 -14 10 -8 0
-18 -4 -21 -10z"/>
<path d="M80 70 c0 -5 7 -7 15 -4 8 4 15 8 15 10 0 2 -7 4 -15 4 -8 0 -15 -4
-15 -10z"/>
<path d="M80 31 c0 -14 31 -22 54 -15 21 7 21 7 1 15 -28 11 -55 11 -55 0z"/>
</g>
</svg>
