<?xml version="1.0" standalone="no"?>
<!DOCTYPE svg PUBLIC "-//W3C//DTD SVG 20010904//EN"
 "http://www.w3.org/TR/2001/REC-SVG-20010904/DTD/svg10.dtd">
<svg version="1.0" xmlns="http://www.w3.org/2000/svg"
  width="800" height="1200"  viewBox="0 0 696 1000"
 preserveAspectRatio="xMidYMid meet">

<g transform="translate(0.000000,500.000000) scale(0.100000,-0.100000)"
fill="#000000" stroke="none">
<path d="M830 4165 l0 -836 33 -72 c80 -171 86 -182 86 -160 1 16 5 21 16 16
18 -6 55 23 55 44 0 7 3 13 8 13 9 0 42 74 42 94 0 19 26 27 58 20 l27 -6 -28
19 c-15 11 -24 23 -20 26 3 4 1 7 -5 7 -6 0 -9 6 -6 14 3 7 -7 21 -23 31 -33
21 -77 66 -78 78 0 5 -7 14 -15 21 -19 14 -43 56 -37 63 5 4 31 -15 63 -45 8
-8 22 -11 31 -8 9 4 22 -1 30 -11 10 -13 16 -15 19 -5 4 9 12 8 32 -6 15 -10
44 -26 65 -36 20 -9 37 -21 37 -26 0 -6 8 -10 18 -10 21 -1 53 -26 76 -63 10
-15 25 -27 32 -27 8 0 14 -9 14 -19 0 -11 4 -22 9 -26 5 -3 -1 -17 -13 -30
-27 -29 -36 -31 -36 -10 0 18 -16 20 -26 4 -4 -8 -9 -7 -15 2 -6 10 -9 11 -9
2 0 -9 -16 -13 -45 -13 -25 0 -45 -5 -45 -11 0 -5 -16 -31 -35 -56 -20 -26
-33 -53 -31 -60 3 -8 -2 -13 -13 -13 -10 0 -22 -7 -25 -16 -9 -22 3 -32 14
-14 8 13 10 13 10 -1 0 -9 8 -23 17 -30 14 -12 16 -12 8 0 -6 10 -4 12 4 6 8
-4 10 -18 7 -34 -6 -25 -6 -25 9 -7 8 11 15 25 15 31 0 7 14 24 31 39 28 25
34 27 58 16 51 -24 55 -27 59 -39 3 -10 0 -10 -16 -2 -24 13 -62 11 -78 -4
-22 -21 -64 -104 -55 -109 5 -3 14 7 19 24 8 21 16 28 26 24 20 -8 20 -25 1
-50 -17 -22 -20 -38 -5 -29 6 3 7 -1 4 -9 -3 -9 -3 -16 1 -16 10 0 44 43 45
58 0 19 14 14 29 -9 11 -19 11 -21 -2 -16 -11 4 -19 -4 -26 -25 -6 -17 -11
-33 -11 -34 0 -2 15 -4 33 -4 31 0 73 -21 89 -44 14 -20 8 -66 -12 -107 l-21
-39 26 -10 c14 -5 25 -15 25 -22 -1 -12 -23 -58 -103 -214 l-26 -52 30 -83
c55 -156 60 -166 84 -189 20 -19 27 -21 39 -11 12 10 22 5 57 -26 23 -21 48
-51 55 -68 8 -18 13 -23 14 -12 0 9 5 17 11 17 5 0 7 -4 4 -10 -3 -5 -1 -10 6
-10 6 0 9 8 6 20 -3 11 -1 20 4 20 9 0 13 -15 10 -34 -1 -4 4 -15 11 -24 11
-14 9 -15 -20 -9 -28 6 -33 4 -30 -11 2 -9 9 -17 17 -17 16 0 40 -81 41 -138
0 -28 7 -44 23 -58 l22 -19 -21 -17 c-12 -10 -24 -25 -27 -33 -4 -8 -4 3 -2
25 l5 40 -20 -40 c-11 -22 -20 -48 -20 -58 0 -27 26 -84 66 -145 27 -40 41
-53 55 -49 13 4 29 -12 65 -66 26 -39 50 -65 52 -58 2 7 -3 20 -11 29 -19 22
-33 67 -18 58 6 -4 11 -16 11 -27 0 -10 4 -19 10 -19 5 0 9 6 7 13 -3 19 75
11 114 -12 19 -11 66 -27 104 -36 39 -9 90 -21 114 -27 37 -10 45 -9 53 5 5
10 16 17 23 17 21 0 18 20 -2 20 -26 1 -58 26 -41 33 9 4 8 6 -3 6 -9 1 -22 8
-29 16 -7 8 -27 15 -44 15 -46 0 -76 11 -76 26 0 19 -10 18 -26 -3 -12 -17
-15 -16 -36 7 -13 14 -36 30 -53 35 -18 6 -32 20 -36 35 -4 14 -7 19 -8 11 -1
-8 -14 1 -31 20 -29 33 -38 84 -14 75 14 -5 44 24 44 42 0 7 5 12 10 12 6 0
10 -4 10 -10 0 -13 57 -13 65 0 8 13 35 -13 35 -34 0 -9 1 -16 3 -16 1 0 33
-11 71 -25 77 -28 176 -47 176 -34 0 5 -12 12 -26 15 -17 4 -23 11 -20 21 3 8
6 17 6 19 0 2 12 4 28 3 15 0 21 -3 15 -6 -32 -13 -7 -23 57 -23 61 0 70 -2
70 -18 0 -48 49 -28 51 21 1 30 1 31 9 7 5 -15 8 -18 9 -8 1 21 50 60 68 54 7
-3 12 0 10 7 -1 7 8 12 21 11 12 0 22 5 22 13 0 8 4 12 9 9 4 -3 27 2 50 11
l41 16 -32 20 c-18 11 -50 34 -70 53 -20 18 -56 43 -78 54 -53 27 -89 59 -129
115 -29 41 -30 45 -12 45 11 0 23 5 26 10 4 6 11 7 17 4 6 -4 8 -3 5 3 -3 5 1
23 9 39 10 19 14 42 10 66 -6 34 -4 37 26 47 25 9 35 8 47 -3 27 -24 79 -46
106 -46 16 0 38 12 56 30 28 28 30 34 27 93 -2 63 -2 64 46 120 49 57 60 65
71 47 3 -5 20 -19 37 -31 l31 -23 -5 22 c-4 12 -3 22 1 22 18 0 44 -29 46 -50
2 -24 25 -42 25 -20 0 6 5 8 12 4 7 -4 8 -3 4 4 -8 13 21 82 34 82 4 0 4 19 0
41 -5 27 -17 49 -35 63 -24 19 -25 23 -12 35 13 10 21 7 51 -21 27 -26 35 -42
37 -73 4 -85 -1 -106 -30 -135 -30 -31 -25 -50 14 -50 13 0 25 -11 33 -30 16
-36 37 -40 28 -5 -4 17 -3 23 6 20 7 -3 14 -17 14 -31 3 -35 8 -38 45 -25 45
15 66 14 87 -7 16 -16 17 -14 20 57 2 41 -4 111 -12 155 -9 45 -32 189 -51
320 -20 132 -38 243 -41 247 -9 15 16 20 30 7 19 -19 39 -149 31 -197 -4 -24
-2 -47 4 -58 9 -15 10 -13 6 12 -3 18 1 12 10 -15 9 -25 25 -108 35 -185 31
-218 59 -329 91 -364 15 -17 31 -43 36 -58 6 -16 18 -29 29 -31 24 -3 74 33
74 54 0 8 4 14 10 14 5 0 9 3 9 8 -4 22 2 42 10 37 6 -3 15 3 20 13 6 11 36
29 68 40 32 12 87 44 121 72 62 50 99 70 129 70 16 0 113 -96 113 -112 0 -6 6
-8 14 -5 13 5 46 -36 167 -213 17 -25 37 -54 44 -65 13 -17 14 9 15 198 0 204
-1 221 -20 244 -25 33 -25 47 0 40 20 -5 20 0 20 204 0 177 -2 209 -15 209 -8
0 -12 6 -9 14 3 8 1 17 -5 21 -17 10 -13 26 7 23 16 -3 17 53 20 1050 l2 1052
-1665 0 -1665 0 0 -835z m1779 609 c24 -5 31 -12 31 -30 0 -28 -3 -28 49 -9
l41 14 50 -62 c27 -34 53 -73 56 -86 4 -14 3 -65 -2 -114 -8 -80 -8 -90 8 -98
14 -8 20 -5 29 14 11 24 105 77 136 77 30 0 82 -44 98 -83 21 -51 21 -237 0
-276 -15 -30 -86 -71 -121 -71 -11 0 -43 21 -72 46 l-52 46 0 108 c0 128 -6
135 -84 95 -27 -14 -57 -25 -67 -25 -9 0 -28 19 -42 42 l-25 43 -6 -55 c-4
-30 -5 -79 -4 -107 2 -29 1 -53 -2 -53 -3 0 -12 15 -20 33 -14 31 -14 28 -20
-78 -3 -74 -8 -103 -13 -87 -12 31 -29 28 -26 -5 1 -16 1 -59 -1 -98 -2 -69
-3 -67 -25 80 -12 83 -26 158 -30 168 -4 10 -3 17 4 17 6 0 11 -4 11 -10 0 -5
5 -10 11 -10 12 0 7 40 -21 151 -10 41 -16 76 -14 78 2 2 10 -2 19 -9 9 -7 17
-11 19 -9 2 4 -7 104 -29 302 l-7 67 45 0 c24 0 59 -3 76 -6z m-509 -120 l0
-35 32 17 c30 15 32 15 45 -2 7 -10 19 -36 25 -57 12 -40 8 -47 -49 -78 -24
-13 -47 -4 -24 10 10 7 9 15 -3 45 -9 21 -20 35 -26 31 -15 -9 -13 -338 2
-353 17 -17 12 -18 -75 -14 l-79 4 23 24 c21 22 23 37 30 186 5 116 4 165 -4
170 -6 4 8 24 39 51 27 25 52 43 57 40 4 -2 7 -20 7 -39z m-626 -1 c-8 -23
-13 -82 -14 -145 l0 -108 75 4 c41 2 75 1 75 -2 0 -3 -10 -16 -22 -29 l-22
-23 19 -76 c16 -65 20 -73 33 -60 11 11 15 46 16 154 0 77 -2 144 -7 148 -13
14 -77 -24 -77 -46 0 -34 -18 -22 -36 25 -9 25 -15 47 -13 49 21 20 85 56 98
56 18 0 92 -72 110 -107 6 -12 11 -73 11 -142 0 -106 2 -121 17 -121 11 0 2
-13 -27 -40 -44 -41 -80 -52 -80 -25 0 19 -17 19 -37 -1 -9 -8 -27 -14 -40
-12 -22 3 -28 13 -48 83 -24 84 -24 86 8 122 26 29 20 35 -20 18 l-33 -14 0
-197 c0 -170 2 -200 17 -216 9 -10 14 -20 12 -22 -2 -2 -31 0 -64 6 -33 5 -75
7 -92 4 -38 -5 -52 8 -25 23 29 15 42 85 42 215 0 64 -2 116 -4 116 -2 0 -29
-10 -60 -21 l-56 -22 0 -119 c0 -96 3 -120 15 -124 26 -10 17 -27 -11 -20 -14
4 -62 7 -105 7 -83 0 -95 7 -55 29 31 16 36 35 36 142 l0 86 -45 18 c-30 11
-52 28 -67 52 -21 34 -21 35 -3 48 10 8 30 14 44 14 l26 -1 -27 -15 c-16 -8
-28 -19 -28 -23 0 -9 82 -61 94 -61 3 0 6 76 6 169 0 138 -3 171 -15 181 -29
24 -14 30 71 30 79 0 85 -2 78 -17 -11 -22 -18 -343 -7 -343 4 0 31 14 60 32
l53 32 0 147 c0 121 -3 150 -16 163 -14 15 -8 16 69 16 l85 0 -14 -37z m384
-31 c3 -32 3 -32 32 -17 16 8 33 15 39 15 9 0 52 -100 51 -118 -1 -4 -17 -17
-36 -29 -39 -26 -63 -31 -46 -10 12 15 -15 114 -27 101 -14 -15 6 -356 21
-365 8 -5 -20 -9 -66 -9 -76 0 -79 1 -62 19 14 16 16 41 14 192 l-3 174 -27
-2 c-16 -1 -28 1 -28 5 1 11 114 82 125 79 6 -2 11 -18 13 -35z m1411 -19 c-3
-56 -2 -58 24 -61 36 -4 38 -39 2 -44 -29 -3 -25 30 -41 -321 -7 -154 -6 -158
15 -173 11 -8 21 -20 21 -25 0 -14 -121 51 -127 68 -3 8 -1 103 5 213 6 109 8
208 5 219 -4 16 -13 21 -39 21 -18 0 -36 5 -39 10 -3 6 1 10 9 10 8 0 46 31
83 68 37 38 72 69 76 70 5 1 7 -24 6 -55z m194 -125 c21 -2 33 -9 35 -20 3
-15 -4 -18 -32 -18 l-36 0 0 -207 c0 -115 3 -218 6 -230 7 -26 60 -50 82 -37
21 14 17 28 -10 32 -13 2 -27 8 -33 13 -9 9 115 1 125 -8 3 -3 -13 -20 -35
-39 -46 -39 -54 -39 -157 8 l-68 31 0 218 c0 212 -1 219 -20 219 -11 0 -20 2
-20 5 0 3 22 35 50 71 27 36 55 75 62 87 12 19 13 14 16 -50 l3 -72 32 -3z
m394 31 c-6 -23 10 -24 37 -4 11 8 26 15 33 15 13 0 63 -89 63 -112 0 -15 -81
-87 -99 -88 -11 0 -11 3 -1 15 21 26 -4 134 -26 112 -3 -3 -5 -92 -4 -198 0
-214 3 -223 66 -235 19 -3 34 -10 34 -15 0 -10 -87 -1 -160 17 -30 8 -62 14
-72 14 -24 0 -23 4 7 34 23 23 25 33 26 113 0 48 2 128 5 177 5 78 3 88 -10
83 -30 -12 -17 8 36 55 53 46 74 52 65 17z m-196 -30 c32 -16 46 -32 65 -75
24 -54 24 -56 7 -85 -20 -33 -30 -35 -80 -14 -73 31 -76 27 -71 -78 7 -136 39
-175 68 -84 19 59 27 65 41 33 11 -23 9 -30 -18 -64 -46 -57 -83 -56 -139 2
l-44 46 0 84 c0 151 6 171 63 216 27 22 54 40 59 40 5 0 27 -9 49 -21z m-1254
-19 c-8 -29 -132 -245 -196 -342 l-56 -83 -75 1 c-81 2 -187 34 -197 61 -3 8
5 26 20 40 22 22 30 25 64 18 l38 -7 -35 -12 c-19 -6 -35 -18 -35 -26 0 -19
36 -28 117 -29 l68 -1 35 54 36 54 -27 98 c-14 55 -29 108 -31 119 -3 11 -13
26 -21 33 -13 10 -7 12 39 12 30 0 65 3 79 6 23 5 24 4 7 -9 -15 -13 -16 -21
-6 -68 18 -87 22 -89 62 -22 45 78 53 103 36 114 -9 6 4 9 35 9 43 0 48 -2 43
-20z m1606 -450 c-3 -11 -7 -20 -8 -20 -1 0 -5 9 -8 20 -3 12 0 20 8 20 8 0
11 -8 8 -20z m41 4 c4 -9 4 -19 1 -22 -3 -3 -5 1 -5 9 0 11 -2 11 -10 -1 -8
-12 -10 -11 -10 8 0 26 15 29 24 6z m23 -16 c-3 -7 -5 -2 -5 12 0 14 2 19 5
13 2 -7 2 -19 0 -25z m-1617 -308 c-6 -11 -19 -24 -31 -30 -26 -14 -16 -29 16
-22 34 6 32 -4 -6 -23 -24 -13 -34 -14 -45 -4 -18 15 -18 33 1 69 12 23 22 30
46 30 26 0 29 -2 19 -20z m154 -15 c-5 -26 -3 -35 7 -35 9 -1 5 -8 -10 -20
-12 -11 -28 -17 -35 -13 -6 4 -21 6 -33 4 -29 -3 -30 22 -3 67 15 25 27 32 50
32 30 0 31 -1 24 -35z m-747 -177 c13 -12 23 -32 23 -45 0 -32 -36 -100 -59
-113 -29 -15 -83 -12 -109 6 -39 27 -23 135 25 163 32 19 95 13 120 -11z m239
5 c-9 -30 -25 -107 -26 -120 0 -23 15 -13 30 20 16 34 70 62 77 41 2 -7 13
-10 23 -7 12 3 20 0 20 -7 0 -10 3 -10 15 0 8 7 22 10 30 6 8 -3 26 0 40 6 33
15 38 8 24 -31 -9 -26 -9 -35 1 -41 9 -5 6 -12 -11 -23 -30 -22 -39 -14 -32
28 4 23 2 35 -6 35 -12 0 -15 -7 -25 -52 -4 -16 -13 -28 -20 -28 -12 0 -12 7
-4 36 5 20 7 38 4 41 -8 8 -26 -7 -26 -23 0 -23 -20 -55 -29 -49 -5 3 -5 21
-1 40 10 43 -2 52 -35 28 -30 -22 -34 -47 -5 -38 11 4 20 2 20 -4 0 -15 -50
-25 -62 -13 -8 8 -18 6 -34 -5 -22 -14 -24 -14 -24 1 0 15 -2 15 -25 0 -22
-15 -25 -15 -31 0 -11 29 15 84 47 95 29 10 38 34 17 47 -7 5 -5 11 7 21 27
19 47 17 41 -4z m418 -15 c-3 -18 -10 -50 -16 -72 -5 -21 -7 -41 -4 -44 7 -6
6 -7 26 32 14 28 63 52 81 40 4 -2 4 -18 -1 -34 -7 -23 -5 -32 7 -38 12 -7 10
-12 -11 -25 -15 -10 -27 -13 -31 -7 -4 7 -13 7 -25 0 -13 -7 -21 -7 -25 0 -3
6 -17 7 -31 4 -16 -4 -24 -2 -24 7 0 10 -3 10 -12 1 -13 -13 -48 -16 -48 -4 0
4 5 23 10 44 8 27 18 39 40 47 20 7 30 17 30 30 0 12 -3 20 -7 20 -24 -4 -25
4 -3 16 40 23 50 19 44 -17z m401 17 c0 -5 -10 -11 -22 -13 -31 -5 -34 -62 -3
-62 27 0 26 -18 -1 -22 -14 -2 -25 -16 -34 -41 -27 -78 -102 -123 -164 -98
-37 16 -46 37 -26 67 21 32 37 31 29 -2 -8 -31 7 -44 52 -44 46 0 74 27 81 79
l6 44 -31 -6 c-19 -4 -32 -2 -32 4 0 5 13 12 29 15 22 5 33 15 40 37 6 16 11
32 11 33 0 8 -86 3 -99 -5 -9 -6 -12 -19 -8 -40 7 -32 -6 -43 -17 -15 -8 21
-8 69 1 78 11 11 188 2 188 -9z m247 -20 c0 -5 -5 -11 -11 -13 -6 -2 -11 4
-11 13 0 9 5 15 11 13 6 -2 11 -8 11 -13z m-171 -12 c12 -15 12 -16 -5 -10
-10 4 -25 2 -32 -4 -17 -14 -19 2 -2 19 16 16 23 15 39 -5z m-1021 -63 c-6
-12 -17 -19 -25 -17 -8 4 -15 -5 -19 -24 -9 -47 -31 -36 -31 16 0 34 4 47 17
51 10 3 21 3 26 0 4 -2 14 -1 22 4 20 12 24 -3 10 -30z m1026 28 c4 -6 -4 -21
-19 -34 -33 -28 -35 -48 -4 -39 22 6 22 6 -2 -15 -29 -25 -45 -22 -49 9 -6 37
6 67 30 79 30 14 35 14 44 0z m272 -22 c-29 -24 -26 -46 5 -46 22 -1 22 -1 -3
-21 -23 -19 -25 -20 -37 -3 -12 16 -14 16 -33 -1 -15 -14 -23 -16 -32 -7 -8 8
-17 8 -31 0 -19 -10 -20 -8 -14 31 3 23 1 44 -5 47 -6 4 -5 10 3 15 28 18 38
10 32 -25 -4 -27 -2 -34 15 -38 26 -7 57 23 41 39 -6 6 -18 9 -25 6 -8 -3 -14
0 -14 6 0 17 30 26 49 14 12 -8 22 -7 35 3 30 21 42 3 14 -20z m-173 -19 c-6
-31 -4 -38 6 -33 8 4 3 -2 -10 -13 -30 -27 -41 -19 -31 24 10 46 -11 43 -24
-3 -15 -50 -34 -48 -31 3 4 57 6 60 55 61 l41 1 -6 -40z m-2141 -102 c19 -14
19 -15 -6 -15 -14 0 -31 7 -38 15 -10 12 -9 15 6 15 11 0 28 -7 38 -15z m2621
5 c3 -5 -1 -10 -10 -10 -9 0 -13 5 -10 10 3 6 8 10 10 10 2 0 7 -4 10 -10z
m-2195 -9 c0 -6 -4 -13 -10 -16 -5 -3 -10 1 -10 9 0 9 5 16 10 16 6 0 10 -4
10 -9z m2500 -70 c34 -40 86 -107 117 -147 30 -41 59 -74 64 -74 5 0 9 -6 9
-14 0 -8 9 -22 21 -30 13 -8 18 -19 14 -27 -5 -8 -15 -1 -29 22 -12 19 -33 48
-48 64 -15 17 -51 60 -80 96 -110 136 -123 153 -135 165 -7 7 -13 16 -13 19 0
16 22 -5 80 -74z m-2869 -14 c-5 -5 -17 -4 -30 3 -30 15 -16 32 15 18 15 -7
21 -15 15 -21z m2489 13 c0 -5 -7 -10 -15 -10 -8 0 -15 5 -15 10 0 6 7 10 15
10 8 0 15 -4 15 -10z m-2535 -20 c3 -5 1 -10 -4 -10 -6 0 -11 -7 -11 -15 0 -8
-4 -15 -10 -15 -11 0 -13 11 -4 34 7 18 20 21 29 6z m2305 -20 c0 -5 -5 -10
-11 -10 -5 0 -7 5 -4 10 3 6 8 10 11 10 2 0 4 -4 4 -10z m90 -7 c0 -7 9 -13
19 -13 11 0 21 6 24 13 2 6 2 1 0 -13 -3 -14 -6 -30 -7 -37 -4 -26 -16 -25
-28 3 l-12 29 -4 -25 c-5 -30 -21 -52 -33 -44 -5 3 -9 0 -9 -5 0 -25 -41 -51
-80 -51 -27 0 -40 -4 -39 -12 1 -7 1 -17 0 -23 -1 -13 -61 -17 -61 -5 0 14
-18 12 -23 -2 -2 -7 -2 -1 0 15 4 26 3 27 -35 27 -22 0 -42 -3 -45 -7 -2 -5
-2 -3 -1 4 2 7 -1 15 -7 19 -18 11 10 32 53 39 24 4 50 17 63 31 12 13 29 24
38 24 8 0 17 5 19 12 3 7 23 11 51 10 26 -1 47 1 46 5 -3 17 2 19 36 19 21 -1
35 -6 35 -13z m90 8 c0 -6 -4 -13 -10 -16 -5 -3 -10 1 -10 9 0 9 5 16 10 16 6
0 10 -4 10 -9z m40 -1 c0 -5 -4 -10 -10 -10 -5 0 -10 5 -10 10 0 6 5 10 10 10
6 0 10 -4 10 -10z m-2185 -30 c-3 -5 -10 -10 -16 -10 -5 0 -9 5 -9 10 0 6 7
10 16 10 8 0 12 -4 9 -10z m2475 0 c0 -14 -208 -190 -225 -190 -25 0 -11 -63
18 -81 5 -4 36 22 69 57 64 68 112 89 144 63 18 -15 60 -94 45 -85 -6 4 -25 1
-43 -7 -18 -8 -45 -19 -60 -25 -17 -7 -30 -23 -38 -46 -6 -20 -15 -36 -20 -36
-5 0 -15 -7 -24 -15 -15 -15 -8 -33 41 -101 30 -40 141 -239 137 -244 -3 -2
-9 2 -14 10 -5 8 -14 22 -20 30 -5 8 -37 56 -70 106 -41 63 -70 96 -90 104
-24 10 -28 15 -19 26 8 10 7 17 -4 29 -14 13 -16 13 -22 -4 -3 -11 -17 -26
-30 -35 l-25 -16 25 -57 c34 -77 26 -91 -10 -17 -16 32 -33 62 -39 66 -6 4 -7
8 -2 8 5 0 3 6 -3 14 -9 11 -9 16 0 21 6 4 15 2 19 -6 14 -21 40 8 40 44 l0
31 -20 -22 c-12 -12 -29 -22 -39 -22 -10 0 -21 -9 -24 -20 -5 -18 -37 -29 -37
-12 0 11 46 52 59 52 6 0 18 11 27 25 9 14 23 25 30 25 8 0 14 5 14 10 0 6 -7
10 -16 10 -8 0 -12 5 -9 10 4 6 -3 29 -14 51 -27 51 -26 55 5 63 14 4 40 21
58 39 148 145 186 175 186 147z m-1990 -69 c-1 -25 -105 -517 -116 -546 -7
-18 -8 -18 -15 1 -4 10 -5 -7 -2 -38 4 -36 2 -58 -4 -58 -6 0 -8 12 -5 28 11
62 -10 8 -32 -84 -43 -174 -58 -246 -60 -285 -1 -21 -5 -42 -9 -45 -4 -4 -7
-15 -7 -25 0 -10 -5 -30 -11 -46 l-11 -28 -9 26 c-9 24 19 155 165 774 13 55
27 118 31 140 7 45 43 202 51 225 5 12 8 12 20 -4 8 -11 14 -27 14 -35z m340
-30 c0 -5 3 -16 6 -25 5 -13 -1 -16 -25 -16 -17 0 -31 5 -31 10 0 6 4 10 10
10 5 0 7 7 4 15 -4 10 0 15 15 15 12 0 21 -4 21 -9z m65 -9 c-12 -13 -45 -11
-45 2 0 9 8 12 25 8 14 -2 23 -7 20 -10z m-125 -2 c0 -5 -4 -10 -10 -10 -5 0
-10 5 -10 10 0 6 5 10 10 10 6 0 10 -4 10 -10z m348 -15 c-13 -5 -26 -14 -29
-19 -4 -5 -16 -6 -28 -3 -13 3 -19 1 -15 -5 4 -6 -2 -8 -17 -3 -18 5 -20 4 -9
-4 12 -8 11 -11 -5 -17 -11 -4 -26 -16 -33 -25 -7 -10 -19 -16 -27 -13 -8 4
-15 2 -15 -4 0 -14 -79 17 -104 40 -11 10 -18 19 -15 21 16 12 64 27 84 27 14
0 25 3 25 8 0 4 47 7 105 7 78 0 100 -2 83 -10z m240 -20 c34 -14 117 -93 108
-102 -2 -2 -25 17 -51 42 -27 25 -62 52 -79 60 -43 19 -24 19 22 0z m-1073 -5
c-83 -13 -185 -18 -185 -9 0 7 74 13 195 16 37 1 36 0 -10 -7z m1442 -6 c-3
-3 -12 -4 -19 -1 -8 3 -5 6 6 6 11 1 17 -2 13 -5z m57 -9 c3 -8 1 -15 -4 -15
-6 0 -10 7 -10 15 0 8 2 15 4 15 2 0 6 -7 10 -15z m-416 -13 c12 -7 22 -22 22
-32 0 -11 5 -20 10 -20 6 0 10 -5 10 -11 0 -6 -15 0 -34 15 -19 14 -46 30 -61
36 -14 5 -24 14 -21 18 7 12 48 8 74 -6z m-1380 -31 c3 -10 -4 -11 -29 -6 -40
8 -54 19 -45 34 9 13 68 -9 74 -28z m84 -23 c-8 -8 -9 -4 -5 13 4 13 8 18 11
10 2 -7 -1 -18 -6 -23z m1685 26 c-3 -3 -12 -4 -19 -1 -8 3 -5 6 6 6 11 1 17
-2 13 -5z m-1047 -39 c0 -9 7 -18 15 -21 8 -4 15 -10 15 -15 0 -5 -7 -9 -15
-9 -8 0 -15 -9 -15 -19 0 -26 -19 -75 -26 -68 -9 9 7 147 17 147 5 0 9 -7 9
-15z m862 -19 c28 -18 105 -123 96 -131 -2 -3 -30 22 -61 55 -30 33 -59 60
-63 60 -4 0 -3 -5 4 -12 22 -22 12 -26 -23 -9 -19 9 -33 21 -30 28 2 7 0 15
-5 18 -6 4 -10 10 -10 15 0 12 62 -4 92 -24z m425 12 c-3 -8 -6 -5 -6 6 -1 11
2 17 5 13 3 -3 4 -12 1 -19z m656 -67 c32 -43 57 -86 57 -95 0 -10 5 -14 10
-11 6 3 10 0 11 -7 3 -60 31 -159 45 -165 8 -3 14 -11 14 -19 0 -8 3 -14 8
-14 8 0 32 -49 32 -67 0 -41 -71 27 -149 142 -30 44 -57 82 -60 85 -4 3 -22
25 -41 50 -19 25 -37 47 -40 50 -11 11 -40 72 -40 85 0 17 46 44 76 45 15 0
37 -23 77 -79z m-1203 -30 c25 -30 32 -33 40 -21 5 8 8 21 5 28 -6 18 -1 15
21 -10 19 -21 19 -21 -1 -14 -20 7 -20 7 0 -12 11 -10 28 -17 38 -14 9 2 17 0
17 -5 0 -5 13 -9 30 -8 68 4 135 -72 181 -204 31 -89 21 -91 -21 -6 l-39 80
-2 -50 -1 -50 -15 48 c-8 27 -20 47 -29 47 -8 0 -14 5 -14 10 0 6 -12 16 -27
22 -16 7 -38 21 -50 32 -27 23 -28 20 -8 -28 23 -55 10 -43 -25 23 -44 82 -56
83 -53 7 2 -53 1 -57 -8 -31 -5 17 -12 38 -14 49 -2 10 -11 23 -18 30 -8 6
-21 26 -28 44 -8 17 -17 32 -21 32 -5 0 -8 5 -8 11 0 6 -10 19 -22 30 l-23 19
33 -11 c18 -6 46 -27 62 -48z m-145 39 c3 -6 -1 -7 -9 -4 -18 7 -21 14 -7 14
6 0 13 -4 16 -10z m-1070 -30 c-4 -12 -9 -19 -12 -17 -3 3 -2 15 2 27 4 12 9
19 12 17 3 -3 2 -15 -2 -27z m1154 -63 c13 -59 14 -110 2 -102 -6 3 -13 26
-17 51 -3 25 -9 42 -12 39 -7 -7 -32 52 -32 77 0 18 1 18 24 1 15 -11 28 -36
35 -66z m-1258 32 c-6 -16 -10 -18 -10 -7 -1 22 12 55 16 42 2 -6 -1 -22 -6
-35z m839 26 c7 -9 8 -15 2 -15 -5 0 -12 7 -16 15 -3 8 -4 15 -2 15 2 0 9 -7
16 -15z m1500 -6 c0 -5 -4 -9 -10 -9 -5 0 -10 7 -10 16 0 8 5 12 10 9 6 -3 10
-10 10 -16z m-1237 -18 c19 -32 21 -41 9 -41 -8 0 -42 52 -42 64 0 15 17 3 33
-23z m917 8 c0 -11 -40 -48 -52 -49 -17 0 -7 28 15 43 27 19 37 21 37 6z
m-740 -30 c0 -6 -4 -7 -10 -4 -5 3 -10 11 -10 16 0 6 5 7 10 4 6 -3 10 -11 10
-16z m1023 6 c4 -8 2 -17 -3 -20 -6 -4 -10 3 -10 14 0 25 6 27 13 6z m72 -42
c29 -58 29 -61 -4 -23 -17 19 -31 40 -31 47 0 24 16 13 35 -24z m-84 -30 c43
-73 51 -93 39 -93 -6 0 -10 4 -10 10 0 5 -18 35 -40 66 -41 58 -47 74 -31 74
5 0 24 -26 42 -57z m-1157 -13 c-6 -6 -10 2 -11 23 -2 30 -1 31 9 9 7 -14 8
-26 2 -32z m864 14 c6 -32 22 -41 28 -16 10 36 32 25 44 -20 6 -24 23 -71 36
-106 14 -35 23 -69 21 -75 -3 -7 -8 -3 -12 8 -4 11 -20 48 -36 83 -16 34 -29
67 -29 72 0 6 -7 10 -15 10 -8 0 -15 -4 -15 -10 0 -5 4 -10 9 -10 6 0 9 -8 8
-17 0 -12 -10 -19 -29 -20 -30 -2 -38 14 -13 23 8 4 15 10 15 15 0 14 -22 11
-41 -7 -16 -14 -16 -18 1 -67 18 -52 36 -162 20 -122 -4 11 -19 47 -33 81 -29
70 -26 107 9 123 25 11 32 35 14 46 -14 9 -12 37 3 33 6 -3 14 -13 15 -24z
m372 -56 c0 -17 -16 -6 -37 25 -34 49 -28 67 7 21 16 -21 30 -42 30 -46z
m-1263 25 c-3 -10 -5 -2 -5 17 0 19 2 27 5 18 2 -10 2 -26 0 -35z m1096 13
c15 -4 27 -12 27 -19 0 -7 8 -22 18 -33 19 -22 29 -60 13 -49 -6 3 -11 12 -11
20 0 7 -3 15 -8 17 -4 2 -17 16 -30 32 -25 33 -29 19 -7 -24 26 -51 2 -33 -27
20 -29 52 -38 86 -15 58 6 -9 24 -18 40 -22z m-1473 0 c0 -2 -7 -9 -15 -16
-13 -11 -14 -10 -9 4 5 14 24 23 24 12z m1220 -25 c0 -10 -30 -24 -37 -17 -3
3 -2 9 2 15 8 13 35 15 35 2z m-834 -77 c-4 -14 -9 -24 -12 -21 -3 2 -2 17 2
31 3 15 9 25 11 22 3 -3 2 -17 -1 -32z m1279 26 c3 -6 -1 -7 -9 -4 -18 7 -21
14 -7 14 6 0 13 -4 16 -10z m-1149 -30 c8 0 14 -4 14 -10 0 -5 -4 -10 -8 -10
-14 0 -32 23 -31 40 1 11 2 11 6 -2 2 -10 11 -18 19 -18z m-242 -25 c4 -14 11
-25 16 -25 6 0 10 -11 10 -25 0 -35 12 -31 34 10 19 35 44 50 32 19 -5 -12 -2
-15 10 -10 16 6 94 -31 94 -45 0 -4 10 -9 22 -11 12 -2 30 -18 40 -37 19 -33
19 -34 -5 -70 -14 -21 -39 -51 -56 -68 -30 -30 -33 -31 -59 -17 -32 16 -76 18
-103 4 -23 -13 -49 -61 -49 -93 0 -13 -8 -31 -17 -39 -22 -19 -78 -34 -68 -18
7 12 -14 84 -22 76 -3 -3 -13 5 -23 17 -15 18 -21 20 -43 10 -14 -6 -35 -9
-48 -6 -18 5 -21 3 -16 -10 3 -9 1 -17 -4 -19 -12 -4 -1 -38 12 -38 8 0 13 17
12 47 0 6 6 9 13 6 8 -3 14 -8 14 -12 0 -13 49 -31 55 -21 10 16 28 11 22 -5
-4 -8 -2 -17 3 -20 6 -4 10 -11 10 -17 0 -6 -6 -6 -15 2 -25 21 -99 18 -124
-4 -18 -16 -21 -17 -16 -3 5 10 -4 28 -24 49 -61 65 -51 88 37 88 68 0 59 16
-13 25 -30 4 -55 11 -55 16 0 5 7 9 15 9 8 0 15 4 15 10 0 5 7 7 15 4 10 -4
18 3 24 20 6 14 19 34 29 44 11 11 25 28 32 38 10 17 11 16 5 -8 -3 -17 -1
-28 5 -28 6 0 4 -12 -5 -30 -9 -16 -12 -30 -7 -30 16 0 43 38 53 75 7 25 14
34 19 26 5 -9 9 -5 13 11 4 12 2 25 -3 26 -13 5 -13 29 1 34 5 2 11 12 13 23
2 11 9 20 17 20 8 0 19 4 26 8 6 4 13 1 16 -5 3 -9 7 -7 12 5 10 24 22 21 29
-8z m1031 -32 c9 -32 19 -66 22 -77 11 -40 -16 -4 -32 42 -9 26 -21 54 -25 63
-9 17 -4 29 11 29 4 0 15 -26 24 -57z m-735 25 c0 -13 -23 -5 -28 10 -2 7 2
10 12 6 9 -3 16 -11 16 -16z m60 -25 c0 -13 -3 -13 -15 -3 -8 7 -12 16 -9 21
8 13 24 1 24 -18z m290 -100 c0 -73 -14 -86 -17 -15 -2 26 -5 63 -8 82 -5 33
-5 34 10 16 10 -13 15 -42 15 -83z m-183 -38 c14 -32 0 -32 -21 0 -19 29 -20
36 -3 30 6 -3 17 -17 24 -30z m153 -82 c0 -43 -4 -62 -9 -53 -7 13 -8 39 -2
108 1 6 3 12 6 12 3 0 5 -30 5 -67z m-465 -58 c35 -34 35 -96 -1 -132 -51 -51
-144 -6 -144 69 0 52 35 88 85 88 25 0 44 -8 60 -25z m-646 -5 c20 0 91 -72
91 -92 -1 -8 -5 -7 -15 6 -13 18 -35 15 -35 -5 0 -6 3 -8 8 -6 4 3 12 -1 19
-8 10 -11 10 -14 0 -18 -13 -4 -37 16 -37 32 0 6 -4 11 -9 11 -4 0 -11 -30
-15 -67 -4 -38 -14 -116 -22 -176 l-16 -107 24 -20 c12 -11 31 -19 40 -20 9 0
18 -5 20 -10 2 -6 21 -17 43 -25 l40 -15 -68 6 c-47 4 -72 3 -82 -6 -12 -10
-15 -10 -16 1 0 8 -6 -4 -13 -26 -7 -22 -11 -46 -8 -52 2 -8 -4 -13 -16 -13
-25 0 -31 15 -21 59 4 18 5 39 2 47 -3 7 0 37 7 66 12 54 51 392 51 438 0 14
3 19 6 13 2 -7 12 -13 22 -13z m176 -100 c10 -16 -12 -12 -29 6 -9 8 -16 18
-16 20 0 7 38 -15 45 -26z m198 -40 c33 -37 34 -69 2 -104 -64 -69 -174 7
-139 98 8 20 34 21 34 2 0 -8 7 -16 15 -20 19 -7 19 4 0 30 -8 12 -11 25 -7
28 14 15 68 -5 95 -34z m-160 -5 c-3 -9 -8 -14 -10 -11 -3 3 -2 9 2 15 9 16
15 13 8 -4z m-218 -435 c3 -5 -1 -10 -9 -10 -9 0 -16 5 -16 10 0 6 4 10 9 10
6 0 13 -4 16 -10z m375 -70 c0 -5 -7 -10 -16 -10 -8 0 -12 5 -9 10 3 6 10 10
16 10 5 0 9 -4 9 -10z m54 -61 c-3 -5 -10 -7 -15 -3 -5 3 -7 10 -3 15 3 5 10
7 15 3 5 -3 7 -10 3 -15z"/>
<path d="M2658 4693 c-16 -4 -18 -19 -18 -134 l0 -130 43 4 c51 5 52 11 42
165 -7 110 -8 111 -67 95z"/>
<path d="M2971 4424 c-35 -29 -33 -49 3 -33 24 11 53 59 37 59 -5 0 -23 -12
-40 -26z"/>
<path d="M2676 4387 c22 -30 32 -33 41 -12 7 20 5 22 -31 31 l-29 7 19 -26z"/>
<path d="M2980 4367 c-14 -6 -27 -14 -30 -18 -3 -4 -3 -62 0 -128 5 -124 13
-147 47 -134 25 10 33 51 33 162 0 120 -7 136 -50 118z"/>
<path d="M3596 4453 c-3 -10 -6 -38 -8 -63 l-3 -45 38 -3 c36 -3 37 -2 32 21
-23 90 -48 128 -59 90z"/>
<path d="M2420 3679 c0 -5 5 -7 10 -4 6 3 10 8 10 11 0 2 -4 4 -10 4 -5 0 -10
-5 -10 -11z"/>
<path d="M2554 3665 c-4 -14 -5 -28 -2 -30 7 -8 25 10 32 33 6 16 3 22 -8 22
-9 0 -18 -11 -22 -25z"/>
<path d="M1768 3489 c-24 -14 -41 -80 -28 -113 7 -20 16 -26 39 -26 16 0 36 7
45 15 16 17 32 96 22 120 -6 17 -52 20 -78 4z"/>
<path d="M2025 3399 c-4 -11 -4 -23 -1 -26 8 -9 36 17 36 33 0 22 -28 16 -35
-7z"/>
<path d="M2140 3409 c0 -5 5 -7 10 -4 6 3 10 8 10 11 0 2 -4 4 -10 4 -5 0 -10
-5 -10 -11z"/>
<path d="M2551 3398 c-6 -17 -9 -33 -6 -36 9 -9 35 20 35 39 0 31 -18 30 -29
-3z"/>
<path d="M2450 3411 c0 -5 -3 -16 -6 -25 -4 -10 -1 -16 9 -16 14 0 27 20 27
41 0 5 -7 9 -15 9 -8 0 -15 -4 -15 -9z"/>
<path d="M2967 3423 c-4 -3 -7 -11 -7 -17 0 -6 5 -5 12 2 6 6 9 14 7 17 -3 3
-9 2 -12 -2z"/>
<path d="M2168 2993 c7 -3 16 -2 19 1 4 3 -2 6 -13 5 -11 0 -14 -3 -6 -6z"/>
<path d="M2250 2991 c0 -5 7 -14 15 -21 16 -14 18 -10 9 14 -6 17 -24 22 -24
7z"/>
<path d="M2220 2966 c0 -2 7 -7 16 -10 8 -3 12 -2 9 4 -6 10 -25 14 -25 6z"/>
<path d="M2490 2455 c-16 -19 0 -19 26 0 16 12 16 14 3 15 -9 0 -22 -7 -29
-15z"/>
<path d="M2456 2402 c-19 -38 -14 -54 10 -30 9 8 14 26 12 39 -3 23 -4 22 -22
-9z"/>
<path d="M2555 2371 c-6 -10 32 -41 51 -41 7 0 14 7 18 15 9 24 -55 48 -69 26z"/>
<path d="M2516 2358 c5 -7 2 -9 -9 -5 -21 8 -28 -15 -11 -38 9 -12 14 -14 14
-5 0 7 7 21 15 30 14 16 14 18 0 24 -11 4 -14 2 -9 -6z"/>
<path d="M1960 2181 c0 -14 6 -19 20 -18 24 2 24 4 6 23 -20 19 -26 18 -26 -5z"/>
<path d="M2260 2105 c0 -18 19 -40 26 -32 4 4 0 15 -9 24 -9 10 -17 13 -17 8z"/>
<path d="M2248 2043 c7 -3 16 -2 19 1 4 3 -2 6 -13 5 -11 0 -14 -3 -6 -6z"/>
<path d="M1258 3293 c7 -3 16 -2 19 1 4 3 -2 6 -13 5 -11 0 -14 -3 -6 -6z"/>
<path d="M1176 3275 c-3 -9 0 -15 9 -15 8 0 15 7 15 15 0 8 -4 15 -9 15 -5 0
-11 -7 -15 -15z"/>
<path d="M831 3078 l-2 -183 23 26 c13 15 30 29 38 32 9 3 10 6 3 6 -15 1 -18
31 -3 31 6 0 10 10 10 21 0 18 2 19 15 9 8 -7 15 -21 15 -31 0 -11 4 -19 9
-19 4 0 11 -19 14 -42 3 -22 14 -53 25 -67 10 -14 25 -44 32 -66 7 -22 15 -35
17 -29 2 5 -10 42 -26 81 -16 39 -27 74 -23 77 3 3 0 6 -7 6 -7 0 -10 4 -7 9
3 4 -6 31 -19 60 -14 28 -25 54 -25 57 0 16 -74 204 -79 204 -4 0 -8 -82 -10
-182z m39 60 c0 -5 -4 -8 -10 -8 -5 0 -10 10 -10 23 0 18 2 19 10 7 5 -8 10
-18 10 -22z"/>
<path d="M1280 3250 c0 -5 12 -10 28 -10 21 0 24 2 12 10 -20 13 -40 13 -40 0z"/>
<path d="M904 2835 c-21 -24 -41 -42 -46 -39 -4 3 -9 -5 -9 -18 -1 -19 -3 -18
-9 7 -5 20 -8 -2 -9 -69 -1 -83 1 -97 13 -87 8 7 17 27 20 46 4 19 11 35 15
35 10 0 61 97 61 116 0 8 6 14 14 14 9 0 12 7 9 20 -8 29 -18 25 -59 -25z"/>
<path d="M1120 2852 c0 -15 -32 -52 -40 -47 -8 5 -7 -42 2 -51 4 -4 10 2 14
12 3 10 13 33 22 51 9 18 13 35 9 39 -4 4 -7 2 -7 -4z"/>
<path d="M1155 2775 c-5 -11 -12 -22 -16 -25 -13 -9 -22 -60 -10 -60 19 0 43
48 39 77 -4 25 -5 26 -13 8z"/>
<path d="M1190 2727 c-7 -18 -15 -35 -18 -40 -6 -12 79 -47 116 -47 25 0 32 4
32 20 0 11 -3 20 -8 20 -4 0 -18 10 -32 23 -14 12 -37 30 -51 39 -25 16 -26
16 -39 -15z"/>
<path d="M1011 2715 c-7 -19 -16 -35 -19 -35 -4 0 -16 -15 -27 -32 -10 -18
-38 -60 -62 -92 -50 -68 -49 -72 30 -100 66 -25 78 -55 41 -107 -14 -21 -23
-42 -20 -48 8 -12 -59 -154 -80 -172 -8 -6 -14 -17 -14 -24 0 -7 -7 -26 -15
-41 -11 -21 -15 -58 -14 -129 l1 -100 12 66 c7 37 20 74 29 83 41 41 87 107
127 181 90 167 100 187 94 197 -3 5 4 19 16 30 19 17 21 28 17 66 -3 24 -10
48 -17 52 -7 4 -8 9 -2 11 11 5 -58 221 -73 226 -6 2 -17 -13 -24 -32z m38
-56 c7 -16 11 -33 7 -36 -3 -3 -10 7 -16 23 -6 16 -17 32 -23 36 -8 5 -8 8 3
8 8 0 21 -14 29 -31z"/>
<path d="M831 2346 l-1 -89 23 34 c19 28 29 34 55 31 38 -3 44 21 10 39 -13 7
-30 20 -39 31 -9 10 -21 18 -27 18 -6 0 -13 6 -15 13 -3 6 -6 -28 -6 -77z"/>
<path d="M1181 2187 c-18 -34 -57 -107 -85 -162 -46 -87 -83 -153 -129 -230
-7 -11 -21 -33 -33 -50 -11 -16 -27 -41 -34 -54 -11 -21 -10 -23 4 -18 10 4
15 3 12 -2 -9 -14 36 -38 97 -50 79 -17 102 -38 100 -91 -1 -24 -7 -48 -13
-54 -16 -16 -12 -44 9 -51 29 -9 30 -34 4 -93 -13 -29 -23 -59 -23 -67 0 -18
17 -20 23 -2 2 6 4 -1 4 -17 0 -19 -2 -24 -8 -15 -7 11 -9 10 -9 -3 0 -10 -6
-18 -14 -18 -8 0 -17 -7 -20 -16 -10 -25 -7 -29 8 -9 8 11 19 16 30 12 9 -4
16 -2 16 3 0 6 7 10 15 10 9 0 18 12 22 30 3 17 10 30 15 30 6 0 7 13 3 32 -6
26 -5 30 9 25 13 -5 15 -1 11 21 -3 15 -3 22 0 16 3 -6 22 -10 43 -8 20 2 47
-4 59 -12 28 -18 33 -18 33 1 0 18 27 20 33 3 2 -7 6 -1 9 14 3 17 1 25 -5 21
-5 -3 -7 0 -5 8 10 28 -24 87 -86 150 -58 59 -64 70 -70 119 -4 30 -6 64 -6
75 3 34 1 49 -5 76 -5 19 0 33 19 56 14 17 26 39 26 49 0 11 14 46 30 78 l29
59 -35 91 c-19 50 -38 94 -42 98 -4 4 -22 -21 -41 -55z m104 -777 c3 -5 1 -10
-4 -10 -6 0 -11 5 -11 10 0 6 2 10 4 10 3 0 8 -4 11 -10z"/>
<path d="M3800 2194 c-25 -13 -65 -25 -90 -29 -97 -12 -143 -27 -167 -56 -13
-15 -29 -26 -36 -23 -7 2 -35 -18 -62 -46 l-49 -49 35 -15 c34 -14 66 -19 104
-17 17 1 17 3 5 11 -8 5 -23 7 -32 4 -13 -4 -18 3 -23 30 -4 19 -3 42 2 51 9
15 11 15 24 -1 9 -11 9 -15 2 -10 -9 5 -13 0 -13 -13 0 -12 5 -21 10 -21 6 0
10 5 10 11 0 6 9 8 21 4 12 -4 37 -9 55 -10 55 -5 72 -14 67 -34 -4 -14 6 -20
54 -30 69 -16 101 -31 211 -99 85 -54 101 -59 55 -16 -15 14 -28 31 -29 38 -1
8 -5 24 -9 37 -6 21 -4 20 14 -6 29 -42 26 -8 -4 40 -19 31 -31 40 -52 40 -21
0 -28 5 -27 18 2 13 -3 16 -18 11 -17 -5 -19 -3 -13 15 10 32 -2 41 -35 24
-16 -8 -40 -13 -52 -11 -19 3 -16 9 31 60 29 31 53 66 54 78 1 11 5 20 9 20 4
0 8 5 8 10 0 13 -7 11 -60 -16z m-73 -230 c-3 -3 -12 -4 -19 -1 -8 3 -5 6 6 6
11 1 17 -2 13 -5z"/>
<path d="M3220 2100 c0 -5 5 -10 11 -10 5 0 7 5 4 10 -3 6 -8 10 -11 10 -2 0
-4 -4 -4 -10z"/>
<path d="M2970 2063 c-62 -36 -209 -195 -259 -281 -66 -113 -65 -119 11 -82
23 11 47 20 54 20 6 0 62 26 124 58 196 100 195 99 197 127 1 17 -3 25 -14 25
-13 0 -13 3 -3 15 7 8 19 15 26 15 8 0 14 3 14 6 0 9 -74 78 -82 76 -4 -1 -5
5 -2 13 5 11 2 13 -10 9 -12 -5 -15 -2 -10 10 8 21 7 20 -46 -11z"/>
<path d="M1340 2043 c0 -5 5 -14 10 -19 6 -6 13 -34 17 -62 3 -29 10 -52 14
-52 13 0 11 31 -7 83 -14 43 -34 71 -34 50z"/>
<path d="M2453 1950 c-13 -5 -23 -14 -23 -20 0 -5 -7 -10 -15 -10 -8 0 -15 -3
-15 -8 0 -4 18 -6 40 -4 22 2 40 9 40 14 0 6 8 17 18 24 16 13 16 13 -3 13
-11 0 -30 -4 -42 -9z"/>
<path d="M2546 1841 c-15 -6 -16 -10 -7 -15 8 -5 20 -2 29 8 17 17 9 19 -22 7z"/>
<path d="M2995 1782 c-33 -16 -91 -39 -130 -52 -94 -31 -188 -75 -255 -118
-74 -49 -92 -60 -115 -71 -22 -10 -103 -91 -92 -91 17 0 -17 -38 -218 -243
-116 -118 -219 -224 -230 -236 l-19 -22 27 6 c40 10 33 -1 -14 -26 -23 -11
-63 -40 -88 -63 -53 -49 -110 -90 -116 -84 -3 2 16 25 40 51 25 26 69 79 100
117 30 38 59 71 64 75 6 3 20 19 31 35 16 23 18 28 6 24 -11 -4 -15 -2 -11 7
3 8 -25 45 -63 85 l-67 71 -80 -14 c-126 -22 -251 -70 -332 -126 -37 -25 -41
-37 -14 -37 27 0 85 -26 102 -46 12 -15 17 -56 19 -166 0 -20 5 -28 18 -28 10
0 27 -6 37 -14 18 -13 18 -16 3 -54 -9 -23 -13 -43 -10 -46 9 -10 1 -227 -9
-250 -6 -12 -24 -31 -40 -41 -34 -22 -55 -63 -41 -77 14 -14 266 -98 346 -115
39 -8 91 -17 116 -19 66 -7 90 -13 90 -24 0 -6 -11 -10 -25 -10 -14 0 -25 -4
-25 -9 0 -4 -33 -11 -72 -15 -40 -4 -77 -11 -82 -16 -6 -6 -30 -10 -54 -10
-24 0 -41 -4 -38 -9 14 -22 -60 -52 -75 -29 -3 5 -18 -1 -32 -12 -15 -12 -43
-24 -63 -27 -24 -4 -31 -9 -22 -14 9 -6 1 -9 -22 -10 -52 -3 -55 -4 -55 -14 0
-14 995 -18 1012 -4 7 6 17 8 23 4 6 -4 20 1 30 10 10 9 25 15 32 12 8 -4 7
-6 -4 -6 -10 -1 -18 -5 -18 -11 0 -15 152 -12 173 4 15 11 8 13 -50 11 l-68
-3 55 8 c30 4 69 13 87 20 26 12 40 11 90 -1 l58 -14 -40 -5 -40 -5 49 -18
c44 -15 100 -17 527 -17 457 0 479 1 488 19 9 16 6 19 -27 25 -101 17 -130 24
-167 44 -22 12 -52 27 -67 34 -38 17 -35 30 5 23 17 -4 43 -8 57 -10 14 -2 39
-6 55 -9 17 -3 22 -3 13 0 -10 3 -18 10 -18 15 0 5 -11 9 -25 9 -30 0 -33 20
-5 27 22 6 29 56 9 69 -9 5 -10 -1 -5 -20 3 -14 2 -26 -3 -26 -5 0 -12 8 -14
18 -3 11 -4 10 -2 -4 1 -11 -4 -25 -11 -32 -16 -15 -44 -16 -44 -2 0 6 9 10
19 10 17 0 19 4 10 32 -5 18 -9 49 -9 70 0 33 -3 37 -31 43 -17 4 -28 9 -25
12 3 4 -2 12 -12 19 -9 7 -13 16 -8 21 5 4 11 2 13 -4 5 -15 33 -17 33 -3 0 6
-5 10 -10 10 -6 0 -20 9 -31 19 -22 20 -18 41 7 41 11 0 13 6 9 20 -4 13 -2
20 6 20 7 0 -8 13 -34 30 -26 16 -50 37 -53 45 -4 8 -14 15 -23 15 -9 0 -21 8
-28 18 -7 12 -24 19 -43 20 -18 0 -38 9 -46 19 -7 10 -14 14 -14 8 0 -5 -5 -3
-10 5 -9 13 -11 13 -20 0 -9 -14 -14 -7 -11 13 1 5 -3 6 -8 3 -13 -8 -34 21
-27 39 3 8 1 15 -4 15 -6 0 -10 -10 -10 -22 -1 -22 -1 -22 -12 -3 -6 11 -17
25 -25 32 -12 9 -3 14 44 23 32 6 73 18 91 26 17 8 55 18 82 21 28 3 50 10 50
14 0 5 -4 10 -10 10 -14 2 -22 5 -44 14 -18 8 -18 9 0 22 32 23 1 36 -103 43
-64 4 -91 9 -78 14 11 4 36 14 55 21 l35 14 -34 0 c-53 1 -24 22 51 37 42 8
53 12 32 13 -17 1 -38 8 -45 18 -8 9 -27 22 -44 29 l-30 13 25 9 25 10 -30 12
-30 12 34 14 c18 8 42 14 53 14 14 0 18 5 14 15 -3 10 1 15 11 15 14 0 14 2
-2 20 -17 19 -17 21 0 40 10 11 24 20 30 20 7 0 15 7 19 15 4 11 -1 15 -19 15
-14 0 -25 5 -25 10 0 6 10 10 23 10 21 1 21 1 3 12 -20 11 -196 16 -260 6 -22
-3 -55 -1 -75 5 -33 9 -34 11 -13 16 33 9 28 25 -10 32 -31 6 -31 6 -5 8 16 0
27 7 27 15 0 8 8 16 18 19 10 2 -3 10 -32 19 l-49 15 24 16 c13 9 33 17 44 18
11 0 29 5 40 10 18 9 18 9 -3 5 -26 -5 -52 2 -52 14 0 4 14 10 31 14 26 5 30
10 26 27 -5 17 -2 20 14 16 10 -3 17 -1 13 4 -3 5 0 9 7 9 7 0 9 8 6 21 -5 17
-2 20 14 16 15 -4 17 -2 9 13 -7 14 -5 19 10 23 12 3 20 14 20 26 0 18 -6 21
-44 21 -25 0 -48 5 -51 10 -4 6 6 10 22 10 21 0 24 3 14 9 -12 8 -12 12 -2 24
20 25 -6 30 -29 7 -12 -12 -25 -19 -28 -15 -4 3 -1 10 7 14 18 12 10 45 -14
53 -35 11 -49 9 -110 -20z m-1160 -796 c-27 -12 -56 -30 -64 -40 -9 -11 -21
-14 -35 -10 -19 6 -20 5 -6 -11 12 -15 12 -17 1 -10 -8 4 -32 13 -55 20 l-40
12 79 26 c127 41 196 49 120 13z m538 -294 c23 -20 22 -65 -3 -87 -19 -17 -19
-19 -2 -47 9 -17 33 -43 52 -59 19 -16 29 -29 22 -29 -24 0 -69 29 -101 65
-40 46 -66 44 -66 -5 0 -28 4 -35 25 -40 20 -5 14 -8 -25 -12 -49 -4 -73 0
-47 9 8 3 12 33 12 100 0 90 -1 95 -20 90 -30 -8 -24 6 11 23 37 18 117 14
142 -8z m-533 -1 c-11 -22 -14 -91 -3 -91 4 0 26 19 50 42 38 38 41 43 25 54
-15 12 -9 13 41 14 31 0 57 -2 57 -5 0 -3 -15 -11 -32 -19 -47 -20 -95 -64
-83 -73 6 -5 27 -29 48 -54 20 -25 48 -51 62 -59 28 -15 33 -30 10 -30 -30 0
-72 29 -106 74 -39 52 -55 56 -71 20 -14 -30 -4 -53 32 -70 20 -11 17 -12 -30
-15 -50 -4 -71 3 -50 16 6 3 10 46 10 97 0 81 -2 90 -20 95 -36 10 -21 23 25
23 42 0 45 -2 35 -19z m1092 -85 c-3 -94 -1 -105 15 -109 17 -4 17 -4 1 -12
-40 -17 -48 -1 -48 99 0 53 -4 98 -10 101 -16 10 -1 25 23 25 21 0 22 -3 19
-104z m94 59 c-22 -17 -36 -19 -36 -7 0 14 12 22 34 22 21 -1 21 -1 2 -15z
m367 -82 c-3 -8 -11 -12 -19 -9 -8 3 -14 -4 -16 -17 -2 -13 -16 -28 -35 -37
-41 -19 -41 -26 1 -40 19 -6 39 -16 44 -23 28 -35 -45 -89 -96 -71 -30 11 -39
36 -24 68 20 42 22 57 7 62 -20 8 -19 47 3 67 16 15 89 26 124 19 10 -3 14
-10 11 -19z m-788 -3 c23 -26 12 -64 -27 -93 -29 -22 -65 -18 -92 9 -23 23
-20 42 13 75 35 35 79 38 106 9z m75 -11 c0 -20 4 -28 12 -23 8 5 9 0 6 -14
-7 -26 10 -29 28 -4 19 25 17 40 -8 48 l-23 7 25 9 c32 12 50 3 50 -24 0 -38
12 -68 26 -68 21 0 36 38 29 72 -6 23 -4 29 6 26 25 -8 22 -57 -6 -94 -30 -39
-47 -42 -75 -14 -19 19 -20 19 -31 -1 -10 -20 -21 -21 -62 -4 -13 6 -16 3 -11
-9 3 -9 1 -16 -5 -16 -5 0 -23 -12 -39 -27 -31 -30 -79 -59 -87 -52 -6 7 106
125 116 122 11 -3 22 54 13 68 -6 10 11 28 29 29 4 0 7 -14 7 -31z m350 -19
c0 -27 5 -50 10 -50 6 0 10 -4 10 -10 0 -5 -11 -10 -25 -10 -23 0 -25 4 -25
44 0 25 -5 48 -11 52 -8 4 -7 9 2 15 30 19 39 9 39 -41z m82 39 c2 -7 12 -7
31 2 24 11 30 10 45 -5 24 -24 24 -106 1 -106 -14 0 -16 7 -12 39 5 33 2 41
-16 51 -17 9 -26 9 -37 -1 -17 -14 -19 -60 -2 -77 9 -9 6 -12 -14 -12 -24 0
-26 4 -30 53 -3 28 -3 55 -1 60 6 11 31 8 35 -4z m-1432 -89 c0 -12 -50 -33
-58 -26 -3 3 1 12 8 21 14 17 50 20 50 5z m440 -4 c0 -7 -11 -16 -25 -18 -28
-6 -27 -6 -19 16 8 20 44 21 44 2z m340 -170 c0 -3 -4 -8 -10 -11 -5 -3 -10
-1 -10 4 0 6 5 11 10 11 6 0 10 -2 10 -4z m-273 -92 c-3 -3 -12 -4 -19 -1 -8
3 -5 6 6 6 11 1 17 -2 13 -5z m172 2 c-2 -2 -17 -6 -34 -10 -22 -5 -26 -4 -15
4 14 9 59 15 49 6z m1454 -203 c-7 -2 -19 -2 -25 0 -7 3 -2 5 12 5 14 0 19 -2
13 -5z"/>
<path d="M2275 681 c-3 -6 -4 -28 -3 -50 3 -45 18 -52 56 -25 28 19 28 49 0
68 -26 18 -44 20 -53 7z"/>
<path d="M3282 578 c-16 -16 -15 -33 4 -48 12 -11 18 -10 32 3 15 16 15 18 -4
37 -15 16 -22 18 -32 8z"/>
<path d="M3269 448 c-13 -25 4 -48 38 -48 45 0 39 51 -7 63 -14 3 -24 -1 -31
-15z"/>
<path d="M2510 565 c-20 -24 6 -67 38 -63 37 5 50 32 28 57 -23 25 -49 27 -66
6z"/>
<path d="M843 1588 c-4 -7 -8 -70 -9 -139 -1 -100 2 -126 12 -126 8 0 14 11
14 24 0 13 -5 23 -10 23 -10 0 -7 46 6 110 5 22 7 23 15 7 6 -9 18 -17 27 -17
15 0 15 2 2 10 -13 8 -12 10 3 10 9 0 17 -5 17 -11 0 -6 7 -9 15 -5 8 3 36 -1
62 -9 68 -21 84 -18 39 6 -76 40 -114 68 -136 98 -23 33 -43 39 -57 19z"/>
<path d="M2240 1505 c0 -11 11 -15 40 -15 22 0 40 -4 40 -10 0 -5 4 -10 10
-10 6 0 5 10 -2 25 -9 20 -18 25 -50 25 -27 0 -38 -4 -38 -15z"/>
<path d="M3128 1443 c7 -3 16 -2 19 1 4 3 -2 6 -13 5 -11 0 -14 -3 -6 -6z"/>
<path d="M1406 1322 c-2 -4 -1 -14 5 -22 7 -12 9 -10 9 8 0 23 -5 28 -14 14z"/>
<path d="M851 1294 c0 -11 3 -14 6 -6 3 7 2 16 -1 19 -3 4 -6 -2 -5 -13z"/>
<path d="M1910 1210 c0 -5 6 -13 13 -17 6 -4 28 -27 49 -49 26 -31 39 -39 47
-31 18 18 13 31 -6 16 -14 -12 -16 -12 -11 1 2 8 15 16 27 16 12 1 24 4 27 7
11 11 -7 27 -31 27 -13 0 -30 7 -39 15 -8 8 -21 12 -29 9 -8 -3 -18 -1 -22 5
-8 14 -25 14 -25 1z m80 -46 c0 -9 -5 -14 -12 -12 -18 6 -21 28 -4 28 9 0 16
-7 16 -16z"/>
<path d="M1236 949 c-27 -27 -28 -30 -12 -47 22 -25 20 -79 -5 -110 l-20 -27
20 -9 c12 -5 21 -14 21 -20 0 -16 -24 -91 -54 -170 -14 -37 -26 -72 -26 -76 0
-7 77 -40 93 -40 4 0 7 9 7 20 0 11 5 20 10 20 6 0 10 6 8 13 -4 21 24 92 43
105 9 6 20 26 24 42 4 17 10 30 15 30 5 0 4 15 -1 33 -6 17 -12 43 -15 57 -3
13 -10 30 -15 36 -8 9 9 14 68 19 43 3 87 7 98 8 47 5 18 66 -32 67 -12 0 -58
18 -102 40 -43 22 -83 39 -88 39 -4 -1 -21 -15 -37 -30z"/>
<path d="M1185 930 c3 -5 8 -10 11 -10 2 0 4 5 4 10 0 6 -5 10 -11 10 -5 0 -7
-4 -4 -10z"/>
<path d="M1008 833 c7 -3 16 -2 19 1 4 3 -2 6 -13 5 -11 0 -14 -3 -6 -6z"/>
<path d="M3600 830 c0 -6 7 -10 15 -10 8 0 15 2 15 4 0 2 -7 6 -15 10 -8 3
-15 1 -15 -4z"/>
<path d="M3648 833 c7 -3 16 -2 19 1 4 3 -2 6 -13 5 -11 0 -14 -3 -6 -6z"/>
<path d="M1043 819 c-5 -5 -40 -11 -76 -12 l-66 -2 -22 -58 c-12 -31 -26 -60
-30 -63 -11 -6 -12 -75 -1 -72 4 1 32 -7 62 -19 86 -32 110 -36 110 -18 0 8
-5 15 -11 15 -5 0 1 10 14 23 35 32 50 72 32 87 -11 9 -12 16 -2 31 9 15 8 21
-8 35 -20 15 -20 15 -1 9 47 -15 133 -16 145 -2 9 12 4 15 -28 21 -21 3 -44
13 -51 21 -14 17 -51 20 -67 4z"/>
<path d="M3508 603 c7 -3 16 -2 19 1 4 3 -2 6 -13 5 -11 0 -14 -3 -6 -6z"/>
<path d="M1527 508 c-10 -39 -16 -73 -14 -75 7 -6 38 66 44 101 10 65 -14 44
-30 -26z"/>
<path d="M3697 293 c-4 -3 -7 -14 -7 -24 0 -12 6 -16 20 -12 22 6 22 6 14 27
-7 17 -16 20 -27 9z"/>
<path d="M3751 244 c0 -11 3 -14 6 -6 3 7 2 16 -1 19 -3 4 -6 -2 -5 -13z"/>
<path d="M3792 224 c-7 -8 -8 -14 -3 -14 10 0 25 19 20 25 -2 1 -10 -3 -17
-11z"/>
<path d="M843 60 c0 -36 2 -50 4 -32 2 17 2 47 0 65 -2 17 -4 3 -4 -33z"/>
<path d="M862 20 c0 -14 2 -19 5 -12 2 6 2 18 0 25 -3 6 -5 1 -5 -13z"/>
<path d="M957 29 c-9 -5 -21 -8 -26 -4 -5 3 -12 1 -16 -5 -4 -6 6 -11 22 -12
79 -5 103 -2 103 10 0 6 -6 12 -12 12 -7 0 -22 2 -33 5 -11 3 -28 0 -38 -6z"/>
<path d="M2770 36 c0 -2 7 -6 15 -10 8 -3 15 -1 15 4 0 6 -7 10 -15 10 -8 0
-15 -2 -15 -4z"/>
<path d="M3920 20 c0 -5 7 -10 15 -10 8 0 15 5 15 10 0 6 -7 10 -15 10 -8 0
-15 -4 -15 -10z"/>
</g>
</svg>
