<?xml version="1.0" standalone="no"?>
<!DOCTYPE svg PUBLIC "-//W3C//DTD SVG 20010904//EN"
 "http://www.w3.org/TR/2001/REC-SVG-20010904/DTD/svg10.dtd">
<svg version="1.0" xmlns="http://www.w3.org/2000/svg"
 width="206.000000pt" height="244.000000pt" viewBox="0 0 206.000000 244.000000"
 preserveAspectRatio="xMidYMid meet">

<g transform="translate(0.000000,244.000000) scale(0.100000,-0.100000)"
fill="#000000" stroke="none">
<path d="M1 2192 l2 -247 18 59 c15 46 16 62 7 73 -9 11 -8 13 2 11 7 -2 17 8
21 22 7 24 7 24 8 -6 1 -17 -5 -50 -13 -72 -8 -22 -12 -43 -9 -46 4 -3 1 -6
-5 -6 -7 0 -12 -7 -12 -15 0 -8 6 -15 13 -15 8 0 8 -3 2 -8 -20 -14 -7 -47 18
-47 8 0 11 -23 10 -67 0 -43 3 -68 10 -68 7 0 1 -7 -11 -16 -12 -8 -19 -20
-16 -26 4 -6 -1 -6 -14 1 -11 6 -23 11 -26 11 -13 0 -6 -148 7 -153 10 -4 10
-6 0 -6 -18 -1 -18 -257 0 -264 10 -4 10 -6 0 -6 -7 -1 -13 -8 -13 -16 0 -8 6
-15 13 -15 9 0 9 -2 0 -8 -15 -10 -15 -361 1 -381 8 -11 8 -13 -1 -7 -10 6
-13 -23 -13 -129 0 -106 3 -135 12 -129 10 6 10 4 0 -7 -7 -8 -12 -43 -12 -95
0 -81 0 -82 28 -87 15 -2 42 -4 60 -2 l32 2 -1 -96 c-1 -53 -3 -89 -5 -81 -3
11 -16 15 -45 13 -23 -1 -37 2 -34 8 4 5 2 9 -3 9 -5 0 -9 26 -8 58 1 31 0 63
-2 70 -13 40 -19 -11 -21 -198 l-2 -210 130 0 c98 0 131 3 131 13 0 8 4 7 10
-3 8 -12 10 -10 10 8 0 13 -4 20 -10 17 -6 -3 -10 -2 -10 3 0 6 7 13 16 16 8
3 12 10 9 16 -12 19 12 10 31 -12 14 -17 15 -20 2 -9 -18 13 -42 6 -32 -10 3
-5 10 -7 15 -4 5 4 9 1 9 -5 0 -7 7 -10 15 -7 8 4 17 1 21 -5 4 -7 3 -8 -4 -4
-7 4 -12 3 -12 -2 0 -13 260 -10 279 2 10 6 12 5 7 -2 -4 -7 -1 -12 9 -12 9 0
14 4 10 9 -3 5 -1 12 5 16 5 3 10 -1 10 -9 0 -9 7 -16 16 -16 12 0 15 7 11 28
l-6 27 12 -27 c12 -30 35 -36 56 -15 11 10 13 9 7 -1 -4 -7 -1 -12 8 -12 8 0
17 6 19 13 4 9 6 9 6 0 1 -7 10 -13 22 -13 11 0 18 4 15 9 -3 5 1 11 9 14 9 4
12 1 9 -7 -3 -7 2 -13 10 -13 8 0 13 4 10 9 -3 4 0 8 5 8 6 0 11 -4 11 -10 0
-6 35 -10 86 -10 47 0 83 4 80 8 -2 4 -1 14 5 22 7 12 9 10 9 -7 0 -36 28 -28
33 10 l4 32 1 -32 c2 -26 6 -33 23 -33 11 0 17 5 14 10 -3 6 -1 10 4 10 6 0
11 -4 11 -10 0 -5 7 -10 15 -10 10 0 15 11 16 33 l1 32 9 -34 c10 -32 11 -33
30 -15 17 15 23 13 20 -8 0 -4 29 -7 64 -7 37 0 65 5 65 10 0 6 -4 7 -10 4 -5
-3 -10 -1 -10 6 0 8 -4 9 -13 0 -10 -8 -14 -7 -14 4 0 8 4 12 9 9 7 -5 12 18
9 39 0 4 4 7 10 7 5 0 7 5 3 12 -5 7 -3 8 6 3 10 -6 12 -4 6 11 -6 15 -5 16 5
7 9 -9 9 -16 2 -25 -17 -21 -27 -62 -13 -53 7 4 14 -1 17 -14 5 -19 12 -22 59
-20 30 1 54 7 54 12 0 5 -7 7 -15 3 -18 -6 -20 5 -4 21 6 6 18 9 26 6 8 -3 13
0 11 7 -2 7 3 15 10 17 6 3 12 -2 12 -10 0 -8 -7 -17 -15 -21 -8 -3 -15 -12
-15 -21 0 -11 11 -15 40 -15 25 0 40 5 40 13 0 8 3 8 9 -2 8 -12 14 -13 36 -3
15 7 24 8 20 2 -11 -18 106 -12 127 7 15 14 21 14 31 3 10 -10 9 -12 -5 -7
-10 3 -20 2 -23 -3 -4 -6 51 -10 145 -10 l150 0 0 226 c-1 219 -2 226 -21 221
-10 -3 -17 -1 -13 4 3 5 12 9 20 9 8 0 14 9 14 21 0 13 -4 18 -12 13 -8 -5 -7
0 2 11 14 17 13 18 -5 12 -18 -6 -18 -6 -3 6 18 14 21 52 12 170 -6 70 -8 76
-23 65 -14 -11 -14 -11 -4 3 7 9 10 19 6 23 -4 4 0 4 10 0 15 -5 17 1 17 41 0
32 -3 44 -12 39 -7 -5 -8 -3 -3 6 4 7 10 88 12 180 4 152 3 168 -13 174 -21 8
-33 -2 -15 -13 8 -5 9 -11 3 -15 -12 -7 -25 21 -16 36 3 5 14 8 24 5 16 -4 17
23 18 439 2 414 1 443 -16 447 -16 4 -16 5 1 6 15 1 17 15 17 156 l0 155 -134
0 -135 0 -4 -42 -4 -43 -1 42 -2 43 -205 -1 c-206 -1 -239 -7 -200 -36 16 -11
16 -13 3 -13 -17 0 -32 26 -22 41 3 5 0 9 -5 9 -6 0 -11 -4 -11 -9 0 -5 -7
-17 -16 -25 -8 -9 -11 -16 -5 -16 6 0 11 -4 11 -10 0 -5 -3 -9 -7 -9 -5 1 -10
0 -13 -1 -22 -8 -46 -7 -53 3 -5 7 -5 2 -2 -12 5 -17 4 -22 -5 -16 -9 5 -11 4
-6 -3 9 -15 11 -15 31 4 15 15 15 14 9 -10 -4 -17 -2 -26 6 -26 6 0 8 5 4 12
-5 7 -3 8 6 3 10 -6 12 -4 6 10 -5 15 -4 16 9 5 13 -11 12 -14 -6 -29 l-20
-16 22 -13 c11 -8 18 -9 15 -4 -3 5 27 10 74 11 68 2 80 -1 89 -17 6 -11 8
-22 5 -24 -3 -3 2 -8 11 -11 8 -4 15 -2 15 3 0 6 6 10 14 10 8 0 16 7 20 15 3
8 11 15 18 15 7 0 -10 -21 -37 -47 -27 -27 -54 -47 -60 -46 -6 2 -11 -5 -12
-15 -2 -43 -11 -80 -26 -107 -9 -17 -16 -25 -17 -20 0 10 -100 8 -100 -3 0 -3
11 -19 24 -37 49 -64 203 -82 295 -36 57 30 60 41 9 41 -24 0 -50 6 -57 13
-12 10 -13 8 -7 -8 6 -20 6 -20 -9 -1 -18 24 -19 80 -4 142 l12 46 24 -29 c14
-15 22 -22 18 -15 -4 7 0 12 10 12 10 0 13 -5 9 -12 -7 -12 -1 -8 49 32 10 8
23 24 27 35 9 20 9 20 9 -1 1 -11 -2 -24 -6 -28 -5 -4 -8 -24 -8 -44 0 -31 -4
-38 -22 -40 -13 -2 -23 -8 -23 -13 0 -5 11 -7 25 -3 14 3 45 3 69 0 41 -6 49
-12 112 -79 7 -8 7 -18 0 -34 -11 -23 -26 -31 -26 -14 0 5 -9 11 -20 13 -18 3
-19 5 -6 30 10 19 11 30 4 34 -6 4 -8 2 -4 -4 3 -6 2 -13 -4 -17 -6 -4 -10 5
-10 21 0 26 -1 27 -20 9 -11 -10 -17 -22 -13 -28 4 -6 0 -8 -9 -4 -11 4 -15 0
-14 -9 3 -19 27 -35 40 -27 5 3 6 1 3 -4 -5 -7 -19 -7 -44 2 -33 11 -39 11
-46 -2 -5 -8 -6 -18 -2 -21 4 -4 10 -1 12 6 3 6 12 12 20 12 14 0 14 -3 -2
-20 -10 -11 -24 -20 -32 -20 -8 0 -11 -4 -8 -10 10 -16 -14 -50 -43 -62 -44
-17 -74 -18 -68 -2 4 11 -1 10 -22 -3 l-26 -18 44 -6 c69 -9 82 -17 118 -72
23 -35 34 -65 35 -93 2 -34 7 -45 25 -53 25 -12 27 -8 12 20 -7 13 -8 25 -1
37 6 9 11 14 12 10 1 -5 2 -11 3 -15 3 -18 36 -57 36 -43 1 12 3 11 14 -2 7
-10 16 -18 20 -18 13 0 5 23 -11 36 -16 12 -15 12 7 7 14 -3 31 -11 39 -17 22
-17 40 -15 38 5 -1 10 -4 19 -7 19 -3 0 -4 19 -2 43 4 45 -16 76 -39 61 -9 -5
-9 -10 2 -18 19 -15 23 -38 7 -47 -17 -11 -41 -11 -34 0 7 10 -36 27 -76 30
-11 1 -15 7 -11 21 3 11 9 20 14 20 5 0 16 14 25 31 9 18 27 42 41 55 14 13
22 24 17 24 -11 1 35 40 46 40 5 0 10 -6 13 -12 2 -7 3 -5 2 4 -2 10 1 21 6
24 8 5 13 -9 10 -28 -2 -12 24 -9 39 5 11 9 11 8 0 -7 -14 -18 -13 -19 3 -13
18 7 17 11 22 -190 0 -24 -4 -41 -10 -40 -5 1 -9 -6 -7 -15 2 -11 -3 -18 -12
-18 -12 0 -14 5 -7 23 9 24 4 47 -10 47 -4 0 -6 -7 -3 -15 4 -8 2 -15 -2 -15
-5 0 -10 -12 -10 -26 -2 -28 -30 -64 -51 -64 -16 0 -17 12 -2 27 6 6 7 13 1
17 -5 3 -19 -6 -31 -20 -19 -22 -20 -25 -4 -22 13 2 18 -3 17 -20 -1 -20 3
-23 23 -19 12 2 23 1 23 -4 0 -12 -42 -39 -62 -39 -9 0 -19 -4 -22 -9 -4 -5 4
-7 16 -4 17 3 19 2 9 -5 -9 -7 -11 -16 -6 -28 8 -18 8 -18 12 -1 3 12 10 16
21 12 13 -5 14 -3 5 6 -9 9 -5 17 14 35 14 13 30 21 35 18 5 -3 16 0 25 8 12
9 15 9 9 1 -5 -9 2 -13 23 -13 26 0 31 -4 30 -22 -1 -16 -3 -18 -6 -7 -3 12
-14 17 -36 16 l-32 -1 20 -22 c18 -20 21 -21 26 -6 4 11 8 4 11 -20 2 -21 0
-39 -6 -41 -5 -2 -7 -11 -3 -21 4 -9 12 -14 18 -10 8 5 8 9 -1 14 -7 5 -8 10
-2 14 5 3 8 16 7 28 -1 13 0 15 2 6 2 -10 9 -18 14 -18 5 0 9 -5 9 -11 0 -5
-5 -7 -10 -4 -13 8 -13 -1 1 -27 7 -14 8 -18 0 -14 -6 4 -9 -4 -6 -23 2 -19
-2 -31 -11 -35 -8 -3 -14 -12 -14 -21 0 -8 -4 -15 -9 -15 -5 0 -7 9 -4 20 3
11 10 20 15 20 5 0 6 5 3 10 -3 6 -1 10 4 10 17 0 13 14 -9 28 -18 11 -21 8
-31 -33 -7 -28 -17 -45 -26 -45 -12 0 -14 -7 -8 -27 11 -47 16 -171 6 -148 -9
18 -10 17 -10 -8 -1 -16 -5 -26 -11 -22 -13 8 -92 -73 -85 -88 4 -7 -1 -3 -9
7 -9 11 -16 24 -16 29 0 4 -4 6 -9 3 -4 -3 -8 -20 -7 -38 1 -27 5 -33 22 -31
14 2 24 -4 27 -17 3 -12 0 -20 -7 -20 -7 0 -19 -11 -26 -24 -7 -14 -22 -26
-34 -28 -13 -2 -20 -9 -17 -18 2 -8 5 -24 8 -35 3 -18 3 -18 -6 1 -11 25 -38
38 -47 22 -4 -7 -3 -8 4 -4 7 4 12 2 12 -3 0 -17 -13 -13 -37 13 -15 15 -19
26 -12 33 18 18 -119 16 -148 -2 -31 -21 -17 -43 15 -26 26 14 72 14 72 1 0
-5 -5 -10 -11 -10 -5 0 -7 -5 -3 -11 5 -8 13 -4 24 11 15 20 20 21 41 10 14
-8 19 -15 11 -18 -6 -2 -12 -8 -12 -13 0 -23 -55 -59 -108 -70 -63 -13 -122
-38 -122 -52 0 -5 -7 -7 -15 -4 -23 10 -28 -11 -5 -23 17 -9 28 -7 56 9 37 22
41 17 19 -25 -11 -22 -12 -30 -2 -36 7 -4 8 -8 1 -8 -5 0 -24 -14 -42 -31 -22
-21 -37 -29 -51 -24 -18 5 -18 3 -7 -29 16 -48 21 -51 48 -32 20 14 20 16 4
16 -14 0 -9 8 19 30 21 17 42 30 46 30 5 0 9 6 9 14 0 16 51 31 94 28 16 -1
35 3 42 9 9 7 31 9 60 5 132 -18 179 -90 178 -271 0 -49 -6 -68 -28 -100 -33
-48 -55 -61 -108 -63 -23 -1 -47 -7 -55 -13 -21 -18 -153 -5 -202 20 -22 12
-49 34 -58 49 -10 15 -22 30 -28 35 -6 4 -5 10 5 16 12 8 9 14 -13 37 l-27 27
-1 -79 c-1 -44 -3 -88 -4 -99 -1 -11 -3 -28 -3 -38 -2 -14 -9 -18 -29 -17 -51
4 -84 0 -79 -8 3 -5 1 -22 -4 -38 -5 -19 -9 -22 -9 -10 -1 18 -2 18 -19 3 -15
-14 -45 -16 -202 -15 -171 2 -243 12 -223 31 3 4 1 7 -6 7 -7 0 -10 7 -7 18 5
15 -1 17 -49 15 -65 -2 -68 5 -67 112 1 52 -1 64 -8 48 -5 -13 -14 -23 -19
-23 -5 0 -12 -13 -16 -30 -6 -26 -10 -29 -31 -24 -28 7 -32 -7 -8 -30 8 -9 11
-16 5 -16 -6 0 -11 -7 -11 -15 0 -18 -30 -20 -31 -2 0 6 -14 23 -31 36 -24 19
-32 21 -38 11 -6 -9 -10 -3 -13 21 l-4 34 -1 -36 c-2 -40 -17 -59 -47 -59 -12
0 -25 -4 -30 -9 -6 -5 -21 -12 -35 -15 -24 -7 -24 -6 -6 8 21 17 18 19 -24 17
l-25 0 28 12 c29 14 27 27 -5 27 -11 0 -18 7 -18 19 0 14 13 23 45 34 38 13
45 14 45 2 0 -10 9 -8 34 8 33 21 34 24 30 77 -2 30 -1 71 2 91 5 36 7 37 59
44 29 3 61 12 71 19 16 12 20 10 33 -18 11 -22 22 -30 36 -28 16 3 17 1 6 -12
-8 -9 -10 -24 -5 -38 l7 -23 8 22 c4 12 6 32 4 45 -5 24 9 38 38 38 19 0 23
-26 5 -33 -7 -2 -10 -7 -7 -10 12 -15 49 25 49 53 0 26 -29 58 -41 45 -3 -2
-15 5 -29 15 -21 16 -22 20 -10 34 10 13 10 20 1 29 -9 9 -14 9 -20 -1 -6 -11
-13 -8 -28 11 -11 14 -43 33 -74 42 -105 35 -108 36 -102 52 4 11 2 14 -8 11
-8 -3 -14 -11 -14 -18 0 -7 -6 -15 -14 -18 -8 -3 -11 0 -7 7 4 6 2 11 -4 11
-7 0 -10 -6 -7 -12 6 -17 -12 -50 -22 -43 -5 2 -12 -5 -16 -18 -6 -19 -8 -19
-12 -5 -8 30 -23 20 -21 -13 3 -37 -18 -51 -25 -17 -3 20 -5 19 -12 -9 -8 -36
-16 -40 -35 -18 -10 12 -9 15 4 15 10 0 15 4 12 9 -3 4 24 36 59 70 36 35 65
64 65 66 0 11 -46 45 -62 45 -9 0 -32 13 -51 30 -27 23 -36 27 -47 17 -12 -10
-12 -9 -2 4 8 11 9 25 1 53 -6 20 -8 45 -6 54 3 9 5 4 6 -13 1 -23 3 -27 11
-15 9 13 11 13 20 0 5 -8 13 -30 16 -47 4 -23 15 -37 37 -48 40 -20 45 -19 21
4 -10 10 -23 16 -28 13 -5 -3 -6 0 -2 6 3 6 2 13 -4 17 -5 3 -10 11 -10 16 0
6 12 1 27 -10 14 -12 28 -19 30 -17 3 2 -6 32 -18 67 -17 45 -24 57 -29 44 -4
-10 -9 -14 -13 -9 -3 6 -2 16 3 24 12 19 -7 40 -28 33 -13 -4 -14 -3 -3 5 11
8 9 14 -8 31 -11 11 -21 19 -21 16 0 -3 -13 7 -28 22 l-29 28 21 17 c12 10 16
18 9 18 -6 0 -15 -5 -18 -10 -4 -6 -11 -8 -16 -5 -5 4 -9 -1 -9 -9 0 -9 -4
-16 -10 -16 -5 0 -9 3 -8 8 1 4 -4 20 -11 37 -7 16 -11 49 -10 73 3 35 -1 47
-24 68 -15 14 -27 29 -27 33 0 5 19 -9 42 -30 45 -41 61 -45 31 -9 -35 44 -67
69 -77 63 -6 -4 -5 0 2 9 7 9 12 20 11 24 -1 5 -1 33 0 62 1 37 4 51 13 46 8
-5 8 -3 2 7 -12 18 -13 70 -2 63 5 -3 14 8 20 24 7 17 22 36 35 43 27 14 32
58 7 55 -9 0 -21 8 -28 19 -6 11 -13 22 -16 25 -3 3 -5 12 -5 20 0 10 -8 14
-22 12 -20 -3 -23 1 -23 28 0 20 4 29 11 24 6 -3 9 -15 6 -25 -3 -11 -1 -17 4
-14 5 3 8 23 6 43 -1 24 2 36 10 35 7 -2 10 4 7 11 -3 8 3 34 13 58 20 44 20
112 2 135 -7 7 -5 13 3 16 10 4 11 7 1 18 -7 7 -13 18 -13 24 0 5 5 3 10 -5 7
-12 12 -12 22 -2 17 17 28 15 22 -5 -4 -10 9 -3 28 17 19 19 33 38 31 41 -1 4
-19 10 -39 13 -29 6 -33 10 -24 21 13 15 6 35 -12 35 -6 0 -5 -7 3 -17 10 -14
8 -13 -10 2 -14 11 -22 15 -18 10 3 -6 1 -17 -5 -25 -8 -12 -9 -12 -4 3 4 12
0 17 -12 17 -16 1 -16 1 1 11 9 5 17 15 17 22 0 7 -4 6 -10 -3 -9 -13 -10 -13
-10 0 -1 13 -2 13 -13 -1 -7 -9 -22 -21 -34 -28 -15 -7 -20 -17 -16 -28 4 -11
2 -14 -8 -11 -22 7 -23 38 -2 53 17 13 16 15 -14 25 -22 8 -33 19 -33 31 0 10
4 19 10 19 5 0 7 -7 4 -15 -4 -9 0 -15 9 -15 17 0 51 65 44 83 -9 24 12 55 41
62 24 5 35 1 55 -19 17 -17 21 -28 14 -35 -8 -8 -6 -11 5 -11 8 0 21 7 28 15
15 19 30 19 30 2 0 -13 -39 -37 -85 -53 -12 -3 -15 -8 -8 -11 7 -2 22 1 33 7
19 10 21 9 18 -7 -2 -13 -15 -19 -43 -23 -29 -4 -35 -7 -22 -12 9 -4 17 -15
17 -24 0 -14 2 -15 17 -3 9 8 14 9 10 3 -7 -13 13 -24 43 -24 10 0 21 -6 23
-12 4 -10 8 -10 15 1 5 7 16 11 23 8 9 -3 1 -10 -20 -19 -22 -10 -29 -18 -21
-23 7 -4 16 -2 20 5 4 7 34 13 68 15 33 2 71 6 84 9 22 6 22 5 3 -5 -12 -5
-26 -19 -33 -30 -10 -16 -9 -19 4 -19 9 0 14 -6 11 -12 -4 -14 -25 -14 -67 -3
l-25 7 23 -20 c12 -11 22 -32 22 -46 0 -14 5 -26 10 -26 6 0 10 5 10 11 0 6 7
9 14 6 9 -4 17 2 21 14 7 21 6 20 50 23 19 1 29 7 27 15 -2 9 3 11 13 7 9 -3
13 -2 10 3 -6 10 30 25 43 18 4 -3 18 1 31 8 24 13 24 13 3 19 -15 5 -38 -2
-71 -21 -50 -27 -75 -27 -51 2 7 8 10 21 6 30 -3 8 -2 14 2 13 16 -3 62 22 62
34 0 10 3 9 9 -1 5 -8 18 -12 31 -8 12 3 28 3 36 0 20 -8 17 -25 -3 -19 -10 3
-25 1 -33 -5 -13 -9 -13 -10 1 -6 9 3 22 0 29 -6 10 -9 14 -9 17 1 3 7 11 18
18 26 8 7 11 23 8 34 -4 17 1 23 22 28 24 6 25 8 11 22 -12 13 -18 13 -30 2
-14 -10 -16 -10 -16 6 0 16 -2 17 -10 4 -12 -19 -13 -33 -1 -25 14 8 21 -9 11
-24 -6 -11 -12 -9 -26 8 -23 26 -80 28 -109 3 -12 -9 -27 -32 -35 -51 -8 -19
-16 -29 -18 -23 -8 25 60 118 79 106 5 -3 15 -1 22 4 15 12 77 27 97 23 32 -6
35 -6 33 5 -1 5 6 15 16 21 14 9 18 8 18 -3 0 -7 -4 -11 -8 -9 -4 3 -9 -1 -12
-8 -3 -9 8 -18 29 -26 19 -7 34 -16 34 -20 0 -5 9 -11 20 -14 13 -3 20 0 20 8
0 8 4 17 10 20 5 3 7 0 4 -8 -3 -8 1 -14 10 -14 8 0 13 4 10 8 -2 4 5 10 16
14 11 3 20 11 20 16 0 6 4 8 8 5 5 -3 26 1 48 9 l39 13 -62 -1 c-34 -1 -59 -6
-56 -11 4 -5 1 -6 -6 -1 -8 4 -25 -4 -44 -21 -17 -16 -25 -21 -18 -11 7 9 10
17 6 17 -5 0 0 9 10 20 9 10 20 19 24 18 3 0 24 1 46 2 39 2 39 3 10 10 -22 6
-7 8 52 9 45 0 93 5 108 11 17 7 24 7 20 0 -4 -6 12 -10 39 -10 47 0 55 7 34
29 -11 10 -10 11 4 6 10 -4 18 -13 18 -21 0 -8 8 -14 18 -14 13 0 14 2 3 9 -9
6 -5 9 14 9 19 0 23 -3 14 -9 -11 -7 -10 -9 4 -9 17 0 22 17 9 35 -8 11 -87
13 -98 2 -11 -11 -56 -8 -49 3 9 14 -556 11 -574 -4 -11 -8 -13 -8 -7 1 5 10
-47 13 -238 13 l-246 0 1 -248z m827 231 c-10 -2 -26 -2 -35 0 -10 3 -2 5 17
5 19 0 27 -2 18 -5z m855 -8 c-3 -9 -8 -14 -10 -11 -3 3 -2 9 2 15 9 16 15 13
8 -4z m45 -10 c-3 -3 -9 2 -12 12 -6 14 -5 15 5 6 7 -7 10 -15 7 -18z m190 13
c19 -19 14 -66 -8 -80 -40 -26 -14 -72 37 -66 23 2 28 8 28 29 0 14 6 33 14
42 12 15 11 17 -7 17 -12 0 -23 4 -26 9 -10 15 5 41 23 40 10 0 11 -2 4 -6
-20 -8 -15 -21 10 -25 26 -4 38 -48 13 -48 -19 0 -21 -11 -4 -28 8 -8 8 -15 0
-24 -5 -7 -12 -17 -14 -23 -1 -5 -10 -10 -18 -10 -8 -1 -25 -5 -37 -9 -12 -4
-24 -2 -28 4 -3 5 -11 10 -17 10 -19 0 43 -59 66 -63 11 -3 6 -4 -11 -4 -26 1
-45 13 -90 59 -31 31 -58 65 -59 74 -2 12 5 9 25 -10 15 -14 30 -24 33 -21 3
3 11 -2 19 -12 8 -9 9 -14 2 -10 -6 4 -14 3 -17 -2 -10 -15 10 -22 21 -8 12
15 -9 60 -23 49 -5 -4 2 5 15 21 14 15 21 27 18 27 -4 0 0 11 9 25 14 22 15
25 1 19 -15 -5 -29 -28 -31 -49 -1 -14 -36 -19 -48 -7 -6 6 0 8 19 4 28 -5 28
-5 9 16 -18 20 -18 23 -2 47 18 27 54 33 74 13z m-1897 -41 c-8 -8 -11 -5 -11
9 0 27 14 41 18 19 2 -9 -1 -22 -7 -28z m1607 -12 c4 -6 -1 -3 -10 8 -10 10
-22 16 -27 13 -13 -8 -20 -56 -8 -56 6 0 8 -2 5 -5 -6 -6 -58 18 -58 28 0 11
15 8 28 -5 9 -9 12 -8 12 6 0 9 8 28 18 41 17 23 17 23 25 2 4 -12 11 -26 15
-32z m-1213 35 c-3 -5 -12 -10 -18 -10 -7 0 -6 4 3 10 19 12 23 12 15 0z
m1127 -4 c6 4 8 2 4 -4 -3 -5 -3 -12 1 -15 5 -2 3 -3 -2 -2 -12 3 -36 -21 -28
-28 3 -3 -6 -3 -19 1 -18 5 -19 7 -5 10 9 2 14 8 11 14 -4 7 -2 8 4 4 8 -5 12
1 13 16 0 13 3 17 6 10 2 -6 10 -9 15 -6z m-1165 -2 c-3 -3 -12 -4 -19 -1 -8
3 -5 6 6 6 11 1 17 -2 13 -5z m157 -42 c12 -6 15 -11 7 -11 -20 -1 -51 29 -50
48 0 12 3 10 11 -5 5 -12 20 -27 32 -32z m820 33 c3 -8 1 -15 -4 -15 -6 0 -10
7 -10 15 0 8 2 15 4 15 2 0 6 -7 10 -15z m131 5 c3 -5 1 -10 -4 -10 -6 0 -11
5 -11 10 0 6 2 10 4 10 3 0 8 -4 11 -10z m-1171 -9 c3 -5 -2 -15 -12 -22 -15
-12 -16 -12 -5 2 7 9 10 19 6 22 -3 4 -4 7 0 7 3 0 8 -4 11 -9z m1136 -16 c-6
-7 -8 -21 -4 -31 5 -18 5 -18 -6 -1 -8 13 -9 22 -1 31 6 7 7 17 3 21 -4 5 -1
5 6 1 9 -6 10 -11 2 -21z m-1183 -7 c-3 -8 -6 -5 -6 6 -1 11 2 17 5 13 3 -3 4
-12 1 -19z m1453 6 c0 -8 -19 -13 -24 -6 -3 5 1 9 9 9 8 0 15 -2 15 -3z
m-1671 -31 c-1 -22 -2 -23 -6 -8 -3 11 -10 23 -17 27 -7 5 -5 8 7 8 12 0 17
-7 16 -27z m1337 -10 c-4 -10 1 -12 19 -9 14 3 27 1 29 -3 3 -4 -18 -8 -47 -8
-29 -1 -44 1 -34 4 14 3 18 12 14 29 -3 20 -2 22 10 12 8 -6 12 -17 9 -25z
m-626 12 c0 -8 -4 -15 -10 -15 -5 0 -7 7 -4 15 4 8 8 15 10 15 2 0 4 -7 4 -15z
m-503 -16 c-9 -6 -15 -14 -13 -18 3 -4 -2 -8 -10 -8 -11 0 -9 6 8 24 12 12 24
20 27 17 3 -3 -2 -10 -12 -15z m167 -35 c18 -7 22 -39 6 -49 -5 -3 -10 1 -10
10 0 9 -4 13 -10 10 -5 -3 -10 -1 -10 4 0 6 6 11 13 11 8 0 7 4 -3 10 -17 11
-10 13 14 4z m172 -3 c-3 -5 1 -12 10 -15 9 -4 14 -9 11 -13 -9 -8 -38 17 -31
28 3 5 7 9 10 9 3 0 3 -4 0 -9z m-372 -13 c-3 -4 -9 -8 -15 -8 -5 0 -9 4 -9 8
0 5 7 9 15 9 8 0 12 -4 9 -9z m1526 8 c0 -3 -4 -8 -10 -11 -5 -3 -10 -1 -10 4
0 6 5 11 10 11 6 0 10 -2 10 -4z m-1175 -16 c3 -5 1 -10 -4 -10 -6 0 -11 5
-11 10 0 6 2 10 4 10 3 0 8 -4 11 -10z m1225 -32 c0 -6 -6 -5 -15 2 -8 7 -15
14 -15 16 0 2 7 1 15 -2 8 -4 15 -11 15 -16z m-1210 -52 c0 -2 -7 -7 -16 -10
-8 -3 -12 -2 -9 4 6 10 25 14 25 6z m1163 -21 c-3 -9 -8 -14 -10 -11 -3 3 -2
9 2 15 9 16 15 13 8 -4z m188 -33 c2 -23 0 -45 -4 -48 -4 -4 -7 17 -7 46 0 62
8 64 11 2z m43 32 c5 -14 4 -15 -9 -4 -17 14 -19 20 -6 20 5 0 12 -7 15 -16z
m-1850 0 c20 -8 11 -24 -12 -23 -12 0 -13 2 -3 6 11 5 11 7 0 14 -16 10 -8 12
15 3z m1876 -28 c0 -2 -8 -10 -17 -17 -16 -13 -17 -12 -4 4 13 16 21 21 21 13z
m-1880 -40 c0 -49 -16 -54 -18 -6 -1 22 3 40 8 40 6 0 10 -15 10 -34z m1861
-33 c13 -16 12 -17 -3 -4 -10 7 -18 15 -18 17 0 8 8 3 21 -13z m-1891 -110 c0
-2 -6 -3 -14 -3 -9 0 -12 7 -9 20 3 11 1 20 -3 20 -5 0 -10 17 -11 38 -2 35
-1 35 17 -18 11 -30 20 -56 20 -57z m1317 55 c-3 -8 -6 -5 -6 6 -1 11 2 17 5
13 3 -3 4 -12 1 -19z m520 7 c0 -8 -4 -12 -9 -9 -5 3 -6 10 -3 15 9 13 12 11
12 -6z m-17 -60 c-7 -8 -17 -15 -23 -15 -5 0 -2 9 8 20 21 23 35 19 15 -5z
m73 0 c-3 -9 -8 -14 -10 -11 -3 3 -2 9 2 15 9 16 15 13 8 -4z m-133 -9 c-7 -7
-13 -7 -20 0 -6 6 -3 10 10 10 13 0 16 -4 10 -10z m-50 -3 c0 -5 -16 -19 -36
-32 -35 -24 -36 -26 -29 -77 5 -41 3 -53 -9 -57 -16 -6 -34 18 -30 41 1 6 2
18 3 25 1 8 4 7 11 -3 7 -11 10 -4 10 26 0 26 6 46 18 56 26 23 62 35 62 21z
m-1690 -55 c0 -4 -7 -8 -15 -8 -8 0 -15 4 -15 8 0 5 7 9 15 9 8 0 15 -4 15 -9z
m16 -242 c-8 -32 -26 -34 -26 -3 0 18 2 19 10 7 8 -13 10 -12 10 3 0 9 -4 17
-10 17 -5 0 -10 8 -10 17 0 16 1 16 16 1 11 -11 14 -25 10 -42z m1682 9 c-3
-3 -9 2 -12 12 -6 14 -5 15 5 6 7 -7 10 -15 7 -18z m-1648 11 c0 -3 -4 -8 -10
-11 -5 -3 -10 -1 -10 4 0 6 5 11 10 11 6 0 10 -2 10 -4z m-97 -102 c-2 -55 0
-73 9 -68 7 4 8 3 4 -4 -13 -22 -26 -12 -26 18 0 31 -19 43 -21 13 -1 -17 -2
-17 -6 -1 -2 10 3 25 12 34 9 9 15 26 14 38 -2 33 0 46 9 46 4 0 7 -34 5 -76z
m1967 26 c0 -5 -2 -10 -4 -10 -3 0 -8 5 -11 10 -3 6 -1 10 4 10 6 0 11 -4 11
-10z m-2023 -122 c-3 -7 -5 -2 -5 12 0 14 2 19 5 13 2 -7 2 -19 0 -25z m2020
-193 c0 -8 -4 -12 -9 -9 -5 3 -6 10 -3 15 9 13 12 11 12 -6z m-1908 -7 c0 -7
-4 -22 -9 -33 -7 -17 -9 -15 -9 13 -1 17 4 32 9 32 6 0 10 -6 9 -12z m1871
-93 l-6 -100 -4 92 c-3 50 -2 89 3 86 4 -2 7 4 7 13 0 10 1 15 3 13 2 -2 1
-49 -3 -104z m-1947 47 c-7 -4 -13 -22 -15 -39 -3 -38 -12 -34 -13 5 0 25 24
57 35 46 2 -3 -1 -8 -7 -12z m28 -29 c13 -16 12 -17 -3 -4 -10 7 -18 15 -18
17 0 8 8 3 21 -13z m36 -5 c-3 -8 -6 -5 -6 6 -1 11 2 17 5 13 3 -3 4 -12 1
-19z m-72 -50 c4 4 2 -3 -4 -15 -6 -13 -14 -23 -17 -23 -3 0 -2 5 1 10 4 6 1
19 -7 28 -11 15 -11 15 3 5 9 -7 19 -9 24 -5z m54 -35 c0 -25 -1 -25 -8 -8 -5
11 -7 23 -4 28 8 14 13 7 12 -20z m1928 -35 c-2 -13 -4 -3 -4 22 0 25 2 35 4
23 2 -13 2 -33 0 -45z m-1979 16 c-7 -15 -14 -21 -16 -15 -2 7 2 18 8 26 18
22 21 18 8 -11z m82 -84 c6 0 10 6 10 13 0 8 4 7 10 -3 13 -20 13 -33 -1 -25
-6 4 -17 -1 -24 -11 -13 -17 -14 -17 -15 -2 0 9 -8 22 -17 27 -16 9 -16 10 -2
11 9 0 17 6 16 13 0 6 1 30 3 52 3 34 4 32 7 -17 2 -32 8 -58 13 -58z m100 46
c0 -5 -7 -3 -15 4 -8 7 -15 22 -15 34 1 20 2 20 15 -4 8 -14 14 -29 15 -34z
m1727 -63 c-3 -10 -5 -2 -5 17 0 19 2 27 5 18 2 -10 2 -26 0 -35z m-1909 26
c-10 -5 -19 -20 -19 -32 -1 -18 -2 -18 -6 -4 -5 20 13 47 31 47 6 0 3 -5 -6
-11z m1774 -21 c-9 -9 -12 -7 -12 12 0 19 3 21 12 12 9 -9 9 -15 0 -24z
m-1502 16 c0 -8 -19 -13 -24 -6 -3 5 1 9 9 9 8 0 15 -2 15 -3z m1710 -29 c0
-2 -10 -10 -22 -16 -21 -11 -22 -11 -9 4 13 16 31 23 31 12z m-1957 -36 c-6
-6 -9 -19 -6 -28 4 -9 -3 -5 -14 9 -12 14 -19 29 -15 34 3 5 8 1 12 -9 5 -13
9 -15 14 -7 4 7 4 18 0 25 -6 10 -4 10 7 0 9 -10 10 -16 2 -24z m24 9 c-3 -8
-6 -5 -6 6 -1 11 2 17 5 13 3 -3 4 -12 1 -19z m14 -27 c6 10 9 7 9 -10 0 -18
-3 -21 -13 -12 -8 6 -17 8 -21 4 -4 -4 -4 1 0 12 5 13 9 15 12 6 4 -11 6 -11
13 0z m-19 -50 c-5 -14 -3 -14 11 -2 11 9 17 10 17 2 0 -6 -3 -11 -7 -12 -5 0
-15 -2 -24 -4 -8 -1 -26 4 -40 12 -13 8 -16 12 -7 9 10 -3 20 -2 22 3 10 15
34 8 28 -8z m1748 -11 c0 -5 -2 -10 -4 -10 -3 0 -8 5 -11 10 -3 6 -1 10 4 10
6 0 11 -4 11 -10z m100 -23 c0 -13 5 -28 11 -34 7 -7 2 -9 -18 -5 -15 3 -23 7
-17 9 6 2 9 15 6 28 -2 15 0 25 7 25 6 0 11 -10 11 -23z m60 8 c-16 -20 -1
-19 21 1 11 10 19 12 24 4 4 -6 1 -9 -7 -8 -7 2 -12 -4 -10 -12 2 -8 0 -12 -4
-7 -4 4 -19 0 -33 -10 -24 -15 -25 -15 -12 0 7 9 10 17 6 17 -4 0 -2 7 5 15 7
8 15 15 17 15 3 0 0 -7 -7 -15z m-1889 -33 c-6 -2 -11 -11 -11 -20 0 -15 2
-15 10 -2 6 10 9 -11 8 -60 -1 -74 -2 -75 -13 -35 -7 22 -15 39 -18 38 -4 -2
-11 -3 -17 -3 -5 0 -11 -21 -12 -47 l-1 -48 -6 50 c-5 45 -7 48 -19 30 -11
-17 -12 -12 -9 42 2 34 0 60 -5 57 -4 -3 -8 0 -8 5 0 6 2 11 4 11 2 0 11 2 19
6 10 3 16 -4 20 -25 7 -35 37 -43 37 -11 0 11 5 20 10 20 6 0 11 8 11 18 1 14
2 14 6 -3 3 -10 0 -21 -6 -23z m1906 -24 c-3 -8 -6 -5 -6 6 -1 11 2 17 5 13 3
-3 4 -12 1 -19z m-207 -14 c0 -4 -6 -4 -14 -1 -8 3 -16 1 -18 -5 -3 -7 -10 -8
-17 -4 -21 14 7 38 30 25 10 -5 19 -12 19 -15z m146 -15 c4 -8 1 -8 -14 0 -12
6 -24 16 -28 22 -4 8 -1 8 14 0 12 -6 24 -16 28 -22z m14 -93 c5 -5 6 1 3 14
-4 15 -2 21 5 17 11 -8 11 -25 -1 -44 -6 -9 -3 -11 7 -7 9 3 16 2 16 -4 0 -12
-18 -11 -39 2 -14 9 -34 -11 -25 -26 3 -4 0 -8 -6 -8 -8 0 -9 7 -5 18 4 9 8
22 8 29 0 7 4 10 9 7 4 -3 9 7 9 23 1 21 3 23 6 8 3 -11 9 -24 13 -29z m77 18
c-3 -3 -12 -4 -19 -1 -8 3 -5 6 6 6 11 1 17 -2 13 -5z m-2016 -27 c-10 -9 -11
-8 -5 6 3 10 9 15 12 12 3 -3 0 -11 -7 -18z m69 19 c0 -2 -8 -10 -17 -17 -16
-13 -17 -12 -4 4 13 16 21 21 21 13z m180 -21 c0 -8 -7 -15 -15 -15 -8 0 -15
-5 -15 -11 0 -5 -5 -7 -11 -3 -8 4 -4 13 12 25 29 23 29 23 29 4z m-185 -24
c-3 -6 -13 -11 -21 -11 -8 0 -12 5 -9 10 4 6 11 8 16 5 5 -4 9 -1 9 6 0 7 3
10 6 6 3 -3 3 -10 -1 -16z m22 -33 c-2 -13 -4 -5 -4 17 -1 22 1 32 4 23 2 -10
2 -28 0 -40z m1915 27 c4 -20 2 -23 -8 -14 -7 6 -10 17 -7 25 7 20 10 18 15
-11z m-1797 -15 c3 -5 2 -10 -4 -10 -5 0 -13 5 -16 10 -3 6 -2 10 4 10 5 0 13
-4 16 -10z m-151 -25 c3 -8 1 -15 -4 -15 -6 0 -10 7 -10 15 0 8 2 15 4 15 2 0
6 -7 10 -15z m335 -41 c1 -8 -38 -32 -101 -62 -5 -2 -8 8 -8 21 0 19 11 32 48
55 48 29 59 27 61 -14z m1521 25 c0 -11 -4 -18 -10 -14 -5 3 -7 12 -3 20 7 21
13 19 13 -6z m88 0 c3 -11 1 -11 -7 1 -6 8 -11 10 -11 4 0 -6 -6 -11 -14 -11
-8 0 -12 6 -9 13 6 16 36 11 41 -7z m-548 7 c0 -3 -4 -8 -10 -11 -5 -3 -10 -1
-10 4 0 6 5 11 10 11 6 0 10 -2 10 -4z m-1398 -21 c18 5 20 4 8 -4 -13 -10
-13 -12 0 -21 8 -5 11 -10 5 -10 -5 0 -21 10 -35 23 -14 12 -20 18 -13 14 6
-5 22 -6 35 -2z m35 -17 c-3 -7 -5 -2 -5 12 0 14 2 19 5 13 2 -7 2 -19 0 -25z
m-82 -16 c-3 -3 -11 0 -18 7 -9 10 -8 11 6 5 10 -3 15 -9 12 -12z m85 -35 c0
-23 -5 -34 -15 -34 -11 0 -12 4 -4 13 7 8 7 14 -1 19 -8 5 -8 11 1 21 17 20
19 18 19 -19z m1871 10 c-10 -9 -11 -8 -5 6 3 10 9 15 12 12 3 -3 0 -11 -7
-18z m-1931 -1 c0 -2 -7 -6 -15 -10 -8 -3 -15 -1 -15 4 0 6 7 10 15 10 8 0 15
-2 15 -4z m1877 -28 c-3 -8 -6 -5 -6 6 -1 11 2 17 5 13 3 -3 4 -12 1 -19z m5
-50 c-7 -7 -12 -8 -12 -2 0 14 12 26 19 19 2 -3 -1 -11 -7 -17z m53 12 c3 -5
2 -10 -4 -10 -5 0 -13 5 -16 10 -3 6 -2 10 4 10 5 0 13 -4 16 -10z m-45 -121
c0 -5 -4 -9 -10 -9 -5 0 -10 7 -10 16 0 8 5 12 10 9 6 -3 10 -10 10 -16z m87
15 c-3 -3 -12 -4 -19 -1 -8 3 -5 6 6 6 11 1 17 -2 13 -5z m-39 -21 c-2 -11 6
-19 22 -24 24 -7 24 -7 2 -8 -31 -1 -52 19 -38 36 15 17 17 16 14 -4z m-38
-23 c12 -8 11 -10 -7 -10 -13 0 -23 5 -23 10 0 13 11 13 30 0z m23 -27 c-7 -2
-19 -2 -25 0 -7 3 -2 5 12 5 14 0 19 -2 13 -5z m-1316 -35 c-3 -7 -5 -2 -5 12
0 14 2 19 5 13 2 -7 2 -19 0 -25z m-534 5 c-3 -7 -13 -13 -23 -13 -16 0 -30
-18 -30 -41 0 -5 7 -9 15 -9 9 0 12 6 9 18 -4 13 -1 12 14 -5 11 -13 29 -23
40 -23 11 0 25 -7 32 -15 7 -8 16 -12 21 -9 5 2 12 -8 15 -23 5 -17 3 -28 -4
-31 -7 -2 -12 -12 -12 -23 0 -12 -7 -19 -20 -19 -13 0 -18 5 -14 15 4 10 -5
21 -25 32 -17 10 -34 26 -37 36 -6 20 -24 23 -24 5 0 -10 -2 -10 -8 -2 -4 7
-18 14 -32 15 -14 3 -26 12 -28 22 -3 17 -1 17 20 6 19 -10 18 -7 -7 16 -22
21 -26 30 -15 33 8 3 16 0 18 -6 5 -17 22 -15 22 3 0 18 21 30 53 30 15 0 23
-5 20 -12z m1845 -25 c47 -70 47 -68 11 -61 -22 4 -30 3 -25 -5 3 -5 0 -13 -6
-16 -7 -4 4 -4 25 -2 39 5 40 3 28 -29 -6 -16 -16 -19 -44 -17 -28 3 -39 -1
-49 -17 -15 -24 -33 -29 -20 -5 6 12 2 23 -15 40 -12 13 -23 32 -23 44 0 11
-6 20 -12 20 -7 0 -5 5 5 11 13 8 22 7 32 -1 11 -9 12 -7 8 9 -4 14 -1 21 10
21 8 0 18 11 21 25 9 35 21 31 54 -17z m-1486 -20 c-7 -7 -12 -8 -12 -2 0 14
12 26 19 19 2 -3 -1 -11 -7 -17z m-176 -60 c-7 -11 -13 -13 -17 -6 -4 6 -13 8
-21 5 -8 -3 -21 -1 -29 5 -11 8 -10 9 4 4 9 -3 17 -2 17 3 0 4 13 8 28 7 25
-1 27 -4 18 -18z m89 12 c3 -5 -1 -10 -9 -10 -8 0 -16 -8 -18 -17 -3 -15 -5
-14 -10 5 -3 12 -2 20 3 16 5 -3 9 0 9 5 0 14 17 14 25 1z m165 -3 c0 -5 -10
-7 -22 -4 -22 6 -22 6 2 -13 14 -10 21 -22 17 -27 -5 -4 -16 2 -25 15 -12 15
-30 23 -60 25 -40 3 -43 2 -50 -27 -8 -29 -9 -29 -14 -8 -3 12 -2 22 3 22 5 0
8 3 8 8 -1 4 -1 10 0 14 2 11 141 6 141 -5z m51 -5 c-7 -2 -18 1 -23 6 -8 8
-4 9 13 5 13 -4 18 -8 10 -11z m77 0 c-2 -19 3 -32 13 -32 5 0 7 5 4 10 -3 6
1 10 9 10 9 0 16 -4 16 -10 0 -5 -5 -10 -11 -10 -6 0 -8 -7 -5 -16 5 -13 3
-14 -6 -7 -7 6 -21 9 -30 8 -9 -2 -19 4 -22 12 -3 7 -2 11 3 8 5 -3 12 -1 15
4 3 5 -1 12 -10 15 -8 3 -13 10 -9 15 6 11 35 4 33 -7z m707 8 c-3 -5 -12 -10
-18 -10 -7 0 -6 4 3 10 19 12 23 12 15 0z m260 0 c3 -5 1 -10 -4 -10 -6 0 -11
5 -11 10 0 6 2 10 4 10 3 0 8 -4 11 -10z m-882 -20 c-3 -11 -7 -20 -9 -20 -2
0 -4 9 -4 20 0 11 4 20 9 20 5 0 7 -9 4 -20z m1008 1 c-5 -9 -6 -23 -3 -31 2
-8 2 -12 -2 -8 -14 12 -13 55 0 55 9 0 10 -6 5 -16z m-317 -8 c8 3 18 1 22 -5
4 -7 3 -8 -4 -4 -7 4 -12 1 -12 -8 0 -9 -8 -16 -17 -16 -14 0 -15 2 -4 9 11 7
9 10 -8 16 -12 3 -18 11 -15 17 4 7 9 6 14 -2 4 -7 15 -10 24 -7z m-999 -19
c-7 -8 -20 -14 -27 -14 -8 0 -6 5 5 11 9 6 15 14 12 20 -3 5 1 6 9 3 13 -5 13
-8 1 -20z m172 19 c-4 -3 -3 -11 3 -17 5 -7 5 -18 0 -26 -8 -13 -11 -13 -22
-1 -9 10 -10 12 -1 7 9 -5 11 -2 7 9 -6 14 -8 14 -25 -1 -24 -21 -24 -35 -1
-27 18 7 17 5 -12 -17 -13 -10 -17 -10 -12 -2 4 6 2 12 -3 12 -6 0 -11 -6 -11
-12 0 -10 -3 -9 -9 1 -7 11 -9 11 -14 0 -4 -9 -6 -8 -6 5 -1 12 4 16 14 12 8
-3 15 -1 15 4 0 5 -8 11 -17 14 -11 3 -7 4 8 3 14 -1 38 8 53 21 26 20 48 31
33 15z m1041 -55 c14 -3 13 -5 -4 -9 -18 -6 -20 -2 -21 35 0 32 1 34 4 9 3
-19 11 -33 21 -35z m72 42 c0 -11 -2 -20 -4 -20 -2 0 -6 9 -9 20 -3 11 -1 20
4 20 5 0 9 -9 9 -20z m-1630 -42 c0 -10 -6 -18 -14 -18 -8 0 -14 8 -14 18 0 9
-3 26 -7 37 -8 20 -8 20 13 1 12 -11 22 -27 22 -38z m137 30 c-3 -8 -6 -5 -6
6 -1 11 2 17 5 13 3 -3 4 -12 1 -19z m1124 3 c-9 -6 -11 -16 -7 -27 6 -15 4
-16 -5 -7 -14 14 -5 43 13 43 10 0 9 -3 -1 -9z m-1011 -19 c0 -11 -3 -12 -13
-3 -8 6 -18 7 -22 3 -5 -4 -5 -2 -2 4 9 16 37 13 37 -4z m436 1 c-3 -17 -26
-32 -26 -16 0 8 20 33 26 33 1 0 1 -8 0 -17z m765 -4 c16 -11 29 -24 29 -29 0
-5 -12 2 -26 15 -21 19 -30 22 -40 14 -11 -9 -14 -8 -14 5 0 22 16 20 51 -5z
m309 1 c0 -5 -5 -10 -11 -10 -5 0 -7 5 -4 10 3 6 8 10 11 10 2 0 4 -4 4 -10z
m-1460 -4 c0 -3 -4 -8 -10 -11 -5 -3 -10 -1 -10 4 0 6 5 11 10 11 6 0 10 -2
10 -4z m40 -6 c0 -14 27 -12 33 3 4 7 6 6 6 -4 1 -19 -32 -36 -37 -20 -2 6 -9
8 -15 4 -16 -10 -41 -13 -32 -5 4 4 12 7 18 7 7 1 11 6 10 13 -2 7 2 12 7 12
6 0 10 -4 10 -10z m760 6 c0 -2 -9 -6 -20 -9 -11 -3 -18 -1 -14 4 5 9 34 13
34 5z m44 -22 c3 -8 2 -12 -4 -9 -6 3 -10 10 -10 16 0 14 7 11 14 -7z m-269
-4 c3 -5 1 -10 -4 -10 -6 0 -11 5 -11 10 0 6 2 10 4 10 3 0 8 -4 11 -10z m535
0 c0 -5 -5 -10 -11 -10 -5 0 -7 5 -4 10 3 6 8 10 11 10 2 0 4 -4 4 -10z"/>
<path d="M1900 2365 c-7 -9 -8 -15 -2 -15 5 0 12 7 16 15 3 8 4 15 2 15 -2 0
-9 -7 -16 -15z"/>
<path d="M1819 2288 c21 -24 41 -29 41 -11 0 4 -3 3 -7 0 -3 -4 -18 3 -32 15
l-26 23 24 -27z"/>
<path d="M1890 2215 c13 -14 26 -25 28 -25 3 0 -5 11 -18 25 -13 14 -26 25
-28 25 -3 0 5 -11 18 -25z"/>
<path d="M1905 110 c-3 -6 1 -7 9 -4 18 7 21 14 7 14 -6 0 -13 -4 -16 -10z"/>
<path d="M1220 2430 c0 -5 5 -10 11 -10 5 0 7 5 4 10 -3 6 -8 10 -11 10 -2 0
-4 -4 -4 -10z"/>
<path d="M1233 2396 c0 -8 8 -11 20 -8 14 4 16 7 5 13 -19 12 -25 11 -25 -5z"/>
<path d="M1193 2373 c16 -3 25 -9 21 -15 -4 -7 -2 -8 5 -4 18 12 2 26 -27 25
l-27 -2 28 -4z"/>
<path d="M799 2343 c-13 -16 -12 -17 4 -4 9 7 17 15 17 17 0 8 -8 3 -21 -13z"/>
<path d="M500 2206 c0 -2 11 -6 25 -8 14 -3 25 -1 25 3 0 5 -11 9 -25 9 -14 0
-25 -2 -25 -4z"/>
<path d="M290 2180 c0 -5 9 -10 19 -10 11 0 23 5 26 10 4 6 -5 10 -19 10 -14
0 -26 -4 -26 -10z"/>
<path d="M492 2178 c-19 -19 -14 -30 8 -18 11 6 20 15 20 20 0 14 -14 12 -28
-2z"/>
<path d="M710 2123 c-3 -29 -1 -48 3 -44 5 5 7 28 5 52 l-3 44 -5 -52z"/>
<path d="M918 2160 c16 -18 15 -30 -2 -30 -8 0 -17 8 -19 18 -3 9 -5 -1 -5
-23 0 -22 2 -32 5 -22 2 9 7 17 10 17 4 0 16 -8 27 -17 16 -14 18 -15 8 -2 -7
9 -10 23 -7 31 3 8 -2 21 -12 28 -15 12 -16 12 -5 0z"/>
<path d="M998 2152 c9 -10 19 -14 21 -9 2 5 -3 13 -10 18 -24 15 -30 10 -11
-9z"/>
<path d="M1142 2133 c-2 -39 0 -43 21 -42 16 1 17 3 5 6 -11 3 -18 17 -21 41
l-4 37 -1 -42z"/>
<path d="M1580 2153 c0 -12 5 -25 10 -28 13 -8 13 15 0 35 -8 12 -10 11 -10
-7z"/>
<path d="M275 2150 c3 -5 13 -10 21 -10 8 0 12 5 9 10 -3 6 -13 10 -21 10 -8
0 -12 -4 -9 -10z"/>
<path d="M772 2125 c0 -22 2 -32 5 -22 5 18 5 18 26 0 l22 -18 -19 22 c-16 20
-17 25 -5 40 13 16 12 17 -3 5 -13 -10 -17 -10 -21 0 -3 7 -5 -5 -5 -27z"/>
<path d="M953 2144 c-3 -9 -2 -24 4 -33 13 -20 55 -21 60 -1 4 12 3 12 -5 2
-16 -24 -47 -10 -47 21 1 31 -3 34 -12 11z"/>
<path d="M1070 2155 c0 -5 9 -21 20 -35 11 -14 20 -20 20 -15 0 6 -9 21 -20
35 -11 14 -20 21 -20 15z"/>
<path d="M1202 2135 c0 -16 2 -22 5 -12 2 9 2 23 0 30 -3 6 -5 -1 -5 -18z"/>
<path d="M1231 2153 c0 -5 14 -19 32 -32 l32 -25 -29 32 c-31 33 -36 37 -35
25z"/>
<path d="M1313 2144 c-8 -22 9 -48 36 -52 15 -2 21 2 21 15 0 14 -2 15 -9 4
-15 -23 -44 -5 -39 24 6 28 1 33 -9 9z"/>
<path d="M1041 2135 c0 -5 3 -16 8 -23 7 -11 9 -10 14 3 4 9 3 14 -2 10 -5 -3
-12 1 -14 7 -3 7 -6 9 -6 3z"/>
<path d="M255 2119 c-11 -17 1 -21 15 -4 8 9 8 15 2 15 -6 0 -14 -5 -17 -11z"/>
<path d="M1231 2114 c0 -11 3 -14 6 -6 3 7 2 16 -1 19 -3 4 -6 -2 -5 -13z"/>
<path d="M227 2103 c-4 -3 -7 -11 -7 -17 0 -6 5 -5 12 2 6 6 9 14 7 17 -3 3
-9 2 -12 -2z"/>
<path d="M207 2051 c-4 -17 -3 -21 5 -13 5 5 8 16 6 23 -3 8 -7 3 -11 -10z"/>
<path d="M231 1994 c0 -11 3 -14 6 -6 3 7 2 16 -1 19 -3 4 -6 -2 -5 -13z"/>
<path d="M358 1988 c3 -14 2 -19 -6 -14 -7 4 -12 5 -12 2 0 -7 70 -39 75 -34
7 7 -7 48 -16 48 -5 0 -6 -7 -3 -15 4 -8 1 -15 -5 -15 -6 0 -13 11 -17 25 -3
14 -10 25 -14 25 -5 0 -6 -10 -2 -22z"/>
<path d="M1155 1941 c6 -10 2 -12 -16 -7 -20 6 -18 3 6 -11 55 -32 76 -24 28
11 -14 11 -23 14 -18 7z"/>
<path d="M0 1910 c0 -21 4 -29 12 -24 7 5 8 3 3 -7 -17 -26 -14 -88 3 -99 15
-8 15 -9 -2 -10 -15 0 -16 -3 -6 -15 23 -28 30 -15 30 60 0 59 -3 77 -16 82
-8 3 -13 12 -10 19 3 7 1 16 -4 19 -6 4 -10 -8 -10 -25z"/>
<path d="M1646 1917 c3 -10 9 -15 12 -12 3 3 0 11 -7 18 -10 9 -11 8 -5 -6z"/>
<path d="M1220 1910 c8 -5 24 -10 34 -10 26 0 18 6 -19 14 -22 5 -26 4 -15 -4z"/>
<path d="M458 1899 c-2 -7 -22 -18 -44 -25 l-39 -12 35 -1 c19 -1 52 -6 73
-12 22 -6 40 -9 42 -7 1 2 -12 18 -30 36 -20 20 -35 28 -37 21z"/>
<path d="M1300 1896 c0 -2 7 -7 16 -10 8 -3 12 -2 9 4 -6 10 -25 14 -25 6z"/>
<path d="M1081 1847 c5 -19 8 -72 8 -118 -1 -46 -1 -113 0 -149 1 -65 1 -65
16 -36 9 16 18 62 22 103 5 59 8 70 18 57 9 -13 16 -14 33 -5 31 16 32 15 32
-38 0 -33 6 -56 19 -72 16 -21 22 -22 45 -11 24 11 26 16 26 80 0 56 -4 72
-20 87 -20 18 -21 18 -50 -4 l-30 -22 0 56 c0 80 -19 105 -80 105 l-48 0 9
-33z m79 -24 c0 -21 3 -48 6 -60 5 -19 2 -23 -19 -23 -23 0 -24 3 -26 60 -1
54 1 60 19 60 16 0 20 -7 20 -37z m92 -95 c-7 -7 -12 -8 -12 -2 0 14 12 26 19
19 2 -3 -1 -11 -7 -17z m27 -86 c1 -30 -4 -44 -15 -49 -22 -8 -34 14 -34 69 0
36 4 47 18 50 21 5 30 -15 31 -70z"/>
<path d="M1368 1873 c7 -3 16 -2 19 1 4 3 -2 6 -13 5 -11 0 -14 -3 -6 -6z"/>
<path d="M1968 1863 c7 -12 4 -21 -10 -33 -19 -15 -20 -17 -2 -70 l19 -55 7
45 c12 78 9 117 -7 124 -12 4 -14 2 -7 -11z"/>
<path d="M1910 1841 c0 -6 4 -13 10 -16 6 -3 7 1 4 9 -7 18 -14 21 -14 7z"/>
<path d="M668 1759 c3 -66 0 -84 -14 -100 -36 -40 -46 -25 -42 66 3 73 1 85
-14 89 -16 4 -18 -5 -18 -90 0 -93 0 -94 -21 -84 -13 8 -18 17 -14 28 5 14 4
15 -7 4 -11 -11 -8 -18 15 -38 27 -23 28 -29 25 -84 -3 -54 -1 -60 17 -60 18
0 20 6 17 64 -3 54 -1 64 15 70 10 3 24 9 31 12 17 8 17 -147 0 -164 -9 -9 -3
-12 27 -12 30 0 36 3 27 12 -17 17 -17 208 1 208 9 0 9 2 -1 9 -10 6 -13 28
-10 80 3 66 1 71 -17 71 -19 0 -20 -6 -17 -81z"/>
<path d="M130 1812 c0 -14 6 -22 16 -22 14 0 15 3 3 18 -7 9 -15 19 -16 21 -2
2 -3 -5 -3 -17z"/>
<path d="M1321 1806 c-14 -14 -19 -26 -13 -26 8 0 12 -31 12 -103 0 -95 2
-105 23 -123 12 -10 17 -13 11 -5 -15 17 -6 223 10 233 8 6 8 8 -1 8 -6 0 -13
9 -15 21 -3 20 -4 20 -27 -5z"/>
<path d="M917 1814 c-4 -4 -7 -52 -7 -106 0 -72 3 -98 13 -98 9 0 11 23 9 90
-2 59 0 90 7 90 6 0 11 -9 11 -20 0 -11 5 -20 10 -20 12 0 13 30 1 49 -5 7
-13 11 -19 7 -6 -3 -12 -1 -14 5 -2 5 -7 7 -11 3z"/>
<path d="M834 1800 c-6 -6 -7 -40 -2 -93 5 -45 7 -90 4 -99 -3 -12 2 -18 12
-18 15 0 17 12 15 97 -3 88 -2 95 10 68 8 -18 16 -25 20 -18 10 16 -11 66 -24
57 -6 -3 -14 -2 -18 5 -5 7 -10 8 -17 1z"/>
<path d="M1390 1788 c-15 -23 -15 -65 -4 -181 5 -50 10 -59 34 -72 25 -13 29
-13 41 3 12 15 12 16 -2 4 -14 -10 -20 -10 -33 3 -12 13 -16 37 -16 111 0 82
2 94 17 94 15 0 15 1 1 13 -9 6 -18 20 -20 30 -3 16 -5 15 -18 -5z"/>
<path d="M737 1768 c-10 -8 -14 -18 -8 -26 6 -10 10 -10 21 3 24 29 30 15 30
-65 0 -82 -14 -107 -26 -45 -4 22 -2 41 6 50 10 12 10 15 -3 15 -16 0 -33 -34
-29 -60 8 -53 12 -58 41 -56 16 1 33 5 37 9 4 4 6 40 5 79 -3 95 -30 129 -74
96z"/>
<path d="M1544 1765 c-3 -7 -6 -56 -7 -109 -2 -72 1 -97 11 -101 26 -10 29 -5
21 38 -18 91 -5 209 15 135 4 -17 8 -20 17 -11 8 8 7 17 -3 34 -14 26 -47 34
-54 14z"/>
<path d="M1456 1751 c-13 -14 -16 -34 -14 -86 3 -60 6 -70 28 -83 25 -16 25
-16 8 4 -11 12 -18 37 -18 62 0 38 2 41 27 39 34 -2 42 23 19 58 -20 30 -28
31 -50 6z m34 -27 c13 -33 13 -33 -10 -27 -13 3 -20 14 -20 29 0 32 18 31 30
-2z"/>
<path d="M1020 1725 c0 -9 -7 -32 -16 -53 l-17 -37 -8 44 c-9 46 -15 58 -25
48 -3 -3 -1 -29 6 -57 11 -48 11 -56 -10 -100 -22 -47 -23 -48 -64 -43 -64 7
-70 11 -56 28 7 8 8 15 2 15 -5 0 -15 -7 -22 -15 -20 -25 0 -37 72 -42 l64 -5
41 78 c23 44 48 96 56 117 15 35 15 37 -4 37 -10 0 -19 -7 -19 -15z"/>
<path d="M1850 1730 c-9 -6 -10 -10 -3 -10 6 0 19 -3 27 -6 12 -5 15 -2 10 10
-7 18 -13 20 -34 6z"/>
<path d="M220 1690 c6 -11 16 -20 22 -20 6 0 3 9 -7 20 -10 11 -20 20 -22 20
-2 0 1 -9 7 -20z"/>
<path d="M1496 1614 c-4 -9 -4 -19 -1 -22 2 -3 7 3 11 12 4 9 4 19 1 22 -2 3
-7 -3 -11 -12z"/>
<path d="M1277 1493 c-3 -5 -2 -15 4 -23 7 -13 9 -13 9 0 0 13 1 13 10 0 5 -8
10 -10 10 -4 0 16 -27 37 -33 27z"/>
<path d="M1216 1468 c3 -5 10 -6 15 -3 13 9 11 12 -6 12 -8 0 -12 -4 -9 -9z"/>
<path d="M1341 1471 c-9 -6 -10 -11 -2 -15 13 -8 31 1 31 15 0 11 -11 11 -29
0z"/>
<path d="M1814 1445 c1 -13 8 -20 24 -21 17 -1 18 -1 3 3 -11 2 -22 12 -24 21
-3 12 -4 11 -3 -3z"/>
<path d="M1721 1414 c0 -11 3 -14 6 -6 3 7 2 16 -1 19 -3 4 -6 -2 -5 -13z"/>
<path d="M576 1407 c3 -10 9 -15 12 -12 3 3 0 11 -7 18 -10 9 -11 8 -5 -6z"/>
<path d="M131 1390 c-1 -24 33 -79 42 -70 3 3 -6 25 -18 50 -20 38 -24 41 -24
20z"/>
<path d="M632 1352 c-21 -57 -30 -101 -12 -54 12 29 60 31 67 2 3 -11 10 -20
15 -20 6 0 8 6 5 13 -3 6 -13 32 -22 57 -10 25 -21 49 -25 53 -4 4 -17 -19
-28 -51z m38 -3 c0 -10 -7 -19 -15 -19 -16 0 -19 9 -9 34 8 20 24 11 24 -15z"/>
<path d="M1150 1358 l-1 -53 -42 48 c-23 26 -45 47 -49 47 -5 0 -7 -28 -6 -62
l2 -63 3 54 4 54 50 -49 49 -48 0 62 c0 34 -2 62 -5 62 -3 0 -5 -24 -5 -52z"/>
<path d="M732 1348 c-2 -57 -2 -58 26 -57 22 1 23 2 5 6 -19 4 -23 12 -26 56
l-3 52 -2 -57z"/>
<path d="M1290 1381 c-23 -44 -10 -80 35 -94 14 -5 12 -1 -7 14 -31 23 -37 59
-12 83 8 9 11 16 5 16 -6 0 -15 -9 -21 -19z"/>
<path d="M1364 1384 c20 -19 21 -58 2 -77 -13 -12 -10 -16 20 -31 19 -9 42
-16 52 -15 9 0 1 6 -18 12 -34 12 -35 14 -32 55 3 41 -10 72 -30 72 -5 0 -2
-7 6 -16z"/>
<path d="M1412 1368 c-2 -42 6 -68 20 -68 7 0 7 4 0 13 -6 7 -12 30 -15 52
l-4 40 -1 -37z"/>
<path d="M1483 1360 c0 -25 2 -35 4 -22 2 12 2 32 0 45 -2 12 -4 2 -4 -23z"/>
<path d="M1510 1350 c0 -48 1 -50 28 -49 23 2 24 2 5 6 -14 3 -23 12 -23 23 0
11 9 20 23 23 22 4 22 4 -2 6 -18 1 -22 5 -18 21 3 11 1 20 -4 20 -5 0 -9 -22
-9 -50z"/>
<path d="M1901 1384 c0 -11 3 -14 6 -6 3 7 2 16 -1 19 -3 4 -6 -2 -5 -13z"/>
<path d="M980 1383 c0 -6 -3 -20 -6 -30 -4 -13 -3 -15 4 -4 7 10 11 10 17 1 4
-7 1 -16 -6 -21 -12 -7 -12 -9 0 -9 8 0 20 -8 28 -17 9 -13 9 -5 -3 27 -18 47
-34 73 -34 53z"/>
<path d="M1202 1338 c-12 -29 -16 -45 -8 -35 16 21 56 23 56 2 0 -8 4 -15 10
-15 7 0 -22 86 -34 98 -2 1 -13 -21 -24 -50z m27 -7 c-15 -5 -22 6 -14 19 6 9
10 9 16 -1 5 -8 4 -15 -2 -18z"/>
<path d="M810 1372 c0 -6 13 -33 28 -57 l29 -46 19 42 18 42 12 -44 c13 -48
18 -27 7 35 l-6 38 -22 -36 c-13 -21 -26 -37 -30 -37 -4 0 -18 17 -31 38 -13
21 -24 32 -24 25z"/>
<path d="M538 1358 c5 -5 16 -8 23 -6 8 3 3 7 -10 11 -17 4 -21 3 -13 -5z"/>
<path d="M803 1305 c0 -22 2 -30 4 -17 2 12 2 30 0 40 -3 9 -5 -1 -4 -23z"/>
<path d="M956 1315 c-9 -26 -7 -32 5 -12 6 10 9 21 6 23 -2 3 -7 -2 -11 -11z"/>
<path d="M1901 1316 c-7 -8 -8 -17 -3 -20 6 -3 13 1 16 10 9 23 2 28 -13 10z"/>
<path d="M1458 1303 c7 -3 16 -2 19 1 4 3 -2 6 -13 5 -11 0 -14 -3 -6 -6z"/>
<path d="M719 1202 c-4 -49 5 -59 13 -17 3 16 9 11 27 -25 l23 -44 19 36 c27
53 39 56 39 9 0 -23 3 -41 8 -41 4 0 5 30 4 67 l-4 67 -30 -52 c-16 -29 -31
-52 -34 -52 -2 0 -17 23 -33 51 l-29 51 -3 -50z"/>
<path d="M1003 1238 c-21 -27 -23 -51 -8 -74 9 -13 21 -24 28 -24 6 0 4 5 -5
11 -28 16 -24 77 5 89 15 6 17 9 6 9 -9 1 -21 -5 -26 -11z"/>
<path d="M1068 1243 c7 -3 16 -2 19 1 4 3 -2 6 -13 5 -11 0 -14 -3 -6 -6z"/>
<path d="M1123 1190 c0 -36 2 -50 4 -32 2 17 2 47 0 65 -2 17 -4 3 -4 -33z"/>
<path d="M1176 1234 c-37 -36 -5 -95 50 -93 l29 1 -31 7 c-44 11 -54 19 -54
45 0 28 15 42 50 49 l25 4 -27 2 c-15 0 -34 -6 -42 -15z"/>
<path d="M1286 1234 c-9 -8 -16 -26 -16 -39 0 -56 71 -73 99 -24 13 24 13 29
-2 53 -20 30 -57 35 -81 10z m74 -19 c12 -32 -6 -65 -35 -65 -33 0 -52 38 -35
69 14 28 60 25 70 -4z"/>
<path d="M1881 1241 c-8 -5 -11 -17 -6 -30 9 -28 22 -27 27 4 6 29 -2 38 -21
26z"/>
<path d="M902 1190 c-12 -29 -20 -55 -18 -57 2 -3 7 5 11 16 3 12 11 19 16 16
5 -3 6 1 3 9 -3 8 -3 20 1 26 5 7 15 -5 26 -29 24 -54 33 -53 10 2 -10 23 -20
48 -22 56 -3 8 -15 -10 -27 -39z"/>
<path d="M1070 1165 c0 -14 5 -25 10 -25 6 0 10 11 10 25 0 14 -4 25 -10 25
-5 0 -10 -11 -10 -25z"/>
<path d="M1836 1141 c-15 -16 -15 -19 -1 -31 12 -10 15 -10 15 0 0 8 3 11 6 7
3 -3 0 -15 -8 -26 -8 -12 -18 -18 -22 -13 -4 4 -2 -6 5 -21 12 -27 13 -28 21
-8 4 12 20 33 35 46 27 24 27 26 10 39 -11 8 -26 12 -35 9 -10 -4 -13 -2 -8 5
11 18 1 14 -18 -7z"/>
<path d="M299 1079 c34 -28 61 -57 61 -64 0 -7 3 -21 7 -31 4 -11 3 -15 -5
-10 -8 5 -8 -1 -1 -24 14 -38 21 -39 14 -2 l-6 27 16 -25 c9 -14 14 -18 11 -9
-2 10 -10 36 -17 59 -9 30 -24 49 -55 70 -23 16 -44 36 -47 45 -4 8 -14 15
-23 15 -9 0 11 -22 45 -51z"/>
<path d="M540 1066 c0 -2 7 -7 16 -10 8 -3 12 -2 9 4 -6 10 -25 14 -25 6z"/>
<path d="M490 1052 c0 -5 7 -9 15 -9 8 0 12 4 9 9 -3 4 -9 8 -15 8 -5 0 -9 -4
-9 -8z"/>
<path d="M850 1050 c-8 -5 -12 -12 -9 -15 4 -3 12 1 19 10 14 17 11 19 -10 5z"/>
<path d="M725 988 c0 -30 27 -67 52 -70 11 -1 83 -120 83 -135 0 -7 -8 -13
-18 -13 -11 0 -18 -8 -18 -21 0 -18 5 -20 38 -17 21 2 38 -1 39 -7 0 -5 2 -20
5 -32 2 -13 -1 -23 -6 -23 -6 0 -10 5 -10 10 0 16 -22 12 -36 -7 -12 -16 -13
-16 -8 -1 5 14 -2 16 -40 16 -51 0 -53 -3 -30 -37 l17 -23 -25 16 c-14 9 -28
13 -33 9 -4 -5 -5 -3 -2 3 4 7 0 17 -7 23 -12 10 -14 8 -12 -12 4 -38 15 -50
32 -36 9 7 14 8 12 3 -5 -17 23 -54 40 -53 16 1 16 2 0 6 -30 8 -20 20 12 15
17 -2 30 -8 30 -13 0 -5 8 -9 18 -9 14 0 15 2 2 10 -10 6 -11 10 -2 10 6 0 12
7 12 15 0 19 24 19 40 0 9 -11 17 -12 31 -5 10 6 22 10 26 9 20 -3 27 2 13 12
-11 8 -12 12 -2 16 7 2 19 11 27 19 13 13 14 11 10 -18 -4 -26 -3 -29 4 -13 5
11 10 15 10 8 1 -7 8 -10 16 -7 8 4 15 1 15 -5 0 -6 -5 -11 -11 -11 -5 0 -7
-4 -4 -10 10 -16 25 -12 26 8 1 9 4 4 8 -13 l7 -30 8 33 c4 17 12 32 18 32 6
0 8 7 4 15 -3 8 0 15 6 15 6 0 8 3 4 7 -12 12 -108 13 -123 2 -9 -9 -13 -9
-13 0 0 6 -7 11 -15 11 -8 0 -15 -9 -15 -21 0 -11 -4 -18 -9 -14 -5 3 -12 -3
-14 -12 -3 -10 -5 -4 -5 12 0 37 -11 88 -20 95 -4 3 -25 38 -46 79 -22 41 -49
86 -60 99 -12 14 -35 40 -51 59 l-30 34 0 -33z m365 -333 c0 -8 -4 -15 -8 -15
-5 0 -9 7 -9 15 0 8 4 15 9 15 4 0 8 -7 8 -15z"/>
<path d="M900 986 c0 -9 5 -16 10 -16 6 0 10 4 10 9 0 6 -4 13 -10 16 -5 3
-10 -1 -10 -9z"/>
<path d="M1153 920 c-13 -5 -23 -15 -22 -22 0 -10 2 -10 6 0 2 6 13 12 24 12
10 0 19 5 19 10 0 6 -1 10 -2 9 -2 0 -13 -4 -25 -9z"/>
<path d="M1272 918 c-7 -7 -12 -21 -12 -31 0 -10 -9 -21 -19 -24 -11 -3 -21
-17 -25 -34 -3 -16 -11 -29 -17 -29 -7 0 -18 -8 -26 -17 -14 -17 -14 -17 -9 0
11 33 -25 14 -39 -20 -12 -28 -12 -33 0 -33 7 0 16 -6 18 -12 3 -7 6 0 6 16 1
21 5 27 16 22 9 -3 15 0 15 10 0 25 30 28 51 5 18 -19 17 -25 -3 -22 -5 0 -8
-3 -8 -8 0 -13 22 -19 40 -11 44 21 79 27 91 16 9 -8 10 -8 5 2 -5 8 1 12 18
12 14 0 28 4 31 10 4 6 -1 7 -11 3 -13 -5 -16 -3 -11 10 3 9 1 19 -5 23 -7 5
-8 2 -3 -6 5 -9 4 -11 -3 -6 -17 10 -15 20 8 46 11 13 20 27 20 31 0 10 -41
39 -55 39 -5 0 -2 -5 8 -11 9 -5 17 -14 17 -19 0 -15 -27 -12 -61 5 -33 18
-30 39 4 30 17 -5 19 -4 7 4 -20 14 -33 14 -48 -1z"/>
<path d="M1767 912 c-19 -20 -23 -37 -7 -27 10 6 33 45 27 45 -2 0 -11 -8 -20
-18z"/>
<path d="M404 907 c3 -10 6 -26 6 -35 0 -12 3 -13 11 -5 8 8 7 17 -6 35 -12
16 -16 18 -11 5z"/>
<path d="M1723 902 c1 -14 5 -18 11 -12 7 7 6 14 -1 21 -9 9 -12 7 -10 -9z"/>
<path d="M280 885 c0 -5 5 -17 10 -25 5 -8 10 -10 10 -5 0 6 -5 17 -10 25 -5
8 -10 11 -10 5z"/>
<path d="M1146 856 c5 -21 4 -27 -5 -22 -6 4 -11 2 -11 -3 0 -16 20 -13 26 3
3 8 1 23 -5 33 -9 15 -10 13 -5 -11z"/>
<path d="M581 854 c0 -11 3 -14 6 -6 3 7 2 16 -1 19 -3 4 -6 -2 -5 -13z"/>
<path d="M1090 855 c0 -18 -26 -20 -33 -2 -3 7 -6 5 -6 -5 -1 -14 7 -17 33
-16 31 1 34 3 25 20 -12 22 -19 23 -19 3z"/>
<path d="M555 851 c-3 -5 -1 -12 5 -16 5 -3 10 1 10 9 0 18 -6 21 -15 7z"/>
<path d="M1026 835 c4 -8 1 -15 -5 -15 -6 0 -8 -7 -4 -17 4 -10 2 -14 -4 -10
-6 4 -10 -3 -10 -18 0 -15 5 -25 13 -25 8 0 14 3 15 8 0 4 2 26 4 50 2 23 -1
42 -6 42 -4 0 -6 -7 -3 -15z"/>
<path d="M477 803 c-12 -12 -7 -22 8 -17 8 4 15 10 15 15 0 11 -14 12 -23 2z"/>
<path d="M741 801 c-10 -7 -10 -10 -1 -16 7 -4 16 -2 20 5 4 7 15 10 25 7 9
-4 14 -3 10 3 -8 12 -35 13 -54 1z"/>
<path d="M801 773 c0 -7 -9 -13 -18 -13 -16 -1 -16 -2 2 -17 16 -12 16 -14 3
-10 -10 3 -20 2 -23 -3 -4 -6 3 -10 15 -10 23 0 34 19 27 47 -3 10 -5 12 -6 6z"/>
<path d="M963 750 c-1 -11 2 -20 8 -20 5 0 9 9 9 20 0 11 -4 20 -8 20 -4 0 -8
-9 -9 -20z"/>
<path d="M1041 756 c-17 -20 -10 -29 19 -24 19 3 19 5 8 21 -13 17 -15 17 -27
3z"/>
<path d="M660 745 c1 -17 37 -58 42 -49 3 5 -5 20 -18 34 -13 13 -24 20 -24
15z"/>
<path d="M1340 709 c0 -5 5 -7 10 -4 6 3 10 8 10 11 0 2 -4 4 -10 4 -5 0 -10
-5 -10 -11z"/>
<path d="M640 699 c0 -5 5 -7 10 -4 6 3 10 8 10 11 0 2 -4 4 -10 4 -5 0 -10
-5 -10 -11z"/>
<path d="M385 690 c-3 -5 -1 -10 4 -10 6 0 11 5 11 10 0 6 -2 10 -4 10 -3 0
-8 -4 -11 -10z"/>
<path d="M1277 694 c-3 -3 -32 -7 -64 -8 -32 -1 -57 -6 -57 -12 1 -5 -7 -26
-17 -46 -21 -41 -25 -63 -9 -53 6 4 8 11 5 16 -4 5 -2 9 4 9 5 0 13 9 16 20 3
11 11 20 16 20 6 0 6 -7 -1 -19 -15 -29 -13 -32 16 -21 14 6 35 10 47 10 16 0
30 14 49 45 18 30 23 45 14 45 -7 0 -15 -3 -19 -6z"/>
<path d="M1311 651 c-17 -16 -31 -33 -31 -38 0 -4 7 1 15 11 8 11 15 14 15 8
0 -11 -71 -62 -104 -76 -7 -3 -6 -8 4 -15 8 -6 10 -11 5 -11 -6 0 -16 5 -23
12 -6 6 -15 8 -19 3 -5 -4 -2 -10 5 -12 6 -3 12 -11 12 -19 0 -10 14 -14 50
-14 28 0 50 -4 50 -8 0 -5 7 -17 15 -28 15 -19 15 -19 9 1 -6 18 -5 18 15 -2
12 -13 27 -23 34 -23 7 1 2 9 -11 20 -17 14 -21 25 -16 44 8 34 22 33 35 -1 7
-17 13 -23 16 -15 3 7 -5 24 -17 37 -15 16 -20 30 -15 42 3 10 10 40 14 66 l8
48 -28 -33 c-31 -36 -38 -32 -13 7 22 33 13 31 -25 -4z m20 -64 c-10 -9 -11
-8 -5 6 3 10 9 15 12 12 3 -3 0 -11 -7 -18z"/>
<path d="M652 658 c6 -18 25 -21 25 -3 0 8 -7 15 -14 15 -8 0 -13 -5 -11 -12z"/>
<path d="M945 591 c-3 -5 -1 -12 5 -16 6 -4 8 -10 5 -15 -3 -5 -1 -12 5 -15 7
-4 10 5 8 24 -2 31 -12 40 -23 22z"/>
<path d="M903 573 c-10 -3 -10 -10 -2 -25 9 -17 9 -20 -4 -15 -9 3 -18 -1 -22
-11 -5 -15 -9 -14 -25 8 -11 14 -20 20 -20 14 0 -6 8 -18 18 -27 16 -14 21
-15 44 -2 15 7 35 15 45 18 17 4 17 5 0 6 -10 0 -15 6 -12 11 3 6 1 10 -5 10
-6 0 -8 5 -5 10 7 11 6 11 -12 3z"/>
<path d="M1430 464 c0 -10 -6 -14 -15 -10 -19 7 -19 -8 0 -24 18 -15 21 -13
30 23 5 17 3 27 -4 27 -6 0 -11 -7 -11 -16z"/>
<path d="M736 419 c2 -4 0 -10 -6 -14 -10 -6 -15 -202 -5 -227 4 -10 65 -13
309 -12 166 0 308 4 314 8 16 10 16 210 1 234 -17 27 -64 17 -79 -16 l-12 -27
-14 27 c-14 26 -16 27 -93 25 -51 -2 -85 -8 -96 -17 -15 -12 -19 -12 -29 0 -8
11 -35 16 -91 17 -78 3 -81 2 -97 -24 l-16 -27 -12 26 c-9 19 -21 27 -45 30
-19 2 -32 1 -29 -3z m354 -69 c0 -5 -2 -10 -4 -10 -3 0 -8 5 -11 10 -3 6 -1
10 4 10 6 0 11 -4 11 -10z m-29 -30 c6 0 7 5 3 12 -4 7 -3 8 4 4 7 -4 12 -17
11 -29 0 -12 -3 -16 -6 -9 -8 21 -23 13 -23 -14 0 -14 -4 -23 -10 -19 -6 4 -8
10 -5 15 3 5 -5 16 -17 24 l-22 16 22 0 c14 0 22 6 23 18 1 16 2 16 6 0 2 -10
9 -18 14 -18z m-85 -54 c-1 -38 -16 -39 -16 0 0 13 -4 24 -10 24 -19 0 -10
-49 12 -64 25 -18 113 -21 152 -6 20 7 26 16 26 40 0 16 -4 30 -10 30 -5 0
-10 -5 -10 -11 0 -5 -5 -7 -10 -4 -16 10 -1 25 25 25 22 0 24 -3 18 -32 -9
-50 -26 -62 -95 -66 -82 -5 -115 8 -126 50 -11 40 -7 48 22 48 19 0 22 -5 22
-34z m92 -33 c-10 -2 -26 -2 -35 0 -10 3 -2 5 17 5 19 0 27 -2 18 -5z"/>
<path d="M45 399 c-10 -15 2 -23 36 -25 23 -1 29 3 29 18 0 18 -2 19 -17 7
-13 -11 -17 -11 -20 -1 -6 15 -20 16 -28 1z"/>
<path d="M1412 401 c2 -7 7 -12 11 -12 12 1 9 15 -3 20 -7 2 -11 -2 -8 -8z"/>
<path d="M46 351 c-2 -3 -2 -19 -2 -36 1 -26 5 -30 34 -31 31 -2 32 0 32 36 0
34 -2 37 -30 37 -17 0 -32 -3 -34 -6z m50 -22 c8 -14 -18 -31 -30 -19 -9 9 0
30 14 30 5 0 12 -5 16 -11z"/>
<path d="M1790 230 c0 -5 5 -10 10 -10 6 0 10 5 10 10 0 6 -4 10 -10 10 -5 0
-10 -4 -10 -10z"/>
<path d="M921 118 c2 -28 2 -29 6 -8 3 14 10 28 17 32 7 5 5 8 -6 8 -14 0 -18
-8 -17 -32z"/>
<path d="M955 129 c-4 -11 -5 -23 -2 -25 11 -12 168 -10 178 2 15 19 -13 24
-34 6 -9 -8 -20 -12 -24 -8 -4 4 -1 11 7 16 8 6 11 10 7 10 -4 0 -20 -8 -34
-17 -23 -15 -26 -16 -21 -2 4 11 -1 15 -22 13 -16 -1 -34 -5 -40 -9 -9 -5 -10
-1 -5 14 3 11 4 21 1 21 -2 0 -8 -9 -11 -21z"/>
<path d="M290 10 c0 -5 7 -10 16 -10 8 0 12 5 9 10 -3 6 -10 10 -16 10 -5 0
-9 -4 -9 -10z"/>
</g>
</svg>
