<?xml version="1.0" standalone="no"?>
<!DOCTYPE svg PUBLIC "-//W3C//DTD SVG 20010904//EN"
 "http://www.w3.org/TR/2001/REC-SVG-20010904/DTD/svg10.dtd">
<svg version="1.0" xmlns="http://www.w3.org/2000/svg"
 width="80" height="120" viewBox="0 0 696 1000"
 preserveAspectRatio="xMidYMid meet">

<g transform="translate(0.000000,957.000000) scale(0.100000,-0.100000)"
fill="#000000" stroke="none">
<path d="M4000 9559 c0 -5 5 -7 10 -4 6 3 10 8 10 11 0 2 -4 4 -10 4 -5 0 -10
-5 -10 -11z"/>
<path d="M4418 9563 c-20 -5 -25 -43 -6 -43 6 0 19 6 27 14 9 8 32 19 51 24
l35 10 -45 0 c-25 0 -53 -2 -62 -5z"/>
<path d="M4640 9555 c0 -11 -11 -15 -40 -15 -22 0 -40 5 -40 10 0 6 -7 10 -15
10 -8 0 -15 -4 -15 -10 0 -5 7 -10 15 -10 28 0 15 -31 -17 -45 -24 -9 -37 -10
-46 -3 -9 8 -11 7 -7 -4 5 -11 -1 -14 -25 -10 -20 3 -37 -2 -50 -13 -13 -12
-29 -16 -47 -12 -56 11 -208 -31 -228 -63 -4 -6 -11 -8 -16 -5 -5 4 -9 -1 -9
-10 0 -8 -10 -19 -22 -24 -85 -33 -119 -51 -170 -91 -31 -25 -80 -63 -109 -85
-29 -22 -63 -50 -76 -62 -26 -25 -39 -30 -27 -11 4 7 3 8 -4 4 -6 -4 -9 -12
-7 -19 8 -20 -7 -33 -62 -52 -29 -11 -53 -23 -53 -27 0 -5 -19 -6 -42 -3 -28
3 -38 2 -29 -4 8 -5 21 -7 30 -4 9 2 3 -7 -14 -21 -16 -14 -35 -26 -42 -26
-19 0 -25 17 -8 24 8 3 15 11 15 17 0 7 -8 5 -20 -6 -12 -10 -18 -25 -16 -32
3 -7 -1 -19 -9 -27 -8 -8 -15 -20 -15 -26 0 -7 -7 -10 -15 -6 -9 3 -15 0 -15
-9 0 -8 -6 -15 -14 -15 -7 0 -16 -10 -19 -21 -5 -18 -11 -20 -34 -15 -27 7
-27 7 -8 -8 20 -15 20 -15 -3 -9 -17 4 -21 2 -17 -9 7 -18 -98 -123 -123 -123
-9 0 -15 -4 -12 -10 3 -5 12 -8 19 -7 18 5 7 -12 -50 -73 -21 -22 -48 -54 -61
-72 -34 -47 -111 -146 -125 -161 -7 -7 -13 -22 -13 -32 0 -10 -16 -39 -35 -64
-19 -26 -35 -53 -35 -61 0 -8 -4 -15 -10 -15 -5 0 -10 -6 -10 -13 0 -7 -6 -19
-12 -26 -7 -6 -13 -15 -13 -19 0 -21 -52 -112 -62 -108 -12 5 -28 -23 -18 -32
3 -3 5 1 5 8 0 7 2 11 5 8 8 -8 -6 -39 -15 -33 -5 3 -6 -3 -4 -12 7 -25 -40
-149 -54 -145 -7 1 -12 -5 -12 -13 0 -8 -4 -15 -10 -15 -5 0 -10 -4 -10 -10 0
-5 6 -7 14 -4 9 3 15 -4 18 -20 4 -18 1 -26 -9 -26 -8 0 -12 -4 -9 -9 3 -5 -3
-20 -15 -34 -16 -22 -20 -39 -18 -99 2 -68 -14 -139 -28 -125 -3 3 2 24 11 47
19 47 19 50 7 50 -5 0 -13 -15 -17 -32 -6 -28 -8 -30 -14 -14 -6 19 -7 19 -12
-2 -4 -12 -2 -20 3 -16 5 3 9 -1 9 -10 0 -8 3 -22 7 -32 4 -12 3 -15 -5 -10
-12 7 -17 -11 -13 -42 1 -8 -4 -23 -11 -35 -8 -12 -15 -38 -16 -57 -2 -19 -7
-37 -13 -41 -6 -3 -7 -18 -3 -33 3 -14 2 -32 -4 -39 -5 -6 -12 -57 -14 -112
-3 -62 -9 -100 -17 -103 -6 -2 -9 -8 -6 -12 3 -5 7 -36 8 -68 2 -54 1 -59 -18
-55 -11 2 -14 1 -7 -3 17 -8 15 -49 -3 -64 -8 -7 -15 -19 -15 -26 0 -8 -6 -14
-14 -14 -9 0 -12 9 -9 28 l5 27 -17 -23 c-11 -15 -14 -27 -7 -35 18 -24 22
-46 6 -40 -7 3 -14 1 -14 -5 0 -5 9 -12 20 -15 19 -5 24 3 21 31 -1 6 3 12 9
12 5 0 10 7 10 15 0 20 35 76 43 68 11 -10 8 -35 -2 -28 -13 7 -21 -23 -23
-79 0 -25 -4 -46 -9 -46 -5 0 -9 -7 -9 -15 0 -22 -12 -18 -35 11 l-21 27 -36
-49 c-19 -27 -39 -60 -43 -74 -7 -22 -6 -23 9 -8 9 9 16 22 16 28 0 15 61 72
69 65 3 -3 -1 -10 -8 -14 -17 -11 1 -23 22 -15 8 3 17 -2 20 -10 4 -9 1 -13
-6 -10 -7 2 -20 -8 -30 -23 l-18 -28 4 28 c2 15 0 27 -5 27 -5 0 -8 -12 -6
-27 2 -21 8 -27 21 -25 17 3 17 1 2 -28 -11 -21 -13 -35 -6 -49 7 -12 7 -21 0
-28 -8 -8 -7 -13 0 -17 6 -4 11 -14 11 -22 0 -8 -4 -12 -10 -9 -5 3 -10 1 -10
-4 0 -6 4 -11 10 -11 11 0 1 -32 -12 -41 -13 -9 -23 -119 -11 -119 6 0 16 -27
23 -61 7 -33 19 -63 27 -66 18 -7 17 -33 -2 -33 -8 0 -15 9 -15 20 0 11 -4 20
-10 20 -6 0 -10 -27 -10 -60 0 -47 -3 -60 -15 -60 -11 0 -15 11 -15 39 0 22
-4 41 -9 43 -14 5 -26 158 -12 158 12 0 16 102 4 113 -15 15 -33 -50 -33 -119
l0 -74 -80 0 -80 0 0 -50 c0 -38 -4 -50 -15 -50 -8 0 -15 5 -15 10 0 6 -11 10
-25 10 -22 0 -25 4 -25 40 0 36 -2 40 -25 40 -22 0 -25 4 -25 40 0 29 -4 40
-15 40 -12 0 -15 -21 -17 -122 -1 -68 -3 -104 -5 -80 -3 34 -8 42 -24 42 -16
0 -19 7 -19 40 l0 40 -65 0 -65 0 0 -40 c0 -22 5 -40 10 -40 6 0 10 -18 10
-40 l0 -40 -40 0 c-40 0 -40 0 -40 39 0 22 4 41 9 43 5 2 12 38 16 81 6 67 5
77 -9 77 -13 0 -16 -13 -16 -80 0 -47 -4 -80 -10 -80 -5 0 -10 -18 -10 -40 0
-22 5 -40 10 -40 6 0 10 -7 10 -15 0 -11 -11 -15 -40 -15 -36 0 -40 -2 -40
-25 0 -22 4 -25 40 -25 l40 0 0 -40 0 -40 -50 0 -50 0 0 40 c0 23 -5 40 -11
40 -8 0 -10 17 -7 50 4 38 2 50 -8 50 -8 0 -14 9 -14 20 0 11 7 20 15 20 8 0
15 5 15 10 0 6 7 10 15 10 10 0 15 10 15 28 -1 26 -1 26 -15 8 -8 -11 -15 -23
-15 -28 0 -4 -3 -8 -7 -8 -12 0 -43 59 -43 81 0 11 -5 17 -10 14 -6 -3 -10
-26 -10 -51 0 -37 3 -44 20 -44 17 0 18 -3 9 -19 -7 -10 -9 -27 -5 -37 12 -32
17 -184 6 -184 -6 0 -10 33 -10 80 0 47 -4 80 -10 80 -6 0 -10 -47 -10 -120 0
-95 -3 -120 -14 -120 -17 0 -34 149 -18 159 5 3 13 41 17 84 6 67 5 77 -9 77
-12 0 -16 10 -16 40 0 22 -4 40 -10 40 -5 0 -10 -18 -10 -40 l0 -40 -45 0 -45
0 0 -40 c0 -29 -4 -40 -15 -40 -11 0 -15 11 -15 40 0 22 -4 40 -10 40 -5 0
-10 -18 -10 -40 0 -23 -5 -40 -11 -40 -8 0 -10 -18 -7 -57 3 -32 3 -50 1 -39
-4 16 -12 18 -58 13 -44 -4 -53 -3 -48 9 3 8 0 14 -6 14 -6 0 -11 9 -11 20 0
11 5 20 10 20 6 0 10 5 10 11 0 5 -8 9 -17 8 -10 -1 -35 -1 -55 0 -37 1 -38 2
-38 41 0 39 -1 40 -34 40 -34 0 -35 -1 -39 -42 l-4 -43 -1 43 c-1 30 -6 42
-17 42 -11 0 -15 -11 -15 -40 l0 -40 -40 0 -40 0 0 -40 c0 -29 -4 -40 -15 -40
-11 0 -15 11 -15 40 0 29 4 40 15 40 12 0 15 14 15 65 l0 65 40 0 c29 0 40 4
40 15 0 8 -4 15 -10 15 -5 0 -10 18 -10 40 0 33 -3 40 -20 40 -17 0 -20 -7
-20 -40 0 -33 -3 -40 -20 -40 -17 0 -20 -7 -20 -40 0 -33 -4 -40 -19 -40 -16
0 -20 11 -26 77 -5 54 -4 78 4 81 6 2 11 21 11 43 0 39 0 39 40 39 l40 0 0 40
c0 29 -4 40 -15 40 -9 0 -15 -9 -15 -25 0 -22 -4 -25 -40 -25 -38 0 -40 -2
-40 -30 0 -31 -16 -41 -26 -15 -4 8 -17 15 -30 15 -20 0 -24 5 -24 29 0 43
-11 91 -21 91 -12 0 -1 -108 14 -140 17 -36 44 -60 67 -60 19 0 20 -7 20 -100
0 -82 -3 -100 -15 -100 -8 0 -15 9 -15 20 0 15 -7 20 -25 20 -25 0 -25 1 -25
91 0 57 -4 88 -10 84 -12 -8 -13 -175 -1 -175 5 0 11 -18 13 -40 l4 -40 -43 0
-43 0 0 40 c0 22 5 40 10 40 13 0 13 167 0 175 -6 4 -10 -13 -10 -44 0 -32 -4
-51 -12 -51 -8 0 -9 -32 -5 -120 6 -103 5 -120 -8 -120 -11 0 -15 11 -15 40 0
22 -4 40 -10 40 -6 0 -10 33 -10 80 0 47 -4 80 -10 80 -5 0 -10 -18 -10 -40 0
-33 -3 -40 -19 -40 -16 0 -21 -8 -24 -42 l-4 -43 -1 43 c-1 30 -6 42 -17 42
-11 0 -15 -11 -15 -40 l0 -40 -40 0 -40 0 0 40 0 40 -90 0 -90 0 0 40 c0 33
-3 40 -20 40 -17 0 -20 -7 -20 -40 0 -36 -2 -40 -25 -40 -22 0 -25 -4 -25 -40
0 -38 1 -40 33 -41 17 0 25 -3 17 -6 -8 -3 -18 -11 -22 -17 -5 -7 -14 -3 -28
11 -16 18 -20 35 -20 98 0 73 -1 75 -25 75 -22 0 -25 -4 -25 -40 0 -22 5 -40
10 -40 6 0 10 -18 10 -40 0 -29 -4 -40 -15 -40 -12 0 -15 -16 -15 -80 0 -47
-4 -80 -10 -80 -6 0 -10 33 -10 80 l0 80 -55 0 -55 0 0 -2412 c0 -2074 2
-2410 14 -2392 25 35 126 232 126 244 0 16 78 193 124 280 19 36 56 108 83
160 70 133 99 183 153 264 26 39 77 128 113 198 37 70 88 160 113 200 54 85
181 214 239 243 22 11 41 23 43 27 2 5 9 8 16 8 7 0 33 15 57 33 60 46 81 56
138 67 27 5 90 28 141 50 59 27 122 47 177 56 48 7 105 20 127 29 23 8 84 22
136 30 252 40 348 59 570 113 228 56 265 64 315 74 28 6 57 14 65 19 44 25
103 48 112 43 5 -3 14 -1 21 4 7 5 21 12 32 14 11 3 28 9 37 13 13 5 15 2 10
-17 -5 -22 -5 -22 19 -6 29 18 44 21 112 19 35 -1 47 -5 47 -16 0 -12 7 -14
28 -9 15 4 29 8 31 10 2 2 13 -4 23 -13 14 -13 21 -14 30 -5 20 20 58 15 58
-7 0 -24 5 -27 53 -36 30 -6 37 -4 37 9 0 19 -11 21 -28 4 -9 -9 -12 -8 -12 5
0 14 66 56 74 46 1 -2 -1 -85 -6 -184 -14 -340 -27 -770 -26 -880 1 -108 1
-109 9 -40 4 39 8 98 9 132 3 84 36 96 54 20 4 -15 14 -31 24 -34 23 -9 33
-25 26 -45 -3 -10 -2 -27 1 -39 7 -19 8 -20 26 -3 22 19 24 18 38 -16 6 -16
10 -19 10 -9 1 14 31 37 35 27 1 -2 6 -12 12 -23 8 -15 8 -25 0 -38 -8 -12 -8
-22 2 -37 7 -12 8 -20 2 -20 -5 0 -10 -7 -10 -15 0 -20 19 -19 27 1 3 8 15 20
27 25 11 5 29 15 38 21 15 11 20 9 33 -10 20 -28 35 -28 35 -1 0 16 4 19 20
14 14 -5 20 -2 20 9 0 23 43 20 64 -3 12 -13 15 -27 11 -41 -5 -16 -3 -21 6
-18 7 2 13 12 15 21 4 26 28 77 36 77 5 0 8 -7 8 -15 0 -8 5 -15 10 -15 19 0
10 -41 -15 -74 -31 -41 -31 -50 0 -44 19 4 25 1 25 -13 0 -21 20 -27 20 -6 1
6 9 22 19 35 15 17 30 22 70 22 l51 0 0 34 c0 19 6 37 13 39 9 4 8 8 -3 16 -8
6 -19 12 -25 14 -6 2 -5 10 3 20 8 9 12 35 11 62 -2 30 2 49 10 54 9 6 10 11
2 15 -18 11 -13 40 9 54 17 10 23 10 36 -3 9 -8 20 -15 25 -15 6 0 7 -5 3 -12
-5 -8 -2 -9 10 -5 10 4 24 7 32 7 8 0 14 7 14 15 0 8 3 15 6 15 10 0 34 -28
34 -39 0 -6 4 -11 9 -11 5 0 9 6 8 12 0 7 1 33 1 57 2 38 4 43 22 38 11 -3 20
-1 20 4 0 14 33 10 55 -7 11 -8 19 -17 18 -19 -9 -15 0 -13 19 5 38 35 53 27
48 -29 -1 -16 3 -22 12 -19 7 3 12 17 11 31 -1 15 2 26 6 24 5 -1 25 13 44 30
23 21 39 29 43 22 4 -6 0 -15 -7 -20 -7 -4 -11 -11 -7 -14 3 -4 15 2 27 11 15
13 17 21 10 30 -14 18 53 30 78 15 14 -9 11 -10 -19 -5 -45 7 -50 -7 -10 -26
18 -8 22 -14 13 -18 -7 -2 -17 1 -21 8 -6 9 -9 9 -15 0 -4 -6 -2 -17 4 -23 6
-6 11 -19 11 -29 0 -11 7 -18 20 -18 16 0 40 -26 40 -44 0 -3 -13 -6 -30 -6
-23 0 -30 -5 -30 -19 0 -30 -24 -43 -67 -36 -36 6 -37 5 -14 -8 18 -11 20 -16
10 -20 -8 -3 -5 -6 9 -6 12 -1 34 6 48 15 20 14 30 15 50 5 14 -6 34 -11 44
-11 24 0 26 -13 5 -34 -8 -8 -15 -23 -14 -33 0 -14 2 -15 7 -3 4 8 18 15 31
15 27 0 43 -31 30 -57 -6 -11 -5 -19 2 -24 8 -4 7 -9 -2 -15 -11 -7 -11 -9 2
-9 31 0 76 178 49 195 -5 3 -10 16 -9 28 0 12 3 16 6 10 2 -7 11 -13 20 -13
10 0 12 6 7 23 -4 12 -8 60 -9 107 -3 105 -2 100 -21 100 -9 0 -14 6 -11 13
19 45 19 47 3 47 -9 0 -16 5 -16 10 0 6 10 8 24 4 29 -7 43 11 19 25 -17 10
-17 10 -1 11 17 0 17 1 1 20 -13 14 -20 17 -30 8 -8 -6 -13 -7 -13 0 0 17 25
31 40 22 9 -5 19 -5 26 1 9 7 14 4 19 -10 3 -12 3 -25 0 -31 -3 -5 -2 -10 4
-10 19 0 22 20 6 50 -8 16 -22 30 -29 30 -32 0 -25 49 7 50 4 0 7 5 7 10 0 6
-12 10 -27 10 -21 0 -24 3 -14 9 12 8 13 12 1 26 -9 11 -10 19 -3 26 8 8 13 2
18 -19 8 -36 26 -46 52 -27 16 13 16 16 3 24 -13 9 -12 12 5 26 19 14 19 16 3
26 -21 12 -24 29 -4 29 7 0 21 11 30 25 9 14 12 25 6 25 -6 0 -9 19 -8 45 2
30 7 44 15 41 13 -5 29 31 19 41 -3 4 -6 -1 -6 -10 0 -9 -7 -17 -15 -17 -19 0
-19 9 0 34 8 10 12 23 8 29 -3 6 -1 7 5 3 6 -3 12 -1 15 6 2 7 2 3 0 -10 -2
-15 2 -22 12 -22 8 0 15 9 15 20 0 11 4 20 10 20 5 0 7 -8 4 -17 -5 -15 -4
-15 4 -4 6 8 7 22 3 30 -5 9 -6 22 -4 29 7 18 -5 15 -45 -15 -36 -26 -36 -26
-16 -3 12 14 29 39 38 55 14 24 16 25 13 8 -6 -28 9 -30 18 -3 3 11 11 20 16
20 5 0 9 6 9 14 0 7 7 19 15 26 17 14 21 0 4 -17 -9 -9 -7 -16 5 -29 13 -12
20 -14 29 -5 8 8 7 11 -6 11 -9 0 -17 4 -17 9 0 5 16 8 35 7 36 -3 40 3 37 47
-2 19 9 22 24 7 12 -12 44 -3 44 12 0 5 -8 8 -17 6 -13 -2 -18 4 -20 22 -1 22
-1 22 4 2 4 -20 6 -21 20 -6 9 8 21 13 28 10 13 -5 55 36 55 54 0 6 -9 10 -20
10 -11 0 -20 5 -20 10 0 10 19 14 52 12 21 -2 43 25 43 53 1 16 -4 21 -15 18
-8 -2 -3 3 12 11 17 10 25 22 22 31 -4 8 -2 15 4 15 15 0 21 37 9 49 -8 8 -6
11 6 11 9 0 17 6 17 14 0 8 10 16 23 18 23 4 24 8 12 46 -3 12 -2 22 3 22 6 0
13 -11 16 -25 4 -14 14 -25 22 -25 12 0 15 6 11 22 -8 29 27 68 53 61 11 -3
16 -11 13 -19 -3 -7 5 -27 16 -43 13 -18 17 -32 11 -36 -5 -3 -10 -14 -10 -23
0 -11 3 -13 11 -5 11 11 49 6 49 -7 0 -4 -7 -10 -15 -14 -18 -7 -21 -71 -3
-82 7 -5 9 -1 6 12 -4 14 0 20 13 20 22 0 22 2 9 -31 -5 -14 -13 -24 -17 -22
-5 3 -8 -5 -9 -16 0 -12 -4 -37 -8 -55 -8 -33 -7 -33 12 -17 11 10 18 26 16
39 -2 11 -1 15 2 8 5 -10 9 -9 19 5 16 22 27 13 29 -24 1 -15 5 -33 9 -40 4
-7 5 -23 1 -37 -4 -17 -1 -27 12 -34 14 -8 15 -14 6 -42 -10 -27 -9 -31 3 -26
10 3 14 -1 13 -12 -1 -9 0 -28 0 -42 3 -41 25 -6 26 41 1 26 6 44 15 47 9 3
11 -1 7 -15 -4 -11 -2 -31 3 -44 10 -24 10 -24 10 4 1 16 6 38 12 49 8 14 8
23 0 31 -6 6 -11 18 -11 27 0 13 2 13 9 1 8 -12 11 -8 15 15 18 87 29 120 47
137 17 16 24 42 20 75 -1 8 3 19 9 27 6 7 15 32 20 56 9 42 9 42 5 -13 -3 -32
-3 -58 0 -58 2 0 10 20 16 45 6 25 15 45 20 45 5 0 6 7 3 15 -8 20 24 31 46
17 13 -8 21 -7 33 5 13 13 19 14 31 3 9 -7 16 -9 16 -6 0 11 45 -23 46 -34 1
-6 2 -14 3 -20 0 -5 12 -10 26 -10 21 0 50 -13 84 -37 2 -1 -2 -11 -10 -20
-12 -16 -12 -17 2 -5 13 10 24 8 63 -14 25 -14 48 -30 51 -35 4 -5 13 -9 22
-9 9 0 24 -6 32 -14 9 -7 43 -21 76 -31 33 -10 112 -43 175 -73 63 -29 158
-71 211 -92 167 -67 428 -200 423 -214 -4 -11 4 -12 43 -4 85 16 241 -12 308
-56 12 -8 58 -34 101 -59 146 -81 159 -89 249 -156 131 -97 146 -106 270 -159
22 -9 60 -35 85 -57 25 -23 61 -52 80 -67 65 -48 201 -190 237 -246 20 -32 69
-88 109 -125 63 -58 80 -82 123 -170 82 -170 131 -277 131 -287 0 -6 4 -10 9
-10 12 0 49 -71 52 -101 1 -13 -6 -42 -16 -64 -10 -22 -19 -44 -19 -50 -1 -5
-3 -12 -6 -15 -17 -16 -44 -67 -42 -78 2 -6 -2 -12 -8 -12 -5 0 -10 -7 -10
-15 0 -9 6 -12 15 -8 13 4 15 0 11 -22 -6 -35 -16 -45 -16 -17 0 12 -6 21 -12
20 -8 -2 -14 11 -16 35 -2 24 1 37 9 37 7 0 10 3 6 6 -3 4 0 19 8 35 19 35 19
39 0 39 -8 0 -15 1 -15 3 0 10 42 88 46 85 2 -3 -3 -19 -12 -37 -19 -38 -9
-56 13 -24 9 13 21 23 27 23 9 0 12 15 10 46 -3 57 -10 64 -25 30 -7 -14 -16
-26 -20 -26 -5 0 -20 -20 -35 -45 -14 -25 -29 -43 -32 -40 -3 3 0 11 6 17 7 7
12 20 12 30 0 10 5 18 10 18 6 0 10 4 10 10 0 5 -8 7 -17 4 -11 -4 -14 -3 -7
3 13 10 38 82 31 89 -3 3 -10 -11 -17 -30 -19 -58 -26 -49 -25 35 0 43 -3 79
-8 79 -4 0 -2 9 5 20 12 19 5 40 -9 26 -5 -4 -9 -77 -10 -161 0 -85 -4 -158
-7 -164 -11 -18 14 -104 55 -188 22 -46 41 -83 43 -83 1 0 1 19 1 43 -1 23 4
56 11 72 6 17 17 43 23 59 7 16 14 26 17 23 3 -2 -2 -21 -10 -41 -8 -20 -11
-36 -5 -36 5 0 9 -4 9 -10 0 -5 -8 -10 -17 -10 -15 0 -15 -2 -4 -9 12 -8 12
-12 2 -24 -9 -12 -9 -16 1 -20 11 -4 10 -7 0 -15 -11 -7 -10 -10 3 -16 24 -9
24 -9 30 27 4 18 2 45 -4 60 -7 19 -7 27 0 27 6 0 10 17 9 38 -1 20 -1 39 0
42 7 19 5 67 -3 77 -5 7 -6 21 -3 30 6 15 9 15 16 3 5 -8 7 -18 4 -22 -3 -4
11 -22 30 -38 38 -34 96 -140 96 -175 0 -42 28 -100 68 -144 46 -48 111 -166
159 -286 l32 -80 1 4358 0 4357 -2265 0 -2265 0 0 -40 c0 -23 -5 -40 -11 -40
-8 0 -8 -5 1 -15 10 -13 9 -15 -9 -15 -11 0 -21 -4 -21 -10 0 -5 -7 -10 -15
-10 -21 0 -19 9 8 31 12 10 16 18 10 19 -8 0 -13 15 -13 40 0 29 -4 40 -15 40
-11 0 -15 -12 -16 -40 -1 -22 -2 -45 -3 -50 -1 -14 -27 -30 -46 -30 -12 1 -11
3 3 14 16 13 16 14 -8 20 -21 5 -25 12 -25 46 l0 40 -50 0 c-48 0 -50 -1 -38
-20 10 -16 10 -24 0 -40 -16 -27 -15 -29 11 -25 21 4 21 4 3 -10 -17 -13 -22
-13 -36 0 -24 22 -36 18 -15 -5 10 -11 15 -20 11 -20 -11 0 -37 28 -35 37 1 4
-1 16 -6 27 -5 11 -3 26 4 37 13 22 5 25 -15 5 -16 -17 -19 -43 -3 -48 5 -2 7
-11 3 -21 -4 -10 -13 -16 -21 -13 -8 3 -11 1 -8 -4 11 -17 -22 -11 -36 7 -9
11 -10 14 -2 9 7 -4 20 -3 29 2 15 8 15 10 0 15 -21 8 -20 43 2 56 14 9 13 10
-10 11 -18 0 -28 -5 -28 -15z m850 -25 c0 -5 -4 -10 -10 -10 -5 0 -10 5 -10
10 0 6 5 10 10 10 6 0 10 -4 10 -10z m917 -32 c-3 -8 -6 -5 -6 6 -1 11 2 17 5
13 3 -3 4 -12 1 -19z m49 -5 c-10 -10 -19 5 -10 18 6 11 8 11 12 0 2 -7 1 -15
-2 -18z m-1821 -20 c3 -9 -7 -13 -30 -13 -21 0 -35 5 -35 12 0 9 -3 9 -11 1
-12 -12 -42 -6 -35 6 8 12 106 6 111 -6z m250 8 c19 -8 18 -8 -5 -21 -17 -9
-25 -10 -28 -1 -5 15 -19 14 -25 -3 -4 -10 4 -12 34 -10 44 4 51 -7 15 -24
-18 -8 -26 -8 -28 0 -3 8 -10 7 -26 -1 -18 -9 -22 -9 -20 1 2 7 -3 12 -10 10
-8 -1 -12 2 -10 8 2 7 7 11 12 10 5 -1 12 2 15 8 6 9 43 32 51 31 3 0 14 -4
25 -8z m205 -40 c0 -27 3 -51 8 -54 4 -2 1 -2 -6 0 -7 1 -22 -1 -32 -7 -13 -7
-33 -3 -77 16 -71 32 -71 31 -48 48 17 12 21 11 38 -10 16 -21 20 -22 33 -9 9
8 20 15 25 15 13 0 11 -17 -2 -26 -8 -4 -7 -9 2 -15 17 -11 39 -12 38 -1 -1 4
-1 26 0 50 1 59 21 53 21 -7z m190 29 c0 -17 -7 -20 -40 -20 -33 0 -40 -3 -40
-19 0 -12 8 -21 23 -24 12 -2 -2 -4 -31 -4 -35 0 -57 -4 -62 -13 -12 -19 -3
-27 12 -12 7 7 40 12 74 12 34 0 65 5 67 10 3 6 4 5 3 -2 -1 -7 -17 -14 -34
-16 -18 -2 -32 -7 -32 -11 0 -11 92 -1 105 10 5 6 5 9 -1 9 -6 0 -11 23 -13
50 -1 30 2 50 9 50 5 0 10 -17 10 -38 0 -21 3 -42 7 -46 9 -8 12 -46 4 -47 -3
0 -59 -2 -124 -5 -91 -4 -117 -2 -112 7 5 6 8 21 9 33 1 14 9 22 23 24 25 4
54 32 33 32 -9 0 -7 7 5 20 13 14 31 20 62 20 36 0 43 -3 43 -20z m850 -20 c0
-5 -4 -10 -10 -10 -5 0 -10 5 -10 10 0 6 5 10 10 10 6 0 10 -4 10 -10z m-1813
-16 c-3 -3 -12 -4 -19 -1 -8 3 -5 6 6 6 11 1 17 -2 13 -5z m1423 -15 c0 -5 -7
-9 -15 -9 -15 0 -20 12 -9 23 8 8 24 -1 24 -14z m-1524 -15 c-22 -8 -41 -12
-44 -9 -3 2 1 7 9 9 8 2 21 7 29 9 36 12 41 4 6 -9z m1057 -71 c-7 -2 -19 -2
-25 0 -7 3 -2 5 12 5 14 0 19 -2 13 -5z m136 -8 c13 -2 26 -7 30 -11 9 -10
-101 6 -118 17 -16 10 23 7 88 -6z m91 -10 c9 -10 17 -12 30 -5 15 8 17 6 13
-10 -7 -26 -16 -25 -49 5 -15 14 -22 25 -17 25 6 0 16 -7 23 -15z m87 9 c-3
-3 -12 -4 -19 -1 -8 3 -5 6 6 6 11 1 17 -2 13 -5z m-122 -14 c3 -5 1 -10 -4
-10 -6 0 -11 5 -11 10 0 6 2 10 4 10 3 0 8 -4 11 -10z m190 0 c3 -5 -3 -10
-15 -10 -12 0 -18 5 -15 10 3 6 10 10 15 10 5 0 12 -4 15 -10z m-60 -10 c-3
-5 -13 -10 -21 -10 -8 0 -14 5 -14 10 0 6 9 10 21 10 11 0 17 -4 14 -10z m34
-75 c16 -5 21 -4 17 4 -5 7 1 11 14 11 12 0 19 -4 16 -9 -8 -13 22 -22 50 -15
26 7 31 19 12 27 -7 3 0 6 15 6 l28 1 -28 -30 c-28 -30 -29 -31 -82 -19 -60
12 -120 47 -121 68 0 10 9 6 28 -11 15 -14 38 -29 51 -33z m-114 25 c3 -6 -1
-7 -9 -4 -18 7 -21 14 -7 14 6 0 13 -4 16 -10z m135 0 c-20 -13 -33 -13 -25 0
3 6 14 10 23 10 15 0 15 -2 2 -10z m60 -20 c0 -5 -4 -10 -10 -10 -5 0 -10 5
-10 10 0 6 5 10 10 10 6 0 10 -4 10 -10z m260 -20 c0 -5 -4 -10 -10 -10 -5 0
-10 5 -10 10 0 6 5 10 10 10 6 0 10 -4 10 -10z m-80 -16 c0 -9 -8 -23 -17 -30
-10 -7 -13 -14 -6 -14 6 0 15 5 18 10 10 16 23 12 30 -10 3 -11 13 -20 21 -20
8 0 19 -12 24 -26 11 -27 6 -44 -11 -44 -6 0 -7 5 -4 10 3 6 -4 10 -15 10 -22
0 -71 23 -103 49 -14 11 -15 17 -5 24 9 6 6 7 -10 4 -12 -3 -20 -1 -16 4 7 12
-19 12 -31 0 -6 -6 -11 -1 -11 15 -3 35 35 32 69 -7 19 -21 27 -26 27 -15 0 9
5 16 10 16 6 0 10 9 10 20 0 11 5 20 10 20 6 0 10 -7 10 -16z m155 -114 c3 -5
1 -10 -4 -10 -6 0 -11 5 -11 10 0 6 2 10 4 10 3 0 8 -4 11 -10z m-7 -36 c31
-15 51 -34 36 -34 -15 0 -84 34 -84 42 0 12 13 10 48 -8z m101 -51 c-4 -23 2
-43 11 -38 6 3 7 -1 4 -10 -5 -12 -9 -13 -20 -4 -8 6 -14 18 -14 25 0 8 -6 14
-12 14 -9 0 -8 4 2 10 18 12 30 13 29 3z m-43 -54 c19 -11 39 -29 44 -39 18
-34 10 -35 -16 -2 -14 17 -31 32 -39 32 -7 0 -18 7 -25 15 -17 21 -3 19 36 -6z
m-2629 -14 c0 -8 -6 -16 -13 -19 -7 -3 -10 2 -7 15 6 22 20 26 20 4z m2733
-60 c0 -5 -5 -3 -10 5 -5 8 -10 20 -10 25 0 6 5 3 10 -5 5 -8 10 -19 10 -25z
m-1953 19 c-3 -3 -12 -4 -19 -1 -8 3 -5 6 6 6 11 1 17 -2 13 -5z m-57 -14 c0
-5 -4 -10 -10 -10 -5 0 -10 5 -10 10 0 6 5 10 10 10 6 0 10 -4 10 -10z m2040
-42 c0 -6 -6 -5 -15 2 -8 7 -15 14 -15 16 0 2 7 1 15 -2 8 -4 15 -11 15 -16z
m64 -57 c10 -11 15 -25 11 -30 -3 -6 -2 -11 4 -11 10 0 27 -38 23 -52 -1 -5 2
-8 7 -8 5 0 11 -14 15 -31 5 -25 10 -30 26 -26 11 3 18 1 14 -4 -3 -5 1 -9 8
-9 8 0 14 -9 14 -20 0 -38 -25 -24 -81 46 -22 28 -32 55 -34 92 -1 7 -10 20
-21 29 -20 18 -27 43 -12 43 5 0 17 -9 26 -19z m-2259 -9 c-3 -3 -11 0 -18 7
-9 10 -8 11 6 5 10 -3 15 -9 12 -12z m105 9 c0 -4 -15 -11 -32 -14 -18 -3 -42
-9 -53 -13 -16 -5 -18 -4 -8 6 6 7 26 16 45 20 46 11 48 11 48 1z m2108 -21
c17 -27 10 -25 -19 6 -13 14 -17 23 -9 19 9 -3 21 -14 28 -25z m-1048 -16 c0
-2 -9 -4 -21 -4 -11 0 -18 4 -14 10 5 8 35 3 35 -6z m-1075 -14 c-3 -5 -13
-10 -21 -10 -8 0 -12 5 -9 10 3 6 13 10 21 10 8 0 12 -4 9 -10z m-50 -20 c-3
-5 -14 -10 -24 -10 -10 0 -36 -8 -57 -17 -43 -19 -76 -25 -68 -12 2 4 11 6 19
2 8 -3 15 0 15 6 0 6 21 17 48 25 57 18 75 19 67 6z m785 -10 c0 -5 -2 -10 -4
-10 -3 0 -8 5 -11 10 -3 6 -1 10 4 10 6 0 11 -4 11 -10z m16 -25 c-3 -8 -1
-15 4 -15 6 0 10 5 10 10 0 6 5 10 12 10 6 0 9 -3 5 -6 -3 -3 -1 -17 4 -31 8
-21 6 -24 -8 -21 -10 2 -17 10 -15 16 1 7 -1 11 -5 10 -5 0 -17 2 -28 6 -57
21 -60 24 -22 21 20 -2 37 1 37 6 0 5 3 9 6 9 3 0 4 -7 0 -15z m1524 5 c0 -5
-7 -7 -15 -4 -8 4 -15 8 -15 10 0 2 7 4 15 4 8 0 15 -4 15 -10z m-2210 -10
c-8 -5 -22 -10 -30 -10 -13 0 -13 1 0 10 8 5 22 10 30 10 13 0 13 -1 0 -10z
m2210 -14 c0 -3 -4 -8 -10 -11 -5 -3 -10 -1 -10 4 0 6 5 11 10 11 6 0 10 -2
10 -4z m-2340 -20 c0 -2 -7 -7 -16 -10 -8 -3 -12 -2 -9 4 6 10 25 14 25 6z
m541 -15 c-8 -5 -20 -7 -28 -4 -21 8 -15 13 15 13 20 0 23 -3 13 -9z m-606 -9
c-11 -9 -87 -33 -101 -31 -5 0 9 9 31 20 40 19 87 26 70 11z m2465 -32 c0 -5
-7 -7 -15 -4 -8 4 -15 8 -15 10 0 2 7 4 15 4 8 0 15 -4 15 -10z m-2590 -10 c0
-5 -6 -10 -14 -10 -8 0 -23 -3 -33 -6 -10 -3 -7 2 7 10 30 18 40 20 40 6z
m145 -9 c-3 -6 -11 -11 -17 -11 -6 0 -6 6 2 15 14 17 26 13 15 -4z m935 9 c0
-5 -5 -10 -11 -10 -5 0 -7 5 -4 10 3 6 8 10 11 10 2 0 4 -4 4 -10z m1518 -75
c32 -36 40 -55 24 -55 -11 0 -62 54 -62 65 0 5 -8 17 -17 28 -17 19 -17 20 2
9 11 -5 35 -27 53 -47z m42 25 c0 -5 -2 -10 -4 -10 -3 0 -8 5 -11 10 -3 6 -1
10 4 10 6 0 11 -4 11 -10z m-2677 -17 c-7 -2 -21 -2 -30 0 -10 3 -4 5 12 5 17
0 24 -2 18 -5z m42 -23 c-3 -5 -16 -10 -28 -9 -21 0 -21 1 -2 9 28 12 37 12
30 0z m105 2 c0 -9 -73 -36 -97 -37 -6 0 -15 -4 -19 -8 -4 -4 -14 -7 -23 -7
-11 0 -10 4 6 15 17 12 48 23 131 44 1 1 2 -3 2 -7z m1055 -12 c3 -5 1 -10 -4
-10 -6 0 -11 5 -11 10 0 6 2 10 4 10 3 0 8 -4 11 -10z m-1221 -22 c-3 -4 -9
-8 -15 -8 -5 0 -9 4 -9 8 0 5 7 9 15 9 8 0 12 -4 9 -9z m376 -8 c0 -5 -8 -10
-17 -10 -15 0 -16 2 -3 10 19 12 20 12 20 0z m2347 -22 c-3 -8 -6 -5 -6 6 -1
11 2 17 5 13 3 -3 4 -12 1 -19z m20 -10 c-3 -8 -6 -5 -6 6 -1 11 2 17 5 13 3
-3 4 -12 1 -19z m-2776 -2 c-6 -8 -22 -16 -34 -20 -21 -5 -21 -4 3 14 29 23
48 26 31 6z m2730 -8 c1 -7 1 -16 0 -20 0 -5 4 -8 9 -8 6 0 10 -6 10 -12 -1
-14 -40 29 -40 43 0 14 20 11 21 -3z m-1611 -13 c5 -3 10 -3 10 2 0 16 64 5
87 -15 25 -23 31 -18 8 8 -13 14 -12 16 4 17 12 1 24 -9 31 -28 7 -16 19 -29
26 -29 8 0 14 -6 15 -12 0 -10 2 -10 6 0 2 6 9 10 13 7 5 -3 7 -12 3 -20 -3
-9 1 -15 10 -15 9 0 19 -5 23 -11 4 -8 -1 -9 -17 -4 -20 7 -18 2 13 -28 30
-29 34 -37 20 -40 -12 -3 -11 -5 6 -6 24 -1 28 -11 12 -27 -7 -7 -1 -9 20 -6
23 3 30 0 30 -12 0 -9 -4 -16 -10 -16 -5 0 -10 -5 -10 -10 0 -7 6 -7 19 0 14
7 22 7 27 -2 4 -7 3 -8 -4 -4 -8 5 -12 0 -12 -14 0 -11 7 -23 15 -26 8 -4 15
-10 15 -15 0 -24 55 -129 67 -129 8 0 12 -4 9 -9 -8 -12 14 -71 26 -71 5 0 6
-5 2 -11 -6 -11 24 -81 39 -87 4 -2 7 -11 7 -20 1 -9 8 -30 16 -47 8 -16 12
-22 9 -12 -3 10 -1 15 5 12 6 -3 10 -19 10 -35 0 -16 6 -35 13 -42 8 -7 12
-18 10 -23 -2 -6 8 -26 22 -44 13 -19 22 -38 18 -44 -3 -6 1 -15 10 -22 24
-17 47 -91 33 -106 -8 -9 -8 -10 3 -4 11 6 13 2 9 -19 -3 -14 -1 -26 4 -26 5
0 7 -4 3 -9 -3 -5 -1 -12 5 -16 6 -4 8 -11 4 -16 -3 -6 -2 -18 2 -27 4 -9 8
-19 9 -22 10 -30 19 -50 33 -79 9 -19 18 -44 18 -55 3 -46 17 -122 24 -131 4
-5 11 -32 15 -60 6 -38 9 -45 15 -30 5 13 8 3 8 -32 1 -35 -3 -53 -11 -53 -7
0 -1 -9 12 -19 18 -14 22 -23 16 -41 -12 -39 -13 -54 -2 -75 16 -30 15 -55 -2
-66 -12 -7 -8 -7 14 -3 29 7 30 7 13 -13 -19 -21 -24 -43 -9 -43 5 0 12 8 14
18 3 9 5 2 6 -17 1 -27 -1 -31 -13 -22 -10 9 -15 8 -19 -2 -7 -19 7 -39 24
-35 18 4 19 -32 2 -50 -7 -7 -13 -18 -13 -25 0 -6 7 -2 15 9 14 17 15 15 11
-33 -4 -36 -1 -52 7 -50 7 1 11 -15 11 -45 0 -26 3 -45 7 -43 4 3 12 -2 19
-10 11 -13 10 -14 -4 -9 -9 3 -16 2 -16 -4 0 -5 7 -12 15 -16 8 -3 15 -13 15
-21 0 -9 4 -14 9 -11 4 3 6 -6 3 -19 -3 -19 0 -25 14 -26 11 0 14 -3 7 -6 -17
-6 -17 -23 0 -23 9 0 12 -15 11 -50 -1 -36 2 -50 12 -50 8 0 14 -4 14 -10 0
-5 -4 -10 -8 -10 -12 0 -12 -43 0 -57 8 -10 7 -13 -3 -13 -9 0 -10 -3 -4 -8 6
-4 10 -16 10 -27 0 -11 3 -29 6 -41 4 -11 3 -27 -1 -35 -6 -8 -4 -16 3 -21 9
-6 8 -11 -3 -18 -13 -9 -13 -11 0 -20 12 -7 12 -10 1 -10 -9 0 -11 -8 -7 -24
3 -14 1 -28 -5 -31 -7 -5 -4 -14 7 -26 16 -18 16 -19 -1 -19 -13 0 -16 -6 -12
-21 5 -17 2 -20 -15 -16 -16 5 -18 3 -9 -6 17 -17 13 -26 -9 -22 -12 2 -20 -2
-20 -10 0 -9 6 -12 15 -9 8 4 15 1 15 -6 0 -6 5 -8 12 -4 6 4 8 3 5 -4 -4 -5
-16 -8 -26 -5 -14 3 -21 -2 -26 -19 -4 -12 -13 -38 -21 -56 -8 -18 -12 -37 -8
-43 4 -8 0 -7 -15 0 -23 13 -28 2 -9 -17 8 -8 8 -15 -1 -26 -7 -8 -10 -19 -7
-24 3 -5 -1 -9 -10 -9 -10 0 -12 7 -8 21 5 18 3 17 -12 -4 -10 -14 -25 -31
-34 -38 -13 -11 -13 -12 5 -8 11 3 27 1 35 -4 12 -8 10 -10 -10 -10 -20 0 -22
-2 -10 -10 13 -8 12 -10 -4 -10 -14 0 -17 -5 -13 -21 5 -20 5 -20 -14 -3 -18
17 -19 16 -20 -22 0 -37 -1 -38 -12 -14 l-11 25 -4 -27 c-2 -16 -8 -28 -13
-28 -5 0 -9 -5 -9 -11 0 -6 7 -8 16 -5 15 6 15 4 3 -10 -12 -14 -14 -14 -26 2
-18 24 -16 10 2 -26 14 -27 14 -31 -2 -50 -16 -19 -18 -19 -26 -3 -4 11 -5 6
-2 -15 3 -20 1 -31 -5 -27 -13 8 -45 -23 -35 -33 4 -4 10 -1 12 6 3 6 12 12
20 12 11 0 6 -10 -16 -31 -19 -18 -30 -37 -27 -45 4 -10 2 -12 -6 -8 -7 5 -9
2 -6 -7 3 -9 -5 -25 -18 -38 -13 -13 -22 -27 -19 -31 3 -5 1 -11 -4 -14 -5 -4
-8 -18 -6 -32 1 -15 -4 -38 -11 -53 -8 -14 -14 -34 -14 -43 0 -10 -4 -18 -10
-18 -5 0 -7 -7 -4 -15 4 -8 3 -23 -1 -32 -4 -10 -9 -35 -11 -56 -1 -21 -6 -43
-12 -50 -5 -7 -9 -19 -10 -27 0 -8 -9 -38 -20 -67 -11 -28 -17 -54 -14 -57 3
-3 0 -6 -6 -6 -16 0 -8 -76 10 -97 9 -11 10 -17 2 -20 -24 -8 -47 -30 -37 -36
13 -8 88 64 109 104 10 21 20 29 31 25 12 -5 13 -3 5 6 -12 15 7 48 27 48 10
0 15 13 12 32 0 4 6 5 14 1 11 -4 13 -9 5 -18 -6 -7 -8 -20 -4 -29 6 -16 -17
-77 -41 -106 -7 -8 -25 -40 -41 -70 -16 -30 -35 -60 -43 -66 -8 -6 -16 -22
-18 -35 -6 -43 -25 -80 -39 -75 -7 3 -11 0 -8 -8 2 -6 -2 -29 -11 -50 -13 -30
-19 -35 -30 -26 -11 9 -12 7 -8 -9 4 -16 -1 -23 -21 -31 -14 -5 -26 -14 -26
-19 0 -5 -9 -11 -20 -14 -11 -3 -20 -12 -20 -21 0 -9 -7 -16 -15 -16 -8 0 -15
-8 -16 -17 0 -11 -3 -13 -6 -5 -8 19 -21 14 -25 -10 -2 -12 -9 -23 -16 -24 -7
-1 -8 0 -2 3 8 3 7 9 -1 19 -19 23 -31 16 -25 -16 2 -16 1 -32 -4 -35 -14 -8
-40 6 -40 22 0 13 3 13 15 3 10 -9 15 -9 15 -1 0 6 -4 11 -9 11 -5 0 -7 10 -3
22 3 14 2 19 -7 14 -6 -4 -9 -12 -6 -17 4 -5 -1 -9 -9 -9 -8 0 -18 -5 -22 -12
-4 -7 -3 -8 4 -4 7 4 12 3 12 -2 0 -6 -7 -13 -16 -16 -9 -3 -14 -13 -11 -21 4
-9 1 -12 -7 -9 -8 3 -23 -4 -34 -16 -19 -21 -41 -13 -27 10 3 6 1 10 -4 10
-13 0 -14 -6 -2 -48 6 -20 6 -32 0 -32 -5 0 -9 8 -9 18 0 12 -6 8 -20 -13 -14
-21 -20 -25 -20 -12 0 9 -4 17 -10 17 -5 0 -10 -4 -10 -10 0 -5 -5 -10 -11
-10 -6 0 -10 10 -9 23 4 42 0 41 -30 -6 -28 -44 -50 -60 -50 -37 0 24 -18 7
-24 -22 -5 -26 -9 -30 -16 -18 -8 12 -10 9 -10 -12 0 -20 -5 -28 -17 -28 -10
0 -27 -3 -39 -6 -14 -4 -23 1 -30 16 -9 20 -11 21 -23 6 -12 -14 -11 -16 5
-11 10 4 6 -2 -11 -11 -47 -28 -174 -29 -385 -4 -204 23 -245 37 -375 118
-102 64 -159 113 -144 122 19 12 63 -8 82 -38 17 -27 17 -27 23 -4 8 27 24 29
24 3 0 -11 4 -22 10 -26 5 -3 8 -11 6 -18 -1 -7 -1 -9 1 -4 9 14 25 7 19 -9
-4 -10 -1 -14 6 -12 6 2 20 -4 30 -14 10 -10 25 -18 33 -18 8 0 15 -5 15 -12
0 -9 3 -9 11 -1 13 13 -20 52 -38 46 -6 -2 -15 1 -19 8 -4 7 -3 9 3 6 6 -4 13
-1 16 7 4 10 -1 13 -19 11 -23 -2 -28 5 -24 34 1 8 -4 12 -13 8 -18 -7 -27 12
-27 56 -1 31 -1 32 -13 9 l-13 -23 -14 26 c-12 22 -12 28 -1 34 9 6 10 11 2
15 -6 4 -11 3 -11 -3 0 -6 -7 -8 -16 -4 -11 4 -12 9 -5 16 6 6 11 16 11 22 0
5 -5 3 -11 -5 -8 -11 -9 -6 -5 20 3 19 2 30 -2 23 -11 -18 -36 1 -28 22 4 11
0 23 -11 31 -15 11 -15 13 -3 14 13 0 13 1 0 10 -13 8 -12 10 3 10 21 0 22 9
1 39 -14 19 -14 25 -3 32 11 6 10 9 -4 15 -16 6 -16 7 -1 19 12 8 14 14 6 19
-7 4 -12 2 -12 -4 0 -28 -16 3 -18 35 -2 19 -7 47 -12 61 -7 17 -7 23 0 19 6
-3 10 -1 10 4 0 6 -6 11 -13 11 -8 0 -19 11 -25 25 -7 15 -8 25 -2 25 16 0 12
20 -11 51 -23 32 -15 37 19 13 12 -8 22 -11 22 -5 0 5 -9 16 -21 24 -14 11
-17 16 -7 19 10 4 9 8 -3 21 -9 9 -20 13 -24 9 -4 -4 -4 3 -1 16 5 13 3 22 -3
22 -6 0 -11 7 -11 15 0 9 -8 19 -17 23 -10 4 -18 13 -18 21 0 14 -15 25 -48
35 -10 3 -15 11 -11 17 4 8 9 7 15 -2 7 -11 9 -11 9 2 0 26 -12 30 -27 9 -12
-18 -12 -22 3 -37 10 -11 12 -19 6 -21 -7 -2 -4 -20 9 -53 10 -28 24 -71 30
-96 6 -27 19 -53 31 -61 18 -13 19 -16 4 -24 -20 -11 -21 -25 -1 -25 8 0 15 5
15 10 0 6 2 8 5 5 10 -10 -7 -37 -20 -32 -7 3 -16 1 -20 -5 -5 -9 4 -14 25
-13 3 0 13 -11 23 -24 14 -19 15 -23 2 -18 -8 3 -15 1 -15 -5 0 -6 4 -11 10
-11 5 0 7 -7 3 -16 -3 -8 -12 -13 -19 -10 -8 3 -14 1 -14 -3 0 -13 -27 -21
-46 -14 -11 4 -7 10 18 26 26 16 29 22 16 25 -10 2 -18 10 -18 18 0 8 -4 13
-9 9 -5 -3 -12 -1 -16 5 -3 5 1 10 9 10 9 0 16 7 16 16 0 13 -7 9 -27 -12 -15
-16 -24 -21 -20 -12 3 10 2 20 -3 23 -6 4 -10 -12 -10 -37 -1 -34 -3 -39 -11
-25 -5 9 -17 17 -24 17 -17 0 -20 -16 -5 -23 6 -3 5 -4 -2 -3 -7 2 -13 13 -13
25 0 12 -5 25 -12 29 -16 10 -19 34 -5 59 12 21 1 75 -19 97 -4 5 -6 21 -3 36
4 17 0 31 -10 39 -8 7 -12 19 -9 27 3 8 0 14 -7 14 -7 0 -10 7 -6 16 4 9 2 13
-5 8 -8 -4 -9 1 -4 15 4 12 2 21 -4 21 -6 0 -10 3 -9 8 0 4 -2 16 -6 27 -4 11
-13 33 -18 48 -6 15 -8 30 -5 34 4 3 0 18 -8 34 l-15 28 57 37 c79 51 86 52
73 19 -13 -34 -13 -42 2 -27 8 8 15 8 24 1 9 -7 14 -4 20 13 3 13 12 26 18 30
8 5 7 8 -2 8 -13 0 -12 2 24 43 5 7 36 47 68 90 43 58 55 82 47 90 -8 8 -11 6
-11 -8 0 -10 -3 -15 -6 -12 -4 3 -15 -5 -26 -18 -11 -14 -28 -25 -39 -25 -10
0 -19 -7 -19 -15 0 -8 -6 -12 -13 -9 -8 3 -25 -9 -38 -25 -19 -24 -29 -29 -48
-24 -16 4 -22 2 -17 -5 5 -8 2 -10 -8 -6 -9 3 -16 1 -16 -5 0 -6 -7 -11 -15
-11 -8 0 -15 -4 -15 -10 0 -5 5 -10 10 -10 21 0 9 -18 -16 -24 -34 -9 -44 2
-20 20 19 14 19 14 -2 14 -12 0 -22 6 -22 14 0 7 -7 19 -15 26 -10 9 -15 9
-15 1 0 -6 -5 -11 -11 -11 -5 0 -7 5 -4 10 3 6 1 10 -4 10 -6 0 -11 7 -11 15
0 8 -6 15 -14 15 -8 0 -16 7 -20 15 -3 10 1 15 11 15 13 0 14 3 5 12 -8 8 -15
8 -27 -2 -11 -9 -15 -10 -15 0 0 6 -7 27 -16 46 -13 28 -19 32 -31 23 -11 -9
-17 -9 -26 1 -9 10 -9 11 1 6 13 -8 17 10 3 18 -4 3 -6 17 -4 30 4 21 2 24
-16 19 -17 -4 -20 -2 -15 11 3 9 14 16 23 16 12 0 13 2 3 9 -7 4 -14 18 -15
29 -1 12 -5 22 -10 22 -5 0 -6 7 -3 16 4 9 1 23 -5 30 -9 11 -8 14 2 14 11 0
11 2 -1 10 -13 9 -13 10 0 11 11 0 9 3 -4 8 -17 7 -17 8 -2 24 16 16 16 17 -6
17 -18 0 -20 2 -8 10 13 8 13 10 1 10 -11 0 -12 3 -4 11 15 15 5 39 -14 39
-13 0 -13 3 -3 15 10 12 10 15 -3 15 -9 0 -19 5 -23 11 -4 7 0 9 14 5 11 -4
23 -3 26 3 3 5 -6 12 -20 15 -19 5 -23 10 -15 19 6 8 6 18 1 27 -5 8 -7 25 -4
36 4 15 0 26 -13 33 -12 7 -13 10 -4 11 9 0 10 4 4 13 -13 16 -22 67 -12 67 4
0 4 14 -1 31 -5 17 -9 34 -8 38 3 26 -4 40 -17 35 -9 -4 -15 0 -15 10 0 10 6
13 15 10 10 -4 15 0 15 14 0 12 -9 23 -21 27 -15 5 -18 9 -9 15 9 6 9 13 1 29
-12 22 -4 74 10 65 5 -3 9 9 9 25 0 17 -5 31 -11 31 -7 0 -5 10 6 26 9 14 14
28 11 31 -3 3 2 12 12 19 9 7 12 14 6 14 -17 0 1 86 25 115 10 14 21 21 25 18
3 -3 6 -1 6 5 0 5 -6 13 -12 15 -7 3 2 10 20 17 17 7 32 16 32 22 0 5 5 6 10
3 6 -4 8 -11 5 -16 -8 -11 6 -12 23 0 9 5 29 1 52 -10 22 -11 51 -19 65 -19
28 0 34 -15 9 -24 -26 -10 -52 -7 -57 7 -2 6 -8 9 -12 5 -13 -12 27 -43 54
-41 14 2 20 0 14 -3 -20 -9 -15 -26 5 -20 13 4 31 -6 57 -31 21 -21 35 -31 31
-23 -4 8 1 6 11 -6 10 -11 24 -19 30 -17 7 3 9 -4 6 -18 -4 -15 -3 -20 5 -15
7 4 22 -2 34 -13 24 -23 38 -27 38 -11 0 6 -4 10 -10 10 -15 0 -50 33 -50 47
0 13 17 17 52 14 9 -1 19 7 23 19 8 24 25 17 25 -11 0 -24 16 -25 25 -1 6 16
7 16 16 0 7 -13 5 -25 -8 -45 l-17 -28 25 22 c28 25 79 41 79 24 0 -6 7 -8 15
-5 19 8 9 24 -15 24 -10 0 -54 17 -97 37 -61 28 -73 37 -55 41 17 3 21 8 17
23 -4 13 -2 19 8 19 8 0 18 8 21 17 5 13 12 7 28 -26 30 -61 64 -79 145 -76
61 2 69 4 95 34 16 18 31 45 34 61 6 25 9 27 25 17 11 -7 19 -16 19 -22 1 -5
12 -23 25 -39 19 -24 22 -34 13 -50 -11 -20 -10 -20 9 -3 24 21 33 22 33 2 0
-8 5 -15 12 -15 6 0 20 -7 30 -17 10 -9 18 -11 18 -5 0 15 -34 72 -42 72 -5 0
-8 7 -8 15 0 8 -4 15 -10 15 -5 0 -10 4 -10 9 0 5 -25 36 -55 68 -55 58 -64
73 -45 73 6 0 10 -3 10 -7 1 -14 51 -65 57 -59 4 3 -4 17 -17 31 -33 35 -18
31 25 -6 33 -30 52 -66 20 -39 -10 9 -15 9 -15 1 0 -11 13 -15 38 -12 7 1 11
-2 10 -8 -3 -11 104 -112 111 -105 3 2 -11 20 -29 39 -19 19 -30 35 -26 35 5
0 3 6 -4 14 -6 8 -19 12 -27 9 -11 -4 -14 -2 -9 5 4 7 1 15 -8 18 -9 3 -16 10
-16 16 0 5 6 6 13 3 6 -4 1 3 -13 16 -14 12 -24 26 -22 31 1 5 -2 7 -8 3 -13
-8 -47 13 -116 72 -28 23 -53 41 -56 38 -3 -3 -22 1 -44 9 l-39 14 54 -5 c58
-7 104 -25 99 -39 -2 -5 32 -26 75 -46 48 -23 77 -44 77 -53 0 -9 5 -13 11
-10 6 4 8 14 5 22 -4 8 -1 11 5 8 6 -4 8 -13 6 -20 -3 -7 7 -26 22 -42 49 -54
71 -85 65 -94 -3 -5 -2 -15 3 -21 4 -7 8 -17 8 -22 0 -5 6 -11 13 -14 10 -3
12 8 10 47 -2 28 -6 51 -9 51 -3 0 -11 11 -17 26 -7 14 -26 30 -42 36 -33 11
-42 29 -11 21 10 -3 22 1 26 8 5 8 4 10 -4 5 -6 -4 -19 -2 -27 5 -12 10 -12
14 -2 22 9 6 8 7 -5 3 -11 -3 -20 0 -23 9 -4 8 -11 12 -17 8 -6 -3 -7 -1 -3 6
4 6 0 14 -8 17 -23 9 26 46 51 38 17 -5 17 -5 0 6 -14 9 -22 9 -30 1 -15 -15
-40 -14 -31 1 5 8 2 9 -11 4 -18 -7 -18 -6 -1 13 13 15 14 20 4 24 -10 4 -10
8 2 16 13 10 13 12 0 21 -8 5 -23 10 -33 10 -10 0 -15 5 -12 10 4 7 -3 9 -22
5 -26 -6 -27 -5 -7 7 12 7 19 19 17 26 -3 6 3 12 12 12 9 0 14 -4 11 -9 -8
-12 14 -19 37 -13 11 3 16 10 13 19 -3 8 -1 11 4 8 6 -3 14 -3 20 0 15 9 -20
42 -63 60 -38 16 -46 29 -24 39 8 4 7 5 -3 4 -8 -1 -27 4 -41 10 -16 6 -40 7
-62 2 -48 -10 -90 -2 -74 15 7 7 18 10 24 8 7 -3 13 0 13 6 0 7 -16 10 -47 7
-30 -3 -41 -1 -32 5 11 7 9 9 -8 9 -12 0 -24 6 -27 13 -5 10 -7 10 -12 0 -3
-7 -10 -13 -15 -13 -6 0 -8 4 -4 9 3 6 -4 15 -15 21 -23 12 -27 1 -9 -32 9
-16 8 -19 -3 -16 -7 2 -17 14 -23 26 -10 23 -31 31 -22 9 3 -8 -3 -13 -14 -13
-13 0 -18 5 -14 15 4 11 3 12 -10 1 -8 -7 -15 -8 -15 -3 0 6 -25 9 -55 8 -30
-1 -55 2 -55 7 0 5 -9 4 -19 -2 -11 -5 -29 -10 -41 -10 -12 0 -19 -4 -16 -8 2
-4 -4 -8 -15 -8 -10 0 -19 4 -19 8 0 4 -5 8 -11 8 -5 0 -8 -4 -5 -8 6 -11 -69
-54 -78 -45 -11 11 -7 25 6 17 6 -4 8 -3 5 3 -4 6 0 24 8 41 12 22 13 36 5 56
-7 20 -7 25 1 20 9 -5 10 3 5 29 -4 22 -2 45 4 58 9 16 8 24 -5 39 -11 12 -13
20 -6 25 6 3 11 1 11 -6 0 -7 3 -9 7 -5 5 4 -1 14 -11 22 -11 8 -14 14 -7 14
8 0 10 7 6 20 -5 16 -3 19 12 13 15 -5 16 -3 6 8 -18 19 -16 32 3 25 14 -6 15
-4 4 10 -12 13 -11 17 0 24 8 5 17 7 21 4 4 -2 6 21 4 51 -2 30 1 58 6 61 5 3
9 -1 9 -8 0 -7 8 3 19 22 18 33 18 67 0 39 -14 -22 -10 3 8 56 13 40 18 46 24
30 4 -11 8 -15 8 -8 1 6 4 19 8 29 4 12 3 15 -6 9 -7 -4 -2 10 11 32 46 78 83
135 101 155 9 12 17 27 17 34 0 7 19 35 43 61 23 27 53 65 67 85 13 20 33 39
42 41 10 3 21 13 25 24 10 27 138 150 151 145 7 -2 12 3 12 11 0 9 9 19 21 22
11 4 35 19 52 34 18 16 49 34 70 42 20 7 37 17 37 22 0 5 7 7 15 3 18 -6 116
30 127 47 4 7 8 9 8 5 0 -4 32 6 71 22 39 17 75 27 80 24 5 -3 9 -1 9 3 0 5
24 9 53 9 28 0 67 4 86 8 19 5 31 4 28 -1 -3 -5 4 -10 16 -10 18 -2 19 0 7 8
-12 8 -9 10 12 6 15 -2 30 1 33 7 3 8 7 7 11 -1 3 -7 12 -9 20 -6 7 3 11 10 7
16 -4 6 3 8 21 3 20 -5 26 -4 20 5 -5 9 7 11 45 7 28 -3 51 -1 51 4 0 4 11 6
24 2 15 -3 29 1 40 11 10 11 16 12 16 4 0 -7 3 -9 6 -6 4 3 15 2 26 -4 17 -9
18 -8 9 10 -10 18 -9 20 19 16 16 -2 34 -6 40 -10z m730 -46 c0 -13 -35 10
-49 34 -12 18 -11 18 18 -2 17 -12 31 -27 31 -32z m933 -21 c-4 -18 -1 -28 6
-28 7 0 9 -5 5 -11 -3 -6 -1 -15 7 -19 12 -8 39 -80 39 -108 0 -28 -18 0 -30
45 -7 27 -18 54 -23 61 -6 7 -11 36 -13 64 -1 32 1 46 6 38 5 -8 6 -27 3 -42z
m-3619 -32 c-9 -15 -19 -24 -22 -22 -2 3 3 17 12 32 10 14 20 23 23 21 2 -3
-3 -17 -13 -31z m2517 -41 l10 -20 -16 20 c-9 11 -21 29 -26 40 l-10 20 16
-20 c9 -11 21 -29 26 -40z m-22 -58 c15 -29 20 -34 23 -20 4 17 5 16 15 -3 10
-18 9 -20 -9 -19 -12 1 -26 10 -32 21 -6 10 -25 44 -44 74 l-33 55 30 -35 c17
-19 39 -52 50 -73z m221 88 c11 -13 10 -14 -4 -9 -9 3 -16 10 -16 15 0 13 6
11 20 -6z m-266 -81 c3 -8 2 -12 -4 -9 -6 3 -10 10 -10 16 0 14 7 11 14 -7z
m140 -31 c9 -18 14 -33 12 -33 -6 0 -36 55 -36 66 0 11 5 3 24 -33z m234 -4
c32 -39 23 -37 -19 7 -18 19 -27 32 -19 29 8 -4 25 -20 38 -36z m-135 -110
c24 -54 32 -81 25 -92 -5 -11 -5 -24 2 -37 7 -12 7 -26 2 -36 -7 -13 -10 -10
-15 16 -5 24 -11 31 -23 26 -11 -4 -10 1 5 20 12 15 21 31 21 37 0 6 -7 2 -16
-9 -11 -13 -17 -15 -20 -6 -3 6 -10 10 -14 7 -5 -3 -11 -2 -14 3 -2 4 5 9 16
9 31 3 32 9 10 65 -35 92 -36 94 -25 83 6 -5 26 -44 46 -86z m-148 71 c-3 -5
0 -10 8 -10 8 0 18 -7 21 -16 6 -15 4 -15 -10 -3 -16 13 -16 12 -5 -8 6 -13
16 -23 20 -23 5 0 16 -17 25 -37 9 -21 21 -46 26 -55 5 -10 7 -24 4 -33 -3 -8
-1 -15 5 -15 6 0 10 -3 9 -7 -4 -13 44 -136 59 -155 8 -9 14 -29 12 -45 -1
-15 2 -39 8 -53 23 -55 45 -131 40 -136 -8 -8 -37 52 -37 76 0 12 -6 36 -14
53 -19 44 -26 77 -15 77 5 0 9 5 9 11 0 6 -7 8 -17 5 -10 -4 -15 -4 -11 -1 3
4 -4 30 -17 58 -12 29 -40 97 -61 151 -21 55 -49 113 -63 129 -20 24 -22 30
-10 38 18 11 22 11 14 -1z m1145 -11 c0 -14 -17 -10 -23 5 -4 10 -1 13 9 9 7
-3 14 -9 14 -14z m-1164 -101 c-12 -7 -13 -13 -4 -33 6 -14 16 -21 24 -18 20
7 17 -5 -7 -35 -17 -21 -20 -23 -16 -7 3 11 -3 36 -13 55 -15 27 -19 30 -20
15 0 -17 -2 -17 -10 -5 -13 20 -13 33 0 25 6 -3 10 0 10 7 0 10 2 10 9 -1 6
-9 10 -10 16 -2 4 7 0 23 -9 36 -9 13 -16 32 -16 42 0 10 11 -1 26 -26 21 -38
23 -46 10 -53z m131 18 c-3 -6 -12 6 -21 26 -22 51 -20 60 5 19 11 -18 18 -38
16 -45z m-2757 49 c0 -8 -4 -15 -10 -15 -5 0 -7 7 -4 15 4 8 8 15 10 15 2 0 4
-7 4 -15z m3790 -4 c0 -11 5 -23 10 -26 6 -3 10 -11 10 -18 0 -17 -27 14 -35
41 -4 13 -2 22 4 22 6 0 11 -9 11 -19z m-3845 -71 c-9 -10 -14 -23 -11 -28 3
-5 -1 -9 -8 -9 -11 0 -12 6 -3 26 16 39 30 56 35 42 2 -7 -4 -21 -13 -31z
m3911 -22 c8 -16 13 -32 11 -35 -6 -6 -47 52 -47 67 0 18 19 2 36 -32z m-876
-32 c0 -12 -5 -7 -19 24 -11 24 -11 24 3 6 9 -11 16 -24 16 -30z m-3024 -12
c-4 -9 -9 -15 -11 -12 -3 3 -3 13 1 22 4 9 9 15 11 12 3 -3 3 -13 -1 -22z
m2897 -52 c-2 -11 0 -23 6 -26 6 -4 8 -19 5 -34 -4 -19 -3 -23 4 -13 10 14 14
1 27 -79 5 -32 3 -29 -24 22 -27 53 -32 74 -32 138 -1 14 -5 30 -11 37 -5 7
-6 17 -2 24 10 16 34 -44 27 -69z m1002 50 c6 -4 17 -16 25 -27 14 -19 14 -19
-5 -5 -31 24 -47 40 -38 40 4 0 13 -4 18 -8z m-3942 -32 c-5 -19 -23 -29 -23
-12 0 7 20 32 26 32 1 0 0 -9 -3 -20z m2655 -15 c-3 -3 -9 2 -12 12 -6 14 -5
15 5 6 7 -7 10 -15 7 -18z m131 -40 c0 -5 -6 1 -14 15 -8 14 -14 30 -14 35 0
6 6 -1 14 -15 8 -14 14 -29 14 -35z m1182 28 c13 -16 12 -17 -3 -4 -10 7 -18
15 -18 17 0 8 8 3 21 -13z m34 7 c3 -5 1 -10 -4 -10 -6 0 -11 5 -11 10 0 6 2
10 4 10 3 0 8 -4 11 -10z m-4005 -14 c0 -3 -4 -8 -10 -11 -5 -3 -10 -1 -10 4
0 6 5 11 10 11 6 0 10 -2 10 -4z m3971 -38 c16 -29 2 -21 -22 15 -17 23 -18
28 -6 18 10 -8 23 -23 28 -33z m-40 5 c13 -16 12 -17 -3 -4 -10 7 -18 15 -18
17 0 8 8 3 21 -13z m20 -55 c8 -15 8 -18 0 -14 -6 4 -16 16 -22 28 -8 15 -8
18 0 14 6 -4 16 -16 22 -28z m99 -43 c0 -5 -5 -3 -10 5 -5 8 -10 20 -10 25 0
6 5 3 10 -5 5 -8 10 -19 10 -25z m-1223 -17 c-3 -8 -6 -5 -6 6 -1 11 2 17 5
13 3 -3 4 -12 1 -19z m-2901 -20 c-9 -12 -16 -31 -16 -41 0 -10 -4 -16 -10
-12 -5 3 -6 13 -2 23 11 26 36 62 40 57 2 -2 -3 -14 -12 -27z m4038 -8 l7 -25
-15 25 c-17 28 -21 50 -7 35 5 -6 12 -21 15 -35z m71 19 c4 -12 2 -26 -5 -33
-10 -8 -11 -6 -5 12 4 13 2 22 -4 22 -6 0 -11 5 -11 10 0 18 19 10 25 -11z
m-4088 -56 c-3 -10 -5 -4 -5 12 0 17 2 24 5 18 2 -7 2 -21 0 -30z m-32 -79
c-14 -37 -14 -38 -11 -7 4 33 15 57 22 50 2 -2 -3 -21 -11 -43z m4112 -46 c-3
-7 -5 -2 -5 12 0 14 2 19 5 13 2 -7 2 -19 0 -25z m-4142 -65 c-10 -32 -26 -85
-36 -118 -10 -33 -25 -82 -33 -110 l-15 -50 4 52 c8 95 75 306 92 289 3 -3 -3
-31 -12 -63z m4169 -76 c4 -19 3 -26 -4 -22 -5 3 -10 18 -10 32 0 32 5 28 14
-10z m26 -80 c0 -5 -4 -5 -10 -2 -5 3 -10 14 -10 23 0 15 2 15 10 2 5 -8 10
-19 10 -23z m25 -37 c3 -5 1 -10 -4 -10 -6 0 -11 5 -11 10 0 6 2 10 4 10 3 0
8 -4 11 -10z m-3590 -10 c3 -5 1 -10 -4 -10 -6 0 -11 5 -11 10 0 6 2 10 4 10
3 0 8 -4 11 -10z m3590 -100 c8 -16 15 -32 15 -37 0 -10 -25 27 -33 50 -10 27
1 20 18 -13z m-4319 -162 c-6 -53 -14 -100 -18 -104 -13 -12 -5 62 18 185 11
55 11 9 0 -81z m4342 -13 c-3 -3 -9 2 -12 12 -6 14 -5 15 5 6 7 -7 10 -15 7
-18z m-7 -22 c13 -16 12 -17 -3 -4 -10 7 -18 15 -18 17 0 8 8 3 21 -13z
m-3676 -33 c3 -5 1 -10 -4 -10 -6 0 -11 5 -11 10 0 6 2 10 4 10 3 0 8 -4 11
-10z m20 -30 c3 -5 1 -10 -4 -10 -6 0 -11 5 -11 10 0 6 2 10 4 10 3 0 8 -4 11
-10z m-695 -60 c0 -5 -5 -10 -11 -10 -5 0 -7 5 -4 10 3 6 8 10 11 10 2 0 4 -4
4 -10z m972 -50 c15 -7 24 -18 21 -24 -7 -11 27 13 38 26 3 5 14 1 25 -8 18
-15 18 -15 -3 -9 -14 4 -23 2 -23 -4 0 -6 7 -11 15 -11 8 0 15 -8 15 -17 0
-15 2 -16 10 -3 8 13 10 12 10 -2 0 -13 8 -18 30 -18 17 0 32 1 33 3 2 1 12
-5 22 -13 11 -9 16 -10 11 -2 -4 6 -3 12 1 12 5 0 15 -6 22 -12 11 -10 13 -10
7 0 -8 14 10 17 19 2 3 -5 1 -10 -5 -10 -6 0 -9 -4 -6 -9 3 -4 -7 -6 -22 -4
-22 4 -24 2 -12 -7 8 -6 11 -13 5 -16 -25 -11 -39 -24 -33 -30 4 -4 19 1 34
10 31 21 46 13 18 -10 -18 -15 -18 -15 4 -9 14 4 22 2 22 -5 0 -7 7 -9 18 -5
13 5 14 4 5 -6 -7 -7 -27 -14 -45 -16 -23 -2 -29 0 -18 6 10 7 3 10 -25 9 -22
0 -95 2 -162 5 -68 2 -127 0 -135 -5 -8 -6 1 -7 27 -4 30 5 36 4 23 -4 -18
-11 -118 -10 -118 1 0 4 -7 9 -15 13 -13 4 -14 2 -5 -14 8 -15 17 -19 35 -14
14 3 25 2 25 -4 0 -14 -38 -22 -71 -15 -33 6 -33 7 -19 33 8 16 8 18 -5 14 -8
-4 -15 -11 -15 -17 0 -6 -3 -7 -6 -4 -4 4 -1 13 5 21 10 12 6 17 -23 31 -20
10 -36 24 -36 32 0 8 4 12 8 9 5 -3 25 0 45 6 33 10 35 12 19 25 -15 13 -14
14 11 8 15 -3 27 -1 27 5 0 5 9 10 20 10 11 0 20 4 20 9 0 5 16 8 35 7 29 -3
33 -1 24 10 -9 11 -8 14 3 14 8 0 18 -3 21 -7 10 -9 57 -10 57 -1 0 4 -9 8
-20 8 -11 0 -20 2 -20 4 0 2 -3 12 -6 21 -6 14 -4 15 12 7 10 -5 31 -15 46
-22z m184 -8 c-4 -3 -11 0 -16 8 -15 24 -11 33 6 15 9 -9 13 -19 10 -23z m-6
-44 c0 -5 -4 -8 -10 -8 -5 0 -10 4 -10 9 0 5 -9 12 -19 16 -11 3 -22 12 -24
19 -4 9 7 6 28 -7 19 -12 34 -25 35 -29z m3207 20 c-3 -8 -6 -5 -6 6 -1 11 2
17 5 13 3 -3 4 -12 1 -19z m-25 -37 c2 -17 1 -28 -4 -25 -8 5 -12 54 -4 54 2
0 6 -13 8 -29z m24 -60 c-1 -18 -5 -27 -13 -24 -7 3 -13 9 -13 14 0 8 20 36
26 39 1 0 1 -13 0 -29z m-2988 -20 c4 -11 0 -12 -14 -6 -11 4 -28 8 -38 10
-11 1 -21 6 -23 12 -2 6 10 8 33 4 21 -3 39 -12 42 -20z m2987 -51 c3 -6 -1
-7 -9 -4 -18 7 -21 14 -7 14 6 0 13 -4 16 -10z m-4375 -28 c0 -9 -4 -23 -9
-31 -6 -10 -9 -3 -8 22 1 34 17 43 17 9z m765 -21 c-6 -5 -25 10 -25 20 0 5 6
4 14 -3 8 -7 12 -15 11 -17z m-805 -26 c0 -8 -4 -15 -10 -15 -5 0 -7 7 -4 15
4 8 8 15 10 15 2 0 4 -7 4 -15z m1080 -2 c-55 -21 -149 -71 -143 -76 3 -4 1
-7 -5 -7 -23 0 -21 20 4 37 30 19 122 53 144 52 13 -1 13 -1 0 -6z m3331 -27
c-14 -36 -22 -33 -9 5 6 16 12 28 14 26 3 -2 0 -16 -5 -31z m-4385 -6 c-2 -16
-9 -36 -16 -44 -6 -9 -9 -19 -6 -25 10 -15 -5 -41 -23 -41 -9 0 -12 3 -6 8 14
10 11 78 -5 97 -14 17 0 21 17 4 8 -8 15 -6 25 10 17 28 18 27 14 -9z m1184
23 c-1 -21 -19 -35 -36 -28 -33 14 -44 14 -79 -1 -22 -9 -36 -10 -40 -4 -7 11
2 16 60 29 51 11 95 13 95 4z m58 -12 c102 -51 103 -52 91 -67 -13 -16 -29
-10 -29 11 0 9 -6 12 -15 9 -9 -4 -15 0 -15 9 0 10 -7 13 -20 10 -11 -3 -20 0
-20 6 0 6 -4 11 -10 11 -5 0 -10 -7 -10 -15 0 -8 -6 -15 -14 -15 -12 0 -14 15
-7 53 2 10 8 9 49 -12z m182 -27 c0 -9 -64 23 -68 34 -2 7 12 3 32 -9 20 -11
36 -23 36 -25z m-535 16 c-10 -11 -21 -18 -23 -15 -3 3 3 12 14 20 27 20 30
18 9 -5z m-58 -33 c-12 -13 -26 -21 -30 -19 -5 2 1 15 14 28 12 13 25 21 30
18 4 -2 -2 -15 -14 -27z m173 13 c0 -5 -8 -10 -17 -10 -15 0 -16 2 -3 10 19
12 20 12 20 0z m-210 -50 c0 -5 -7 -7 -15 -4 -8 4 -12 10 -9 15 6 11 24 2 24
-11z m85 -10 c3 -5 1 -10 -4 -10 -6 0 -11 5 -11 10 0 6 2 10 4 10 3 0 8 -4 11
-10z m368 -19 c4 0 7 -10 7 -21 0 -15 -7 -20 -29 -20 -34 0 -62 27 -42 39 11
7 32 8 64 2z m-549 -16 c3 -8 1 -15 -3 -15 -5 0 -11 7 -15 15 -3 8 -1 15 3 15
5 0 11 -7 15 -15z m771 -3 c-3 -3 -11 0 -18 7 -9 10 -8 11 6 5 10 -3 15 -9 12
-12z m2660 -59 c-4 -43 -13 -98 -21 -123 -40 -129 -48 -150 -56 -150 -13 0 -9
98 5 128 8 15 26 71 42 125 16 53 30 97 33 97 2 0 1 -35 -3 -77z m-3555 47 c0
-5 -4 -10 -10 -10 -5 0 -10 5 -10 10 0 6 5 10 10 10 6 0 10 -4 10 -10z m-600
-27 c15 -16 15 -20 2 -40 -13 -20 -13 -23 1 -23 9 0 17 -14 21 -39 3 -22 9
-46 12 -55 3 -9 1 -16 -5 -16 -6 0 -11 6 -11 14 0 8 -7 16 -15 20 -18 7 -20
32 -2 40 6 3 2 3 -11 0 -21 -5 -22 -3 -16 35 4 25 2 46 -5 54 -6 8 -8 17 -4
20 10 10 15 9 33 -10z m102 -18 c-6 -34 -12 -32 -12 6 0 16 4 28 9 25 4 -3 6
-17 3 -31z m1059 -9 c-6 -7 -9 -22 -6 -32 3 -11 1 -10 -7 4 -9 19 -9 25 3 33
20 12 23 11 10 -5z m162 -3 c3 -5 -1 -14 -9 -20 -14 -14 -30 0 -19 17 7 12 22
13 28 3z m-113 -16 c0 -2 -10 -12 -21 -23 -22 -19 -22 -19 -8 4 12 19 29 30
29 19z m54 -3 c9 -3 16 -17 16 -30 0 -20 -5 -24 -29 -24 -27 0 -29 3 -27 28 2
15 4 28 5 30 2 4 19 2 35 -4z m-404 -38 c0 -12 -28 -6 -39 8 -9 11 -9 15 1 18
12 4 38 -14 38 -26z m3126 -21 c-2 -7 0 -18 5 -26 10 -16 12 -5 9 44 -1 15 3
27 9 27 11 0 15 -19 13 -52 -1 -10 3 -18 9 -18 6 0 10 -15 8 -32 -1 -18 2 -42
7 -53 12 -30 10 -174 -4 -223 -7 -24 -28 -74 -47 -112 -19 -38 -35 -76 -35
-83 0 -7 -16 -32 -36 -56 -20 -23 -33 -45 -29 -49 8 -8 85 75 85 92 0 6 14 38
30 71 l30 60 -6 -60 c-7 -70 -9 -86 -24 -140 -6 -22 -16 -59 -21 -81 -11 -43
-49 -92 -49 -62 0 8 -7 15 -16 15 -12 0 -14 -6 -8 -26 10 -36 6 -94 -7 -102
-6 -4 -20 -4 -31 -1 -19 4 -19 11 -13 111 3 58 8 142 10 185 4 79 19 136 36
136 17 0 32 55 31 109 l-2 54 20 -23 c26 -30 36 -20 17 17 -8 15 -12 34 -10
41 3 7 -2 23 -10 36 -12 18 -13 26 -4 35 8 8 9 14 1 19 -13 9 -10 88 5 125 6
16 11 40 12 55 l0 27 10 -24 c5 -14 8 -30 5 -36z m316 13 c-7 -7 -12 -8 -12
-2 0 14 12 26 19 19 2 -3 -1 -11 -7 -17z m-4063 -82 c-9 -8 -10 -7 -5 7 3 10
7 24 7 30 1 7 3 4 6 -7 3 -10 -1 -23 -8 -30z m-211 -37 c-3 -8 -7 -3 -11 10
-4 17 -3 21 5 13 5 -5 8 -16 6 -23z m-168 11 c0 -5 -18 -10 -40 -10 -22 0 -40
5 -40 10 0 6 18 10 40 10 22 0 40 -4 40 -10z m0 -40 c0 -5 -18 -10 -40 -10
-22 0 -40 5 -40 10 0 6 18 10 40 10 22 0 40 -4 40 -10z m210 -16 c0 -8 -4 -12
-10 -9 -5 3 -10 10 -10 16 0 5 5 9 10 9 6 0 10 -7 10 -16z m-603 -126 c-2 -24
-4 -5 -4 42 0 47 2 66 4 43 2 -24 2 -62 0 -85z m333 83 c0 -23 -5 -41 -13 -44
-10 -4 -13 2 -9 20 3 17 -1 29 -12 35 -24 13 -19 28 9 28 22 0 25 -4 25 -39z
m-740 -1 c0 -11 -7 -20 -15 -20 -8 0 -15 9 -15 20 0 11 7 20 15 20 8 0 15 -9
15 -20z m975 10 c3 -5 1 -10 -4 -10 -6 0 -11 5 -11 10 0 6 2 10 4 10 3 0 8 -4
11 -10z m-309 -31 c9 -15 -13 -28 -37 -22 -16 5 -19 0 -19 -36 0 -22 -4 -41
-10 -41 -14 0 -12 69 3 84 12 12 34 24 49 25 4 1 10 -4 14 -10z m4406 -34 c-4
-26 -22 -45 -22 -25 0 12 18 50 24 50 2 0 1 -11 -2 -25z m-5472 -6 c0 -24 -23
-21 -28 4 -2 10 3 17 12 17 10 0 16 -9 16 -21z m405 -63 c-5 -55 -11 -76 -21
-76 -10 0 -14 13 -14 40 0 29 4 40 15 40 11 0 15 11 15 42 0 23 3 39 6 35 3
-3 3 -40 -1 -81z m455 44 c0 -22 -4 -40 -10 -40 -5 0 -10 18 -10 40 0 22 5 40
10 40 6 0 10 -18 10 -40z m236 9 c10 -17 -13 -36 -27 -22 -12 12 -4 33 11 33
5 0 12 -5 16 -11z m184 -9 c0 -17 -7 -20 -40 -20 -33 0 -40 3 -40 20 0 17 7
20 40 20 33 0 40 -3 40 -20z m-2080 0 c0 -5 -7 -10 -15 -10 -8 0 -15 5 -15 10
0 6 7 10 15 10 8 0 15 -4 15 -10z m760 -15 c0 -18 -5 -25 -20 -25 -25 0 -26
18 -2 36 23 18 22 18 22 -11z m-600 -5 c0 -11 -7 -20 -15 -20 -8 0 -15 9 -15
20 0 11 7 20 15 20 8 0 15 -9 15 -20z m2006 -64 c-4 -15 -18 -25 -46 -32 -22
-6 -40 -7 -40 -3 0 5 9 9 20 9 11 0 20 5 20 10 0 6 -9 10 -20 10 -11 0 -20 5
-20 10 0 6 9 10 20 10 25 0 26 17 3 23 -10 2 -1 2 20 0 35 -4 37 -3 39 24 1
25 2 24 5 -6 3 -19 2 -43 -1 -55z m104 68 c0 -8 -4 -12 -10 -9 -5 3 -10 10
-10 16 0 5 5 9 10 9 6 0 10 -7 10 -16z m80 7 c0 -6 -4 -13 -10 -16 -5 -3 -10
1 -10 9 0 9 5 16 10 16 6 0 10 -4 10 -9z m-2482 -19 c2 -7 -3 -12 -12 -12 -9
0 -16 7 -16 16 0 17 22 14 28 -4z m79 -8 c-3 -3 -12 -4 -19 -1 -8 3 -5 6 6 6
11 1 17 -2 13 -5z m1895 -39 c-2 -25 -8 -45 -13 -45 -14 0 -11 78 4 83 6 3 12
6 12 6 0 1 -1 -19 -3 -44z m-1762 19 c0 -9 -5 -14 -12 -12 -18 6 -21 28 -4 28
9 0 16 -7 16 -16z m150 -24 c0 -29 -4 -40 -15 -40 -11 0 -15 11 -15 40 0 29 4
40 15 40 11 0 15 -11 15 -40z m250 0 c0 -29 -4 -40 -15 -40 -11 0 -15 11 -15
40 0 29 4 40 15 40 11 0 15 -11 15 -40z m400 25 c0 -8 7 -15 15 -15 8 0 15 -4
15 -10 0 -5 -7 -10 -15 -10 -8 0 -15 -7 -15 -15 0 -8 -7 -15 -15 -15 -11 0
-15 11 -15 40 0 29 4 40 15 40 8 0 15 -7 15 -15z m240 11 c0 -1 -5 -18 -11
-36 -9 -26 -9 -34 2 -41 9 -6 -2 -8 -31 -7 -29 1 -35 2 -17 5 25 4 27 7 21 44
-6 35 -4 39 15 39 11 0 21 -2 21 -4z m880 -41 c0 -33 -4 -45 -15 -45 -11 0
-15 12 -15 45 0 33 4 45 15 45 11 0 15 -12 15 -45z m327 -22 c-3 -10 -5 -4 -5
12 0 17 2 24 5 18 2 -7 2 -21 0 -30z m-2300 0 c2 -6 -3 -13 -12 -16 -10 -5
-15 0 -15 14 0 21 21 22 27 2z m930 -9 c-3 -3 -12 -4 -19 -1 -8 3 -5 6 6 6 11
1 17 -2 13 -5z m-185 -16 c-9 -9 -15 -9 -24 0 -9 9 -7 12 12 12 19 0 21 -3 12
-12z m558 -28 c0 -22 -4 -40 -10 -40 -5 0 -10 18 -10 40 0 22 5 40 10 40 6 0
10 -18 10 -40z m-1256 9 c-8 -14 -24 -10 -24 6 0 9 6 12 15 9 8 -4 12 -10 9
-15z m2253 -11 c-3 -7 -5 -2 -5 12 0 14 2 19 5 13 2 -7 2 -19 0 -25z m-1595
-10 c-9 -9 -12 -7 -12 12 0 19 3 21 12 12 9 -9 9 -15 0 -24z m68 10 c0 -16 -3
-19 -11 -11 -6 6 -8 16 -5 22 11 17 16 13 16 -11z m1571 -19 c-6 -24 -9 -28
-10 -12 -1 24 9 56 16 50 2 -3 0 -20 -6 -38z m-421 21 c0 -5 -7 -10 -15 -10
-8 0 -15 5 -15 10 0 6 7 10 15 10 8 0 15 -4 15 -10z m200 0 c0 -5 -4 -10 -10
-10 -5 0 -10 5 -10 10 0 6 5 10 10 10 6 0 10 -4 10 -10z m127 -12 c-3 -8 -6
-5 -6 6 -1 11 2 17 5 13 3 -3 4 -12 1 -19z m-1502 -18 c3 -5 -3 -10 -15 -10
-12 0 -18 5 -15 10 3 6 10 10 15 10 5 0 12 -4 15 -10z m1222 -6 c-3 -3 -12 -4
-19 -1 -8 3 -5 6 6 6 11 1 17 -2 13 -5z m290 -46 c-3 -8 -6 -5 -6 6 -1 11 2
17 5 13 3 -3 4 -12 1 -19z m-40 -20 c-3 -8 -6 -5 -6 6 -1 11 2 17 5 13 3 -3 4
-12 1 -19z m3710 -10 c-3 -7 -5 -2 -5 12 0 14 2 19 5 13 2 -7 2 -19 0 -25z
m-3630 -30 c-3 -8 -6 -5 -6 6 -1 11 2 17 5 13 3 -3 4 -12 1 -19z m47 7 c-4 -8
-8 -15 -10 -15 -2 0 -4 7 -4 15 0 8 4 15 10 15 5 0 7 -7 4 -15z m3606 -109
c-5 -43 -8 -88 -5 -100 3 -11 1 -34 -5 -51 -7 -22 -9 -1 -6 85 4 104 12 157
22 147 2 -2 -1 -39 -6 -81z m-3583 52 c-3 -8 -6 -5 -6 6 -1 11 2 17 5 13 3 -3
4 -12 1 -19z m-96 -46 c3 -23 2 -42 -3 -42 -4 0 -8 12 -8 26 0 14 -5 35 -11
46 -9 16 -8 19 3 16 7 -3 16 -23 19 -46z m3605 -74 c-7 -64 -15 -121 -20 -125
-14 -14 6 212 21 240 11 18 10 -3 -1 -115z m-3508 27 c0 -42 -2 -74 -6 -71 -4
2 -5 -24 -4 -57 5 -80 -5 -70 -17 18 -7 46 -7 71 0 75 5 4 11 24 13 46 5 58 6
64 9 64 2 0 4 -34 5 -75z m3539 -7 c-3 -7 -5 -2 -5 12 0 14 2 19 5 13 2 -7 2
-19 0 -25z m-5060 6 c-3 -3 -12 -4 -19 -1 -8 3 -5 6 6 6 11 1 17 -2 13 -5z
m1552 -156 c-5 -42 -6 -32 -6 47 0 72 2 87 6 53 4 -25 4 -70 0 -100z m177 107
c1 -17 7 -43 13 -59 15 -38 -1 -58 -38 -50 -43 10 -46 21 -17 51 23 23 25 28
11 35 -8 5 -15 17 -15 27 0 44 44 40 46 -4z m114 -5 c0 -5 -2 -10 -4 -10 -3 0
-8 5 -11 10 -3 6 -1 10 4 10 6 0 11 -4 11 -10z m3202 -17 c-3 -16 -7 -22 -10
-15 -4 13 4 42 11 42 2 0 2 -12 -1 -27z m-165 -15 c-3 -7 -5 -2 -5 12 0 14 2
19 5 13 2 -7 2 -19 0 -25z m33 -8 c0 -5 -4 -10 -10 -10 -5 0 -10 5 -10 10 0 6
5 10 10 10 6 0 10 -4 10 -10z m-26 -35 c-4 -8 -8 -15 -10 -15 -2 0 -4 7 -4 15
0 8 4 15 10 15 5 0 7 -7 4 -15z m190 -39 c-10 -8 -21 -12 -24 -9 -3 2 4 11 14
19 11 7 22 12 25 9 2 -3 -4 -12 -15 -19z m-3607 -28 c-3 -7 -5 -2 -5 12 0 14
2 19 5 13 2 -7 2 -19 0 -25z m3553 30 c-2 -23 -28 -87 -32 -77 -7 19 10 79 22
79 6 0 10 -1 10 -2z m128 -28 c7 -12 8 -21 2 -25 -6 -3 -10 -1 -10 6 0 7 -8
21 -17 31 -13 14 -13 18 -2 13 8 -3 20 -14 27 -25z m-3448 0 c-6 -11 -13 -20
-16 -20 -2 0 0 9 6 20 6 11 13 20 16 20 2 0 0 -9 -6 -20z m3390 -40 c0 -5 -4
-10 -9 -10 -6 0 -13 5 -16 10 -3 6 1 10 9 10 9 0 16 -4 16 -10z m26 -17 c-10
-10 -19 5 -10 18 6 11 8 11 12 0 2 -7 1 -15 -2 -18z m-3372 5 c2 -7 7 -22 11
-33 4 -11 6 -47 6 -81 -2 -58 14 -118 29 -109 4 3 10 -5 13 -16 7 -28 -36 -69
-72 -69 -38 0 -81 22 -82 43 -1 9 -2 23 -3 30 -1 6 6 12 14 13 27 2 50 16 50
30 0 8 -4 14 -10 14 -13 0 -13 59 1 118 16 68 17 72 29 72 6 0 12 -6 14 -12z
m2784 -13 c-3 -3 -9 2 -12 12 -6 14 -5 15 5 6 7 -7 10 -15 7 -18z m-2938 -1
c0 -8 -5 -12 -10 -9 -6 4 -8 11 -5 16 9 14 15 11 15 -7z m3327 -41 c-3 -10 -5
-4 -5 12 0 17 2 24 5 18 2 -7 2 -21 0 -30z m160 15 c-3 -8 -6 -5 -6 6 -1 11 2
17 5 13 3 -3 4 -12 1 -19z m-3590 -20 c-3 -7 -5 -2 -5 12 0 14 2 19 5 13 2 -7
2 -19 0 -25z m3510 -10 c-3 -8 -6 -5 -6 6 -1 11 2 17 5 13 3 -3 4 -12 1 -19z
m-3420 -30 c-3 -8 -6 -5 -6 6 -1 11 2 17 5 13 3 -3 4 -12 1 -19z m78 2 c3 -5
1 -10 -4 -10 -6 0 -11 5 -11 10 0 6 2 10 4 10 3 0 8 -4 11 -10z m3252 -22 c-3
-8 -6 -5 -6 6 -1 11 2 17 5 13 3 -3 4 -12 1 -19z m-2 -65 c-5 -15 -7 -34 -6
-41 1 -7 -5 -15 -14 -18 -19 -8 -20 -24 0 -24 8 0 15 5 15 12 0 6 2 9 5 6 11
-11 -6 -34 -26 -35 -18 -2 -19 3 -16 57 2 32 9 65 17 74 19 24 34 4 25 -31z
m-3328 5 c-3 -7 -5 -2 -5 12 0 14 2 19 5 13 2 -7 2 -19 0 -25z m80 -150 c-3
-8 -6 -5 -6 6 -1 11 2 17 5 13 3 -3 4 -12 1 -19z m643 17 c0 -7 -54 -55 -58
-51 -4 5 40 54 51 55 4 1 7 -1 7 -4z m-70 -9 c0 -11 -19 -15 -25 -6 -3 5 1 10
9 10 9 0 16 -2 16 -4z m2657 -60 c-3 -18 -2 -38 3 -42 4 -5 -5 -51 -20 -102
-28 -93 -48 -134 -36 -77 14 72 17 120 8 110 -6 -5 -12 -19 -15 -30 -3 -11 -4
9 -1 44 2 36 8 69 14 75 13 13 13 -4 0 -38 -6 -16 -6 -26 0 -26 5 0 14 19 20
43 18 68 21 77 27 77 3 0 3 -15 0 -34z m-2737 -11 c11 -13 10 -14 -4 -9 -9 3
-16 10 -16 15 0 13 6 11 20 -6z m2812 -32 c-1 -33 0 -34 12 -18 13 18 14 18
20 -3 14 -41 -13 -169 -43 -204 -21 -26 -34 -22 -27 8 5 17 3 23 -4 19 -5 -3
-10 -2 -10 4 0 5 6 14 13 18 18 10 37 68 36 107 0 26 -2 28 -8 11 -5 -11 -7
-23 -5 -27 3 -4 -1 -10 -7 -14 -11 -7 -9 53 5 121 3 11 5 22 5 24 1 2 4 1 8
-2 3 -4 6 -23 5 -44z m-2835 5 c-7 -4 -16 -8 -22 -8 -5 0 -3 5 5 10 10 6 11
10 3 10 -7 0 -13 5 -13 10 0 6 8 5 20 -2 14 -9 16 -14 7 -20z m2671 -70 c-5
-32 -14 -55 -19 -52 -10 6 -4 41 13 87 16 40 17 30 6 -35z m-20 -93 c-1 -14
-6 -25 -11 -25 -5 0 -6 7 -3 16 3 9 6 20 6 25 0 5 2 9 5 9 3 0 4 -11 3 -25z
m98 -11 c-4 -9 -9 -15 -11 -12 -3 3 -3 13 1 22 4 9 9 15 11 12 3 -3 3 -13 -1
-22z m-59 -6 c0 -13 3 -32 7 -43 6 -14 5 -16 -2 -6 -5 7 -14 11 -19 8 -5 -3
-7 10 -5 29 5 38 20 47 19 12z m43 -58 c0 -11 -4 -20 -9 -20 -5 0 -7 9 -4 20
3 11 7 20 9 20 2 0 4 -9 4 -20z m-510 -104 c0 -11 -19 -15 -25 -6 -3 5 1 10 9
10 9 0 16 -2 16 -4z m-2160 -126 c0 -5 -2 -10 -4 -10 -3 0 -8 5 -11 10 -3 6
-1 10 4 10 6 0 11 -4 11 -10z m40 4 c0 -7 -27 -34 -34 -34 -4 0 -1 9 6 20 12
19 28 27 28 14z m2082 -96 c-5 -30 -6 -31 -13 -10 -9 23 -2 55 10 47 4 -2 6
-19 3 -37z m-35 -33 c-3 -23 -17 -48 -17 -29 0 15 12 54 17 54 2 0 2 -11 0
-25z m-1822 -25 c3 -5 1 -10 -4 -10 -6 0 -11 5 -11 10 0 6 2 10 4 10 3 0 8 -4
11 -10z m-180 -11 c11 -17 -1 -21 -15 -4 -8 9 -8 15 -2 15 6 0 14 -5 17 -11z
m45 -9 c0 -5 -2 -10 -4 -10 -3 0 -8 5 -11 10 -3 6 -1 10 4 10 6 0 11 -4 11
-10z m130 -12 c0 -5 -5 -8 -12 -8 -7 0 -6 -5 4 -12 13 -11 13 -19 3 -58 -7
-25 -13 -37 -14 -27 -1 19 -12 22 -28 6 -7 -7 -12 -4 -16 11 -3 14 -1 20 6 17
18 -6 47 12 47 28 0 8 -4 15 -10 15 -5 0 -10 -5 -10 -10 0 -7 -6 -7 -19 0 -11
5 -27 7 -35 4 -9 -3 -16 -1 -16 5 0 6 6 11 14 11 7 0 19 6 25 14 12 14 61 17
61 4z m1786 -24 c-3 -9 -6 -21 -6 -27 0 -7 -4 -7 -9 2 -10 16 -4 41 11 41 6 0
7 -7 4 -16z m375 -7 c-10 -9 -11 -8 -5 6 3 10 9 15 12 12 3 -3 0 -11 -7 -18z
m-407 -51 c-3 -9 -10 -16 -15 -16 -5 0 -4 9 3 20 14 22 21 20 12 -4z m-1703
-33 c-12 -8 -18 -19 -15 -25 4 -7 2 -8 -5 -4 -6 4 -19 2 -27 -5 -23 -19 -30
-1 -7 21 12 10 23 17 26 14 2 -2 10 2 17 11 7 8 17 12 22 9 5 -3 0 -13 -11
-21z m1822 -18 c-3 -9 -8 -14 -10 -11 -3 3 -2 9 2 15 9 16 15 13 8 -4z m-25
-50 c-6 -14 -13 -23 -15 -21 -5 5 15 46 22 46 3 0 -1 -11 -7 -25z m-1818 -5
c0 -5 -8 -10 -17 -10 -15 0 -16 2 -3 10 19 12 20 12 20 0z m-23 -115 c-4 -8 5
-23 20 -35 14 -11 20 -20 14 -20 -20 0 -73 58 -58 63 22 10 29 7 24 -8z m1983
-10 c-7 -9 -15 -13 -19 -10 -3 3 1 10 9 15 21 14 24 12 10 -5z m266 -11 c-4
-9 -9 -15 -11 -12 -3 3 -3 13 1 22 4 9 9 15 11 12 3 -3 3 -13 -1 -22z m-733
-49 c-3 -9 -8 -14 -10 -11 -3 3 -2 9 2 15 9 16 15 13 8 -4z m122 -55 c-3 -5
-11 -10 -16 -10 -6 0 -7 5 -4 10 3 6 11 10 16 10 6 0 7 -4 4 -10z m-280 -60
c-3 -5 -12 -10 -18 -10 -7 0 -6 4 3 10 19 12 23 12 15 0z m945 0 c0 -5 -4 -10
-10 -10 -5 0 -10 5 -10 10 0 6 5 10 10 10 6 0 10 -4 10 -10z m-510 -34 c0 -8
-4 -18 -10 -21 -5 -3 -10 3 -10 14 0 12 5 21 10 21 6 0 10 -6 10 -14z m-563
-32 c-3 -3 -12 -4 -19 -1 -8 3 -5 6 6 6 11 1 17 -2 13 -5z m-67 -14 c0 -5 -4
-10 -10 -10 -5 0 -10 5 -10 10 0 6 5 10 10 10 6 0 10 -4 10 -10z m585 0 c3 -5
1 -10 -4 -10 -6 0 -11 5 -11 10 0 6 2 10 4 10 3 0 8 -4 11 -10z m336 -47 c-12
-20 -14 -14 -5 12 4 9 9 14 11 11 3 -2 0 -13 -6 -23z m-343 -5 c-2 -6 -10 -14
-16 -16 -7 -2 -10 2 -6 12 7 18 28 22 22 4z m32 -14 c0 -3 -7 -12 -15 -21 -20
-19 -32 -10 -14 11 14 15 29 21 29 10z m437 -56 c-3 -8 -6 -5 -6 6 -1 11 2 17
5 13 3 -3 4 -12 1 -19z m30 0 c-3 -8 -6 -5 -6 6 -1 11 2 17 5 13 3 -3 4 -12 1
-19z m-25 -45 c-3 -16 -7 -22 -10 -15 -4 13 4 42 11 42 2 0 2 -12 -1 -27z m-2
-47 c0 -3 -4 -8 -10 -11 -5 -3 -10 -1 -10 4 0 6 5 11 10 11 6 0 10 -2 10 -4z
m-659 -59 c-9 -9 -14 -8 -21 3 -16 24 -11 31 11 19 16 -8 18 -14 10 -22z
m-233 -172 c-3 -3 -9 2 -12 12 -6 14 -5 15 5 6 7 -7 10 -15 7 -18z m18 -62
c-10 -10 -19 5 -10 18 6 11 8 11 12 0 2 -7 1 -15 -2 -18z m4 -68 c0 -8 -4 -15
-10 -15 -5 0 -7 7 -4 15 4 8 8 15 10 15 2 0 4 -7 4 -15z m-40 -115 c0 -5 -5
-10 -11 -10 -5 0 -7 5 -4 10 3 6 8 10 11 10 2 0 4 -4 4 -10z m-76 -126 c4 -9
4 -19 1 -22 -3 -3 -5 0 -5 6 0 7 -7 12 -15 12 -8 0 -15 5 -15 10 0 16 27 11
34 -6z m-47 -12 c8 -5 8 -12 -3 -26 -12 -17 -14 -17 -14 -3 0 9 -8 21 -17 26
-17 10 -16 10 2 11 11 0 25 -4 32 -8z m-161 -79 c-10 -11 -25 18 -18 35 4 13
8 11 15 -6 6 -12 7 -25 3 -29z m-29 -5 c12 -19 11 -58 -2 -50 -5 4 -21 7 -35
7 -15 0 -26 6 -28 17 -2 12 2 15 17 11 15 -4 21 -1 21 11 0 19 16 21 27 4z
m221 3 c11 -6 10 -10 -4 -15 -15 -6 -16 -8 0 -24 26 -29 21 -44 -10 -30 -20 9
-24 17 -19 35 3 13 1 23 -5 23 -5 0 -10 5 -10 10 0 12 30 13 48 1z m-128 -11
c0 -5 -4 -10 -10 -10 -5 0 -10 5 -10 10 0 6 5 10 10 10 6 0 10 -4 10 -10z m50
0 c13 -9 13 -11 0 -20 -21 -14 -40 -12 -40 3 0 26 16 33 40 17z m-230 -26 c0
-2 -9 -4 -21 -4 -11 0 -18 4 -14 10 5 8 35 3 35 -6z m-26 -81 c8 -21 -10 -41
-24 -27 -11 11 -3 44 10 44 4 0 11 -8 14 -17z m344 5 c-6 -18 -28 -21 -28 -4
0 9 7 16 16 16 9 0 14 -5 12 -12z m-68 -41 c0 -5 -4 -5 -10 -2 -5 3 -10 14
-10 23 0 15 2 15 10 2 5 -8 10 -19 10 -23z m-275 -17 c-3 -5 -15 -10 -25 -10
-10 0 -21 -6 -23 -12 -3 -7 -6 -3 -6 10 -1 18 4 22 30 22 17 0 28 -4 24 -10z
m345 -20 c0 -5 -2 -10 -4 -10 -3 0 -8 5 -11 10 -3 6 -1 10 4 10 6 0 11 -4 11
-10z m1 -62 c10 -18 8 -24 -6 -35 -14 -9 -22 -10 -32 -1 -11 9 -12 13 -1 20
10 8 10 11 1 15 -20 7 -15 23 7 23 10 0 25 -10 31 -22z m-1 -111 c0 -8 -11
-19 -24 -25 -19 -8 -27 -8 -36 3 -13 16 -9 18 35 28 11 3 21 5 23 6 1 0 2 -5
2 -12z m-870 -92 c0 -24 -2 -25 -35 -19 -31 5 -35 4 -35 -15 0 -11 -4 -21 -10
-21 -17 0 -11 36 8 53 12 11 22 13 32 7 21 -14 30 -12 30 5 0 8 2 15 5 15 3 0
5 -11 5 -25z m5035 -714 c5 -17 4 -22 -6 -19 -8 3 -15 18 -17 34 -4 33 11 24
23 -15z m96 -24 c-10 -9 -11 -8 -5 6 3 10 9 15 12 12 3 -3 0 -11 -7 -18z"/>
<path d="M5168 9373 c7 -3 16 -2 19 1 4 3 -2 6 -13 5 -11 0 -14 -3 -6 -6z"/>
<path d="M5875 9140 c-3 -5 1 -10 10 -10 11 0 15 -5 12 -14 -4 -10 -1 -13 9
-9 8 3 13 12 10 20 -3 8 -6 17 -6 19 0 8 -29 4 -35 -6z"/>
<path d="M5625 7120 c3 -5 8 -10 11 -10 2 0 4 5 4 10 0 6 -5 10 -11 10 -5 0
-7 -4 -4 -10z"/>
<path d="M5052 6740 c-12 -16 -18 -31 -13 -34 12 -8 41 4 41 16 0 6 6 8 13 5
7 -3 24 1 38 9 13 7 20 14 14 14 -16 2 -39 8 -55 14 -9 3 -24 -7 -38 -24z"/>
<path d="M5176 6761 c-14 -5 -16 -10 -8 -15 17 -11 15 -26 -3 -19 -9 3 -24 -2
-35 -12 -11 -10 -26 -15 -34 -12 -9 4 -18 2 -21 -3 -4 -6 -16 -10 -28 -10 -16
0 -19 -3 -8 -9 7 -5 11 -13 7 -19 -6 -10 29 -25 53 -22 8 1 20 8 28 16 19 18
29 18 37 -3 6 -15 8 -14 20 2 8 12 25 18 46 17 19 0 42 4 53 9 14 8 23 7 36
-5 22 -20 35 -21 28 -2 -3 8 0 17 8 20 9 3 12 0 8 -9 -3 -9 3 -18 13 -22 10
-4 19 -2 22 5 2 7 13 12 25 12 20 0 20 0 1 -15 -18 -14 -18 -14 0 -15 12 0 16
-5 12 -16 -3 -8 -2 -12 3 -9 6 3 14 -2 19 -11 12 -21 32 -10 32 17 0 16 -5 19
-20 14 -24 -8 -26 1 -4 22 13 14 17 14 25 2 5 -8 9 -23 9 -34 0 -16 2 -17 10
-5 7 12 13 10 34 -13 14 -15 30 -27 37 -27 8 0 9 -3 0 -13 -8 -11 -3 -18 26
-33 21 -10 46 -27 57 -36 30 -27 43 -21 16 7 -13 14 -30 25 -37 25 -9 0 -12 8
-7 28 l6 27 -22 -25 c-21 -24 -21 -24 -15 -3 5 18 1 25 -19 35 -14 6 -26 15
-26 20 0 11 17 10 25 -2 3 -5 11 -10 16 -10 6 0 -3 14 -20 31 -24 23 -36 29
-53 23 -20 -6 -21 -5 -9 10 12 14 12 16 -2 11 -8 -4 -18 -2 -22 4 -10 17 -35
13 -35 -6 0 -10 -4 -14 -8 -8 -4 6 -16 15 -27 21 -16 9 -23 8 -32 -5 -12 -14
-12 -14 -7 2 5 13 1 20 -15 24 -11 3 -21 10 -21 15 0 6 -10 7 -22 3 -13 -3
-38 -9 -57 -11 -27 -4 -32 -2 -27 11 3 10 2 14 -5 10 -6 -4 -18 0 -27 8 -10 9
-25 12 -36 8z m-37 -70 c-30 -23 -85 -35 -68 -15 6 8 15 11 20 8 5 -3 19 2 31
10 32 22 46 20 17 -3z m71 15 c0 -11 -19 -15 -25 -6 -3 5 1 10 9 10 9 0 16 -2
16 -4z"/>
<path d="M5010 6741 c-8 -6 -18 -7 -22 -5 -4 3 -8 1 -8 -4 0 -5 -14 -7 -30 -4
-20 3 -37 -2 -50 -13 -10 -9 -24 -14 -29 -10 -6 3 -11 2 -11 -4 0 -6 -6 -8
-14 -5 -18 7 -29 -11 -21 -36 5 -16 10 -18 25 -10 26 14 30 13 23 -6 -5 -13
-2 -15 17 -9 l23 7 -21 -27 c-30 -38 -28 -52 3 -19 14 15 25 23 25 18 0 -5 5
-2 10 6 6 10 10 11 10 3 0 -7 9 -13 20 -13 11 0 20 5 20 10 0 6 5 10 11 10 5
0 8 -4 5 -9 -3 -5 5 -8 19 -8 14 0 22 3 19 8 -3 5 2 9 10 9 13 0 12 4 -4 20
-25 25 -24 25 -55 -6 -14 -14 -29 -24 -32 -20 -3 3 9 17 26 32 29 24 35 52 8
38 -7 -3 3 8 21 25 31 30 33 41 2 22z m20 -101 c0 -5 -7 -10 -16 -10 -8 0 -12
5 -9 10 3 6 10 10 16 10 5 0 9 -4 9 -10z"/>
<path d="M5288 6743 c7 -3 16 -2 19 1 4 3 -2 6 -13 5 -11 0 -14 -3 -6 -6z"/>
<path d="M5368 6633 c7 -3 16 -2 19 1 4 3 -2 6 -13 5 -11 0 -14 -3 -6 -6z"/>
<path d="M4790 6594 c0 -8 5 -12 10 -9 6 3 10 10 10 16 0 5 -4 9 -10 9 -5 0
-10 -7 -10 -16z"/>
<path d="M4934 6536 c-9 -15 -14 -16 -33 -6 -13 6 -25 9 -28 6 -3 -3 2 -8 11
-12 9 -3 13 -10 10 -15 -3 -5 -9 -7 -14 -4 -5 3 -19 1 -30 -5 -16 -9 -20 -8
-20 7 0 12 -3 14 -11 6 -6 -6 -19 -9 -28 -6 -9 3 -6 -2 7 -11 12 -10 19 -22
16 -28 -4 -6 -10 -5 -15 3 -6 10 -9 10 -9 2 0 -7 8 -17 18 -22 16 -10 15 -10
-3 -11 -22 -1 -65 -33 -65 -48 0 -6 -6 -13 -12 -16 -7 -3 3 -4 22 -1 l35 4
-39 -13 c-22 -7 -42 -18 -44 -26 -3 -8 0 -10 8 -5 9 6 9 3 1 -13 -6 -12 -16
-24 -21 -27 -22 -13 -72 -155 -56 -155 4 0 11 12 16 26 8 19 16 25 30 21 11
-3 20 -1 20 4 0 8 -15 13 -33 10 -9 -1 34 62 46 67 4 2 7 9 7 15 0 21 64 67
93 67 15 0 35 4 45 10 42 23 93 42 98 37 3 -3 -17 -16 -45 -28 -29 -12 -50
-23 -48 -25 5 -5 99 27 115 39 7 5 15 7 18 4 3 -3 -20 -18 -53 -33 -56 -27
-127 -74 -90 -61 52 20 53 20 32 4 -11 -9 -14 -17 -8 -17 7 0 20 11 29 25 16
25 48 33 59 16 3 -6 -3 -15 -14 -21 -12 -6 -31 -20 -44 -33 -14 -12 -50 -44
-81 -70 -58 -50 -71 -77 -36 -77 12 0 17 5 14 14 -7 19 6 25 59 27 26 1 44 6
41 11 -3 5 -12 7 -20 4 -8 -3 -14 -1 -14 5 0 6 11 8 28 5 22 -5 29 -2 37 16 6
13 29 33 52 46 l42 23 7 -47 c15 -104 124 -160 124 -63 0 22 25 26 34 4 3 -8
2 -15 -2 -15 -4 0 -13 -10 -20 -21 -14 -21 -14 -22 72 -14 56 4 86 3 86 -3 0
-6 -5 -12 -11 -14 -8 -3 -6 -10 5 -21 10 -10 14 -22 10 -29 -5 -8 0 -7 11 2
10 8 16 10 12 3 -4 -6 -3 -14 3 -18 5 -3 10 -2 10 3 0 6 7 12 15 16 13 5 14 2
4 -15 -9 -19 -9 -20 10 -10 11 6 23 16 26 21 4 6 16 8 27 4 14 -4 18 -2 14 5
-4 6 -2 11 4 11 6 0 9 4 6 9 -10 16 38 22 50 6 18 -24 33 -18 28 11 -4 24 -3
26 23 20 l28 -7 -29 20 c-16 10 -34 17 -41 15 -7 -3 -15 2 -19 11 -3 9 -2 13
4 10 6 -3 15 -3 21 1 8 4 7 9 -2 15 -7 4 -10 12 -5 16 4 4 13 0 20 -10 8 -10
32 -19 62 -22 44 -4 46 -4 17 5 -18 6 -55 32 -83 59 -43 42 -48 49 -31 54 13
3 21 -1 24 -12 3 -11 5 -9 6 6 0 12 9 27 19 33 14 9 12 10 -12 5 -26 -6 -28
-4 -16 10 11 13 10 14 -5 8 -15 -5 -17 -3 -12 12 6 15 5 16 -8 5 -12 -10 -21
-8 -47 8 -18 10 -32 24 -31 30 1 5 -7 8 -17 5 -14 -4 -20 0 -20 11 0 10 -4 14
-10 11 -5 -3 -10 -1 -10 5 0 7 -7 9 -16 6 -8 -3 -13 -2 -10 3 7 11 -41 24 -55
15 -5 -3 -20 1 -32 9 -34 22 -87 37 -137 38 -25 1 -51 6 -57 12 -9 6 -13 5
-13 -4 0 -10 -3 -10 -12 -1 -19 19 -32 14 -17 -5 13 -16 12 -17 -3 -4 -10 7
-27 11 -38 8 -21 -5 -36 7 -42 38 -4 19 -4 19 -14 1z m-124 -110 c0 -3 -4 -8
-10 -11 -5 -3 -10 -1 -10 4 0 6 5 11 10 11 6 0 10 -2 10 -4z m240 -1 c0 -11
-40 -24 -57 -18 -14 6 -11 9 17 14 19 4 36 7 38 8 1 0 2 -1 2 -4z m-140 -24
c0 -11 -56 -31 -84 -30 -16 0 31 23 82 38 1 1 2 -3 2 -8z m200 2 c0 -5 22 -6
50 -5 49 4 57 -1 42 -25 -6 -10 -14 -9 -35 2 -16 8 -29 10 -33 4 -3 -5 -10 -7
-15 -4 -5 4 -9 1 -9 -5 0 -7 -6 -10 -12 -7 -7 2 -12 10 -10 16 1 6 -4 11 -10
11 -9 0 -8 4 2 10 18 12 30 13 30 3z m-40 -36 c0 -5 -9 -5 -20 -2 -14 5 -20 2
-20 -9 0 -9 -9 -16 -20 -16 -11 0 -20 -5 -20 -11 0 -8 -5 -7 -15 1 -14 11 -10
17 32 41 45 27 62 25 63 -4z m201 11 c22 -6 39 -15 39 -19 0 -15 -21 -21 -34
-10 -8 7 -18 11 -22 10 -22 -4 -34 2 -34 16 0 18 2 18 51 3z m79 -39 c0 -6 7
-8 16 -5 10 4 13 2 8 -6 -5 -7 -2 -9 9 -5 10 4 26 -6 47 -30 17 -19 34 -32 37
-29 8 8 53 -34 53 -50 0 -6 -6 -17 -14 -23 -11 -9 -18 -6 -35 18 -12 16 -21
34 -21 40 0 7 -7 11 -16 9 -9 -2 -23 7 -31 20 -18 26 -12 29 11 6 9 -8 16 -11
16 -5 0 13 -35 33 -43 24 -3 -3 -14 -2 -24 2 -10 5 -22 9 -28 9 -17 2 -18 36
-1 36 9 0 16 -5 16 -11z m120 -9 c0 -5 6 -7 13 -5 20 8 44 -12 30 -26 -8 -8
-17 -7 -37 7 -26 20 -33 34 -16 34 6 0 10 -4 10 -10z m-324 -51 c5 -8 8 -8 13
0 5 8 13 5 26 -9 18 -20 18 -20 -13 -20 -21 0 -35 7 -42 20 -11 21 3 29 16 9z
m-33 -79 c-3 -11 -9 -20 -14 -20 -10 0 -12 24 -2 33 13 13 21 7 16 -13z m17
-40 c0 -14 -28 -19 -38 -7 -8 9 -4 12 14 13 13 1 24 -2 24 -6z m110 -4 c0 -3
-4 -8 -10 -11 -5 -3 -10 -1 -10 4 0 6 5 11 10 11 6 0 10 -2 10 -4z"/>
<path d="M5470 6256 c0 -3 5 -17 12 -31 13 -28 31 -35 21 -7 -7 17 -33 48 -33
38z"/>
<path d="M5490 6310 c0 -5 5 -10 11 -10 5 0 7 5 4 10 -3 6 -8 10 -11 10 -2 0
-4 -4 -4 -10z"/>
<path d="M4967 6544 c-8 -8 1 -24 14 -24 5 0 9 7 9 15 0 15 -12 20 -23 9z"/>
<path d="M4015 6470 c3 -5 8 -10 11 -10 2 0 4 5 4 10 0 6 -5 10 -11 10 -5 0
-7 -4 -4 -10z"/>
<path d="M4735 6470 c-3 -5 1 -10 9 -10 8 0 18 5 21 10 3 6 -1 10 -9 10 -8 0
-18 -4 -21 -10z"/>
<path d="M4064 6451 c4 -5 0 -12 -6 -14 -10 -4 -9 -6 1 -6 8 -1 20 -9 28 -18
8 -10 12 -12 8 -5 -4 7 0 12 9 12 9 0 16 -4 16 -10 0 -5 7 -10 16 -10 8 0 12
-5 9 -10 -4 -6 -10 -8 -14 -6 -4 3 -7 -4 -8 -14 -1 -11 3 -22 8 -25 5 -4 6
-11 3 -17 -5 -7 -1 -9 9 -5 10 3 17 2 17 -2 0 -5 -6 -12 -12 -14 -10 -4 -10
-6 0 -6 7 -1 10 -5 7 -11 -3 -5 -2 -10 4 -10 6 0 8 -6 5 -13 -3 -8 3 -20 12
-28 16 -12 17 -12 11 3 -3 9 -1 19 6 21 8 3 6 10 -6 25 -13 14 -15 22 -7 27 7
4 2 15 -15 31 -19 17 -22 24 -11 24 22 0 20 13 -4 35 -11 10 -17 21 -15 26 3
4 1 10 -5 14 -5 3 -10 1 -10 -6 0 -7 -8 -6 -25 5 -27 18 -39 21 -31 7z"/>
<path d="M3950 6390 c0 -5 5 -10 11 -10 5 0 7 5 4 10 -3 6 -8 10 -11 10 -2 0
-4 -4 -4 -10z"/>
<path d="M5457 6379 c7 -7 15 -10 18 -7 3 3 -2 9 -12 12 -14 6 -15 5 -6 -5z"/>
<path d="M4818 6313 c7 -3 16 -2 19 1 4 3 -2 6 -13 5 -11 0 -14 -3 -6 -6z"/>
<path d="M3073 6303 c9 -2 23 -2 30 0 6 3 -1 5 -18 5 -16 0 -22 -2 -12 -5z"/>
<path d="M3111 6274 c0 -11 3 -14 6 -6 3 7 2 16 -1 19 -3 4 -6 -2 -5 -13z"/>
<path d="M5580 6270 c-9 -6 -10 -10 -3 -10 6 0 15 5 18 10 8 12 4 12 -15 0z"/>
<path d="M3027 6256 c-4 -10 -1 -13 9 -9 15 6 19 23 5 23 -5 0 -11 -7 -14 -14z"/>
<path d="M3517 6229 c7 -7 15 -10 18 -7 3 3 -2 9 -12 12 -14 6 -15 5 -6 -5z"/>
<path d="M3847 6169 c7 -7 15 -10 18 -7 3 3 -2 9 -12 12 -14 6 -15 5 -6 -5z"/>
<path d="M3668 6145 c2 -14 8 -25 13 -25 14 0 11 26 -5 39 -11 9 -12 6 -8 -14z"/>
<path d="M3740 6161 c0 -5 5 -13 10 -16 6 -3 10 -2 10 4 0 5 -4 13 -10 16 -5
3 -10 2 -10 -4z"/>
<path d="M3790 6150 c-8 -11 -21 -21 -29 -23 -14 -4 -14 -5 0 -6 16 -1 56 35
48 44 -3 2 -11 -4 -19 -15z"/>
<path d="M3700 6141 c0 -9 30 -24 36 -18 2 1 -6 8 -16 15 -11 7 -20 8 -20 3z"/>
<path d="M4895 6139 c-4 -6 -14 -8 -24 -4 -12 5 -13 3 -4 -6 9 -9 17 -8 34 5
13 9 18 16 12 16 -7 0 -15 -5 -18 -11z"/>
<path d="M4925 6120 c4 -6 11 -8 16 -5 14 9 11 15 -7 15 -8 0 -12 -5 -9 -10z"/>
<path d="M3755 6101 c-3 -5 -2 -12 3 -15 5 -3 9 1 9 9 0 17 -3 19 -12 6z"/>
<path d="M5015 6100 c-3 -5 1 -10 10 -10 11 0 15 -5 12 -14 -4 -10 -1 -13 9
-9 10 4 14 -4 15 -28 1 -24 3 -27 6 -11 2 12 7 22 11 23 58 5 74 8 79 13 4 3
-8 6 -25 6 -18 0 -32 5 -32 11 0 6 -11 9 -24 7 -13 -1 -30 3 -39 10 -10 9 -17
10 -22 2z"/>
<path d="M4990 6087 c0 -10 8 -17 18 -17 9 0 13 4 7 8 -5 4 -13 11 -17 16 -5
5 -8 2 -8 -7z"/>
<path d="M5290 6080 c0 -5 -7 -7 -15 -4 -18 7 -18 6 -4 -35 15 -42 24 -39 24
9 1 22 0 40 -2 40 -2 0 -3 -4 -3 -10z"/>
<path d="M5180 6070 c0 -5 8 -19 17 -30 19 -22 34 -10 26 21 -5 19 -43 27 -43
9z"/>
<path d="M5250 6010 c0 -5 5 -10 11 -10 5 0 7 5 4 10 -3 6 -8 10 -11 10 -2 0
-4 -4 -4 -10z"/>
<path d="M5690 5406 c0 -2 8 -10 18 -17 15 -13 16 -12 3 4 -13 16 -21 21 -21
13z"/>
<path d="M3838 5287 c-3 -15 -2 -30 3 -32 12 -8 16 8 9 35 l-6 25 -6 -28z"/>
<path d="M5625 5300 c-3 -5 -1 -10 4 -10 6 0 11 5 11 10 0 6 -2 10 -4 10 -3 0
-8 -4 -11 -10z"/>
<path d="M4790 5281 c0 -6 4 -13 10 -16 6 -3 7 1 4 9 -7 18 -14 21 -14 7z"/>
<path d="M5610 5256 c0 -2 7 -6 15 -10 8 -3 15 -1 15 4 0 6 -7 10 -15 10 -8 0
-15 -2 -15 -4z"/>
<path d="M3873 5242 c-9 -6 -6 -16 12 -36 31 -37 32 -46 2 -18 -32 30 -35 28
-27 -20 5 -23 6 -48 3 -55 -3 -7 2 -16 11 -19 9 -3 16 -11 16 -18 0 -14 64
-76 79 -76 7 0 14 -7 17 -15 4 -8 10 -13 15 -10 11 7 46 -13 75 -42 12 -13 28
-23 37 -23 9 0 19 -4 22 -10 3 -5 14 -10 25 -10 10 0 20 -7 24 -15 4 -11 15
-14 41 -10 21 2 33 0 30 -5 -9 -15 39 -12 53 2 10 10 15 10 22 -2 6 -10 10
-11 10 -3 0 7 7 10 15 7 8 -4 15 -1 15 4 0 6 9 14 20 17 11 3 20 12 20 19 0
15 55 48 65 38 5 -4 5 1 2 10 -3 10 -3 17 1 16 7 -1 26 7 127 50 22 9 43 16
48 14 13 -4 62 28 73 47 31 57 37 72 31 78 -4 3 -15 -1 -25 -10 -13 -12 -35
-17 -73 -16 -62 1 -97 -10 -230 -75 -64 -31 -108 -46 -135 -46 -28 0 -35 3
-24 9 8 6 28 7 45 4 21 -4 27 -2 20 5 -5 6 -35 12 -65 13 -64 2 -125 32 -115
57 4 12 3 12 -8 3 -11 -8 -22 -7 -46 5 -17 8 -29 20 -26 25 4 5 -1 6 -10 3 -9
-4 -29 2 -44 14 -16 11 -47 25 -70 32 -51 14 -53 27 -3 23 l37 -3 -35 11 c-19
6 -38 16 -42 22 -6 9 -8 9 -8 0 0 -7 -5 -13 -11 -13 -6 0 -9 7 -5 15 6 17 6
18 -11 7z m62 -72 c3 -5 1 -10 -4 -10 -6 0 -11 5 -11 10 0 6 2 10 4 10 3 0 8
-4 11 -10z"/>
<path d="M4000 5229 c0 -5 5 -7 10 -4 6 3 10 8 10 11 0 2 -4 4 -10 4 -5 0 -10
-5 -10 -11z"/>
<path d="M4884 5228 c-4 -6 2 -19 15 -29 12 -10 22 -22 21 -26 0 -4 6 -15 13
-23 7 -8 35 -51 62 -95 27 -44 52 -82 55 -85 3 -3 25 -34 49 -70 25 -36 53
-71 63 -78 10 -7 18 -24 18 -37 0 -13 7 -31 16 -40 11 -10 16 -32 16 -61 -1
-37 1 -42 12 -32 17 17 28 120 12 111 -6 -3 -5 0 2 8 6 7 12 18 12 23 0 6 -5
4 -11 -4 -8 -11 -12 -12 -15 -3 -3 7 -23 34 -45 61 -21 28 -39 58 -40 68 0 11
-3 14 -6 7 -3 -10 -8 -10 -19 1 -8 8 -14 18 -14 21 0 4 -14 26 -31 50 -19 27
-28 48 -23 57 4 7 4 10 -1 6 -9 -9 -55 49 -55 69 0 8 -7 16 -15 19 -8 4 -15
12 -15 20 0 8 -4 14 -10 14 -5 0 -10 7 -10 15 0 8 -4 15 -9 15 -5 0 -16 7 -25
15 -11 11 -17 12 -22 3z"/>
<path d="M5601 5214 c0 -11 3 -14 6 -6 3 7 2 16 -1 19 -3 4 -6 -2 -5 -13z"/>
<path d="M4006 5201 l-29 -14 26 -13 c14 -8 33 -11 41 -8 17 7 22 24 7 24 -5
0 -11 6 -13 13 -2 10 -9 10 -32 -2z"/>
<path d="M4062 5169 c-7 -11 -8 -19 -2 -19 5 0 10 5 10 11 0 6 9 8 23 3 12 -3
20 -5 17 -2 -33 26 -36 27 -48 7z"/>
<path d="M4550 5171 c0 -6 4 -13 10 -16 6 -3 7 1 4 9 -7 18 -14 21 -14 7z"/>
<path d="M4490 5125 c-7 -8 -8 -15 -2 -15 5 0 15 7 22 15 7 8 8 15 2 15 -5 0
-15 -7 -22 -15z"/>
<path d="M4108 5118 c9 -9 15 -9 24 0 9 9 7 12 -12 12 -19 0 -21 -3 -12 -12z"/>
<path d="M4436 5095 c-11 -8 -15 -15 -10 -15 6 0 19 7 30 15 10 8 15 14 9 14
-5 0 -19 -6 -29 -14z"/>
<path d="M5240 4820 c0 -5 5 -10 10 -10 6 0 10 5 10 10 0 6 -4 10 -10 10 -5 0
-10 -4 -10 -10z"/>
<path d="M5440 4790 c0 -5 5 -10 11 -10 5 0 7 5 4 10 -3 6 -8 10 -11 10 -2 0
-4 -4 -4 -10z"/>
<path d="M3320 4759 c0 -5 5 -7 10 -4 6 3 10 8 10 11 0 2 -4 4 -10 4 -5 0 -10
-5 -10 -11z"/>
<path d="M3820 4759 c-52 -3 -107 -11 -121 -17 -15 -6 -31 -7 -40 -1 -17 11
-59 12 -59 2 0 -8 31 -28 103 -66 21 -11 41 -26 44 -33 3 -8 14 -14 24 -14 10
0 19 -4 19 -10 0 -5 -7 -10 -15 -10 -18 0 -18 -4 -4 -70 6 -27 15 -50 21 -50
6 0 8 -8 6 -18 -3 -12 1 -18 12 -18 12 0 16 7 13 21 -4 18 -2 18 14 -4 20 -27
27 -61 13 -61 -6 0 -10 7 -10 15 0 16 -15 20 -24 7 -10 -16 29 -38 54 -31 37
10 50 10 50 -1 0 -5 -7 -10 -16 -10 -9 0 -12 -5 -8 -12 5 -8 0 -9 -14 -6 -33
9 -27 3 34 -38 l57 -38 24 30 c16 19 27 25 30 17 2 -7 11 -13 19 -13 18 0 18
-14 -1 -30 -11 -9 -15 -9 -15 -1 0 7 -5 9 -11 5 -16 -9 30 -33 75 -38 20 -3
44 -10 55 -15 14 -8 21 -8 24 2 3 7 6 5 6 -5 1 -10 7 -18 14 -18 6 -1 28 -3
48 -6 21 -3 40 -1 44 5 4 7 -7 11 -29 11 -20 0 -36 5 -36 10 0 6 10 8 24 4 13
-3 27 -1 30 5 4 6 0 11 -8 11 -9 0 -16 7 -16 16 0 13 3 14 14 5 7 -6 21 -9 30
-5 12 5 16 0 16 -20 0 -18 4 -24 15 -20 8 4 15 1 15 -5 0 -6 5 -11 11 -11 7 0
9 10 5 25 -6 25 8 36 17 13 4 -10 8 -9 16 2 9 13 11 13 11 -3 0 -15 7 -16 58
-11 58 7 102 26 102 45 0 8 -4 8 -14 0 -7 -6 -33 -12 -57 -12 -24 -1 -49 -5
-54 -10 -6 -4 -22 1 -35 11 -21 17 -22 20 -7 20 10 0 25 7 33 15 9 8 25 15 37
16 12 0 44 2 70 3 26 1 51 6 55 11 4 6 14 10 22 10 8 0 16 9 18 21 2 16 9 20
25 17 15 -3 32 5 50 21 16 14 35 26 43 26 8 0 13 4 9 9 -6 10 28 33 53 37 22
4 27 14 8 14 -9 0 -15 4 -12 8 2 4 -11 6 -30 4 -26 -3 -34 -1 -34 12 0 9 -6
16 -12 17 -7 0 -2 4 10 10 13 5 28 7 33 3 12 -7 11 13 -1 37 -9 16 -7 21 12
28 25 9 42 5 33 -9 -8 -13 28 -6 46 9 23 19 118 50 154 51 45 1 10 20 -37 20
-20 0 -40 5 -44 11 -5 8 -9 8 -14 -1 -5 -8 -13 -9 -21 -4 -8 5 -23 7 -33 5
-10 -1 -28 2 -40 8 -53 26 -301 33 -401 11 -66 -14 -148 -15 -173 -1 -11 6
-37 12 -56 13 -20 2 -36 6 -36 9 0 4 -10 7 -22 8 -13 0 -68 2 -123 3 -55 2
-143 0 -195 -3z m927 -153 c4 -3 1 -6 -6 -6 -7 0 -9 -5 -5 -12 5 -7 2 -9 -8
-6 -11 5 -14 -1 -13 -22 1 -23 -2 -27 -19 -23 -21 4 -21 4 -1 -8 11 -6 22 -13
24 -15 2 -2 -4 -10 -13 -19 -12 -12 -16 -13 -16 -3 0 7 -11 18 -25 25 -32 14
-68 6 -60 -14 4 -11 1 -13 -10 -9 -9 3 -18 -1 -21 -9 -4 -10 -20 -15 -44 -15
-22 0 -42 -5 -46 -12 -4 -7 -3 -8 4 -4 8 4 10 2 6 -8 -3 -8 -12 -12 -20 -9 -8
3 -14 0 -14 -6 0 -6 -5 -11 -11 -11 -5 0 -7 5 -3 11 7 12 -37 2 -46 -11 -3 -3
-28 -7 -57 -7 -37 -1 -53 4 -57 14 -4 9 -13 13 -22 9 -11 -4 -15 -2 -11 7 4
11 -4 13 -34 11 -34 -3 -41 0 -51 20 -12 27 -41 39 -56 24 -6 -6 -12 -6 -16 1
-4 6 0 11 8 11 9 0 16 6 16 14 0 22 -17 28 -24 10 -8 -20 -19 -12 -23 16 -4
28 8 31 62 15 27 -8 51 -12 54 -9 3 4 0 9 -7 11 -20 7 -3 23 25 23 22 0 24 -2
13 -15 -11 -13 -10 -14 4 -9 9 3 16 10 16 16 0 5 4 7 9 4 5 -3 7 -15 4 -26 -4
-14 0 -20 11 -20 10 0 15 4 12 8 -2 4 -1 14 3 21 9 14 119 23 127 9 3 -4 11
-8 17 -8 8 0 8 3 -1 9 -10 6 -6 10 15 14 15 3 32 2 38 -1 5 -4 34 -5 64 -3 29
2 56 -2 60 -7 3 -6 22 -12 41 -15 19 -2 27 -2 17 0 -9 2 -15 8 -12 13 3 4 -3
7 -12 6 -9 0 -18 4 -20 10 -2 7 9 9 29 7 20 -3 28 -1 21 4 -8 5 5 8 33 7 25
-1 48 -5 51 -8z m-103 -131 c3 -8 1 -15 -4 -15 -6 0 -10 7 -10 15 0 8 2 15 4
15 2 0 6 -7 10 -15z m-27 -97 c-3 -7 -5 -2 -5 12 0 14 2 19 5 13 2 -7 2 -19 0
-25z m-608 6 c13 -13 -10 -12 -35 2 l-29 16 30 -7 c16 -4 32 -9 34 -11z m-56
-29 c-6 -17 -25 -15 -31 3 -2 7 5 12 17 12 14 0 19 -5 14 -15z m132 -1 l40
-15 -39 5 c-22 3 -44 10 -50 16 -14 14 2 12 49 -6z m-85 -3 c0 -5 -7 -11 -15
-15 -15 -5 -20 5 -8 17 9 10 23 9 23 -2z m140 -28 c0 -14 -19 -38 -25 -32 -8
8 5 39 16 39 5 0 9 -3 9 -7z m-51 -24 c-22 -13 -31 -11 -17 5 7 8 17 12 22 9
4 -3 2 -9 -5 -14z m128 -21 c-3 -7 -5 -2 -5 12 0 14 2 19 5 13 2 -7 2 -19 0
-25z m-12 -28 c3 -5 1 -10 -4 -10 -6 0 -11 5 -11 10 0 6 2 10 4 10 3 0 8 -4
11 -10z"/>
<path d="M4438 4561 c-24 -23 -23 -26 9 -28 14 0 21 2 14 6 -6 4 -9 15 -5 24
8 21 4 21 -18 -2z"/>
<path d="M4576 4545 c4 -8 8 -15 10 -15 2 0 4 7 4 15 0 8 -4 15 -10 15 -5 0
-7 -7 -4 -15z"/>
<path d="M4290 4540 c0 -5 5 -10 11 -10 5 0 7 5 4 10 -3 6 -8 10 -11 10 -2 0
-4 -4 -4 -10z"/>
<path d="M3490 4743 c0 -6 8 -17 18 -24 16 -13 16 -13 2 6 -8 11 -16 22 -17
24 -2 2 -3 0 -3 -6z"/>
<path d="M5250 4741 c0 -6 9 -9 20 -8 11 1 20 5 20 9 0 4 -9 8 -20 8 -11 0
-20 -4 -20 -9z"/>
<path d="M4780 4605 c0 -10 9 -15 28 -14 16 1 20 3 10 6 -10 2 -18 9 -18 14 0
5 -4 9 -10 9 -5 0 -10 -7 -10 -15z"/>
<path d="M4830 4571 c0 -5 -12 -12 -27 -16 -16 -4 -23 -9 -17 -12 16 -5 64 15
64 27 0 5 -4 10 -10 10 -5 0 -10 -4 -10 -9z"/>
<path d="M3740 4560 c-13 -8 -12 -10 3 -10 9 0 17 5 17 10 0 12 -1 12 -20 0z"/>
<path d="M4755 4540 c-3 -5 -1 -10 4 -10 6 0 11 5 11 10 0 6 -2 10 -4 10 -3 0
-8 -4 -11 -10z"/>
<path d="M3530 4394 c0 -8 5 -12 10 -9 6 4 8 11 5 16 -9 14 -15 11 -15 -7z"/>
<path d="M5490 4390 c0 -5 5 -10 10 -10 6 0 10 5 10 10 0 6 -4 10 -10 10 -5 0
-10 -4 -10 -10z"/>
<path d="M3460 4370 c-9 -6 -10 -10 -3 -10 6 0 15 5 18 10 8 12 4 12 -15 0z"/>
<path d="M3516 4345 c-3 -9 -6 -24 -5 -33 0 -9 5 -4 10 12 9 32 6 48 -5 21z"/>
<path d="M5450 4339 c0 -5 5 -7 10 -4 6 3 10 8 10 11 0 2 -4 4 -10 4 -5 0 -10
-5 -10 -11z"/>
<path d="M3540 4331 c0 -6 5 -13 10 -16 6 -3 10 1 10 9 0 9 -4 16 -10 16 -5 0
-10 -4 -10 -9z"/>
<path d="M5316 4314 c-10 -26 -7 -34 15 -34 15 0 19 4 15 16 -3 9 -6 20 -6 25
0 15 -17 10 -24 -7z"/>
<path d="M4570 4295 c0 -8 4 -15 10 -15 5 0 7 7 4 15 -4 8 -8 15 -10 15 -2 0
-4 -7 -4 -15z"/>
<path d="M3459 4291 c11 -7 11 -9 0 -14 -12 -4 -11 -7 1 -16 8 -6 20 -11 25
-11 6 0 3 5 -5 10 -12 8 -13 12 -2 19 11 6 10 10 -3 15 -24 9 -32 7 -16 -3z"/>
<path d="M5307 4043 c-4 -3 -7 -11 -7 -17 0 -6 5 -5 12 2 6 6 9 14 7 17 -3 3
-9 2 -12 -2z"/>
<path d="M4855 3760 c-3 -5 -1 -10 4 -10 6 0 11 5 11 10 0 6 -2 10 -4 10 -3 0
-8 -4 -11 -10z"/>
<path d="M4880 3715 c-8 -9 -8 -15 -2 -15 12 0 26 19 19 26 -2 2 -10 -2 -17
-11z"/>
<path d="M4780 3679 c0 -5 5 -7 10 -4 6 3 10 8 10 11 0 2 -4 4 -10 4 -5 0 -10
-5 -10 -11z"/>
<path d="M4081 3656 c-9 -11 -10 -16 -2 -16 6 0 11 -4 11 -10 0 -5 -7 -10 -17
-10 -9 0 -14 -3 -10 -6 10 -11 47 7 47 23 0 10 6 13 16 9 9 -3 12 -2 9 5 -4 6
-13 8 -20 5 -8 -3 -15 0 -17 6 -2 6 -9 3 -17 -6z"/>
<path d="M4020 3630 c0 -5 5 -10 10 -10 6 0 10 5 10 10 0 6 -4 10 -10 10 -5 0
-10 -4 -10 -10z"/>
<path d="M4134 3615 c-10 -8 -14 -15 -8 -15 5 0 14 4 20 9 5 5 18 11 29 14 20
5 19 5 -1 6 -11 0 -29 -6 -40 -14z"/>
<path d="M4178 3593 c12 -2 30 -2 40 0 9 3 -1 5 -23 4 -22 0 -30 -2 -17 -4z"/>
<path d="M4320 3590 c-8 -5 -13 -10 -10 -11 33 -6 50 -4 50 8 0 15 -19 17 -40
3z"/>
<path d="M4668 3593 c6 -2 18 -2 25 0 6 3 1 5 -13 5 -14 0 -19 -2 -12 -5z"/>
<path d="M4510 3580 c0 -5 5 -10 11 -10 5 0 7 5 4 10 -3 6 -8 10 -11 10 -2 0
-4 -4 -4 -10z"/>
<path d="M4248 3573 c7 -3 16 -2 19 1 4 3 -2 6 -13 5 -11 0 -14 -3 -6 -6z"/>
<path d="M3625 6620 c-3 -5 -1 -10 4 -10 6 0 11 5 11 10 0 6 -2 10 -4 10 -3 0
-8 -4 -11 -10z"/>
<path d="M6443 6128 c-2 -18 1 -28 6 -22 14 14 17 46 6 50 -5 2 -11 -10 -12
-28z"/>
<path d="M6435 6020 c3 -5 8 -10 11 -10 2 0 4 5 4 10 0 6 -5 10 -11 10 -5 0
-7 -4 -4 -10z"/>
<path d="M2440 5850 c0 -5 9 -10 20 -10 11 0 20 5 20 10 0 6 -9 10 -20 10 -11
0 -20 -4 -20 -10z"/>
<path d="M4744 9539 c-10 -17 13 -36 27 -22 12 12 4 33 -11 33 -5 0 -12 -5
-16 -11z"/>
<path d="M4065 9500 c-3 -5 -1 -10 4 -10 6 0 11 5 11 10 0 6 -2 10 -4 10 -3 0
-8 -4 -11 -10z"/>
<path d="M4180 9482 c-8 -4 -15 -14 -16 -23 -1 -13 4 -13 33 -5 29 9 31 12 12
14 -17 3 -19 6 -8 13 16 10 1 11 -21 1z"/>
<path d="M4235 9479 c4 -5 18 -9 32 -9 32 0 27 7 -10 14 -16 3 -25 1 -22 -5z"/>
<path d="M4308 9483 c7 -3 16 -2 19 1 4 3 -2 6 -13 5 -11 0 -14 -3 -6 -6z"/>
<path d="M4345 9480 c-3 -6 1 -7 9 -4 18 7 21 14 7 14 -6 0 -13 -4 -16 -10z"/>
<path d="M4080 9448 c0 -18 18 -34 28 -24 3 4 -2 14 -11 23 -16 16 -17 16 -17
1z"/>
<path d="M4055 9400 c3 -5 8 -10 11 -10 2 0 4 5 4 10 0 6 -5 10 -11 10 -5 0
-7 -4 -4 -10z"/>
<path d="M4010 9390 c0 -5 5 -10 10 -10 6 0 10 5 10 10 0 6 -4 10 -10 10 -5 0
-10 -4 -10 -10z"/>
<path d="M3845 9319 c-4 -6 -4 -13 -1 -16 3 -4 6 -1 6 5 0 7 7 12 15 12 18 0
20 -17 3 -23 -7 -2 -10 -8 -6 -12 4 -4 15 0 24 10 15 14 15 18 3 26 -19 12
-36 11 -44 -2z"/>
<path d="M3800 9240 c-8 -5 -10 -10 -5 -10 6 0 17 5 25 10 8 5 11 10 5 10 -5
0 -17 -5 -25 -10z"/>
<path d="M3693 9149 c-2 -23 3 -25 10 -4 4 8 3 16 -1 19 -4 3 -9 -4 -9 -15z"/>
<path d="M3727 9159 c7 -7 15 -10 18 -7 3 3 -2 9 -12 12 -14 6 -15 5 -6 -5z"/>
<path d="M3612 9074 c10 -10 20 -15 24 -12 3 4 -5 12 -18 18 -22 12 -22 12 -6
-6z"/>
<path d="M3650 9080 c0 -5 5 -10 10 -10 6 0 10 5 10 10 0 6 -4 10 -10 10 -5 0
-10 -4 -10 -10z"/>
<path d="M3528 9073 c7 -3 16 -2 19 1 4 3 -2 6 -13 5 -11 0 -14 -3 -6 -6z"/>
<path d="M3380 8919 c0 -5 5 -7 10 -4 6 3 10 8 10 11 0 2 -4 4 -10 4 -5 0 -10
-5 -10 -11z"/>
<path d="M3204 8763 c1 -7 4 -14 7 -15 2 -2 3 -1 1 1 -1 3 8 10 20 17 l23 12
-26 -1 c-15 -1 -26 -7 -25 -14z"/>
<path d="M3124 8652 c-1 -15 1 -21 3 -14 3 6 9 10 14 6 14 -8 11 12 -3 24 -10
8 -13 4 -14 -16z"/>
<path d="M3045 8599 c-4 -6 -5 -12 -2 -15 2 -3 7 2 10 11 7 17 1 20 -8 4z"/>
<path d="M2965 8519 c-4 -6 -5 -12 -2 -15 2 -3 7 2 10 11 7 17 1 20 -8 4z"/>
<path d="M2890 8335 c-11 -13 -10 -14 4 -9 9 3 16 10 16 15 0 13 -6 11 -20 -6z"/>
<path d="M2883 8285 c0 -8 4 -12 9 -9 4 3 8 9 8 15 0 5 -4 9 -8 9 -5 0 -9 -7
-9 -15z"/>
<path d="M2808 8187 c-3 -19 -2 -25 4 -19 6 6 8 18 6 28 -3 14 -5 12 -10 -9z"/>
<path d="M2666 7877 c3 -10 9 -15 12 -12 3 3 0 11 -7 18 -10 9 -11 8 -5 -6z"/>
<path d="M2568 7723 c7 -3 16 -2 19 1 4 3 -2 6 -13 5 -11 0 -14 -3 -6 -6z"/>
<path d="M2572 7580 c0 -14 2 -19 5 -12 2 6 2 18 0 25 -3 6 -5 1 -5 -13z"/>
<path d="M2492 7170 c0 -14 2 -19 5 -12 2 6 2 18 0 25 -3 6 -5 1 -5 -13z"/>
<path d="M1143 7130 c0 -25 2 -35 4 -22 2 12 2 32 0 45 -2 12 -4 2 -4 -23z"/>
<path d="M1522 6898 c1 -51 2 -51 5 -10 3 29 9 42 19 42 8 0 12 5 9 10 -3 6
-13 10 -21 10 -11 0 -14 -13 -12 -52z"/>
<path d="M1728 6923 c6 -2 18 -2 25 0 6 3 1 5 -13 5 -14 0 -19 -2 -12 -5z"/>
<path d="M1720 6880 c0 -5 10 -10 23 -10 18 0 19 2 7 10 -19 13 -30 13 -30 0z"/>
<path d="M2396 6847 c3 -10 9 -15 12 -12 3 3 0 11 -7 18 -10 9 -11 8 -5 -6z"/>
<path d="M1703 6810 c0 -25 2 -35 4 -22 2 12 2 32 0 45 -2 12 -4 2 -4 -23z"/>
<path d="M750 6810 c0 -5 5 -10 10 -10 6 0 10 5 10 10 0 6 -4 10 -10 10 -5 0
-10 -4 -10 -10z"/>
<path d="M711 6771 c-8 -5 -9 -11 -3 -15 5 -3 12 1 16 9 6 17 6 18 -13 6z"/>
<path d="M785 6771 c-3 -5 -1 -12 5 -16 5 -3 10 1 10 9 0 18 -6 21 -15 7z"/>
<path d="M1440 6761 c0 -5 9 -7 20 -4 11 3 20 7 20 9 0 2 -9 4 -20 4 -11 0
-20 -4 -20 -9z"/>
<path d="M1523 6730 c0 -25 2 -35 4 -22 2 12 2 32 0 45 -2 12 -4 2 -4 -23z"/>
<path d="M598 6743 c31 -3 42 -9 42 -21 0 -12 3 -13 11 -5 20 20 -1 33 -49 31
l-47 -1 43 -4z"/>
<path d="M960 6730 c0 -5 5 -10 10 -10 6 0 10 5 10 10 0 6 -4 10 -10 10 -5 0
-10 -4 -10 -10z"/>
<path d="M707 6703 c-3 -5 1 -14 9 -20 14 -14 30 0 19 17 -7 12 -22 13 -28 3z"/>
<path d="M1440 6699 c0 -5 9 -9 20 -9 11 0 20 2 20 4 0 2 -9 6 -20 9 -11 3
-20 1 -20 -4z"/>
<path d="M785 6620 c-3 -5 -1 -10 4 -10 6 0 11 5 11 10 0 6 -2 10 -4 10 -3 0
-8 -4 -11 -10z"/>
<path d="M237 6590 c-6 -24 2 -60 14 -60 5 0 9 18 9 40 0 42 -14 54 -23 20z"/>
<path d="M300 6573 c0 -21 5 -45 10 -53 7 -11 10 0 10 38 0 28 -4 52 -10 52
-5 0 -10 -17 -10 -37z"/>
<path d="M930 6595 c7 -8 16 -15 21 -15 5 0 9 7 9 15 0 9 -9 15 -21 15 -18 0
-19 -2 -9 -15z"/>
<path d="M1283 6570 c0 -25 2 -35 4 -22 2 12 2 32 0 45 -2 12 -4 2 -4 -23z"/>
<path d="M448 6523 c6 -2 18 -2 25 0 6 3 1 5 -13 5 -14 0 -19 -2 -12 -5z"/>
<path d="M2183 6490 c0 -25 2 -35 4 -22 2 12 2 32 0 45 -2 12 -4 2 -4 -23z"/>
<path d="M2233 6450 c0 -47 2 -66 4 -42 2 23 2 61 0 85 -2 23 -4 4 -4 -43z"/>
<path d="M2263 6490 c0 -25 2 -35 4 -22 2 12 2 32 0 45 -2 12 -4 2 -4 -23z"/>
<path d="M198 6503 c37 -4 42 -7 42 -29 0 -13 5 -24 10 -24 14 0 13 33 -2 48
-7 7 -30 11 -53 10 l-40 -1 43 -4z"/>
<path d="M1858 6503 c12 -2 32 -2 45 0 12 2 2 4 -23 4 -25 0 -35 -2 -22 -4z"/>
<path d="M750 6490 c0 -5 5 -10 10 -10 6 0 10 5 10 10 0 6 -4 10 -10 10 -5 0
-10 -4 -10 -10z"/>
<path d="M721 6444 c0 -11 3 -14 6 -6 3 7 2 16 -1 19 -3 4 -6 -2 -5 -13z"/>
<path d="M791 6444 c0 -11 3 -14 6 -6 3 7 2 16 -1 19 -3 4 -6 -2 -5 -13z"/>
<path d="M423 6410 c0 -25 2 -35 4 -22 2 12 2 32 0 45 -2 12 -4 2 -4 -23z"/>
<path d="M474 6408 c1 -36 4 -43 21 -44 14 -1 15 0 3 3 -11 3 -18 17 -21 44
l-4 39 1 -42z"/>
<path d="M656 6417 c-4 -21 -10 -45 -13 -53 -3 -8 1 -14 11 -14 20 0 29 36 18
75 l-9 30 -7 -38z"/>
<path d="M750 6440 c0 -5 5 -10 10 -10 6 0 10 5 10 10 0 6 -4 10 -10 10 -5 0
-10 -4 -10 -10z"/>
<path d="M2203 6410 c0 -25 2 -35 4 -22 2 12 2 32 0 45 -2 12 -4 2 -4 -23z"/>
<path d="M1360 6358 c0 -39 4 -68 10 -68 6 0 10 15 10 34 0 19 2 40 5 48 3 7
-1 22 -9 33 -14 18 -15 14 -16 -47z"/>
<path d="M1415 6390 c-9 -18 -15 -56 -15 -105 0 -68 2 -75 20 -75 19 0 20 7
20 105 0 58 -2 105 -5 105 -2 0 -11 -13 -20 -30z"/>
<path d="M715 6383 c3 -25 1 -33 -10 -33 -8 0 -15 -9 -15 -20 0 -11 7 -20 15
-20 9 0 15 -9 15 -22 0 -13 4 -18 9 -12 13 14 23 134 11 134 -6 0 -10 -10 -11
-22 -1 -22 -1 -22 -10 2 -8 22 -8 21 -4 -7z"/>
<path d="M1760 6386 c0 -9 5 -16 10 -16 6 0 10 4 10 9 0 6 -4 13 -10 16 -5 3
-10 -1 -10 -9z"/>
<path d="M1826 6391 c-4 -7 -5 -15 -2 -18 9 -9 19 4 14 18 -4 11 -6 11 -12 0z"/>
<path d="M1120 6333 c1 -36 2 -37 15 -19 19 26 19 56 0 56 -11 0 -15 -11 -15
-37z"/>
<path d="M532 6353 c-15 -6 -6 -23 14 -23 8 0 14 7 14 15 0 15 -6 17 -28 8z"/>
<path d="M1680 6318 c0 -18 5 -28 15 -28 19 0 19 11 0 36 -14 18 -14 18 -15
-8z"/>
<path d="M1740 6321 c-13 -26 -13 -31 5 -31 9 0 15 9 15 25 0 30 -6 32 -20 6z"/>
<path d="M480 6315 c0 -17 2 -18 24 -9 18 7 12 24 -10 24 -8 0 -14 -7 -14 -15z"/>
<path d="M1180 6265 c0 -30 5 -55 10 -55 6 0 10 25 10 55 0 30 -4 55 -10 55
-5 0 -10 -25 -10 -55z"/>
<path d="M1627 6314 c-13 -13 -7 -24 14 -24 11 0 19 5 17 12 -5 14 -22 21 -31
12z"/>
<path d="M633 6295 c-15 -17 -17 -85 -3 -85 6 0 10 18 10 40 0 29 4 40 15 40
8 0 15 5 15 10 0 15 -23 12 -37 -5z"/>
<path d="M538 6293 c23 -4 24 -7 19 -81 -2 -42 -2 -60 0 -39 2 20 8 37 14 37
5 0 9 18 9 39 0 40 -13 53 -48 50 -9 -1 -6 -4 6 -6z"/>
<path d="M0 6250 c0 -29 4 -40 15 -40 11 0 15 11 15 40 0 29 -4 40 -15 40 -11
0 -15 -11 -15 -40z"/>
<path d="M91 6273 c0 -17 17 -64 18 -53 1 3 5 20 10 38 9 28 7 32 -10 32 -12
0 -19 -7 -18 -17z"/>
<path d="M141 6278 c0 -7 4 -22 9 -33 7 -17 9 -15 9 13 1 17 -3 32 -9 32 -5 0
-10 -6 -9 -12z"/>
<path d="M1040 6250 c0 -29 4 -40 15 -40 11 0 15 11 15 40 0 29 -4 40 -15 40
-11 0 -15 -11 -15 -40z"/>
<path d="M1120 6250 c0 -22 5 -40 10 -40 6 0 10 18 10 40 0 22 -4 40 -10 40
-5 0 -10 -18 -10 -40z"/>
<path d="M2080 6265 c0 -27 9 -32 28 -13 18 18 14 38 -8 38 -15 0 -20 -7 -20
-25z"/>
<path d="M2200 6250 c0 -33 3 -40 20 -40 17 0 20 7 20 40 0 33 -3 40 -20 40
-17 0 -20 -7 -20 -40z"/>
<path d="M744 6259 c-10 -17 13 -36 27 -22 12 12 4 33 -11 33 -5 0 -12 -5 -16
-11z"/>
<path d="M1600 6230 c0 -17 7 -20 40 -20 33 0 40 3 40 20 0 17 -7 20 -40 20
-33 0 -40 -3 -40 -20z"/>
<path d="M2135 6220 c-3 -5 1 -10 9 -10 9 0 16 5 16 10 0 6 -4 10 -9 10 -6 0
-13 -4 -16 -10z"/>
<path d="M50 6196 c0 -8 7 -16 15 -20 10 -4 15 1 15 14 0 11 -7 20 -15 20 -8
0 -15 -6 -15 -14z"/>
<path d="M1520 6199 c0 -5 5 -7 10 -4 6 3 10 8 10 11 0 2 -4 4 -10 4 -5 0 -10
-5 -10 -11z"/>
<path d="M0 6110 c0 -47 3 -60 15 -60 21 0 21 105 0 114 -12 4 -15 -5 -15 -54z"/>
<path d="M60 6090 c0 -33 3 -40 20 -40 17 0 20 7 20 40 0 33 -3 40 -20 40 -17
0 -20 -7 -20 -40z"/>
<path d="M1690 6050 c0 -64 3 -80 15 -80 12 0 15 16 15 80 0 64 -3 80 -15 80
-12 0 -15 -16 -15 -80z"/>
<path d="M1280 5985 c0 -11 11 -15 40 -15 29 0 40 4 40 15 0 11 -11 15 -40 15
-29 0 -40 -4 -40 -15z"/>
<path d="M1272 5930 c0 -14 2 -19 5 -12 2 6 2 18 0 25 -3 6 -5 1 -5 -13z"/>
<path d="M5541 3699 c-7 -12 -10 -23 -8 -26 3 -3 11 5 17 17 15 28 8 35 -9 9z"/>
<path d="M6001 3624 c0 -11 3 -14 6 -6 3 7 2 16 -1 19 -3 4 -6 -2 -5 -13z"/>
<path d="M5957 3557 c-13 -13 -15 -22 -7 -37 5 -10 8 -27 5 -37 -3 -10 2 -3
10 16 9 18 15 43 13 55 -3 21 -4 21 -21 3z"/>
<path d="M5658 3393 c-19 -23 -31 -43 -24 -43 2 0 14 14 26 30 23 33 22 40 -2
13z"/>
<path d="M5706 3373 c-6 -14 -5 -15 5 -6 7 7 10 15 7 18 -3 3 -9 -2 -12 -12z"/>
<path d="M5287 3334 c-4 -4 -7 -14 -7 -23 0 -11 3 -12 11 -4 6 6 10 16 7 23
-2 6 -7 8 -11 4z"/>
<path d="M5569 3301 c-13 -11 -21 -22 -18 -25 3 -3 16 5 29 19 28 30 22 33
-11 6z"/>
<path d="M5215 3280 c3 -5 8 -10 11 -10 2 0 4 5 4 10 0 6 -5 10 -11 10 -5 0
-7 -4 -4 -10z"/>
<path d="M5121 3256 c-8 -10 -9 -16 -1 -21 5 -3 10 1 10 10 0 11 5 15 16 11 8
-3 12 -2 9 4 -9 14 -21 12 -34 -4z"/>
<path d="M5501 3240 c-13 -11 -19 -20 -13 -20 10 0 42 27 42 36 0 7 -4 5 -29
-16z"/>
<path d="M5770 3250 c0 -5 5 -10 10 -10 6 0 10 5 10 10 0 6 -4 10 -10 10 -5 0
-10 -4 -10 -10z"/>
<path d="M5891 3244 c0 -11 3 -14 6 -6 3 7 2 16 -1 19 -3 4 -6 -2 -5 -13z"/>
<path d="M5130 3205 c0 -8 4 -15 10 -15 5 0 7 7 4 15 -4 8 -8 15 -10 15 -2 0
-4 -7 -4 -15z"/>
<path d="M4960 2806 c0 -21 22 -54 39 -59 26 -7 27 3 0 37 -18 23 -39 35 -39
22z"/>
<path d="M2315 2610 c3 -5 16 -10 28 -9 21 0 21 1 2 9 -28 12 -37 12 -30 0z"/>
<path d="M1102 2490 c0 -14 2 -19 5 -12 2 6 2 18 0 25 -3 6 -5 1 -5 -13z"/>
<path d="M1207 2428 c14 -29 29 -54 34 -56 5 -2 9 -10 9 -17 0 -8 4 -17 10
-20 13 -8 1 23 -35 93 -15 28 -31 52 -36 52 -4 0 4 -24 18 -52z"/>
<path d="M4630 2434 c0 -24 28 -40 43 -25 12 12 -1 34 -15 25 -6 -4 -14 0 -19
7 -7 11 -9 9 -9 -7z"/>
<path d="M4400 2420 c0 -5 7 -10 15 -10 8 0 15 5 15 10 0 6 -7 10 -15 10 -8 0
-15 -4 -15 -10z"/>
<path d="M8658 2368 c5 -5 16 -8 23 -6 8 3 3 7 -10 11 -17 4 -21 3 -13 -5z"/>
<path d="M4167 2324 c-9 -10 4 -34 19 -34 8 0 14 4 14 9 0 12 -26 32 -33 25z"/>
<path d="M4720 2279 c0 -5 5 -7 10 -4 6 3 10 8 10 11 0 2 -4 4 -10 4 -5 0 -10
-5 -10 -11z"/>
<path d="M3600 2170 c0 -5 5 -10 10 -10 6 0 10 5 10 10 0 6 -4 10 -10 10 -5 0
-10 -4 -10 -10z"/>
<path d="M8580 2176 c0 -2 8 -10 18 -17 15 -13 16 -12 3 4 -13 16 -21 21 -21
13z"/>
<path d="M3976 2151 c-4 -7 -5 -15 -2 -18 9 -9 19 4 14 18 -4 11 -6 11 -12 0z"/>
<path d="M3401 2114 c0 -11 3 -14 6 -6 3 7 2 16 -1 19 -3 4 -6 -2 -5 -13z"/>
<path d="M7960 2120 c20 -13 33 -13 25 0 -3 6 -14 10 -23 10 -15 0 -15 -2 -2
-10z"/>
<path d="M3865 2050 c-3 -6 1 -7 9 -4 18 7 21 14 7 14 -6 0 -13 -4 -16 -10z"/>
<path d="M3493 2031 c31 -11 74 -23 95 -26 l37 -7 -31 20 c-17 11 -42 20 -55
19 -13 0 -42 3 -64 6 -33 6 -29 4 18 -12z"/>
<path d="M8855 2030 c-3 -5 -1 -10 4 -10 6 0 11 5 11 10 0 6 -2 10 -4 10 -3 0
-8 -4 -11 -10z"/>
<path d="M8907 2023 c-11 -10 -8 -35 8 -68 14 -29 14 -29 8 20 -6 55 -7 58
-16 48z"/>
<path d="M8787 1995 c-4 -8 -2 -17 3 -20 6 -4 10 3 10 14 0 25 -6 27 -13 6z"/>
<path d="M3724 1973 c4 -4 250 -53 265 -52 26 1 -19 17 -50 18 -27 1 -82 25
-75 32 3 2 -29 4 -69 4 -40 0 -72 -1 -71 -2z"/>
<path d="M8741 1965 c-1 -5 8 -21 19 -35 11 -14 20 -20 20 -14 0 7 -9 22 -20
35 -10 13 -19 20 -19 14z"/>
<path d="M8110 1950 c33 -23 50 -30 50 -22 0 5 -11 14 -25 20 -32 15 -45 15
-25 2z"/>
<path d="M4220 1920 c0 -5 5 -10 11 -10 5 0 7 5 4 10 -3 6 -8 10 -11 10 -2 0
-4 -4 -4 -10z"/>
<path d="M8990 1880 c0 -5 5 -10 10 -10 6 0 10 5 10 10 0 6 -4 10 -10 10 -5 0
-10 -4 -10 -10z"/>
<path d="M8846 1835 c-9 -26 -7 -32 5 -12 6 10 9 21 6 23 -2 3 -7 -2 -11 -11z"/>
<path d="M4720 1820 c0 -5 5 -10 11 -10 5 0 7 5 4 10 -3 6 -8 10 -11 10 -2 0
-4 -4 -4 -10z"/>
<path d="M4783 1813 c9 -2 25 -2 35 0 9 3 1 5 -18 5 -19 0 -27 -2 -17 -5z"/>
<path d="M9051 1769 c-13 -39 -14 -42 -1 -34 6 3 10 15 10 26 0 10 5 19 10 19
6 0 10 -5 10 -12 0 -6 2 -9 5 -6 7 7 -5 38 -15 38 -4 0 -13 -14 -19 -31z"/>
<path d="M8914 1733 c-10 -10 -20 -25 -22 -33 -2 -8 9 -2 24 13 30 30 28 47
-2 20z"/>
<path d="M8270 1736 c0 -4 12 -19 26 -33 20 -20 25 -22 23 -8 -4 17 -49 55
-49 41z"/>
<path d="M8855 1680 c4 -14 11 -32 16 -40 7 -12 8 -11 8 5 0 11 -7 29 -15 40
-16 19 -16 19 -9 -5z"/>
<path d="M8915 1629 c-4 -6 -5 -12 -2 -15 2 -3 7 2 10 11 7 17 1 20 -8 4z"/>
<path d="M9101 1550 c-12 -22 -20 -40 -18 -40 7 0 48 72 44 76 -2 2 -14 -14
-26 -36z"/>
<path d="M8410 1431 c11 -22 30 -37 30 -24 -1 11 -26 43 -34 43 -4 0 -2 -9 4
-19z"/>
<path d="M8960 1414 c0 -8 5 -12 10 -9 6 4 8 11 5 16 -9 14 -15 11 -15 -7z"/>
<path d="M9141 1254 c0 -11 3 -14 6 -6 3 7 2 16 -1 19 -3 4 -6 -2 -5 -13z"/>
<path d="M9224 1248 c3 -15 26 -23 26 -8 0 6 -4 9 -9 6 -5 -4 -12 -1 -14 4 -3
6 -4 5 -3 -2z"/>
<path d="M9230 1194 c0 -8 5 -12 10 -9 6 4 8 11 5 16 -9 14 -15 11 -15 -7z"/>
<path d="M9250 1170 c-8 -5 -12 -11 -10 -14 3 -2 14 2 24 10 22 15 10 19 -14
4z"/>
<path d="M8490 1159 c1 -2 9 -29 20 -59 l19 -55 1 41 c0 28 -6 46 -20 59 -11
10 -20 16 -20 14z"/>
<path d="M9070 1146 c0 -8 -7 -16 -15 -20 -8 -3 -15 -13 -15 -22 0 -14 4 -13
20 6 18 21 27 50 15 50 -3 0 -5 -6 -5 -14z"/>
<path d="M9137 1137 c-7 -18 3 -67 14 -67 4 0 5 17 2 38 -7 44 -9 47 -16 29z"/>
<path d="M9326 1093 c-6 -14 -5 -15 5 -6 7 7 10 15 7 18 -3 3 -9 -2 -12 -12z"/>
<path d="M8636 1085 c-9 -26 -7 -32 5 -12 6 10 9 21 6 23 -2 3 -7 -2 -11 -11z"/>
<path d="M9260 1085 c0 -8 5 -15 10 -15 6 0 10 7 10 15 0 8 -4 15 -10 15 -5 0
-10 -7 -10 -15z"/>
<path d="M9163 1064 c-9 -20 -9 -32 2 -58 8 -18 12 -35 10 -37 -2 -3 5 -29 15
-59 18 -52 19 -53 17 -18 -1 21 -6 38 -11 38 -4 0 -6 26 -3 58 4 31 3 46 -2
32 l-7 -25 -7 24 c-3 13 -2 32 4 42 11 21 11 29 2 29 -5 0 -13 -12 -20 -26z"/>
<path d="M9287 1053 c-4 -3 -7 -11 -7 -17 0 -6 5 -5 12 2 6 6 9 14 7 17 -3 3
-9 2 -12 -2z"/>
<path d="M9313 1028 c-17 -45 -16 -87 2 -118 14 -25 14 -24 9 11 -4 25 0 45
15 70 11 19 21 39 21 44 0 6 -6 1 -12 -10 -12 -19 -13 -18 -18 9 l-5 29 -12
-35z"/>
<path d="M9070 1020 c0 -5 5 -10 11 -10 5 0 7 5 4 10 -3 6 -8 10 -11 10 -2 0
-4 -4 -4 -10z"/>
<path d="M8655 999 c-4 -6 -5 -12 -2 -15 2 -3 7 2 10 11 7 17 1 20 -8 4z"/>
<path d="M9410 954 c0 -14 -4 -22 -10 -19 -6 3 -7 -1 -4 -9 9 -23 21 -20 28 7
8 32 7 47 -4 47 -5 0 -10 -12 -10 -26z"/>
<path d="M9471 944 c0 -11 3 -14 6 -6 3 7 2 16 -1 19 -3 4 -6 -2 -5 -13z"/>
<path d="M8670 891 c0 -10 19 -25 25 -20 1 2 -3 10 -11 17 -8 7 -14 8 -14 3z"/>
<path d="M9214 846 c-3 -8 -1 -23 5 -33 8 -15 10 -12 8 14 -2 36 -5 40 -13 19z"/>
<path d="M8721 834 c0 -11 3 -14 6 -6 3 7 2 16 -1 19 -3 4 -6 -2 -5 -13z"/>
<path d="M9281 824 c0 -11 3 -14 6 -6 3 7 2 16 -1 19 -3 4 -6 -2 -5 -13z"/>
<path d="M8564 814 c3 -9 6 -29 6 -45 0 -16 5 -29 10 -29 11 0 14 49 4 74 -3
9 -11 16 -16 16 -6 0 -7 -7 -4 -16z"/>
<path d="M9127 799 c-4 -16 -3 -18 9 -8 16 13 19 29 5 29 -5 0 -11 -9 -14 -21z"/>
<path d="M8665 779 c-4 -6 -5 -12 -2 -15 2 -3 7 2 10 11 7 17 1 20 -8 4z"/>
<path d="M9230 780 c0 -5 5 -10 11 -10 5 0 7 5 4 10 -3 6 -8 10 -11 10 -2 0
-4 -4 -4 -10z"/>
<path d="M9527 779 c-9 -6 -17 -14 -17 -19 0 -10 38 -1 45 11 9 13 -9 18 -28
8z"/>
<path d="M9310 755 c7 -9 15 -13 17 -11 7 7 -7 26 -19 26 -6 0 -6 -6 2 -15z"/>
<path d="M9468 726 c-7 -39 -4 -55 8 -44 3 3 4 23 2 44 l-3 39 -7 -39z"/>
<path d="M8612 720 c-7 -11 -8 -20 -3 -20 9 0 24 30 18 36 -1 2 -8 -6 -15 -16z"/>
<path d="M9100 731 c0 -6 4 -13 10 -16 6 -3 7 1 4 9 -7 18 -14 21 -14 7z"/>
<path d="M9263 705 c-3 -9 -3 -18 -1 -21 3 -3 8 4 11 16 6 23 -1 27 -10 5z"/>
<path d="M9519 692 c-10 -2 -19 -11 -23 -20 -3 -9 -13 -28 -22 -42 -9 -14 0
-7 20 14 20 22 36 33 36 25 0 -8 -5 -20 -12 -27 -6 -6 -9 -14 -6 -18 9 -9 30
34 26 54 -2 10 -10 16 -19 14z"/>
<path d="M9344 663 c3 -16 16 -22 16 -8 0 3 0 10 0 15 0 6 -4 10 -9 10 -5 0
-8 -8 -7 -17z"/>
<path d="M9271 659 c-1 -9 8 -27 19 -40 18 -22 19 -22 20 -5 0 11 -3 16 -7 12
-4 -3 -12 6 -19 21 -8 17 -13 22 -13 12z"/>
<path d="M8726 593 c-6 -14 -5 -15 5 -6 7 7 10 15 7 18 -3 3 -9 -2 -12 -12z"/>
<path d="M9490 595 c-15 -18 -6 -61 16 -69 12 -4 15 -2 11 9 -4 8 -2 17 3 20
6 4 10 11 10 17 0 6 -7 5 -17 -3 -15 -13 -16 -11 -9 14 7 31 4 34 -14 12z"/>
<path d="M9166 577 c3 -10 9 -15 12 -12 3 3 0 11 -7 18 -10 9 -11 8 -5 -6z"/>
<path d="M8600 570 c0 -5 5 -10 11 -10 5 0 7 5 4 10 -3 6 -8 10 -11 10 -2 0
-4 -4 -4 -10z"/>
<path d="M9391 544 c0 -11 3 -14 6 -6 3 7 2 16 -1 19 -3 4 -6 -2 -5 -13z"/>
<path d="M8753 515 c0 -22 2 -30 4 -17 2 12 2 30 0 40 -3 9 -5 -1 -4 -23z"/>
<path d="M9306 542 c-3 -6 1 -25 9 -43 l15 -34 -6 40 c-8 46 -10 50 -18 37z"/>
<path d="M8640 531 c0 -6 4 -13 10 -16 6 -3 7 1 4 9 -7 18 -14 21 -14 7z"/>
<path d="M8593 465 c1 -49 3 -54 14 -39 17 24 17 69 -1 83 -12 10 -14 4 -13
-44z"/>
<path d="M9220 505 c-8 -9 -8 -15 -2 -15 12 0 26 19 19 26 -2 2 -10 -2 -17
-11z"/>
<path d="M9529 494 c-9 -11 -23 -14 -43 -11 -17 3 -26 3 -19 1 7 -3 9 -12 7
-19 -9 -21 38 -15 59 9 16 17 23 36 13 36 -2 0 -9 -7 -17 -16z"/>
<path d="M8701 482 c-17 -31 -13 -40 5 -14 9 13 14 26 11 29 -3 2 -10 -4 -16
-15z"/>
<path d="M9327 436 c3 -15 10 -29 15 -32 6 -4 7 2 3 17 -10 35 -23 45 -18 15z"/>
<path d="M9545 450 c-3 -5 -1 -10 4 -10 6 0 11 5 11 10 0 6 -2 10 -4 10 -3 0
-8 -4 -11 -10z"/>
<path d="M8646 421 c-23 -43 -20 -52 5 -12 11 18 18 35 15 38 -2 3 -12 -9 -20
-26z"/>
<path d="M9161 434 c0 -11 3 -14 6 -6 3 7 2 16 -1 19 -3 4 -6 -2 -5 -13z"/>
<path d="M9520 404 c-11 -27 -13 -51 -5 -42 8 8 25 68 19 68 -2 0 -9 -12 -14
-26z"/>
<path d="M9171 394 c0 -11 3 -14 6 -6 3 7 2 16 -1 19 -3 4 -6 -2 -5 -13z"/>
<path d="M9561 354 c0 -11 3 -14 6 -6 3 7 2 16 -1 19 -3 4 -6 -2 -5 -13z"/>
<path d="M8645 330 c-3 -5 -1 -10 4 -10 6 0 11 5 11 10 0 6 -2 10 -4 10 -3 0
-8 -4 -11 -10z"/>
<path d="M9547 310 c-3 -11 -1 -20 4 -20 5 0 9 9 9 20 0 11 -2 20 -4 20 -2 0
-6 -9 -9 -20z"/>
<path d="M8726 259 c-16 -16 -24 -29 -18 -29 7 0 12 4 12 10 0 5 8 7 18 3 9
-3 14 -3 10 2 -4 4 -3 14 4 22 22 27 3 21 -26 -8z"/>
<path d="M9540 270 c0 -5 5 -10 10 -10 6 0 10 5 10 10 0 6 -4 10 -10 10 -5 0
-10 -4 -10 -10z"/>
<path d="M8774 226 c-3 -21 -4 -39 -1 -42 2 -3 8 11 11 32 4 20 5 38 2 41 -2
3 -8 -11 -12 -31z"/>
<path d="M9371 234 c0 -11 3 -14 6 -6 3 7 2 16 -1 19 -3 4 -6 -2 -5 -13z"/>
<path d="M9296 213 c-6 -14 -5 -15 5 -6 7 7 10 15 7 18 -3 3 -9 -2 -12 -12z"/>
<path d="M8617 193 c-4 -3 -7 -27 -7 -52 0 -34 3 -42 12 -33 6 6 11 28 10 48
-2 40 -5 48 -15 37z"/>
<path d="M9267 183 c-10 -9 -9 -23 2 -23 5 0 11 7 15 15 5 15 -5 20 -17 8z"/>
<path d="M9320 119 c0 -13 5 -31 10 -39 7 -11 8 -5 4 20 -8 43 -14 51 -14 19z"/>
<path d="M9201 108 c1 -7 5 -24 9 -38 7 -22 8 -20 7 13 -1 20 -5 37 -9 37 -4
0 -8 -6 -7 -12z"/>
<path d="M9391 104 c0 -11 3 -14 6 -6 3 7 2 16 -1 19 -3 4 -6 -2 -5 -13z"/>
<path d="M8650 88 c-12 -22 -12 -22 6 -6 10 10 15 20 12 24 -4 3 -12 -5 -18
-18z"/>
<path d="M9276 84 c-4 -9 -4 -19 -1 -22 2 -3 7 3 11 12 4 9 4 19 1 22 -2 3 -7
-3 -11 -12z"/>
<path d="M8675 50 c-3 -5 -1 -10 4 -10 6 0 11 5 11 10 0 6 -2 10 -4 10 -3 0
-8 -4 -11 -10z"/>
<path d="M9236 13 c-6 -14 -5 -15 5 -6 7 7 10 15 7 18 -3 3 -9 -2 -12 -12z"/>
</g>
</svg>
