<?xml version="1.0" standalone="no"?>
<!DOCTYPE svg PUBLIC "-//W3C//DTD SVG 20010904//EN"
 "http://www.w3.org/TR/2001/REC-SVG-20010904/DTD/svg10.dtd">
<svg version="1.0" xmlns="http://www.w3.org/2000/svg"
 width="668.000000pt" height="1000.000000pt" viewBox="0 0 668.000000 1000.000000"
 preserveAspectRatio="xMidYMid meet">

<g transform="translate(0.000000,1000.000000) scale(0.100000,-0.100000)"
fill="#000000" stroke="none">
<path d="M203 9993 c9 -2 25 -2 35 0 9 3 1 5 -18 5 -19 0 -27 -2 -17 -5z"/>
<path d="M390 9989 c14 -6 96 -13 183 -16 l157 -6 0 -204 0 -203 -55 0 -55 0
0 -57 0 -58 -256 1 c-140 0 -257 -4 -260 -8 -3 -4 112 -8 255 -8 l261 0 0 -32
c0 -18 2 -553 5 -1188 2 -635 7 -2064 10 -3175 3 -1111 8 -2571 11 -3245 l6
-1225 -258 -3 c-143 -2 -261 -5 -263 -8 -2 -2 113 -4 257 -4 l262 0 0 -55 0
-55 55 0 55 0 0 -220 c0 -140 4 -220 10 -220 6 0 10 79 10 218 l0 219 557 6
c865 11 2133 9 2133 -3 0 -13 37 -13 42 0 2 6 122 11 303 14 260 4 2318 10
2353 7 9 -1 12 -54 12 -231 0 -147 4 -230 10 -230 6 0 10 85 10 235 l0 235 49
0 50 0 3 51 3 51 75 2 c41 2 113 4 159 5 46 0 82 4 78 7 -3 4 -76 6 -162 6
l-155 -1 0 342 c-1 188 -3 666 -5 1062 -2 396 -7 1433 -10 2305 -3 872 -8
2385 -11 3363 l-7 1777 64 1 c35 0 115 0 177 -1 72 -1 112 3 112 9 0 7 -59 11
-175 11 l-174 0 -3 58 -3 57 -53 3 -53 3 3 187 3 187 225 5 c204 5 225 7 228
23 3 16 -151 17 -3125 16 -2099 0 -3120 -4 -3103 -10z m1660 -26 c3 -3 6 -92
8 -199 l3 -194 -68 0 c-37 -1 -332 -3 -655 -6 l-588 -5 0 205 0 206 423 3
c432 3 868 -2 877 -10z m2563 -2 l227 -1 0 -372 0 -371 27 -36 c14 -20 28 -38
30 -40 2 -2 6 -2 9 2 3 3 -6 21 -20 40 -24 32 -26 41 -26 145 l0 112 384 0
385 0 38 -50 c21 -27 42 -49 46 -50 5 0 -4 17 -20 38 -52 66 -57 62 86 62 72
0 131 -3 131 -7 0 -5 -25 -35 -55 -68 -45 -51 -54 -56 -55 -37 0 29 -20 29
-20 0 0 -17 -3 -19 -12 -10 -17 17 -31 15 -24 -3 4 -11 -1 -15 -17 -15 -21 -1
-22 -1 -3 -15 11 -8 14 -15 8 -15 -7 0 -12 -6 -12 -14 0 -9 7 -12 23 -9 17 4
19 2 7 -6 -22 -15 -5 -24 19 -9 17 11 25 11 42 0 24 -15 41 -6 19 9 -12 8 -10
10 7 6 30 -7 41 13 12 20 l-23 6 25 10 24 10 -22 6 c-22 6 -22 7 -5 32 9 14
32 44 51 67 l34 42 108 0 107 0 1 -310 c0 -170 -3 -310 -8 -310 -4 0 -18 15
-31 33 -86 116 -277 350 -268 327 6 -15 237 -309 284 -362 l24 -26 0 -512 0
-511 -98 -122 c-54 -67 -128 -161 -165 -209 -68 -87 -90 -106 -80 -68 3 11 0
20 -6 20 -6 0 -11 -9 -11 -20 0 -21 -15 -27 -25 -10 -3 6 -11 10 -18 10 -8 0
-8 -3 1 -12 18 -18 15 -27 -8 -21 -28 7 -25 -13 3 -21 l22 -7 -22 -9 c-29 -12
-30 -24 -2 -17 21 6 29 3 77 -22 29 -15 40 -7 21 15 -12 15 -11 16 9 10 13 -5
22 -3 22 3 0 6 -7 11 -15 11 -8 0 -15 5 -15 10 0 6 7 10 15 10 8 0 15 5 15 11
0 6 -9 9 -19 6 -18 -4 -18 -1 6 36 27 43 77 108 209 273 l81 102 5 -307 c2
-168 2 -330 0 -358 l-4 -53 -72 0 c-68 0 -73 2 -88 28 -25 41 -138 176 -138
165 0 -6 32 -49 70 -96 39 -47 70 -88 70 -91 0 -3 -92 -6 -205 -6 l-206 0 76
96 c42 53 75 98 73 100 -3 2 -40 -41 -83 -96 l-77 -100 -332 -1 c-182 0 -431
-2 -552 -5 l-222 -4 -30 36 c-17 20 -52 65 -79 100 -26 35 -52 64 -56 64 -4 0
24 -42 63 -92 38 -51 70 -96 70 -100 0 -5 -90 -8 -200 -8 -110 0 -200 3 -200
6 0 3 31 42 68 87 38 45 72 89 76 97 12 24 -80 -81 -121 -137 l-38 -53 -560 1
-560 0 -74 100 c-40 55 -76 98 -78 95 -3 -3 27 -47 67 -98 l72 -93 -197 -3
c-109 -1 -200 0 -203 2 -2 3 28 44 68 91 39 48 70 89 67 91 -5 5 -128 -141
-145 -172 -10 -19 -1062 -29 -1062 -10 0 7 -6 20 -12 29 -11 14 -13 -122 -13
-690 0 -649 -1 -711 -17 -739 -15 -27 -15 -34 -4 -50 13 -17 15 -15 32 17 18
32 19 69 21 657 1 343 4 626 6 628 5 5 625 9 3229 20 l1507 6 1 -841 0 -842
-242 1 c-683 2 -902 -1 -888 -10 9 -6 199 -9 510 -9 272 1 523 1 558 1 l62 -2
0 -45 0 -45 -416 0 c-274 0 -413 -3 -409 -10 4 -6 84 -10 206 -10 l200 0 -30
-37 c-17 -21 -75 -95 -131 -165 l-101 -126 -75 23 c-42 13 -77 25 -79 27 -2 2
17 45 41 97 52 110 60 94 -81 154 -186 79 -430 150 -685 201 -630 124 -1300
138 -2005 42 -260 -36 -712 -151 -885 -225 -36 -16 -91 -39 -123 -51 -31 -12
-59 -26 -62 -30 -2 -4 14 -49 36 -99 23 -51 37 -96 33 -101 -17 -15 -146 -52
-153 -44 -5 5 -41 52 -82 104 -40 52 -95 120 -121 149 -26 30 -48 60 -48 65 0
6 7 3 14 -7 16 -21 32 -22 40 -2 4 13 34 15 181 15 110 0 175 4 175 10 0 6
-68 10 -185 10 -124 0 -185 -4 -185 -11 0 -5 -5 -7 -11 -3 -6 3 -112 6 -235 6
l-224 -1 0 50 0 49 563 1 c309 0 571 4 582 9 12 5 -95 9 -262 9 -182 1 -283 5
-283 11 0 13 -37 13 -42 0 -3 -10 -542 -19 -552 -10 -2 3 -6 380 -8 838 l-3
832 63 0 c35 0 62 4 62 10 0 6 -27 10 -60 10 -56 0 -60 2 -60 23 0 12 -3 32
-6 45 -6 21 -4 22 60 22 84 0 87 18 4 22 l-63 3 -3 365 c-2 350 -1 364 15 344
10 -12 52 -66 94 -120 42 -54 104 -130 137 -168 34 -39 58 -74 56 -78 -3 -5 0
-15 6 -23 10 -12 8 -15 -11 -15 -22 -1 -23 -2 -6 -14 21 -16 22 -26 2 -26 -31
0 -14 -17 18 -18 17 0 41 -1 51 -2 20 -1 38 18 30 32 -3 4 4 8 15 8 12 0 21 5
21 11 0 6 -9 9 -20 6 -21 -5 -28 7 -10 18 13 8 13 25 -1 25 -6 0 -13 -9 -16
-20 -8 -31 -40 -24 -59 13 -9 17 -42 61 -73 97 -32 36 -86 103 -121 150 -35
47 -79 102 -97 123 l-33 37 0 505 0 505 58 73 c32 39 85 106 117 147 32 41 76
97 98 123 22 27 37 50 35 53 -5 4 -129 -149 -238 -293 -30 -40 -58 -72 -62
-73 -5 0 -8 142 -8 315 l0 315 113 0 112 -1 35 -51 c41 -60 57 -103 34 -94 -8
3 -14 1 -14 -4 0 -6 5 -10 10 -10 6 0 10 -4 10 -10 0 -5 -7 -10 -15 -10 -8 0
-15 -5 -15 -11 0 -6 9 -9 20 -6 17 4 18 2 9 -14 -7 -15 -6 -19 5 -19 7 0 16 7
20 15 7 20 36 19 52 -2 7 -10 16 -14 21 -9 4 5 2 11 -4 13 -22 8 -14 25 7 18
11 -3 20 -2 20 3 0 5 -10 13 -22 17 l-23 8 23 4 c12 2 22 9 22 15 0 6 -9 8
-20 5 -11 -3 -23 -1 -26 4 -3 5 -15 9 -27 9 -15 1 -34 19 -62 58 -22 31 -41
60 -43 64 -2 5 55 8 127 8 72 0 131 -3 131 -6 0 -3 -12 -22 -26 -42 -26 -36
-25 -36 14 6 l40 42 391 0 391 0 0 -111 c0 -104 -2 -112 -26 -145 -15 -19 -24
-37 -20 -41 3 -3 7 -4 9 -2 2 2 15 20 30 39 l26 36 0 374 c-1 206 -1 379 0
383 1 4 520 6 1154 3 633 -3 1254 -5 1380 -5z m1528 -13 c6 -58 5 -348 -1
-358 -6 -9 -157 -13 -644 -17 l-636 -4 0 189 c0 104 3 192 7 195 3 4 291 7
640 7 499 0 633 -3 634 -12z m-1 -440 l0 -48 -640 0 -640 0 0 45 0 45 393 2
c215 2 503 3 640 3 l247 0 0 -47z m105 2 l0 -45 -40 0 c-38 0 -40 2 -43 33 -5
53 3 64 45 60 38 -3 38 -3 38 -48z m-4190 -10 l0 -45 -565 -5 c-311 -3 -604
-4 -652 -2 l-88 3 0 45 0 44 228 2 c125 2 418 3 652 3 l425 0 0 -45z m-1325
-5 c0 -36 -4 -45 -17 -46 -10 0 -30 -2 -45 -4 -27 -4 -28 -2 -28 46 l0 49 45
0 45 0 0 -45z m5521 -637 c0 -321 2 -863 5 -1205 l5 -623 -46 0 -45 0 -1 853
c-1 468 -3 1011 -4 1205 l-3 352 44 0 44 0 1 -582z m-5520 -50 c0 -343 3 -887
5 -1210 l4 -588 -48 0 -47 0 -4 1210 -3 1210 46 0 46 0 1 -622z m5429 -1837
c0 -25 -5 -43 -12 -46 -19 -5 -1577 -15 -2363 -14 -368 0 -681 0 -695 0 -14 0
-395 -3 -847 -6 l-823 -7 0 21 c0 21 1 21 388 21 722 1 2526 11 2732 14 113 3
519 5 903 5 591 1 697 3 697 15 0 12 -57 13 -367 10 -203 -2 -874 -6 -1493 -9
-619 -2 -1517 -7 -1996 -11 -782 -6 -871 -5 -871 9 0 10 13 17 36 21 20 3 643
5 1385 6 742 0 1351 1 1352 3 2 1 446 4 988 6 l986 3 0 -41z m60 24 c-10 -12
-10 -18 0 -30 7 -9 19 -14 27 -11 8 3 13 -2 13 -14 0 -17 -7 -20 -45 -20 l-45
0 0 45 c0 44 1 45 31 45 27 0 30 -2 19 -15z m-5481 -50 l2 -45 -46 0 c-38 0
-45 3 -45 19 0 14 5 18 19 14 10 -3 22 0 26 7 10 17 -15 41 -36 35 -11 -4 -19
-2 -19 4 0 6 21 11 48 11 l48 0 3 -45z m5521 -492 c1 -247 2 -622 4 -835 l3
-388 -44 0 -43 0 0 403 c-1 221 -3 597 -5 835 l-4 432 44 0 45 0 0 -447z
m-5520 -413 l0 -840 -39 0 c-22 0 -42 4 -45 8 -4 6 -10 1425 -7 1630 l1 42 45
0 45 0 0 -840z m3161 -715 c280 -21 543 -54 699 -89 36 -9 85 -19 110 -24 150
-31 432 -119 586 -183 62 -26 74 -34 69 -50 -3 -10 -35 -78 -69 -151 -35 -73
-81 -170 -102 -216 -28 -60 -43 -82 -54 -78 -8 2 -60 22 -115 45 -113 46 -287
100 -420 129 -141 32 -405 74 -421 68 -30 -12 -11 -24 49 -30 59 -7 106 -15
293 -52 l81 -16 79 -96 c44 -54 106 -134 139 -178 65 -88 131 -164 142 -164 4
0 -7 15 -24 33 -37 39 -104 129 -100 133 3 4 126 -26 209 -51 84 -24 86 -28
54 -70 -16 -20 -26 -39 -23 -42 3 -2 18 14 33 36 17 27 34 41 48 41 11 0 92
-29 179 -64 86 -35 157 -60 157 -54 0 5 -4 39 -9 76 -5 37 -12 97 -15 134 l-5
66 119 89 c65 48 119 91 119 94 1 3 -46 25 -104 49 -58 23 -105 46 -105 50 0
4 46 66 103 137 56 71 113 144 126 161 20 27 30 32 66 32 30 0 47 -6 56 -19 8
-10 77 -97 153 -192 77 -96 144 -180 149 -187 6 -8 11 -206 14 -520 4 -507 4
-508 -18 -533 -11 -13 -52 -64 -90 -114 -38 -49 -99 -127 -135 -173 -36 -46
-64 -86 -61 -88 3 -3 22 19 43 48 22 29 73 94 114 144 41 51 88 111 104 133
17 23 33 41 38 41 4 0 8 -201 8 -447 l0 -448 -30 37 c-16 20 -62 78 -101 130
-38 51 -88 114 -110 139 -22 26 -47 55 -55 65 -9 11 -14 14 -12 7 2 -6 26 -40
55 -75 28 -35 97 -121 152 -193 l101 -130 2 -455 c3 -593 6 -550 -45 -615 -62
-78 -199 -254 -232 -298 -15 -21 -26 -39 -24 -42 4 -3 44 47 216 272 43 55 80
99 82 97 2 -2 6 -143 8 -314 l3 -310 -107 0 -108 -1 -53 58 c-58 62 -60 55 -5
-14 l34 -43 -131 0 -132 0 37 50 c21 28 35 53 33 56 -3 2 -22 -20 -43 -51
l-38 -55 -361 0 c-199 0 -483 -2 -632 -4 l-271 -4 -42 54 c-24 31 -46 53 -49
50 -3 -3 14 -28 37 -56 l42 -50 -130 0 c-72 0 -131 4 -131 8 0 5 16 27 36 50
19 23 31 42 26 42 -6 0 -27 -22 -47 -50 l-37 -50 -631 0 -632 1 -39 49 c-22
28 -41 48 -44 46 -2 -3 13 -25 33 -50 l37 -46 -132 0 -132 0 37 46 c20 25 35
47 32 50 -2 3 -19 -14 -38 -38 -18 -24 -36 -47 -40 -52 -4 -5 -290 -10 -636
-13 l-629 -4 -35 42 c-19 23 -37 46 -41 52 -4 6 -9 9 -13 6 -3 -3 13 -27 36
-53 l41 -46 -253 2 -254 3 -3 318 -2 319 62 -78 c35 -43 91 -114 124 -158 34
-45 78 -99 99 -121 l37 -40 -28 40 c-15 22 -49 65 -74 96 -25 31 -63 80 -85
109 -22 29 -44 57 -50 64 -5 6 -27 32 -47 58 l-38 46 -1 789 c0 433 -2 868 -3
966 -1 98 1 176 5 175 8 -3 66 -74 154 -188 33 -43 77 -98 98 -122 20 -25 37
-53 37 -63 0 -10 8 -27 17 -37 17 -19 16 -19 -12 -13 -29 6 -29 6 -11 -9 20
-16 20 -16 0 -32 -18 -15 -18 -15 11 -9 24 5 28 4 18 -6 -20 -20 -15 -34 5
-16 24 22 48 22 61 0 5 -10 13 -15 17 -11 4 4 1 14 -5 22 -7 8 -10 20 -6 26 4
6 0 22 -9 35 -9 13 -16 31 -16 40 0 23 -18 18 -24 -7 -3 -13 -3 -2 -2 25 3 46
-6 62 -18 31 -3 -9 -10 -14 -14 -12 -10 3 -97 110 -251 308 l-58 75 -2 500 -1
500 97 121 c54 66 129 162 167 212 65 86 71 91 106 90 42 0 64 -23 194 -193
38 -49 80 -102 94 -117 24 -26 24 -28 6 -34 -54 -18 -189 -75 -196 -82 -6 -6
165 -139 220 -171 10 -6 10 -26 2 -97 -10 -90 -13 -204 -6 -204 2 0 26 11 53
24 27 14 85 38 128 55 44 16 96 36 115 45 l35 15 42 -47 c49 -54 57 -52 13 3
-16 20 -28 41 -25 45 2 4 26 13 52 20 27 7 85 24 130 37 45 14 87 23 94 21 10
-3 -25 -54 -100 -142 -9 -10 -11 -17 -5 -15 10 4 87 98 281 347 49 63 70 82
95 87 18 4 69 15 113 25 44 10 106 22 138 25 54 7 69 16 47 30 -11 7 -121 -8
-190 -25 -19 -5 -69 -16 -110 -25 -166 -36 -390 -106 -523 -164 -27 -12 -50
-21 -53 -21 -2 0 -18 30 -35 68 -17 37 -51 108 -74 157 -63 131 -105 227 -105
235 0 11 210 95 335 134 379 120 774 188 1260 219 150 10 567 5 746 -8z m2364
-126 c10 -16 -3 -23 -18 -11 -10 8 -16 6 -24 -8 -15 -23 5 -44 32 -34 13 5 16
2 13 -12 -3 -15 -13 -19 -46 -20 l-42 -1 0 48 0 49 39 0 c22 0 43 -5 46 -11z
m-5525 -22 c0 -4 0 -25 0 -48 l0 -40 -42 3 c-31 2 -44 8 -46 20 -2 11 2 15 15
12 10 -2 24 0 32 5 12 8 12 12 2 25 -8 9 -22 16 -33 16 -10 0 -16 4 -13 10 7
11 85 8 85 -3z m5522 -97 c3 -8 7 -368 7 -800 1 -432 4 -1439 7 -2238 l7
-1453 -44 3 -44 3 -1 375 c-1 206 -5 1220 -9 2253 l-7 1879 39 -4 c21 -2 41
-9 45 -18z m-102 -127 c0 -76 3 -162 6 -190 4 -32 3 -53 -3 -53 -5 0 -64 69
-130 153 -67 83 -129 161 -139 172 -54 59 -61 55 110 55 l156 0 0 -137z
m-5090 118 c0 -3 -48 -67 -106 -141 -58 -74 -123 -158 -144 -187 -22 -28 -44
-54 -50 -58 -7 -4 -10 60 -10 192 l0 198 155 1 c85 0 155 -2 155 -5z m-330
-48 c0 -27 2 -271 4 -543 3 -272 6 -1264 8 -2205 l3 -1710 -42 -1 -43 -2 0
122 c0 66 -3 445 -5 841 -3 396 -7 1356 -10 2133 l-5 1412 45 0 45 0 0 -47z
m4679 -274 c114 -38 225 -84 227 -96 1 -4 -44 -42 -99 -84 l-102 -75 4 -80 c1
-43 7 -98 11 -122 4 -23 5 -44 1 -46 -3 -2 -44 11 -91 31 -91 37 -155 59 -265
93 -102 31 -104 32 -69 40 35 8 136 -21 302 -86 51 -21 95 -34 98 -31 4 3 2
50 -3 104 -5 54 -8 103 -6 109 2 6 42 40 87 74 l84 63 -47 24 c-49 25 -164 66
-218 78 -19 3 -33 13 -33 21 0 20 15 18 119 -17z m-3789 1 c8 -15 7 -18 -2
-15 -17 6 -298 -93 -298 -105 0 -3 38 -33 85 -65 l85 -60 -6 -112 c-7 -125 -7
-125 54 -94 20 10 98 39 173 65 116 39 142 45 175 38 l39 -8 -60 -17 c-80 -23
-243 -82 -328 -119 -38 -16 -71 -27 -74 -24 -4 3 -1 61 5 128 8 85 8 124 1
129 -35 21 -199 145 -199 150 0 11 266 110 282 104 9 -4 18 0 21 9 9 22 34 20
47 -4z m176 -307 c22 -13 32 -23 22 -23 -39 0 -85 59 -137 175 -28 63 -51 118
-51 123 1 4 29 -51 64 -123 55 -114 68 -133 102 -152z m3459 228 c-21 -43 -29
-39 -8 4 9 19 18 33 21 31 2 -2 -4 -18 -13 -35z m-507 -33 l83 -23 -7 -64
c-13 -125 -9 -125 -107 -2 -48 60 -87 112 -87 116 0 3 8 4 18 1 9 -2 54 -15
100 -28z m-2496 -25 c-22 -27 -51 -65 -65 -85 -32 -48 -77 -102 -81 -97 -7 9
-34 164 -30 169 9 9 168 58 192 59 22 1 21 -2 -16 -46z m2902 -144 c-21 -24
-73 -53 -81 -46 -2 3 11 13 31 22 19 9 40 23 47 31 6 8 14 14 17 14 3 0 -3 -9
-14 -21z m1016 -3658 l0 -221 -607 0 c-335 0 -761 -3 -948 -5 -187 -2 -1074
-7 -1970 -10 -897 -4 -1637 -7 -1645 -7 -8 -1 -64 0 -125 0 l-110 2 0 214 c0
118 3 217 6 220 3 4 725 9 1605 12 879 4 1600 8 1602 9 1 1 495 3 1097 4
l1095 2 0 -220z m100 -281 l0 -46 -40 4 -40 4 0 44 0 45 40 -3 40 -2 0 -46z
m-100 -4 l0 -46 -762 0 c-420 0 -1046 -3 -1393 -5 -346 -3 -1218 -7 -1937 -10
l-1308 -5 0 45 c0 25 1 45 3 45 1 0 668 3 1482 6 814 4 1481 7 1482 8 1 0 548
3 1217 5 l1216 3 0 -46z m-5420 -21 l0 -45 -45 0 -45 0 0 45 0 45 45 0 45 0 0
-45z"/>
<path d="M2173 9722 c-13 -2 -23 -6 -23 -10 0 -12 2604 -2 2615 9 7 7 -400 9
-1280 7 -710 -2 -1300 -4 -1312 -6z"/>
<path d="M2460 9632 c0 -5 2 -11 5 -13 2 -3 7 -62 9 -132 4 -121 3 -128 -17
-142 -12 -8 -29 -15 -38 -15 -21 0 -41 53 -33 87 6 21 3 24 -12 21 -30 -6 -26
-94 5 -119 33 -27 77 -24 106 6 24 23 25 29 25 154 0 71 3 136 6 145 5 13 -1
16 -25 16 -17 0 -31 -4 -31 -8z"/>
<path d="M2638 9479 c1 -102 -1 -159 -8 -159 -5 0 -10 -4 -10 -10 0 -5 12 -10
28 -10 l27 0 -4 85 c-1 47 0 85 3 85 30 0 83 -119 69 -155 -4 -11 2 -15 19
-15 31 0 39 8 28 29 -4 9 -14 36 -20 61 -7 25 -21 58 -32 73 l-20 28 28 67
c16 36 31 70 32 74 2 4 -11 8 -28 8 -26 0 -30 -3 -25 -19 8 -26 -23 -101 -42
-101 -13 0 -15 11 -11 59 4 54 2 59 -16 59 -20 0 -21 -5 -18 -159z"/>
<path d="M3015 9470 l0 -170 28 0 c26 0 36 13 18 25 -9 5 -7 44 5 102 3 14 9
20 18 17 18 -7 49 -105 40 -127 -5 -14 0 -17 25 -17 29 0 41 13 22 24 -4 3
-11 21 -14 41 -3 19 -16 55 -27 79 l-22 43 31 43 c54 75 33 110 -65 110 l-59
0 0 -170z m115 118 c0 -12 -61 -97 -71 -98 -3 0 -7 25 -8 55 l-2 55 41 0 c23
0 40 -5 40 -12z"/>
<path d="M3258 9617 c-34 -32 -41 -71 -33 -179 6 -80 11 -94 33 -115 35 -32
94 -32 127 2 24 23 25 30 25 139 0 109 -1 116 -26 145 -33 40 -88 43 -126 8z
m109 -47 c7 -14 13 -63 13 -114 0 -78 -2 -91 -22 -107 -26 -23 -47 -24 -76 -3
-20 14 -22 23 -22 115 0 119 9 141 60 137 25 -2 38 -10 47 -28z"/>
<path d="M3450 9630 c0 -5 4 -10 8 -10 5 0 16 -37 27 -82 10 -46 21 -87 25
-93 7 -9 21 -77 25 -120 2 -20 40 -30 40 -10 1 6 4 27 9 49 9 49 26 36 29 -22
1 -36 4 -42 24 -42 14 0 21 6 21 18 -3 33 59 280 74 297 15 17 8 25 -23 25
-23 0 -30 -4 -26 -15 4 -8 0 -36 -8 -62 -7 -26 -19 -75 -26 -108 l-12 -60 -14
41 c-12 37 -12 49 5 115 11 41 18 77 15 82 -2 4 -24 7 -49 7 -51 0 -54 -8 -29
-100 14 -55 10 -139 -6 -123 -12 12 -49 160 -49 195 0 24 -4 28 -30 28 -16 0
-30 -4 -30 -10z m157 -51 c-11 -28 -12 -28 -20 -7 -10 28 -2 49 17 42 11 -4
12 -11 3 -35z"/>
<path d="M3790 9632 c0 -5 2 -11 5 -14 3 -3 7 -75 9 -159 l3 -154 33 -3 c19
-2 49 -1 67 3 27 5 33 10 33 32 0 21 -3 24 -12 15 -7 -7 -30 -12 -51 -12 l-39
0 4 150 3 150 -27 0 c-16 0 -28 -4 -28 -8z"/>
<path d="M4005 9471 l0 -169 23 2 c22 3 23 4 25 169 l2 167 -25 0 -25 0 0
-169z"/>
<path d="M4148 9490 c3 -99 0 -155 -7 -164 -15 -18 -6 -23 29 -18 23 3 28 7
20 17 -7 8 -10 57 -8 126 l3 114 43 -39 42 -38 0 -89 c0 -86 1 -89 23 -89 22
0 22 1 22 165 l0 165 -26 0 c-25 0 -26 -1 -21 -52 l5 -52 -47 38 c-25 21 -46
45 -46 52 0 8 -8 14 -17 14 -17 0 -18 -13 -15 -150z"/>
<path d="M4415 9615 c-24 -23 -25 -30 -25 -140 0 -117 0 -117 30 -147 27 -26
36 -30 68 -25 23 4 46 17 61 33 20 24 23 36 19 81 -3 30 -1 56 4 59 13 8 -1
24 -23 24 -17 0 -19 -7 -19 -68 0 -75 -10 -92 -51 -92 -43 0 -50 19 -52 135
-2 95 0 108 17 121 23 16 72 19 81 4 11 -18 25 -10 25 15 0 24 -3 25 -55 25
-46 0 -60 -4 -80 -25z"/>
<path d="M1090 9325 c0 -8 5 -15 10 -15 6 0 10 7 10 15 0 8 -4 15 -10 15 -5 0
-10 -7 -10 -15z"/>
<path d="M2530 9314 c0 -9 7 -14 17 -12 25 5 28 28 4 28 -12 0 -21 -6 -21 -16z"/>
<path d="M2830 9315 c0 -8 7 -15 15 -15 8 0 15 7 15 15 0 8 -7 15 -15 15 -8 0
-15 -7 -15 -15z"/>
<path d="M1130 9310 c0 -5 5 -10 10 -10 6 0 10 5 10 10 0 6 -4 10 -10 10 -5 0
-10 -4 -10 -10z"/>
<path d="M2173 9252 c-13 -2 -23 -8 -23 -14 0 -7 377 -9 1258 -4 691 3 1281 6
1310 6 36 0 51 4 46 11 -5 8 -357 10 -1288 8 -704 -2 -1291 -5 -1303 -7z"/>
<path d="M5780 9210 c0 -5 5 -10 10 -10 6 0 10 5 10 10 0 6 -4 10 -10 10 -5 0
-10 -4 -10 -10z"/>
<path d="M1090 9200 c0 -5 5 -10 10 -10 6 0 10 5 10 10 0 6 -4 10 -10 10 -5 0
-10 -4 -10 -10z"/>
<path d="M5530 8953 c-99 -126 -218 -275 -264 -333 -46 -58 -111 -141 -144
-185 -33 -44 -69 -89 -81 -99 -21 -19 -21 -19 -21 2 0 12 -5 22 -11 22 -6 0
-9 -6 -6 -14 9 -22 -5 -28 -20 -8 -13 15 -13 15 -8 -6 6 -21 4 -23 -14 -17
-12 4 -21 2 -21 -4 0 -6 7 -11 15 -11 8 0 15 -4 15 -10 0 -5 -7 -10 -15 -10
-8 0 -15 -5 -15 -10 0 -6 11 -8 28 -4 27 7 27 7 8 -15 -11 -11 -14 -21 -8 -21
6 0 14 5 17 10 3 6 17 10 30 10 13 0 27 -4 30 -10 3 -5 11 -10 17 -10 6 0 3 9
-8 21 -18 20 -18 20 9 14 17 -5 27 -3 27 4 0 6 -7 11 -15 11 -8 0 -15 5 -15
10 0 6 7 10 15 10 8 0 15 5 15 11 0 7 -10 9 -25 5 -22 -6 -17 4 37 75 114 148
402 512 538 682 70 87 84 107 76 107 -3 0 -86 -102 -186 -227z"/>
<path d="M1187 9158 c8 -15 407 -514 544 -683 49 -60 95 -122 102 -137 12 -28
27 -37 27 -17 0 6 -71 99 -157 206 -87 108 -167 208 -178 222 -64 84 -337 421
-341 421 -3 0 -2 -6 3 -12z"/>
<path d="M2545 9098 c-27 -33 -75 -93 -105 -132 -30 -40 -89 -115 -131 -167
-145 -181 -351 -450 -347 -454 4 -4 98 113 233 290 82 109 205 264 328 416 49
60 85 109 80 108 -4 0 -30 -27 -58 -61z"/>
<path d="M2750 9157 c0 -8 66 -94 253 -328 50 -64 129 -163 175 -220 167 -210
217 -273 230 -285 18 -18 15 -26 -8 -19 -11 4 -20 2 -20 -4 0 -6 6 -11 13 -11
7 0 18 -9 25 -20 13 -21 47 -27 57 -10 5 8 11 7 21 -1 8 -6 17 -9 20 -6 9 9
-5 27 -20 27 -8 0 -16 9 -19 20 -3 12 -14 20 -25 20 -24 0 -56 33 -149 150
-145 183 -178 225 -183 230 -3 3 -37 46 -75 95 -38 50 -92 117 -120 150 -28
33 -73 89 -101 125 -72 95 -73 96 -74 87z"/>
<path d="M4098 9098 c-29 -33 -83 -100 -120 -147 -387 -493 -427 -545 -450
-576 l-22 -30 24 20 c12 11 48 54 79 95 30 41 116 152 190 245 74 94 164 207
199 253 65 82 77 92 84 70 2 -6 10 -8 16 -4 17 10 15 26 -3 26 -23 0 -19 9 26
62 22 26 38 48 36 48 -3 0 -29 -28 -59 -62z"/>
<path d="M4306 9150 c4 -8 31 -44 60 -80 200 -247 298 -370 339 -423 100 -131
238 -298 242 -293 4 4 -11 25 -73 95 -18 20 -72 88 -120 152 -89 115 -133 172
-307 388 -98 122 -154 186 -141 161z"/>
<path d="M3700 9086 c0 -9 7 -16 16 -16 17 0 14 22 -4 28 -7 2 -12 -3 -12 -12z"/>
<path d="M3800 9090 c0 -5 7 -10 16 -10 8 0 12 5 9 10 -3 6 -10 10 -16 10 -5
0 -9 -4 -9 -10z"/>
<path d="M3890 9085 c0 -8 7 -15 15 -15 8 0 15 7 15 15 0 8 -7 15 -15 15 -8 0
-15 -7 -15 -15z"/>
<path d="M3984 9079 c-10 -17 13 -36 27 -22 12 12 4 33 -11 33 -5 0 -12 -5
-16 -11z"/>
<path d="M3600 9065 c0 -8 7 -15 15 -15 8 0 15 7 15 15 0 8 -7 15 -15 15 -8 0
-15 -7 -15 -15z"/>
<path d="M3516 9053 c-11 -11 -6 -23 9 -23 8 0 15 4 15 9 0 13 -16 22 -24 14z"/>
<path d="M3420 9016 c0 -9 7 -16 16 -16 17 0 14 22 -4 28 -7 2 -12 -3 -12 -12z"/>
<path d="M4160 9006 c0 -8 4 -17 9 -20 11 -7 33 18 24 27 -12 12 -33 7 -33 -7z"/>
<path d="M3324 8979 c-8 -14 11 -33 25 -25 16 10 13 36 -3 36 -8 0 -18 -5 -22
-11z"/>
<path d="M4247 8964 c-13 -13 -7 -24 14 -24 11 0 19 5 17 12 -5 14 -22 21 -31
12z"/>
<path d="M3244 8939 c-10 -17 13 -36 27 -22 12 12 4 33 -11 33 -5 0 -12 -5
-16 -11z"/>
<path d="M4326 8903 c-11 -11 -6 -23 9 -23 8 0 15 4 15 9 0 13 -16 22 -24 14z"/>
<path d="M3160 8886 c0 -8 4 -17 9 -20 11 -7 33 18 24 27 -12 12 -33 7 -33 -7z"/>
<path d="M4397 8844 c-14 -14 -7 -35 11 -32 9 2 17 10 17 17 0 16 -18 25 -28
15z"/>
<path d="M3072 8828 c7 -19 38 -22 38 -4 0 10 -9 16 -21 16 -12 0 -19 -5 -17
-12z"/>
<path d="M3000 8776 c0 -9 7 -16 16 -16 9 0 14 5 12 12 -6 18 -28 21 -28 4z"/>
<path d="M4450 8754 c0 -9 7 -14 17 -12 25 5 28 28 4 28 -12 0 -21 -6 -21 -16z"/>
<path d="M2915 8720 c-8 -12 20 -24 35 -15 5 3 10 10 10 16 0 12 -37 12 -45
-1z"/>
<path d="M4514 8689 c-8 -14 11 -33 25 -25 6 4 11 11 11 16 0 13 -29 20 -36 9z"/>
<path d="M2842 8658 c7 -19 38 -22 38 -4 0 10 -9 16 -21 16 -12 0 -19 -5 -17
-12z"/>
<path d="M2495 8591 c-27 -15 -87 -49 -133 -74 -97 -54 -259 -184 -353 -284
-159 -169 -295 -439 -287 -569 3 -41 6 -49 23 -49 16 0 21 10 28 53 5 28 13
52 18 52 6 0 8 9 4 19 -4 13 -1 18 9 17 8 0 15 4 15 9 1 6 -3 10 -8 10 -5 0
-13 3 -17 8 -4 4 8 7 27 8 32 0 32 1 12 11 -35 17 -27 30 12 22 23 -4 35 -2
35 5 0 6 -13 11 -30 11 -16 0 -30 5 -30 11 0 8 15 9 45 5 53 -8 62 9 10 18
-19 4 -35 12 -35 17 0 7 12 8 33 3 47 -10 56 -10 57 1 1 6 -7 11 -17 13 -48 8
-63 13 -58 22 3 5 19 5 38 -1 41 -12 77 -12 77 0 0 5 -25 13 -56 17 -35 4 -52
10 -46 16 6 6 32 5 70 -3 34 -7 65 -10 68 -6 13 13 -4 19 -65 24 -56 5 -69 11
-56 25 3 3 31 -1 63 -8 31 -8 67 -14 80 -14 26 0 30 17 5 23 -10 2 -4 2 14 0
33 -4 55 13 29 23 -8 3 -47 11 -86 18 -55 9 -69 14 -59 23 10 8 32 6 84 -8 79
-21 105 -23 105 -9 0 11 -57 28 -122 37 -27 3 -48 10 -48 14 0 15 44 10 105
-11 32 -11 64 -20 72 -20 17 0 17 27 1 33 -7 3 -3 6 10 6 12 1 22 7 22 15 0
15 -76 36 -132 36 -24 0 -29 3 -21 11 9 9 29 8 80 -5 78 -18 103 -20 103 -6 0
12 -65 30 -112 30 -35 0 -58 13 -41 23 5 2 42 -4 83 -13 41 -10 78 -16 82 -14
21 13 3 23 -49 29 -77 9 -97 15 -86 26 6 6 38 3 82 -7 39 -9 74 -14 77 -11 15
14 -12 26 -71 32 -36 4 -65 12 -65 17 0 7 15 8 38 5 20 -4 57 -9 81 -13 35 -6
43 -4 39 7 -3 9 -22 15 -49 17 -54 3 -72 9 -65 21 5 8 74 -1 119 -15 11 -3 17
0 17 9 0 17 -30 27 -79 27 -27 0 -32 3 -23 12 9 9 24 9 63 0 29 -7 55 -10 58
-7 10 10 -23 25 -56 25 -17 0 -35 5 -39 11 -5 9 11 10 61 4 48 -5 65 -4 61 4
-4 6 -23 11 -42 11 -19 0 -34 5 -34 11 0 11 44 9 89 -2 7 -2 16 2 18 9 3 8 -7
12 -31 12 -20 0 -36 5 -36 11 0 8 14 9 44 5 27 -4 47 -3 51 4 3 6 -3 10 -17
10 -13 0 -30 5 -38 11 -11 8 -3 9 33 6 49 -5 63 5 25 18 -20 7 -18 9 17 15 22
4 34 8 28 9 -15 1 -18 21 -4 21 5 0 31 15 59 33 27 17 58 37 68 44 39 24 -3
11 -51 -16z m-439 -457 c30 -8 54 -17 54 -20 0 -4 -107 8 -138 15 -8 2 10 21
20 21 5 0 34 -7 64 -16z m-66 -116 c11 -7 8 -8 -10 -4 -14 3 -38 6 -53 6 -16
0 -26 4 -22 10 6 10 61 3 85 -12z"/>
<path d="M2774 8599 c-8 -14 18 -31 30 -19 9 9 0 30 -14 30 -5 0 -12 -5 -16
-11z"/>
<path d="M4555 8600 c-10 -17 12 -37 25 -24 8 8 6 15 -4 23 -10 9 -16 9 -21 1z"/>
<path d="M2705 8540 c-4 -6 -3 -16 3 -22 6 -6 12 -6 17 2 4 6 3 16 -3 22 -6 6
-12 6 -17 -2z"/>
<path d="M4570 8496 c0 -10 9 -16 21 -16 24 0 21 23 -4 28 -10 2 -17 -3 -17
-12z"/>
<path d="M2632 8463 c5 -25 28 -28 28 -4 0 12 -6 21 -16 21 -9 0 -14 -7 -12
-17z"/>
<path d="M2560 8395 c0 -8 7 -15 15 -15 8 0 15 7 15 15 0 8 -7 15 -15 15 -8 0
-15 -7 -15 -15z"/>
<path d="M4573 8398 c2 -7 10 -13 17 -13 7 0 15 6 18 13 2 7 -5 12 -18 12 -13
0 -20 -5 -17 -12z"/>
<path d="M3440 8345 c0 -8 5 -15 10 -15 6 0 10 7 10 15 0 8 -4 15 -10 15 -5 0
-10 -7 -10 -15z"/>
<path d="M1880 8340 c0 -5 5 -10 10 -10 6 0 10 5 10 10 0 6 -4 10 -10 10 -5 0
-10 -4 -10 -10z"/>
<path d="M3480 8335 c-8 -9 -8 -15 -2 -15 12 0 26 19 19 26 -2 2 -10 -2 -17
-11z"/>
<path d="M1920 8330 c-8 -5 -11 -12 -7 -16 4 -4 13 -2 19 4 15 15 7 24 -12 12z"/>
<path d="M2492 8328 c5 -15 28 -18 29 -3 0 6 -7 12 -17 13 -10 3 -15 -1 -12
-10z"/>
<path d="M3105 8306 c-190 -48 -318 -98 -460 -181 -186 -108 -380 -295 -449
-432 -24 -49 -47 -66 -60 -44 -3 5 -29 16 -57 26 -50 16 -53 16 -77 -2 -35
-26 -64 -86 -70 -143 -4 -39 1 -58 24 -100 62 -113 193 -157 288 -95 28 19 28
20 24 96 -4 60 -10 86 -32 124 -25 41 -27 50 -16 71 10 18 19 22 39 18 25 -5
25 -5 7 10 -26 21 -12 33 19 16 37 -20 44 -3 10 25 -37 30 -18 33 19 4 18 -15
31 -18 37 -12 7 7 -1 18 -25 33 -20 12 -36 26 -36 31 0 15 9 11 51 -23 27 -22
43 -28 50 -21 7 7 -5 19 -37 40 -27 18 -42 33 -35 37 6 4 30 -9 53 -28 44 -38
53 -42 62 -27 3 5 -17 26 -44 47 -28 21 -50 39 -50 41 0 11 31 -1 51 -19 41
-38 75 -57 88 -49 8 5 -9 23 -49 52 -33 24 -56 45 -50 47 6 2 27 -9 46 -25 20
-15 46 -36 59 -47 13 -10 28 -15 35 -11 14 8 -45 66 -92 91 -25 13 -38 34 -21
34 8 0 57 -38 102 -79 34 -30 71 -41 71 -21 0 6 -4 10 -10 10 -5 0 -10 5 -10
10 0 6 11 3 25 -6 24 -16 51 -11 40 7 -4 5 -2 9 4 9 5 0 13 -4 16 -10 9 -15
25 -12 25 5 0 13 -113 109 -166 141 -11 7 -16 15 -12 19 8 9 48 -20 135 -96
55 -48 84 -61 82 -36 0 14 -117 105 -168 131 -23 12 -30 21 -23 28 10 10 64
-27 162 -111 35 -30 60 -39 60 -22 0 15 -80 80 -137 113 -29 16 -53 34 -53 38
0 26 28 12 111 -55 86 -70 119 -88 119 -66 0 13 -65 63 -139 106 -52 30 -61
39 -48 47 13 7 37 -8 104 -62 83 -66 113 -82 113 -60 0 13 -96 88 -134 104
-17 7 -37 20 -45 29 -12 15 -11 17 7 17 11 0 56 -29 100 -65 74 -61 102 -76
102 -57 0 12 -99 91 -143 113 -21 11 -35 24 -32 29 11 18 27 10 106 -55 75
-62 99 -76 99 -56 0 14 -91 87 -133 107 -20 10 -37 22 -37 26 0 16 31 20 43 6
7 -8 40 -38 73 -66 59 -50 84 -63 84 -43 0 14 -76 79 -120 101 -22 11 -38 25
-35 30 12 20 32 9 104 -56 56 -52 75 -64 84 -55 14 14 -26 52 -100 97 -42 25
-55 44 -30 44 6 0 28 -14 47 -30 98 -84 107 -90 119 -77 8 11 0 21 -36 48 -26
19 -60 39 -75 46 -16 7 -28 17 -28 23 0 18 29 11 59 -15 60 -54 109 -86 116
-75 10 16 -13 39 -72 72 -29 16 -51 34 -47 39 6 10 40 -9 101 -58 29 -23 44
-30 49 -21 8 13 -33 49 -85 74 -23 11 -30 19 -23 26 7 7 30 -4 72 -36 33 -26
65 -44 71 -40 14 9 -8 32 -52 55 -41 21 -58 39 -36 39 8 0 35 -16 60 -35 47
-36 67 -43 67 -25 0 6 -20 23 -45 38 -24 15 -45 30 -45 35 0 15 23 6 60 -23
21 -16 43 -30 49 -30 23 0 10 21 -26 43 -27 16 -33 23 -21 25 9 2 30 -7 47
-19 16 -12 35 -19 43 -17 8 3 1 12 -19 25 -39 24 -32 38 8 18 40 -21 56 -19
34 5 -16 17 -16 20 -2 20 9 0 19 -5 22 -10 4 -6 11 -8 16 -4 5 3 7 10 4 15 -4
5 3 9 14 9 11 0 23 5 26 10 10 16 -33 10 -170 -24z m-562 -411 c77 -63 91 -85
20 -30 -27 20 -60 44 -75 53 -27 16 -37 32 -20 32 4 0 38 -25 75 -55z m-18
-46 l30 -33 -30 23 c-16 12 -45 31 -62 43 -18 11 -30 24 -27 29 7 11 48 -18
89 -62z"/>
<path d="M1869 8309 c-7 -5 -25 -9 -39 -9 -22 -1 -23 -2 -7 -11 13 -8 15 -14
7 -24 -8 -10 -1 -14 32 -19 23 -4 50 -14 60 -23 12 -10 18 -12 18 -4 0 6 -7
14 -15 17 -10 4 -12 15 -9 34 7 32 -21 56 -47 39z"/>
<path d="M1930 8300 c0 -5 7 -10 15 -10 8 0 15 5 15 10 0 6 -7 10 -15 10 -8 0
-15 -4 -15 -10z"/>
<path d="M3490 8300 c0 -5 4 -10 9 -10 6 0 13 5 16 10 3 6 -1 10 -9 10 -9 0
-16 -4 -16 -10z"/>
<path d="M4555 8300 c3 -5 10 -10 16 -10 5 0 9 5 9 10 0 6 -7 10 -16 10 -8 0
-12 -4 -9 -10z"/>
<path d="M1930 8260 c0 -5 7 -10 15 -10 8 0 15 5 15 10 0 6 -7 10 -15 10 -8 0
-15 -4 -15 -10z"/>
<path d="M2430 8255 c0 -8 7 -15 15 -15 8 0 15 7 15 15 0 8 -7 15 -15 15 -8 0
-15 -7 -15 -15z"/>
<path d="M3380 8260 c0 -5 4 -10 9 -10 6 0 13 5 16 10 3 6 -1 10 -9 10 -9 0
-16 -4 -16 -10z"/>
<path d="M3480 8235 c7 -9 15 -13 17 -11 7 7 -7 26 -19 26 -6 0 -6 -6 2 -15z"/>
<path d="M1845 8230 c-3 -5 -1 -10 4 -10 6 0 11 5 11 10 0 6 -2 10 -4 10 -3 0
-8 -4 -11 -10z"/>
<path d="M3405 8230 c-3 -5 -1 -10 4 -10 6 0 11 5 11 10 0 6 -2 10 -4 10 -3 0
-8 -4 -11 -10z"/>
<path d="M5011 8224 c0 -11 3 -14 6 -6 3 7 2 16 -1 19 -3 4 -6 -2 -5 -13z"/>
<path d="M3440 8220 c0 -5 5 -10 10 -10 6 0 10 5 10 10 0 6 -4 10 -10 10 -5 0
-10 -4 -10 -10z"/>
<path d="M4520 8216 c0 -21 20 -30 33 -17 9 9 8 14 -3 21 -21 14 -30 12 -30
-4z"/>
<path d="M2364 8189 c-10 -17 13 -36 27 -22 12 12 4 33 -11 33 -5 0 -12 -5
-16 -11z"/>
<path d="M3510 8195 c0 -6 119 -160 194 -251 69 -84 256 -315 362 -449 104
-131 104 -132 104 -120 0 6 -55 78 -121 160 -67 83 -166 206 -221 275 -55 69
-118 147 -141 173 -22 27 -69 86 -105 133 -60 78 -72 92 -72 79z"/>
<path d="M4887 8137 c-26 -34 -88 -114 -137 -177 -50 -63 -121 -155 -160 -205
-38 -49 -100 -126 -136 -170 -36 -44 -74 -93 -84 -108 -10 -16 -39 -51 -65
-78 -26 -27 -45 -52 -42 -55 7 -8 54 45 141 160 38 50 92 119 120 152 28 34
69 85 91 114 22 29 55 71 74 94 19 22 67 84 107 136 40 52 91 119 114 148 22
28 37 52 33 52 -4 0 -29 -28 -56 -63z"/>
<path d="M5083 8169 c62 -76 177 -219 238 -296 144 -182 248 -311 312 -386 37
-43 71 -86 76 -95 5 -9 12 -14 15 -11 3 2 -16 31 -42 63 -56 69 -172 213 -421
522 -101 126 -189 231 -195 233 -6 2 2 -11 17 -30z"/>
<path d="M1739 8069 c-52 -66 -137 -174 -189 -239 -52 -66 -108 -137 -125
-158 -16 -22 -56 -72 -89 -112 -98 -120 -157 -200 -149 -200 4 0 21 19 38 42
16 23 72 95 125 160 52 64 147 183 210 264 63 80 155 195 203 255 48 60 84
109 79 109 -5 0 -51 -54 -103 -121z"/>
<path d="M3335 8128 c-27 -34 -73 -92 -102 -129 -29 -38 -89 -115 -135 -171
-46 -56 -90 -112 -98 -124 -8 -13 -51 -67 -95 -121 -44 -54 -89 -110 -100
-125 -11 -15 -31 -42 -45 -60 -13 -18 -17 -27 -8 -20 9 7 36 39 60 70 49 65
183 234 291 367 40 50 86 108 102 130 16 22 50 65 75 95 89 108 121 150 113
149 -4 0 -30 -28 -58 -61z"/>
<path d="M4477 8134 c-9 -10 2 -24 19 -24 8 0 14 7 14 15 0 15 -21 21 -33 9z"/>
<path d="M2306 8123 c-12 -12 -6 -33 9 -33 8 0 15 6 15 14 0 17 -14 28 -24 19z"/>
<path d="M4424 8049 c-8 -14 11 -33 25 -25 16 10 13 36 -3 36 -8 0 -18 -5 -22
-11z"/>
<path d="M2236 8041 c-3 -5 1 -14 8 -20 16 -13 32 2 21 19 -8 12 -22 13 -29 1z"/>
<path d="M4370 7966 c0 -8 4 -17 8 -20 13 -8 35 11 28 23 -10 16 -36 14 -36
-3z"/>
<path d="M2141 7963 c6 -18 113 -152 117 -148 3 2 -11 23 -29 47 -51 66 -93
113 -88 101z"/>
<path d="M2172 7958 c7 -19 38 -22 38 -4 0 10 -9 16 -21 16 -12 0 -19 -5 -17
-12z"/>
<path d="M4305 7900 c-8 -14 3 -30 21 -30 8 0 14 9 14 20 0 21 -24 28 -35 10z"/>
<path d="M2120 7875 c0 -10 7 -15 18 -13 21 4 19 22 -2 26 -10 2 -16 -3 -16
-13z"/>
<path d="M4247 7834 c-14 -14 -7 -35 11 -32 9 2 17 10 17 17 0 16 -18 25 -28
15z"/>
<path d="M2075 7809 c-10 -15 1 -23 20 -15 9 3 13 10 10 16 -8 13 -22 13 -30
-1z"/>
<path d="M4170 7756 c0 -17 27 -29 35 -16 4 6 3 15 0 20 -9 15 -35 12 -35 -4z"/>
<path d="M2022 7733 c4 -21 33 -25 33 -3 0 8 -8 16 -18 18 -14 3 -18 -1 -15
-15z"/>
<path d="M4100 7685 c0 -8 9 -15 20 -15 11 0 20 7 20 15 0 8 -9 15 -20 15 -11
0 -20 -7 -20 -15z"/>
<path d="M1920 7672 l-45 -18 -1 -69 c-2 -66 -22 -136 -43 -149 -5 -4 -3 7 5
23 18 36 33 126 27 152 -7 24 -19 24 -45 -1 -12 -11 -31 -20 -43 -20 -35 0
-59 -34 -51 -72 4 -18 10 -59 14 -91 6 -47 13 -63 37 -83 29 -25 29 -25 3 -8
-47 28 -30 -32 28 -95 38 -43 50 -49 57 -28 2 6 3 4 2 -5 -7 -44 151 -74 231
-43 53 20 118 74 140 116 20 39 19 40 -27 24 -53 -19 -69 -19 -132 2 -57 18
-121 75 -144 130 -27 66 -6 183 40 222 20 16 22 31 5 30 -7 0 -33 -8 -58 -17z"/>
<path d="M2390 7653 c0 -6 41 -62 92 -124 50 -62 107 -136 127 -163 32 -45 33
-49 13 -44 -25 7 -30 -9 -6 -19 14 -5 13 -8 -7 -20 l-24 -13 25 1 c25 2 51 -5
82 -22 11 -5 19 -5 23 1 3 6 -1 10 -9 10 -18 0 -21 16 -6 25 16 10 -8 45 -30
45 -12 0 -35 22 -61 58 -24 31 -75 95 -114 142 -39 47 -78 96 -88 110 -9 13
-17 19 -17 13z"/>
<path d="M4035 7630 c-8 -13 4 -32 16 -25 12 8 12 35 0 35 -6 0 -13 -4 -16
-10z"/>
<path d="M3956 7572 c-2 -4 -1 -14 4 -22 7 -11 12 -12 21 -3 6 6 8 16 5 22 -8
13 -23 14 -30 3z"/>
<path d="M3880 7500 c0 -11 7 -20 15 -20 8 0 15 9 15 20 0 11 -7 20 -15 20 -8
0 -15 -9 -15 -20z"/>
<path d="M3805 7450 c-3 -6 1 -13 10 -16 19 -8 30 0 20 15 -8 14 -22 14 -30 1z"/>
<path d="M3734 7399 c-10 -17 13 -36 27 -22 12 12 4 33 -11 33 -5 0 -12 -5
-16 -11z"/>
<path d="M4227 7383 c-4 -6 -4 -18 -1 -27 8 -22 -13 -20 -25 1 -5 10 -13 15
-17 11 -4 -4 -1 -14 6 -23 10 -13 9 -15 -9 -15 -11 0 -21 -5 -21 -11 0 -5 4
-8 9 -4 5 3 12 1 15 -4 3 -5 -1 -11 -9 -15 -8 -3 -15 -10 -15 -16 0 -7 6 -8
19 0 13 7 22 7 26 0 3 -5 17 -10 30 -10 13 0 25 -6 28 -12 2 -8 8 -9 13 -4 5
5 4 11 -3 13 -8 3 -11 14 -7 27 3 14 -1 29 -9 38 -9 8 -17 26 -19 39 -2 15 -6
20 -11 12z"/>
<path d="M2660 7365 c0 -8 5 -15 10 -15 6 0 10 7 10 15 0 8 -4 15 -10 15 -5 0
-10 -7 -10 -15z"/>
<path d="M1100 7354 c0 -8 5 -12 10 -9 6 3 10 10 10 16 0 5 -4 9 -10 9 -5 0
-10 -7 -10 -16z"/>
<path d="M2697 7353 c-12 -12 -7 -22 8 -17 8 4 15 10 15 15 0 11 -14 12 -23 2z"/>
<path d="M3660 7329 c0 -24 23 -21 28 4 2 10 -3 17 -12 17 -10 0 -16 -9 -16
-21z"/>
<path d="M4290 7330 c-8 -5 -12 -11 -9 -14 2 -3 11 -1 19 4 8 5 12 11 9 14 -2
3 -11 1 -19 -4z"/>
<path d="M2710 7320 c0 -5 7 -10 15 -10 8 0 15 5 15 10 0 6 -7 10 -15 10 -8 0
-15 -4 -15 -10z"/>
<path d="M3590 7290 c-12 -7 -12 -12 -2 -22 14 -14 35 1 24 19 -5 8 -13 9 -22
3z"/>
<path d="M4280 7290 c0 -5 5 -10 10 -10 6 0 10 5 10 10 0 6 -4 10 -10 10 -5 0
-10 -4 -10 -10z"/>
<path d="M2710 7280 c0 -5 7 -10 15 -10 8 0 15 5 15 10 0 6 -7 10 -15 10 -8 0
-15 -4 -15 -10z"/>
<path d="M1155 7270 c3 -5 10 -10 16 -10 5 0 9 5 9 10 0 6 -7 10 -16 10 -8 0
-12 -4 -9 -10z"/>
<path d="M5750 7270 c-8 -5 -11 -12 -7 -16 4 -4 13 -2 19 4 15 15 7 24 -12 12z"/>
<path d="M4185 7260 c-3 -5 -1 -10 4 -10 6 0 11 5 11 10 0 6 -2 10 -4 10 -3 0
-8 -4 -11 -10z"/>
<path d="M2620 7250 c0 -5 5 -10 10 -10 6 0 10 5 10 10 0 6 -4 10 -10 10 -5 0
-10 -4 -10 -10z"/>
<path d="M5790 7250 c0 -5 5 -10 10 -10 6 0 10 5 10 10 0 6 -4 10 -10 10 -5 0
-10 -4 -10 -10z"/>
<path d="M1055 7240 c4 -6 11 -8 16 -5 14 9 11 15 -7 15 -8 0 -12 -5 -9 -10z"/>
<path d="M1090 7230 c0 -5 5 -10 10 -10 6 0 10 5 10 10 0 6 -4 10 -10 10 -5 0
-10 -4 -10 -10z"/>
<path d="M3510 7226 c0 -8 4 -17 8 -20 13 -8 35 11 28 23 -10 16 -36 14 -36
-3z"/>
<path d="M1066 7198 c-53 -14 -121 -82 -135 -135 -8 -30 -11 -241 -9 -725 l3
-683 25 -45 c34 -61 109 -100 190 -100 32 0 60 -3 62 -8 6 -15 84 -70 123 -88
30 -13 64 -18 138 -17 99 0 144 14 91 27 -46 12 -147 65 -177 94 -49 46 -51
57 -22 115 l25 53 -4 676 c-4 640 -5 678 -23 719 -47 105 -159 151 -287 117z
m195 -115 c13 -16 12 -17 -3 -4 -17 13 -22 21 -14 21 2 0 10 -8 17 -17z m-63
-32 l22 -18 0 -667 c1 -696 2 -684 -41 -706 -22 -12 -76 6 -89 30 -6 12 -10
269 -10 684 l0 665 22 15 c30 21 70 20 96 -3z"/>
<path d="M1092 6365 c1 -512 3 -638 14 -653 11 -14 13 91 14 636 0 552 -2 652
-14 652 -12 0 -14 -98 -14 -635z"/>
<path d="M3442 7173 c5 -25 28 -28 28 -4 0 12 -6 21 -16 21 -9 0 -14 -7 -12
-17z"/>
<path d="M3367 7124 c-9 -10 2 -24 19 -24 8 0 14 7 14 15 0 15 -21 21 -33 9z"/>
<path d="M3294 7069 c-8 -14 11 -33 25 -25 6 4 11 11 11 16 0 13 -29 20 -36 9z"/>
<path d="M770 6955 c0 -11 12 -15 50 -15 40 0 48 3 44 15 -4 10 -20 15 -50 15
-32 0 -44 -4 -44 -15z"/>
<path d="M2994 6859 c-10 -17 13 -36 27 -22 12 12 4 33 -11 33 -5 0 -12 -5
-16 -11z"/>
<path d="M2920 6794 c0 -9 7 -14 17 -12 25 5 28 28 4 28 -12 0 -21 -6 -21 -16z"/>
<path d="M5618 6743 c-38 -2 -68 -8 -68 -13 0 -6 4 -10 8 -10 30 0 34 -61 39
-593 5 -537 5 -539 -16 -567 -11 -16 -21 -32 -21 -35 0 -3 99 -5 220 -5 l220
0 0 80 c0 64 -3 80 -15 80 -8 0 -15 -4 -15 -10 0 -6 -41 -10 -104 -10 l-104 0
-7 103 c-3 56 -5 287 -3 512 3 370 5 414 20 437 10 15 14 29 10 31 -9 5 -78 5
-164 0z"/>
<path d="M3388 6733 l-58 -4 25 -27 c14 -14 27 -44 30 -67 3 -22 5 -273 3
-557 l-3 -516 -24 -26 -24 -26 251 0 c139 0 252 2 252 5 0 3 -8 18 -17 32 -16
24 -19 62 -23 296 l-5 269 -26 22 -25 22 29 27 29 26 -4 208 c-3 188 -5 211
-23 243 -34 57 -64 68 -205 73 -69 2 -151 2 -182 0z m242 -153 c6 -12 9 -81 8
-182 l-3 -163 -42 -3 -42 -3 -3 181 c-2 100 -1 184 1 186 2 2 19 4 37 4 23 0
37 -6 44 -20z m2 -498 c4 -4 8 -118 9 -253 2 -211 -1 -249 -15 -277 -21 -41
-38 -41 -59 3 -15 31 -17 72 -17 292 l0 256 37 -6 c20 -4 40 -10 45 -15z"/>
<path d="M3980 6735 c0 -2 11 -20 24 -39 21 -32 24 -48 29 -198 4 -90 5 -329
4 -533 -2 -364 -2 -371 -24 -406 -13 -20 -23 -40 -23 -44 0 -5 259 -1 278 4 1
1 -10 20 -25 44 l-28 42 -3 515 c-3 533 -2 549 39 586 10 9 19 21 19 26 0 4
-65 8 -145 8 -80 0 -145 -2 -145 -5z"/>
<path d="M4286 6698 c-20 -23 -37 -49 -37 -57 -4 -45 3 -999 7 -1013 3 -10 8
-18 12 -18 4 0 7 229 7 509 l0 509 43 50 c48 57 49 62 23 62 -11 0 -36 -19
-55 -42z"/>
<path d="M4410 6735 c0 -3 8 -18 18 -32 15 -25 17 -73 21 -563 3 -499 2 -538
-15 -575 -10 -22 -19 -42 -21 -45 -2 -3 66 -5 150 -5 166 1 194 8 231 58 20
27 21 41 21 279 l0 250 -28 23 -27 24 25 37 c22 32 25 49 27 128 6 228 -6 332
-45 375 -39 42 -76 51 -222 51 -74 0 -135 -2 -135 -5z m245 -177 c3 -13 4 -90
3 -173 l-3 -150 -27 -3 -27 -3 1 175 2 176 23 0 c15 0 24 -7 28 -22z m2 -500
c9 -14 14 -352 7 -380 -3 -11 -15 -18 -29 -18 l-23 0 -4 198 c-2 108 -3 200
-1 205 6 12 41 8 50 -5z"/>
<path d="M5111 6727 c-19 -6 -52 -28 -72 -50 -30 -31 -39 -48 -44 -90 -4 -29
-5 -250 -3 -492 l3 -440 24 -43 c37 -63 109 -96 195 -90 80 7 139 38 163 87
16 33 18 77 21 456 4 478 0 550 -31 597 -45 67 -159 96 -256 65z m118 -125
c15 -27 15 -920 0 -938 -15 -19 -44 -18 -63 2 -14 14 -16 70 -16 473 0 342 3
460 12 469 18 18 56 15 67 -6z"/>
<path d="M5822 6720 c-11 -11 -24 -35 -27 -52 -3 -18 -4 -244 -3 -503 3 -440
4 -470 21 -473 17 -3 17 22 16 478 l-1 482 32 44 31 44 -23 0 c-14 0 -34 -9
-46 -20z"/>
<path d="M1577 6715 c12 -9 27 -32 33 -53 6 -23 10 -213 10 -502 0 -271 4
-479 10 -499 15 -55 52 -99 100 -123 54 -26 145 -35 193 -19 46 15 103 79 116
129 7 26 10 208 9 525 l-3 485 23 31 c12 16 22 33 22 36 0 3 -56 5 -124 5
l-125 0 19 -42 c17 -39 19 -84 23 -539 2 -288 0 -503 -5 -513 -14 -25 -65 -21
-80 7 -10 17 -13 133 -13 522 0 460 1 503 18 533 l18 32 -133 0 c-122 0 -131
-1 -111 -15z"/>
<path d="M2094 6691 l-26 -40 1 -496 c2 -560 4 -542 -77 -623 -59 -59 -147
-76 -227 -46 -12 5 -16 4 -11 -4 9 -15 72 -32 119 -32 78 0 168 57 199 127 18
41 19 70 19 525 -1 285 3 496 9 517 5 21 23 50 40 66 37 35 38 45 5 45 -18 0
-32 -11 -51 -39z"/>
<path d="M2324 6719 c-46 -13 -91 -69 -99 -121 -3 -24 -7 -264 -8 -535 l-2
-492 -29 -30 -30 -31 260 1 c142 0 253 3 246 6 -39 16 -41 40 -43 601 -1 536
-1 541 20 570 11 17 21 33 21 36 0 10 -302 5 -336 -5z m134 -396 l4 -273 -47
-20 c-26 -11 -49 -20 -51 -20 -10 0 -3 552 7 571 8 16 19 19 47 17 l37 -3 3
-272z m2 -587 c0 -204 -18 -254 -70 -189 -19 24 -20 37 -18 167 l3 141 35 17
c19 9 38 17 43 18 4 0 7 -69 7 -154z"/>
<path d="M2791 6701 c28 -28 29 -33 30 -123 0 -51 3 -290 5 -531 5 -478 5
-471 -53 -516 l-28 -21 185 2 c205 3 228 9 272 70 l23 33 1 415 c0 228 -3 457
-6 508 -7 88 -9 95 -40 127 -58 59 -80 65 -258 65 l-160 0 29 -29z m260 -134
c4 -15 8 -220 9 -455 1 -455 1 -452 -47 -467 l-23 -6 -1 458 c0 252 -2 468 -3
481 -2 20 1 23 27 20 24 -2 32 -9 38 -31z"/>
<path d="M2678 6703 c-9 -10 -20 -27 -26 -39 -14 -26 -4 -1074 10 -1089 6 -6
8 182 7 522 l-2 532 27 35 c35 46 20 80 -16 39z"/>
<path d="M4847 6610 c4 -25 8 -119 7 -210 -1 -136 -4 -171 -18 -198 -17 -33
-16 -62 3 -62 5 0 16 18 25 40 29 73 18 432 -14 464 -8 8 -9 -2 -3 -34z"/>
<path d="M3825 6623 c4 -10 10 -85 12 -168 4 -135 -2 -218 -22 -282 -6 -17 -3
-23 8 -23 31 0 40 67 34 261 -5 184 -11 229 -29 229 -6 0 -7 -8 -3 -17z"/>
<path d="M5434 6616 c3 -13 6 -228 7 -477 2 -477 0 -506 -43 -569 -43 -62 -70
-75 -170 -79 -109 -4 -100 -21 12 -21 121 0 192 48 220 149 6 22 10 213 10
478 0 429 -7 543 -32 543 -6 0 -8 -10 -4 -24z"/>
<path d="M2705 6620 c-4 -6 -3 -16 3 -22 6 -6 12 -6 17 2 4 6 3 16 -3 22 -6 6
-12 6 -17 -2z"/>
<path d="M3251 6125 c3 -448 1 -493 -15 -530 -22 -51 -61 -92 -100 -105 -35
-11 -278 -18 -713 -19 -196 -1 -303 -5 -303 -11 0 -13 1017 -5 1051 9 43 16
97 85 104 133 3 24 5 255 3 515 -2 374 -6 475 -16 485 -11 11 -13 -72 -11
-477z"/>
<path d="M3836 5928 c2 -95 4 -212 4 -260 0 -52 4 -88 10 -88 11 0 12 246 3
423 -9 163 -21 108 -17 -75z"/>
<path d="M4865 5862 c0 -251 -5 -278 -58 -330 -49 -47 -98 -53 -489 -52 -240
0 -348 -4 -348 -11 0 -7 120 -10 398 -7 551 4 517 -19 517 360 0 152 -4 251
-10 257 -7 7 -10 -65 -10 -217z"/>
<path d="M2122 6056 c1 -10 8 -17 13 -17 15 1 12 24 -3 29 -9 3 -13 -2 -10
-12z"/>
<path d="M6038 5588 l-3 -93 -235 -3 c-136 -1 -238 -6 -244 -12 -7 -7 70 -10
221 -10 127 0 245 -3 262 -6 l31 -6 0 111 c0 91 -3 111 -15 111 -11 0 -15 -19
-17 -92z"/>
<path d="M1033 5483 c8 -12 126 -37 135 -29 8 9 0 14 -33 19 -16 3 -48 8 -69
12 -25 5 -37 4 -33 -2z"/>
<path d="M3323 5465 c2 -5 28 -10 58 -10 510 4 560 6 553 16 -9 15 -616 9
-611 -6z"/>
<path d="M1300 5376 c0 -18 82 -38 155 -37 73 0 231 23 243 36 10 10 -68 5
-163 -11 -94 -16 -156 -13 -217 11 -10 4 -18 4 -18 1z"/>
<path d="M1385 5291 c-3 -5 -1 -12 5 -16 12 -7 30 2 30 16 0 12 -27 12 -35 0z"/>
<path d="M5198 5158 c18 -16 952 -14 952 2 0 7 -153 10 -479 8 -264 -2 -477
-6 -473 -10z"/>
<path d="M1020 5150 c-140 -3 -249 -9 -243 -13 17 -10 917 -7 935 4 17 11
-363 15 -692 9z"/>
<path d="M6223 6078 c2 -637 5 -802 15 -806 10 -3 12 155 12 802 -1 696 -3
806 -15 806 -13 0 -14 -108 -12 -802z"/>
<path d="M662 6050 c2 -527 6 -799 13 -798 21 6 14 1598 -7 1598 -4 0 -7 -360
-6 -800z"/>
<path d="M3195 5298 c-278 -14 -540 -44 -775 -89 -283 -54 -609 -146 -742
-209 -35 -17 -69 -30 -75 -30 -7 0 -13 -4 -13 -9 0 -5 35 -80 78 -168 43 -87
84 -173 91 -190 8 -18 17 -33 22 -33 4 0 54 18 111 40 144 57 317 107 498 145
177 37 250 48 250 37 0 -12 151 -235 191 -281 24 -28 41 -39 52 -35 11 4 18
-2 22 -19 6 -21 -4 -39 -57 -104 -57 -70 -159 -199 -288 -364 -198 -253 -243
-309 -249 -309 -10 0 -82 86 -181 215 -46 61 -90 116 -98 124 -7 8 -20 24 -29
37 -8 13 -19 24 -24 24 -5 0 42 -64 104 -142 62 -79 153 -194 202 -257 50 -63
106 -133 125 -156 19 -23 49 -59 66 -81 17 -21 70 -87 118 -146 47 -59 86
-111 86 -116 0 -7 -79 -110 -323 -421 -45 -57 -116 -148 -157 -202 -41 -53
-108 -139 -147 -189 -40 -51 -73 -97 -73 -102 0 -6 17 12 38 39 20 28 67 88
104 134 37 46 149 190 249 319 288 373 322 413 334 397 16 -21 89 -111 95
-117 3 -3 20 -24 39 -47 38 -50 28 -57 -19 -13 -18 17 -34 30 -36 30 -2 0 -4
-11 -4 -24 0 -15 11 -33 26 -45 19 -15 22 -21 10 -21 -9 0 -21 9 -28 20 -7 11
-16 20 -20 20 -14 0 -9 -27 7 -40 15 -13 13 -24 -6 -26 -22 -3 -23 -5 -9 -14
8 -5 27 -10 43 -10 28 0 36 -17 16 -37 -8 -8 4 -21 46 -48 52 -33 58 -35 69
-19 10 13 17 14 34 5 11 -6 27 -8 35 -5 10 4 40 -28 93 -98 44 -58 102 -132
129 -165 68 -82 240 -302 240 -306 0 -4 -120 -158 -153 -196 -12 -14 -55 -68
-95 -120 -40 -51 -99 -125 -131 -165 -33 -39 -83 -102 -111 -141 -29 -38 -89
-115 -134 -170 -44 -55 -81 -104 -80 -110 0 -5 7 1 16 14 10 13 44 55 77 95
33 39 83 103 111 141 29 39 85 111 126 161 179 222 255 317 269 337 8 12 38
50 66 84 l51 61 39 -51 c58 -76 214 -271 288 -357 46 -54 76 -99 76 -114 0 -8
9 -18 20 -21 11 -3 20 -9 20 -13 0 -4 13 -20 28 -37 16 -16 63 -75 106 -130
42 -55 89 -115 103 -132 14 -18 30 -33 35 -33 6 0 -5 17 -23 38 -19 21 -61 74
-94 117 -33 43 -81 103 -107 133 -27 30 -48 63 -48 74 0 10 -6 18 -13 18 -7 0
-29 21 -48 48 -20 26 -67 84 -105 129 -38 44 -103 125 -144 178 -41 54 -87
112 -102 130 l-27 31 52 70 c52 70 127 165 138 174 3 3 25 32 49 65 46 62 160
206 170 215 3 3 19 22 35 43 24 33 30 36 38 22 5 -10 10 -51 11 -94 8 -234
250 -515 553 -641 40 -17 77 -29 82 -26 15 9 -51 391 -82 476 -20 57 -92 171
-156 249 -50 61 -136 122 -180 128 -30 4 -41 13 -63 50 -16 24 -28 47 -28 51
0 4 18 32 41 62 22 30 52 72 67 92 15 21 32 37 37 37 6 0 19 -12 29 -27 11
-15 45 -58 77 -97 32 -38 115 -142 184 -230 70 -88 152 -191 184 -230 31 -38
89 -113 128 -165 74 -99 130 -159 117 -127 -3 9 -10 17 -14 17 -4 0 -47 53
-96 118 -48 64 -112 146 -141 182 -29 36 -101 126 -160 200 -60 75 -150 188
-200 252 -51 64 -93 119 -93 123 0 4 20 33 45 64 294 369 380 477 435 550 36
48 90 118 120 156 31 39 66 86 79 105 l22 35 -28 -33 c-49 -58 -125 -155 -213
-271 -46 -61 -89 -111 -95 -111 -10 0 -91 99 -311 379 -49 63 -112 142 -139
175 -28 34 -81 101 -119 149 l-68 89 25 51 c14 29 31 69 38 89 7 21 37 68 67
105 30 37 60 76 66 85 12 17 19 17 142 -3 284 -45 507 -101 712 -181 57 -22
107 -36 112 -32 9 10 180 376 180 386 0 10 -91 50 -155 68 -33 10 -100 32
-150 49 -450 154 -1205 241 -1830 209z m-182 -185 c-7 -2 -19 -2 -25 0 -7 3
-2 5 12 5 14 0 19 -2 13 -5z m-210 -20 c-7 -2 -19 -2 -25 0 -7 3 -2 5 12 5 14
0 19 -2 13 -5z m181 -38 c11 -8 15 -15 10 -15 -6 0 -19 7 -30 15 -10 8 -14 14
-9 14 6 0 19 -6 29 -14z m-184 -19 c0 -3 -4 -8 -10 -11 -5 -3 -10 -1 -10 4 0
6 5 11 10 11 6 0 10 -2 10 -4z m-105 -26 c3 -5 1 -10 -4 -10 -6 0 -11 5 -11
10 0 6 2 10 4 10 3 0 8 -4 11 -10z m520 -20 c-3 -5 -14 -10 -23 -9 -14 0 -13
2 3 9 27 11 27 11 20 0z m-190 -10 c-3 -5 -18 -10 -33 -9 l-27 1 25 8 c35 11
42 11 35 0z m-217 -27 c-10 -2 -26 -2 -35 0 -10 3 -2 5 17 5 19 0 27 -2 18 -5z
m2302 -73 c8 -5 12 -11 10 -14 -3 -2 -14 2 -24 10 -22 15 -10 19 14 4z m-2364
-15 c23 -17 12 -20 -16 -3 -15 10 -26 9 -57 -5 l-38 -17 24 20 c27 24 60 26
87 5z m1471 -7 c-3 -8 -6 -5 -6 6 -1 11 2 17 5 13 3 -3 4 -12 1 -19z m-312
-13 c99 -9 186 -16 193 -18 8 -1 3 -12 -13 -29 -44 -47 -105 -151 -121 -203
-10 -35 -26 -63 -52 -86 l-37 -34 29 32 29 33 -42 50 -42 50 55 67 c53 64 57
66 102 67 66 1 72 25 7 28 -26 0 -59 3 -73 4 -90 12 -649 15 -810 4 -291 -19
-300 -20 -300 -37 0 -12 12 -14 73 -8 l72 7 51 -63 52 -63 -47 -59 c-77 -96
-75 -92 -56 -121 10 -14 15 -26 12 -26 -3 0 -15 16 -27 36 -17 26 -20 38 -11
47 17 17 13 32 -20 73 -33 42 -149 218 -145 221 4 4 284 33 351 36 223 10 608
6 770 -8z m945 -25 c8 -5 11 -10 5 -10 -5 0 -17 5 -25 10 -8 5 -10 10 -5 10 6
0 17 -5 25 -10z m-1706 -98 c-25 -31 -50 -58 -54 -60 -4 -1 -28 23 -55 55
l-47 58 93 5 c52 3 97 4 102 2 4 -2 -14 -29 -39 -60z m601 -67 c89 -115 64
-93 -43 37 -40 48 -72 89 -72 92 0 8 67 -68 115 -129z m187 116 c8 -7 -78
-111 -91 -111 -4 0 -25 25 -47 55 -21 30 -42 55 -46 55 -5 0 -8 5 -8 11 0 11
179 2 192 -10z m-651 -8 c-5 -10 -26 -36 -46 -58 -40 -44 -28 -21 20 38 33 41
41 46 26 20z m1802 -5 c-6 -10 -35 -10 -51 0 -8 5 1 8 22 8 19 -1 32 -4 29 -8z
m-1944 -175 c-80 -101 -124 -152 -114 -133 18 33 162 210 171 210 2 0 -23 -35
-57 -77z m726 -81 c-4 -5 -18 8 -50 48 -11 15 -4 10 18 -9 20 -19 35 -37 32
-39z m-925 48 c0 -5 -4 -10 -10 -10 -5 0 -10 5 -10 10 0 6 5 10 10 10 6 0 10
-4 10 -10z m-25 -24 c14 -13 10 -26 -7 -26 -5 0 -6 5 -3 10 3 6 1 10 -4 10 -6
0 -11 5 -11 10 0 14 9 12 25 -4z m-35 -16 c0 -5 -4 -10 -10 -10 -5 0 -10 5
-10 10 0 6 5 10 10 10 6 0 10 -4 10 -10z m944 -125 c-9 -14 -18 -25 -21 -25
-5 0 5 18 20 38 17 22 18 13 1 -13z m-789 -11 c9 -15 12 -23 6 -20 -11 7 -35
46 -28 46 3 0 12 -12 22 -26z m953 -26 c22 -29 52 -66 66 -83 44 -49 68 -85
57 -85 -6 0 -11 3 -11 8 0 4 -27 40 -60 80 -70 85 -103 132 -96 132 3 0 23
-24 44 -52z m-1052 -20 c-14 -18 -50 -64 -80 -103 -54 -70 -154 -183 -119
-135 47 65 214 270 219 270 4 0 -5 -15 -20 -32z m164 -48 c6 -11 8 -20 6 -20
-3 0 -10 9 -16 20 -6 11 -8 20 -6 20 3 0 10 -9 16 -20z m-74 -112 l29 -33 -32
29 c-31 28 -38 36 -30 36 2 0 16 -15 33 -32z m459 12 c-16 -4 -46 -8 -65 -7
l-35 0 40 7 c22 4 51 7 65 7 22 1 22 0 -5 -7z m100 -10 c14 -7 8 -8 -20 -3
-22 3 -42 7 -44 9 -9 8 45 2 64 -6z m345 6 c0 -3 -4 -8 -10 -11 -5 -3 -10 -1
-10 4 0 6 5 11 10 11 6 0 10 -2 10 -4z m-595 -16 c-3 -5 -12 -10 -18 -10 -7 0
-6 4 3 10 19 12 23 12 15 0z m505 6 c0 -2 -8 -10 -17 -17 -16 -13 -17 -12 -4
4 13 16 21 21 21 13z m361 -86 c17 -19 77 -96 134 -171 57 -74 113 -143 125
-154 11 -10 20 -22 20 -26 0 -14 -73 71 -160 186 -46 61 -97 126 -115 145 -18
19 -44 53 -60 75 l-27 40 27 -30 c15 -16 40 -46 56 -65z m-912 66 c-2 -2 -15
-9 -29 -15 -24 -11 -24 -11 -6 3 16 13 49 24 35 12z m691 -9 c0 -2 -12 -14
-27 -28 l-28 -24 24 28 c23 25 31 32 31 24z m-1281 -109 c-13 -18 -52 -69 -88
-113 -36 -44 -73 -88 -81 -99 -8 -10 -26 -30 -39 -45 -38 -42 24 44 79 109 25
30 68 83 94 118 49 65 74 86 35 30z m431 -2 c0 -2 -8 -10 -17 -17 -16 -13 -17
-12 -4 4 13 16 21 21 21 13z m455 -329 c155 -236 190 -277 239 -277 45 0 63
-14 47 -34 -27 -32 -105 -11 -155 42 l-29 31 -41 -20 c-36 -17 -38 -18 -20 -2
12 10 30 23 40 29 18 11 18 12 -2 35 -12 13 -40 53 -64 89 -24 36 -45 67 -46
69 -2 2 -20 -9 -39 -24 -20 -15 -38 -25 -41 -22 -2 2 11 15 31 28 19 13 35 28
35 32 0 12 -66 114 -79 121 -6 4 -11 18 -11 32 0 56 36 22 135 -129z m935 -11
c0 -2 -7 -7 -16 -10 -8 -3 -12 -2 -9 4 6 10 25 14 25 6z m-1937 -236 c23 -30
70 -91 106 -135 36 -44 55 -72 43 -61 -11 10 -58 66 -104 125 -45 58 -104 133
-131 166 l-49 60 47 -50 c25 -27 65 -75 88 -105z m1861 98 c-21 -29 -72 -94
-114 -145 -41 -50 -115 -143 -165 -206 -49 -64 -92 -114 -94 -112 -3 3 52 80
69 95 9 9 85 104 100 126 23 34 234 294 238 294 2 0 -13 -24 -34 -52z m-1170
-53 c-26 -30 -50 -55 -52 -55 -6 0 18 29 62 78 48 52 41 37 -10 -23z m556 -15
c-6 -11 -13 -20 -16 -20 -2 0 0 9 6 20 6 11 13 20 16 20 2 0 0 -9 -6 -20z
m-685 -50 c10 -11 16 -20 13 -20 -3 0 -13 9 -23 20 -10 11 -16 20 -13 20 3 0
13 -9 23 -20z m525 -4 c0 -2 -7 -7 -16 -10 -8 -3 -12 -2 -9 4 6 10 25 14 25 6z
m50 -61 c17 -25 29 -45 26 -45 -3 0 -19 20 -36 45 -17 25 -29 45 -26 45 3 0
19 -20 36 -45z m-409 -45 c24 -11 37 -19 29 -19 -15 0 -91 38 -79 39 4 0 26
-9 50 -20z m329 0 c-8 -5 -19 -10 -25 -10 -5 0 -3 5 5 10 8 5 20 10 25 10 6 0
3 -5 -5 -10z m231 -7 c13 -16 12 -17 -3 -4 -17 13 -22 21 -14 21 2 0 10 -8 17
-17z m-801 4 c0 -2 -19 -21 -42 -42 l-43 -40 40 43 c36 39 45 47 45 39z m527
-13 c-3 -3 -12 -4 -19 -1 -8 3 -5 6 6 6 11 1 17 -2 13 -5z m-210 -10 c-3 -3
-12 -4 -19 -1 -8 3 -5 6 6 6 11 1 17 -2 13 -5z m166 -1 c-7 -2 -19 -2 -25 0
-7 3 -2 5 12 5 14 0 19 -2 13 -5z m-55 -10 c-10 -2 -28 -2 -40 0 -13 2 -5 4
17 4 22 1 32 -1 23 -4z m293 -20 c13 -16 12 -17 -3 -4 -10 7 -18 15 -18 17 0
8 8 3 21 -13z m-671 -23 c-6 -11 -13 -20 -16 -20 -2 0 0 9 6 20 6 11 13 20 16
20 2 0 0 -9 -6 -20z m-336 -38 c11 -15 31 -42 44 -59 43 -58 17 -35 -31 27
-26 33 -44 60 -39 60 4 0 16 -13 26 -28z m699 11 c3 -5 -6 -9 -20 -10 -19 -1
-22 1 -12 8 17 11 26 11 32 2z m-423 -48 c-24 -25 -46 -45 -49 -45 -3 0 15 20
39 45 24 25 46 45 49 45 3 0 -15 -20 -39 -45z m950 -105 c0 -5 -5 -10 -11 -10
-5 0 -7 5 -4 10 3 6 8 10 11 10 2 0 4 -4 4 -10z m-30 -20 c0 -5 -4 -10 -10
-10 -5 0 -10 5 -10 10 0 6 5 10 10 10 6 0 10 -4 10 -10z m-30 -30 c0 -5 -4
-10 -10 -10 -5 0 -10 5 -10 10 0 6 5 10 10 10 6 0 10 -4 10 -10z m-30 -20 c0
-5 -4 -10 -10 -10 -5 0 -10 5 -10 10 0 6 5 10 10 10 6 0 10 -4 10 -10z m150
-16 c0 -8 -4 -12 -10 -9 -5 3 -10 10 -10 16 0 5 5 9 10 9 6 0 10 -7 10 -16z
m-185 -4 c3 -5 -1 -10 -10 -10 -9 0 -13 5 -10 10 3 6 8 10 10 10 2 0 7 -4 10
-10z m155 -14 c0 -3 -4 -8 -10 -11 -5 -3 -10 -1 -10 4 0 6 5 11 10 11 6 0 10
-2 10 -4z m-40 -26 c0 -5 -2 -10 -4 -10 -3 0 -8 5 -11 10 -3 6 -1 10 4 10 6 0
11 -4 11 -10z m-30 -20 c0 -5 -4 -10 -10 -10 -5 0 -10 5 -10 10 0 6 5 10 10
10 6 0 10 -4 10 -10z m150 -16 c0 -8 -5 -12 -10 -9 -6 4 -8 11 -5 16 9 14 15
11 15 -7z m-180 -8 c0 -3 -4 -8 -10 -11 -5 -3 -10 -1 -10 4 0 6 5 11 10 11 6
0 10 -2 10 -4z m150 -16 c0 -5 -4 -10 -10 -10 -5 0 -10 5 -10 10 0 6 5 10 10
10 6 0 10 -4 10 -10z m-30 -20 c0 -5 -4 -10 -10 -10 -5 0 -10 5 -10 10 0 6 5
10 10 10 6 0 10 -4 10 -10z m-35 -20 c3 -5 -1 -10 -9 -10 -9 0 -16 5 -16 10 0
6 4 10 9 10 6 0 13 -4 16 -10z m-165 -19 c-5 -11 -40 -57 -77 -103 -38 -46
-94 -118 -126 -160 -32 -42 -76 -96 -99 -120 l-40 -43 31 40 c97 123 250 322
279 360 35 47 50 59 32 26z m130 -1 c0 -5 -4 -10 -10 -10 -5 0 -10 5 -10 10 0
6 5 10 10 10 6 0 10 -4 10 -10z m-816 -104 c33 -43 74 -97 89 -120 15 -22 18
-28 5 -12 -13 16 -37 46 -53 65 -57 67 -139 176 -121 161 10 -8 46 -50 80 -94z
m217 -276 c30 -43 30 -44 2 -13 -38 43 -76 93 -86 112 -13 24 48 -48 84 -99z"/>
<path d="M1156 4985 c4 -9 13 -15 21 -13 23 5 20 23 -4 26 -18 3 -21 0 -17
-13z"/>
<path d="M1110 4905 c0 -10 7 -15 18 -13 21 4 19 22 -2 26 -10 2 -16 -3 -16
-13z"/>
<path d="M1060 4827 c0 -19 10 -27 26 -20 21 8 17 33 -6 33 -11 0 -20 -6 -20
-13z"/>
<path d="M1020 4734 c0 -9 7 -14 17 -12 25 5 28 28 4 28 -12 0 -21 -6 -21 -16z"/>
<path d="M980 4655 c0 -8 7 -15 15 -15 8 0 15 7 15 15 0 8 -7 15 -15 15 -8 0
-15 -7 -15 -15z"/>
<path d="M940 4565 c0 -8 7 -15 15 -15 8 0 15 7 15 15 0 8 -7 15 -15 15 -8 0
-15 -7 -15 -15z"/>
<path d="M902 4483 c4 -21 33 -25 33 -3 0 8 -8 16 -18 18 -14 3 -18 -1 -15
-15z"/>
<path d="M872 4393 c4 -21 33 -25 33 -3 0 8 -8 16 -18 18 -14 3 -18 -1 -15
-15z"/>
<path d="M845 4310 c-8 -14 3 -30 21 -30 8 0 14 9 14 20 0 21 -24 28 -35 10z"/>
<path d="M5025 4237 c-4 -10 -5 -21 -1 -24 10 -10 18 4 13 24 -4 17 -4 17 -12
0z"/>
<path d="M1901 4224 c0 -11 3 -14 6 -6 3 7 2 16 -1 19 -3 4 -6 -2 -5 -13z"/>
<path d="M847 4223 c-4 -3 -7 -12 -7 -20 0 -15 26 -18 34 -4 7 11 -18 33 -27
24z"/>
<path d="M4980 4222 c0 -12 19 -26 26 -19 2 2 -2 10 -11 17 -9 8 -15 8 -15 2z"/>
<path d="M1855 4210 c3 -5 11 -10 16 -10 6 0 7 5 4 10 -3 6 -11 10 -16 10 -6
0 -7 -4 -4 -10z"/>
<path d="M1928 4203 c-10 -9 -33 -16 -57 -16 -23 0 -41 -4 -41 -8 0 -5 7 -9
15 -9 8 0 15 -4 15 -10 0 -5 -7 -10 -15 -10 -8 0 -15 -5 -15 -11 0 -7 9 -9 21
-6 12 3 29 1 39 -6 21 -12 50 5 50 29 0 8 7 14 15 14 8 0 15 5 15 11 0 6 -9 8
-22 3 -20 -6 -21 -5 -9 10 18 22 9 30 -11 9z"/>
<path d="M5048 4209 c-2 -5 -23 -13 -47 -16 -34 -5 -40 -8 -26 -15 15 -9 15
-11 -2 -25 -17 -14 -17 -14 5 -10 12 3 22 1 22 -4 0 -5 14 -9 30 -9 17 0 30 5
30 11 0 6 9 8 23 4 21 -6 21 -5 4 9 -18 14 -18 15 0 25 17 10 17 10 -1 11 -12
0 -16 5 -12 15 3 9 0 15 -8 15 -8 0 -16 -5 -18 -11z"/>
<path d="M1950 4140 c0 -5 5 -10 10 -10 6 0 10 5 10 10 0 6 -4 10 -10 10 -5 0
-10 -4 -10 -10z"/>
<path d="M842 4114 c4 -21 22 -23 26 -1 2 10 -3 17 -13 17 -10 0 -15 -6 -13
-16z"/>
<path d="M4980 4120 c0 -5 5 -10 10 -10 6 0 10 5 10 10 0 6 -4 10 -10 10 -5 0
-10 -4 -10 -10z"/>
<path d="M5060 4120 c0 -5 5 -10 10 -10 6 0 10 5 10 10 0 6 -4 10 -10 10 -5 0
-10 -4 -10 -10z"/>
<path d="M1850 4110 c0 -5 4 -10 9 -10 6 0 13 5 16 10 3 6 -1 10 -9 10 -9 0
-16 -4 -16 -10z"/>
<path d="M1930 4110 c0 -5 5 -10 10 -10 6 0 10 5 10 10 0 6 -4 10 -10 10 -5 0
-10 -4 -10 -10z"/>
<path d="M5020 4110 c0 -5 5 -10 10 -10 6 0 10 5 10 10 0 6 -4 10 -10 10 -5 0
-10 -4 -10 -10z"/>
<path d="M5082 4082 c2 -4 102 -130 223 -281 121 -151 252 -315 291 -365 74
-94 157 -187 133 -150 -14 21 -54 72 -329 414 -82 102 -185 231 -230 288 -73
90 -99 119 -88 94z"/>
<path d="M1757 3968 c-48 -62 -125 -161 -172 -220 -47 -60 -122 -155 -167
-212 -46 -57 -114 -143 -152 -191 -37 -47 -66 -88 -64 -90 3 -3 76 85 263 323
291 368 393 502 382 502 -2 0 -43 -51 -90 -112z"/>
<path d="M850 4015 c0 -8 7 -15 15 -15 8 0 15 7 15 15 0 8 -7 15 -15 15 -8 0
-15 -7 -15 -15z"/>
<path d="M867 3934 c-9 -10 2 -24 19 -24 8 0 14 7 14 15 0 15 -21 21 -33 9z"/>
<path d="M890 3836 c0 -9 7 -16 16 -16 9 0 14 5 12 12 -6 18 -28 21 -28 4z"/>
<path d="M930 3746 c0 -9 7 -16 16 -16 9 0 14 5 12 12 -6 18 -28 21 -28 4z"/>
<path d="M980 3670 c-12 -7 -12 -12 -3 -21 10 -10 14 -9 19 5 8 22 2 27 -16
16z"/>
<path d="M1020 3585 c0 -8 7 -15 15 -15 8 0 15 7 15 15 0 8 -7 15 -15 15 -8 0
-15 -7 -15 -15z"/>
<path d="M1084 3519 c-10 -17 13 -36 27 -22 12 12 4 33 -11 33 -5 0 -12 -5
-16 -11z"/>
<path d="M1162 3451 c4 -13 18 -16 19 -4 0 4 -5 9 -11 12 -7 2 -11 -2 -8 -8z"/>
<path d="M1237 3403 c-12 -11 -8 -23 8 -23 8 0 15 7 15 15 0 16 -12 20 -23 8z"/>
<path d="M4446 3363 c-12 -12 -5 -23 14 -23 11 0 20 4 20 9 0 11 -26 22 -34
14z"/>
<path d="M4537 3364 c-9 -10 2 -24 19 -24 8 0 14 7 14 15 0 15 -21 21 -33 9z"/>
<path d="M4630 3355 c0 -8 9 -15 20 -15 11 0 20 7 20 15 0 8 -9 15 -20 15 -11
0 -20 -7 -20 -15z"/>
<path d="M4730 3355 c0 -8 7 -15 15 -15 8 0 15 7 15 15 0 8 -7 15 -15 15 -8 0
-15 -7 -15 -15z"/>
<path d="M1310 3341 c0 -12 6 -21 16 -21 9 0 14 7 12 17 -5 25 -28 28 -28 4z"/>
<path d="M4820 3346 c0 -8 4 -17 9 -20 11 -7 33 18 24 27 -12 12 -33 7 -33 -7z"/>
<path d="M4920 3325 c0 -8 7 -15 15 -15 8 0 15 7 15 15 0 8 -7 15 -15 15 -8 0
-15 -7 -15 -15z"/>
<path d="M5015 3320 c-7 -12 2 -30 16 -30 12 0 12 27 0 35 -5 3 -12 1 -16 -5z"/>
<path d="M1390 3295 c0 -8 7 -15 15 -15 8 0 15 7 15 15 0 8 -7 15 -15 15 -8 0
-15 -7 -15 -15z"/>
<path d="M5110 3285 c0 -8 7 -15 15 -15 8 0 15 7 15 15 0 8 -7 15 -15 15 -8 0
-15 -7 -15 -15z"/>
<path d="M1480 3265 c0 -8 7 -15 15 -15 8 0 15 7 15 15 0 8 -7 15 -15 15 -8 0
-15 -7 -15 -15z"/>
<path d="M5200 3254 c0 -17 22 -14 28 4 2 7 -3 12 -12 12 -9 0 -16 -7 -16 -16z"/>
<path d="M5807 3263 c-5 -7 -5 -18 -2 -23 3 -6 0 -13 -9 -16 -20 -8 -28 -34
-15 -50 15 -18 43 -18 59 1 10 12 9 19 -3 38 -8 12 -16 32 -19 42 -2 14 -6 16
-11 8z"/>
<path d="M1572 3238 c6 -18 28 -21 28 -4 0 9 -7 16 -16 16 -9 0 -14 -5 -12
-12z"/>
<path d="M5760 3240 c0 -5 5 -10 10 -10 6 0 10 5 10 10 0 6 -4 10 -10 10 -5 0
-10 -4 -10 -10z"/>
<path d="M5847 3243 c-4 -3 -7 -11 -7 -17 0 -6 5 -5 12 2 6 6 9 14 7 17 -3 3
-9 2 -12 -2z"/>
<path d="M2512 3228 c6 -18 28 -21 28 -4 0 9 -7 16 -16 16 -9 0 -14 -5 -12
-12z"/>
<path d="M5290 3225 c0 -8 5 -15 10 -15 6 0 10 7 10 15 0 8 -4 15 -10 15 -5 0
-10 -7 -10 -15z"/>
<path d="M1145 3220 c-3 -5 1 -10 9 -10 9 0 16 5 16 10 0 6 -4 10 -9 10 -6 0
-13 -4 -16 -10z"/>
<path d="M1667 3224 c-8 -8 1 -24 14 -24 5 0 9 7 9 15 0 15 -12 20 -23 9z"/>
<path d="M1762 3211 c4 -13 18 -16 19 -4 0 4 -5 9 -11 12 -7 2 -11 -2 -8 -8z"/>
<path d="M2324 3209 c-8 -14 11 -33 25 -25 6 4 11 11 11 16 0 13 -29 20 -36 9z"/>
<path d="M2413 3208 c2 -7 10 -13 17 -13 7 0 15 6 18 13 2 7 -5 12 -18 12 -13
0 -20 -5 -17 -12z"/>
<path d="M5740 3210 c0 -5 7 -10 16 -10 8 0 12 5 9 10 -3 6 -10 10 -16 10 -5
0 -9 -4 -9 -10z"/>
<path d="M5860 3210 c0 -5 4 -10 9 -10 6 0 13 5 16 10 3 6 -1 10 -9 10 -9 0
-16 -4 -16 -10z"/>
<path d="M2224 3199 c-8 -14 11 -33 25 -25 6 4 11 14 11 22 0 16 -26 19 -36 3z"/>
<path d="M1160 3190 c0 -5 4 -10 9 -10 6 0 13 5 16 10 3 6 -1 10 -9 10 -9 0
-16 -4 -16 -10z"/>
<path d="M1855 3190 c3 -5 10 -10 16 -10 5 0 9 5 9 10 0 6 -7 10 -16 10 -8 0
-12 -4 -9 -10z"/>
<path d="M1950 3185 c0 -8 5 -15 10 -15 6 0 10 7 10 15 0 8 -4 15 -10 15 -5 0
-10 -7 -10 -15z"/>
<path d="M2042 3188 c6 -18 28 -21 28 -4 0 9 -7 16 -16 16 -9 0 -14 -5 -12
-12z"/>
<path d="M2140 3185 c0 -8 7 -15 15 -15 8 0 15 7 15 15 0 8 -7 15 -15 15 -8 0
-15 -7 -15 -15z"/>
<path d="M5375 3190 c-8 -13 4 -32 16 -25 12 8 12 35 0 35 -6 0 -13 -4 -16
-10z"/>
<path d="M5860 3170 c0 -5 5 -10 10 -10 6 0 10 5 10 10 0 6 -4 10 -10 10 -5 0
-10 -4 -10 -10z"/>
<path d="M1165 3150 c3 -5 10 -10 16 -10 5 0 9 5 9 10 0 6 -7 10 -16 10 -8 0
-12 -4 -9 -10z"/>
<path d="M5460 3130 c0 -5 5 -10 10 -10 6 0 10 5 10 10 0 6 -4 10 -10 10 -5 0
-10 -4 -10 -10z"/>
<path d="M1110 3110 c0 -5 5 -10 10 -10 6 0 10 5 10 10 0 6 -4 10 -10 10 -5 0
-10 -4 -10 -10z"/>
<path d="M5690 3059 c-23 -34 -66 -89 -94 -123 -45 -53 -161 -200 -306 -387
-66 -85 -139 -179 -173 -221 -17 -21 -28 -40 -25 -43 3 -3 28 26 57 65 29 38
76 99 104 134 29 35 102 128 162 206 61 78 145 185 189 238 89 111 140 181
134 188 -3 2 -24 -23 -48 -57z"/>
<path d="M1028 3044 c-24 -31 -89 -115 -146 -186 -56 -72 -100 -133 -97 -136
3 -3 6 -3 8 -1 12 15 210 272 245 318 23 30 42 57 42 58 0 11 -14 -4 -52 -53z"/>
<path d="M1207 3077 c10 -13 37 -45 60 -72 23 -28 106 -131 184 -230 136 -172
175 -221 333 -419 63 -80 76 -93 76 -82 0 3 -56 75 -124 160 -69 85 -148 185
-176 223 -29 37 -64 82 -79 98 -34 39 -70 84 -101 125 -61 81 -108 140 -142
179 -40 44 -62 57 -31 18z"/>
<path d="M5540 3080 c0 -5 5 -10 10 -10 6 0 10 5 10 10 0 6 -4 10 -10 10 -5 0
-10 -4 -10 -10z"/>
<path d="M5622 3031 c4 -13 18 -16 19 -4 0 4 -5 9 -11 12 -7 2 -11 -2 -8 -8z"/>
<path d="M5700 2970 c0 -5 5 -10 11 -10 5 0 7 5 4 10 -3 6 -8 10 -11 10 -2 0
-4 -4 -4 -10z"/>
<path d="M5770 2905 c0 -9 5 -15 11 -13 6 2 11 8 11 13 0 5 -5 11 -11 13 -6 2
-11 -4 -11 -13z"/>
<path d="M5830 2835 c0 -8 7 -15 15 -15 8 0 15 7 15 15 0 8 -7 15 -15 15 -8 0
-15 -7 -15 -15z"/>
<path d="M896 2774 c-4 -14 -5 -29 -2 -31 3 -3 8 7 12 21 3 15 4 29 1 32 -2 3
-8 -7 -11 -22z"/>
<path d="M2785 2781 c-4 -14 -22 -21 -75 -30 -38 -6 -84 -11 -103 -11 -42 0
-117 -32 -143 -61 -10 -12 -32 -28 -49 -35 l-30 -13 33 -1 c19 0 40 8 52 20
24 24 27 14 3 -12 -9 -10 -13 -21 -9 -25 3 -4 28 14 54 40 26 26 52 47 57 47
5 0 -15 -25 -45 -55 -46 -47 -60 -55 -91 -55 -28 0 -41 -6 -59 -30 -12 -16
-39 -34 -59 -41 -61 -20 -62 -32 -1 -25 39 5 63 15 82 33 45 42 40 22 -5 -27
-38 -40 -48 -46 -96 -50 -52 -5 -54 -6 -68 -44 -7 -22 -10 -42 -7 -45 4 -3 9
0 12 8 9 26 38 47 62 46 25 -1 30 -6 30 -25 0 -5 -30 -24 -67 -41 -38 -17 -63
-33 -57 -35 10 -4 142 20 148 27 2 2 16 28 30 57 15 30 30 52 32 49 3 -3 -2
-19 -11 -37 -9 -17 -15 -36 -13 -42 5 -13 74 99 83 135 4 14 38 57 77 94 73
72 108 93 108 68 0 -8 -8 -15 -18 -15 -10 0 -40 -22 -67 -50 -56 -56 -49 -65
14 -19 24 17 46 28 49 24 10 -10 -36 -42 -94 -65 -41 -17 -53 -27 -57 -48 -3
-15 -9 -36 -13 -47 -6 -18 -4 -17 19 4 15 14 27 30 27 38 0 7 5 13 10 13 16 0
11 -12 -28 -69 -30 -44 -53 -64 -122 -102 -47 -26 -95 -48 -107 -48 -13 -1
-23 -5 -23 -11 0 -12 57 -13 64 -1 4 5 25 16 49 24 23 8 50 18 60 22 26 11 21
-10 -13 -49 -26 -29 -41 -36 -99 -46 -57 -9 -72 -16 -90 -41 -23 -31 -13 -40
14 -13 20 20 102 33 90 15 -4 -7 -37 -27 -74 -43 -36 -17 -61 -33 -54 -35 7
-2 20 0 30 5 10 6 39 13 65 17 26 4 53 12 61 19 35 29 117 136 142 184 14 30
29 51 32 48 3 -3 1 -11 -4 -18 -12 -16 -24 -48 -18 -48 2 0 16 17 30 37 33 50
32 30 -3 -27 -60 -102 -115 -180 -125 -180 -13 0 -77 -43 -77 -52 0 -3 9 -4
20 -1 19 5 20 0 20 -81 0 -47 4 -86 9 -86 10 0 15 22 26 105 5 34 18 65 41 96
19 26 34 51 34 56 0 5 7 18 16 29 15 18 15 18 9 -11 -4 -16 -17 -44 -31 -62
-29 -39 -31 -53 -4 -28 32 29 93 134 86 150 -3 8 0 17 6 21 5 4 21 32 35 63
14 32 46 77 75 106 l51 50 -28 -45 c-15 -25 -38 -56 -50 -70 -29 -32 -45 -64
-45 -87 0 -24 -73 -148 -111 -188 -26 -28 -29 -38 -29 -98 0 -80 15 -89 24
-14 8 59 33 107 46 87 9 -14 81 117 107 195 15 44 18 47 23 25 5 -21 11 -12
38 55 51 126 104 200 67 94 -22 -64 -156 -325 -180 -351 -31 -34 -67 -88 -59
-88 21 0 105 78 120 111 21 48 30 49 31 7 0 -18 3 -42 7 -53 7 -20 -16 -39
-79 -69 -18 -8 -18 -10 -3 -13 9 -2 26 1 37 6 11 6 22 11 24 11 3 0 2 -29 -1
-65 -5 -74 12 -92 23 -22 4 23 16 62 27 86 18 37 19 49 10 74 -12 32 -5 184
10 193 4 3 8 -6 8 -20 0 -16 6 -26 15 -26 19 0 19 17 0 54 -13 25 -13 31 -1
45 7 9 21 30 30 46 l17 30 -6 -39 c-6 -37 -5 -39 11 -25 15 12 17 12 9 0 -4
-8 -12 -31 -16 -50 -4 -20 -19 -79 -33 -131 -14 -52 -26 -103 -26 -112 0 -37
17 -16 35 40 9 31 28 80 41 107 l24 50 -5 -40 -6 -40 20 20 c17 17 22 38 27
105 3 47 12 114 21 150 17 70 13 183 -7 220 -9 17 -8 26 4 45 9 14 16 27 16
30 0 8 -92 65 -106 65 -7 0 -15 -8 -19 -19z m-71 -168 c-12 -51 -45 -104 -100
-164 l-54 -59 0 31 c0 24 12 42 59 87 32 31 62 68 66 82 7 24 23 50 31 50 3 0
1 -12 -2 -27z m50 -48 c-9 -14 -19 -24 -21 -21 -6 6 20 46 30 46 4 0 0 -11 -9
-25z m101 -62 c-6 -51 -17 -83 -26 -77 -13 8 -11 78 3 92 19 19 27 14 23 -15z"/>
<path d="M5890 2755 c0 -8 7 -15 15 -15 8 0 15 7 15 15 0 8 -7 15 -15 15 -8 0
-15 -7 -15 -15z"/>
<path d="M876 2709 c-2 -8 -16 -48 -30 -91 -29 -86 -32 -101 -13 -73 17 25 60
165 53 172 -3 3 -7 0 -10 -8z"/>
<path d="M5940 2675 c0 -8 7 -15 15 -15 8 0 15 7 15 15 0 8 -7 15 -15 15 -8 0
-15 -7 -15 -15z"/>
<path d="M5977 2603 c-4 -3 -7 -12 -7 -20 0 -15 26 -18 34 -4 7 11 -18 33 -27
24z"/>
<path d="M807 2513 c-4 -3 -7 -13 -7 -22 1 -13 3 -13 11 2 11 19 8 33 -4 20z"/>
<path d="M5983 2488 c2 -7 10 -13 17 -13 7 0 15 6 18 13 2 7 -5 12 -18 12 -13
0 -20 -5 -17 -12z"/>
<path d="M5970 2395 c0 -8 9 -15 20 -15 11 0 20 7 20 15 0 8 -9 15 -20 15 -11
0 -20 -7 -20 -15z"/>
<path d="M970 2380 c0 -5 5 -10 11 -10 5 0 7 5 4 10 -3 6 -8 10 -11 10 -2 0
-4 -4 -4 -10z"/>
<path d="M5940 2304 c0 -9 7 -14 17 -12 25 5 28 28 4 28 -12 0 -21 -6 -21 -16z"/>
<path d="M5030 2256 c0 -27 -25 -40 -56 -30 -18 5 -18 5 0 -10 20 -16 20 -16
0 -32 -18 -15 -18 -15 5 -10 13 3 33 0 43 -5 37 -20 66 33 34 60 -8 7 -12 21
-9 31 3 11 0 20 -6 20 -6 0 -11 -11 -11 -24z"/>
<path d="M1905 2257 c-4 -10 -5 -21 -1 -24 10 -10 18 4 13 24 -4 17 -4 17 -12
0z"/>
<path d="M4990 2250 c0 -5 5 -10 11 -10 5 0 7 5 4 10 -3 6 -8 10 -11 10 -2 0
-4 -4 -4 -10z"/>
<path d="M5067 2253 c-12 -12 -7 -22 8 -17 8 4 15 10 15 15 0 11 -14 12 -23 2z"/>
<path d="M1860 2244 c0 -6 6 -16 13 -23 10 -11 8 -12 -10 -6 -27 8 -31 -9 -5
-24 16 -10 16 -10 0 -11 -27 0 -22 -20 5 -20 17 0 19 -2 7 -10 -8 -5 -11 -12
-7 -16 4 -4 13 -2 19 4 17 17 38 15 60 -5 10 -9 18 -11 18 -5 0 6 -4 14 -10
17 -5 3 -10 11 -10 17 0 7 5 6 14 -1 10 -8 16 -9 21 -1 3 5 -1 13 -10 16 -14
6 -14 8 2 21 17 14 17 14 -4 10 -13 -3 -23 -1 -23 4 0 5 5 9 10 9 6 0 10 7 10
17 0 15 -1 15 -18 0 -10 -10 -25 -17 -32 -17 -7 0 -22 7 -32 17 -10 9 -18 12
-18 7z"/>
<path d="M5890 2225 c0 -8 7 -15 15 -15 8 0 15 7 15 15 0 8 -7 15 -15 15 -8 0
-15 -7 -15 -15z"/>
<path d="M5080 2220 c0 -5 7 -10 15 -10 8 0 15 5 15 10 0 6 -7 10 -15 10 -8 0
-15 -4 -15 -10z"/>
<path d="M5080 2180 c0 -5 7 -10 15 -10 8 0 15 5 15 10 0 6 -7 10 -15 10 -8 0
-15 -4 -15 -10z"/>
<path d="M4997 2163 c-4 -3 -7 -11 -7 -17 0 -6 5 -5 12 2 6 6 9 14 7 17 -3 3
-9 2 -12 -2z"/>
<path d="M5060 2162 c0 -12 19 -26 26 -19 2 2 -2 10 -11 17 -9 8 -15 8 -15 2z"/>
<path d="M5820 2155 c0 -10 7 -15 18 -13 21 4 19 22 -2 26 -10 2 -16 -3 -16
-13z"/>
<path d="M1905 2120 c3 -5 8 -10 11 -10 2 0 4 5 4 10 0 6 -5 10 -11 10 -5 0
-7 -4 -4 -10z"/>
<path d="M4944 2113 c-6 -10 -49 -66 -95 -124 -46 -58 -94 -119 -106 -135 -62
-82 -85 -112 -163 -209 -212 -265 -270 -341 -269 -350 0 -5 8 1 17 15 9 13 40
52 67 85 28 33 66 80 85 105 123 163 254 319 271 323 12 3 17 11 13 20 -3 9
26 54 78 118 102 127 132 169 121 169 -4 0 -13 -8 -19 -17z"/>
<path d="M5090 2122 c0 -5 34 -50 75 -98 41 -49 75 -92 75 -95 0 -4 -9 -9 -21
-12 -12 -3 -18 -10 -14 -16 10 -17 35 -13 35 7 1 21 13 7 174 -193 31 -38 80
-99 109 -135 29 -36 81 -101 114 -145 33 -44 73 -91 88 -105 30 -26 -19 37
-241 315 -316 395 -394 490 -394 477z"/>
<path d="M1820 2074 c-19 -25 -78 -99 -130 -164 -52 -65 -138 -173 -190 -240
-111 -142 -223 -283 -230 -290 -10 -10 -57 -75 -64 -90 -13 -25 35 31 134 159
118 152 183 234 226 286 18 22 45 57 61 77 15 21 74 97 131 169 57 72 102 132
100 134 -2 2 -19 -16 -38 -41z"/>
<path d="M1980 2117 c0 -6 235 -304 448 -567 42 -52 106 -132 140 -178 35 -46
66 -81 69 -78 3 2 -9 22 -26 43 -17 21 -90 112 -162 203 -71 91 -161 203 -199
250 -37 47 -107 135 -155 195 -95 120 -115 143 -115 132z"/>
<path d="M5743 2098 c2 -7 10 -13 17 -13 7 0 15 6 18 13 2 7 -5 12 -18 12 -13
0 -20 -5 -17 -12z"/>
<path d="M5667 2054 c-9 -10 2 -24 19 -24 8 0 14 7 14 15 0 15 -21 21 -33 9z"/>
<path d="M5582 2003 c5 -25 28 -28 28 -4 0 12 -6 21 -16 21 -9 0 -14 -7 -12
-17z"/>
<path d="M5490 1965 c0 -8 7 -15 15 -15 8 0 15 7 15 15 0 8 -7 15 -15 15 -8 0
-15 -7 -15 -15z"/>
<path d="M5400 1935 c0 -8 7 -15 15 -15 8 0 15 7 15 15 0 8 -7 15 -15 15 -8 0
-15 -7 -15 -15z"/>
<path d="M5304 1929 c-10 -17 13 -36 27 -22 12 12 4 33 -11 33 -5 0 -12 -5
-16 -11z"/>
<path d="M5112 1888 c5 -15 28 -18 29 -3 0 6 -7 12 -17 13 -10 3 -15 -1 -12
-10z"/>
<path d="M5012 1878 c7 -19 38 -22 38 -4 0 10 -9 16 -21 16 -12 0 -19 -5 -17
-12z"/>
<path d="M4920 1855 c0 -8 7 -15 15 -15 8 0 15 7 15 15 0 8 -7 15 -15 15 -8 0
-15 -7 -15 -15z"/>
<path d="M4823 1848 c2 -7 10 -13 17 -13 7 0 15 6 18 13 2 7 -5 12 -18 12 -13
0 -20 -5 -17 -12z"/>
<path d="M4636 1815 c4 -8 12 -15 20 -15 8 0 14 7 14 15 0 8 -9 15 -20 15 -13
0 -18 -5 -14 -15z"/>
<path d="M4542 1808 c7 -19 38 -22 38 -4 0 10 -9 16 -21 16 -12 0 -19 -5 -17
-12z"/>
<path d="M4453 1795 c-3 -9 -3 -19 1 -22 8 -9 37 18 30 28 -8 14 -24 11 -31
-6z"/>
<path d="M4356 1783 c-12 -12 -5 -23 14 -23 11 0 20 4 20 9 0 11 -26 22 -34
14z"/>
<path d="M4260 1755 c0 -10 7 -15 18 -13 21 4 19 22 -2 26 -10 2 -16 -3 -16
-13z"/>
<path d="M4167 1744 c-9 -10 2 -24 19 -24 8 0 14 7 14 15 0 15 -21 21 -33 9z"/>
<path d="M4070 1715 c0 -8 9 -15 20 -15 11 0 20 7 20 15 0 8 -9 15 -20 15 -11
0 -20 -7 -20 -15z"/>
<path d="M3982 1694 c4 -21 22 -23 26 -1 2 10 -3 17 -13 17 -10 0 -15 -6 -13
-16z"/>
<path d="M3792 1638 c7 -19 38 -22 38 -4 0 10 -9 16 -21 16 -12 0 -19 -5 -17
-12z"/>
<path d="M3704 1609 c-8 -14 11 -33 25 -25 6 4 11 14 11 22 0 16 -26 19 -36 3z"/>
<path d="M3612 1568 c3 -7 13 -15 22 -16 12 -3 17 1 14 10 -3 7 -13 15 -22 16
-12 3 -17 -1 -14 -10z"/>
<path d="M3534 1529 c-10 -17 13 -36 27 -22 12 12 4 33 -11 33 -5 0 -12 -5
-16 -11z"/>
<path d="M3454 1479 c-10 -17 13 -36 27 -22 12 12 4 33 -11 33 -5 0 -12 -5
-16 -11z"/>
<path d="M3375 1421 c-8 -15 3 -31 21 -31 9 0 14 7 12 17 -4 20 -24 28 -33 14z"/>
<path d="M3304 1349 c-7 -12 15 -31 28 -23 4 3 8 12 8 20 0 17 -26 19 -36 3z"/>
<path d="M5810 1290 c0 -30 -23 -50 -50 -43 -16 4 -21 3 -16 -5 4 -7 15 -12
24 -12 16 -1 16 -2 0 -14 -26 -19 -23 -21 27 -24 47 -2 67 14 58 48 -3 10 0
21 6 24 6 4 11 12 11 18 0 6 -8 4 -18 -5 -24 -22 -31 -21 -25 2 3 10 0 22 -6
25 -7 4 -11 -1 -11 -14z"/>
<path d="M2685 1262 c-7 -22 -9 -22 -26 -6 -21 19 -26 6 -6 -15 10 -11 8 -13
-10 -8 -26 6 -32 -10 -8 -19 14 -6 13 -8 -2 -21 -17 -14 -17 -14 5 -10 12 3
22 1 22 -4 0 -5 10 -9 23 -9 13 0 28 -5 35 -12 6 -6 15 -8 19 -3 5 4 2 10 -4
12 -21 8 -15 22 7 16 11 -3 20 -1 20 5 0 6 -8 13 -17 15 -15 4 -15 6 5 12 12
4 22 11 22 16 0 13 -24 11 -38 -3 -9 -9 -12 -9 -12 -1 0 7 5 15 10 18 6 3 10
11 10 17 0 6 -9 3 -19 -6 -19 -17 -20 -17 -24 6 l-4 23 -8 -23z"/>
<path d="M3262 1264 c4 -21 22 -23 26 -1 2 10 -3 17 -13 17 -10 0 -15 -6 -13
-16z"/>
<path d="M4285 1268 c-4 -10 -18 -18 -30 -18 -13 0 -27 -5 -30 -10 -4 -6 -16
-8 -28 -5 -20 6 -21 5 -4 -8 21 -17 22 -27 2 -27 -8 0 -15 -3 -15 -7 0 -5 21
-9 46 -10 26 -1 51 -7 55 -15 4 -7 11 -9 16 -5 4 5 3 11 -3 15 -12 9 -13 65
-1 73 5 4 7 13 4 20 -3 11 -6 10 -12 -3z"/>
<path d="M5770 1270 c0 -5 5 -10 10 -10 6 0 10 5 10 10 0 6 -4 10 -10 10 -5 0
-10 -4 -10 -10z"/>
<path d="M4210 1260 c0 -5 5 -10 10 -10 6 0 10 5 10 10 0 6 -4 10 -10 10 -5 0
-10 -4 -10 -10z"/>
<path d="M1080 1250 c0 -5 5 -10 10 -10 6 0 10 -5 10 -10 0 -6 -11 -8 -25 -4
-31 8 -33 -11 -2 -21 l22 -8 -22 -4 c-13 -2 -23 -9 -23 -15 0 -6 11 -8 28 -3
22 5 25 4 15 -6 -7 -7 -13 -17 -13 -23 0 -6 5 -5 12 2 7 7 21 12 33 12 12 0
26 -5 33 -12 16 -16 16 4 0 21 -11 11 -9 12 10 6 12 -3 22 -2 22 4 0 5 -8 12
-17 14 -15 4 -15 6 5 12 30 10 28 29 -2 21 -14 -3 -28 -2 -31 4 -3 5 -15 10
-26 10 -10 0 -19 5 -19 10 0 6 -4 10 -10 10 -5 0 -10 -4 -10 -10z"/>
<path d="M1157 1253 c-4 -3 -7 -11 -7 -17 0 -6 5 -5 12 2 6 6 9 14 7 17 -3 3
-9 2 -12 -2z"/>
<path d="M5860 1240 c0 -5 7 -10 15 -10 8 0 15 5 15 10 0 6 -7 10 -15 10 -8 0
-15 -4 -15 -10z"/>
<path d="M4305 1230 c4 -6 11 -8 16 -5 14 9 11 15 -7 15 -8 0 -12 -5 -9 -10z"/>
<path d="M4300 1200 c0 -5 7 -10 16 -10 8 0 12 5 9 10 -3 6 -10 10 -16 10 -5
0 -9 -4 -9 -10z"/>
<path d="M5865 1200 c3 -5 10 -10 16 -10 5 0 9 5 9 10 0 6 -7 10 -16 10 -8 0
-12 -4 -9 -10z"/>
<path d="M3225 1181 c-7 -12 12 -24 25 -16 11 7 4 25 -10 25 -5 0 -11 -4 -15
-9z"/>
<path d="M5770 1180 c0 -5 5 -10 10 -10 6 0 10 5 10 10 0 6 -4 10 -10 10 -5 0
-10 -4 -10 -10z"/>
<path d="M4205 1169 c-11 -17 1 -21 15 -4 8 9 8 15 2 15 -6 0 -14 -5 -17 -11z"/>
<path d="M2645 1160 c-3 -5 -1 -10 4 -10 6 0 11 5 11 10 0 6 -2 10 -4 10 -3 0
-8 -4 -11 -10z"/>
<path d="M4245 1161 c-3 -5 -1 -12 5 -16 5 -3 10 1 10 9 0 18 -6 21 -15 7z"/>
<path d="M2680 1150 c0 -5 5 -10 10 -10 6 0 10 5 10 10 0 6 -4 10 -10 10 -5 0
-10 -4 -10 -10z"/>
<path d="M1042 1088 c-17 -23 -30 -44 -27 -46 3 -3 6 -3 8 -1 1 2 17 23 35 47
18 23 29 42 25 42 -5 0 -23 -19 -41 -42z"/>
<path d="M3210 1075 c0 -8 7 -15 15 -15 8 0 15 7 15 15 0 8 -7 15 -15 15 -8 0
-15 -7 -15 -15z"/>
<path d="M701 2396 c-10 -12 -8 -17 8 -25 28 -16 33 -14 29 11 -4 27 -21 33
-37 14z"/>
<path d="M3227 993 c-13 -12 -7 -33 8 -33 8 0 15 9 15 20 0 20 -11 26 -23 13z"/>
<path d="M3244 895 c-4 -10 -1 -21 6 -25 11 -7 10 -12 -3 -25 -27 -26 -22 -80
9 -104 15 -12 35 -21 45 -21 27 0 79 49 79 75 0 31 -47 75 -80 75 -20 0 -27 5
-26 16 2 23 -22 30 -30 9z m66 -55 c44 -24 50 -90 8 -90 -30 0 -58 29 -58 60
0 41 14 49 50 30z"/>
<path d="M3284 799 c-10 -17 13 -36 27 -22 12 12 4 33 -11 33 -5 0 -12 -5 -16
-11z"/>
<path d="M4253 872 c-6 -4 -14 -24 -18 -45 -4 -20 -11 -37 -16 -37 -5 0 -9 4
-9 9 0 5 -5 22 -11 38 -8 22 -12 24 -19 13 -6 -8 -10 -25 -10 -37 0 -38 -18
-26 -25 17 -5 30 -11 40 -25 40 -16 0 -17 -4 -10 -27 5 -16 15 -48 22 -73 17
-54 29 -57 45 -10 l11 35 12 -32 c19 -52 35 -40 54 38 18 74 18 82 -1 71z"/>
<path d="M4409 873 c-11 -3 -14 -12 -11 -34 4 -28 2 -30 -19 -27 -18 2 -25 10
-27 31 -2 15 -9 27 -18 27 -11 0 -14 -16 -14 -70 0 -61 2 -70 18 -70 15 0 18
6 14 30 -4 27 -1 30 22 30 22 0 26 -4 26 -30 0 -20 5 -30 15 -30 12 0 15 15
15 75 0 41 -1 74 -2 74 -2 -1 -10 -3 -19 -6z"/>
<path d="M4490 806 c0 -70 2 -76 21 -76 19 0 20 4 16 73 -3 56 -8 73 -21 75
-14 3 -16 -8 -16 -72z"/>
<path d="M4596 868 c-24 -14 -20 -54 9 -76 30 -24 33 -46 5 -39 -13 3 -20 0
-20 -9 0 -17 41 -19 58 -2 19 19 14 45 -13 66 -30 24 -32 42 -5 42 11 0 20 4
20 9 0 13 -35 20 -54 9z"/>
<path d="M4714 843 c3 -21 6 -55 6 -75 0 -27 4 -38 15 -38 10 0 15 10 15 28 0
21 7 32 25 40 48 22 16 82 -44 82 -22 0 -23 -3 -17 -37z m56 -13 c0 -11 -4
-20 -9 -20 -5 0 -11 9 -14 20 -3 13 0 20 9 20 8 0 14 -9 14 -20z"/>
<path d="M2233 840 c-21 -36 -37 -39 -31 -5 4 19 1 25 -13 25 -16 0 -18 -8
-17 -70 2 -59 5 -70 20 -70 14 0 17 7 14 30 -2 17 0 30 5 30 5 0 15 -13 24
-30 9 -18 23 -30 35 -30 19 0 19 2 -6 41 l-26 42 21 28 c25 33 26 39 7 39 -8
0 -23 -13 -33 -30z"/>
<path d="M2330 795 l0 -75 40 0 c27 0 40 4 40 13 0 8 -10 13 -22 13 -14 -1
-24 6 -26 17 -2 12 3 17 17 17 27 0 27 16 1 23 -11 3 -20 12 -20 21 0 9 8 16
20 16 11 0 20 7 20 15 0 10 -11 15 -35 15 l-35 0 0 -75z"/>
<path d="M2455 861 c-3 -5 -1 -12 5 -16 5 -3 10 -33 10 -66 0 -45 3 -59 14
-59 10 0 16 13 18 41 l3 41 25 -41 c14 -23 33 -41 43 -41 17 0 18 7 14 73 -3
51 -8 72 -18 72 -10 0 -13 -13 -10 -47 1 -27 1 -48 -2 -48 -2 0 -17 19 -33 43
-39 56 -56 68 -69 48z"/>
<path d="M2630 862 c0 -4 5 -13 11 -19 6 -6 9 -35 7 -67 -3 -49 -1 -56 16 -56
15 0 17 6 14 40 -2 22 -1 40 2 40 3 0 16 -18 30 -40 15 -24 32 -40 43 -40 18
0 18 6 12 73 -8 79 -9 82 -24 72 -7 -4 -9 -22 -5 -46 4 -21 3 -39 -2 -39 -5 1
-24 21 -42 45 -29 40 -62 59 -62 37z"/>
<path d="M2824 833 c3 -21 6 -55 6 -75 0 -27 4 -38 15 -38 12 0 15 15 15 75 0
70 -1 75 -21 75 -19 0 -21 -4 -15 -37z"/>
<path d="M2920 794 l0 -75 37 3 c28 2 39 8 42 23 3 17 1 17 -12 6 -26 -21 -37
-3 -37 60 0 46 -3 59 -15 59 -12 0 -15 -15 -15 -76z"/>
<path d="M3020 863 c2 -27 39 -138 47 -140 6 -2 16 11 23 29 l12 33 14 -32
c18 -43 31 -42 43 5 22 82 24 115 10 110 -8 -2 -15 -18 -17 -34 -6 -57 -13
-60 -32 -14 -18 46 -21 45 -36 -15 l-7 -30 -15 48 c-9 26 -21 47 -29 47 -7 0
-13 -3 -13 -7z"/>
<path d="M3430 795 c0 -60 3 -75 15 -75 9 0 15 9 15 25 0 32 5 31 35 -2 29
-35 44 -23 17 14 -18 24 -18 29 -5 49 13 20 12 25 -6 43 -12 12 -32 21 -46 21
-24 0 -25 -2 -25 -75z m50 26 c0 -11 -4 -23 -10 -26 -6 -4 -10 5 -10 19 0 14
5 26 10 26 6 0 10 -9 10 -19z"/>
<path d="M3560 855 c0 -8 6 -12 14 -9 17 6 29 -39 24 -88 -2 -25 1 -34 15 -36
17 -3 18 3 16 60 -2 52 0 64 14 66 37 7 14 22 -33 22 -37 0 -50 -4 -50 -15z"/>
<path d="M3713 795 c1 -41 4 -75 7 -75 17 1 31 21 28 41 -2 20 1 24 22 24 22
0 25 -4 23 -32 -3 -27 0 -30 17 -26 18 5 20 13 18 74 -3 58 -6 69 -20 69 -13
0 -18 -8 -18 -31 0 -26 -3 -30 -22 -27 -18 2 -23 9 -23 31 1 19 -4 27 -16 27
-15 0 -17 -10 -16 -75z"/>
<path d="M3870 861 c0 -4 9 -20 20 -34 13 -16 20 -40 20 -67 0 -34 3 -41 18
-38 13 2 17 13 17 44 0 22 8 53 18 67 21 32 21 37 3 37 -8 0 -18 -9 -21 -20
-3 -11 -10 -20 -15 -20 -5 0 -12 9 -15 20 -6 19 -45 29 -45 11z"/>
<path d="M1858 823 c-2 -5 -1 -24 3 -43 l6 -35 2 43 c1 39 -3 52 -11 35z"/>
<path d="M1933 823 c-22 -8 -16 -61 7 -68 43 -14 69 44 31 65 -11 5 -21 10
-23 9 -2 0 -9 -3 -15 -6z m43 -24 c8 -14 -21 -43 -35 -35 -19 12 -13 46 8 46
11 0 23 -5 27 -11z"/>
<path d="M2011 790 c0 -31 2 -40 8 -31 8 12 12 12 25 2 10 -8 16 -9 16 -3 0 6
-5 14 -10 17 -6 4 -8 15 -5 25 3 10 0 22 -6 26 -9 5 -10 2 -6 -9 3 -10 2 -17
-3 -17 -5 0 -11 8 -13 18 -3 9 -5 -3 -6 -28z"/>
<path d="M1883 805 c0 -8 4 -15 9 -15 4 0 8 7 8 15 0 8 -4 15 -8 15 -5 0 -9
-7 -9 -15z"/>
<path d="M3326 701 c-7 -11 18 -33 27 -24 4 3 7 12 7 20 0 15 -26 18 -34 4z"/>
<path d="M3377 624 c-14 -14 -7 -35 11 -32 9 2 17 10 17 17 0 16 -18 25 -28
15z"/>
<path d="M3431 536 c-9 -10 -9 -16 -1 -21 16 -10 31 7 21 23 -6 10 -10 10 -20
-2z"/>
<path d="M417 1343 c-4 -3 -7 -11 -7 -17 0 -6 5 -5 12 2 6 6 9 14 7 17 -3 3
-9 2 -12 -2z"/>
<path d="M270 1285 c0 -9 5 -15 11 -13 6 2 11 8 11 13 0 5 -5 11 -11 13 -6 2
-11 -4 -11 -13z"/>
<path d="M3527 383 c-4 -3 -7 -12 -7 -20 0 -15 26 -18 34 -4 7 11 -18 33 -27
24z"/>
<path d="M3226 351 c-9 -14 2 -140 14 -159 7 -12 9 7 10 66 l0 82 55 2 c30 1
63 2 73 2 32 2 20 -38 -16 -50 -17 -5 -36 -14 -41 -20 -13 -13 28 -119 41
-106 7 7 18 7 34 0 24 -11 54 2 54 25 0 7 -4 7 -12 -1 -16 -16 -45 -15 -51 2
-8 21 3 59 21 74 14 10 14 12 1 12 -24 0 -39 -22 -39 -57 0 -42 -16 -43 -24
-2 -9 45 -9 45 24 59 42 18 54 34 40 59 -9 19 -20 21 -95 21 -46 0 -86 -4 -89
-9z"/>
<path d="M3470 285 c-7 -8 -16 -12 -21 -9 -5 3 -9 1 -9 -5 0 -5 5 -13 10 -16
6 -3 8 -16 5 -28 -3 -12 1 -31 9 -42 14 -19 16 -19 32 -3 16 16 18 16 30 0 10
-13 15 -14 25 -5 8 8 16 9 29 1 30 -19 78 8 86 48 5 26 12 34 34 39 29 6 63
35 42 35 -6 0 -14 -4 -17 -10 -9 -14 -68 -13 -83 2 -9 9 -12 9 -12 0 0 -7 7
-15 15 -18 22 -9 19 -27 -10 -58 -29 -32 -51 -33 -58 -4 -7 25 6 53 28 62 20
7 10 26 -14 26 -10 0 -22 -10 -26 -22 l-8 -23 -4 23 c-5 26 -18 28 -32 5 -10
-17 -10 -17 -11 0 0 21 -23 22 -40 2z m25 -26 c-4 -5 -1 -9 4 -9 16 0 14 -35
-2 -49 -17 -14 -27 -4 -27 25 0 31 10 55 21 48 5 -3 7 -10 4 -15z m56 -14 c5
4 9 -5 9 -19 0 -23 -16 -44 -26 -33 -9 9 -13 48 -6 65 6 16 7 16 10 -1 2 -9 8
-15 13 -12z"/>
<path d="M3677 136 c-8 -21 16 -39 31 -24 8 8 9 15 1 25 -15 17 -25 17 -32 -1z"/>
<path d="M3741 60 c-16 -9 -6 -30 15 -30 15 0 20 25 6 34 -4 2 -14 1 -21 -4z"/>
</g>
</svg>
